<svg id="Draw_Layer" data-name="Draw Layer" xmlns="http://www.w3.org/2000/svg" viewBox="0 0 383.23 112.23"><defs><style>.cls-1{fill:#2c2c2c;}</style></defs><title>Angry_Eyes</title><path class="cls-1" d="M1474.82,468.59c-1.69-1.2-3.77-1.69-5.71-2.44a21,21,0,0,1-12.94-19.48,789.55,789.55,0,0,0,90.3-56.65,12.31,12.31,0,0,1,18.33,15.27c-.82,1.72-2,3.27-2.6,5.1-1.23,4.11,1.21,8.3,3.08,12.16,10.91,22.49,1.78,52.65-19.78,65.31s-52.33,5.95-66.67-14.53a18.7,18.7,0,0,0-4-4.74Zm-182.63-1.67c-4.83-1.22-8.34,4.3-10.85,8.61-13,22.39-44.94,31.25-67.66,18.8s-32.4-44.13-20.54-67.16c1.29-2.51,2.83-5,3.15-7.8s-1-6.06-3.74-6.81c-6-1.64-7.74-10.43-3.72-15.13s11.61-5.08,17-2l106.78,60.82c-1.45,3.53-3,7.16-5.66,9.87s-6.87,4.31-10.42,2.89c-1.48-.59-2.76-1.67-4.32-2.06Z" transform="translate(-1186.67 -387.77)"/></svg>