<svg id="Draw_Layer" data-name="Draw Layer" xmlns="http://www.w3.org/2000/svg" viewBox="0 0 523.15 1000"><defs><style>.cls-1{fill:#161616;}.cls-2{fill:#6edaf4;}.cls-3{fill:#725af7;}.cls-4{fill:#bebebe;}.cls-5{fill:#2c2c2c;}</style></defs><title>Angry_deer</title><path class="cls-1" d="M962.4,265c-.2.4-.4,1-.7,1-5.9.5-9.1,8.2-7.7,12.9a9,9,0,0,0,4.4,4.8,59.79,59.79,0,0,1,19.5,14.7,51.79,51.79,0,0,1,9.6,14.4c2,5,4.4,9.9,6.2,15a41.25,41.25,0,0,1,1.7,9.3c.4,3.1.3,6.3.6,9.5.2,1.5,1.1,3.1,1,4.6-.4,5.4-.8,10.8-1.5,16a81.07,81.07,0,0,1-3.2,12.9,125.88,125.88,0,0,1-5.8,14.3c-2.8,6.6-5.6,13.2-8.8,19.5a110.78,110.78,0,0,1-7,10.8c-3.9,6-7.7,12.1-11.8,18-3,4.4-6.2,8.7-9.3,12.8-3.5,4.5-6.7,9.4-10.8,13.3-3.4,3.2-7.2,6.6-12.2,7.6a49.48,49.48,0,0,1-9.4,1.3H871.1c-5.3,0-10.5.6-15.8.4a19.89,19.89,0,0,1-8.7-1.7,22.17,22.17,0,0,1-7.3-7,62.16,62.16,0,0,1-5-10.8c-1.9-4.6-3.6-9.5-5.4-14.2-.9-2.3-1.9-4.6-2.7-7-.8-2.1-1.5-4.3-2.1-6.4-1.1-3.7-2.2-7.4-3.1-11.1-.7-3.1-1.3-6.3-1.8-9.5-.6-3.9-.8-7.9-1.7-11.7-1.7-7.3-1.5-14.6-1.5-22a60.62,60.62,0,0,1,.6-9.5c.6-4,1.8-7.9,2.6-11.8.2-1-.1-2.2.2-3.2,1.1-4.2,2.2-8.4,3.7-12.5,1-2.8,3-5.3,3.8-8.1,1.1-3.7,3.4-6.7,5.3-10a94.56,94.56,0,0,1,5.9-9.1,123.22,123.22,0,0,1,10.3-11.4,80.18,80.18,0,0,1,15.3-11.2c3.3-1.9,6.2-4.3,5.8-8.9-.4-4.9-5.1-10.2-9.7-12.2-5-2.2-9.1-.1-13.3,1.8-6.8,3.1-11.2,9.1-16.1,14.4l-1.5,1.5c-4.6,5.2-9.3,10.3-13.9,15.5-3.5,3.9-6.9,7.9-10.3,11.9s-7.2,8.1-10.6,12.4c-1.4,1.7-2.1,1.2-3.5,0-4-3.9-6.3-8.7-8.7-13.7-2.4-5.3-4.2-10.8-8.3-15.5-5.3-6-11.5-7.8-18.9-7.1-2.2.2-6,4.9-6,7.2a82.24,82.24,0,0,0,.1,11.1,84.7,84.7,0,0,0,2.6,10.8c2,7.4,5.7,13.9,9.4,20.6,4.4,7.7,10.6,13.9,16.9,19.9a53.86,53.86,0,0,1,10.4,13.8,11.9,11.9,0,0,1,.4,9.6c-.6,1.8-2.8,2.1-4.4.9-5.9-4.1-11.7-8.2-17.6-12.2-4.2-2.8-8.4-5.6-12.9-8-3.5-1.9-7.3-1.2-10.9-.3-.5.1-1,1.5-.9,2.4a70.73,70.73,0,0,0,.6,11.3,20,20,0,0,0,3.5,7.7,52.29,52.29,0,0,0,8.6,9.6,138.3,138.3,0,0,0,12.8,8.8c3.5,2.3,6.9,4.6,10.5,6.5,6.8,3.6,12.1,8.8,17.3,14.2a39.23,39.23,0,0,1,7.2,12.1c1.5,3.4.6,6.6.9,9.9a9.63,9.63,0,0,1-1.3,3.7c0,.1-.8,0-1.1,0-3.2-1.2-6.3-2.5-9.5-3.7-4.5-1.7-9.1-3.3-13.6-4.8a5.82,5.82,0,0,0-1.9-.3,7.57,7.57,0,0,1-1.5-.1,100.93,100.93,0,0,0-24.5-1.9c-.1,0-.4.6-.4.7.9,1.2,1.9,2.3,2.8,3.4,2.3,2.6,4.4,5.5,6.9,7.9a173.63,173.63,0,0,0,15,13.3c5.1,3.9,10.7,7,16.2,10.4,3.7,2.3,7.5,4.5,11.4,6.5,3.6,1.8,7.5,3.2,11.2,4.9a1.7,1.7,0,0,1,0,1.4c-4,3.4-8,6.7-12,10-2.8,2.3-5.7,4.5-8.5,6.9s-3.2,2.3-6.1,0c-4.2-3.4-8.6-6.5-12.9-9.8-2.7-2-5.3-4.1-8.1-5.9s-5.8-3.7-8.9-5.3c-3.9-2.1-7.7-4.2-11.8-6.2-3.2-1.5-6.6-2.8-9.9-4.1-2.8-1.1-5.6-2.2-8.4-3.2s-5.8-2.1-8.8-2.9c-3.7-1.1-7.4-2.2-11.1-3.1s-7.4-1.1-11-2.2c-4.1-1.2-8.4-.9-12.5-1.7-8.4-1.7-16.8-1.4-25.2-1.5-1.9,0-3.8,0-5.8.1a16.05,16.05,0,0,0,0,3.1h.7c1.3,3.8,2.6,7.7,4,11.5,1.2,3.1,2.4,6.2,3.8,9.3,1.7,3.5,3.6,7,5.5,10.4,2.7,4.8,5.4,9.7,8.4,14.3a122.47,122.47,0,0,0,8.6,11.8c3.2,4.1,6.7,8.1,10.3,11.9,3.9,4,8.2,7.7,12.5,11.5,4.9,4.1,9.9,8.1,15.1,11.8s10.4,7.2,15.9,10.5c3.9,2.3,8.2,4,12.3,6.2.3.1.4.9.3,1.4-.6,2.8-1.5,5.5-2,8.3-.8,3.9-1.3,7.9-1.9,11.9a50.4,50.4,0,0,0-1.2,9.4c.2,11.6-1.1,23.3,1,34.9.8,4.5,1.4,9,2,13.5.1,1.2.2,2.4.4,3.6.7,2.9,1.6,5.8,2.4,8.7s1.5,6.2,2.5,9.2c1.3,3.8,2.9,7.6,4.5,11.3,1.8,4.3,3.5,8.6,5.6,12.8s4.4,8.3,6.9,12.3q4.95,7.8,10.5,15.3c1.8,2.5,1.9,3.3-.2,5.7a31.89,31.89,0,0,0-3.3,4c-2.6,4.3-5,8.7-7.4,13.1-2.1,3.9-4.2,7.7-6.1,11.8-1.4,3.1-2.3,6.4-3.5,9.6a108.51,108.51,0,0,0-4.1,11.3,135.8,135.8,0,0,0-3.2,15.4,111,111,0,0,0-1.5,16.3,92.29,92.29,0,0,0,.7,16.6c.9,5.4-.4,11.2-.8,16.8-.2,3.4-.1,6.9-.6,10.3-.6,3.6-1.9,7.1-2.6,10.8s-1,7.7-1.7,11.4c-.9,4.5-2.2,9-3.1,13.5a64.42,64.42,0,0,0-1.5,9.8,102.86,102.86,0,0,1-1.5,13.6,64,64,0,0,0-.7,11.6c-.1,4.3,0,8.6,0,13,.1,8.9-.3,17.7,1.5,26.6,1,4.8,1.1,9.8,1.7,14.7.5,4.1,1.3,8.3,1.9,12.4.2,1.1,0,2.3.2,3.4.8,3.1,1.9,6.2,2.6,9.4s1.2,6.2,1.9,9.2c.9,3.7,2,7.2,2.9,10.8s1.3,7,2.2,10.4c1.3,4.6,2.9,9.3,4.2,13.9.9,3.1,1.3,6.2,2.2,9.3,1.3,4.3,2.9,8.5,4.2,12.8,1.2,3.7,2.2,7.4,3.2,11.1,1.2,4.3,2.2,8.6,3.3,13s2.3,8.7,3.5,13.1c1,3.7,2.1,7.4,3.1,11.1.7,2.8,1.3,5.8,2.1,8.6,1.3,4.3,2.9,8.5,4.2,12.8,1.2,3.7,2.2,7.4,3.2,11.1,1.2,4.3,2.1,8.6,3.3,13s2.4,8.7,3.5,13.1c1,3.6,2,7.3,2.9,10.9.8,2.9,1.4,5.9,2.3,8.8,1.3,4.2,2.8,8.4,4.2,12.5a95,95,0,0,0,4,11.3,139.34,139.34,0,0,0,8,13.4,43.1,43.1,0,0,0,5.1,6.2,30.59,30.59,0,0,0,5.3,4.2c2.8,1.8,5.6,3.9,8.8,4.7,3.6.9,7.5.5,11.3.7,3.1.2,6.2.3,9.3.6,1.5.1,3.2,1,4.3.4a88.53,88.53,0,0,0,11.8-7.2c2.2-1.5,3.7-4.2,5.4-6.3a66.56,66.56,0,0,0,6.9-11.4c2.7-5.4,4-11,5.4-16.6a70.82,70.82,0,0,0,1.7-15.2c.3-5.4,0-10.8,0-16.2,0-3.3.3-6.7.5-10s.7-6.7,1.1-10.1c.2-1.4.3-2.9.6-4.3a1.44,1.44,0,0,1,.9-1.1,28.77,28.77,0,0,1,4.9-1.1,144.67,144.67,0,0,1,16.1-2.1c9.1-.3,18.2-.7,26.8,3.5a64.3,64.3,0,0,1,12,8c1.4,1.1,2.1,2.9,3.3,4.2a19.62,19.62,0,0,1,4.8,10.9c.8,7,.4,14,.8,21,.2,3.1.9,6.3,1.3,9.4.1,1.2.2,2.4.4,3.6.7,2.6,1.7,5.2,2.5,7.9a72.44,72.44,0,0,0,2.5,7.9,130.8,130.8,0,0,0,6.2,11.7c2.2,3.8,4.6,7.6,7.1,11.3a43.87,43.87,0,0,0,4,5.6,34.13,34.13,0,0,0,6.2,5.8,70.93,70.93,0,0,0,8.7,4.4h16c1.5-.7,2.9-1.8,4.4-1.9,2.9-.1,5-1.8,6.9-3.4a38.6,38.6,0,0,0,12.9-16.7c1.7-4,3.2-8,4.5-12.1,1.1-3.9,1.3-7.9,2-11.9,2.4-13.4.8-26.8.9-40.2a243.24,243.24,0,0,0-1.7-33c-.9-6.8-.3-13.4-.8-20.1-.2-2.2-.5-4.3-.5-6.5.1-7,.2-14.1.6-21.1.3-4.7,1-9.4,1.5-14.1q.6-4.65,1.5-9.3c.9-4,2.1-7.9,3.3-11.9a1.57,1.57,0,0,1,1.5-.6c3.1.9,6,1.9,9.1,2.8a19.09,19.09,0,0,0,3.3.6c3.2.5,6.4,1.1,9.7,1.4a74.61,74.61,0,0,0,9.5.5h1.8a53.23,53.23,0,0,0,9.8-.6,123.12,123.12,0,0,0,15.5-4.3,124.5,124.5,0,0,0,13.3-4.9,46.87,46.87,0,0,0,10.4-6,177.64,177.64,0,0,0,17.6-16,78.58,78.58,0,0,0,9.8-14.5,94.44,94.44,0,0,0,6.2-13.3c1.1-2.9,1.3-6.1,2.3-9,1.5-5,1.5-10.1,1.5-15.2a27.1,27.1,0,0,1,.9-5.7,56.1,56.1,0,0,0,0-5.8c-.6-2.6-.8-5.3-1.5-7.7-2-6.6-4.3-13.1-6.4-19.7-.3-1,0-1.1-1-.4-4.9,2.9-9.7,5.9-14.8,8.5-6.4,3.2-12.8,6.5-19.4,9.1a212,212,0,0,1-20.5,6.5,155.63,155.63,0,0,1-15.4,3.2c-4.1.7-8.4.6-12.6,1.5s-8.6.2-12.9.2c-1.9,0-1.8-1.3-1.5-2.6a11.9,11.9,0,0,0,.9-3.6c-.4-6.8.9-13.6-.9-20.4-.9-3.5-.6-7.3-1.7-10.9-1.5-5.2-2.2-10.8-3.4-16.1-.7-3.3-1.3-6.6-2.3-9.8-1.3-4.3-2.9-8.5-4.1-12.8s-2.3-8.4-3.2-12.7c-1.2-4.9-2.4-9.8-3.2-14.8-.9-5.8-1.2-11.6-1.7-17.4a54.75,54.75,0,0,1,0-8.1c.2-4.3.7-8.7,1.1-13,.2-1.9-.2-4.1.7-5.6,2.3-4.2.8-8.6,1.2-12.9.6-4.9-.7-10-1.4-14.9a72.28,72.28,0,0,0-2-11.3c-1.2-4.3-3.3-8.4-4.4-12.7-1.5-5.7-4.4-10.6-7.2-15.6a76.08,76.08,0,0,0-10.1-14.4c-5.1-5.6-11-10.5-16.7-15.6-2.8-2.5-4.9-5.3-4.8-9.1a18.56,18.56,0,0,1,1.1-5.2c1.2-3.5,2-7.2,3.9-10.2,3.1-4.8,6.9-9.2,10.4-13.8a80.55,80.55,0,0,0,4.9-6.6c2.8-4.6,5.5-9.2,8-13.9a125.83,125.83,0,0,0,6.6-13.9c1.5-4.1,2.6-8.4,3.9-12.7.9-3.3,2-6.6,2.6-9.9a88.38,88.38,0,0,0,1.6-11.5c.4-4.5.5-9,.6-13.5,0-3.7-.3-7.4-.5-11.1-.2-2.6.2-5-.9-7.7-1.3-3.1-1.2-6.7-1.8-10a75.1,75.1,0,0,0-2.1-9.4c-1.2-3.9-3.1-7.5-4.3-11.4a16,16,0,0,1,2.2-14.7c5.6-7.7,13.3-13,21.3-18a149.12,149.12,0,0,0,17-11.5c7.6-6.4,15-13.2,20.7-21.5,2.8-4.2,6-8.1,8.9-12.2a42.24,42.24,0,0,0,3.6-6.6c2-4.1,3.9-8.3,5.8-12.4,1.4-3.1,2.8-6.2,3.9-9.4a102.75,102.75,0,0,0,3.2-10.8c.4-1.3,0-2.4-1.9-2.4-8.1.4-16.2.6-24.4,1.2-3.6.2-7.1,1-10.6,1.5a29.69,29.69,0,0,0-4.3.6c-3.3.8-6.7,1.7-10,2.7-2.9.8-5.8,1.5-8.7,2.5-3.8,1.4-7.6,2.9-11.3,4.5-4.3,1.8-8.6,3.5-12.8,5.6s-8.3,4.4-12.3,6.9c-4.5,2.8-8.8,5.7-13.1,8.8-3.2,2.3-6.2,5-9.3,7.6a18.09,18.09,0,0,1-3.4,2.8c-4.4,1.8-8,5-13,5.8a19.12,19.12,0,0,1-8.9,0,15.11,15.11,0,0,1-10.2-7.7c-.4-.9-.4-.8.3-1.2l15.3-9.3a48.85,48.85,0,0,1,6.6-2.9c2.7-1.1,5.4-2.2,8.1-3.2,2.4-.9,4.7-1.5,7.1-2.3,3.9-1.1,7.7-2.1,11.6-3.1,2-.5,4.4-.6,6-1.7a13.17,13.17,0,0,0,5.1-10.7,9,9,0,0,0-1.4-5.3,26.88,26.88,0,0,0-6.2-7.6,20.19,20.19,0,0,0-8.9-3.1,29.08,29.08,0,0,0-13.4,1.4,14.72,14.72,0,0,1-3.6.4c-.4,0-.9.2-1.3.2.2-.4.3-.9.6-1.1,3.6-2.8,7.2-5.6,10.8-8.2a80.48,80.48,0,0,1,11.6-7.7,191.2,191.2,0,0,1,19.3-8,70.4,70.4,0,0,1,13.7-3.4c4.2-.7,9.4-4,9.8-8.1.5-5.1.7-10.4-2.6-15.1a16.54,16.54,0,0,0-14.3-7.7c-3,0-6,.3-8.9.5a3.55,3.55,0,0,1-1-.2,3.18,3.18,0,0,0,.9-.3c4.2-2.2,8.4-4.4,12.6-6.8,3.1-1.7,5.9-3.9,9-5.6,3.8-2.1,7.7-3.8,11.6-5.9,4.2-2.3,8.3-4.6,12.4-7.1,4.5-2.6,8.7-5.3,11.9-9.8,3.4-4.8,2.5-9.5,2.2-14.5a4.31,4.31,0,0,0-.8-2.4,11.8,11.8,0,0,0-9.4-4.6,20.48,20.48,0,0,0-9.7,2.1c-3,1.5-6.3,2.6-9.4,4-4.1,1.9-8.1,3.9-12.2,5.7s-8.1,3.4-12.1,5.2c-3.4,1.5-6.9,3.1-10.2,4.6-1.1.5-1,.3-1.2-.7a45.94,45.94,0,0,0-1.7-8.2c-1.3-3.8-3.1-7.6-4.7-11.3a96.55,96.55,0,0,0-5.8-11.6,126.36,126.36,0,0,0-8.5-11.8A88.29,88.29,0,0,0,992,277.4c-2.4-1.7-5-3.1-7.5-4.6a34.08,34.08,0,0,0-14.4-5.7c-.4,0-.8-.7-1.4-1ZM943.8,482.1a59.72,59.72,0,0,0,11.7-14.8,53.34,53.34,0,0,1,3.2-4.6l.2-.2.1-.2c.8-1.1,1.7-2.2,2.5-3.3,1.3-1.9,2.5-4,3.7-6l.1-.2.3-.5.2-.3c.8-1.3,1.5-2.7,2.4-4s1.7-2.7,2.6-4c1.3-2.1,2.7-4.2,4-6.4,3.4-5.9,6.5-11.7,9.2-16.7,3.3-6.2,6.4-12.2,9.1-17.8,1-2,1.8-4.1,2.6-5.9V397l.1-.2.9-2.2,1.7-4c1.3-3.2,3.2-7.6,4.8-11.7l.6-1.5a42.87,42.87,0,0,0,3.2-11.5,30.56,30.56,0,0,1,1.7-8.5c1.5-3.9,1.2-7.8,1-11.7-.1-1.3-.2-2.5-.2-3.8a27.86,27.86,0,0,0-1.7-8.1l-.1-.4a23.35,23.35,0,0,1-.7-2.5c-.2-.8-.3-1.2-.5-1.8l-.2-.7a68.67,68.67,0,0,0-2.7-8.8,68.48,68.48,0,0,0-3.7-7.1l-.1-.2-.1-.2c-.6-1-1.2-2.1-1.7-3.1-6.1-11.2-15.2-20.1-24-28.8l-1-1a14.31,14.31,0,0,1-1.1-1.5l-.2-.3-.2-.4v-.1h0l.5.1h.5a5.33,5.33,0,0,1,2,.7c1.4.8,2.8,1.7,4.3,2.6l.3.2c1.4.9,3.1,1.9,4.6,2.8a57.51,57.51,0,0,1,15,11.9,156.76,156.76,0,0,1,13.9,17.7,44,44,0,0,1,4.6,10.4l.3.7.8,2.2c1.7,4.5,3.2,9.3,4.3,13a18.66,18.66,0,0,1,.4,2.5,14.92,14.92,0,0,0,.2,2.1c.8,3.3,2.7,4.8,6.3,5.1h1.3c5.5,0,10.4-2.2,14.9-4.5,2.8-1.5,5.9-2.8,8.1-3.8h.2c1.4-.6,2.8-1.2,4.1-1.9l3.3-1.5.9-.4,3.5-1.6c5.5-2.6,11-5.1,16.5-7.7a1.7,1.7,0,0,1,.7-.1h.3a5.64,5.64,0,0,0,1.2-.4h.6l-.2.6a10.37,10.37,0,0,0-.4,1,27,27,0,0,1-8.7,12.8,53.18,53.18,0,0,1-14.9,9.5l-3.9,1.5c-4.1,1.5-8.2,3.1-12.4,4.6l-4.2,1.5-.5.2-.9.3c-2.6.9-5.9,2-9,3.2a46.4,46.4,0,0,0-7.9,4.3l-1.7,1.1a66.8,66.8,0,0,0-9.6,7.2,19.76,19.76,0,0,0-3.8,6.4l-.1.3c-.2.4-.4.9-.6,1.3a14,14,0,0,0-1.1,4.9,9.91,9.91,0,0,0,8.7,9.7h.3a10.66,10.66,0,0,0,6.1-2.5,52.45,52.45,0,0,1,28.5-10.7h1a5.92,5.92,0,0,1,1.9.5l.9.4h0a2.92,2.92,0,0,1-.2.9,4.38,4.38,0,0,1-.7,1.9,31.72,31.72,0,0,1-13.5,10.8l-3.3,1.4c-2.6,1.1-5.7,2.6-8.9,3.7-2.2.8-4.5,1.3-6.3,1.8s-4.2,1.1-6.3,1.8a145.24,145.24,0,0,0-14.3,5.9,24.53,24.53,0,0,0-12.6,13.5c-1.5,3.7-2.8,7.1-2.5,10.8a29.09,29.09,0,0,0,1.5,5.8l.4,1.2a2.14,2.14,0,0,0,2.5,1.5h.2l9.9-.3h1.1l10.8-.3a25,25,0,0,0,3.8-.6,18.46,18.46,0,0,1,2.3-.4h.2c.3,0,.7.1,1,.1h.2l.3.1h.1a4.35,4.35,0,0,0-.4.7,3.59,3.59,0,0,1-.7,1,23.92,23.92,0,0,1-10.4,6.1c-2.9.9-6,1.7-8.7,2.3h-.2l-2,.5c-1.1.3-2.3.5-3.5.8H992c-1.8.4-3.4.7-5,1.2-4.1,1.3-8.4,2.6-12.5,4.3-5,2.1-8.3,6.1-10.9,9.8a15.56,15.56,0,0,0,1.7,19.5,53.12,53.12,0,0,0,14.6,9.7,25.15,25.15,0,0,0,11.4,3,7.08,7.08,0,0,0,4.8-1.9c.2-.2.4-.3.5-.5l.6-.6c1.7-1.5,3.3-3.1,5-4.5l.2-.2.2-.2c3.7-3.4,7.5-7,11.5-10.2a147.93,147.93,0,0,1,16.5-11.6,157.56,157.56,0,0,1,18-9.9,134.92,134.92,0,0,1,15.4-5.7l4.3-1.5c4.5-1.5,9.3-3.1,14.6-4.5a96,96,0,0,1,10.5-1.8h.3c2.4-.4,4.9-.6,7.4-.9l5.7-.7a18.46,18.46,0,0,0,2.3-.4h.2a25,25,0,0,1,2.9-.5c.2,0,.5.3.7.7,0,0,.4.5.3.7a90,90,0,0,1-4.2,9.1c-1.5,3.1-3.5,6.7-5.7,10.6a47.34,47.34,0,0,1-3.5,5.6c-3.8,5-7.8,10.2-12.1,15.5-3.2,3.9-6.6,7.6-10.1,11.2a151.72,151.72,0,0,1-12.1,10.5,146.69,146.69,0,0,1-14.8,9.9,151.18,151.18,0,0,1-14.5,7.3c-7.6,3.4-12.2,12.9-10.1,20.7a39.34,39.34,0,0,0,2,5.4c.5,1.2,1.1,2.4,1.5,3.7.8,2.4,1.5,4.6,2.2,7.1l.7,2.2.5,1.8.1.4c.5,1.8,1.2,4,1.7,6.1a25,25,0,0,1,.5,2.9,7.72,7.72,0,0,0,.2,1.5c.1.9.3,1.9.4,2.8v.2c.3,1.9.6,4,.8,6.1.3,6,.5,11.7.5,17a85.83,85.83,0,0,1-.6,12.4,66,66,0,0,1-1.7,7.7l-.1.4-.1.5-.1.5c-.2.9-.4,1.7-.6,2.6l-.3,1.8c-.1.7-.2,1.3-.3,2-.2,1.1-.5,2.2-.7,3.3l-.1.6a67.88,67.88,0,0,1-2.5,9.6c-.4,1.1-.8,2.2-1.2,3.4a103.44,103.44,0,0,1-7.8,17.7l-3.9,6.6-.2.4c-1.7,2.9-3.8,6.5-5.9,9.8a76.12,76.12,0,0,1-5.5,7.2l-2.7,3.1c-3.5,4-7.4,8.5-11.5,12.6A121.29,121.29,0,0,1,978,720.5c-3.1,2.2-6.3,4.1-9.5,6l-3.4,2a1.39,1.39,0,0,1-1.1.2h-.5l.3-.4a2.34,2.34,0,0,1,.7-.7c8.1-5.4,14.6-12.3,21-18.9q6.6-7.05,12.6-14.7a168.73,168.73,0,0,0,19.6-31.9,147.74,147.74,0,0,0,5.9-14.5,66.1,66.1,0,0,0,2.4-9c.3-1.3.5-2.8.7-4.2V634a48.56,48.56,0,0,1,1-5.5c1.9-6.9,1.7-13.8,1.4-20.3a82.13,82.13,0,0,0-1.8-12.1l-.3-1.5-.4-1.9a67.79,67.79,0,0,0-2.9-11.8,47.32,47.32,0,0,0-3.6-7.1l-.2-.3c-.9-1.5-1.7-3.1-2.5-4.6a38.58,38.58,0,0,0-9.1-12.1c-3.7-3.5-7-6.1-11.3-7.1a22.36,22.36,0,0,0-3.1-.5A20.65,20.65,0,0,1,989,548a17.32,17.32,0,0,0-6.4-1.2c-1.3,0-2.7.1-4,.2h-2.2a28.3,28.3,0,0,0-5.8,1.1h-.2l-.2.1a34.67,34.67,0,0,1-5.6,1.1,27.06,27.06,0,0,0-9.6,3.1l-.8.4-1.9.9a41.4,41.4,0,0,0-11.8,7c-1.3,1.2-2.7,2.4-4.1,3.6l.6-.3-.5.4-.6.5a108.91,108.91,0,0,0-8.1,7.3,70,70,0,0,0-11.7,16.4,20.13,20.13,0,0,1-1.4,2.5l-.2.4-.2.3v.2c-.7,1.2-1.3,2.4-2,3.7-.9,1.9-1.8,3.9-2.8,6.4-.3.9-.6,1.7-.9,2.6s-.6,1.7-.9,2.6a1,1,0,0,1-.4.1c-.2,0-.9,0-1-.3l-.7-1.2a21.55,21.55,0,0,1-2.4-4.8c-.6-1.8-1.1-3.8-1.5-5.5h0v-.2a59.08,59.08,0,0,0-1.9-6.9,95,95,0,0,0-7.6-16.9c-4-6.5-8.4-13.4-14.5-19a31.86,31.86,0,0,0-14.2-8.5,48.42,48.42,0,0,0-10.7-1.5c-1.4-.1-2.7-.3-4.1-.5a25,25,0,0,0-4.7-.5,17.85,17.85,0,0,0-2.3.2,41.43,41.43,0,0,1-8.7.8,38.68,38.68,0,0,0-8.3.6c-1.5.4-3.2.7-5,1a82,82,0,0,0-9.8,2.3c-5.6,1.9-11,4-15.2,8.2-1,.9-2,1.8-3.1,2.7a23.54,23.54,0,0,0-3.7,3.3,72.44,72.44,0,0,0-11,16.4,92.64,92.64,0,0,0-5.9,15.1,45.12,45.12,0,0,0-1,5.3v.3a30.64,30.64,0,0,1-1,5.1c-1.5,6-1.3,12.2-1,18.2v.3c.1,2.2.2,4.8.2,7.2a33.64,33.64,0,0,0,1.5,8.4v.2c.3,1.2.7,2.5.9,3.7a25.58,25.58,0,0,1,.5,2.7v.5c.3,1.9.8,3.8,1.3,5.7a138.75,138.75,0,0,0,5,14.1c2.1,4.6,4.4,9.3,6.6,13.9v.2l.2.4.2.4c.7,1.3,1.3,2.7,2,4,1.5,3.1,3.2,6.3,5,9.5,1,1.8,2.1,3.6,3.2,5.3l.2.2.7,1.2,1.8,2.8.1.2.2.2c1.9,2.9,3.8,5.9,5.8,8.9a33.54,33.54,0,0,0,4.3,4.9l2.6,2.6c3.1,3.1,6.6,6.5,10.2,9.6a35.87,35.87,0,0,0,8.6,5.2,102.75,102.75,0,0,0,11.9,3.8c1.5.4,3.1.8,4.6,1.1l.7.2h.4a65.3,65.3,0,0,1,7.6,2,70.26,70.26,0,0,0,11.9,2.6h.2l4,.7a85.36,85.36,0,0,0,14.3,1.2c3.6,0,7.3-.2,11-.3h4.9c5.6-.2,11.3-.7,17.1-1.4a107.81,107.81,0,0,0,11.4-1.6c2.7-.5,5.4-1.3,8-2l.3-.1h.2l.6-.2,3.2-.9h.7c.9-.3,1.5-.6,2.3-.9l.4-.1a.35.35,0,0,1,.1.2v.4c-.7.2-1.3.4-2.2.6a18.25,18.25,0,0,1-7.5,3h-.3a26.81,26.81,0,0,0-2.7.7,107.83,107.83,0,0,1-11.2,2.8c-1.7.4-3.6.6-5.1.9h-.8c-2.2.3-4.4.7-6.5,1.2a72.15,72.15,0,0,1-17.3,1.8c-3.1,0-6.4-.1-8.9-.2h-.3c-2.3,0-4.6-.2-6.9-.2h-4.5a16.68,16.68,0,0,1-7.3-1.4,7.83,7.83,0,0,0-3.4-.5,12.75,12.75,0,0,1-2-.1c-.6-.1-1.5-.2-2.2-.3l-.7-.1a49.07,49.07,0,0,1-7.5-1.3c-6.6-1.9-12.4-3.8-17.8-5.9-6.2-2.4-12.7-5.3-19.2-8.4a73.1,73.1,0,0,1-7.6-4.6l-.8-.5-1.7-1.2a78.64,78.64,0,0,1-16.8-14.2,138.32,138.32,0,0,1-10-14.1l-.3-.5a101.23,101.23,0,0,1-6.5-11.6,141.77,141.77,0,0,1-5.4-13.9c-1.4-4-2.7-8.4-3.7-11.6l-.7-2.2a18.43,18.43,0,0,1-.5-2.5c0-.3-.1-.6-.1-.8-.1-.9-.2-1.9-.4-3v-.5a45.67,45.67,0,0,0-1.2-7.4,38.81,38.81,0,0,1-1.1-7.5,53.21,53.21,0,0,0-.6-5.6c-1.5-7.5-1.2-15.2-.9-22.7v-.7c0-2,.2-4,.2-5.9a66.18,66.18,0,0,1,1.5-14.1,50.25,50.25,0,0,0,1.4-12.8c0-6.7-4.6-10.6-8.5-13.2-1.1-.7-2.3-1.3-3.4-1.9l-.2-.1a33,33,0,0,1-3.2-1.8l-1.8-1.2c-4-2.6-8.1-5.3-12-8.3-4.2-3.3-8.3-6.8-12.3-10.3l-.1-.1-.3-.2-1.7-1.5-1.9-1.7c-3-2.6-6.6-5.8-9.8-9-4.5-4.6-9-9.6-13.7-15.3a162.16,162.16,0,0,1-9.9-13.2c-2.8-4.1-5.4-8.7-7.6-12.4l-.1-.2-1.2-2.1c-1-1.6-1.8-3.4-2.7-5.2l-.4-.8-.9-1.8a2.75,2.75,0,0,1,.4-2.5,5.91,5.91,0,0,1,4.2-3h3.1a22.27,22.27,0,0,1,9.2,1.5,7.46,7.46,0,0,0,2.6.4,7.72,7.72,0,0,1,1.5.2l2.9.6h.2l1.1.2h.5c3.5.6,7.4,1.4,11.2,2.4a125.46,125.46,0,0,1,15.8,4.9c4.9,2,9.6,4.2,14.1,6.4l5.4,2.5,2.3,1.1,1.2.5.2.1.2.1.3.1c3.2,1.5,6.6,3.1,9.8,4.8a121.35,121.35,0,0,1,10.4,6.5l.5.3c5.6,3.8,10.2,7,14.4,10.1,1.3,1,2.4,2,3.6,3.1l.2.2c.7.6,1.3,1.2,2,1.8a10.14,10.14,0,0,0,6.6,2.8,10.39,10.39,0,0,0,3.5-.7,13.75,13.75,0,0,0,4.3-3.3,42.17,42.17,0,0,1,10.7-8l2-1.2a64.54,64.54,0,0,1,5.8-3.1l.3-.2c1.8-.9,3.9-1.9,5.8-3.1a10.9,10.9,0,0,0,5.3-8.1c1-8-4.5-11.9-9.8-14.9-1.1-.6-2.1-1.2-3.1-1.8l-.3-.2c-1.9-1.1-3.8-2.2-5.7-3.2-3.7-2-7.6-3.9-10.7-5.4l-.2-.1-8.5-4.1-.9-.4c-1.7-.8-3.5-1.7-5.2-2.5a2.65,2.65,0,0,1-.6-.5c-.1-.1-.1-.2-.2-.3h0l.4-.1a1.45,1.45,0,0,1,.7-.2h.2c1.9.6,3.7,1.3,5.4,2l5.2,2.2,5.6,2.3a18.88,18.88,0,0,0,1.8.6l.3.1a16.59,16.59,0,0,1,3.1,1.2,6.28,6.28,0,0,0,8.7-2.3,7.79,7.79,0,0,0,.9-3.7,98.59,98.59,0,0,0-.5-13.3,54,54,0,0,0-1.5-9.8c-.3-.9-.5-1.8-.8-2.8-1.7-6.2-3.4-12.6-6.9-18.2-4.4-7.1-9.6-11.6-15.9-13.7-1.8-.6-3.7-1.2-5.6-1.8l-.3-.1h-.2c-2.6-.8-5.8-1.8-8.8-2.9-5.7-2.1-12-5.1-16-11.3a12.46,12.46,0,0,1-1.5-4.6,8.47,8.47,0,0,0-.4-1.7c-.2-.5-.2-.8,0-1s.1-.1.2-.1.4.2.9.5c2.4,2,5.1,3.9,7.6,5.7l1.1.8,3.9,3,.5.3a89.65,89.65,0,0,0,11.9,8.2,8.42,8.42,0,0,0,3.5.7,34.17,34.17,0,0,0,6.3-.9,12.26,12.26,0,0,0,8-6.9,17.81,17.81,0,0,0,2-9.3,30.67,30.67,0,0,0-3.1-10.7,38.7,38.7,0,0,0-6.2-9.3c-3.3-3.8-7-7.3-10.6-10.8l-.1-.1-1.4-1.3a61.05,61.05,0,0,1-17.9-34.8c-.3-2.1-.5-4.1-.6-6.2V306c0-1.3-.1-2.5-.2-3.8a1.7,1.7,0,0,1,.1-.7c0-.1.1-.2.1-.3h0l.3.2a1.7,1.7,0,0,1,.6.6l2.6,3.9c2.8,4.1,5.6,8.2,8.2,12.4,1.2,1.9,2.4,3.9,3.3,5.6a64.22,64.22,0,0,0,6,9.3l.7.8c3,3.7,6.1,7.6,11.6,7.6h.6a7.45,7.45,0,0,0,7.3-5c0-.1.1-.3.1-.4a1.42,1.42,0,0,1,.2-.6l2.5-3.1.4-.6.3-.4c2.1-2.6,4.3-5.3,6.5-7.9,4.2-4.9,8.5-9.7,12.4-13.9l.2-.2,1.7-1.9.1-.1.9-1,.1-.1c2.5-2.9,5.4-6.2,8.4-9.1,3.6-3.5,7.5-6.9,11.2-10.1l.2-.2,1.2-1,2.4-2.1a2.1,2.1,0,0,1,1.1-.4h.6l-.1.2-.1.2-.6.9-3.5,3.7-1.1,1.2-1.2,1.3c-3.7,3.9-7.7,8.4-11.7,13l-.4.5a113.82,113.82,0,0,0-11.3,14.6c-.6,1-1.2,1.9-1.8,2.9a43.2,43.2,0,0,0-5.8,11.8,68,68,0,0,1-3.7,9.8l-.1.2-.1.3c-.6,1.5-1.3,3-1.9,4.5a11.08,11.08,0,0,0-.5,2.5v.7c-.2,1.3-.3,2.6-.4,3.9v.4a55.79,55.79,0,0,1-1.3,9c-1.4,6-1.2,12.1-1,18.2,0,2.5.2,5.3.1,8.1a69.4,69.4,0,0,0,1,11.1c.2,1.1.4,2.2.5,3.3.4,2.7.9,5.3,1.5,7.9.3,1.3.8,2.5,1.1,3.7l.1.3v.4c.4,1.3.9,2.8,1.3,4.2s.7,3,.9,4.3v.2a42.19,42.19,0,0,0,1.3,5.7c1.2,3.9,2.5,7.6,3.7,11.3l.3.9c.6,1.5,1.1,3.3,1.7,4.9s1,2.9,1.4,4.3l.2.6.1.3.2.6c.7,2.1,1.3,4.2,2.1,6.3.9,2.5,1.8,4.8,2.7,7.1.4,1.1.9,2.2,1.3,3.4s.7,2,1.1,3.1a62.51,62.51,0,0,0,2.4,6,22.48,22.48,0,0,0,7.4,9.6,7.21,7.21,0,0,0,4,1.2,15.68,15.68,0,0,0,3.7-.5l.9-.2,1.4-.3h.5a17.42,17.42,0,0,1,2.2-.5c1.1-.2,2.3-.4,3.5-.6h.2l.5-.1h.2a52.44,52.44,0,0,0,7.9-1.5,44.22,44.22,0,0,1,8.9-1.1,41.67,41.67,0,0,0,7.1-.7,64.26,64.26,0,0,1,12.4-1.1c3.3,0,6.7.2,9.6.3h.7l2.3.1c4.9.2,10.2.7,15.8,1.4l3.9.6h.4a33.14,33.14,0,0,0,5.5.8h1.2c4.5,0,8.5-1.9,13.2-6.2ZM879.4,735.3c-2.6-.4-5.2-1-7.7-1.6h-.2l-3.9-.9a11,11,0,0,0-1.8-.2h-.2a7.72,7.72,0,0,1-1.5-.2l-4.3-.9c-3.7-.7-7.6-1.5-11.3-2.5-6.4-1.7-13.2-3.7-19.3-7.5-6.6-4.1-11.9-9.6-17.9-16.6a80.78,80.78,0,0,1-7.6-10.8c-1.7-2.7-3.2-5.6-4.8-8.5l-2.1-4-2.2-4-.3-.6c-1.8-3.3-3.7-6.7-5.5-10.2a50.46,50.46,0,0,1-2.6-6.4l-1.2-3.3c-.4-1.1-.9-2.2-1.4-3.3-.9-2.2-1.8-4.4-2.6-6.6a46.08,46.08,0,0,1-1.9-7.3c-.5-2.5-.8-5-1.2-7.4l-.1-.9c-.1-.9-.3-1.7-.4-2.6a1.45,1.45,0,0,0-.2-.7V628a7.72,7.72,0,0,1-.2-1.5V613.8c-.3-7.1,1.5-13.9,3.5-20.1a69.43,69.43,0,0,1,6.9-14.9,56.62,56.62,0,0,1,16-16.7,32,32,0,0,1,14.1-6.2,30.68,30.68,0,0,0,5.2-1.4,22.59,22.59,0,0,1,3.7-1.1,24,24,0,0,1,4.6-.5h1.3l4.5-.3c4.3-.3,8.7-.6,13.1-.7a24.35,24.35,0,0,1,7.5,1.9l.4.2a28.83,28.83,0,0,1,8,4.1c.9.7,1.9,1.4,2.9,2.1,2.8,1.8,5.6,3.7,7,7.1a9.23,9.23,0,0,0,2.3,2.9l.9.9a45.15,45.15,0,0,1,7.1,11.5c.7,1.5,1.5,3.1,2.3,4.6a43,43,0,0,1,2.9,7.8c.3,1.3.7,2.5,1.1,3.7.6,1.7,1.1,3.4,1.7,5.1l.3,1c1.4,4.3,2.9,8.8,4.5,13.1a41.8,41.8,0,0,0,2.8,5.6l.6,1.1a4.48,4.48,0,0,0,3.9,1.7,4.91,4.91,0,0,0,3.1-.9c2.6-2.2,3.7-5.2,4.8-8.2.3-.9.7-1.8,1-2.6l1.5-3.6c1.2-3.1,2.5-6.2,4-9.3,2.7-5.2,5.7-10.2,8.6-15.1a23.59,23.59,0,0,1,3.6-4.2l3.1-3.1.2-.2c3.5-3.4,7.1-7,10.8-10.2a47.38,47.38,0,0,1,9.1-5.6l.4-.2c3.3-1.7,6.8-3.1,10.1-4.5l.6-.2a3.55,3.55,0,0,1,1-.2h.9a3.4,3.4,0,0,0,1-.1,30.15,30.15,0,0,1,10.7-1.5c2.1,0,4.3.1,6.2.2a16.91,16.91,0,0,1,7.2,2.6,43.72,43.72,0,0,1,13.4,11.9,56.72,56.72,0,0,1,7.7,14.1,80.62,80.62,0,0,1,2.9,10.7l.7,3.1A66,66,0,0,1,1020,618a80.25,80.25,0,0,1-2.2,14.7,87.57,87.57,0,0,1-4.9,15.8,188.22,188.22,0,0,1-8.9,17.3c-2.8,5-6.1,10.3-10.1,16.6a70.47,70.47,0,0,1-6.7,8.8c-4.5,5.3-9.2,10.4-13.2,14.8a84.27,84.27,0,0,1-17.2,13.7,52.88,52.88,0,0,1-13.8,6.5c-2.2.7-4.5,1.5-6.7,2.4l-.4.1c-1.5.6-3.1,1.1-4.6,1.7a7.8,7.8,0,0,1-2.2.3c-.5,0-1,.1-1.5.1l-5.8,1-4.2.8-6.9,1.2-2.7.4a18.92,18.92,0,0,0-2.3.5h-.2a23.25,23.25,0,0,1-2.8.5c-4.2.3-7.5.5-11.1.5a85.83,85.83,0,0,1-12.4-.6Zm31.5,22.5a25.79,25.79,0,0,1,6.2-.9,18,18,0,0,0,7.9-1.6,6,6,0,0,1,2.4-.5,5.9,5.9,0,0,0,1.4-.2l3.8-.8a89.24,89.24,0,0,0,10.2-2.5c3.6-1.2,7.1-2.7,10.6-4.2,1.3-.5,2.5-1.1,3.7-1.5l1.8-.7.4-.2c2.2-.9,4.4-1.9,6.5-3,4.1-2.2,8.2-4.6,12.1-7.2,1.9-1.3,3.7-2.5,6-4.2l.1-.1.4-.3c1.5-1.1,3.3-2.4,5-3.5a4.07,4.07,0,0,1,1.8-.5,5.85,5.85,0,0,1,1.3.2l1.8.7a16.37,16.37,0,0,1,6.8,4.1c2.1,2.3,4.4,4.6,6.7,7l.2.2c2.4,2.4,5,5.1,7.5,7.9a70.7,70.7,0,0,1,7.7,10.5c4.6,7.3,8.7,13.9,12.4,21a42.7,42.7,0,0,1,2.8,8.3c.3,1.3.7,2.7,1.1,4s.7,2.2,1.1,3.4c.5,1.4,1,3.1,1.5,4.7a23.18,23.18,0,0,1,.6,3.8c.1,1.5.2,3.1.3,4.6v.2c.3,4.4.7,9.5.7,14.3a27.34,27.34,0,0,1-1.7,9.8c-.5,1.5-.9,2.9-1.4,4.5l-.1.4a38.72,38.72,0,0,1-4,10.1c-1.2,1.9-2.2,3.9-3.3,6l-.3.6v.2c-.9,1.8-2.1,4-3.3,6a44.29,44.29,0,0,1-5.7,7.4c-4.9,5.2-10.3,10.8-17.5,18.1l-.9.9a108.54,108.54,0,0,1-8.6,8,130.29,130.29,0,0,1-13.9,9.4,85.28,85.28,0,0,1-10.6,5l-2.3,1a10.27,10.27,0,0,1-2.4.5,6.75,6.75,0,0,0-1.4.2l-2.2.4-3.3.6h-.4a7.72,7.72,0,0,1-1.5-.2H958c-6.6-1-13.6-3.1-15.8-10.7a18.9,18.9,0,0,1,1-12.4,78.23,78.23,0,0,1,7.3-13.7l.4-.6c.7-1.2,1.4-2.3,2.1-3.5,4-6.7,7.6-13.7,11-20.5l.2-.4a28.2,28.2,0,0,0,1.9-5.1c.2-.8.5-1.5.8-2.4.2-.4.3-.9.5-1.3l.3-.7.2-.4.1-.2a44.81,44.81,0,0,0,3.5-12,18.09,18.09,0,0,0,.2-2.5,47,47,0,0,1,1.5-9,14.3,14.3,0,0,0,.8-7.4c-.3-1.4-.5-2.8-.7-3.8-.7-4.1-1.4-8.4-4.4-12.1a31.06,31.06,0,0,0-11.7-8.2c-3.4-1.5-7.2-3.1-12-4.8a11,11,0,0,0-1.8-.2h-.3a3,3,0,0,1-1.3-.2,82,82,0,0,0-19.1-1.9h-5.4a40.47,40.47,0,0,0-6,.5c-2.9.6-5.9,1.3-8.1,1.8H903l-3.1.7h-.3l-2.7.6h-.4a62.28,62.28,0,0,0-6.2,1.5c-4.4,1.5-8.5,3.3-13.4,5.4-3.6,1.5-7.3,3.3-11.3,5.3a26.74,26.74,0,0,0-4.8,3.2c-.8.7-1.7,1.4-2.7,2.2a80.68,80.68,0,0,0-8.7,7.8,21.74,21.74,0,0,0-3.6,6.7,12.2,12.2,0,0,1-.7,1.7c-2.7,6.4-2.1,13.3-1.7,19.4a50.67,50.67,0,0,0,3.5,13.9,90.26,90.26,0,0,0,5.7,12.2c3,5.6,6,10.7,8.6,15.1.8,1.3,1.7,2.6,2.5,3.8l.3.4a40.41,40.41,0,0,1,3.2,5.2c1.7,3.1,3.1,6.3,4.5,9.4l.3.6,1,2.1.3.6a41.92,41.92,0,0,1,2,4.9,12.7,12.7,0,0,1-.1,8.6c-2,4.6-5.6,7.7-9.3,10.7a28.18,28.18,0,0,1-6.4,3.4l-1.5.7-1.4.6a29.24,29.24,0,0,1-7,2.5,35.39,35.39,0,0,1-7.3.4H839a.76.76,0,0,1-.5-.2.6.6,0,0,0-.4-.1c-1.2-.2-2.4-.3-3.7-.5h-.2a72.23,72.23,0,0,1-7.9-1.3,35.36,35.36,0,0,1-7.6-3l-1.5-.7H817a76.64,76.64,0,0,1-8.6-4.3,91,91,0,0,1-9-6.3,127.91,127.91,0,0,1-11.5-10.5,79,79,0,0,1-6.2-8.1l-.4-.6-.8-1.1-.4-.6-1.1-1.5a83.18,83.18,0,0,1-5.6-8.5,104.91,104.91,0,0,1-5.8-12.2,129.53,129.53,0,0,1-4.9-13.6,34.49,34.49,0,0,1-1.1-5.4,40.48,40.48,0,0,0-.9-4.8c-2.1-7.6-1.8-15.5-1.5-23.1.1-3.1.2-6.4.1-9.7a56.87,56.87,0,0,1,1.2-10l.1-.5.1-.6v-.2l.3-1.8a94,94,0,0,1,2-9.2c.9-3.3,2.1-6.8,3-9.4v-.2l1-3c.3-.9.6-1.9.9-2.8l.1-.3a59.79,59.79,0,0,1,2.5-7.1c1.6-3.8,3.6-7.7,5.4-11.2l1-2,.3-.6.7-1.4a63,63,0,0,1,4-7.2c2.2-3.1,4.5-6.1,7-9l.8-1a1.74,1.74,0,0,1,1.5-.5,2,2,0,0,1,.7.1c2.8,1.1,5.6,2.3,8.2,3.5a18.65,18.65,0,0,1,2,1c.9.5,1.8.9,2.7,1.3,4.9,1.9,9.4,3.4,13.6,4.9,4.6,1.5,8.6,2.8,12.2,3.8,1.8.5,3.7,1,5.4,1.4l.3.1h.4l.3.1.4.1c2,.5,4.1,1,6.2,1.5a75.07,75.07,0,0,0,17,3.2,119.18,119.18,0,0,1,12,1.5,93,93,0,0,0,19.7,1.5h12.8a18.84,18.84,0,0,0,5.8-.7ZM849.6,937.5a79.88,79.88,0,0,0,9.8-1.5,41.31,41.31,0,0,0,22.2-14.6,9.52,9.52,0,0,0,1.5-3.6,13.32,13.32,0,0,1,1-2.8c1.5-3.1,1.3-6.4,1-9.6l-.1-1.5a45.25,45.25,0,0,0-2.6-11,96.91,96.91,0,0,0-5.4-12.4c-1.3-2.6-2.7-5.2-4.1-7.7l-1.2-2.2-.9-1.7c-1.4-2.6-2.9-5.3-4.5-7.9a27.49,27.49,0,0,0-2.3-3.3,36.22,36.22,0,0,1-2.7-4.1c-1.1-1.9-2.1-3.9-3.1-5.8l-.1-.3-.1-.2c-1.1-2.2-2.3-4.5-3.6-6.7-2.8-4.8-2.9-10.1-2.6-15.1a19.57,19.57,0,0,1,4.6-11.3,67.16,67.16,0,0,1,8-8,49,49,0,0,1,8.2-5.5c3.7-2,7.6-4,11.3-5.8l.3-.2,4.5-2.3a57.7,57.7,0,0,1,15.1-5.3c.8-.1,1.5-.3,2.4-.4h.4a24,24,0,0,0,5.9-1.3,21.69,21.69,0,0,1,7.6-1.3c1.9,0,3.8.2,5.6.3h1.2c6.5.6,13.4,1.5,19.5,5.4,1.1.7,2.2,1.3,3.2,1.9l.3.2a51.29,51.29,0,0,1,7.9,5.2,22.05,22.05,0,0,1,4.8,7.3l.5,1a10.31,10.31,0,0,1,1.1,5.4,84.78,84.78,0,0,1-2,9.5l-.6,2.4-.3,1.1a59,59,0,0,1-2,7.2,110.75,110.75,0,0,1-5,12.4,160,160,0,0,1-8,13.9c-1,1.5-2.1,3.2-3.3,4.9s-2.5,3.5-3.7,5.4a61.6,61.6,0,0,0-3.4,6.8l-.2.4-.7,1.5c-.3.6-.5,1.1-.9,1.8a18.44,18.44,0,0,0-1.9,5.1l-.3,1.8a37.75,37.75,0,0,0-1,11.6,24.78,24.78,0,0,0,4.8,12.8,23.11,23.11,0,0,0,19.5,8.9,3.19,3.19,0,0,1,1.4.3,2.35,2.35,0,0,0,.8.2,3.09,3.09,0,0,1,.8.2l1.2.3a.6.6,0,0,0,.4-.1,16.62,16.62,0,0,1,7-1.1,18.72,18.72,0,0,0,5.3-.5,99,99,0,0,0,9.6-3.4,70.77,70.77,0,0,0,7.7-4.1,57.44,57.44,0,0,0,6.6-4.3,4.3,4.3,0,0,1,2.8-1.1,3.19,3.19,0,0,1,3,2.6,28.82,28.82,0,0,1,1.5,7.2c.4,5.2.7,10.7.9,15.2l.3,5.7c0,2,0,4,.1,5.7a33.53,33.53,0,0,1-.4,9.5,27.34,27.34,0,0,0-.5,5,23.16,23.16,0,0,1-.8,5.8c-.8,2.5-1.3,5-1.9,7.5l-.1.6c-.2.8-.4,1.5-.6,2.4-.1.5-.2,1.1-.3,1.6v.3l-.3,1.5c-.2.8-.4,1.5-.6,2.4l-.3,1.2c-.7,2.9-1.4,6.2-2.4,9.3a102.87,102.87,0,0,1-4,10.5l-.1.2-.2.5c-1.7,4-3.5,8.1-5.4,12.1l-.2.4a81.73,81.73,0,0,1-4.8,9.3c-2.6,4.1-5.5,8.6-9,13.5a104,104,0,0,1-7.1,9l-.1.1-1.9,2.3c-2.4,3-4.9,5.9-7.5,8.6a96.54,96.54,0,0,1-7.8,6.9l-4,3.4a15.93,15.93,0,0,0-1.3,1.3,7.52,7.52,0,0,1-1.6,1.5l-1.9,1.4a83.47,83.47,0,0,1-8.8,5.8,74.49,74.49,0,0,1-11.2,4.9,97.74,97.74,0,0,1-10.6,2.9h-.3c-1.2.3-2.4.5-3.6.7h0a28.65,28.65,0,0,0-5.8,1.3,34.48,34.48,0,0,1-11.9,1.5h-8a29.52,29.52,0,0,1-11.3-2.9c-1.1-.5-2.2-.9-3.4-1.4a41,41,0,0,1-4.8-2.1l-1.7-.9a64.72,64.72,0,0,1-9.8-5.8,219.16,219.16,0,0,1-18.7-16,134.55,134.55,0,0,1-11.4-13.6l-1.9-2.5a78.62,78.62,0,0,1-7.7-11.4c-1.8-3.2-3.4-6.7-4.9-10l-.2-.3c-.6-1.3-1.2-2.7-1.8-4-.4-.9-.9-1.9-1.4-2.8-1-2-2.1-4.2-3-6.4a112.53,112.53,0,0,1-4.2-11.5c-.7-2.4-1.3-5.1-1.8-7.2v-.2c-.5-2-.9-4-1.5-6a121.46,121.46,0,0,1-3.4-15.9c-.2-1.2-.3-2.5-.5-3.8v-.5c-.2-2.4-.6-4.8-1-7.2a89.51,89.51,0,0,1-1.2-12.7c-.1-2.5-.2-5.6-.5-8.5a15.17,15.17,0,0,0-.3-2.1,31.5,31.5,0,0,1-.4-7.5,14,14,0,0,1,2.5-6.2,3.52,3.52,0,0,1,2.9-1.2,5.38,5.38,0,0,1,3.3,1l2.5,2.2.4.3a64.28,64.28,0,0,0,7.6,6.2,97.4,97.4,0,0,0,13.3,6.7l.8.3a54.06,54.06,0,0,0,10.4,3.1l1.2.3a57.86,57.86,0,0,0,13.1,1.5,27.55,27.55,0,0,0,9.1.2ZM904.7,1096c3.5-.9,7-1.9,10.5-3.1l2.4-.8.3-.1c2.9-1,6.2-2.1,9.3-3.4a70.77,70.77,0,0,0,7.7-4.1c4-2.4,8.2-5,12.4-7.7a31.89,31.89,0,0,0,4-3.3l2.4-2.2,1.5-1.5c3.5-3.1,7.4-6.7,11.2-10.6a110.39,110.39,0,0,0,11.9-13.6c.7-1.1,1.5-2.2,2.3-3.3l.4-.6a88.81,88.81,0,0,0,9.3-15.4c1-2.1,2.1-4.1,3.3-6.1l.2-.3c1-1.7,2-3.4,2.9-5.3a87.85,87.85,0,0,0,3.3-8.2v-.2l1.5-4.2,1.7-4.3,3-7.5a5.55,5.55,0,0,0,.3-1.7c0-.4.1-.9.1-1.3.4-2,.9-4,1.3-6,.7-3.1,1.5-6.8,2.2-10.3.3-1.5.5-3.3.7-4.9a41.73,41.73,0,0,1,1-6c1.8-7.6,1.6-15.4,1.5-23v-9.5a47.38,47.38,0,0,0-.5-8.4c-.4-2.7-1-5.5-1.5-8.2v-.3l-.2-.9-.2-.8-.6-3c-1.3-6.6-.3-11.3,3.4-15.2,2.4-2.6,4.9-5.2,7.4-7.9s5.2-5.6,7.9-8.4l3.1-3.1.2-.3.4-.4c1.5-1.5,2.9-2.8,4.3-4.3a1.89,1.89,0,0,1,1.3-.8c.6,0,1,.7,1.2,1.4,1.4,3.5,2.7,7.1,4,10.7l.6,1.7c.5,1.3,1,2.6,1.5,4,1.1,3,2.4,6.3,3.4,9.6a70.79,70.79,0,0,1,1.7,7v.2c.5,2.5,1.1,4.8,1.7,7a89.53,89.53,0,0,1,3.3,16.2,58.12,58.12,0,0,0,1.5,10.3,38.85,38.85,0,0,1,1.2,9.6v.2a46.23,46.23,0,0,0,.5,6.5c1.5,9.3,1.2,18.6.9,27.9-.1,2.6-.2,5.2-.2,7.9a89.28,89.28,0,0,1-.8,10.3v.4c-.2,2.1-.4,4.1-.6,6.2a90.71,90.71,0,0,1-1.4,9.1v.2l-.2.8c-1.1,6-2.2,11.1-3.2,15.9l-.1.6v.2a119.67,119.67,0,0,1-3.1,12.1c-1,3.2-2.3,6.5-3.2,9s-1.8,4.6-2.6,7a36,36,0,0,0-1.2,4.4v.8c-.3,1.1-.6,2.2-.9,3.2-.4,1.4-.9,2.7-1.3,4.1l-.2.5c-.4,1.3-.8,2.5-1.2,3.8a11.71,11.71,0,0,0-.4,2.6,4.87,4.87,0,0,1-.1,1.2l-.3,1.9-.3,1.9c-.4,2.6-.8,5.3-1.1,8-1.8,14.4-1.5,28.5-.9,45.4l.3,7.1c.2,6.7.5,14.2,1.4,21.7a105.63,105.63,0,0,1,.5,11.3,85.28,85.28,0,0,0,.3,8.8,13.55,13.55,0,0,0,.2,2v.6a29.17,29.17,0,0,1,.2,6.6,66.92,66.92,0,0,0-.4,10c0,2.5,0,5.1-.1,7.6a91.43,91.43,0,0,1-1.6,11.7l-.2.8c-1.3,5.9-2.6,11.9-5.7,17.2a35.44,35.44,0,0,1-8.9,10.4,19.71,19.71,0,0,1-11.4,4,23.28,23.28,0,0,1-3.8-.4c-3.8-.9-9.4-2.6-13.2-7.1a33.15,33.15,0,0,0-2.6-2.7l-.2-.2a34.23,34.23,0,0,1-3.6-4,73.26,73.26,0,0,1-6.5-11.6,101.64,101.64,0,0,1-5.2-14.3c-1.3-4.1-2.2-8.6-3.1-12.6l-.5-2.2-.6-3.6v-.3a34.67,34.67,0,0,0-1.1-5.6,30.87,30.87,0,0,1-1.1-8,31.7,31.7,0,0,0-.7-6.1,41.76,41.76,0,0,1-.7-10,55.61,55.61,0,0,0-.2-7.1c-.7-5.7-1.7-11.2-6.2-14.8a19,19,0,0,0-7.7-3.7,3.4,3.4,0,0,0-1-.1,13.59,13.59,0,0,0-3.5.7,8.47,8.47,0,0,1-1.7.4,61.68,61.68,0,0,1-14.2,2.1,58.07,58.07,0,0,0-7.2.5c-2.1.2-4.3.4-6.5.4h-.7a76.63,76.63,0,0,1-15-1.7l-4.6-1.2a38.1,38.1,0,0,0-10.6-1.9H888c-2.5.1-5,.2-6,3.1a5,5,0,0,0-.1,2.1v.5c0,.2.1.4.1.6a1.42,1.42,0,0,1,.2.6l.1,4.9c.2,9.1.3,18.6.4,27.7a59.68,59.68,0,0,1-.5,7.3l-.2,1.5v.3c-.4,3.3-.8,6.7-1.4,10v.4a82.63,82.63,0,0,1-3.2,12.8c-.4,1.1-.8,2.2-1.1,3.3a48.66,48.66,0,0,1-5.7,12.5,47.43,47.43,0,0,1-9,10,22.82,22.82,0,0,1-14.4,4.9,34.3,34.3,0,0,1-5.6-.5,20.23,20.23,0,0,1-9.3-4.5l-1.5-1.2-.3-.2a33.11,33.11,0,0,1-4.5-3.9,61.77,61.77,0,0,1-10.1-15.5c-.9-2.2-1.9-4.3-2.8-6.3l-.2-.5c-.9-2-1.9-4.2-2.8-6.4a112.31,112.31,0,0,1-3.8-10.6l-.5-1.4c-1.2-3.6-2.7-8.1-3.8-12.4-.5-2.1-.9-4.2-1.3-6.3v-1c-.2-1.3-.5-2.8-.8-4.2-.4-1.9-.9-3.9-1.4-5.9l-.1-.4c-.4-1.4-.7-2.8-1.1-4.2a3.79,3.79,0,0,1,0-1.5,2.44,2.44,0,0,0,0-1.2,23.36,23.36,0,0,0-.4-2.6l-.1-.8a69.49,69.49,0,0,0-1.7-9.1,136.16,136.16,0,0,1-3.2-16.9v-.2a35.55,35.55,0,0,0-1.5-5.6,23.26,23.26,0,0,1-1-3.2,9.69,9.69,0,0,1-.3-2.3v-1.1c-.7-2.4-1.2-4.8-1.8-7.1l-.1-.5c-.4-1.7-.8-3.5-1.3-5.2l-.1-.4v-.2c-1-4-2.1-8.2-3.5-12.2-1-2.9-2.3-6-3.3-8.5v-.2l-.1-.2c-.7-1.8-1.5-3.6-2.2-5.5s-1.2-3.2-1.8-4.9-1.1-3.1-1.7-4.8-1.4-3.5-2.1-5.2-1.7-4.1-2.5-6.2c-.5-1.5-1-3.1-1.4-4.4v-.2c-.2-.8-.4-1.5-.7-2.4-.4-1.3-.8-2.6-1.2-3.8l-.4-1.4-.1-.3c-1.2-3.6-2.2-6.9-3.1-10.2-.7-2.5-1.3-5.1-2-8v-.2l-.1-.6c-.4-2-.9-4-1.4-5.9a45.57,45.57,0,0,0-1.4-4.4c-.4-1.3-.9-2.5-1.2-3.7a6.15,6.15,0,0,1-.2-1.9,7.57,7.57,0,0,0-.1-1.5c-.7-4-1.4-7.6-2-10.7-.4-1.8-.8-3.7-1.2-5.5s-1-4.2-1.4-6.4a16.28,16.28,0,0,1-.3-3.1v-.4c0-.5-.1-1.1-.1-1.6-.1-1.1-.3-2.1-.4-3.1V971c-.2-1.5-.5-3.6-.7-5.6-.1-1.2-.1-2.4-.2-3.7v-.6a34.93,34.93,0,0,0-.5-6.5c-1.7-9.5-1.6-19.3-1.5-28.7,0-3.6.1-7.7,0-11.6,0-3.1.2-6.2.5-9.3l.2-1.5a88.11,88.11,0,0,1,1.5-10.3c.5-2,1.1-4,1.7-5.9v-.2a41.75,41.75,0,0,0,2.2-8.6,25.37,25.37,0,0,1,1.9-5.9,21.34,21.34,0,0,0,1.5-4.9,1.6,1.6,0,0,1,.7-.9l.2-.1a.52.52,0,0,1,.4-.2l.2.5c.1.3.2.5.3.8.3.9.6,1.7.9,2.6l1.8,5.4c.6,1.5,1.2,3.1,2.2,5.3,2.6,5.5,4.8,10.3,6.9,14.7.6,1.3,1.3,2.5,2,3.8l.2.3a36.37,36.37,0,0,1,3.9,8.8,27.52,27.52,0,0,1,.5,8.6c0,1.2-.1,2.4-.1,3.6a5.85,5.85,0,0,1-.2,1.3,5,5,0,0,0-.2,1.2v19.1c0,5.4.2,11.6.6,17.6.3,4.4.8,8.8,1.5,13.1,1,5.5,2,10.5,3.2,15.1.7,2.5,1.5,5,2.3,7.2l.1.3.1.3.1.4a41.07,41.07,0,0,1,1.5,4.6c.4,1.5.9,3.1,1.3,4.6.6,2.3,1.2,4.5,2,6.7,1.7,4.2,3.7,8.6,6.5,14.2a157,157,0,0,0,8,14.5c3,4.6,6.5,9,9.8,13.3l.1.1.1.1.5.7.7.9a79.66,79.66,0,0,0,8.5,9.8,134.65,134.65,0,0,0,15.7,13.5,107.7,107.7,0,0,0,13.6,7.7l.6.3,2.2,1.1a116.8,116.8,0,0,0,13,5.8,28.59,28.59,0,0,0,8.7,1.7c6,.4,12,.5,19.2.6h2.1a28.42,28.42,0,0,0,7.1-.6Zm211-99.8c-1.5-3.3-.3-11,2.2-13.9a16.83,16.83,0,0,1,10.2-6,10.56,10.56,0,0,0,1.9-.6l.9-.4a74,74,0,0,0,17-6.9,58,58,0,0,0,5.2-3.4l1.4-1c.5-.4,1-.8,1.6-1.3a16.47,16.47,0,0,1,2.7-1.9,1.88,1.88,0,0,1,.8-.2,3.77,3.77,0,0,1,2.1.7,10.21,10.21,0,0,1,3.8,6.8,30.43,30.43,0,0,0,1.3,5.2,25.81,25.81,0,0,1,1.4,6.7,31.76,31.76,0,0,1-2.1,9.6,17.23,17.23,0,0,1-.7,2.1,79.42,79.42,0,0,1-7.9,19,50.73,50.73,0,0,1-6.8,8.5,9.41,9.41,0,0,1-3.1,1.7,8.43,8.43,0,0,0-1.4.6c-.2-.1-.5-.2-.6-.4a1.49,1.49,0,0,1,.4-.9,15.16,15.16,0,0,0,5.2-8,40.43,40.43,0,0,0,1.1-9.1c0-.6-1.9-1.7-3.1-1.9a24.52,24.52,0,0,0-2.7-.2,36.22,36.22,0,0,0-11.3,2.4l-2,.6a11.93,11.93,0,0,1-3.7.6,15.43,15.43,0,0,1-13.8-8.4Zm-28.6,64.1-10.6-2.4c-1.3-.3-2.5-.6-3.7-1l-.8-.2-.8-.2-1.1-.3c-4.9-1.2-10.3-8.1-10.2-13.1a67.1,67.1,0,0,1,.6-9.3c.3-2.3.7-4.5,1.1-6.9v-.5a23.36,23.36,0,0,0,.4-2.6l1.5-9.3a21.87,21.87,0,0,0,.4-2.7v-.3a31.55,31.55,0,0,1,1.3-6.1,26.61,26.61,0,0,0,1-4.9c.5-3.3,1-6.8,3.8-9.3a47.71,47.71,0,0,1,7.6-5.8,83.14,83.14,0,0,1,11.6-5.7,37.58,37.58,0,0,1,13.6-3.2h1.5a4.55,4.55,0,0,1,1.9.8l.5.3.4.3-.4.6a7.46,7.46,0,0,0-.7,1.2l-.5,1.5c-1.3,3.7-2.6,7.2-.6,11.2a16.71,16.71,0,0,1,1.3,4.5,18.23,18.23,0,0,0,1.1,4,24.83,24.83,0,0,0,9.1,11.4,22.3,22.3,0,0,0,10.9,3.5h.8a24.18,24.18,0,0,0,4.7-.6h.4l2-.3a1.85,1.85,0,0,0,.7-.2h.3l-.1.4a1.61,1.61,0,0,1-.4.7l-1.2.9-.3.2a15.3,15.3,0,0,1-4,2.6c-3.1,1.3-3.7,3.5-3.7,6.7v1.3c1.9,3.7,4.8,5.8,8.2,5.8a11.32,11.32,0,0,0,7.8-3.5,7.63,7.63,0,0,1,1.1-.8c.2-.1.3-.2.5-.2h.1a1.27,1.27,0,0,0-.1.6v.2a2.39,2.39,0,0,1-.5,1.4c-2.5,2.2-5,4.4-8,7l-.4.4-3.1,2.6c-.5.5-1.1,1-1.7,1.5a21.58,21.58,0,0,1-3.3,2.7c-5.2,3.3-9.8,6.2-14.7,8.7a56.61,56.61,0,0,1-11.8,4.6,27.6,27.6,0,0,1-5.7.6h-.3c-1,0-2,0-3,.1a23.81,23.81,0,0,0-2.6.5l-1.1.3-.2.1a.37.37,0,0,1-.3.1h0l-1-.2Zm54.7-34.9a5.67,5.67,0,0,1,.8-1.3c.4,0,.6.2.5.4a8.8,8.8,0,0,1-.5,1.5c-.3-.1-.9-.4-.8-.6Z" transform="translate(-651.82 -265)"/><path class="cls-1" d="M878.9,499.6v1.9c0,3.2,0,6.2,1.5,9a9.08,9.08,0,0,0,7,4.5h.3a10.44,10.44,0,0,0,8.7-5.2c1.9-3.4,1.9-6.4.2-8.5a18.81,18.81,0,0,0-10.3-6.9,10.68,10.68,0,0,0-2.5-.3c-3.2-.1-4.9,1.9-4.9,5.5Z" transform="translate(-651.82 -265)"/><path class="cls-1" d="M849.3,496c-2,.3-4.1.6-4.1,3.5a30.09,30.09,0,0,1-.1,3.1v.3c-.1,1.3-.1,2.7-.1,4a6,6,0,0,0,1.5,3.1,6.88,6.88,0,0,0,5.7,2.6,32.52,32.52,0,0,0,4.5-.6l1.5-.6a6.89,6.89,0,0,1,1-.4,7.93,7.93,0,0,0,3.8-10l-.2-.4a6.58,6.58,0,0,0-1.7-2.3,16.43,16.43,0,0,0-8.6-2.4,17.13,17.13,0,0,0-3.2.1Z" transform="translate(-651.82 -265)"/><path class="cls-1" d="M951.1,498.1a5.78,5.78,0,0,0-1.4.5,3.36,3.36,0,0,1-1.4.5,6.41,6.41,0,0,0-6.4,6.2v4.3c.2,3.7.9,7.3,5.4,9.3a8.15,8.15,0,0,0,3.1.6,8.75,8.75,0,0,0,8.4-5.7,8.85,8.85,0,0,0,2.3-9.7,8.53,8.53,0,0,0-8.8-6.2c-.4.1-.8.1-1.2.2Z" transform="translate(-651.82 -265)"/><path class="cls-1" d="M921.6,499.1h-8.5a2.8,2.8,0,0,0-3.1,2.4v.3l-.1,1a55.63,55.63,0,0,0-.4,8.2,7.72,7.72,0,0,0,7.7,7,6,6,0,0,0,2.6-.5,24.73,24.73,0,0,1,3.6-1.1c.8-.2,1.7-.5,2.5-.7a11.61,11.61,0,0,0,3.5-8.8,7.49,7.49,0,0,0-3.2-5.8,7,7,0,0,0-4.4-1.8Z" transform="translate(-651.82 -265)"/><path class="cls-1" d="M875.2,525a4.33,4.33,0,0,0-4.3,2.8c-.1,1.4-.2,2.6-.2,3.6,0,3.3.6,7.1,4.9,9.4a19.27,19.27,0,0,0,5.6,1.8h.4a7.06,7.06,0,0,0,2.4-.6l.4-.1.9-.3c2.3-.6,6.1-5.6,6.4-7.9a6.5,6.5,0,0,0-1.9-5.3,9.73,9.73,0,0,0-6.7-3.4h-7.9Z" transform="translate(-651.82 -265)"/><path class="cls-1" d="M906.8,530.8a5.13,5.13,0,0,1-2.4.7h-6.1c-.4,0-.7,0-.8.2s-.2.5-.2,1v10.4c1.9,2.4,3.7,3.5,5.7,3.5a7.72,7.72,0,0,0,1.5-.2,23.46,23.46,0,0,0,4.3-1.9c4.8-2.5,6.2-4.8,5.9-9.3-.2-2.6-3.7-5-6.4-5a3.29,3.29,0,0,0-1.7.4Z" transform="translate(-651.82 -265)"/><path class="cls-1" d="M930.8,531.6a3.37,3.37,0,0,0-3.4,3.4v.1c0,1.3-.1,2.7-.1,4.1v4.5c.1,3.3,2.2,5.6,5.1,5.6h.7c3.1-.4,8.5-2.5,10.2-6.7a11.7,11.7,0,0,0,.5-2v-4.2c-.1-1.8-2.3-4.8-3.5-4.8h-5.6c-1.7,0-3,0-4.1.1Z" transform="translate(-651.82 -265)"/><path class="cls-1" d="M904.7,561.8v8.3c0,2.1,1.1,2.9,2.7,4a3.94,3.94,0,0,0,2.1.6,12.21,12.21,0,0,0,2.6-.6l.4-.2,1.5-.6a16.61,16.61,0,0,0,5.6-2.9c3.1-2.8,3.4-7.8.6-12.4-1.2-.8-2.7-1.7-4.2-2.6a5.42,5.42,0,0,0-3.3-.8,8,8,0,0,0-8,7.2Z" transform="translate(-651.82 -265)"/><path class="cls-1" d="M887.9,679.2c-.8,0-1.7.1-2.8.1h-4.8c-3.8,0-6.8,1.8-7.5,4.4-1.7,6.6-.1,12.9,5.2,19.7a88.16,88.16,0,0,0,7.7,8.4l.5.5a8.34,8.34,0,0,0,5.9,2.5,7.38,7.38,0,0,0,4.5-1.5c8-6.6,13.3-13.3,16.5-20.8,1.4-3.3.7-6.8-1.6-8l-.9-.4a25,25,0,0,0-7.4-3c-1.3-.2-2.5-.4-3.7-.7a50.4,50.4,0,0,0-9.5-1.2,17.7,17.7,0,0,0-2.3.1Zm5.9,22.3a23.92,23.92,0,0,0-2.1-1.3c-2.7-1.7-5.5-3.4-6.8-6.9l-.1-.3c-.2-.6-.3-.9-.2-1.1s.4-.3,1-.4a2,2,0,0,0,.9-.5l.4-.3h0q6.3.9,12.6,2.4c.1,0,.2.2.4.5a1.84,1.84,0,0,1,.2,1.6,27,27,0,0,1-3,5.2c-.4.6-1.1,1.5-2,1.5a1.25,1.25,0,0,1-1.3-.4Z" transform="translate(-651.82 -265)"/><path class="cls-2" d="M920.4,784.1a19.63,19.63,0,0,0-7.6,1.3,38.75,38.75,0,0,1-5.9,1.3h-.4a24,24,0,0,0-2.4.4,54.29,54.29,0,0,0-15.1,5.3l-4.5,2.3-.3.2c-3.7,1.9-7.6,3.8-11.3,5.8a51,51,0,0,0-8.2,5.5,60.47,60.47,0,0,0-8,8,18.93,18.93,0,0,0-4.6,11.3c-.3,5-.2,10.3,2.6,15.1,1.3,2.2,2.4,4.5,3.6,6.7l.1.2.1.3c1,1.9,2,3.9,3.1,5.8a36.22,36.22,0,0,0,2.7,4.1c.7,1,1.5,2.2,2.3,3.3,1.5,2.6,3.1,5.3,4.5,7.9l.9,1.7,1.2,2.2c1.4,2.5,2.9,5.1,4.1,7.7,2,4,3.8,8.2,5.4,12.4a45.25,45.25,0,0,1,2.6,11l.1,1.5c.3,3.2.6,6.5-1,9.6a23.07,23.07,0,0,0-1,2.8,11.45,11.45,0,0,1-1.5,3.6A41.31,41.31,0,0,1,859.7,936a64.42,64.42,0,0,1-9.8,1.5,75.73,75.73,0,0,1-9.5.6,57.86,57.86,0,0,1-13.1-1.5l-1.2-.3a56.26,56.26,0,0,1-10.4-3.1l-.8-.3a110.33,110.33,0,0,1-13.3-6.7A50.2,50.2,0,0,1,794,920l-.4-.3-2.5-2.2a5,5,0,0,0-3.3-1,3.25,3.25,0,0,0-2.9,1.2,14,14,0,0,0-2.5,6.2,37.75,37.75,0,0,0,.4,7.5l.3,2.1c.3,2.9.4,6,.5,8.5a68.25,68.25,0,0,0,1.2,12.7c.5,2.4.8,4.9,1.1,7.2v.5c.2,1.3.3,2.5.5,3.8a121.46,121.46,0,0,0,3.4,15.9c.6,2,1,4,1.5,6v.2c.5,2.1,1.1,4.6,1.8,7.2,1.2,3.9,2.7,7.8,4.2,11.5.9,2.2,2,4.5,3,6.4l1.4,2.8c.6,1.3,1.2,2.7,1.8,4l.2.3c1.5,3.4,3.1,6.8,4.9,10a99,99,0,0,0,7.7,11.4l1.9,2.5a134.55,134.55,0,0,0,11.4,13.6,190.14,190.14,0,0,0,18.7,16,64.72,64.72,0,0,0,9.8,5.8l1.7.9a50,50,0,0,0,4.8,2.1c1.2.5,2.3.9,3.4,1.4a27.82,27.82,0,0,0,11.3,2.9h8a39.68,39.68,0,0,0,11.9-1.5,37.49,37.49,0,0,1,5.8-1.3h.3c1.2-.2,2.4-.4,3.6-.7h.3c3.6-.8,7.1-1.8,10.6-2.9a65.56,65.56,0,0,0,11.2-4.9,89.17,89.17,0,0,0,8.8-5.8l1.9-1.4a11.72,11.72,0,0,0,1.6-1.5,8,8,0,0,1,1.3-1.3c1.3-1.2,2.7-2.3,4-3.4,2.5-2.1,5.3-4.4,7.8-6.9a102.62,102.62,0,0,0,7.5-8.6l1.9-2.3.1-.1c2.4-2.9,4.9-5.9,7.1-9q5.25-7.35,9-13.5a81.73,81.73,0,0,0,4.8-9.3l.2-.4c1.9-4,3.7-8.1,5.4-12.1l.2-.5.1-.2c1.4-3.4,2.9-6.9,4-10.5,1-3.1,1.7-6.4,2.4-9.3l.3-1.2c.2-.8.4-1.5.6-2.4l.3-1.5v-.3c.1-.6.2-1.1.3-1.6l.6-2.4.1-.6c.6-2.5,1.1-5,1.9-7.5a22.55,22.55,0,0,0,.8-5.8,28.25,28.25,0,0,1,.5-5,33.53,33.53,0,0,0,.4-9.5c0-1.8-.2-3.8-.1-5.7l-.3-5.6c-.2-4.4-.5-10-.9-15.2a34.52,34.52,0,0,0-1.5-7.1,3.3,3.3,0,0,0-3-2.6,5.7,5.7,0,0,0-2.8,1.1,57.44,57.44,0,0,1-6.6,4.3,81.41,81.41,0,0,1-7.7,4.1,78,78,0,0,1-9.6,3.4,18.72,18.72,0,0,1-5.3.5,15.18,15.18,0,0,0-7,1.1.6.6,0,0,1-.4.1,2.66,2.66,0,0,1-1.2-.3,3.71,3.71,0,0,0-.9-.2,2.35,2.35,0,0,0-.8-.2,3.19,3.19,0,0,0-1.4-.3,23.66,23.66,0,0,1-19.5-8.9,23.94,23.94,0,0,1-4.8-12.8,34.9,34.9,0,0,1,1-11.6l.3-1.7a22.29,22.29,0,0,1,1.9-5.1l.9-1.8.7-1.5.2-.4a61.6,61.6,0,0,1,3.4-6.8,63.13,63.13,0,0,1,3.7-5.4c1.1-1.6,2.3-3.3,3.3-4.9,2.6-4.1,5.5-9,8-13.9a110.75,110.75,0,0,0,5-12.4,64.44,64.44,0,0,0,2-7.2l.3-1.1.6-2.4c.8-3.2,1.5-6.4,2-9.5a9.11,9.11,0,0,0-1.1-5.4l-.5-1a23.73,23.73,0,0,0-4.8-7.3,51.91,51.91,0,0,0-7.9-5.3l-.3-.2c-1.1-.6-2.2-1.3-3.2-1.9-6.2-3.9-13-4.9-19.6-5.4h-1a51.15,51.15,0,0,0-5.6-.3Z" transform="translate(-651.82 -265)"/><path class="cls-2" d="M849.8,551.5h0c-4.4,0-8.8.3-13.1.7l-4.5.3h-1.3a23.15,23.15,0,0,0-4.6.5c-1.2.3-2.4.7-3.7,1.1a30.68,30.68,0,0,1-5.2,1.4,31.51,31.51,0,0,0-14.1,6.2,56.62,56.62,0,0,0-16,16.7,69.43,69.43,0,0,0-6.9,14.9,59.87,59.87,0,0,0-3.5,20.1c.1,2.5,0,5,0,7.8v4.9a7.72,7.72,0,0,0,.2,1.5v.2c0,.2.1.5.1.7.1.9.3,1.7.4,2.6l.1.9c.4,2.4.7,5,1.2,7.4a60.17,60.17,0,0,0,1.9,7.3c.8,2.2,1.7,4.5,2.6,6.6.5,1.1.9,2.2,1.4,3.3l1.2,3.3c.8,2.2,1.6,4.3,2.6,6.4,1.7,3.5,3.6,6.9,5.5,10.2l.3.6,2.2,4,2.1,4c1.5,2.9,3.1,5.8,4.8,8.5a91.08,91.08,0,0,0,7.6,10.8c5.9,7,11.2,12.5,17.8,16.6,6.1,3.8,12.9,5.8,19.3,7.5,3.7,1,7.6,1.7,11.3,2.5l4.3.9a7.72,7.72,0,0,0,1.5.2h.2l1.8.3,3.9.9h.2a65.7,65.7,0,0,0,7.7,1.6,102,102,0,0,0,12.4.6c3.6,0,6.9-.2,11.1-.5a27.41,27.41,0,0,0,2.8-.5h.2c.7-.2,1.4-.3,2.3-.5l2.7-.4,6.9-1.2,4.2-.8c1.9-.4,3.9-.7,5.8-1a7.57,7.57,0,0,1,1.5-.1,8.33,8.33,0,0,0,2.2-.3c1.5-.5,3.1-1.1,4.6-1.7l.4-.1c2.3-.9,4.5-1.7,6.7-2.4a54.44,54.44,0,0,0,13.8-6.5,84.27,84.27,0,0,0,17.2-13.7c4-4.4,8.6-9.5,13.2-14.8a97.07,97.07,0,0,0,6.7-8.8c4.1-6.3,7.3-11.5,10.1-16.6a166.22,166.22,0,0,0,8.9-17.3,96.35,96.35,0,0,0,4.9-15.8,73.39,73.39,0,0,0,2.1-14.7,69.84,69.84,0,0,0-1.3-18.8l-.7-3.2a99.46,99.46,0,0,0-2.9-10.7,58.55,58.55,0,0,0-7.7-14.1,44.09,44.09,0,0,0-13.5-12.3,16.91,16.91,0,0,0-7.2-2.6c-1.9-.1-4.1-.2-6.2-.2a32.23,32.23,0,0,0-10.7,1.5,1.64,1.64,0,0,1-1,.1h-.9a1.8,1.8,0,0,0-1,.2l-.6.2c-3.4,1.4-6.8,2.8-10.1,4.5l-.4.2a47.38,47.38,0,0,0-9.1,5.6c-3.8,3.2-7.4,6.8-10.8,10.2l-.2.2-3.1,3.1a18.19,18.19,0,0,0-3.6,4.2c-2.9,4.8-5.9,9.8-8.6,15.1-1.5,3-2.8,6.2-4,9.3l-1.5,3.6c-.4.9-.7,1.8-1,2.6-1.1,3-2.2,6-4.8,8.2a4.37,4.37,0,0,1-3.1.9,4.48,4.48,0,0,1-3.9-1.7l-.6-1.1a41.8,41.8,0,0,1-2.8-5.6c-1.5-4.3-3.1-8.8-4.5-13.1l-.3-1c-.6-1.7-1.1-3.4-1.7-5.1-.4-1.2-.8-2.5-1.1-3.7a36.64,36.64,0,0,0-2.9-7.8c-.8-1.5-1.5-3.1-2.3-4.6a47,47,0,0,0-7.1-11.5l-.9-.9a10.91,10.91,0,0,1-2.3-2.9c-1.4-3.4-4.3-5.3-7-7.1a19.41,19.41,0,0,1-2.9-2.1,35.6,35.6,0,0,0-8-4.1l-.4-.2a19.78,19.78,0,0,0-7.5-1.9Zm35.3,127.8a24.39,24.39,0,0,0,2.8-.1,17.7,17.7,0,0,1,2.3-.1,49.36,49.36,0,0,1,9.4,1.2c1.3.2,2.5.5,3.8.7a25,25,0,0,1,7.4,3l.9.4c2.4,1.2,3.1,4.6,1.6,8-3.2,7.6-8.5,14.2-16.5,20.8a6.8,6.8,0,0,1-4.5,1.5,8.34,8.34,0,0,1-5.9-2.5l-.5-.5a76.69,76.69,0,0,1-7.7-8.4c-5.3-6.8-6.9-13.1-5.2-19.7.7-2.7,3.7-4.4,7.5-4.4h4.8Z" transform="translate(-651.82 -265)"/><path class="cls-3" d="M886.9,690.8h0c-.1.1-.3.2-.4.3a4.05,4.05,0,0,1-.9.5c-.6.1-.9.2-1,.4s0,.5.2,1.1l.1.3c1.3,3.5,4.1,5.2,6.8,6.9.7.4,1.4.9,2.1,1.3a3,3,0,0,0,1.3.5c.9,0,1.5-.9,2-1.5a44,44,0,0,0,3-5.2,2.85,2.85,0,0,0-.2-1.6,1.08,1.08,0,0,0-.4-.5,80.23,80.23,0,0,0-12.6-2.5Z" transform="translate(-651.82 -265)"/><path class="cls-1" d="M1143.1,1021.1a2.56,2.56,0,0,0-2.5,2c-.6,1.9-.7,4.6,1,6.1a1,1,0,0,0,1.4,0l.1-.1h0a1.33,1.33,0,0,0,1.1-.8,5.29,5.29,0,0,0,.8-3.2,6.72,6.72,0,0,0-.4-2.4,1.9,1.9,0,0,0-1.5-1.6Z" transform="translate(-651.82 -265)"/><path class="cls-4" d="M971.6,277h0l.3.5.2.3a5.83,5.83,0,0,0,1.1,1.5l1,1c8.8,8.7,17.9,17.6,23.9,28.8.6,1,1.1,2.1,1.7,3.1l.1.2.1.2a68.48,68.48,0,0,1,3.7,7.1,68.67,68.67,0,0,1,2.7,8.8l.2.7c.2.6.3,1.2.5,1.8.2.8.5,1.7.7,2.5l.1.4a31.58,31.58,0,0,1,1.7,8.1c0,1.3.1,2.5.2,3.8.2,3.8.5,7.7-1,11.7a34.65,34.65,0,0,0-1.7,8.5,40.92,40.92,0,0,1-3.2,11.5l-.6,1.5c-1.5,4.1-3.4,8.5-4.8,11.7l-1.7,4-.9,2.2-.1.2v.2c-.8,1.8-1.5,3.9-2.6,5.9-2.8,5.6-5.9,11.6-9.1,17.8-2.6,4.9-5.8,10.8-9.2,16.7-1.3,2.2-2.7,4.4-4,6.4-.9,1.3-1.7,2.7-2.6,4s-1.5,2.6-2.4,4l-.2.3-.3.5-.1.2c-1.2,2-2.4,4-3.7,6-.8,1.1-1.6,2.2-2.5,3.3l-.1.2-.2.2a34.55,34.55,0,0,0-3.2,4.6,62.12,62.12,0,0,1-11.7,14.8c-4.6,4.2-8.7,6.2-13.2,6.2h-1.2a52.06,52.06,0,0,1-5.5-.8h-.4c-1.4-.2-2.6-.5-3.9-.6-5.6-.6-10.8-1.1-15.8-1.4l-2.3-.1H901c-3-.2-6.3-.3-9.6-.3a64.26,64.26,0,0,0-12.4,1.1,58.8,58.8,0,0,1-7.1.7,38,38,0,0,0-8.9,1.1c-2.6.6-5.2,1.1-7.9,1.5h-.2l-.5.1h-.2c-1.2.2-2.4.4-3.5.6a14.19,14.19,0,0,0-2.2.5H848c-.5.1-1,.2-1.4.3l-.9.2a15,15,0,0,1-3.7.5,7.21,7.21,0,0,1-4-1.2,21.35,21.35,0,0,1-7.4-9.6c-.9-2-1.6-4-2.4-6-.4-1.1-.7-2-1.1-3.1s-.9-2.2-1.3-3.4c-.9-2.3-1.8-4.6-2.7-7.1l-2.1-6.3-.2-.6-.1-.3-.2-.6c-.5-1.5-.9-2.9-1.4-4.3s-1.1-3.2-1.7-4.9l-.3-.9c-1.3-3.7-2.6-7.4-3.7-11.3-.6-1.9-.9-3.9-1.3-5.7v-.2a46.85,46.85,0,0,0-2.2-8.5l-.1-.2v-.2l-.1-.3c-.4-1.2-.8-2.4-1.1-3.7a54.92,54.92,0,0,1-1.5-7.9c-.2-1.1-.3-2.2-.5-3.3a59.52,59.52,0,0,1-1-11.1c0-2.8,0-5.6-.1-8.1-.2-6-.4-12.2,1-18.2a69.7,69.7,0,0,0,1.3-9v-.4c.1-1.3.2-2.6.4-3.9v-.7a7,7,0,0,1,.5-2.5c.6-1.5,1.2-3,1.9-4.5l.1-.3.1-.2a68,68,0,0,0,3.7-9.8,40.53,40.53,0,0,1,5.8-11.8c.6-1,1.2-1.9,1.8-2.9a107.27,107.27,0,0,1,11.3-14.6l.4-.5c3.9-4.5,8.1-9,11.7-13l1.2-1.3,1.1-1.2,3.5-3.7.6-.9.1-.2.1-.2h-.6a2.1,2.1,0,0,0-1.1.4l-2.4,2.1-1.2,1-.2.2c-3.7,3.2-7.6,6.6-11.2,10.1-3,2.9-5.9,6.2-8.4,9.1l-.1.1-.9,1-.1.1-1.7,1.9-.2.2c-3.8,4.3-8.2,9.1-12.4,13.9-2.2,2.6-4.4,5.3-6.5,7.9l-.3.4-.4.6-2.5,3.1a1.42,1.42,0,0,0-.2.6.6.6,0,0,1-.1.4,7.45,7.45,0,0,1-7.3,5h-.6c-5.5,0-8.6-3.9-11.6-7.6l-.7-.8a56.76,56.76,0,0,1-6-9.3c-.9-1.7-2.1-3.7-3.3-5.6-2.6-4.1-5.4-8.2-8.2-12.4l-2.6-3.9-.6-.6-.3-.2c-.1.1-.2.2-.2.3a1.7,1.7,0,0,0-.1.7c.1,1.3.2,2.5.2,3.8v.2c.1,2.1.3,4.1.6,6.2a61.67,61.67,0,0,0,17.9,34.8l1.4,1.3.1.1c3.6,3.5,7.3,7,10.6,10.8a38.7,38.7,0,0,1,6.2,9.3,31.3,31.3,0,0,1,3.1,10.7,20,20,0,0,1-2,9.3,12.26,12.26,0,0,1-8,6.9,34.17,34.17,0,0,1-6.3.9,7.1,7.1,0,0,1-3.5-.7,86.81,86.81,0,0,1-11.9-8.2l-.5-.3c-1.3-1-2.6-2-4-3l-1-.8c-2.5-1.8-5.1-3.7-7.6-5.7a2.06,2.06,0,0,0-.9-.5c-.1,0-.1,0-.2.1a3.28,3.28,0,0,0,0,1,13.64,13.64,0,0,0,.4,1.7,14.62,14.62,0,0,0,1.5,4.6c4,6.2,10.3,9.3,16,11.3,3.1,1.1,6.2,2.1,8.8,2.9h.2l.3.1c1.9.6,3.7,1.2,5.6,1.8,6.3,2.1,11.5,6.6,15.9,13.7,3.5,5.6,5.2,12,6.9,18.2l.8,2.8a46.47,46.47,0,0,1,1.5,9.8,98,98,0,0,1,.5,13.3,6.31,6.31,0,0,1-5.9,6.8,6.49,6.49,0,0,1-3.8-.9,16.59,16.59,0,0,0-3.1-1.2l-.3-.1c-.7-.2-1.2-.4-1.8-.6l-5.6-2.3-5.2-2c-1.7-.7-3.5-1.4-5.4-2h-.2a1.85,1.85,0,0,0-.7.2l-.4.1a.76.76,0,0,0,.2.4c.2.2.3.4.6.5,1.7.9,3.4,1.7,5.2,2.5l.9.4,8.5,4.1.2.1c3.1,1.5,7,3.5,10.7,5.4,1.9,1,3.8,2.2,5.7,3.2l.3.2c1.1.6,2.1,1.2,3.1,1.8,5.3,3,10.8,6.9,9.8,14.9a10.64,10.64,0,0,1-5.3,8.1c-1.9,1.2-4,2.2-5.8,3.1l-.3.2c-1.9,1-4,2-5.8,3.1l-2,1.2a42.17,42.17,0,0,0-10.7,8,12.7,12.7,0,0,1-4.3,3.3,8.42,8.42,0,0,1-3.5.7,10.14,10.14,0,0,1-6.6-2.8c-.7-.6-1.3-1.2-2-1.8l-.2-.2a36.5,36.5,0,0,0-3.6-3.1c-4.3-3.1-8.8-6.3-14.4-10.1l-.5-.3a112.7,112.7,0,0,0-10.4-6.5c-3.2-1.7-6.6-3.3-9.8-4.8l-.3-.1-.2-.1-.2-.1-1.2-.5-2.3-1.1c-1.8-.8-3.6-1.7-5.4-2.6-4.5-2.2-9.3-4.4-14.1-6.4a120.57,120.57,0,0,0-15.8-4.9c-3.8-1-7.7-1.7-11.2-2.4h-.5l-1.1-.2h0l-2.9-.6c-.5-.1-1-.1-1.5-.2a7.46,7.46,0,0,1-2.6-.4,20.52,20.52,0,0,0-9.2-1.5h-3.1a5.91,5.91,0,0,0-4.2,3,2.8,2.8,0,0,0-.4,2.5l.9,1.8.4.8c.9,1.8,1.8,3.5,2.7,5.2l1.3,2.3.1.2c2.1,3.7,4.8,8.3,7.6,12.4a162.16,162.16,0,0,0,9.9,13.2c4.8,5.7,9.3,10.7,13.7,15.3,3.2,3.3,6.9,6.5,9.8,9l1.9,1.7,1.7,1.5.3.2.1.1c3.9,3.5,8,7,12.2,10.3,3.9,3.1,8,5.7,12,8.3l1.8,1.2a25.8,25.8,0,0,0,3.2,1.8l.2.1c1.1.6,2.3,1.2,3.4,1.9,3.9,2.7,8.5,6.5,8.5,13.2a50.25,50.25,0,0,1-1.4,12.8,60.89,60.89,0,0,0-1.5,14.1c0,2-.1,4-.2,5.9v.7c-.3,7.5-.6,15.1.9,22.7a34.28,34.28,0,0,1,.6,5.6,31.61,31.61,0,0,0,1.1,7.5,60.22,60.22,0,0,1,1.3,7.4v.5c.1,1,.2,2,.4,3a2,2,0,0,0,.1.8,11.08,11.08,0,0,0,.5,2.5l.7,2.2c.9,3.2,2.2,7.6,3.7,11.6a141.77,141.77,0,0,0,5.4,13.9,88.08,88.08,0,0,0,6.5,11.6l.3.5a138.32,138.32,0,0,0,10,14.1,73.92,73.92,0,0,0,17.1,13.9l1.7,1.2.8.5a59.1,59.1,0,0,0,7.6,4.6c6.5,3.1,13,6,19.2,8.4a176.8,176.8,0,0,0,17.8,5.9,49.07,49.07,0,0,0,7.5,1.3h.7l2.2.3c.6,0,1.3.1,2,.1a8,8,0,0,1,3.4.5,16.68,16.68,0,0,0,7.3,1.4h4.6c2.3,0,4.6.1,6.9.2h.3c2.4,0,5.7.2,8.9.2a77.52,77.52,0,0,0,17.3-1.7c2.1-.5,4.3-.9,6.5-1.2h.8c1.5-.2,3.4-.5,5.1-.9a101.08,101.08,0,0,0,11.2-2.8,26.81,26.81,0,0,1,2.7-.7l.3-.1a17.46,17.46,0,0,0,7.5-3c.9-.2,1.5-.4,2.2-.6v-.4c0-.1-.1-.1-.1-.2h0l-.3.2c-.7.3-1.4.6-2.3.9h-.7l-3.2.9-.6.2h-.2l-.3.1c-2.6.7-5.3,1.4-8,2a109.69,109.69,0,0,1-11.5,1.6c-5.8.6-11.5,1.2-17.1,1.4l-1.5.1h-3.4c-3.8.2-7.4.3-11,.3a75.93,75.93,0,0,1-14.3-1.1l-4-.7h-.2a70.26,70.26,0,0,1-11.9-2.6,71,71,0,0,0-7.6-2h-.4l-.7-.2c-1.5-.4-3.1-.7-4.6-1.1a102.75,102.75,0,0,1-11.9-3.8,32.91,32.91,0,0,1-8.6-5.2c-3.6-3.1-7.1-6.5-10.2-9.6l-2.6-2.6a28.51,28.51,0,0,1-4.3-4.9c-2-2.9-3.9-5.9-5.8-8.9l-.2-.2-.1-.2-1.8-2.8-.7-1.2-.2-.2c-1.1-1.7-2.2-3.5-3.2-5.3-1.8-3.2-3.5-6.4-5-9.5-.7-1.3-1.3-2.7-2-4l-.2-.4-.2-.4v-.2c-2.2-4.5-4.5-9.2-6.6-13.9a138.75,138.75,0,0,1-5-14.1c-.5-1.9-1-3.8-1.3-5.7v-.5c-.2-.9-.3-1.8-.5-2.7-.3-1.2-.6-2.5-.9-3.7v-.2a30.3,30.3,0,0,1-1.5-8.4c0-2.4,0-5-.2-7.2V621c-.3-6-.5-12.1,1-18.2a45.91,45.91,0,0,0,1-5.1v-.3a45.12,45.12,0,0,1,1-5.3,102.71,102.71,0,0,1,5.9-15.1,72.44,72.44,0,0,1,11-16.4,29.07,29.07,0,0,1,3.7-3.3,26.06,26.06,0,0,0,3.1-2.7c4.2-4.2,9.6-6.3,15.2-8.2a66.37,66.37,0,0,1,9.8-2.3c1.8-.3,3.4-.6,5-1a38.23,38.23,0,0,1,8.3-.6,36.63,36.63,0,0,0,8.7-.8,8.58,8.58,0,0,1,2.3-.2,24.16,24.16,0,0,1,4.7.5,28.68,28.68,0,0,0,4.1.5,48.42,48.42,0,0,1,10.7,1.5,32.79,32.79,0,0,1,14.2,8.5c6,5.6,10.4,12.5,14.5,19a95,95,0,0,1,7.6,16.9,49.93,49.93,0,0,1,1.9,6.9v.2h0c.4,1.7.9,3.7,1.5,5.5a18.32,18.32,0,0,0,2.5,4.8l.7,1.2c.1.2.7.3,1,.3s.4,0,.4-.1c.3-.9.6-1.7.9-2.6s.6-1.7.9-2.6c1-2.5,1.9-4.5,2.8-6.4.6-1.2,1.3-2.4,2-3.7v.1l.2-.3.2-.4c.5-.8.9-1.7,1.4-2.5a70,70,0,0,1,11.7-16.4c2.5-2.6,5.4-5,8.1-7.3l.6-.5.5-.4.2-.1c1.4-1.2,2.7-2.4,4.1-3.6a43.84,43.84,0,0,1,11.8-7l1.9-.9.8-.4a27.06,27.06,0,0,1,9.6-3.1A34.67,34.67,0,0,0,972,548l.2-.1h.2a29.63,29.63,0,0,1,5.8-1.1h2.2c1.3-.1,2.6-.2,4-.2a14.05,14.05,0,0,1,6.4,1.2,20.65,20.65,0,0,0,4.9,1.2c1.2.2,2.1.3,3.1.5,4.3,1,7.6,3.6,11.3,7.1a38.28,38.28,0,0,1,9,12.1,34.7,34.7,0,0,0,2.5,4.6l.1.3a47.32,47.32,0,0,1,3.6,7.1,70.08,70.08,0,0,1,2.9,11.8l.4,1.9.3,1.5a82.13,82.13,0,0,1,1.8,12.1,65.84,65.84,0,0,1-1.4,20.3,48.56,48.56,0,0,0-1,5.5v.4c-.2,1.5-.4,2.9-.7,4.3a74.89,74.89,0,0,1-2.4,9,147.74,147.74,0,0,1-5.9,14.5,166.39,166.39,0,0,1-19.6,32,174.67,174.67,0,0,1-12.6,14.7c-6.3,6.7-12.9,13.6-21,18.9a4.62,4.62,0,0,0-.7.7l-.3.4h.6a3.59,3.59,0,0,0,1.1-.2l3.4-2c3.2-1.8,6.4-3.9,9.4-6A119.6,119.6,0,0,0,993,709.2c4.1-4.1,8-8.6,11.5-12.6.9-1.1,1.8-2.1,2.7-3.1a62.37,62.37,0,0,0,5.5-7.2c2.1-3.3,4.2-6.9,5.9-9.9l.2-.4,3.9-6.6a96.19,96.19,0,0,0,7.8-17.7c.4-1.1.8-2.2,1.2-3.4a61.5,61.5,0,0,0,2.5-9.6l.1-.5c.2-1.2.5-2.3.7-3.4.1-.6.2-1.3.3-2a5.66,5.66,0,0,1,.3-1.8c.2-.9.4-1.7.6-2.6l.1-.5.1-.5.1-.4a65.7,65.7,0,0,0,1.6-7.7,85.15,85.15,0,0,0,.6-12.4c0-5.3-.2-11-.5-17a56.26,56.26,0,0,0-.8-6.1v-.2c-.1-.9-.3-1.9-.4-2.8a7.72,7.72,0,0,0-.2-1.5,28.86,28.86,0,0,0-.4-2.9c-.5-2.1-1.2-4.3-1.7-6.1l-.4-.7-.6-1.9-.7-2.2c-.7-2.4-1.4-4.7-2.2-7.1-.4-1.3-1-2.5-1.5-3.7a31.57,31.57,0,0,1-2-5.4c-2.1-7.8,2.6-17.3,10.1-20.7a131.08,131.08,0,0,0,14.5-7.3,158.92,158.92,0,0,0,14.8-9.9,127.26,127.26,0,0,0,22.2-21.7c4.3-5.2,8.4-10.5,12.1-15.5a40.4,40.4,0,0,0,3.5-5.6c2.2-3.9,4.1-7.5,5.7-10.6,1.3-2.6,2.6-5.4,4.2-9.1.1-.2-.2-.7-.3-.7-.2-.4-.5-.7-.7-.7a25,25,0,0,0-2.9.5h-.2a18.46,18.46,0,0,1-2.3.4c-1.9.3-3.8.5-5.7.7l-7.4.9h-.3a88.94,88.94,0,0,0-10.3,1.9c-5.3,1.4-10.1,3-14.6,4.5l-4.3,1.5a150.56,150.56,0,0,0-15.4,5.7,157.56,157.56,0,0,0-18,9.9,169.08,169.08,0,0,0-16.5,11.6c-4,3.2-7.8,6.8-11.5,10.2l-.2.2-.2.2c-1.6,1.5-3.3,3.1-5,4.5l-.6.6-.5.5a6.26,6.26,0,0,1-4.8,1.9,25.15,25.15,0,0,1-11.4-3,53.12,53.12,0,0,1-14.6-9.7A15.43,15.43,0,0,1,965,471c2.6-3.7,6-7.7,10.9-9.8a123.27,123.27,0,0,1,12.5-4.3,46.15,46.15,0,0,1,5-1.2h.4c1.2-.2,2.3-.5,3.5-.8l2-.5h.2c2.7-.6,5.8-1.4,8.7-2.3a23.92,23.92,0,0,0,10.4-6.1,6.07,6.07,0,0,0,.7-1,5.74,5.74,0,0,0,.4-.7l-.4-.1h-.2a3.08,3.08,0,0,0-1-.1h-.3c-.7.1-1.5.3-2.2.4a23.18,23.18,0,0,1-3.8.6c-3.6.2-7.3.2-10.8.3h-1.1c-3.3,0-6.6.2-9.9.3h-.2a2.24,2.24,0,0,1-2.5-1.5l-.4-1.2a23.59,23.59,0,0,1-1.5-5.8c-.3-3.7.9-7,2.5-10.8a24.53,24.53,0,0,1,12.6-13.5c5-2.3,9.8-4.3,14.3-5.9,2.1-.7,4.3-1.3,6.3-1.8s4.1-1,6.3-1.8c3.1-1.1,6.3-2.5,8.9-3.6l3.3-1.5a32.48,32.48,0,0,0,13.5-10.8,4.38,4.38,0,0,0,.7-1.9c.1-.3.1-.6.2-.9l-1-.4a4.49,4.49,0,0,0-1.9-.5h-1a47.43,47.43,0,0,0-14.4,3,49.55,49.55,0,0,0-14.1,7.7,10.4,10.4,0,0,1-6.1,2.5h-.3a9.91,9.91,0,0,1-8.7-9.7,11.7,11.7,0,0,1,1.1-4.9l.6-1.3.1-.3a18.14,18.14,0,0,1,3.8-6.4,66.8,66.8,0,0,1,9.6-7.2l1.7-1.1a46.4,46.4,0,0,1,7.9-4.3c3.1-1.2,6.3-2.4,9-3.2l.9-.3.5-.2,4.2-1.5c4.1-1.5,8.2-3.1,12.4-4.6l3.9-1.5a54,54,0,0,0,14.9-9.5,27.47,27.47,0,0,0,8.7-12.8,6.89,6.89,0,0,1,.4-1l.2-.6-.7.1c-.4.1-.8.3-1.3.4h-.3a1.7,1.7,0,0,0-.7.1c-5.5,2.5-11,5.1-16.5,7.7l-3.5,1.6-.9.4-3.3,1.5c-1.4.6-2.8,1.3-4.1,1.9h-.2c-2.3,1-5.4,2.4-8.1,3.8-4.5,2.4-9.4,4.5-14.9,4.5h-1.3c-3.6-.2-5.5-1.7-6.3-5.1a14.92,14.92,0,0,1-.2-2.1,10.86,10.86,0,0,0-.4-2.5c-1.1-3.7-2.6-8.5-4.3-13l-.8-2.2-.3-.7a50.7,50.7,0,0,0-4.6-10.4,159.25,159.25,0,0,0-13.9-17.7,55.91,55.91,0,0,0-15-11.9c-1.6-.9-3.3-1.9-4.6-2.8l-.3-.2c-1.5-.9-2.9-1.8-4.3-2.6a11.76,11.76,0,0,0-2-.7h-.5l-1.5.3ZM887.5,514.9a8.69,8.69,0,0,1-7-4.5c-1.5-2.8-1.5-5.8-1.5-9v-1.9c0-3.7,1.8-5.6,5-5.6a10.68,10.68,0,0,1,2.5.3,18.64,18.64,0,0,1,10.3,6.9c1.7,2.1,1.6,5.2-.2,8.5a10.44,10.44,0,0,1-8.7,5.2Zm-35.4-2.3a7,7,0,0,1-5.7-2.6,6,6,0,0,1-1.5-3.1,26.73,26.73,0,0,1,.1-4v-.3c0-.9.1-2,.1-3.1,0-2.9,2.1-3.2,4.1-3.5a16.15,16.15,0,0,1,3.1-.2,16.43,16.43,0,0,1,8.6,2.4,4.81,4.81,0,0,1,1.7,2.3l.2.4a7.89,7.89,0,0,1-3.8,10c-.3.1-.7.3-1,.4a9.38,9.38,0,0,1-1.5.6,21.27,21.27,0,0,1-4.4.7Zm98.4,7.1a8.15,8.15,0,0,1-3.1-.6c-4.4-2-5.2-5.6-5.4-9.3v-4a6.35,6.35,0,0,1,6-6.6h.3a3.36,3.36,0,0,0,1.4-.5,5.78,5.78,0,0,1,1.4-.5h1.4a8.53,8.53,0,0,1,8.8,6.2,9,9,0,0,1-2.3,9.8,8.62,8.62,0,0,1-8.5,5.5ZM918,499.2h3.9a7.54,7.54,0,0,1,4.3,1.8,7.9,7.9,0,0,1,3.3,5.8,11.26,11.26,0,0,1-3.5,8.8,23.35,23.35,0,0,1-2.5.7c-1.2.3-2.4.7-3.6,1.1a7.51,7.51,0,0,1-2.6.5,7.72,7.72,0,0,1-7.7-7,56.31,56.31,0,0,1,.4-8.2l.1-1a2.78,2.78,0,0,1,2.8-2.7h1.8l3.3.2Zm-36.4,43.4h-.4a15.35,15.35,0,0,1-5.6-1.8c-4.3-2.3-4.9-6.1-4.9-9.4a24.27,24.27,0,0,1,.2-3.6,4.33,4.33,0,0,1,4.3-2.8h7.9a9.73,9.73,0,0,1,6.7,3.4,6.5,6.5,0,0,1,1.9,5.3c-.3,2.3-4.1,7.3-6.4,7.9l-.9.3-.4.1a4.75,4.75,0,0,1-2.4.6Zm20.2-11.1h2.6a6.65,6.65,0,0,0,2.4-.7,3.29,3.29,0,0,1,1.7-.4c2.7,0,6.2,2.4,6.4,5,.3,4.4-1.1,6.7-5.9,9.3a23.46,23.46,0,0,1-4.3,1.9,7.72,7.72,0,0,1-1.5.2c-2,0-3.8-1.1-5.7-3.5V532.9a1.16,1.16,0,0,1,.2-1,.78.78,0,0,1,.8-.2H902Zm30.7,17.7c-2.9,0-5-2.3-5.1-5.6v-4.5c0-1.4,0-2.8.1-4.1a3.44,3.44,0,0,1,3.3-3.5h.1c1.1-.1,2.4-.1,4.1-.1h5.6c1.2,0,3.4,3,3.5,4.8v4.2a14.62,14.62,0,0,1-.5,2c-1.7,4.2-7.1,6.3-10.2,6.7h-.7Zm-22.9,25.5a3.94,3.94,0,0,1-2.1-.6c-1.7-1.1-2.8-1.9-2.7-4v-8.3a7.86,7.86,0,0,1,7.9-7.2,7.64,7.64,0,0,1,3.3.8c1.5.9,3,1.8,4.2,2.6,2.8,4.6,2.5,9.6-.6,12.4a17.59,17.59,0,0,1-5.6,2.9l-1.5.6-.4.1a4.51,4.51,0,0,1-2.5.7Z" transform="translate(-651.82 -265)"/><path class="cls-4" d="M991.2,725.9a3.74,3.74,0,0,0-1.8.5c-1.7,1.2-3.5,2.4-5,3.5l-.4.3-.1.1c-2.3,1.7-4.1,2.9-6,4.2-3.9,2.6-8,5-12.1,7.2-2.1,1.1-4.3,2.1-6.5,3l-.4.2-1.8.7c-1.3.5-2.5,1.1-3.7,1.5a106.1,106.1,0,0,1-10.6,4.2c-3.4,1-6.8,1.8-10.2,2.5l-3.8.8a7.84,7.84,0,0,1-1.4.2,5.19,5.19,0,0,0-2.4.5,18,18,0,0,1-7.9,1.6,21.63,21.63,0,0,0-6.2.9,22.47,22.47,0,0,1-5.8.7h-13a100,100,0,0,1-19.7-1.5,82.25,82.25,0,0,0-12-1.6,81,81,0,0,1-17-3.2,62.28,62.28,0,0,0-6.2-1.5l-.4-.1-.3-.1-.4-.1H836c-1.7-.4-3.6-.9-5.4-1.4-3.6-1-7.6-2.2-12.2-3.8-4.2-1.4-8.7-3.1-13.6-4.9-.9-.4-1.8-.8-2.7-1.3a18.65,18.65,0,0,0-2-1c-2.6-1.2-5.4-2.4-8.2-3.5a1.48,1.48,0,0,0-.7-.1,2.46,2.46,0,0,0-1.5.5l-.8,1c-2.5,2.9-4.8,5.9-7,9a63,63,0,0,0-4,7.2l-.7,1.4-.3.6-1,2c-1.8,3.5-3.8,7.4-5.4,11.2a59.79,59.79,0,0,0-2.5,7.1l-.1.3c-.3.9-.6,1.9-.9,2.8l-1,3v.2c-.9,2.6-2,6.1-3,9.4a71.77,71.77,0,0,0-2,9.2l-.3,1.8v.2l-.1.6-.1.5a55.76,55.76,0,0,0-1.2,10c.1,3.3,0,6.6-.1,9.7-.2,7.7-.4,15.5,1.5,23.1.4,1.7.7,3.4.9,4.8a34.49,34.49,0,0,0,1.1,5.4,129.53,129.53,0,0,0,4.9,13.6c1.7,4.2,3.6,8.2,5.7,12.2a95.86,95.86,0,0,0,5.6,8.5l1.1,1.5.4.6.8,1.1.4.6a62,62,0,0,0,6.2,8.1,126.63,126.63,0,0,0,11.5,10.5,63.08,63.08,0,0,0,9,6.3,86.2,86.2,0,0,0,8.6,4.3h.2l1.5.7a50,50,0,0,0,7.6,3,70.49,70.49,0,0,0,7.8,1.3h.2c1.3.2,2.5.3,3.7.5.1,0,.3.1.4.1s.3.2.5.2H842a44.68,44.68,0,0,0,7.3-.4,34.32,34.32,0,0,0,7-2.5l1.4-.6,1.5-.7a26.23,26.23,0,0,0,6.4-3.4c3.6-2.8,7.2-6,9.3-10.7a12.14,12.14,0,0,0,.1-8.6,29.65,29.65,0,0,0-2-4.9l-.3-.6-1-2.1-.3-.6c-1.4-3.1-2.8-6.2-4.5-9.4-1-1.8-2.1-3.5-3.2-5.2l-.3-.4c-.8-1.2-1.7-2.5-2.5-3.8-2.6-4.3-5.6-9.5-8.6-15.1a90.26,90.26,0,0,1-5.7-12.2,61.6,61.6,0,0,1-3.5-13.9c-.5-6.1-1-13,1.7-19.4.2-.5.5-1.1.7-1.7a21.74,21.74,0,0,1,3.6-6.7,80.68,80.68,0,0,1,8.7-7.8c1-.8,1.8-1.5,2.7-2.2a30.83,30.83,0,0,1,4.8-3.2c4-2,7.7-3.8,11.3-5.3,4.9-2.1,9-3.9,13.4-5.4a33,33,0,0,1,6.2-1.5h.4l2.7-.6h.3l3.1-.7h.3c2.2-.5,5.2-1.2,8.1-1.8a30.39,30.39,0,0,1,6-.5h5.4a76.49,76.49,0,0,1,19.1,1.9,5.7,5.7,0,0,0,1.3.1h.3a5.54,5.54,0,0,1,1.8.2c4.8,1.8,8.6,3.3,12,4.8a31.06,31.06,0,0,1,11.7,8.2c3.1,3.7,3.8,8,4.4,12.1.2,1.1.4,2.4.7,3.8a14.41,14.41,0,0,1-.8,7.4,38.5,38.5,0,0,0-1.5,9c0,.9-.2,1.7-.2,2.5a45.9,45.9,0,0,1-3.5,12l-.1.2-.2.4-.3.7c-.2.4-.3.9-.5,1.3-.3.8-.5,1.5-.8,2.4a31.3,31.3,0,0,1-1.9,5.1l-.2.4c-3.5,6.7-7,13.7-11,20.5-.7,1.2-1.4,2.3-2.1,3.5l-.4.6a78.23,78.23,0,0,0-7.3,13.7,19.56,19.56,0,0,0-1,12.4c2.2,7.7,9.3,9.7,15.8,10.7h.8a7.72,7.72,0,0,0,1.5.2h.4c1.1-.1,2.2-.4,3.3-.6a20.69,20.69,0,0,1,2.2-.4c.5-.1.9-.1,1.4-.2a6.87,6.87,0,0,0,2.4-.5l2.3-1a85.28,85.28,0,0,0,10.6-5,130.29,130.29,0,0,0,13.9-9.4,92.58,92.58,0,0,0,8.6-8l.9-.9c7.3-7.3,12.7-12.9,17.5-18.1a45.55,45.55,0,0,0,5.7-7.4c1.2-2,2.4-4.2,3.3-6V853l.3-.6c1.1-2.1,2.1-4.1,3.3-6a38,38,0,0,0,4-10.1l.1-.4c.4-1.5.9-3.1,1.4-4.5a30.16,30.16,0,0,0,1.7-9.8c0-4.9-.4-9.9-.7-14.3v-.2c-.1-1.5-.2-3.1-.3-4.6a12.09,12.09,0,0,0-.6-3.8c-.5-1.7-1.1-3.3-1.5-4.7a33.82,33.82,0,0,1-1.1-3.4c-.4-1.1-.8-2.8-1.1-4a38.62,38.62,0,0,0-2.8-8.3c-3.7-7.1-7.7-13.8-12.4-21.1a88.46,88.46,0,0,0-7.7-10.5c-2.4-2.7-5.1-5.5-7.5-7.9l-.2-.2c-2.3-2.4-4.6-4.6-6.7-7a17,17,0,0,0-6.8-4.1l-1.8-.7a1.91,1.91,0,0,0-1.3-.2Z" transform="translate(-651.82 -265)"/><path class="cls-4" d="M1038.3,865.5c-.4,0-.8.3-1.3.8-1.4,1.5-2.8,2.9-4.3,4.3l-.4.4-.2.2-3.1,3.1c-2.7,2.8-5.3,5.6-7.9,8.4s-4.9,5.3-7.4,7.9c-3.7,3.9-4.6,8.6-3.4,15.2l.6,3,.2.8.2.9v.3a78.55,78.55,0,0,1,1.5,8.2,59.33,59.33,0,0,1,.6,8.4v9.5c.1,7.6.2,15.4-1.5,23-.4,2-.8,4-1,6-.2,1.7-.4,3.3-.7,4.9-.7,3.5-1.5,7.2-2.2,10.3-.4,2-.9,4-1.3,6a5.7,5.7,0,0,0-.1,1.3,4.67,4.67,0,0,1-.3,1.7c-.9,2.5-1.9,5-2.9,7.5l-1.7,4.3c-.5,1.4-1.1,2.8-1.5,4.2v.2c-.9,2.4-2,5.4-3.3,8.2-.9,1.8-1.9,3.6-2.9,5.3l-.2.3c-1.2,2-2.3,4-3.3,6.1a92.73,92.73,0,0,1-9.3,15.4l-.4.6c-.8,1.1-1.5,2.2-2.3,3.3a95.85,95.85,0,0,1-11.9,13.6c-3.8,3.8-7.7,7.4-11.2,10.6l-1.5,1.5-2.4,2.2a31.89,31.89,0,0,1-4,3.3c-4.3,2.8-8.4,5.4-12.4,7.7a81.41,81.41,0,0,1-7.7,4.1c-3.1,1.3-6.4,2.4-9.3,3.4l-.3.1-2.4.8c-3.4,1.2-6.9,2.2-10.5,3.1a28,28,0,0,1-7.1.6h-2.1c-7.2,0-13.2-.2-19.2-.6a32,32,0,0,1-8.7-1.7,125.63,125.63,0,0,1-13-5.8l-2.2-1.1-.6-.3a101.14,101.14,0,0,1-13.6-7.7,134.65,134.65,0,0,1-15.7-13.5,87.8,87.8,0,0,1-8.5-9.8l-.7-.9-.5-.7-.1-.1-.1-.1c-3.3-4.3-6.8-8.7-9.8-13.3a157,157,0,0,1-8-14.5,134.73,134.73,0,0,1-6.5-14.2,51.62,51.62,0,0,1-2-6.7c-.4-1.5-.8-3.1-1.3-4.6s-1-3.1-1.5-4.6l-.2-.4-.1-.3-.2-.2c-.8-2.2-1.6-4.6-2.3-7.2-1.2-4.6-2.3-9.5-3.2-15.1a95.51,95.51,0,0,1-1.5-13.1c-.4-6-.5-12.2-.6-17.6V923.3a5,5,0,0,1,.2-1.2,5.85,5.85,0,0,0,.2-1.3c0-1.2,0-2.4.1-3.6a30.89,30.89,0,0,0-.4-8.6,41,41,0,0,0-4-8.8l-.2-.3c-.7-1.2-1.4-2.5-2-3.8-2.1-4.4-4.4-9.2-6.9-14.7a40.39,40.39,0,0,1-2.2-5.3l-1.8-5.4c-.3-.9-.6-1.7-.9-2.6,0-.3-.2-.5-.3-.8l-.2-.5c-.1.1-.3.1-.4.2l-.2.1a1.6,1.6,0,0,0-.7.9,27.75,27.75,0,0,1-1.5,4.9,24.62,24.62,0,0,0-1.9,5.8,51.68,51.68,0,0,1-2.2,8.6v.2a39.83,39.83,0,0,0-1.7,5.9,88.11,88.11,0,0,0-1.5,10.3l-.2,1.5a72.46,72.46,0,0,0-.5,9.3c.1,3.9,0,8,0,11.6-.1,9.5-.2,19.2,1.5,28.7a48.65,48.65,0,0,1,.5,6.5v.6a23,23,0,0,0,.2,3.7c.2,1.9.4,4,.7,5.6v.7c.2,1.1.3,2.1.4,3.1,0,.5.1,1.1.1,1.6v.4a16.28,16.28,0,0,0,.3,3.1c.4,2.2.9,4.3,1.4,6.4s.8,3.6,1.2,5.5c.7,3.1,1.3,6.7,2,10.7a7.57,7.57,0,0,1,.1,1.5,6.15,6.15,0,0,0,.2,1.9,26.54,26.54,0,0,0,1.2,3.7,38.13,38.13,0,0,1,1.4,4.4c.5,2,1,3.9,1.4,5.9l.1.6v.2c.7,2.9,1.3,5.5,2,8,.9,3.3,2,6.6,3.1,10.2l.1.3.4,1.4c.4,1.3.8,2.5,1.2,3.8.2.8.5,1.5.7,2.4v.2c.4,1.3.8,2.9,1.4,4.4.8,2.1,1.6,4.2,2.5,6.2s1.4,3.4,2.1,5.2a45.88,45.88,0,0,1,1.7,4.8,40.92,40.92,0,0,0,1.8,4.9c.6,1.6,1.4,3.7,2.2,5.5l.1.2v.2c1,2.5,2.3,5.6,3.3,8.5,1.4,4,2.4,8.2,3.5,12.2v.2l.1.4c.4,1.7.8,3.5,1.3,5.2l.1.5c.5,2.3,1.1,4.6,1.8,7.1v1.1a8.52,8.52,0,0,0,.3,2.3c.3,1.1.7,2.1,1,3.2a27.25,27.25,0,0,1,1.5,5.6v.2a139.74,139.74,0,0,0,3.2,16.9,69.49,69.49,0,0,1,1.7,9.1l.1.8c.1.9.3,1.8.4,2.6v1.2a3.79,3.79,0,0,0,0,1.5c.3,1.4.7,2.8,1.1,4.2l.1.4c.5,2,1,4,1.4,5.9.3,1.4.6,2.9.8,4.2v1c.4,2.1.7,4.2,1.3,6.3,1.1,4.3,2.6,8.8,3.8,12.4l.5,1.4c1.1,3.4,2.3,7.1,3.8,10.6.9,2.2,1.9,4.4,2.8,6.4l.2.5c1,2.1,1.9,4.2,2.8,6.3a65.59,65.59,0,0,0,10.1,15.5,21.05,21.05,0,0,0,4.5,3.9l.3.2,1.5,1.2a18.87,18.87,0,0,0,9.3,4.5,35.32,35.32,0,0,0,5.6.5,22.25,22.25,0,0,0,14.4-4.9,45.1,45.1,0,0,0,9-10,48.66,48.66,0,0,0,5.7-12.5c.4-1.1.7-2.2,1.1-3.3a79.89,79.89,0,0,0,3.2-12.8v-.4a85.87,85.87,0,0,0,1.4-10v-.3l.2-1.5a59.68,59.68,0,0,0,.5-7.3c-.1-9.3-.3-18.6-.4-27.7l-.1-4.9a1.42,1.42,0,0,0-.2-.6c-.1-.2-.1-.4-.2-.6v-.5a7.41,7.41,0,0,1,.1-2.1c1-2.9,3.5-3.1,6-3.1h1.3a42.14,42.14,0,0,1,10.6,1.9l4.6,1.2a74.88,74.88,0,0,0,15,1.6h.7c2.2,0,4.4-.2,6.5-.4a58.07,58.07,0,0,1,7.2-.5,67.63,67.63,0,0,0,14.2-2.1,8.45,8.45,0,0,0,1.7-.5,13.59,13.59,0,0,1,3.5-.7,3.4,3.4,0,0,1,1,.1,19.67,19.67,0,0,1,7.7,3.7c4.5,3.7,5.5,9.1,6.2,14.8a56.66,56.66,0,0,1,.2,7.1,37.48,37.48,0,0,0,.7,10,40.67,40.67,0,0,1,.7,6.1,32.24,32.24,0,0,0,1.1,8.1,34.67,34.67,0,0,1,1.1,5.6v.3c.2,1.2.3,2.4.6,3.6l.5,2.2a127.11,127.11,0,0,0,3,12.6,122.19,122.19,0,0,0,5.2,14.3,73.26,73.26,0,0,0,6.5,11.6,19.48,19.48,0,0,0,3.6,4l.2.2c.9.9,1.8,1.8,2.6,2.7,3.8,4.5,9.4,6.2,13.2,7.1a16.37,16.37,0,0,0,3.8.4,19.6,19.6,0,0,0,11.4-3.9,33.08,33.08,0,0,0,8.9-10.4c3.1-5.3,4.5-11.4,5.7-17.2l.2-.8a78,78,0,0,0,1.5-11.7,64.53,64.53,0,0,0,.1-7.6,66.39,66.39,0,0,1,.4-10,28.13,28.13,0,0,0-.2-6.5v-.6a13.55,13.55,0,0,0-.2-2c-.2-2.9-.2-5.8-.3-8.8a106.8,106.8,0,0,0-.5-11.3c-.9-7.4-1.1-14.9-1.4-21.7l-.3-7.1c-.8-16.9-.9-31,.8-45.4.3-2.6.7-5.3,1.1-8l.3-1.9.3-1.9.1-1.2a20.24,20.24,0,0,1,.4-2.6c.4-1.3.8-2.5,1.2-3.8l.2-.5c.5-1.3.9-2.7,1.3-4.1.3-1.1.6-2.2.9-3.2v-.8c.4-1.5.8-3,1.2-4.4.8-2.3,1.7-4.6,2.6-7s2.2-5.8,3.2-9a119.67,119.67,0,0,0,3.1-12.1v-.2l.1-.6c1.1-4.8,2.1-9.9,3.2-15.9l.2-.8v-.2a90.71,90.71,0,0,0,1.4-9.1c.2-2.1.4-4.1.6-6.2v-.4c.4-3.4.7-6.9.8-10.3,0-2.6.1-5.2.2-7.9.3-9.3.6-18.6-.9-27.9a47.42,47.42,0,0,1-.5-6.5V943a38.85,38.85,0,0,0-1.2-9.6,51.35,51.35,0,0,1-1.6-10.3,87.51,87.51,0,0,0-2-16.1,65.24,65.24,0,0,1-1.7-7v-.2c-.5-2.2-1-4.6-1.7-7-1-3.3-2.3-6.7-3.4-9.6-.5-1.3-1-2.7-1.5-4l-.6-1.7c-1.3-3.6-2.6-7.1-4-10.7-.6-.6-1-1.4-1.6-1.3Z" transform="translate(-651.82 -265)"/><path class="cls-4" d="M1103,976.9a37.58,37.58,0,0,0-13.6,3.2,83.14,83.14,0,0,0-11.6,5.7,47.71,47.71,0,0,0-7.6,5.8c-2.8,2.5-3.3,6-3.8,9.3a26.61,26.61,0,0,1-1,4.9,41.32,41.32,0,0,0-1.3,6.1v.3c-.2,1-.3,1.9-.4,2.7-.5,3.1-1.1,6.2-1.5,9.3-.1.9-.3,1.7-.4,2.6v.5c-.4,2.4-.8,4.6-1.1,6.9-.3,2.8-.5,5.8-.6,9.3,0,5,5.3,11.9,10.2,13.1l1.1.3.8.2.8.2c1.2.3,2.5.7,3.7,1,3.5.8,7,1.6,10.6,2.4l1,.2h0a.37.37,0,0,0,.3-.1l.2-.1,1.1-.3a10.89,10.89,0,0,1,2.6-.5c1-.1,2-.1,3-.1h.3a18.46,18.46,0,0,0,5.7-.6,62.74,62.74,0,0,0,11.8-4.6c4.9-2.5,9.5-5.5,14.7-8.7a21.58,21.58,0,0,0,3.3-2.7,11.43,11.43,0,0,1,1.7-1.5l3.1-2.6.4-.4c3.1-2.6,5.6-4.8,8-7a2.39,2.39,0,0,0,.5-1.4v-.2a1.27,1.27,0,0,1,.1-.6,1.08,1.08,0,0,0-.7.3,4.44,4.44,0,0,0-1.1.8,11.72,11.72,0,0,1-7.8,3.5c-3.4,0-6.3-2-8.2-5.8V1027c0-3.2.6-5.5,3.7-6.7a21.11,21.11,0,0,0,4-2.6l.3-.2,1.2-.9a2.51,2.51,0,0,0,.4-.7l.1-.4h-.4c-.2.1-.5.1-.7.2l-2,.3h-.4a37.76,37.76,0,0,1-4.7.6h-.8a22,22,0,0,1-10.9-3.5,24.34,24.34,0,0,1-9.1-11.4,26.19,26.19,0,0,1-1.1-4,19.1,19.1,0,0,0-1.3-4.5c-2-4.1-.8-7.6.6-11.2a8.8,8.8,0,0,0,.5-1.5,4.73,4.73,0,0,1,.7-1.2l.4-.6-.4-.3-.5-.2a4.55,4.55,0,0,0-1.9-.8h-1.5Z" transform="translate(-651.82 -265)"/><path class="cls-3" d="M1159.6,960.7a1.2,1.2,0,0,0-.8.2,10.15,10.15,0,0,0-2.7,1.9c-.6.5-1.1.9-1.6,1.3l-1.4,1c-1.7,1.2-3.4,2.3-5.2,3.4a75.82,75.82,0,0,1-17,6.9l-.9.4a6,6,0,0,1-1.9.6,16.56,16.56,0,0,0-10.2,6c-2.6,3-3.8,10.6-2.2,13.9a15.91,15.91,0,0,0,14,8.5,11.48,11.48,0,0,0,3.7-.6l2-.6a36.22,36.22,0,0,1,11.3-2.4,24.52,24.52,0,0,1,2.7.2c1.2.2,3.1,1.3,3.1,1.9a39.09,39.09,0,0,1-1.1,9.1,15,15,0,0,1-5.2,8,1.8,1.8,0,0,0-.4.9.68.68,0,0,0,.6.4c.5-.2,1-.4,1.4-.6a7.89,7.89,0,0,0,3.1-1.7,56.33,56.33,0,0,0,6.8-8.5,77.8,77.8,0,0,0,7.9-19.1,17.23,17.23,0,0,1,.7-2.1,31.76,31.76,0,0,0,2.1-9.6,21.64,21.64,0,0,0-1.4-6.7,33,33,0,0,1-1.3-5.2,9.63,9.63,0,0,0-3.8-6.8,4.76,4.76,0,0,0-2.3-.7Z" transform="translate(-651.82 -265)"/><path class="cls-5" d="M955.91,642.27a14.64,14.64,0,0,0-3.46-1.51,13,13,0,0,1-7.86-12.06,477.64,477.64,0,0,0,54.82-35.05,7.38,7.38,0,0,1,10.44,1.7,7.75,7.75,0,0,1,.69,7.75,28.08,28.08,0,0,0-1.58,3.15c-.74,2.55.74,5.14,1.87,7.53,6.63,13.91,1.08,32.58-12,40.41s-31.77,3.68-40.47-9a11.65,11.65,0,0,0-2.43-2.93Zm-110.88-1c-2.93-.75-5.06,2.66-6.58,5.33-7.9,13.86-27.29,19.34-41.08,11.63s-19.67-27.3-12.47-41.55a14.83,14.83,0,0,0,1.91-4.83c.19-1.73-.61-3.75-2.27-4.21-3.64-1-4.7-6.46-2.26-9.37s7.05-3.14,10.32-1.23l64.83,37.63a18.58,18.58,0,0,1-3.44,6.11c-1.61,1.67-4.17,2.66-6.32,1.79a21.12,21.12,0,0,0-2.62-1.28Z" transform="translate(-651.82 -265)"/></svg>