<svg id="Draw_Layer" data-name="Draw Layer" xmlns="http://www.w3.org/2000/svg" viewBox="0 0 991.65 1576"><defs><style>.cls-1{fill:#2c2c2c;}.cls-2{fill:#bebebe;}.cls-3{fill:#6edaf4;}.cls-4{fill:#725af7;}.cls-5{fill:#161616;}.cls-6{fill:#fefefe;}</style></defs><title>Basic_fox</title><path class="cls-1" d="M1504.4-310.5a1.27,1.27,0,0,0,.1.6,2.09,2.09,0,0,0,.4.6,5.3,5.3,0,0,0,1.5.8,13.72,13.72,0,0,0,3.4.7c1.4.1,2.7.1,4,.1h5.9a.68.68,0,0,0,.7-.7.68.68,0,0,0-.7-.7h-7.1c-1.3,0-2.5-.1-3.8-.2h0a9,9,0,0,1-2.7-.7c-.2-.1-.3-.2-.5-.3h0v-.1a.68.68,0,0,0-.7-.7.68.68,0,0,0-.7.7Zm1.4.2Z" transform="translate(-528.75 311.1)"/><path class="cls-1" d="M984.7,265c-.3.4-.5,1.1-.9,1.2-5.7,1.6-11.4,3-17,4.7a69.22,69.22,0,0,0-8.8,3.9c-2.7,1.3-5.5,2.5-8.2,3.9-3.9,2.1-7.8,4.3-11.7,6.5-3,1.7-6,3.4-8.9,5.3a41.58,41.58,0,0,0-3.9,3.2c-4.1,3.3-8.2,6.5-12.2,9.9-4.4,3.7-8.8,7.5-12.8,11.6s-7.6,8.5-11.1,13c-2.2,2.8-3.9,6-5.9,9a2.33,2.33,0,0,1-1.8.6c-2.7-.3-5.4-.6-8.1-1-5.2-.7-10.7-.4-15.4-2.2-3.9-1.5-7.7-1.3-11.4-1.5-16.2-.9-32.5-1.3-48.7-1.4-5.4,0-10.8,1.2-16.2,1.8h-1.3c-6.7.6-13.4,1.2-20.1,2-3.8.4-7.7.7-11.2,2-6.6,2.4-13.3,1.5-19.7.9a17.49,17.49,0,0,1-15.2-11c-1.5-3.4-4.1-6.5-6.6-9.3-5.6-6.3-11.1-12.9-17.4-18.5-5-4.5-10.9-8.1-16.6-11.7a127.52,127.52,0,0,0-15.3-8.6c-4.7-2.2-9.9-3.5-14.9-5.1a74.28,74.28,0,0,0-10.2-3,81.72,81.72,0,0,0-11.1-.9c-.4,0-1.1.7-1.2,1.3-.9,3.8-1.9,7.5-2.6,11.3s-1,7.6-2,11.2c-3,10.4-1.5,21-1.9,31.5a27,27,0,0,0,.7,8.5c1.9,6.8,1.6,14,4.9,20.5,1.6,3.1,1.8,6.8,2.9,10.2a102,102,0,0,0,4.1,10.4c2.8,5.7,2.3,11.3.2,17-2.9,7.9-8.2,14.4-13.3,20.9s-10.7,12.4-16.3,18.4S586.1,443.4,580,449c-5.1,4.7-10.5,9.1-16,13.4-4.3,3.4-8.8,6.5-13.4,9.5-5.5,3.5-11.2,6.6-16.7,9.9l-5,2.8a8.08,8.08,0,0,0,0,3.1,5.76,5.76,0,0,1,2.1.7c4.6,4,9.1,8.1,13.6,12.2,8.4,7.7,16.9,15.5,25.3,23.3,8.1,7.5,16.2,14.9,24.3,22.4,8.4,7.8,16.9,15.5,25.3,23.3,5.4,5,10.5,10.2,15.9,15.2,2.9,2.7,6.2,5.2,9.1,7.9,4.5,4.2,8.9,8.4,13.3,12.7a2.15,2.15,0,0,1,.2,1.9c-2.4,3.2-4.9,6.2-7.3,9.4-4.8,6.3-9.5,12.6-14.3,18.8a17.41,17.41,0,0,0-1.8,2.2c-2.6,4.2-5.1,8.3-7.6,12.5-2.7,4.6-5.6,9.2-8,14s-4.7,9.8-7,14.7a102.17,102.17,0,0,0-4.8,11.4c-1.7,5.6-2.7,11.3-4,17-.4,1.7,0,3.8-.8,5.2-2.8,5.1-.9,10.6-1.4,15.9-.6,5.7,1,11.7,1.5,17.5.3,4,.4,8.1.7,12.1.1,1.2,1.5,3,1.1,3.3-2,2-1.1,4.3-1.1,6.4a67.76,67.76,0,0,1-2.6,18.5c-.3,1.3,0,2.8-.3,4.1-.9,3.4-2.1,6.7-3,10.2s-1.4,7.2-2.3,10.8c-1.1,4.7-2.6,9.4-3.6,14.2-.9,4.1-1.5,8.4-2,12.6a116.72,116.72,0,0,0-.7,11.8c.1,13,.3,25.9.7,38.9.1,4,.9,7.9,1.3,11.9a29.69,29.69,0,0,0,.6,4.3c1,4.4,2.2,8.7,3.2,13,1,3.9,1.7,7.8,2.9,11.5,1.5,4.7,3.3,9.3,4.9,14l3.6,9.6c1.4,4,2.8,8,4.3,11.9,1.1,2.8,2.4,5.5,3.5,8.3,2.1,5.3,4.2,10.7,6.2,16,1,2.7,2,5.5,3,8.2,1.6,4.1,3.3,8.2,4.8,12.4,1.1,2.9,1.8,6,2.8,8.9,1.6,4.8,3.6,9.4,5,14.3a172.73,172.73,0,0,1,3.9,17.3c.9,5.3,1.5,10.7,2,16.1.4,5,.7,10,.6,15.1,0,5.9-.4,11.8-.6,17.7-.4,10.4-.4,20.7-1,31.1-.8,14.9-1.5,29.9.9,44.8.7,4,.2,8.1.8,12.1a107.47,107.47,0,0,0,3.2,12.4c1.6,5.3,2.8,10.8,5.1,15.8,3.3,7.1,6.3,14.5,12.1,20.1,4.1,4,8,8.2,12.2,12.1,5,4.6,11.1,6.5,17.7,7.6,9.2,1.6,17-.9,23.8-6.8a53,53,0,0,0,14.3-19.8c2.6-6.3,5.7-12.2,7-19,1-4.8,2.5-9.4,3.7-14.1,1-4,1.7-8,2.7-11.9.9-3.6,2.2-7.1,3.1-10.8,1-4.2,1.8-8.4,2.6-12.6.2-1.3-.2-2.7.1-3.9,1-4.3,2.3-8.4,3.2-12.7.9-4.7,1.4-9.4,2.1-14.2.8-5.7,1.6-11.5,2.6-17.2a43.07,43.07,0,0,1,1.6-5.9c1.4.6,2.7,1.3,4.1,1.9h1c3,.9,6,1.9,8.9,2.8,5.4,1.7,10.8,3.4,16.2,5a61.06,61.06,0,0,0,8.7,1.9c5.7.8,11.4,1.8,17.1,1.9,11.2.3,22.4.6,33.5-1.8a1.71,1.71,0,0,1,.9,1.1c.5,5.4-.3,10.7,1.1,16.2,1.3,4.9.6,10.2.9,15.3.3,4.6.8,9.2,1.3,13.8a32.09,32.09,0,0,0,.7,5.3c1,4.1,2.3,8.2,3.2,12.4s1.5,8.3,2.5,12.4c.9,3.7,2.4,7.3,3.4,11s1.6,7.4,2.8,10.9a142.82,142.82,0,0,0,7.1,16.6,106.63,106.63,0,0,0,8.9,14.9,35.07,35.07,0,0,0,11.5,10.5c4,2.2,7.7,5.1,12.6,5.2.1,0,.2.8.4,1.2,6.4,0,12.6,0,18.8-.2a4.87,4.87,0,0,0-.4-1.1c4.7.1,8.8-1.9,12.7-4A64.86,64.86,0,0,0,949,1252a63.3,63.3,0,0,0,13-15.7,81.54,81.54,0,0,0,7.1-15.3c1.1-3.2,1.4-6.6,2.2-9.9,1-4.3,2.6-8.6,3.1-13a71.49,71.49,0,0,0,.6-16c-.7-8.9.1-17.8-1.6-26.6-1.2-6-.6-12.3-2-18.4-1.2-5-.8-10.3-1.9-15.5-1.1-4.9-.8-10.1-2.1-15.2a67.52,67.52,0,0,1-2-14.2c-.3-7.4-1.5-14.7-1.8-22-.4-11.2-1.5-22.5.9-33.7,1-4.5.8-9.2,1.9-13.9,1.2-5.2,1.9-10.4,4.1-15.3.7-1.6.7-3.8,1.7-5.1,1.7-2.3,3.5.3,5.3.5,5.8.7,11.7.7,17.5,1.8,6,1.2,12.4.8,18.6.8,7.8,0,15.7-.3,23.5-.6,4.6-.2,9.2-.8,13.8-1.3,2.2-.1,4.4-.4,6.6-.7,4.8-1,9.5-2.2,14.3-3.2,3.9-.9,7.8-1.5,11.7-2.4,4.1-1,8.2-2.3,12.3-3.5,5.1-1.5,10.4-2.8,15.3-4.7,7.6-2.9,15.1-6,22.5-9.4,6.9-3.2,13.6-6.6,20.1-10.4,6.7-3.9,13.1-8.5,19.5-12.9,4.1-2.8,8.1-5.7,12-8.8s7.6-6,11.2-9.2c4.3-3.9,8.6-7.8,12.6-12,5-5.3,9.8-10.9,14.6-16.5,3.7-4.3,7.4-8.7,11.1-13a29.72,29.72,0,0,0,2.7-3.5c3-4.6,5.9-9.3,8.9-14,2-3,4.3-5.8,6.1-8.9,2.7-4.8,5.2-9.8,7.7-14.7,1.6-3,3.2-6,4.6-9.2,2.1-5,4.1-10,6-15.1s3.6-10,5.2-15.1c1.1-3.4,1.7-6.9,2.7-10.3,1.7-5.9,3.6-11.8,5.1-17.8.9-3.7,1.4-7.5,2-11.2.3-1.5.3-3.1.7-4.6,1-4.8,2.3-9.5,3.2-14.3.8-4.5,1.4-9,2-13.5.7-5.3.5-10.6,1.8-15.9,1.1-4.6.6-9.6.9-14.4,0-.8.2-1.7.2-2.5a13.65,13.65,0,0,0,1.7,1.7c0-25.7,0-51.3-.2-76.9a15.38,15.38,0,0,0-1.2,1.3c-.2-.4-.6-.8-.6-1.2a32.81,32.81,0,0,0-1.9-12c-1.5-4-1.9-8.4-2.7-12.6a24,24,0,0,0-.3-2.8c-1.6-4.6-3.3-9.1-5-13.6-1.5-4.1-2.8-8.2-4.6-12.1-2.8-5.8-5.9-11.5-9.1-17.1-3-5.1-6.3-10.1-9.7-14.9a91.21,91.21,0,0,0-8.3-10.3c-7.5-7.7-15-15.4-22.8-22.8-3.3-3.1-8-3.5-12.2-2.6-5.7,1.2-9.8,5.4-14.2,8.9-5.8,4.6-11.3,9.7-16.8,14.7-9.1,8.3-18.3,16.5-27.1,25.2-12.1,12-23.8,24.4-35.6,36.8-4.7,4.9-9,10.2-13.4,15.3-3,3.5-5.9,7.1-8.8,10.7-4.3,5.5-8.6,11-12.7,16.6-2.4,3.3-4.4,6.9-6.5,10.4-2.4,3.9-4.8,7.8-7.1,11.7s-4.5,7.7-6.5,11.7-4.1,7.9-5.9,11.9c-2.1,4.8-4.2,9.6-5.9,14.5-1.8,5.3-3.1,10.7-4.6,16-1.7,5.9-3.6,11.8-5.2,17.8a90.71,90.71,0,0,0-2,11.6c-.7,5.9-.7,11.9-1.8,17.8-1.1,6.5-.6,13.3-.9,19.9-.3,7.2-.9,14.4-1.3,21.6v.3c-.7,6-1.2,12.1-2,18.1-.7,5.3-1.4,10.7-2.4,16-.9,4.7-2.2,9.3-3.5,13.9-1.5,5.4-2.7,10.9-4.9,15.9a123.5,123.5,0,0,1-11.1,20.2,122.21,122.21,0,0,1-15.9,18.5c-5.1,5-11.2,8.9-17,13.3a16.15,16.15,0,0,1-3.5,1.7,7.32,7.32,0,0,0,.8-2.5,135.27,135.27,0,0,1,1.8-20.1c1.1-6.1.8-12.4.8-18.6,0-9.9-.3-19.8-.7-29.7-.2-5.5.8-11-1.1-16.5-1.2-3.6-.6-7.8-.9-11.7-.4-4.6-.8-9.2-1.3-13.8a48.08,48.08,0,0,0-.7-5.3c-1-4.8-2.2-9.6-3.2-14.3-.7-3-1.7-6-1.9-9-.5-6-2.3-11.6-3.9-17.3s-2.9-11.6-4.4-17.4c-1.3-5-3.8-9.9-3.9-14.9-.2-9.8-1.4-19.8,1.6-29.6,1.3-4.1,1.6-8.5,2-12.9s.7-8.9.7-13.4c0-5.1-.3-10.3-.6-15.4a113.11,113.11,0,0,0-1.5-11.5c-1-5-2.4-9.9-3.7-14.8a61.71,61.71,0,0,0-3-9.5c-2.2-4.9-4.9-9.5-7.4-14.2a119.79,119.79,0,0,0-6.6-11.6c-2.9-4.1-6.4-7.8-9.6-11.7-1.2-1.4-1.8-2.6,0-4.1,5.8-5,11.5-10.1,17.2-15.2,3.5-3.2,6.9-6.5,10.4-9.7,2.8-2.5,5.8-4.9,8.7-7.3,5.7-4.5,11.5-9,17.2-13.5,2.8-2.2,5.6-4.3,8.4-6.5l17.1-13.2c3.7-2.9,7.3-5.8,11.2-8.5,5.1-3.6,10.3-7,15.6-10.4,5-3.2,9.9-6.5,15.1-9.3s5.5-4.5.6-8.1c-4.6-3.4-9.1-6.9-13.7-10.4-3.6-2.8-7.3-5.6-10.9-8.4-4.9-3.8-9.9-7.6-14.8-11.4-4.4-3.4-8.6-7-13-10.4-6-4.4-12.3-8.4-18.1-13-6.1-5-11.9-10.5-15.7-17.5-1-1.8-2.3-3.5-2.7-5.4-1.7-7.2-1-13.8,4.8-19.3a47.13,47.13,0,0,0,8.1-10.7,190.81,190.81,0,0,0,8.6-17.6,103.84,103.84,0,0,0,5.2-14.1,157,157,0,0,0,3.9-19.3,137.29,137.29,0,0,0,.7-17c0-3.9-.4-7.9-.6-11.8v-1.6c-1.1-4.6-2.1-9.1-3.3-13.7-1.1-4.2-2.5-8.3-3.8-12.5-.7-2.1-1.4-4.2-2.2-6.3Zm-42.9,40a59,59,0,0,1,.2-12.6c.6-4.1,3.9-5.8,7.1-7.4h.1l1.8-.9a98.83,98.83,0,0,1,13.9-6.7,28.75,28.75,0,0,0,4-1.8c3-1.4,6.2-2.9,9.6-2.9a13.58,13.58,0,0,1,2.9.3,11.47,11.47,0,0,1,6,9.7,64,64,0,0,0,1.9,9.7c.4,1.8.8,3.4,1.2,5,.3,1.4.4,2.7.6,4.1,0,.4.1.8.1,1.2.2,1.7.4,3.5.5,5.2l.1,1.4c.4,4.3.9,8.2,1.3,12.2a30.62,30.62,0,0,0,.5,3.2,24.18,24.18,0,0,1,.6,4.7,10.87,10.87,0,0,1-.8,3.9,8.33,8.33,0,0,0-.4,1.5c0,.1-.5.1-.7.1h-.2a4.18,4.18,0,0,0-.4-1,8.87,8.87,0,0,1-.7-2.8v-.3c0-4.6.1-9.3-3.7-12.2l-.6-.5c-4.7-3.6-9.5-7.3-15.6-9a48.58,48.58,0,0,0-13.1-1.7c-4.3.1-8.5.4-12.8.9h-.1c-1,.1-3.2-2-3.3-3.3ZM621.3,329.2a2.35,2.35,0,0,1-.2-.8v-8.8c0-8-.1-17.1.1-25.8a48.17,48.17,0,0,1,1.9-10.6c.8-3.2,4.9-5.1,8.4-5.1a9.6,9.6,0,0,1,3.3.6c2.2,1,4.6,1.8,6.7,2.6l.3.1c1,.3,1.9.7,2.8,1,1.4.5,2.8,1.1,4.3,1.6,2.9,1.1,6,2.3,9,3.4,2.4.9,4.9,1.7,7.3,2.4l.3.1,3,1A14.31,14.31,0,0,0,670,292l.1.1c2.1,1.5,4,3,3.3,6a10,10,0,0,1-1.9,3.7,9.65,9.65,0,0,0-1.4,3.8c-.4,1.8-.8,3.8-2.8,5l-.3.4a4.31,4.31,0,0,1-2.2.9,3.19,3.19,0,0,1-1.4-.3,32.9,32.9,0,0,0-12.8-2.2,23.48,23.48,0,0,0-2.6.1,26.17,26.17,0,0,0-19.3,9.2l-.4.4c-2.7,2.9-5.2,5.7-5.8,9.7,0,.2-.3.4-.6.6l-.3.3h0c0-.2-.1-.3-.3-.5Zm267.5,13.1c.9-1.2,1.8-2.4,2.7-3.7,1.5-2.1,2.8-4,4.4-5.9,1-1.1,2-2.3,3-3.5A189.32,189.32,0,0,1,913.8,313a127.86,127.86,0,0,1,12.3-9.7c1.6-1.2,3.5-2.5,5.2-3.8a23.92,23.92,0,0,1,2.1-1.3,8.79,8.79,0,0,1,1-.6h0c0,.4-.1.8-.1,1.2v.1a8.63,8.63,0,0,1-.4,2.8c-1.9,4.7-1.9,9.6-1.9,14.2v.3c0,4.4.7,6,2.6,6a10.3,10.3,0,0,0,4.3-1.4,64.43,64.43,0,0,1,11.1-4.1,43.17,43.17,0,0,1,12.4-1.7c.9,0,1.9,0,2.9.1,8,.4,14,4.2,18.6,11.9,4.9,8,4.2,16.1,2.9,24.3-.5,3-2,5.8-3.4,8.6-.3.6-.6,1.1-.9,1.7A69.31,69.31,0,0,1,972,376.9a52.13,52.13,0,0,0-5.6,7.7c-.9,1.4-1.9,2.9-2.9,4.3-3.9,5.4-4.2,11.5-3.9,17.3a9.48,9.48,0,0,1-6,9.4c-2.2.9-4.3,2-6.4,3l-.2.1a139.57,139.57,0,0,1-13.8,5.9c-8.3,2.8-15.7,7.4-22.8,12-3.6,2.3-7.3,4.8-10.8,7.1l-.2.1c-2.5,1.7-5.7,3.9-8.7,5.8-9.8,6.3-18.1,14.2-24.9,21-1.5,1.4-3.1,2.8-4.6,4.1a44.14,44.14,0,0,0-5.1,4.6c-6.8,7.2-12.8,13.8-18.2,20.2a179.83,179.83,0,0,0-14,18c-4.7,7.1-9,14.8-13,22.1l-.8,1.5a30.37,30.37,0,0,0-2.3,6.6l-.1.4c-.1.3-.1.5-.2.8-.9,3.4-1.7,6.8-2.5,10.1v.1c-.4,1.5-.7,3.1-1.1,4.6a1.42,1.42,0,0,1-.2.6v.1c0,.1-.1.1-.1.2h0l-.1-.2-.1-.2-.2-.4c-.7-1.6-1.4-3.2-2.1-4.9l-.1-.3c-1.6-3.7-3.2-7.4-4.8-11.2-2.3-5-4.6-9.8-6.7-13.9a53.24,53.24,0,0,0-3.5-6.1c-1.6-2.3-3.3-4.7-4.9-7l-.1-.2c-1.9-2.7-3.9-5.5-5.8-8.3a146.9,146.9,0,0,0-17.3-21.2c-3.3-3.3-6.5-6.9-9.5-10-3.8-4.1-7.8-8.4-11.9-12.4-6-5.9-12.4-11.5-18.5-16.6-5.7-4.8-11.7-9.4-17.4-13.8l-1-.8c-5-3.9-10.3-7.6-14.7-10.9-1.2-.9-2.4-1.7-3.6-2.6l-.6-.4c-4.4-3.2-8.9-6.5-13.5-9.3-5.9-3.5-11.9-6.8-18.1-9.7a16.2,16.2,0,0,0-4.3-1.2,17.39,17.39,0,0,1-3.9-1.1,23,23,0,0,1-5.2-3.6l-.6-.5v-.1a3.72,3.72,0,0,1,1-2.2,15.55,15.55,0,0,0,2-16.9c-3.8-7-7.2-14-10.1-20a4.42,4.42,0,0,1-.2-2,7.57,7.57,0,0,0-.1-1.5c-.2-.9-.4-1.8-.7-2.8-.9-3.7-1.8-7.4-.9-11.2,1-4.3,2.2-8.9,4.7-13.1,2.8-4.8,7.1-7.2,11.6-9.6l.3-.2a14.62,14.62,0,0,1,6.9-1.3c5.1,0,10.4,1.4,12.8,3.5a34,34,0,0,0,6.3,4.4,3.08,3.08,0,0,0,1.3.3c2.9,0,6.6-3.6,6.9-6.8s.7-7.1,1.3-10.9a5.16,5.16,0,0,1,5.2-4.2,5.07,5.07,0,0,1,3.3,1.3c1.1,1.1,2.3,2.2,3.4,3.2l.1.1a117.33,117.33,0,0,1,12.5,12.9,124.28,124.28,0,0,1,9.6,14.4v.1c1.2,1.9,2.4,3.9,3.6,5.8,1.8,2.9,4.5,6.1,9.3,6.1h.5c1,0,2-.1,3.1-.1a52.87,52.87,0,0,0,8-.6,61.74,61.74,0,0,0,7.4-1.9c1.6-.5,3.1-.9,4.6-1.3a9.74,9.74,0,0,1,2.4-.2,10.87,10.87,0,0,0,1.8-.1l4.2-.6c3.8-.5,7.7-1,11.5-1.8a78.27,78.27,0,0,1,13.6-1.3,73,73,0,0,0,11.4-.9,96.12,96.12,0,0,1,16.1-1.1c5.1,0,10.1.3,14,.6,2.3.2,4.6.3,6.8.4h.5c5.1.3,10.3.6,15.5,1.2,4.4.5,9.1,1.1,13.9,2,2.5.5,5.1,1,7.6,1.6,3.5.8,7.1,1.6,10.8,2.1a24.33,24.33,0,0,0,3.8.3,7.52,7.52,0,0,0,6.1-3.1ZM764.1,655.9h0c-1.6-.4-3.1-.9-4.6-1.2s-2.7-.6-4.2-.8q-4-.75-8.1-1.8a76.68,76.68,0,0,1-8.4-3.2c-1.3-.5-2.6-1.1-4-1.6l-3.9-1.5c-2.4-.9-4.9-1.8-7.4-2.9a76.15,76.15,0,0,1-8.1-4c-5.7-3.3-10.8-6.3-15.9-9.7-2.6-1.8-5.2-3.7-7.8-5.6-2.3-1.7-5-3.7-7.6-5.4a134.9,134.9,0,0,1-19.6-15.7c-2.7-2.6-5.6-5.1-8.2-7.3-3.1-2.7-6.4-5.5-9.3-8.4-10-9.9-20-20-29.8-29.7l-.5-.5c-9.7-9.7-19.7-19.7-29.6-29.5-6.2-6.1-12.9-11.9-18.6-16.6-4.5-3.8-9.3-7.3-14-10.7l-2.4-1.8c-3.5-2.6-7.1-5-10.7-7.4l-.5-.3a5.58,5.58,0,0,1-.8-.5H540c-.6-.3-1.1-.6-1-.9s.6-.8,2-1.4c4.2-1.8,8-4.6,11.7-7.3l1.2-.9c5.1-3.7,10.6-7.8,16.6-12.7,4.1-3.3,8.5-7,13.3-11.3l2.2-1.9c4.9-4.4,10.1-9,14.8-13.8,4.4-4.5,8.4-9.3,13.2-15.1a53.61,53.61,0,0,0,3.4-4.9,55,55,0,0,1,3.4-5,13.81,13.81,0,0,1,9.9-5.4c.6,0,1.2-.1,1.9-.1,7.5,0,14,3,19.2,6,2.3,1.3,4.6,2.5,6.8,3.7,4.8,2.6,9.8,5.3,14.6,8.3s9.3,6.3,13.6,9.6l.4.3,2.1,1.6c6.7,5,12.2,9.2,17.1,13.2,4.3,3.5,8.9,7.4,14,12l2.4,2.1c5.2,4.7,10.7,9.6,15.7,14.7,4.4,4.4,8.5,9.3,12.6,14,.9,1.1,1.8,2.1,2.7,3.2,2.7,3.1,5.2,6.3,7.6,9.6,3.2,4.6,6.3,9.3,9.3,13.8l.1.2c1.7,2.6,3.4,5.1,5.1,7.7,1,1.4,1.9,2.8,3.1,4.4,1.8,2.6,3.7,5.3,5.4,8.1,2.1,3.6,4.1,7.3,6,11l.1.1c.8,1.5,1.5,2.9,2.3,4.3,1,1.8,1.9,3.7,2.6,5.1l2.1,4.2c1.2,2.4,2.5,5.1,3.8,7.7a9.06,9.06,0,0,0,1.1,1.6c.2.2.3.4.5.6l.2-.7a6.94,6.94,0,0,1,.5-1.3c.5-1.2.9-2.3,1.4-3.5l.1-.2c1.1-2.8,2.2-5.7,3.4-8.6s2.8-6.1,4.6-9.5c2.1-4.1,4.5-8.3,7.2-13l.2-.3.1-.2c2.6-4.5,5.2-9.2,8-13.7,2.9-4.7,6.1-9.5,10.2-15.3A41.58,41.58,0,0,1,842,506l.2-.2c.3-.3.6-.7.9-1,1.8-1.9,3.5-3.9,5.2-5.9,4.3-4.8,8.7-9.8,13.3-14.5a252,252,0,0,1,18.2-17.6c6.4-5.4,13.4-10.3,20.1-15l1.3-.9A194.48,194.48,0,0,1,919,439.4c3.7-2.1,7.6-3.9,11.4-5.6l.2-.1c1.8-.8,3.7-1.7,5.5-2.5,1.4-.7,2.8-1.4,4-2.1a80.82,80.82,0,0,1,7.9-3.7c1.4-.5,2.7-1.1,4-1.6h.1c3.3-1.4,6.7-2.9,10.5-2.9h.8a10,10,0,0,1,5.5,2.3c1.9,1.6,3.7,3.5,5.5,5.3v.1c1,1,2,2.1,3.1,3.1l2.3,2.2.1.1c3.9,3.7,7.9,7.6,11.9,11.3,3.6,3.3,7.6,6.6,12.1,10.2s10.1,7.8,15.7,11.8c6,4.2,12.4,8.4,18,12.1,1.9,1.3,3.8,2.5,5.7,3.8l1.2.6a6.38,6.38,0,0,1,1.4.8,4.27,4.27,0,0,1,1.9,3.9,5.26,5.26,0,0,1-3.1,3.7,10,10,0,0,0-2,1.6,5.26,5.26,0,0,1-1.4,1.2l-.6.4-.7.5c-6.2,4.3-12.7,8.8-19.1,13-2.5,1.6-5,3.2-7.4,4.7l-.2.1c-2.8,1.7-5.6,3.5-8.4,5.3-6.8,4.6-13.5,9.3-19.7,13.8-2.9,2.1-5.9,4.4-8.9,6.9s-6.1,5.2-9,7.7c-1.8,1.6-3.6,3.1-5.4,4.7-1.5,1.3-3.1,2.6-4.6,3.9-2.9,2.4-5.9,4.9-8.6,7.5-6.1,5.7-12.4,11.6-17.9,16.9l-8.4,8L920,591l-.1.1c-2.7,2.6-5.5,5.3-8.4,7.8-5.2,4.6-9.3,8.1-13.3,11.3-6.4,5.1-11.7,9.2-16.6,12.7-5.6,4-11.6,8.2-17.9,12-6.7,4-13.7,7.7-20.9,11.1a77.32,77.32,0,0,1-10.5,3.8c-1.2.4-2.3.7-3.5,1.1-2.4.8-5,1.5-7.4,2.2l-.3.1-3.4,1c-2.2.5-4.3.8-6.3,1.1h-.1c-2.7.4-5.3.9-8,1.5a46.94,46.94,0,0,1-12.9,1.5c-2.6,0-5.3-.1-7.9-.2-2.3-.1-5.2-.2-7.9-.2h-1.3a46.14,46.14,0,0,1-9.2-2Zm317.8,15c-.4-.5.3-2,1.9-4.6,4.7-7.4,8.6-13.3,12.2-18.8,2.6-3.8,6-8.8,9.7-13.6,2.7-3.5,5.5-7,8.3-10.4l.2-.2h0c2.4-3,5-6.2,7.4-9.3,8.3-10.6,18-20.1,27.4-29.3l.1-.1c4.3-4.2,8.7-8.5,12.9-12.9,3.1-3.2,6.4-6.2,9.6-9.1l1.2-1.1c6.6-6,12.7-11.4,18.6-16.6,3.9-3.4,8-6.9,11.7-10l1.6-1.3,2.7-2.3.1-.1c2.9-2.4,5.8-5,8.9-7.3a6.86,6.86,0,0,1,3.9-1.4c2.1,0,4.5,1.1,7,3.3l3.6,3.1c6.3,5.5,12.7,11.2,18.6,17.2a73,73,0,0,1,14.3,19.8c1.7,3.5,3.7,7,5.7,10.4,1.7,2.9,3.5,6,5,9.1a57.4,57.4,0,0,1,3.4,9c.4,1.3.9,2.8,1.5,4.3.3,1,.7,1.9,1.1,2.9.7,1.7,1.3,3.5,1.9,5.3a8.75,8.75,0,0,1,.2,1.6,7.57,7.57,0,0,0,.1,1.5c.6,2.3,1.2,4.7,1.9,7l.1.3c.6,2.3,1.3,4.7,1.9,7a23.36,23.36,0,0,1,.4,2.6v.1c0,.4.1.9.1,1.3l1,7.1.1.9c.3,2.6.7,5.2,1.1,7.8a25.12,25.12,0,0,0,.4,2.7c.3,2.4.7,4.8.9,7.2.3,2.6.4,5.1.5,7.7v.1c0,.8.1,1.6.1,2.4v40.9a116.47,116.47,0,0,1-.8,15.6c-.3,2.1-1.9,4-3.5,5.9-.4.4-.7.9-1.1,1.3a.76.76,0,0,1-.5.2c-1.2,0-3.4-1.9-3.9-3.4l-.9-2.5c-1.7-4.9-3.5-10.1-5.4-15.1a7.55,7.55,0,0,0-6.3-4.4,4.2,4.2,0,0,0-2.4.7,10.4,10.4,0,0,0-2.8,3.1,13,13,0,0,1-1.8,2.3c-1.3,1.3-2.5,2.6-3.7,3.9h0a88.64,88.64,0,0,1-11.3,10.8c-3.7,2.8-8.8,4.6-15.1,5.1h-.6c-.6,0-.9-.1-1.1-.4s-.1-.9.4-1.8c1.9-4.1,3.7-8.3,5.5-12.3l.1-.2.5-1.3c.5-1.1,1-2.2,1.5-3.4v-.1c1.5-3.5,3.1-7.1,4.3-10.8a122.34,122.34,0,0,0,3.1-11.9l.2-.7.3-1.5c2-8.9,2.5-16,1.5-22.4-1.1-7.3-2.9-15.9-7.5-23.6-1.5-2.4-3.2-3.6-5.2-3.6a7.44,7.44,0,0,0-4.6,2c-3.7,3.1-7.4,6-12.6,6h-1a25,25,0,0,0-3.8.6,21.36,21.36,0,0,1-3.5.6,7.72,7.72,0,0,1-1.5-.2,23.76,23.76,0,0,0-8.4-1.2c-1.4,0-2.9.1-4.3.1-1,0-2.1.1-3.1.1-6.7.1-13.5.9-20,1.6l-3,.3a76,76,0,0,0-11.6,2c-3.5.9-7.1,1.9-10.5,2.9-2.5.7-5.2,1.5-8,2.2-1.1.2-2.2.4-3.3.5a16,16,0,0,0-2.3.3,3.1,3.1,0,0,0-1.3.6l-.1.1c-.2.1-.3.2-.5.3-2.1.7-4.1,1.2-6,1.8-1.7.5-3.3.9-4.9,1.4-3,.9-6,2.1-8.7,3.1l-1.5.6c-3,1.2-6.1,2.4-9.1,3.6l-.1.1-2.8,1.1-4.6,1.8-6.3,2.5h-.6a4,4,0,0,0-1.5,1c-.5.5-1,1-1.6,1a1.48,1.48,0,0,1-1.2-.8ZM792.2,664h0l.7-.1,1.2-.1,3.9-.3h.1c5.1-.4,10.3-.9,15.3-1.7a124.14,124.14,0,0,0,15.7-3.9l1.8-.5a110.74,110.74,0,0,0,15.6-5.4c5.4-2.4,10.6-5.3,15.7-8.1,2.1-1.1,4.2-2.3,6.3-3.4a125,125,0,0,0,13.4-8.4l.7-.5,2.7-1.8c11.4-7.6,21.1-17.4,30.5-26.8l1.2-1.2a6.42,6.42,0,0,0,1-1.3,9.38,9.38,0,0,1,.9-1.2c2.2-2.5,3.8-3.5,5.3-3.5,1.3,0,2.8.7,4.7,2.4a64,64,0,0,1,14.6,18.1,49.43,49.43,0,0,0,3,4.9,47,47,0,0,1,3.9,6.9c1.6,3.8,3,7.7,4.2,11.6l.2.5c.3,1.1.7,2.1,1.1,3.2,1.1,3.2,2.2,6.7,3.1,10.1a31.89,31.89,0,0,1,.8,6.2c.1,2.2.3,4.5.4,6.7.4,6.3.8,12.8.8,19.2a138.4,138.4,0,0,1-1.4,15.8c-.2,1.3-.3,2.6-.5,3.9a76.17,76.17,0,0,1-2,10.6c-1.6,6-3.4,12.5-5.5,18.9s-4.6,12.9-7.6,20a169,169,0,0,1-7.8,16.7,145.1,145.1,0,0,1-8.6,13.4c-2,2.7-4,5.4-6,8l-.1.1c-2.1,2.7-4.3,5.5-6.3,8.4-5.2,7.3-11.7,14.2-21,22.2-1.3,1.1-2.6,2.3-3.9,3.4-3.2,2.8-6.4,5.7-9.9,8.3a108.37,108.37,0,0,1-9.8,6.2h-.1c-1.3.8-2.6,1.5-3.9,2.3-1,.6-2.1,1.3-3.1,2l-.1.1a70,70,0,0,1-8.4,4.8c-.9.4-1.9.9-2.8,1.3-4.5,2.1-9.1,4.3-14.2,4.3h-.9c-1.2-.1-2.4-.1-3.8-.1a34.89,34.89,0,0,1-8.6-.7c-7.9-2-13.5-6.7-16.2-13.7-1-2.7-2.1-6.7-1.5-10.1,1.3-6.2,2.7-13.3,6.3-19.5a40.2,40.2,0,0,0,2.2-4.7q1.05-2.55,2.4-5.1c3.9-6.5,7.2-11.7,10.5-16.2a145.7,145.7,0,0,1,11.1-13.8c3-3.2,6.2-6.3,9.3-9.4,3.7-3.6,7.5-7.4,11.1-11.3a156.84,156.84,0,0,0,14.3-18.2c4.2-6.2,5.7-13,4.3-19.6a18.31,18.31,0,0,0-7.5-11.1c-6.3-4.3-13.4-6.8-22.2-8a213.18,213.18,0,0,0-27.6-1.8h-2.6c-7.4.1-13.3.3-18.7.7a124.23,124.23,0,0,0-16.1,2c-2.9.6-5.7,1.5-8.6,2.4s-6.1,1.9-9.2,2.6c-6.7,1.3-12.7,4.3-18.6,7.1l-1.9.9a37.4,37.4,0,0,0-6.7,4.5l-.1.1a30.63,30.63,0,0,1-2.9,2.1c-.5.3-1,.6-1.4.9a14.63,14.63,0,0,0-2.8,2.1c-4.6,5.1-9.2,10.8-8.9,18.8,0,1.4,0,2.9-.1,4.3a32.28,32.28,0,0,0,.3,7.6,86.82,86.82,0,0,0,5.2,16.4,157.57,157.57,0,0,0,7.8,16c1.4,2.7,3.1,5.3,4.8,7.9.5.7,1,1.5,1.4,2.2,3.5,5.4,6.8,10.5,10,15.4a37.08,37.08,0,0,1,5.7,25.6,16.41,16.41,0,0,1-3.5,8.9A55.59,55.59,0,0,1,742.1,852c-5.5,3.4-11.8,5.1-16.7,6.3a43.42,43.42,0,0,1-10.7.9,56.2,56.2,0,0,0-5.8.2,20.9,20.9,0,0,1-2.5.1c-6.5,0-12.8-2-17.5-3.7a143.31,143.31,0,0,1-15.5-6.9l-1.3-.6a70.84,70.84,0,0,1-6.6-3.8c-1-.6-1.9-1.2-2.9-1.8q-2.4-1.8-4.5-3.3c-1.8-1.3-3.5-2.5-5.1-3.8-2.3-1.8-5-3.9-7.5-6.2-6.3-5.9-11.4-13.3-15.7-22.5a152.14,152.14,0,0,1-7.7-19.3c-1.1-3.5-2.5-7-3.9-10.3l-.1-.1c-1-2.5-2.1-5-3-7.5a47.74,47.74,0,0,1-1.7-6.5,41.06,41.06,0,0,0-1-4.1,138,138,0,0,1-4.2-23.8c-.1-1.1-.2-2.2-.4-3.3a45.17,45.17,0,0,1-.5-8.2,119.55,119.55,0,0,1,1.9-15.8,79.58,79.58,0,0,1,3.9-13.7c2.1-5.7,4.6-11.4,7-16.8l.2-.4c1.8-4.1,3.9-8.5,6.5-14a40.84,40.84,0,0,1,3.4-5.7l1-1.5c2.8-4.2,5.7-8.6,8.7-12.8,1.7-2.4,3.5-4.8,5.3-7.2h0l.1-.1a161.49,161.49,0,0,0,10.1-14.4c2.6-4.4,6.4-6,10.7-7.4a.9.9,0,0,1,.5-.1c1.1,0,2.9,1,5.2,2.9,2.1,1.7,4.1,3.7,6.1,5.6l.2.2c.9.9,1.8,1.8,2.7,2.6a10.63,10.63,0,0,0,1.1.9l.1.1c.4.3.8.7,1.2,1a88.73,88.73,0,0,0,20.9,15c2.5,1.3,5,2.7,7.2,3.9,3.3,1.8,6.7,3.8,10.2,5.4a87.17,87.17,0,0,0,12.4,4.5h.1l1.2.4q6.45,2.1,13.2,3.6c5.2,1.1,10.4,1.7,15.3,2.3l1.2.2c5.7.7,11.7,1.4,17.6,1.8.6,0,1.3.1,2,.1,2.6,0,5.2-.2,7.7-.4Zm402.2-12.2a56,56,0,0,1,10.8-.7h1.6a50.47,50.47,0,0,0,11.7-1c2.7-.6,5.4-1.5,8-2.3,1.2-.4,2.4-.8,3.6-1.1a4.67,4.67,0,0,1,1.7-.3c1.9,0,3.4,1.1,4.3,3.2a14,14,0,0,1,1,3.5,20.14,20.14,0,0,0,1,3.5c1.7,3.8,1.8,7.9,1.9,11.9v1.4a79.53,79.53,0,0,1-4.3,28.6c-.5,1.4-1,2.9-1.6,4.3-.2.6-.5,1.3-.7,1.9a119.2,119.2,0,0,1-11.1,19.3c-1.4,2-1.3,5.9-.4,8a8.5,8.5,0,0,0,7.2,5c.7,0,1.4.1,2.1.1,7.1,0,13.8-2.5,20.2-7.5a116.89,116.89,0,0,0,9.1-8.1l4.4-4.1a2.56,2.56,0,0,1,1.9-.6c2.2,0,5.1,1.7,5.6,4a34.29,34.29,0,0,1,.7,5.6c.1,7,4.9,11.8,11.7,11.8.8,0,1.2.1,1.4.3s.2.7,0,1.4v.2c-.5,2.8-.8,5.8-1.2,8.4-.2,1.9-.5,4.3-.9,6.5s-.7,4.3-1.1,6.5v.2c-.3,1.4-.5,2.9-.8,4.3s-.5,2.8-.7,4.2l-.1.6v.2c-.4,2.3-.7,4.6-1.2,6.9-.3,1.5-.6,3-.8,4.5l-.1.6c-.9,5-1.8,10.1-3.1,15-1.8,6.9-4.1,13.7-6.3,20.2l-.9,2.5c-2,6.1-4.1,12.2-6.6,18.1a59.62,59.62,0,0,1-5.5,9.9l-.4.7c-5,8.1-9.1,14.6-13,20.4-1.3,2-2.9,4-4.3,5.8l-.1.1c-1,1.3-2.1,2.7-3.1,4.1-11.9,16.4-26.4,30.7-40.5,44.4-4.5,4.4-9.1,8.8-13.5,13.4a223.56,223.56,0,0,1-18,15.8l-1.9,1.5a108.29,108.29,0,0,1-13.6,9.7c-5.7,3.4-11.6,6.4-17.4,9.4l-.2.1-1.9,1a114.38,114.38,0,0,1-22.6,8.6c-1.3.4-2.6.7-3.9,1.1l-.5.1c-3.6,1-7.2,2-10.9,2.8-5.7,1.2-11.5,2.1-17,3l-5.8.9a162.78,162.78,0,0,1-26.8,1.8c-3.4,0-6.8,0-10.2-.1h-.5c-3,0-6.7-.1-10.2-.1-2.4,0-4.6,0-6.7.1h-4.3c-5.9,0-11.9-.3-17.6-.5h0l-3.7-.2a69.93,69.93,0,0,1-8-1l-.7-.1-1.2-.2a3.26,3.26,0,0,1-2.3-1.8,4.68,4.68,0,0,1-.3-4,10.8,10.8,0,0,0,1-3.5c.1-1.5.1-3,.1-4.5a37.35,37.35,0,0,1,.7-8.2,49.17,49.17,0,0,0,1.1-9.3,48.14,48.14,0,0,1,1-8.4c.2-1.1.3-2.2.4-3.4.2-3.1.5-6.2,3.5-8.4,4.3-3,8.6-6.1,12.4-8.9l1.4-1a8.64,8.64,0,0,0,1.4-1.3l.2-.3c2-2.1,3.9-4.2,6.1-6.6a205,205,0,0,0,13.8-15.6,118.69,118.69,0,0,0,12.7-21.8c2.7-5.6,4.6-11.6,6.6-17.4l.3-.9c.4-1.1.7-2.2,1.1-3.2a66.25,66.25,0,0,0,2.1-8.8l.3-1.3c.3-1.4.5-2.9.7-4.2a41.32,41.32,0,0,1,1.4-7,34.47,34.47,0,0,0,1.4-9v-.1a57,57,0,0,1,.6-5.8,97.37,97.37,0,0,0,1.2-14.3v-.1a120.85,120.85,0,0,1,.9-12.1,82.36,82.36,0,0,0,.7-9.9V790c.1-2.1.1-4.3.3-6.4.1-1.6.1-3.3.2-5a39.18,39.18,0,0,1,.7-8.4,79.55,79.55,0,0,0,1.4-12.9V757c.1-2.1.2-4.2.4-6.3a90.71,90.71,0,0,1,2-11.6c1-4.3,2.1-8.8,3.6-14.2.2-.8.5-1.7.7-2.5l.3-.9c1.4-5,2.8-10.2,4.6-15.2,2.7-7.4,5.2-14.1,8.6-20.2,2.7-4.9,6.6-8,11.4-9a46,46,0,0,0,8.1-2.9c1.7-.7,3.4-1.5,5.1-2.1,4-1.4,8.1-2.7,12.1-4l.2-.1c2.6-.8,5.2-1.7,7.8-2.5,2-.7,4-1.4,6-2l.2-.1c3.1-1.1,6.7-2.3,10.2-3.4a51.45,51.45,0,0,1,6.8-1.5h.3c1.2-.2,2.5-.5,3.8-.8,1.9-.4,3.7-.9,5.6-1.4,2.9-.7,5.9-1.5,8.9-2.1a75,75,0,0,1,11.7-1.7c1.6-.1,3.4-.1,5.6-.1h6.3a65.18,65.18,0,0,0,12.5-.9Zm-455.7,212a46.33,46.33,0,0,0,19.8-13.7c6.1-7.1,8.5-15.8,7.4-27.6-.3-3.5-1.8-7-3.2-10.4l-.3-.8a147.83,147.83,0,0,0-6.7-13.9c-1.4-2.6-3.1-5.1-4.6-7.4-1.1-1.6-2.3-3.5-3.4-5.3-3.4-5.5-6.6-11-9.6-16.6-1.6-3-3-6.3-4.3-9.4l-.8-1.9a7.79,7.79,0,0,1-.4-2.1v-.1c0-.3-.1-.6-.1-.9-.1-6.6,0-12.1.4-17.3a13.74,13.74,0,0,1,1.9-5.1,48.1,48.1,0,0,1,14-15.1c4.5-3.2,9.6-5.1,14.5-6.9l.2-.1c1.4-.5,2.9-1.1,4.3-1.6a49.13,49.13,0,0,1,10.9-2.3c1.2-.1,2.4-.3,3.6-.5a50.5,50.5,0,0,1,5.6-.6,53.19,53.19,0,0,0,9.6-1.5,59.13,59.13,0,0,1,13.6-1.8c2.2-.1,4.5-.3,6.7-.6h.1a68.41,68.41,0,0,1,9.1-.6c1.3,0,2.6.1,3.9.2,1.6.2,3.3.3,4.9.5,4.6.4,9.5.8,14.1,2.3l1.3.4.9.3a95.24,95.24,0,0,1,14.3,5.4c3.6,1.8,5.4,4.2,5.9,7.5a6.36,6.36,0,0,0,.6,1.8,3.42,3.42,0,0,1,.5,2.2,28.19,28.19,0,0,1-2.8,8c-2.9,5.3-7.2,9.5-11.4,13.6-1.2,1.2-2.4,2.3-3.5,3.4-1.7,1.8-3.5,3.5-5.3,5.2l-.2.1c-3.3,3.2-6.7,6.6-9.9,10.1-4.3,4.7-10,11-15.2,17.9a146.51,146.51,0,0,0-21.7,41.2c-2.3,7-3,13.1-2.3,18.6,1.3,9.5,5.9,16.2,13.8,19.9,1.2.5,2.3,1.2,3.3,1.7a39.24,39.24,0,0,0,7.9,3.4,25.73,25.73,0,0,0,5.5.6c2.1,0,4.3-.2,6-.3a52.09,52.09,0,0,0,12.1-2.1,74,74,0,0,0,13.3-6.4c4.8-2.8,9.4-6,14-9.1l.3-.2c1-.7,2-1.4,3-2a6.73,6.73,0,0,0,1.5-1.4,8,8,0,0,1,1.3-1.3c2-1.5,4.1-3.1,6.1-4.5l.3-.2c2.7-2,5.7-4.2,8.5-6.3a81.15,81.15,0,0,0,6.2-5.5,4.7,4.7,0,0,1,3.1-1.6,3.3,3.3,0,0,1,2.4,1.2l1.6,1.7a82.37,82.37,0,0,1,8.6,10c4.2,6,6.6,12.9,8.8,19.5,3.1,9.4,3.3,18.8,3.2,27.7-.1,5.2-2.1,8.8-6.1,11.2a13.32,13.32,0,0,1-6.5,1.6,19.92,19.92,0,0,1-4.2-.4,41.82,41.82,0,0,0-6.1-.5,16.85,16.85,0,0,0-8.8,2.1,6.86,6.86,0,0,0-2.7,4.3c-.6,2.4-.5,4.8.3,6.2a80,80,0,0,1,9.1,21,69.33,69.33,0,0,1,1.6,10v.2c.2,1.4.3,2.8.5,4.2a25,25,0,0,0,.5,2.9,29.89,29.89,0,0,1,.7,6.7,124.06,124.06,0,0,1-1.9,16.1,46.13,46.13,0,0,1-2.1,7.5v.1c-.3,1-.7,2.1-1,3.1-.5,1.7-1.3,2.5-2.2,2.5a4.21,4.21,0,0,1-2.6-1.3c-.8-.7-1.5-1.4-2.3-2.1-2.6-2.3-5.2-4.8-8.2-6.3a21,21,0,0,0-9.8-2.5,20.41,20.41,0,0,0-7.7,1.6c-5.9,2.6-8.6,7-8.4,14a166.29,166.29,0,0,1-.7,21.2,44.71,44.71,0,0,1-3.4,12.3c-1.1,2.8-2.4,5.7-3.6,8.2s-2.3,4.9-3.4,7.5a18.32,18.32,0,0,1-7.4,8.6,4,4,0,0,1-2.4.7,5.25,5.25,0,0,1-4.6-2.9c-.8-1.7-1.7-3.4-2.6-5.4-2.7-5.6-5.4-11.4-9.1-16.6a110,110,0,0,0-19.4-20.9,57.06,57.06,0,0,0-7.7-5.1l-1.5-.9a5,5,0,0,0-2.9-.7c-3.2,0-6.7,2.3-8.4,5.4a61.81,61.81,0,0,1-3.7,6.1v.1l-.1.2-2.1,3.3-3,5.1-.3.5c-1.2,2.1-2.5,4.3-3.8,6.4-.8,1.4-1.7,2.7-2.5,3.9-.6.9-1.1,1.7-1.7,2.6-2.2,3.5-4.5,7.1-6.7,10.6-.6.9-1.2,1.4-1.9,1.4-.9,0-1.8-.8-2.7-2.3l-2.4-3.9a107.19,107.19,0,0,1-5.4-9.3,196.4,196.4,0,0,1-8.1-17.9,176.31,176.31,0,0,1-6.2-18.6,85.14,85.14,0,0,1-1.7-10.1c-.2-1.5-.4-3.3-.6-4.9l-.2-1v-.1c-.3-2.2-.7-4.3-1.2-6.5-.1-.4-1.3-.7-2.2-.7a1.7,1.7,0,0,0-.7.1c-3.3,1.2-6.8,2.7-10.6,4.4a77.37,77.37,0,0,0-23.8,17.4c-.6.7-1.2,1.3-1.8,2l-.2.2-.7.8-.3.3h0a5.36,5.36,0,0,1-.5-1.1l-.1-.1a12.27,12.27,0,0,1-1.2-2.6c-.4-1.2-.9-2.3-1.4-3.6-1.4-3.7-2.9-7.6-4-11.5a29.75,29.75,0,0,1-.9-5.2,30.38,30.38,0,0,0-1.2-6c-1.8-4.9-1.5-9.9-1.2-14.7V942c.1-1.7.2-3.5.2-5.2a34.16,34.16,0,0,1,1.7-8.9v-.1c.4-1.3.8-2.7,1.1-4.1.2-1,.5-2,.7-3.1l.1-.5c.8-3.1,1.4-6.2,1.9-9.3a6.15,6.15,0,0,0-1.4-4.7,7.3,7.3,0,0,0-4.8-2.5c-2.1-.1-4.5-.3-6.8-.3a35.17,35.17,0,0,0-5.6.4,60,60,0,0,0-10.3,2.7l-.4.1-1.8.6c-2.6.8-5.2,1.8-7.7,2.8l-1.7.7a.9.9,0,0,1-.5.1c-1.6,0-3.9-2.2-3.9-4.3,0-2.5-.1-5-.2-7.6-.2-7.3-.4-14.8.5-22,.3-2.1.4-4.3.5-6.2a59.11,59.11,0,0,1,1.2-10.3l.2-1,.1-.5v-.1a43,43,0,0,1,3-9.4,5.86,5.86,0,0,1,5.2-3.3,6.28,6.28,0,0,1,4,1.4c3.7,2.8,7,5.4,10,8.1a40.37,40.37,0,0,0,12.4,7.1c4.6,1.7,9.5,2.4,14.2,3.1,2.1.3,4.2.6,6.3,1a62.47,62.47,0,0,0,11.4.8h3.9c1.5,0,3.3,0,5.1.1h1.5c6.2-.2,12-2.1,16.8-3.8Zm218.9-119h0l.2.2a.76.76,0,0,1,.2.4l.3.8.2.6c.4,1.2,1,2.8,1.4,4.3s.8,2.7,1.2,4.1l.1.2c1.3,4.5,2.7,9.2,3.9,13.8.7,2.8,1.2,5.7,1.7,8.3.3,1.8.6,3.8,1,5.6.5,2.3,1,4.6,1.5,6.8v.1c.6,2.6,1.2,5,1.7,7.4a15.53,15.53,0,0,1,.3,3.1,17.85,17.85,0,0,0,.2,2.3c.4,3.2.9,6.5,1.3,9.2.3,2.2.6,4.3.9,6.5.5,3.6,1,7.2,1.4,10.8l.5,3.7v.7c.1,2.1.3,4.2.4,6.3.3,4.5.7,9.2.8,13.7.4,12.7.6,22.5.6,31.7v5a168.5,168.5,0,0,1-.9,23.5c-.4,3.5-.6,7-.8,10.3-.2,4.1-.5,8.3-1.1,12.4a156.25,156.25,0,0,0-1.8,17.2,121.8,121.8,0,0,1-1.9,13.5c-.6,3-1.3,5.9-1.9,8.8l-.1.3c-.4,1.7-.8,3.5-1.2,5.3-.2,1-.3,2.1-.5,3v.3c-.1.4-.1.9-.2,1.3-.2,1.2-.3,2.3-.5,3.5l-.1.4c-.4,2.9-.8,6.2-1.5,9.3-.5,2.1-1.1,4.3-1.7,6.3-.5,1.6-1,3.4-1.5,5.1-.5,2.1-.9,4.2-1.3,6.2v.2c-.4,2.2-.8,4.4-1.4,6.6-.5,2-1.1,4-1.7,6q-.75,2.4-1.5,5.1a14.92,14.92,0,0,0-.2,2.1,7.49,7.49,0,0,1-.2,2.1,83.32,83.32,0,0,0-2.2,27.1,169.93,169.93,0,0,0,2.6,18.8,58.44,58.44,0,0,0,1.8,6.9v.1c.5,1.7,1,3.4,1.4,5.1a10.12,10.12,0,0,1,.2,3,19.27,19.27,0,0,0,.1,2.4c.3,2.3.7,4.6,1.1,6.8v.2c.4,2.4.8,4.9,1.2,7.4l.6,5.4a57.26,57.26,0,0,0,1.5,10.1,57.8,57.8,0,0,1,1.6,13c0,1.3.1,2.6.2,3.9l.3,4.5.1,1c.5,6.8.9,13.8.9,20.7a164.91,164.91,0,0,1-2,25.3,137.43,137.43,0,0,1-5.8,22.7,61,61,0,0,1-21.9,29.3c-1.8,1.4-4.2,2.1-6.7,2.8l-1.7.5-.3.1c-2.8.8-5.6,1.7-8.4,1.7h-.4a38,38,0,0,1-12.9-2.6,45.16,45.16,0,0,1-19.3-13.3,81,81,0,0,1-10.3-15.6,132.65,132.65,0,0,1-7-18.1l-.6-1.9a62.28,62.28,0,0,1-1.5-6.2c-.3-1.4-.6-3-1-4.5-.5-1.8-1.1-3.7-1.6-5.2v-.1c-.5-1.5-1-3-1.4-4.5a11.53,11.53,0,0,1-.3-2.6,11,11,0,0,0-.2-1.8c-.3-1.8-.6-3.7-.9-5.5-.4-2.4-.9-5-1.3-7.7-.2-1.7-.4-3.4-.6-5a46.62,46.62,0,0,0-1.6-9.8,38.19,38.19,0,0,1-1.4-9.4v-.1c-.1-1.5-.1-3-.3-4.4-.8-7.2-1.3-14.6-1.8-21.7l-.2-2.6a64.61,64.61,0,0,1,0-8.8,2.78,2.78,0,0,0-.3-1.8.91.91,0,0,0-.7-.3,4.19,4.19,0,0,0-1.6.4l-.2.1c-4.4,1.4-8.9,2.9-13.4,4.2-1.4.3-2.8.6-4.2.8a26.3,26.3,0,0,0-5.7,1.3,21.83,21.83,0,0,1-8.4,1.4c-1.6,0-3.3-.1-4.9-.2h-.1c-1-.1-2-.1-3-.2a59.38,59.38,0,0,1-17.9-3,44.16,44.16,0,0,0-5.2-1.4,32.28,32.28,0,0,1-5.1-1.4,49.42,49.42,0,0,1-5.7-2.6c-1.7-.8-3.5-1.7-5.2-2.4a27.54,27.54,0,0,1-3.8-2c-2.1-1.3-4.3-2.7-7-2.7a11.72,11.72,0,0,0-2.7.4c-4.1,1.3-7.1,5.6-7.8,8.9a37.48,37.48,0,0,0-.5,4.7v.1c-.1,1-.1,2-.2,3-.6,5.2-1.3,10.3-2,15.2l-.2,1.8c-.5,3.6-1,7.2-1.8,10.8-.5,2.4-1.2,4.8-1.8,7.1v.1c-.4,1.6-.9,3.2-1.3,4.8a25.12,25.12,0,0,0-.4,2.7c-.1.7-.2,1.5-.3,2.2-.3,1.6-.6,3.2-1,4.8-.9,4.6-1.8,9.4-3,14.1-1.6,6.3-3.6,12.7-5.5,18.8v.1l-.3.9c-.3,1-.6,2-.9,3.1l-.2.8a109.76,109.76,0,0,1-4.8,13.6c-.8,1.8-1.6,3.7-2.3,5.3a80.71,80.71,0,0,1-6.2,12.5c-2.9,4.5-7,10-13.1,12.4-.6.2-1.2.5-1.9.8-2.4,1-4.9,2.1-7.6,2.1a8.67,8.67,0,0,1-5-1.5,1.49,1.49,0,0,0-.9-.2,3.75,3.75,0,0,0-1,.1h-.1c-.3,0-.6.1-.9.1a1.49,1.49,0,0,1-.9-.2,68.33,68.33,0,0,1-9.7-5,42.48,42.48,0,0,1-8-6.7c-5.2-5.8-8.5-11.3-10.3-17.3-.9-3-2-6-3-8.7-1-2.9-2.2-6.1-3.1-9.3a46.11,46.11,0,0,1-1.5-7.2c-.2-1.3-.5-3-.8-4.6-.4-2-.9-4.1-1.4-6.1v-.3c-.6-2.4-1.2-4.9-1.7-7.3a38.59,38.59,0,0,1-.6-4.9v-.3c0-.4-.1-.9-.1-1.3l-.3-3-.1-.9c-.3-3.9-.7-7.9-.9-11.9v-.2c-.3-5.1-.6-10.3-.6-15.5,0-8.8.3-16,.7-22.9.3-4.7.9-9.4,1.6-14l.3-2.5c.1-.8.2-1.7.3-2.5v-.3a37.06,37.06,0,0,1,1.7-8.8c2.4-6.3,2.1-12.8,1.7-19l-.1-1.7a37.15,37.15,0,0,0-2.1-9.2v-.1c-.4-1.4-.9-2.9-1.3-4.3-.1-.6-.2-1.1-.3-1.7a14.35,14.35,0,0,0-.4-2.2c-2-5.6-4.1-11.4-5.8-16.1l-2-5.5-2.8-7.7c-1.7-4.6-3.4-9.2-5-13.8-.6-1.8-1.3-3.5-1.9-5.3V998c-1.2-3.3-2.4-6.7-3.6-10-1.1-2.8-2.2-5.6-3.4-8.6l-.1-.2c-1.5-3.8-3.1-7.8-4.5-11.7-1-2.7-1.8-5.5-2.6-8.2l-.1-.2c-.5-1.8-1.1-3.6-1.7-5.4-.7-2-1.4-4-2.1-6.1-1-2.8-2.1-5.9-3-9-1.4-4.7-2.6-9.5-3.8-14.2-.3-1.1-.5-2.1-.8-3.2l-.3-1.1c-1.2-4.9-2.5-9.9-3.6-14.9-.7-3.4-1.3-6.9-1.8-10.2l-.2-1.4c-.3-1.6-.5-3.3-.7-4.9v-.1c-.4-2.9-.7-5.9-1.4-8.8-2-9.2-2-18.7-1.9-27.9v-8.8a58.32,58.32,0,0,1,.7-10.2c.6-3.4,1.3-6.9,2-9.9l1.2-5.4c.1-.7.2-1.4.3-2.2a20,20,0,0,1,.4-2.4c.3-1.5.6-2.9,1-4.4a99.11,99.11,0,0,1,3.1-11.9,123.44,123.44,0,0,1,5.1-11.8c.7-1.4,1.3-2.8,2-4.2a2.36,2.36,0,0,1,.9-.8c.2-.1.3-.2.5-.3h0l.2.6c.1.3.2.7.3,1,.4,1.2.8,2.5,1.2,3.7l2.7,8.1c1.5,4.1,2.9,7.9,4.6,11.5s3.8,7.4,5.7,10.7l.8,1.4c2.7,4.7,5,8.7,7.2,12.3a24.33,24.33,0,0,0,2,2.5c.4.5.8.9,1.2,1.4l1.5,2.1a18,18,0,0,0,3.3,4c3,2.5,3.4,4.8,1.3,8.3a49.19,49.19,0,0,0-4,9.8,153.67,153.67,0,0,0-4.1,16.2,107.11,107.11,0,0,0-1.2,13.9l-.1,2.2a97.27,97.27,0,0,0,0,10.8v.4a77,77,0,0,0,2.1,14.4c.5,1.8,3.3,4.1,5.3,4.3l.6.1a32.53,32.53,0,0,0,4.4.3,11.07,11.07,0,0,0,7.4-2.5,37.7,37.7,0,0,1,7.8-4.5c.7-.4,1.5-.7,2.2-1.1a8.38,8.38,0,0,1,3.8-.8c3.3,0,6.5,1.3,8.1,3.3.5.6,1.3,1.6,1.2,2.4-.3,2.5-.7,5-1.1,7.4v.2c-.2,1.1-.4,2.3-.5,3.4a21.05,21.05,0,0,0-.2,2.5c0,2,0,4.1-.1,6.1v.3c-.1,5.2-.2,10.5.2,15.7a74.54,74.54,0,0,0,1.9,10.5c.5,1.9.9,3.7,1.2,5.5a4.85,4.85,0,0,1,0,1.7,4.08,4.08,0,0,0,.1,1.9l.3,1.1c1.8,5.6,3.6,11.4,5.7,17a6.21,6.21,0,0,0,6.1,4.3,14.92,14.92,0,0,0,2.1-.2,8.8,8.8,0,0,0,3.5-1.7c2.2-1.7,4.4-3.5,6.4-5,2.2-1.7,4.3-3.4,6.4-5.1,1.8-1.4,3.6-2.7,5.3-3.9l.2-.2c2.4-1.7,4.9-3.6,7.2-5.4a3,3,0,0,1,1.8-.8,2.12,2.12,0,0,1,1.9,1.8c.6,2.3,1.1,4.6,1.5,6.8.4,2,.8,4.1,1.3,6.1a93.94,93.94,0,0,0,3.5,10.6c2,5.2,3.8,9.8,5.6,14,2.3,5.4,5,11,8,17.3a23.94,23.94,0,0,0,2.1,3.4c.4.6.9,1.3,1.3,2,.9,1.5,1.9,3.1,2.8,4.6l.4.7c1.8,3,3.8,6.3,5.9,9.6.7,1.2,1.4,1.7,2.1,1.7s1.2-.5,1.8-1.4l1.1-1.9c1.4-2.4,3-5,4.6-7.5,1.1-1.6,2.2-3.2,3.3-4.7a55.23,55.23,0,0,0,3.2-4.7c1.8-2.7,3.6-5.7,5.1-8,1.3-2.1,2.6-4.1,3.9-6.2l1.2-1.9c2.3-3.6,4.9-7.6,7.6-11.4a4.48,4.48,0,0,1,3.8-1.6,6.55,6.55,0,0,1,4.2,1.5c1.3,1.1,2.5,2.3,3.9,3.4,3.7,3.3,7.5,6.6,11,10.3a56.34,56.34,0,0,1,7.4,10.6c2.7,4.6,5,9.3,7.2,13.7a10.55,10.55,0,0,1,.6,2.4,15.52,15.52,0,0,0,.4,2.1c.2.5.4,1.1.6,1.6a21.1,21.1,0,0,0,3,6,8.6,8.6,0,0,0,6.9,2.9,12.9,12.9,0,0,0,6.9-2c5.8-3.7,8.6-9.6,11.3-15.2.5-1.1,1.1-2.2,1.6-3.3,1.5-3.1,3.1-6.3,4.4-9.6a43,43,0,0,0,2-7c.1-.6.3-1.2.4-1.7,1-4,2-8.3,3.3-14a7.57,7.57,0,0,0,.1-1.5V982.5a13.21,13.21,0,0,1,.3-4c.3-.8.9-1,2.1-1,.7,0,1.7.1,2.8.2a32.88,32.88,0,0,1,16.4,6c4.3,3.2,8.4,6.6,10.1,11.7.4,1.1.8,1.6,1.3,1.6s.9-.4,1.4-1.3c1.7-3,3.2-6.2,4.7-9.5q2-4.5,3.6-9.3a12.61,12.61,0,0,0,.5-2.8c.1-.6.1-1.2.2-1.8,1.7-8.5,3.3-18.6,1.6-28.8-.3-1.7-.5-3.5-.7-5.1a81.29,81.29,0,0,0-1.3-8.4,98.92,98.92,0,0,0-3.5-10.9,20.94,20.94,0,0,1-.8-2.3c-.4-1.1-.9-2.1-1.4-3.2V913c-.5-.9-.9-1.9-1.3-2.8-.8-2-1.3-3.9.7-6.1A9.19,9.19,0,0,1,915,901a8.08,8.08,0,0,1,2.7.5,25,25,0,0,0,9.8,1.7,50.36,50.36,0,0,0,5.7-.3c4.5-2.2,5.1-6.2,5.7-9.8l.1-.5.2-1.1c.9-5.8,1.8-11.9,1-17.6-.2-1.6-.3-3.3-.4-4.9-.2-3.7-.5-7.6-2.4-11.2a15.51,15.51,0,0,1-1.2-4.2,22.21,22.21,0,0,0-.9-3.7,140.89,140.89,0,0,0-7-14.7c-1.8-3.1-3.9-6.2-5.9-9.2v-.1c-1.3-1.9-2.8-4.1-4.1-6.2-1.9-3-1.4-7,1.2-10,1.2-1.4,2.5-2.8,3.7-4.1a127.28,127.28,0,0,0,11-13.3c.7-1.1,1.4-2.1,2.1-3.2,4.8-7.1,9.7-14.4,12.9-22.6,1.8-4.5,3.9-9,6-13.3,1-2,2-4.3,3.1-6.5a1.1,1.1,0,0,0,0-.8v-.5a1.42,1.42,0,0,1,.2-.6v-.3h0Z" transform="translate(-528.75 311.1)"/><path class="cls-1" d="M790.1,579.5c-3.7,1.6-7.6,5-6.3,9.5a31.41,31.41,0,0,0,5,9.6c1.4,2,3,4,4.6,5.9l.1.1v.1q1.95,2.25,3.9,4.8c2.1,2.9,4.7,5.5,8.9,5.5a7.57,7.57,0,0,0,1.5-.1h.9a.37.37,0,0,0,.3-.1c6.7-3.8,10.8-10.2,12.9-20.1.7-3.2.4-6.7.1-10l-.1-.7-.1-.6a4.24,4.24,0,0,0-2.3-3l-1.2-.2a66,66,0,0,0-12.4-1.7h-.5c-1.3,0-2.6-.1-3.8-.1h-.2c-1.2-.1-2.6-.2-4-.2a17.39,17.39,0,0,0-7.3,1.3Zm13.3,24.6c-3.6-4.6-6.8-9.6-10-14.4l-.2-.3a2.58,2.58,0,0,1,.3-1.3c.2-.4.4-.6.5-.6h3.7c2,0,3.9-.1,5.9-.1,3.6,0,6.6.1,9.2.3,1.6.1,2.5.5,2.8,1.1.4.8,0,2-.7,3.6l-.8,1.8-.8,1.8c-.2,4.6-3,7.3-5.7,9.4a1.88,1.88,0,0,1-.8.2,6.19,6.19,0,0,1-3.4-1.5Z" transform="translate(-528.75 311.1)"/><path class="cls-2" d="M924.4,595.8c-1.6,0-3.1,1-5.3,3.5l-.9,1.2a6.42,6.42,0,0,1-1,1.3L916,603c-9.4,9.4-19.1,19.2-30.5,26.8l-2.7,1.8-.7.5c-4.3,3-8.8,5.8-13.4,8.4-2.1,1.1-4.2,2.2-6.3,3.4-5.1,2.8-10.4,5.6-15.7,8.1a110.74,110.74,0,0,1-15.6,5.4l-1.8.5a138.47,138.47,0,0,1-15.7,3.9c-5.1.8-10.3,1.3-15.3,1.7h-.1l-3.9.3-1.2.1-.6.1h-.1c-2.5.2-5,.5-7.5.5a12.75,12.75,0,0,1-2-.1c-5.9-.3-11.8-1.1-17.6-1.8l-1.2-.2c-5-.6-10.2-1.2-15.3-2.3q-6.75-1.5-13.2-3.6l-1.2-.4h-.1a97.72,97.72,0,0,1-12.4-4.6c-3.5-1.7-6.9-3.6-10.2-5.4-2.2-1.2-4.7-2.6-7.2-3.9a88.73,88.73,0,0,1-20.9-15,10.59,10.59,0,0,0-1.2-1l-.1-.1a10.63,10.63,0,0,1-1.1-.9c-.9-.9-1.8-1.8-2.7-2.6l-.2-.2c-2-1.9-4-3.9-6.1-5.6-2.3-1.9-4.1-2.9-5.2-2.9a.9.9,0,0,0-.5.1c-4.3,1.4-8.1,3-10.7,7.4a161.49,161.49,0,0,1-10.1,14.4l-.1.1h0c-1.8,2.3-3.6,4.7-5.3,7.2-3,4.2-5.9,8.6-8.7,12.8l-1,1.5a47.59,47.59,0,0,0-3.4,5.7c-2.7,5.4-4.7,9.8-6.5,14l-.2.4c-2.4,5.5-4.9,11.1-7,16.8a82.21,82.21,0,0,0-3.9,13.7,104.86,104.86,0,0,0-1.9,15.8,45.17,45.17,0,0,0,.5,8.2c.1,1.1.3,2.3.4,3.3a129.26,129.26,0,0,0,4.3,23.8c.4,1.3.7,2.7,1,4.1a47.74,47.74,0,0,0,1.7,6.5c.9,2.5,2,5.1,3,7.5l.1.1c1.4,3.4,2.8,6.8,3.9,10.3a180.42,180.42,0,0,0,7.7,19.3A67.92,67.92,0,0,0,646,829.4a76.51,76.51,0,0,0,7.5,6.2c1.7,1.3,3.4,2.5,5.1,3.8q2.1,1.5,4.5,3.3c1,.6,1.9,1.2,2.9,1.8,2.1,1.3,4.3,2.6,6.6,3.8l1.3.6a143.31,143.31,0,0,0,15.5,6.9c4.7,1.7,11,3.7,17.5,3.7a20.9,20.9,0,0,0,2.5-.1c2-.1,3.9-.2,5.8-.2a42.23,42.23,0,0,0,10.6-.9c4.9-1.2,11.1-2.9,16.7-6.3a53.38,53.38,0,0,0,12.2-10.5,16.41,16.41,0,0,0,3.5-8.9,37.61,37.61,0,0,0-5.7-25.6c-3.3-4.9-6.5-10-10-15.4l-1.4-2.2c-1.7-2.6-3.4-5.2-4.8-7.9a168.57,168.57,0,0,1-7.8-16,104.19,104.19,0,0,1-5.2-16.4,32.07,32.07,0,0,1-.3-7.6c.1-1.4.1-2.9.1-4.3-.2-8,4.3-13.7,8.9-18.8a11.41,11.41,0,0,1,2.8-2.1c.5-.3,1-.6,1.4-.9,1-.7,1.9-1.4,2.9-2.1l.1-.1a36.87,36.87,0,0,1,6.7-4.4l1.9-.9c5.9-2.9,12-5.8,18.6-7.1a74,74,0,0,0,9.2-2.6,84.19,84.19,0,0,1,8.6-2.4,124.23,124.23,0,0,1,16.1-2c5.4-.4,11.3-.6,18.6-.7h2.6a195.83,195.83,0,0,1,27.6,1.8,51.65,51.65,0,0,1,22.2,8,17.52,17.52,0,0,1,7.6,11.1c1.4,6.6-.1,13.4-4.3,19.6a156.84,156.84,0,0,1-14.3,18.2c-3.5,3.9-7.4,7.7-11.1,11.3-3.1,3.1-6.3,6.2-9.3,9.4a132.85,132.85,0,0,0-11.1,13.7c-3.3,4.6-6.6,9.7-10.5,16.2a39.84,39.84,0,0,0-2.4,5.1c-.7,1.6-1.4,3.2-2.2,4.7-3.6,6.3-5,13.3-6.3,19.5-.7,3.3.4,7.3,1.5,10.1,2.7,7,8.2,11.8,16.2,13.7a35.29,35.29,0,0,0,8.6.7c1.4,0,2.6,0,3.8.1h.9c5.2,0,9.8-2.2,14.2-4.3,1-.4,1.9-.9,2.8-1.3a70,70,0,0,0,8.4-4.8l.1-.1c1-.7,2.1-1.3,3.1-2,1.3-.8,2.6-1.6,3.9-2.3h.1c3.4-1.9,6.6-4,9.8-6.2,3.4-2.6,6.7-5.4,9.9-8.3,1.3-1.2,2.6-2.3,3.9-3.4,9.3-8,15.8-14.9,21-22.2,2-2.8,4.2-5.7,6.3-8.4l.1-.1c2-2.6,4.1-5.3,6-8a145.1,145.1,0,0,0,8.6-13.4,169,169,0,0,0,7.8-16.7c3-7.1,5.4-13.7,7.6-20s3.9-12.9,5.6-18.9a76.17,76.17,0,0,0,2-10.6c.2-1.3.3-2.6.5-3.9a138.4,138.4,0,0,0,1.4-15.8c0-6.4-.4-12.9-.8-19.2-.1-2.2-.3-4.5-.4-6.7a31.89,31.89,0,0,0-.8-6.2c-.9-3.5-2-6.9-3.1-10.1-.4-1.1-.7-2.1-1.1-3.2l-.2-.5c-1.2-3.9-2.6-7.8-4.2-11.6a47,47,0,0,0-3.9-6.9c-1-1.6-2.1-3.3-3-4.9a63.61,63.61,0,0,0-14.5-18.1c-1.9-1.7-3.4-2.4-4.7-2.4Z" transform="translate(-528.75 311.1)"/><path class="cls-2" d="M957.6,744.8h0v.3a1.45,1.45,0,0,0-.1,1.1v.8c-1,2.2-2.1,4.5-3.1,6.5-2.1,4.3-4.2,8.7-6,13.3-3.2,8.2-8.2,15.5-12.9,22.6-.7,1-1.4,2.1-2.1,3.2a107.89,107.89,0,0,1-11,13.3c-1.2,1.4-2.5,2.7-3.7,4.1-2.6,3-3.1,7-1.2,10,1.3,2.1,2.8,4.3,4.1,6.2v.1c2,3,4.1,6,5.9,9.2a140.89,140.89,0,0,1,7,14.7,15.4,15.4,0,0,1,.9,3.7,14.55,14.55,0,0,0,1.2,4.2c1.9,3.5,2.2,7.4,2.4,11.2.1,1.5.2,3.3.4,4.9.9,5.7-.1,11.7-1,17.5l-.2,1.1-.1.5c-.5,3.6-1.1,7.7-5.7,9.8-1.7.1-3.7.3-5.7.3a25.32,25.32,0,0,1-9.8-1.7,6.46,6.46,0,0,0-2.7-.5,9.37,9.37,0,0,0-6.6,3.1c-2,2.1-1.5,4.1-.7,6.1.4.9.8,1.9,1.3,2.8v.1a30.9,30.9,0,0,1,1.4,3.2c.3.8.5,1.5.8,2.3a86.32,86.32,0,0,1,3.5,10.9,61,61,0,0,1,1.3,8.4c.2,1.6.4,3.4.7,5.1,1.7,10.3.2,20.3-1.6,28.8a11,11,0,0,0-.2,1.8,13.73,13.73,0,0,1-.5,2.8q-1.65,4.8-3.6,9.3c-1.5,3.3-3,6.5-4.7,9.5-.5.8-.9,1.3-1.4,1.3s-1-.6-1.3-1.6c-1.7-5-5.7-8.4-10.1-11.7a32.31,32.31,0,0,0-16.4-6c-1.2-.1-2.1-.2-2.8-.2-1.2,0-1.8.3-2.1,1a12.85,12.85,0,0,0-.3,4v18.6a3.81,3.81,0,0,1-.1,1.5c-1.3,5.7-2.3,10-3.3,14-.1.6-.3,1.2-.4,1.7a56,56,0,0,1-2,7c-1.3,3.3-2.9,6.5-4.4,9.6-.5,1.1-1.1,2.2-1.6,3.3-2.7,5.6-5.5,11.4-11.3,15.2a13.16,13.16,0,0,1-6.9,2,9.07,9.07,0,0,1-6.9-2.9,21.1,21.1,0,0,1-3-6c-.2-.6-.4-1.1-.6-1.6a7.79,7.79,0,0,1-.4-2.1,7.06,7.06,0,0,0-.6-2.4c-2.1-4.4-4.5-9.1-7.2-13.7a61.39,61.39,0,0,0-7.4-10.6c-3.5-3.6-7.3-7-11-10.3-1.3-1.2-2.6-2.3-3.9-3.4a6.29,6.29,0,0,0-4.1-1.5,4.48,4.48,0,0,0-3.8,1.6c-2.7,3.8-5.3,7.8-7.6,11.4l-1.2,1.9c-1.3,2.1-2.6,4.1-3.9,6.2-1.5,2.3-3.3,5.3-5.1,8-1,1.6-2.2,3.2-3.2,4.6s-2.2,3.1-3.3,4.7c-1.6,2.5-3.2,5.2-4.6,7.5l-1.1,1.9c-.6,1-1.2,1.4-1.8,1.4s-1.4-.6-2.1-1.7c-2.1-3.2-4.1-6.6-5.9-9.6l-.4-.7c-.9-1.5-1.9-3.1-2.8-4.6-.4-.7-.9-1.4-1.3-2a23.94,23.94,0,0,1-2.1-3.4c-3-6.3-5.6-11.9-8-17.3-1.8-4.2-3.7-8.8-5.6-14a101.09,101.09,0,0,1-3.5-10.6c-.5-2-.9-4.1-1.3-6.1-.4-2.2-.9-4.5-1.5-6.8a2.12,2.12,0,0,0-1.9-1.8,2.5,2.5,0,0,0-1.8.8c-2.3,1.9-4.8,3.7-7.2,5.4l-.2.2c-1.6,1.2-3.5,2.5-5.3,3.9-2.1,1.6-4.3,3.3-6.4,5.1-2,1.6-4.2,3.3-6.4,5a8.8,8.8,0,0,1-3.5,1.7,7.49,7.49,0,0,1-2.1.2,6.21,6.21,0,0,1-6.1-4.3c-2.1-5.6-3.9-11.4-5.7-17l-.3-1.1a6.08,6.08,0,0,1-.1-1.9,4.85,4.85,0,0,0,0-1.7c-.3-1.8-.7-3.5-1.2-5.5a77.23,77.23,0,0,1-1.9-10.5c-.4-5.2-.3-10.5-.2-15.7v-.3c0-2,.1-4.1.1-6.1a21.05,21.05,0,0,1,.2-2.5c.2-1.1.4-2.3.5-3.4v-.2c.4-2.4.8-4.9,1.1-7.4.1-.8-.7-1.8-1.2-2.4-1.6-2-4.8-3.3-8.1-3.3a8.38,8.38,0,0,0-3.8.8c-.7.4-1.5.7-2.2,1.1a42.82,42.82,0,0,0-7.8,4.5,11.07,11.07,0,0,1-7.4,2.5,31.45,31.45,0,0,1-4.4-.3l-.6-.1c-2-.2-4.8-2.5-5.3-4.3a78.17,78.17,0,0,1-2.1-14.4v-.4a97.27,97.27,0,0,1,0-10.8l.1-2.2a130.59,130.59,0,0,1,1.3-13.9,128.06,128.06,0,0,1,4.1-16.2,43.89,43.89,0,0,1,4-9.8c2-3.5,1.6-5.8-1.3-8.3a18,18,0,0,1-3.3-4c-.5-.7-1-1.5-1.5-2.1a17.41,17.41,0,0,0-1.2-1.4,24.33,24.33,0,0,1-2-2.5c-2.3-3.7-4.6-7.6-7.2-12.3l-.8-1.4c-1.8-3.3-3.9-7-5.7-10.7a110.19,110.19,0,0,1-4.6-11.5q-1.5-4.05-2.7-8.1c-.4-1.2-.8-2.5-1.2-3.7-.1-.3-.2-.7-.3-1l-.2-.6-.5.3a2.36,2.36,0,0,0-.9.8c-.6,1.4-1.3,2.8-2,4.2a123.44,123.44,0,0,0-5.1,11.8,79.72,79.72,0,0,0-3,11.9c-.3,1.5-.6,2.9-1,4.4a20,20,0,0,0-.4,2.4c-.1.7-.2,1.5-.3,2.2l-1.2,5.4c-.7,3.1-1.5,6.5-2,9.9a58.32,58.32,0,0,0-.7,10.2v8.8c-.1,9.2-.2,18.6,1.9,27.9.6,2.9,1,5.9,1.4,8.8v.1c.2,1.6.4,3.3.7,4.9l.2,1.4c.5,3.4,1,6.8,1.8,10.2,1.1,5,2.4,10,3.6,14.9l.3,1.1c.3,1.1.5,2.1.8,3.2,1.2,4.7,2.4,9.5,3.8,14.2.9,3.1,2,6.3,3,9,.8,2.2,1.5,4.1,2.1,6.1.6,1.8,1.1,3.6,1.7,5.4l.1.2c.8,2.7,1.6,5.5,2.6,8.2,1.4,3.9,3,7.9,4.5,11.7l.1.2c1.2,3.1,2.3,5.8,3.4,8.6,1.3,3.3,2.5,6.7,3.6,10v.1c.6,1.8,1.2,3.5,1.9,5.3,1.7,4.6,3.4,9.2,5,13.8l2.8,7.7,2,5.5c1.7,4.7,3.8,10.5,5.8,16.1a8.51,8.51,0,0,1,.4,2.2c.1.6.2,1.1.3,1.7.4,1.4.8,2.9,1.3,4.3v.1a42.25,42.25,0,0,1,2.1,9.2l.1,1.7c.3,6.3.7,12.8-1.7,19a31.94,31.94,0,0,0-1.7,8.8v.3c-.1.8-.2,1.7-.3,2.5l-.3,2.5c-.6,4.6-1.3,9.3-1.6,14-.4,6.8-.6,14.1-.7,22.9,0,5.2.3,10.5.6,15.5v.2c.3,4,.6,8,.9,11.9l.1.9.3,3c0,.4.1.9.1,1.3v.3a41,41,0,0,0,.6,4.9c.5,2.4,1.1,4.9,1.7,7.3v.3c.5,2,1,4,1.4,6.1.3,1.6.6,3.2.9,4.6q.6,3.6,1.5,7.2c.9,3.2,2.1,6.4,3.1,9.3,1,2.7,2.1,5.7,3,8.7,1.8,6,5.1,11.5,10.3,17.3a39.54,39.54,0,0,0,8,6.7,68.33,68.33,0,0,0,9.7,5,2.92,2.92,0,0,0,.9.2,2.77,2.77,0,0,0,.9-.1h.1c.3,0,.6-.1,1-.1a2.39,2.39,0,0,1,.9.2,8.9,8.9,0,0,0,5,1.5c2.7,0,5.2-1.1,7.6-2.1.7-.3,1.3-.5,1.9-.8,6.1-2.4,10.2-7.9,13.1-12.4a80.71,80.71,0,0,0,6.2-12.5c.7-1.6,1.5-3.5,2.3-5.3a109.76,109.76,0,0,0,4.8-13.6l.2-.8.9-3.1.3-.9v-.1c1.9-6.1,3.9-12.5,5.5-18.8,1.2-4.7,2.1-9.5,3-14.1l.9-4.8c.1-.7.2-1.5.3-2.2a25.12,25.12,0,0,1,.4-2.7c.4-1.6.9-3.3,1.3-4.8v-.1c.6-2.3,1.3-4.7,1.8-7.1q1.05-5.4,1.8-10.8l.2-1.8c.7-4.9,1.3-10,2-15.2.1-1,.2-2,.2-3v-.1a35.59,35.59,0,0,1,.5-4.7,12.71,12.71,0,0,1,7.8-8.9,8.42,8.42,0,0,1,2.7-.4c2.7,0,4.8,1.3,7,2.7a19.75,19.75,0,0,0,3.8,2c1.8.7,3.6,1.6,5.2,2.4,1.9,1,3.8,1.8,5.7,2.6a48.37,48.37,0,0,0,5.1,1.4,30.68,30.68,0,0,1,5.2,1.4c6.1,2.3,12.5,2.8,17.9,3,1,0,2,.1,3,.2h.1c1.6.1,3.3.2,4.9.2a21.83,21.83,0,0,0,8.4-1.4,23.46,23.46,0,0,1,5.7-1.3,31,31,0,0,0,4.2-.8c4.5-1.2,9.1-2.7,13.4-4.2l.2-.1a9.36,9.36,0,0,1,1.6-.4.91.91,0,0,1,.7.3,2.27,2.27,0,0,1,.3,1.8,64.61,64.61,0,0,0,0,8.8l.2,2.6c.5,7.1,1,14.5,1.8,21.7.2,1.5.2,3,.3,4.4v.1c.2,3.1.3,6.3,1.4,9.4a45.59,45.59,0,0,1,1.6,9.8c.2,1.7.3,3.4.6,5,.4,2.6.9,5.3,1.3,7.7.3,1.8.6,3.6.9,5.5.1.6.1,1.2.2,1.8a10.9,10.9,0,0,0,.3,2.6c.4,1.5.9,3,1.4,4.5v.1a53.65,53.65,0,0,1,1.6,5.2c.4,1.5.7,3.1,1,4.5a33,33,0,0,0,1.5,6.2l.6,1.9a147.66,147.66,0,0,0,7.1,18.1,86,86,0,0,0,10.3,15.6c4.7,5.8,11.2,10.2,19.3,13.3a40.59,40.59,0,0,0,12.9,2.6h.4a27.31,27.31,0,0,0,8.4-1.7l.3-.1,1.7-.5a20.18,20.18,0,0,0,6.7-2.8c10.6-7.9,17.9-17.7,21.9-29.3a137.43,137.43,0,0,0,5.8-22.7,164.91,164.91,0,0,0,2-25.3c.1-6.9-.4-13.9-.9-20.7l-.1-1-.3-4.5c-.1-1.3-.1-2.6-.2-3.9-.2-4.3-.3-8.7-1.6-13a57.26,57.26,0,0,1-1.5-10.1c-.2-1.8-.3-3.6-.6-5.4-.3-2.5-.8-5-1.2-7.4v-.2c-.4-2.2-.8-4.6-1.1-6.8a19.27,19.27,0,0,1-.1-2.4,15.14,15.14,0,0,0-.2-3c-.4-1.7-.9-3.4-1.4-5.1v-.1q-1.05-3.45-1.8-6.9a169.93,169.93,0,0,1-2.6-18.8,86.44,86.44,0,0,1,2.2-27.1,14.92,14.92,0,0,0,.2-2.1,7.49,7.49,0,0,1,.2-2.1c.5-1.7,1-3.5,1.5-5.1.6-2,1.2-4,1.7-6,.5-2.2.9-4.4,1.4-6.6v-.2c.4-2,.8-4.2,1.3-6.2a52.13,52.13,0,0,1,1.5-5.1,52.34,52.34,0,0,0,1.7-6.3c.6-3.1,1.1-6.4,1.5-9.3l.1-.4c.2-1.2.3-2.3.5-3.5.1-.4.1-.9.2-1.3v-.3c.1-.9.3-2,.5-3,.4-1.8.8-3.5,1.2-5.3l.1-.3c.7-2.9,1.4-5.8,1.9-8.8a104.38,104.38,0,0,0,1.9-13.5,161.54,161.54,0,0,1,1.8-17.2c.6-4.1.9-8.3,1.1-12.4.2-3.4.4-6.9.8-10.3,1-7.8.9-15.7.9-23.5v-5c0-9.2-.2-19-.6-31.7-.2-4.6-.5-9.3-.8-13.7-.2-2.1-.3-4.2-.4-6.3v-.7l-.5-3.7c-.5-3.6-.9-7.2-1.5-10.9-.3-2.2-.6-4.3-.9-6.5-.4-2.7-.9-6.1-1.3-9.2-.1-.8-.1-1.5-.2-2.3a16.28,16.28,0,0,0-.3-3.1c-.5-2.4-1-4.8-1.7-7.4v.6c-.5-2.2-1-4.5-1.5-6.8-.4-1.9-.7-3.8-1-5.6-.5-2.6-1-5.5-1.6-8.3-1.2-4.6-2.6-9.3-3.9-13.8l-.1-.2c-.4-1.4-.8-2.7-1.2-4.1s-1-3-1.4-4.3l-.2-.6-.3-.8c-.1-.2-.1-.3-.3-.4l-.1-.2Z" transform="translate(-528.75 311.1)"/><path class="cls-2" d="M934.3,297.7h0a8.79,8.79,0,0,1-1,.6,23.92,23.92,0,0,0-2.1,1.3c-1.7,1.3-3.6,2.6-5.2,3.8a113.92,113.92,0,0,0-12.3,9.7,207.15,207.15,0,0,0-14.9,16.2l-3,3.5a64.56,64.56,0,0,0-4.4,5.9c-.9,1.3-1.7,2.5-2.7,3.7a8.31,8.31,0,0,1-7,3.1,23.4,23.4,0,0,1-3.8-.3c-3.6-.5-7.2-1.3-10.8-2.1-2.5-.6-5.1-1.1-7.6-1.6-4.8-.9-9.5-1.5-13.9-2-5.1-.6-10.4-.9-15.5-1.2h-.5c-2.3-.1-4.6-.3-6.8-.4-3.8-.3-8.9-.6-14-.6a109.39,109.39,0,0,0-16.2,1.2,87.37,87.37,0,0,1-11.4.8,78.27,78.27,0,0,0-13.6,1.3c-3.8.8-7.7,1.3-11.5,1.8l-4.2.6a10.87,10.87,0,0,1-1.8.1,19.42,19.42,0,0,0-2.4.2c-1.5.4-3,.8-4.6,1.3a61.74,61.74,0,0,1-7.4,1.9,53.86,53.86,0,0,1-8,.6c-1.1,0-2.1.1-3.1.1h-.5c-4.8,0-7.5-3.3-9.3-6.1-1.2-1.9-2.4-3.9-3.6-5.8v-.1a138.59,138.59,0,0,0-9.6-14.4c-3.7-4.7-8.2-8.8-12.5-12.9H689c-1.1-1.1-2.3-2.2-3.4-3.2a4.6,4.6,0,0,0-3.3-1.3,5.08,5.08,0,0,0-5.2,4.2c-.6,3.8-1,7.6-1.3,10.9s-4,6.8-6.9,6.8a2.77,2.77,0,0,1-1.3-.3,30.92,30.92,0,0,1-6.3-4.4c-2.4-2.1-7.6-3.5-12.8-3.5a16,16,0,0,0-6.9,1.3l-.3.2c-4.5,2.5-8.8,4.8-11.6,9.6-2.4,4.2-3.6,8.8-4.7,13.1-.9,3.7,0,7.5.9,11.2.2.9.5,1.9.7,2.8a7.57,7.57,0,0,1,.1,1.5,4.57,4.57,0,0,0,.2,2c2.9,5.9,6.4,12.9,10.1,20a15.38,15.38,0,0,1-2,16.9,5.54,5.54,0,0,0-1,2.2v.1l.6.5a18.63,18.63,0,0,0,5.2,3.6,28.47,28.47,0,0,0,3.9,1.1,16.2,16.2,0,0,1,4.3,1.2,174.57,174.57,0,0,1,18.1,9.7c4.6,2.9,9.1,6.2,13.5,9.3l.6.4c1.2.9,2.4,1.8,3.6,2.6,4.5,3.2,9.7,7,14.8,10.9l1,.8c5.7,4.4,11.7,9,17.4,13.8,6.1,5.1,12.6,10.7,18.5,16.6,4.1,4,8,8.3,11.9,12.4,2.9,3.2,6.2,6.7,9.5,10a152.54,152.54,0,0,1,17.3,21.2c1.9,2.8,3.9,5.6,5.8,8.3l.1.2c1.6,2.3,3.3,4.6,4.9,7a45.9,45.9,0,0,1,3.5,6.1c2,4.1,4.4,8.9,6.7,13.9,1.7,3.7,3.3,7.5,4.9,11.2l.1.3c.7,1.6,1.4,3.3,2.1,4.9l.2.4.1.2.1.2c0-.1.1-.1.1-.2v-.1c.1-.2.1-.4.2-.6.4-1.5.7-3.1,1.1-4.6v-.1c.8-3.3,1.6-6.8,2.5-10.1.1-.3.1-.5.2-.8l.1-.4a25.87,25.87,0,0,1,2.3-6.6l.8-1.5c4.1-7.4,8.3-15,13-22.1a214.93,214.93,0,0,1,14-18c5.5-6.4,11.4-13,18.2-20.2a55.72,55.72,0,0,1,5.1-4.6,44.87,44.87,0,0,0,4.6-4.1c6.8-6.8,15.2-14.6,24.9-21,3-2,6.2-4.1,8.7-5.8l.2-.1c3.5-2.4,7.1-4.8,10.8-7.1,7.1-4.5,14.5-9.2,22.8-12a139.57,139.57,0,0,0,13.8-5.9l.2-.1c2.1-1,4.3-2,6.4-3a9.48,9.48,0,0,0,6-9.4c-.3-5.8,0-11.9,3.9-17.3,1-1.4,2-2.9,2.9-4.3a72.18,72.18,0,0,1,5.6-7.7,72.89,72.89,0,0,0,10.5-15.3c.3-.6.6-1.1.9-1.7,1.5-2.8,3-5.7,3.4-8.6,1.2-8.2,1.9-16.3-2.9-24.3-4.7-7.7-10.6-11.4-18.6-11.9-1,0-2-.1-2.9-.1a47,47,0,0,0-12.4,1.7A74,74,0,0,0,938,321a10.3,10.3,0,0,1-4.3,1.4c-1.9,0-2.6-1.6-2.6-6v-.3c0-4.7,0-9.6,1.9-14.2a9,9,0,0,0,.4-2.8V299c.7-.4.7-.8.9-1.3Z" transform="translate(-528.75 311.1)"/><path class="cls-2" d="M1231.7,646.4a5.08,5.08,0,0,0-1.7.3c-1.2.4-2.4.7-3.6,1.1-2.6.8-5.3,1.7-8,2.3a50.47,50.47,0,0,1-11.7,1h-1.6a56,56,0,0,0-10.8.7,65.18,65.18,0,0,1-12.5.9h-6.3c-2.3,0-4,0-5.6.1a94.26,94.26,0,0,0-11.7,1.7c-3,.6-6,1.3-8.9,2.1-1.9.5-3.8.9-5.6,1.4-1.2.3-2.5.5-3.8.8l-.3.1c-2.3.4-4.5.9-6.8,1.5-3.5,1.1-7.1,2.3-10.2,3.4l-.2.1c-1.9.7-4,1.4-6,2-2.6.9-5.2,1.7-7.8,2.5l-.2.1c-4,1.3-8.1,2.6-12.1,4-1.7.6-3.4,1.4-5.1,2.1a39.14,39.14,0,0,1-8.1,2.9c-4.9,1-8.7,4.1-11.5,9-3.4,6.2-5.9,12.8-8.6,20.2-1.8,5-3.3,10.2-4.6,15.2l-.3.9c-.2.8-.5,1.7-.7,2.5-1.5,5.3-2.7,9.8-3.6,14.2a112.41,112.41,0,0,0-2,11.6c-.2,2.1-.3,4.2-.4,6.3v.3a80.78,80.78,0,0,1-1.4,12.9,39.72,39.72,0,0,0-.7,8.4,42.64,42.64,0,0,1-.2,5c-.2,2.1-.2,4.3-.3,6.4v.2a65.92,65.92,0,0,1-.7,9.9c-.5,4-.8,8.1-.9,12.1v.1A113.34,113.34,0,0,1,1046,827a57,57,0,0,0-.6,5.8v.1a40.11,40.11,0,0,1-1.4,9,41.32,41.32,0,0,0-1.4,7c-.2,1.4-.4,2.8-.7,4.2l-.3,1.3a66.25,66.25,0,0,1-2.1,8.8c-.4,1.1-.7,2.1-1.1,3.2l-.3.9a135.27,135.27,0,0,1-6.6,17.4,132.68,132.68,0,0,1-12.7,21.8,205,205,0,0,1-13.8,15.6c-2.2,2.3-4.2,4.4-6.1,6.6l-.2.3a8.64,8.64,0,0,1-1.4,1.3l-1.4,1c-3.8,2.8-8.2,5.9-12.4,8.9-3,2.1-3.3,5.3-3.5,8.4-.1,1.1-.2,2.3-.4,3.4a60.13,60.13,0,0,0-1,8.4,57.61,57.61,0,0,1-1.1,9.3,37.88,37.88,0,0,0-.7,8.2c0,1.5,0,3.1-.1,4.5a10.8,10.8,0,0,1-1,3.5,4.68,4.68,0,0,0,.3,4,3.26,3.26,0,0,0,2.3,1.8l1.2.2.7.1a69.93,69.93,0,0,0,8,1l3.7.2h.2c5.8.3,11.8.5,17.6.5h4.4c2.1-.1,4.2-.1,6.7-.1,3.5,0,7.2,0,10.2.1h.5c3.3,0,6.8.1,10.2.1a162.09,162.09,0,0,0,26.8-1.8l5.8-.9c5.6-.9,11.3-1.8,17-3,3.7-.8,7.4-1.8,10.9-2.8l.5-.1c1.3-.4,2.6-.7,3.9-1.1a114.38,114.38,0,0,0,22.6-8.6l1.9-1,.2-.1c5.8-3,11.8-6,17.4-9.4a108.29,108.29,0,0,0,13.6-9.7l1.9-1.5a223.56,223.56,0,0,0,18-15.8c4.5-4.5,9.1-9,13.5-13.4,14.1-13.8,28.7-28,40.5-44.4,1-1.4,2.1-2.7,3.1-4.1l.1-.1c1.5-1.9,3-3.8,4.3-5.8,3.9-5.8,8-12.3,13-20.4l.4-.7a80.13,80.13,0,0,0,5.5-9.9c2.5-6,4.5-12,6.6-18.1l.8-2.5c2.2-6.6,4.5-13.4,6.3-20.3,1.3-4.9,2.2-10.1,3.1-15l.1-.6c.3-1.5.5-3,.8-4.5l1.2-6.9v-.2l.1-.6c.2-1.4.5-2.8.7-4.2s.5-2.9.8-4.3v-.2c.4-2.1.8-4.3,1.1-6.5s.6-4.6.9-6.5c.3-2.6.7-5.5,1.2-8.4v-.2c.1-.7.2-1.2,0-1.4s-.6-.3-1.4-.3c-6.8,0-11.7-4.9-11.7-11.8a21,21,0,0,0-.7-5.6c-.6-2.3-3.4-4-5.6-4a3.08,3.08,0,0,0-1.9.6c-1.5,1.3-3,2.7-4.4,4.1-3,2.8-5.9,5.6-9.1,8.1-6.5,5.1-13.1,7.5-20.2,7.5a14.77,14.77,0,0,1-2.1-.1,8.5,8.5,0,0,1-7.2-5c-1-2.1-1-6,.4-8a115.09,115.09,0,0,0,11.1-19.3c.2-.6.5-1.3.7-1.9.5-1.4,1.1-2.9,1.6-4.3a81.78,81.78,0,0,0,4.3-28.6v-1.4c-.1-3.9-.2-8-1.9-11.9a14,14,0,0,1-1-3.5,20.14,20.14,0,0,0-1-3.5c-1.1-2.3-2.6-3.4-4.5-3.5Z" transform="translate(-528.75 311.1)"/><path class="cls-3" d="M826.7,699.8c-3,.1-6.1.3-9.1.6h-.1c-2.2.2-4.4.5-6.7.6a59.13,59.13,0,0,0-13.6,1.8,50.57,50.57,0,0,1-9.6,1.5l-5.6.6c-1.2.2-2.4.3-3.6.5a49.13,49.13,0,0,0-10.9,2.3c-1.4.6-2.9,1.1-4.3,1.6l-.2.1c-4.9,1.8-10,3.7-14.5,6.9a49.28,49.28,0,0,0-14,15.1,12.56,12.56,0,0,0-1.9,5.1c-.4,5.2-.5,10.7-.4,17.3,0,.3.1.6.1.9v.1a7.79,7.79,0,0,0,.4,2.1l.8,1.9c1.3,3.1,2.7,6.3,4.3,9.4,3,5.6,6.3,11,9.6,16.6,1.1,1.8,2.3,3.6,3.4,5.3,1.5,2.3,3.2,4.8,4.6,7.4a136.79,136.79,0,0,1,6.7,13.9l.3.8c1.4,3.4,2.9,6.9,3.2,10.4,1,11.7-1.3,20.5-7.4,27.6a46.33,46.33,0,0,1-19.8,13.7c-4.9,1.8-10.6,3.6-16.6,3.6h-1.5c-1.8-.1-3.6-.1-5.1-.1h-3.9a62.47,62.47,0,0,1-11.4-.8c-2.1-.4-4.3-.7-6.3-1a78.35,78.35,0,0,1-14.2-3.1,40.37,40.37,0,0,1-12.4-7.1c-3.1-2.7-6.4-5.3-10-8.1a6.71,6.71,0,0,0-4-1.4,5.86,5.86,0,0,0-5.2,3.3,49.08,49.08,0,0,0-3,9.4v.1l-.1.5-.2,1a60.25,60.25,0,0,0-1.2,10.3c-.1,1.9-.2,4.1-.5,6.2-.9,7.3-.7,14.8-.5,22,.1,2.6.1,5.2.2,7.6,0,2.2,2.3,4.3,3.9,4.3a.9.9,0,0,0,.5-.1l1.7-.7c2.5-1,5.1-2,7.7-2.8l1.8-.6.4-.1a62.5,62.5,0,0,1,10.3-2.7,34.35,34.35,0,0,1,5.6-.4c2.3,0,4.8.2,6.8.3A6.53,6.53,0,0,1,686,906a6.15,6.15,0,0,1,1.4,4.7c-.5,3.1-1.1,6.3-1.9,9.3l-.1.5a28.17,28.17,0,0,0-.7,3.1c-.3,1.4-.7,2.7-1.1,4.1v.1a34.16,34.16,0,0,0-1.7,8.9c0,1.7-.1,3.5-.2,5.2v.1c-.3,4.8-.6,9.8,1.2,14.7a31.89,31.89,0,0,1,1.2,6,47.14,47.14,0,0,0,.9,5.2c1.1,3.9,2.6,7.8,4,11.5.5,1.2.9,2.4,1.4,3.6.4.9.8,1.8,1.2,2.6l.1.1a5.36,5.36,0,0,1,.5,1.1l1-1,.2-.2c.6-.7,1.2-1.3,1.8-2A75.79,75.79,0,0,1,719,966.2c3.8-1.7,7.2-3.2,10.6-4.4a1.7,1.7,0,0,1,.7-.1c.9,0,2.1.3,2.2.7a46.74,46.74,0,0,1,1.3,6.5v.1l.2,1a46.61,46.61,0,0,1,.6,4.9,68.7,68.7,0,0,0,1.7,10.1,169,169,0,0,0,6.2,18.6c2.3,5.8,4.9,11.6,8.1,17.9a107.19,107.19,0,0,0,5.4,9.3l2.4,3.9c.9,1.5,1.8,2.2,2.7,2.2.7,0,1.3-.5,1.9-1.4,2.2-3.5,4.5-7.1,6.7-10.6.6-.9,1.1-1.7,1.7-2.6.7-1.1,1.7-2.5,2.5-3.9,1.3-2.1,2.6-4.3,3.8-6.4l.3-.5,3-5.1,2.1-3.3.1-.2v-.1c1.3-2,2.6-4,3.7-6.1a10.08,10.08,0,0,1,8.4-5.4,5.92,5.92,0,0,1,2.9.7l1.5.9a57.06,57.06,0,0,1,7.7,5.1,106.81,106.81,0,0,1,19.4,20.9c3.7,5.2,6.4,11,9.1,16.6.9,1.9,1.7,3.7,2.6,5.4a5.25,5.25,0,0,0,4.6,2.9,4.2,4.2,0,0,0,2.4-.7,18.32,18.32,0,0,0,7.4-8.6c1-2.5,2.2-5.1,3.4-7.5a77.75,77.75,0,0,0,3.6-8.2,53,53,0,0,0,3.4-12.3,167.51,167.51,0,0,0,.7-21.2c-.2-6.9,2.5-11.3,8.4-14a18.33,18.33,0,0,1,7.7-1.6,21,21,0,0,1,9.8,2.5,41.62,41.62,0,0,1,8.2,6.3c.8.7,1.5,1.4,2.3,2.1a4,4,0,0,0,2.6,1.3c1,0,1.7-.8,2.2-2.5.3-1,.7-2.1,1-3.1v-.1a52.56,52.56,0,0,0,2.1-7.5,123.55,123.55,0,0,0,1.9-16.2,30.51,30.51,0,0,0-.7-6.7c-.2-.9-.3-1.9-.5-2.9-.2-1.4-.4-2.8-.5-4.2v-.2a67.19,67.19,0,0,0-1.6-10,80,80,0,0,0-9.1-21,8.5,8.5,0,0,1-.3-6.2,6.71,6.71,0,0,1,2.7-4.3,17.08,17.08,0,0,1,8.8-2.1,41.82,41.82,0,0,1,6.1.5c1.4.2,2.8.3,4.2.4a12.31,12.31,0,0,0,6.5-1.6c4-2.3,6-6,6.1-11.2.1-8.9-.1-18.3-3.2-27.7-2.2-6.6-4.7-13.5-8.8-19.5a90.74,90.74,0,0,0-8.6-10l-1.6-1.7a3.7,3.7,0,0,0-2.4-1.2,4.7,4.7,0,0,0-3.1,1.6A54.14,54.14,0,0,1,898,830c-2.9,2.2-5.9,4.4-8.5,6.3l-.3.2c-2,1.5-4.1,3-6.1,4.5a8,8,0,0,0-1.3,1.3,6.73,6.73,0,0,1-1.5,1.4l-3,2-.3.2c-4.5,3.1-9.2,6.2-14,9.1a74,74,0,0,1-13.3,6.4,48.84,48.84,0,0,1-12.1,2.1,54.66,54.66,0,0,1-6,.3,25.05,25.05,0,0,1-5.5-.6,32.52,32.52,0,0,1-7.9-3.4c-1-.5-2.2-1.1-3.3-1.7-7.9-3.7-12.6-10.4-13.8-19.9-.7-5.5,0-11.6,2.3-18.6a145.16,145.16,0,0,1,21.7-41.2c5.2-6.9,10.9-13.1,15.2-17.8,3.2-3.5,6.6-6.8,9.9-10.1l.1-.1c1.7-1.7,3.5-3.5,5.3-5.2,1.1-1.2,2.3-2.3,3.5-3.4,4.2-4.1,8.5-8.3,11.4-13.6a31.66,31.66,0,0,0,2.8-8,4,4,0,0,0-.5-2.2,6.36,6.36,0,0,1-.6-1.8c-.4-3.3-2.3-5.7-5.9-7.5a95.24,95.24,0,0,0-14.3-5.4l-.9-.3-1.3-.4a63.8,63.8,0,0,0-14.1-2.3c-1.5-.1-3.2-.3-4.9-.5-1.6.1-2.9,0-4.1,0Z" transform="translate(-528.75 311.1)"/><path class="cls-3" d="M632.6,409.1a12.1,12.1,0,0,0-1.9.1,13.65,13.65,0,0,0-9.9,5.4,43.91,43.91,0,0,0-3.4,5,53.61,53.61,0,0,1-3.4,4.9c-4.7,5.8-8.8,10.6-13.2,15.1-4.7,4.8-9.8,9.4-14.8,13.8l-2.2,1.9c-4.8,4.3-9.1,8-13.3,11.3-6.1,4.9-11.5,9-16.6,12.7l-1.2.9c-3.7,2.7-7.5,5.5-11.7,7.3-1.4.6-2,1-2,1.4s.4.6,1,.9h.1a3.51,3.51,0,0,1,.8.5l.5.3c3.5,2.4,7.2,4.8,10.7,7.4l2.4,1.8c4.7,3.4,9.5,7,14,10.7,5.7,4.8,12.4,10.5,18.6,16.6,9.9,9.8,19.9,19.8,29.6,29.5l.5.5c9.7,9.7,19.8,19.8,29.8,29.7,3,2.9,6.2,5.7,9.3,8.4,2.6,2.3,5.5,4.8,8.2,7.3a148.18,148.18,0,0,0,19.6,15.7c2.6,1.7,5.2,3.7,7.6,5.4,2.6,1.9,5.2,3.8,7.8,5.6,5.1,3.4,10.2,6.4,15.9,9.7a76.15,76.15,0,0,0,8.1,4c2.4,1,4.9,2,7.4,2.9l3.9,1.5c1.3.5,2.7,1.1,4,1.6,2.7,1.1,5.5,2.3,8.4,3.2a58.84,58.84,0,0,0,8.1,1.8c1.5.3,2.8.5,4.2.8s3.1.8,4.5,1.2h.1a34.68,34.68,0,0,0,9.5,1.8h1.3c2.7,0,5.6.1,7.9.2,2.6.1,5.3.2,7.9.2a46.5,46.5,0,0,0,12.9-1.5,53.73,53.73,0,0,1,8-1.5h.1c2.1-.3,4.2-.7,6.3-1.1,1.1-.3,2.2-.7,3.4-1l.3-.1c2.4-.7,4.9-1.4,7.4-2.2,1.1-.4,2.3-.7,3.5-1.1a77.32,77.32,0,0,0,10.5-3.8c7.2-3.4,14.2-7.1,20.9-11.1,6.3-3.7,12.3-8,17.9-12,4.9-3.5,10.2-7.5,16.6-12.7,4-3.2,8-6.6,13.3-11.3,2.9-2.5,5.7-5.2,8.4-7.8l.1-.1,2.6-2.5,8.4-8c5.5-5.3,11.8-11.3,17.9-16.9,2.8-2.6,5.8-5.1,8.6-7.5,1.5-1.3,3.1-2.6,4.6-3.9,1.8-1.6,3.6-3.1,5.4-4.7,2.9-2.6,6-5.2,9-7.8s6-4.8,8.9-6.9c6.3-4.5,12.9-9.3,19.7-13.8,2.7-1.8,5.6-3.6,8.3-5.3l.2-.1c2.4-1.5,5-3.1,7.4-4.7,6.4-4.2,12.8-8.7,19.1-12.9l.7-.5.6-.4a17.41,17.41,0,0,0,1.4-1.2,7.83,7.83,0,0,1,2-1.6,5.09,5.09,0,0,0,3.1-3.7c.2-1.5-.5-2.7-1.9-3.9a6.38,6.38,0,0,0-1.4-.8l-1.2-.6c-1.9-1.3-3.8-2.6-5.7-3.8-5.6-3.7-11.9-7.9-18-12.1-5.6-3.9-11.1-8.1-15.7-11.8s-8.5-6.9-12.1-10.2c-4-3.7-8-7.5-11.9-11.3l-.3.1-2.3-2.2c-1.1-1-2.1-2.1-3.1-3.1v-.1c-1.8-1.8-3.6-3.7-5.5-5.3a10.35,10.35,0,0,0-5.5-2.3h-.8c-3.7,0-7.2,1.5-10.5,2.9h-.1a33.35,33.35,0,0,1-4,1.6,56.82,56.82,0,0,0-7.9,3.7c-1.3.7-2.7,1.4-4,2-1.8.9-3.7,1.7-5.5,2.5l-.2.1c-3.8,1.7-7.7,3.5-11.4,5.6-6.1,3.5-12,7.4-17.8,11.5l-1.3.9c-6.7,4.8-13.7,9.7-20.1,15a231.73,231.73,0,0,0-18.2,17.5c-4.6,4.7-9,9.7-13.3,14.5-1.7,2-3.5,3.9-5.2,5.9-.3.3-.6.7-.9,1l-.2.2a23.71,23.71,0,0,0-3.2,3.9c-4,5.8-7.2,10.7-10.2,15.3-2.8,4.5-5.5,9.1-8,13.7l-.1.2-.2.3c-2.7,4.7-5,9-7.1,13-1.8,3.5-3.3,6.6-4.6,9.5s-2.3,5.7-3.4,8.6l-.1.2c-.5,1.2-.9,2.3-1.4,3.5-.2.4-.3.9-.5,1.3l-.2.6a2.65,2.65,0,0,0-.5-.6,9.06,9.06,0,0,1-1.1-1.6c-1.3-2.6-2.7-5.3-3.8-7.7l-2.1-4.2c-.7-1.4-1.6-3.3-2.6-5.1-.8-1.4-1.5-2.9-2.3-4.3l-.1-.1c-1.9-3.6-3.9-7.4-6-11-1.7-2.8-3.6-5.5-5.4-8.1-1.1-1.6-2.1-3-3.1-4.4-1.7-2.6-3.4-5.1-5.1-7.7l-.1-.2c-3-4.6-6.2-9.3-9.3-13.8-2.4-3.3-4.9-6.5-7.6-9.6l-2.7-3.2c-4-4.7-8.2-9.5-12.6-14-5-5.1-10.5-10-15.7-14.7l-2.4-2.1c-5.1-4.6-9.6-8.5-14-12-4.9-4-10.3-8.1-17.1-13.2l-2.1-1.6-.4-.3c-4.4-3.3-8.9-6.7-13.6-9.6s-9.8-5.7-14.6-8.3l-6.8-3.7c-5.6-2.8-12.1-5.8-19.5-5.8ZM806.3,615c-4.3,0-6.8-2.7-8.9-5.5-1.2-1.6-2.6-3.3-3.9-4.8v-.1l-.1-.1a66.52,66.52,0,0,1-4.6-5.9,38.14,38.14,0,0,1-5-9.6c-1.3-4.4,2.6-7.9,6.3-9.5a17.75,17.75,0,0,1,7.5-1.3c1.4,0,2.8.1,4,.2h.2c1.2.1,2.5.1,3.8.1h.5a64.92,64.92,0,0,1,12.4,1.7l1.2.2a4.05,4.05,0,0,1,2.3,3v.6l.1.7c.3,3.3.6,6.8-.1,10-2.1,9.9-6.2,16.3-12.9,20.1a.37.37,0,0,1-.3.1h-.9c-.6,0-1.1.1-1.6.1Z" transform="translate(-528.75 311.1)"/><path class="cls-3" d="M1220.2,522.7a6.21,6.21,0,0,0-3.9,1.4c-3.1,2.3-6,4.8-8.9,7.3l-.1.1-2.7,2.3-1.6,1.3c-3.6,3.1-7.8,6.6-11.7,10-5.9,5.2-12,10.6-18.6,16.6l-1.2,1.1c-3.2,2.9-6.6,5.9-9.6,9.1-4.2,4.4-8.6,8.7-12.9,12.9l-.1.1c-9.4,9.2-19.1,18.7-27.4,29.3-2.4,3.1-5,6.2-7.4,9.3v.1l-.2.2c-2.7,3.4-5.6,6.9-8.3,10.4-3.7,4.8-7.1,9.8-9.7,13.6-3.7,5.4-7.5,11.4-12.2,18.8-1.6,2.5-2.2,4.1-1.9,4.6a2,2,0,0,0,1.2.8,2.75,2.75,0,0,0,1.6-1,3.07,3.07,0,0,1,1.5-1h.6l6.3-2.5,4.6-1.8,2.8-1.1.1-.1c3-1.2,6.1-2.4,9.1-3.6l1.5-.6c2.7-1,5.7-2.2,8.7-3.1,1.6-.5,3.2-.9,4.9-1.4,2-.5,4-1.1,6-1.7.2-.1.3-.2.5-.3l.1-.1a3.1,3.1,0,0,1,1.3-.6l2.3-.3a18.81,18.81,0,0,0,3.3-.5c2.7-.7,5.5-1.5,8-2.2,3.4-1,6.9-2,10.5-2.9a90.71,90.71,0,0,1,11.6-2l3-.3c6.5-.7,13.3-1.4,20-1.6,1,0,2.1-.1,3.1-.1,1.4-.1,2.9-.1,4.3-.1a24.09,24.09,0,0,1,8.4,1.2,3.89,3.89,0,0,0,1.5.2,19.68,19.68,0,0,0,3.5-.6,12.09,12.09,0,0,1,3.8-.6h1c5.1,0,8.9-2.8,12.6-6a7.44,7.44,0,0,1,4.6-2c2,0,3.7,1.2,5.2,3.6,4.6,7.7,6.4,16.3,7.5,23.6,1,6.4.5,13.5-1.5,22.4l-.3,1.5-.2.7a122.34,122.34,0,0,1-3.1,11.9c-1.2,3.7-2.8,7.3-4.3,10.8v.1c-.5,1.1-1,2.2-1.5,3.4l-.5,1.3-.1.2c-1.7,4.1-3.5,8.3-5.5,12.3-.5.9-.6,1.5-.4,1.8s.5.4,1.1.4h.6c6.3-.6,11.4-2.3,15.1-5.1a105.09,105.09,0,0,0,11.3-10.8h0c1.2-1.3,2.5-2.6,3.7-3.9a13,13,0,0,0,1.8-2.3,11.77,11.77,0,0,1,2.8-3.1,4,4,0,0,1,2.4-.7,7.08,7.08,0,0,1,6.3,4.4c1.9,5,3.7,10.1,5.4,15.1l.9,2.5c.5,1.4,2.7,3.4,3.9,3.4a.76.76,0,0,0,.5-.2,12.67,12.67,0,0,1,1.1-1.3c1.6-1.9,3.2-3.8,3.5-5.9a102,102,0,0,0,.8-15.6v-2.1c.1-8.7.1-17.4,0-25.9V664.9c0-.8-.1-1.6-.1-2.4V662c-.1-2.5-.3-5.1-.5-7.7-.2-2.4-.6-4.9-.9-7.2-.1-.9-.3-1.8-.4-2.7-.3-2.6-.7-5.2-1.1-7.8l-.1-.8-1-7.1a5.7,5.7,0,0,1-.1-1.3v-.1a11.71,11.71,0,0,0-.4-2.6c-.6-2.3-1.2-4.7-1.9-7l-.1-.3c-.7-2.4-1.3-4.7-1.9-7a7.57,7.57,0,0,1-.1-1.5,4.14,4.14,0,0,0-.2-1.6c-.6-1.8-1.3-3.6-1.9-5.3-.4-1-.7-1.9-1.1-2.9-.5-1.5-1-3-1.5-4.3a69.44,69.44,0,0,0-3.4-9c-1.5-3.1-3.3-6.1-5-9.1-2-3.4-4-6.8-5.7-10.4-3.1-6.7-7.8-13.2-14.3-19.8-5.9-6.1-12.4-11.7-18.6-17.2l-3.6-3.1c-2.5-2.2-4.8-3.3-7-3.3Z" transform="translate(-528.75 311.1)"/><path class="cls-4" d="M978.6,272.8c-3.5,0-6.6,1.5-9.6,2.9-1.3.6-2.7,1.2-4,1.8a104.46,104.46,0,0,0-13.9,6.7l-1.8.9h-.1c-3.2,1.6-6.6,3.3-7.1,7.4a53.13,53.13,0,0,0-.2,12.6c.1,1.2,2.4,3.3,3.5,3.3h.1c4.2-.5,8.5-.8,12.8-.9a44.48,44.48,0,0,1,13.1,1.7c6.2,1.8,11,5.5,15.7,9l.6.5c3.8,2.9,3.7,7.6,3.7,12.2v.3a8.87,8.87,0,0,0,.7,2.8,10.37,10.37,0,0,0,.4,1h.2c.1,0,.7,0,.7-.1.1-.5.3-1,.4-1.4a10.06,10.06,0,0,0,.8-3.9,35.49,35.49,0,0,0-.6-4.7,30.62,30.62,0,0,1-.5-3.2c-.4-3.9-.9-7.8-1.3-12.2l-.1-1.4c-.2-1.7-.4-3.5-.5-5.2,0-.4-.1-.8-.1-1.2a27,27,0,0,0-.6-4.1c-.3-1.6-.7-3.2-1.2-5a64,64,0,0,1-1.9-9.7,11.47,11.47,0,0,0-6-9.7,12.72,12.72,0,0,0-3.2-.4Z" transform="translate(-528.75 311.1)"/><path class="cls-4" d="M631.5,278.2c-3.5,0-7.5,1.9-8.4,5.1a48.17,48.17,0,0,0-1.9,10.6c-.2,8.8-.1,17.8-.1,25.8v8.8a2.35,2.35,0,0,0,.2.8c0,.1.1.3.1.4l.3-.3a1.7,1.7,0,0,0,.6-.6c.6-4.1,3.2-6.8,5.8-9.7l.4-.4a26.9,26.9,0,0,1,19.3-9.2c.9,0,1.8-.1,2.6-.1a34.85,34.85,0,0,1,12.8,2.2,3.19,3.19,0,0,0,1.4.3,4.31,4.31,0,0,0,2.2-.9l.2-.2c1.9-1.2,2.3-3.2,2.8-5a10.94,10.94,0,0,1,1.4-3.8,9.34,9.34,0,0,0,1.9-3.7c.7-3.1-1.2-4.5-3.3-6l-.1-.1c-.5-.4-1-.7-1.5-1.1l-3-1-.3-.1c-2.4-.8-4.9-1.5-7.3-2.4-3-1.1-6.1-2.3-9-3.4-1.4-.6-2.8-1.1-4.3-1.6-.9-.4-1.9-.7-2.8-1l-.4-.1c-2.1-.8-4.4-1.6-6.7-2.6a5.2,5.2,0,0,0-2.9-.7Z" transform="translate(-528.75 311.1)"/><path class="cls-4" d="M803.7,587.4c-2,0-3.9,0-5.9.1h-3.7c-.1,0-.3.2-.5.6s-.5,1.1-.3,1.3l.2.3c3.2,4.8,6.4,9.8,10,14.4a5.27,5.27,0,0,0,3.5,1.4,1.2,1.2,0,0,0,.8-.2c2.7-2.1,5.5-4.8,5.7-9.4l.8-1.8.8-1.8c.7-1.6,1.1-2.8.7-3.6-.3-.6-1.2-.9-2.8-1.1-2.7-.1-5.7-.2-9.3-.2Z" transform="translate(-528.75 311.1)"/><path class="cls-5" d="M889.92,474.45c-18.73,8.77-28,33.54-19.68,52.46A40.09,40.09,0,0,0,914,550.21a39.94,39.94,0,0,0,11.58-4c18.31-9.63,26.44-34.79,17.24-53.32-6.75-13.59-22-21.9-37-21.9a37.32,37.32,0,0,0-15.88,3.44Zm8,52.8a19.23,19.23,0,0,1-8.34-8.65c-2.43-5.08-2.08-11.46.94-17.06s8.14-9.39,13.72-10.15a17.09,17.09,0,0,1,2.18-.15,19.74,19.74,0,0,1,14.76,7.36,18.61,18.61,0,0,1,4.49,15,16,16,0,0,1-1.28,4,19.65,19.65,0,0,1-8.09,8.63,20.9,20.9,0,0,1-10.45,2.9,16.71,16.71,0,0,1-7.93-1.91Z" transform="translate(-528.75 311.1)"/><path class="cls-5" d="M659.88,478.38C645,487.5,637.29,507,642,523.83s21.26,29.61,38.74,29.78c16.69.16,32.9-11.1,38.57-26.8s.42-34.72-12.52-45.27a41,41,0,0,0-25.85-8.9,40.32,40.32,0,0,0-21,5.74Zm2.77,48.34a19.68,19.68,0,0,1-4.45-16.26c1.81-8.8,10.75-15.69,20.36-15.69a17.67,17.67,0,0,1,7.08,1.43A20.84,20.84,0,0,1,693.93,526a20,20,0,0,1-16.2,8.38,19.69,19.69,0,0,1-15.08-7.65Z" transform="translate(-528.75 311.1)"/><path class="cls-6" d="M678.56,494.77c-9.61,0-18.55,6.89-20.36,15.69a20.84,20.84,0,0,0,19.53,23.91,19.92,19.92,0,0,0,16.2-8.38,20.84,20.84,0,0,0-8.29-29.79,17.67,17.67,0,0,0-7.08-1.43Z" transform="translate(-528.75 311.1)"/><path class="cls-6" d="M906.41,491.25a17.11,17.11,0,0,0-2.18.14c-5.58.76-10.71,4.56-13.72,10.15s-3.37,12-.94,17.06a19.21,19.21,0,0,0,8.33,8.65,16.78,16.78,0,0,0,7.94,1.91c9.41,0,18.3-6.95,19.81-15.5a18.58,18.58,0,0,0-4.48-15.06,19.75,19.75,0,0,0-14.76-7.35Z" transform="translate(-528.75 311.1)"/></svg>