<svg id="Draw_Layer" data-name="Draw Layer" xmlns="http://www.w3.org/2000/svg" viewBox="0 0 370.4 99.96"><defs><style>.cls-1{fill:#2c2c2c;}</style></defs><title>Basic_Eyes</title><path class="cls-1" d="M1552.93,494.53a48.52,48.52,0,0,1-67-23.38c-10.09-22.91,1.16-52.88,23.83-63.5s52.89-.07,64,22.35,1.29,52.88-20.86,64.53Zm-43.58-33.46a23.36,23.36,0,0,0,10.08,10.47c12.82,6.76,31-2.16,33.54-16.44s-11.53-28.88-25.9-26.92-24,19.82-17.72,32.89Zm-252.82,42.39c-21.15-.21-41.25-15.66-46.89-36s3.67-44,21.71-55c17.23-10.55,41.05-8.94,56.71,3.83s22,35.78,15.16,54.79-26.49,32.62-46.69,32.43Zm-3.47-23.32A24,24,0,0,0,1272.54,470c8.26-11.63,3-30.33-10-36s-30.31,3.26-33.17,17.24,9.45,29,23.72,28.89Z" transform="translate(-1208 -403.5)"/></svg>