<svg id="Draw_Layer" data-name="Draw Layer" xmlns="http://www.w3.org/2000/svg" viewBox="0 0 306.05 82.59"><defs><style>.cls-1{fill:#161616;}.cls-2{fill:#fefefe;}</style></defs><title>Basic_Eyes</title><path class="cls-1" d="M1507.74,482.05c-18.73,8.77-28,33.54-19.68,52.46a40.09,40.09,0,0,0,43.77,23.3,39.94,39.94,0,0,0,11.58-4c18.31-9.63,26.44-34.79,17.24-53.32-6.75-13.59-22-21.9-37-21.9a37.32,37.32,0,0,0-15.88,3.44Zm8,52.8a19.21,19.21,0,0,1-8.33-8.65c-2.44-5.08-2.08-11.46.94-17.06s8.14-9.39,13.72-10.15a17.08,17.08,0,0,1,2.17-.14A19.79,19.79,0,0,1,1539,506.2a18.58,18.58,0,0,1,4.48,15.06,15.58,15.58,0,0,1-1.27,4,19.65,19.65,0,0,1-8.09,8.63,20.79,20.79,0,0,1-10.45,2.9,16.78,16.78,0,0,1-7.94-1.91Z" transform="translate(-1258.41 -478.61)"/><path class="cls-1" d="M1277.7,486c-14.91,9.12-22.59,28.61-17.93,45.45S1281,561,1298.51,561.21c16.69.16,32.9-11.1,38.57-26.8s.42-34.72-12.52-45.27a41,41,0,0,0-25.85-8.9,40.32,40.32,0,0,0-21,5.74Zm2.77,48.34a19.65,19.65,0,0,1-4.45-16.26c1.81-8.8,10.75-15.69,20.36-15.69a17.46,17.46,0,0,1,7.07,1.44,20.82,20.82,0,0,1,8.3,29.78,19.92,19.92,0,0,1-16.2,8.38,19.69,19.69,0,0,1-15.08-7.65Z" transform="translate(-1258.41 -478.61)"/><path class="cls-2" d="M1296.38,502.37c-9.61,0-18.56,6.89-20.36,15.69A20.84,20.84,0,0,0,1295.55,542a19.92,19.92,0,0,0,16.2-8.38,20.83,20.83,0,0,0-8.3-29.79,17.59,17.59,0,0,0-7.07-1.43Z" transform="translate(-1258.41 -478.61)"/><path class="cls-2" d="M1524.22,498.85a17.08,17.08,0,0,0-2.17.14c-5.58.76-10.71,4.56-13.72,10.15s-3.37,12-.94,17.06a19.21,19.21,0,0,0,8.33,8.65,16.78,16.78,0,0,0,7.94,1.91c9.41,0,18.3-7,19.81-15.5A18.58,18.58,0,0,0,1539,506.2a19.79,19.79,0,0,0-14.77-7.35Z" transform="translate(-1258.41 -478.61)"/></svg>