<svg id="Draw_Layer" data-name="Draw Layer" xmlns="http://www.w3.org/2000/svg" viewBox="0 0 756.43 1000"><defs><style>.cls-1{fill:#2c2c2c;}.cls-2{fill:#bebebe;}.cls-3{fill:#6edaf4;}.cls-4{fill:#725af7;}.cls-5{fill:#161616;}.cls-6{fill:#fefefe;}</style></defs><title>Basic_Squirrel</title><path class="cls-1" d="M59.24,45.37C62,68.62,76.71,88.92,81,111.94c8.87,47.13-26.58,90.78-33.75,138.2-5.9,39,9,80.45,38.32,106.77C45.78,385.12,28.27,435.69,22,484.09s-3.75,98-14.75,145.52c-24.18,104.55,16.22,212,55.92,311.73,5.94,14.91,12.09,30.17,22.93,42s27.53,19.66,43,15.56c20.69-5.48,30.88-28.64,35.47-49.55a251.13,251.13,0,0,0,5.34-69.6c-.53-8.46-1.06-18.16,5-24.08,4.89-4.76,12.37-5.3,19.19-5.57l61.22-2.38a236.89,236.89,0,0,0,23.13,105.61c6.83,14.24,15.52,28.25,28.65,37s31.61,11.1,44.54,2c15-10.54,17.57-31.34,18.8-49.62q3.17-47,6.34-94.06c70.11,36.72,167.72,4.1,201.66-67.4,26.87-56.6,15.4-123.43,27.62-184.88,3.33-16.74,8.9-33.9,21.23-45.72s33-16.33,46.69-6.12c14.87,11.09,14.8,35.42,2.81,49.57s-32.25,19-50.68,16.89c15.74,23.88,49.5,32.31,76.25,22.21s45.76-36,51.7-64,0-57.53-12.21-83.38c-11-23.18-27.08-44.12-47.71-59.35-21-15.48-46.12-24.76-71.85-28.89-96-15.34-198.61,49.23-226.25,142.6,1.41-61.66-12.5-125.94-51.63-173.62a148.12,148.12,0,0,0,58.46-98.13c6.79-49.45-11.62-102,6-148.67,7.37-19.54,20.78-36.76,25.37-57.18s-4.94-46.7-25.66-49.37C391.76,11,377.76,25,365.58,36.76s-29.79,23.24-45,15.65C270.2,27.18,208.3,26.18,157.08,49.75,144.6,55.49,131,44,124,32.14S111,6,98,1.33A22.37,22.37,0,0,0,90.44,0C71.7,0,56.78,24.8,59.24,45.37ZM95,116.17A495,495,0,0,1,69.61,33.54a14,14,0,0,1,3.13-11.83,21.82,21.82,0,0,1,16.5-7.78,18.17,18.17,0,0,1,4.22.5,24.35,24.35,0,0,1,5.6,2.14,30.19,30.19,0,0,1,7.38,5.51A48.83,48.83,0,0,1,117.24,40c.52,1.43,1,2.9,1.48,4.31,1.53,4.59,3.11,9.34,5.93,13.33,3.24,4.57,8.34,7.52,13,7.52a10.51,10.51,0,0,0,3.51-.58c37.84-13,70.39-19.33,99.52-19.33a180.32,180.32,0,0,1,21.91,1.31,146.29,146.29,0,0,1,33,7.88,130.82,130.82,0,0,1,16.13,7.23c1.6.86,3.26,1.79,4.73,2.61,6,3.39,12.3,6.9,19.15,8.23a26.31,26.31,0,0,0,4.93.47c6.4,0,14.45-2.49,17.83-9.47A70.75,70.75,0,0,1,381.45,36.4c6.74-4.73,15.15-7.56,22.5-7.56,7,0,12.64,2.51,16.29,7.25,2.22,2.89,4.25,6.88,4,13.59-.19,6.06-2.22,12.48-4.63,18.41-.46,1.17-1,2.38-1.53,3.64q-11.83,26.72-23.62,53.5c-2.47,5.61-5.25,8.34-8.5,8.34h-.22c-1.55-.06-3.14-.09-4.72-.09-39.16,0-73.33,17.72-95.1,32.59-26.86,18.34-49.57,41.59-72,66.08q-3,3.25-5.94,6.53h0l-7.69-19-2.17-5.39c-4-9.95-8.1-20.06-12.86-29.82v-.08l-.18-.37-.08-.15-.15-.3-.1-.2-.13-.27-.11-.23c0-.08-.09-.17-.13-.26a1.51,1.51,0,0,1-.11-.22c-.05-.09-.1-.19-.14-.28s-.07-.13-.1-.2l-.16-.31s-.05-.1-.08-.16l-.19-.37V181a140.38,140.38,0,0,0-18.1-27.75c-15.16-17.72-35.68-28.3-54.89-28.3a54.09,54.09,0,0,0-5.83.32h-.65c-4.36,0-7.28-4.93-9-9.08Zm74.5,280.4c-30.09-6.86-58.23-23.68-79.23-47.35a142.2,142.2,0,0,1-16.69-23.06A122,122,0,0,1,58.1,281.92,108.87,108.87,0,0,1,57,265.58c.26-26.48,9.35-51.69,18.14-76.06l16.22-45,.45-1.23c1.35-3.75,3.65-8.75,8.07-9,1,0,2-.07,3-.07h0c23,0,46.53,13.56,63.07,36.27,15.58,21.41,23.44,47,31,71.76.93,3,2,6.43,1.31,9.76s-3,6.15-5.28,8.79l-.09.1c-.84,1-1.71,2-2.47,3a27.12,27.12,0,0,0,7.22,37.6A24.53,24.53,0,0,0,210.6,305c10.1,0,19.72-5.55,24-13.79a27.13,27.13,0,0,0-13.22-35.95A25.6,25.6,0,0,1,223,242.4a49.67,49.67,0,0,1,9.28-14.55,124.57,124.57,0,0,1,8.8-9c31.8-29.84,69.61-62.56,116.07-73.06a45.23,45.23,0,0,1,9.84-1.08c4,0,9.85.54,14.73,3.12,4.53,2.4,7.09,5.93,7.61,10.51,3.83,33.93,7.78,69,2.72,103.46-5.66,38.56-22.56,70.28-47.58,89.34-42,32-90.61,49.62-136.86,49.62a171.34,171.34,0,0,1-38.1-4.23Zm29.14-99.14a16,16,0,0,1-6.13-16.78c1.54-6,6.92-11,13.4-12.53a21.23,21.23,0,0,1,4.7-.53,24.92,24.92,0,0,1,13.68,4.29c4.76,3.18,2.15,10.8,1.24,13.07-1.73,4.3-4.33,9.65-9,12.77a15.61,15.61,0,0,1-8.7,2.55,15.82,15.82,0,0,1-9.15-2.84ZM105.86,664.48C87.94,662,74.06,647.67,63.7,632.84a208.41,208.41,0,0,1,19-262.24c3-3.2,8.34-6.32,11.2-3,26.9,31.2,69.62,45.79,110.81,45.2s81.1-14.86,117.8-33.56c7.29-3.71,16.56-.93,22.62,4.57s9.59,13.18,12.8,20.71c18.25,42.84,31.31,89.17,27.31,135.55s-27.7,92.86-68.46,115.35c-11.73,6.47-25.28,10.91-38.46,8.53s-25.48-13.17-26.08-26.55c-.53-11.32,6.77-21.29,13.18-30.63A280.45,280.45,0,0,0,282.73,578c4.92-9.4,9.36-19.24,10.86-29.75,5-34.77-27-68.09-62-70.44S163,499.22,147.33,530.65,131.58,599.47,140,633.58c4,16.35-13.44,31.21-30.32,31.21a26.58,26.58,0,0,1-3.78-.26ZM423.39,850.17h-.7l-.33-.07h0q-1.82-.36-3.63-.78h0l-.33-.07H418l-.26-.06h-.1a129.2,129.2,0,0,1-20.84-6.82,28.16,28.16,0,0,1-9.39-6.33c-2.08-2.23-3.45-4.8-3.39-7.52a7.9,7.9,0,0,1,.56-2.76C424.78,722.82,432.8,638.89,409.07,569a47.13,47.13,0,0,1-2.08-9.07c-1.45-11.12.85-22.63,4.85-33.53a126.61,126.61,0,0,1,5.09-11.94A192.06,192.06,0,0,1,524.62,418a189.52,189.52,0,0,1,63.56-10.82,194.15,194.15,0,0,1,33,2.82h.49l.48.09h0a194.28,194.28,0,0,1,19.62,4.54l.21.07.32.09a185.67,185.67,0,0,1,26.74,10c12.78,6,22.94,12.51,31.06,20,7.2,6.62,13.8,14.86,20.79,25.93a180.55,180.55,0,0,1,11.18,20.43q2.29,4.92,4.25,10a141.14,141.14,0,0,1,6,19.18c4.39,18.79,4.17,36.49-.65,52.63a72.49,72.49,0,0,1-10.09,20.66c-11.31,16.22-28.88,28.27-47.5,31.12a53.53,53.53,0,0,1-8.39.67,51.25,51.25,0,0,1-16.52-2.7c-1.9-.65-6.29-2.52-6.13-6.08h1.22c19.25,0,34.32-16.73,40.17-32.29a60.13,60.13,0,0,0,2.62-8.93v-.18a51,51,0,0,0,1.06-11.69,39.18,39.18,0,0,0-3.26-14.81c-3.56-8-10.28-14.31-18.75-18.17a47.08,47.08,0,0,0-11-3.41,51,51,0,0,0-9.06-.81A47.47,47.47,0,0,0,637.67,530,61.34,61.34,0,0,0,615,547.16a87.17,87.17,0,0,0-14.11,24.2q-1.74,4.46-3.1,9.25c-5.18,18.16-5.95,37.45-6.69,56.12-.14,3.34-.27,6.67-.43,10a668.12,668.12,0,0,1-8.24,77.55c-2.42,14.54-5.46,30-11.27,44.79a128.35,128.35,0,0,1-8.43,17.38h0l-.15.25c-1.91,3.28-4,6.48-6.15,9.58l-.1.14a.36.36,0,0,0-.07.1,134.66,134.66,0,0,1-27.76,28.89l-.11.08-.09.07a132.14,132.14,0,0,1-12.5,8.5,127.13,127.13,0,0,1-16.42,8.33,129.66,129.66,0,0,1-18.1,6l-.31.08h0q-5.13,1.28-10.36,2.15h-.28a134.45,134.45,0,0,1-46.62-.51h0l-.34-.07ZM139,666.55c12.55-14.79,10.26-37,8.42-54.84-3-28.71-3.77-58.66,10-83.2,13-23.21,39.77-38.21,68.09-38.21h0a71.08,71.08,0,0,1,28.89,5.94c12.94,5.72,22.47,14.62,26.84,25,9.5,22.63-4.83,47.37-19,68.79-2.15,3.25-4.38,6.76-6.53,10.46-6,10.32-11,21.53-12.66,32.56-1.31,8.9-.4,17.79,4.19,26a33.89,33.89,0,0,0,17,14.54h0l.19.07h.22l.2.08h0a28.62,28.62,0,0,0,3.05,1h.26a38.54,38.54,0,0,0,10.51,1.47,33.81,33.81,0,0,0,16.21-4c.71-.39,1.4-.81,2.08-1.26h0a207.73,207.73,0,0,1-9.58,50.86c-2.58,8-6.87,19.81-14.33,29.67-8.84,11.66-22,20.75-38.12,26.27a101.18,101.18,0,0,1-33,5.43A103.19,103.19,0,0,1,97.77,680.56h0v-.22c0-1.9,0-3.79.12-5.69h0a33,33,0,0,0,14.78,3.41c10.25,0,20.1-4.39,26.34-11.75ZM391.67,557.28h0a205.43,205.43,0,0,1,9.31,24.2,237.81,237.81,0,0,1,10,50.75,286,286,0,0,1-.31,53.07C406.91,724,396.2,764,377,811.3c-12.5,30.76-13.26,64.87-14,97.87v.2c-.22,9.84-.45,20-1,29.93-.12,2.35-.36,5.3-.81,8.57-1.5,11.19-4.93,22.66-11.65,30.17a24.37,24.37,0,0,1-13.56,8,23.9,23.9,0,0,1-4.77.48c-15,0-27.18-13.82-33.12-22a156.41,156.41,0,0,1-23.32-48.15,163.53,163.53,0,0,1-5-23.89,156.83,156.83,0,0,1,2.13-53.83,4.3,4.3,0,0,0-.86-3.81c-2-2.55-6.74-3.46-10.14-3.46a17.64,17.64,0,0,0-1.92.1l-41.1,4.16-40.29,4.08c-4.52.45-8.8,1.11-11.55,4.11-3.1,3.38-3,8.71-3,12.61a434.65,434.65,0,0,1-7.43,85.8c-2.9,15.43-7.7,32.26-21.39,40.16a29.15,29.15,0,0,1-14.79,3.86,35.92,35.92,0,0,1-8.39-1,45.87,45.87,0,0,1-14.2-6.18,50.33,50.33,0,0,1-13.9-13.27c-9.64-13.75-13.4-30.65-17-47-.6-2.7-1.28-5.75-2-8.66A348.62,348.62,0,0,0,44,850.46C41.63,845,39,839.3,36.64,834.3c-5.53-11.82-11.25-24-15.28-36.7C16.7,783,13.82,766.88,12,745.27A486.33,486.33,0,0,1,23.75,591.63c.68-2.83,3-6,5.18-6a2.32,2.32,0,0,1,1.66.73q1.85,7.08,4.37,13.9a148.56,148.56,0,0,0,35.92,55c10.4,10,13.39,24.85,16.28,39.18v.14c.76,3.78,1.55,7.69,2.46,11.42,11.69,47.68,54.19,85.61,101.07,90.18,3.06.3,6.2.45,9.33.45a102.53,102.53,0,0,0,14-1,110.63,110.63,0,0,0,53.58-23.44c16-13,28.16-30.38,33.45-50l6.27-23.28,6.27-23.28c1.31-4.84,3.24-10,7.68-11.42a75.69,75.69,0,0,0,19-9.21h0l.07,0a96.76,96.76,0,0,0,24.24-23.86,116.42,116.42,0,0,0,6.43-10c12.11-21.23,17.37-45.21,20.62-63.75Z" transform="translate(0.04 0)"/><path class="cls-2" d="M391.67,557.28h0c-3.25,18.53-8.51,42.52-20.62,63.75-12.23,21.44-29.86,36.78-49.65,43.19-4.44,1.44-6.37,6.58-7.68,11.42l-6.27,23.28-6.27,23.28c-11.44,42.41-54.87,74.39-101,74.39-3.13,0-6.27-.15-9.33-.45C144,791.56,101.47,753.64,89.79,706c-.92-3.73-1.71-7.64-2.47-11.42v-.13c-2.89-14.34-5.88-29.17-16.28-39.19a147.34,147.34,0,0,1-40.34-68.9,2.32,2.32,0,0,0-1.66-.73c-2.14,0-4.5,3.17-5.18,6A486.32,486.32,0,0,0,12.14,745.23c1.79,21.61,4.67,37.75,9.32,52.33,4,12.65,9.76,24.88,15.29,36.7,2.34,5,5,10.66,7.39,16.16A348.62,348.62,0,0,1,64,910.11c.68,2.91,1.36,6,2,8.66,3.63,16.34,7.39,33.24,17,47,8.58,12.25,23.25,20.48,36.49,20.48a29.15,29.15,0,0,0,14.79-3.86c13.68-7.9,18.49-24.73,21.39-40.16a434.65,434.65,0,0,0,7.43-85.8c0-3.9-.12-9.23,3-12.61,2.75-3,7-3.66,11.55-4.12l40.29-4.08,41.1-4.15a17.64,17.64,0,0,1,1.92-.1c3.4,0,8.09.91,10.14,3.46a4.3,4.3,0,0,1,.86,3.81c-9.41,43.07.38,90.12,26.19,125.87,6,8.23,18.15,22,33.12,22A23.9,23.9,0,0,0,336,986c21.43-4.37,25.34-34.13,26-46.72.54-9.91.77-20.09,1-29.93v-.2c.73-33,1.49-67.11,14-97.87,19.25-47.35,30-87.4,33.71-126,4.55-46.86-2-91.13-19-128Z" transform="translate(0.04 0)"/><path class="cls-2" d="M588.18,407.13A189.32,189.32,0,0,0,524.62,418a192.06,192.06,0,0,0-107.69,96.46C406.64,535.64,404,554,409.07,569c23.73,69.94,15.71,153.87-24.52,256.56-2.63,6.71,4.49,13.31,12.22,16.61a132.34,132.34,0,0,0,173.38-70.45c.35-.85.7-1.7,1-2.55,5.81-14.76,8.85-30.25,11.26-44.78a666.13,666.13,0,0,0,8.25-77.56c.16-3.33.29-6.66.43-10,.74-18.67,1.51-38,6.69-56.12,6.93-24.35,21.48-42.81,39.89-50.64a47.47,47.47,0,0,1,18.37-3.63c17.49,0,32.71,8.79,38.78,22.39,4.53,10.15,4.37,22.8-.45,35.61-5.85,15.56-20.92,32.29-40.17,32.29H653c-.16,3.56,4.23,5.43,6.13,6.08a51.25,51.25,0,0,0,16.52,2.7c28.21,0,57.2-23,66-52.45,4.82-16.14,5-33.84.65-52.63-3.8-16.29-11.2-33.44-21.41-49.58-7-11.07-13.59-19.31-20.79-25.93-8.12-7.48-18.28-14-31.06-20A192.31,192.31,0,0,0,588.2,407.2Z" transform="translate(0.04 0)"/><path class="cls-3" d="M225.53,490.3h0c-28.32,0-55,15-68.09,38.21-13.78,24.54-13,54.49-10,83.2,1.83,17.85,4.12,40-8.43,54.84-6.24,7.36-16.09,11.75-26.34,11.75a32.94,32.94,0,0,1-14.78-3.41A103.23,103.23,0,0,0,201.94,783.46a101.49,101.49,0,0,0,33-5.43c16.11-5.52,29.29-14.61,38.13-26.27,7.46-9.86,11.75-21.65,14.33-29.67A207.73,207.73,0,0,0,297,671.23a33.27,33.27,0,0,1-18.31,5.25c-13.2,0-25.54-6.82-31.44-17.38-12.59-22.52,2.53-50.18,15-69,14.17-21.42,28.49-46.16,19-68.79-4.37-10.43-13.9-19.33-26.84-25a71.08,71.08,0,0,0-28.89-5.94Z" transform="translate(0.04 0)"/><path class="cls-3" d="M103,134.23h0c-1,0-2,0-3,.07-4.42.23-6.72,5.24-8.07,9l-.45,1.23-16.22,45c-8.79,24.37-17.88,49.58-18.14,76.06-.29,29.43,11.53,59.13,33.27,83.64,21,23.67,49.14,40.49,79.23,47.35a171.34,171.34,0,0,0,38.1,4.23c46.25,0,94.85-17.62,136.86-49.62,25-19.06,41.92-50.79,47.58-89.34,5.06-34.45,1.11-69.53-2.72-103.46-.52-4.58-3.08-8.11-7.61-10.51-4.88-2.58-10.71-3.12-14.73-3.12a45.23,45.23,0,0,0-9.84,1.08c-46.46,10.5-84.27,43.22-116.07,73.06-10.86,10.19-21.68,22.48-19.7,36.45a27.13,27.13,0,0,1,13.22,36c-4.23,8.25-13.85,13.79-23.95,13.79a24.44,24.44,0,0,1-12.93-3.54,27.12,27.12,0,0,1-7.22-37.6c.76-1,1.63-2.05,2.47-3l.09-.1c2.26-2.64,4.6-5.38,5.28-8.78s-.38-6.76-1.31-9.77c-7.6-24.75-15.46-50.35-31-71.75-16.54-22.72-40.12-36.28-63.07-36.28Z" transform="translate(0.04 0)"/><path class="cls-4" d="M210.68,267.59a21.23,21.23,0,0,0-4.7.53c-6.48,1.52-11.86,6.55-13.4,12.53a16.08,16.08,0,0,0,6.12,16.78,15.88,15.88,0,0,0,9.16,2.84,15.61,15.61,0,0,0,8.7-2.55c4.71-3.12,7.3-8.47,9-12.77.91-2.27,3.52-9.89-1.24-13.07a25,25,0,0,0-13.68-4.29Z" transform="translate(0.04 0)"/><path class="cls-2" d="M89.24,13.93a21.89,21.89,0,0,0-16.42,7.78,14,14,0,0,0-3.14,11.82A497.32,497.32,0,0,0,95.1,116.17c1.69,4.14,4.61,9.08,9,9.08h.65a54.09,54.09,0,0,1,5.83-.32c19.21,0,39.73,10.58,54.89,28.3s24.12,39.8,32.7,61.06l2.17,5.39,7.69,19c24.4-26.87,48.72-52.64,78-72.61,21.77-14.87,55.94-32.6,95.1-32.6,1.58,0,3.17,0,4.72.09h.22c3.25,0,6-2.73,8.5-8.34l23.57-53.54c9.44-21.68,6.1-30.43,2.1-35.63-3.65-4.74-9.28-7.24-16.29-7.24-7.35,0-15.76,2.82-22.5,7.54a70.86,70.86,0,0,0-23.09,27.12c-3.38,7-11.43,9.47-17.83,9.47a26.31,26.31,0,0,1-4.93-.47c-6.85-1.33-13.1-4.84-19.15-8.23-1.47-.82-3.13-1.75-4.73-2.61-20.42-10.9-44.31-16.42-71-16.42-29.13,0-61.68,6.32-99.52,19.33a10.51,10.51,0,0,1-3.51.58c-4.63,0-9.73-3-13-7.52-2.82-4-4.4-8.74-5.93-13.32-.47-1.42-1-2.89-1.48-4.31-5-13.73-13.69-23-23.84-25.54a18.17,18.17,0,0,0-4.22-.5Z" transform="translate(0.04 0)"/><path class="cls-2" d="M167,426.82c-3.59.07-7.18.06-10.77.12s-7.38.18-11.06.47c-5.74.45-11.45,1.27-17.14,2.18-7.28,1.18-14.73,1.89-21.79,4.15A63,63,0,0,0,95.8,438a36.3,36.3,0,0,0-8.63,6.55,41.67,41.67,0,0,0-5.51,7.17,14.81,14.81,0,0,0-1.07,2.1c-2.25,5.11-4.23,10.43-6.14,15.69-.5,1.4-1,2.8-1.38,4.24a22,22,0,0,0,15.32,27,22.18,22.18,0,0,0,5.85.79l5.84-.78a22,22,0,0,0,9.68-5.65c3-3.47,5.59-7.21,8.24-10.92,1-1.1,2-2.22,3.06-3.28l.47-.26c6-2,12.17-3,18.34-4.34,7.29-1.62,14.6-2.87,22-3.91,5.56-.79,11.11-1.64,16.63-2.67,4.81-.9,9.6-1.92,14.42-2.75,6.39-.65,12.79-.94,19.22-1.06,7.45-.14,14.88-.18,22.32-.68s14.65-1.44,22-2.11,14.71-1,22-1.8c4-.44,8.08-.84,12.12-1.15,2.06-.16,4.12-.31,6.16-.56,4.36-.55,10.41-1,11.71-6.29a6.36,6.36,0,0,0-.64-4.88,6,6,0,0,0-3.79-2.92c-7-1.85-13.83-4.68-21-5.92s-14.23-2.37-21.37-3.37c-12.56-1.75-25.21-2.68-37.78-4.25-6.23-.87-12.45-1.76-18.64-2.84A149.08,149.08,0,0,0,189.06,427c-3.76-.23-7.53-.28-11.29-.32h-1.29c-3.18,0-6.36.11-9.53.18Z" transform="translate(0.04 0)"/><path class="cls-2" d="M83.86,416.25a6.88,6.88,0,0,0-.89.24,15,15,0,0,0-3.89-.39,21.19,21.19,0,0,0-6.07,1,48.59,48.59,0,0,0-7.9,3.45,15.37,15.37,0,0,0-2,1.27,57.08,57.08,0,0,0-4.63,3.72,38.48,38.48,0,0,0-3.57,4.08c-1.73,2.24-3.45,4.46-5,6.86-1,1.63-2,3.29-3,5q-2.69,4.66-5.26,9.4c-1.72,3.16-3.36,6.38-4.76,9.69a53.8,53.8,0,0,0-3.1,8.24c-.41,1.7-.76,3.41-1.19,5.1-.84,3.3-1.8,6.57-2.65,9.87a96.9,96.9,0,0,0-2.17,10.12c-.38,2.55-.77,5.09-1,7.66-.46,5.26,1.84,11.29,6.64,13.92l.48.26c-.37,3.68-.64,7.37-.79,11.08-.09,2.51-.09,5,0,7.54,0,1.4.09,2.8.18,4.2.06.74.11,1.48.16,2.23.15,2.09.5,4.17.84,6.24a18.86,18.86,0,0,0,2,5.28,14.44,14.44,0,0,0,18.65,5.77c.27,1.32.57,2.64.9,3.95.12,1.43.25,2.86.39,4.28.19,1.91.47,3.8.72,5.7.14,1,.24,2.11.43,3.14s.38,2.25.67,3.36a20.77,20.77,0,0,0,.83,2.68,21.27,21.27,0,0,0,1.58,3.67c.77,1.06,1.57,2.09,2.4,3.1a14.15,14.15,0,0,0,6.24,3.64,26.24,26.24,0,0,0,3.94.52A13.81,13.81,0,0,0,83,588a14.31,14.31,0,0,0,4.12-10,21.9,21.9,0,0,0-1.38-7.2,4.91,4.91,0,0,0-.13-.75c-.46-4.81-.71-9.62-1-14.44-.19-2.66-.35-5.32-.68-8-.4-3.31-.87-6.6-1.36-9.9-.22-1.93-.4-3.87-.5-5.81a79.2,79.2,0,0,1,0-8.44c.22-4.56.9-9.11,1.5-13.64a46.81,46.81,0,0,1,1-5.23c.63-2.67,1.36-5.3,2.17-7.93,1.26-4.1,2.67-8.19,4.22-12.2,1.17-2.53,2.45-5,3.86-7.4A70.72,70.72,0,0,1,99,470.81c2-2.49,4.19-4.89,6.36-7.27a78.33,78.33,0,0,0,5.23-6.42,25.07,25.07,0,0,0,1.83-2.81,29,29,0,0,0,2.32-5.51c.21-.72.41-1.42.56-2.16.3-1.44.42-2.91.59-4.37a6.74,6.74,0,0,0,0-1.27,27.07,27.07,0,0,0-.63-4.21,21,21,0,0,0-1.6-3.79c-1.17-2.39-3.56-4.37-5.68-5.85a18.38,18.38,0,0,0-3.79-1.76,14.22,14.22,0,0,0-4.08-.76,13.6,13.6,0,0,0-5.84-7L91,416.25a13.52,13.52,0,0,0-7.14,0Z" transform="translate(0.04 0)"/><path class="cls-2" d="M74.69,383.9c-3.17.13-4.54,2.18-6.23,4.38-.7.92-1.36,1.86-2,2.82-1.42,2.1-3.11,4-4.42,6.21-1.16,1.93-2.55,3.72-3.67,5.67-.89,1.55-1.85,3.07-2.8,4.58-1.74,2.77-3.49,5.53-5.3,8.26a60.14,60.14,0,0,0-5.92,12.08c-.63,1.66-1.2,3.35-1.84,5-.33.7-.7,1.39-1,2.1s-.72,1.63-1.08,2.44c-.87,1.93-1.74,3.85-2.53,5.81a113.77,113.77,0,0,0-4,12.64c-.64,2.33-1.27,4.62-1.77,7-.46,2.18-1.07,4.31-1.47,6.5-.47,2.57-.82,5.19-1.48,7.72-.72,2.72-1.4,5.44-2.13,8.15a58.21,58.21,0,0,0-2,10.72c-.25,3.13-.1,6.27-.1,9.41,0,6.22-.59,12.46.07,18.66a82.65,82.65,0,0,0,1.22,8.45c.55,2.59,1.08,5.16,1.5,7.78.38,2.35.91,4.66,1.42,7,.45,2.13,1.05,4.21,1.4,6.35s.53,4.19.89,6.27c.28,1.64.64,3.26.91,4.9.36,3,.7,6,1.3,8.9a35.53,35.53,0,0,0,1,4.07c.48,1.41,1.06,2.79,1.64,4.17a27.55,27.55,0,0,1,1.11,3.66c.15.67.31,1.34.48,2a33.19,33.19,0,0,0,1.88,4.82,40.11,40.11,0,0,0,5.37,8.42,34,34,0,0,1,3.39,5.88c.65,1.72,1.23,3.47,2,5.18a65.21,65.21,0,0,0,3.4,7.29c.84,1.45,1.72,2.88,2.57,4.32a46.71,46.71,0,0,0,3.89,5.29c.76,1.09,1.47,2.21,2.25,3.27a33.59,33.59,0,0,0,4.65,5.38,39.1,39.1,0,0,0,5.6,4.33c1.38.86,2.85,1.56,4.27,2.35a20.27,20.27,0,0,0,6.08,2.47,13.71,13.71,0,0,0,6.37,0,11.65,11.65,0,0,0,5.61-3.35,17.45,17.45,0,0,0,4-8.34,50,50,0,0,0,.56-12.52c-.26-4.72-.63-9.44-.59-14.17a121.22,121.22,0,0,1,.75-12.78c1-7,2-13.92,3.31-20.83,1.36-7.19,3-14.36,4.87-21.44a226.66,226.66,0,0,1,9.29-28.07,115.35,115.35,0,0,1,5.83-11.33c2.19-3.8,4.7-7.41,7.23-11a121.92,121.92,0,0,1,8.42-9.47q2.52-2.55,5.09-5c.94-.91,1.89-1.85,2.88-2.73a6.52,6.52,0,0,0,1.78-1.44l1.5-2a9.64,9.64,0,0,0,0-9.74,9.93,9.93,0,0,0-8.53-4.81,5.57,5.57,0,0,0-1,0,10.85,10.85,0,0,0-6,.39,30.91,30.91,0,0,0-3.69,1.6,11.28,11.28,0,0,0-.47-3.26c-.36-.87-.73-1.73-1.09-2.59a11,11,0,0,0-3.89-3.89,8.35,8.35,0,0,0-3.1-1.31,10.88,10.88,0,0,0-5.72,0,11.65,11.65,0,0,0-3,1.21,26.34,26.34,0,0,0-6.88,6.39c-2.13,2.69-4.11,5.44-6,8.3-1.07,1.64-2.09,3.31-3.13,5-4.14,6.56-8,13.31-11.58,20.17-1.67,3.17-3.2,6.4-4.72,9.63-.92,1.94-1.84,3.89-2.73,5.85a7.18,7.18,0,0,0-.7.65c-2.55,2.71-4.72,5.78-7,8.73l.47-.61a28.58,28.58,0,0,0-3.68,5.9c-.68,1.49-1.28,3-1.81,4.57h-.06a13.84,13.84,0,0,0-3.19-1.43c-2.37-.66-4.13-.35-6.51,0a10.87,10.87,0,0,0-3.51,1.65,14.39,14.39,0,0,0-4.18,4.19,18.94,18.94,0,0,0-2.27,4.68c-.39-1.38-.79-2.77-1.14-4.16-.71-2.79-1.16-5.65-1.78-8.46-.54-2.41-1-4.82-1.43-7.25-.59-5.24-.62-10.54-.73-15.8s-.51-10.3,0-15.41c.26-1.56.61-3.1.91-4.66.44-2.37.81-4.75,1.09-7.15.37-3.11.68-6.22,1.07-9.33.28-1.91.65-3.81,1-5.72.42-2.4,1.16-4.73,1.77-7.08.23-.89.45-1.79.67-2.68a7.5,7.5,0,0,0,4.94-2,12.71,12.71,0,0,0,1.87-2.45c.89-1.34,1.8-2.66,2.61-4s1.63-3,2.42-4.45c1.45-2.79,2.78-5.64,4.22-8.44,1.34-2.62,2.66-5.25,4-7.85,1.26-2.39,2.63-4.73,3.89-7.12,1.48-2.82,2.6-5.8,3.79-8.75a66.84,66.84,0,0,1,3.85-7.3,13.86,13.86,0,0,0,2-4.24,18.31,18.31,0,0,0,.28-2l.12-.45.23-.39.1-.11c.37-.22.74-.43,1.13-.63a5.34,5.34,0,0,0,1.9-7.26,5.26,5.26,0,0,0-5.89-2.42,5.78,5.78,0,0,0-4.17-2Zm-5,3h0V387l.07-.07Z" transform="translate(0.04 0)"/><path class="cls-2" d="M94.1,389.45A7.69,7.69,0,0,0,91,403.74c2.74,1.63,5.58,3.06,8.44,4.48a83.83,83.83,0,0,1,8.36,4.86,82.5,82.5,0,0,0,7.84,4.52c1.35.68,2.72,1.34,4.1,1.95,1.2.52,2.4,1,3.62,1.52.33.13.66.25,1,.36a4.39,4.39,0,0,0,.69.18,8.45,8.45,0,0,0,4,0,7.21,7.21,0,0,0,5.13-8.5,6.34,6.34,0,0,0,2-1.36,6.62,6.62,0,0,0,1.92-4.62,6.27,6.27,0,0,0-1.88-4.63,49.88,49.88,0,0,0-5.09-3.56c-1.33-.8-2.68-1.57-4.08-2.27-2.75-1.36-5.58-2.54-8.41-3.73-1.17-.51-2.32-1.07-3.49-1.57-1.88-.81-3.74-1.5-5.68-2.15-1.63-.55-3.19-1.27-4.81-1.85-.8-.28-1.61-.57-2.43-.79a11.45,11.45,0,0,0-2.54-.37h-.18a6.41,6.41,0,0,0-5.41,3.25Z" transform="translate(0.04 0)"/><path class="cls-2" d="M327.73,377.88a35.35,35.35,0,0,0-4.75,2q-3.45,1.39-6.74,3.12c-2.24,1.22-4.52,2.35-6.79,3.52-3.48,1.79-7,3.57-10.55,5.16-4.84,2-9.73,3.78-14.55,5.81l3.33-1.4c-2.13.89-4.28,1.78-6.47,2.54s-4.43,1.36-6.64,2a92,92,0,0,1-11.81,2.76c-2.68.28-5.34.49-8,.9a22.48,22.48,0,0,0-6,2.13,70,70,0,0,1-9,2.44c-3.77.83-7.58,1.57-11.41,2.15a148.2,148.2,0,0,1-17.11,1c-3.21,0-6.44,0-9.65-.06-2.87-.1-5.72-.32-8.6-.26-2.45.05-4.9-.15-7.35-.18a56.49,56.49,0,0,1-5.82-.2,31.55,31.55,0,0,1-5.28-1.7,39.56,39.56,0,0,0-7.57-1.89,97,97,0,0,0-10.76-1.17c-2.52-.18-5-.56-7.54-.55a76.49,76.49,0,0,1-8.56-.49l-2.1-.2-3.62-1c-3.23-.84-6.42-1.65-9.6-2.7s-6.34-2.44-9.55-3.59c-3-1.11-6.09-2.25-9.18-3.24-1.92-.61-3.89-1.07-5.84-1.6s-4-1.29-6.11-1.68a57.46,57.46,0,0,0-6.27-.8,28.6,28.6,0,0,0-7.72.52,9.38,9.38,0,0,0-3.8,1.66,13.78,13.78,0,0,0-4.91,4.92,19,19,0,0,0-1.49,3.47,14,14,0,0,0,.23,8.46c.46,1.16,1,2.3,1.47,3.43a25.83,25.83,0,0,1,1,3.46,36.29,36.29,0,0,0,.89,5.39,22.47,22.47,0,0,0,3.73,7.68A62.92,62.92,0,0,0,83,436.5c1.18,1.16,2.42,2.26,3.66,3.37a67.11,67.11,0,0,0,11.74,9,16.85,16.85,0,0,0,2.27,1c2.1.89,4.18,1.83,6.34,2.58,1.74.62,3.49,1.21,5.25,1.74,7.15,2.15,14.52,3.24,21.8,4.8,3.57.77,7.14,1.57,10.74,2.24,5,.91,10,1.57,15.07,2.06a180.48,180.48,0,0,0,19.46.42c-1.14.11-2.27.31-3.38.49a42.6,42.6,0,0,0-5.78,1.48,111.2,111.2,0,0,0-22.15,9.66c-3.12,1.77-6.24,3.6-9.25,5.56a92.52,92.52,0,0,0-11,8.74,73.05,73.05,0,0,0-7.38,7.34,134.41,134.41,0,0,0-8.55,11.33,86.73,86.73,0,0,0-5.5,9.47c-1.6,3.15-3.29,6.26-4.76,9.47a111.64,111.64,0,0,0-7.7,23.63c-1,4.81-1.7,9.64-2.34,14.51A99.42,99.42,0,0,0,91,575.74c-.1,3.57-.28,7.16-.23,10.74,0,3.23.34,6.45.48,9.67.2,4.59.2,9.32,1.48,13.77a58.29,58.29,0,0,0,5.39,12.8c1.59,2.45,3.62,4.85,5.39,7.12A17.65,17.65,0,0,0,117,636.48a16.1,16.1,0,0,0,13.94-8,17.23,17.23,0,0,0,1.87-4.45,13.63,13.63,0,0,0,.41-2.19,58.18,58.18,0,0,0,.88-8.53c0-2.08-.34-4.13-.38-6.21-.06-2.64,0-5.31.2-7.94.14-2.21.41-4.38.42-6.59,0-1.33-.08-2.64-.2-4a47.62,47.62,0,0,1-.29-7.26c.24-1.32.53-2.63.77-4,.2-1.12.37-2.25.51-3.38a14.72,14.72,0,0,0,2.8-6.38c.17-1,.33-2,.51-3.08.47-2.73.81-5.48,1.16-8.22.2-1.37.4-2.74.63-4.11l.27-1.06a86.84,86.84,0,0,1,2.84-9.31c1.48-3.16,3.2-6.2,4.75-9.33.88-1.77,1.74-3.54,2.79-5.23s2.29-3.33,3.51-4.92c-.35.45-.69.9-1,1.34,3-4,5.92-8,8.92-12,1.09-1.34,2.25-2.61,3.38-3.92,1.51-1.74,2.91-3.57,4.41-5.31a72.81,72.81,0,0,1,9.72-9.35,82.09,82.09,0,0,1,8.27-5.71,89.61,89.61,0,0,1,9.15-4.56c2.19-.89,4.39-1.74,6.62-2.55,2.77-1,5.51-2.13,8.34-3a125.58,125.58,0,0,1,17.36-3.81,87.43,87.43,0,0,1,18.65.23c6.57.68,13.14,1.52,19.69,2.31,2.69.33,5.38.62,8.06,1l-1.22-.16,7.62,1,.34.1a13.74,13.74,0,0,0,13.56-3.48,10.77,10.77,0,0,0,1.38-1.56c.14.6.33,1.18.51,1.76a73.9,73.9,0,0,0,3.51,8.19c1.71,4.17,3.34,8.39,4.84,12.64,1,2.71,1.87,5.44,2.91,8.11,1.29,3.29,2.71,6.52,4.12,9.76.74,1.87,1.44,3.75,2.07,5.67a33.46,33.46,0,0,1,1.1,4.52c.12,1.5.21,3,.26,4.51-.63,2-1.26,4.09-1.91,6.13s-1.36,4-2.11,5.93q-4.05,8.68-8.68,17.08c-1.74,3.15-3.59,6.24-5.31,9.41l-.32.58-.75.7a43,43,0,0,0-3.69,3.83,95.85,95.85,0,0,0-7.28,9.64,76.79,76.79,0,0,0-5,9.28c-1.71,3.65-3.25,7.36-4.8,11.09-.29.72-.54,1.45-.78,2.19-.86,2.66-1,6.12-1.26,8.43a3.21,3.21,0,0,0,0,.62A28.15,28.15,0,0,0,279,627.19a20.72,20.72,0,0,0,4.28,5.81,28.13,28.13,0,0,0,34.12,4.4c4-2,8.62-7,10.7-10.87.22-.4.41-.81.59-1.22.64-1.39,1.25-2.79,1.85-4.2l1.08-2.1c1.84-3.68,3.46-7.48,4.94-11.32.06-.1.11-.2.16-.3,1.65-3.06,3.55-6,5.44-8.86s3.85-5.82,5.71-8.76c1-1.59,2-3.2,2.91-4.85a84,84,0,0,0,4.65-10.5c2.08-5.3,2.53-11,3.17-16.64.23-2,.4-4,.46-6.06.42-1.35.8-2.72,1.14-4.09,1.8-7.2,4.15-14.24,6.14-21.38a126.39,126.39,0,0,0,4.29-27.54,111.3,111.3,0,0,0,.08-11.26c-.19-3.92-.64-7.81-1.16-11.69-.67-5.31-1.25-10.62-2-15.92a50.39,50.39,0,0,0-2.27-10.21c-1-2.67-2.23-5.55-3.33-8a23.17,23.17,0,0,0-1.23-2.5,50.54,50.54,0,0,0-6.69-8.78c-2.31-2.49-4.77-4.83-7.12-7.28-1.41-1.49-2.75-3.07-4.24-4.47-3.53-3.31-7.41-6.09-12.19-7.29a23.2,23.2,0,0,0-8-.74c.7-.37,1.39-.76,2.08-1.15,3.08-1.75,5.9-4,8.79-6,1.63-1.15,3.29-2.26,5-3.36a12.58,12.58,0,0,0,2.89-2.24l1.87-2.42a12,12,0,0,0-8.83-17.94,14.63,14.63,0,0,0-2.29-.18,15.21,15.21,0,0,0-4.19.6Zm-144,85.78-.28.13c-.36,0-.71-.08-1.07-.11h1.35Z" transform="translate(0.04 0)"/><path class="cls-2" d="M237.08,451.48a18.89,18.89,0,0,0,0,18.93,25.42,25.42,0,0,0,9,9.22c1,.59,2,1.08,3,1.6a62,62,0,0,1,5.69,3.35c1.86,1.19,3.82,2.63,5.69,4,1.12.82,2.26,1.61,3.39,2.41A39.84,39.84,0,0,1,267,493.8c1.59,1.38,3.22,2.71,4.82,4.06a62,62,0,0,1,7.38,7.11c1.88,2.53,3.72,5.09,5.76,7.5,1.38,1.64,2.82,3.24,4.2,4.88a40,40,0,0,1,2.49,4.3q.15.81.33,1.59c.17.81.4,1.6.61,2.39s.48,1.72.73,2.57v.37a21.54,21.54,0,0,0,.53,4.59v.57a41.42,41.42,0,0,0,.39,4.17c.31,2.75.56,5.49,1,8.23a68.21,68.21,0,0,0,2.25,8.9,57.17,57.17,0,0,0,2.22,5.6c.17.39.34.77.54,1.15a11.84,11.84,0,0,0,2.72,3.49,15.79,15.79,0,0,0,15.39,4.07,14.63,14.63,0,0,0,5.21-2.47,9.12,9.12,0,0,0,9-6.72,8.9,8.9,0,0,0-.92-7.07c-.34-.46-.66-.92-1-1.39a1.09,1.09,0,0,1,.05-.17,15.14,15.14,0,0,0,.35-1.48c.23-.77.43-1.54.59-2.33a37.63,37.63,0,0,0,.86-6.93,66.07,66.07,0,0,0-.71-8.31c0-.51.07-1,.06-1.52a25.66,25.66,0,0,0-.46-4A15.36,15.36,0,0,0,324,514.81a15,15,0,0,0-3.34-1.46,15.19,15.19,0,0,0-2.71-5c-.8-2.37-1.76-4.69-2.76-7v-.09c-.69-2.68-2.11-6-4.33-7.82l-2.14-1.66c-1-2.18-2-4.36-3.09-6.46-2.22-4.14-5.29-7.83-8.17-11.51-2.13-2.73-4.45-5.3-6.72-7.92s-4.78-5-7.25-7.4c-1.24-1.21-2.47-2.43-3.76-3.59-2.47-2.21-5.1-4.18-7.73-6.21a29,29,0,0,0-4.38-2.7c-2.12-1.09-4.36-1.91-6.56-2.81-2.4-1-5.23-1-7.83-1h-.29a18.78,18.78,0,0,0-15.9,9.29Z" transform="translate(0.04 0)"/><path class="cls-2" d="M206.74,428.07a98.47,98.47,0,0,0-11.1,1.28,11.34,11.34,0,0,0-1.82.48c-2.71.87-5.32,2.16-7.9,3.25a6.24,6.24,0,0,0-1.27.75c-6.15,4.65-5.38,3.68-9.94,9.9a11.47,11.47,0,0,0-.78,1.3,24.66,24.66,0,0,0-3.38,12.48c-.3,2.21-.07,3.18.87,6.59a24.85,24.85,0,0,0,11.38,14.75c4.69,2.75,7.68,3,13,3.47,2.67.26,5.49-.48,8-.89a6.74,6.74,0,0,0,.88-.24,58.45,58.45,0,0,0,6.08-2.51c4.36,0,8.76.61,13.09.85,2.89.15,5.77.2,8.67.45,2.09.18,4.2.2,6.3.29,2.59.72,5.09,1.82,7.7,2.48s5.1,1.31,7.58,2.17a41.82,41.82,0,0,1,5.65,3.45c2,1.66,3.88,3.49,5.74,5.33,2.32,2.3,4.67,4.57,7,6.89s4.37,4.47,6.46,6.8c1.58,1.76,3.21,3.46,4.73,5.27a56.63,56.63,0,0,1,4.85,7.67,29.91,29.91,0,0,1,.81,2.95c.22,3.38.17,6.79.47,10.16a68.52,68.52,0,0,1,.13,11.37c-.7,3.39-1.78,6.69-2.41,10.09-.39,2.1-.78,4.2-1.11,6.31a39,39,0,0,1-.85,4.28,53.78,53.78,0,0,0-2.86,4.86,73.87,73.87,0,0,0-3.17,7.71c-.21.63-.4,1.28-.59,1.92-.64,1-1.38,1.87-2.05,2.84-1.31,1.87-2.36,3.88-3.63,5.78s-2.52,3.58-3.75,5.38c-.79,1.15-1.55,2.31-2.36,3.45-1.16,1.43-2.33,2.84-3.46,4.33-.76,1-1.47,2-2.19,3.08-.58.82-1,1.71-1.64,2.53a21.69,21.69,0,0,0-1.71,2.5c-1.05,1.8-2.16,3.57-3.35,5.28a32.74,32.74,0,0,0-3.86,8.44c-.31.92-.67,1.82-1,2.74a27.29,27.29,0,0,0-1.1,6.14c-.29,3.17.72,6.29,1.31,9.37a22.1,22.1,0,0,0,3.19,7.33,29.39,29.39,0,0,0,4.29,5.58,27.48,27.48,0,0,0,4.88,3.85,26.11,26.11,0,0,0,4.94,2.08,12.39,12.39,0,0,0,5.29,1.39,10.3,10.3,0,0,0,5.17-1.39c2.08-1.22,4.19-3.56,4.59-6a10.08,10.08,0,0,0,0-5.23c-.32-.81-.65-1.6-1-2.39V647c.31-.15.63-.3.94-.47a15.41,15.41,0,0,0,4.18-3.07,13.92,13.92,0,0,0,2.7-3.92c1.58-1.18,3.17-2.35,4.73-3.59a18.84,18.84,0,0,0,3.5-3.9,8.34,8.34,0,0,0,4.58-9.73c-1.16-4.21-5.92-7.21-10.23-5.8-1.65.54-3.24,1.2-4.83,1.9-.42.14-.84.26-1.27.37l.23-.28c1.78-2.07,3.91-3.86,5.79-5.84,1.5-1.57,2.83-3.29,4.35-4.84,1.7-1.74,3.38-3.49,5.11-5.2,1.35-1.36,2.92-2.49,4.21-3.9a32.35,32.35,0,0,0,4.46-6.3l.58-1c.61-.62,1.24-1.22,1.87-1.82a35.8,35.8,0,0,0,5.63-7c2.42-4,3.52-8.33,4.55-12.76.63-2.7,1.21-5.4,1.62-8.15A121.26,121.26,0,0,0,326,548.53c.29-7.23-.65-14.41-1.64-21.56a102.13,102.13,0,0,0-1.65-11.82,62.15,62.15,0,0,0-3.11-9,109,109,0,0,0-6-13.26c-1.58-2.76-3.1-5.56-4.93-8.17-2.83-4-5.89-7.92-9-11.75-2.23-2.76-4.7-5.35-7.12-8-2.19-2.36-4.43-4.61-6.85-6.75-3.47-3.07-7.24-5.79-11-8.52-2.23-1.62-4.52-3.15-6.76-4.77a72.62,72.62,0,0,0-8.13-5.41,47.76,47.76,0,0,0-9.26-3.78c-1.57-.46-3.18-.76-4.75-1.26s-3.28-1-4.9-1.52-3.1-1.26-4.71-1.68a25.56,25.56,0,0,0-2.88-.52l-4.15-.56c-4.45-.61-8.89-1.24-13.35-1.74a62.94,62.94,0,0,0-7-.44c-.7,0-1.41,0-2.11.06Z" transform="translate(0.04 0)"/><path class="cls-2" d="M279.79,630.48a18.35,18.35,0,0,0-10.55,5.57,16,16,0,0,0-2.83,4,14,14,0,0,0-1.28,3.1,12.49,12.49,0,0,0,0,6.31,10.58,10.58,0,0,0,1.55,3.52,19.7,19.7,0,0,0,2.44,3.1,30.27,30.27,0,0,0,3.56,2.73,27.37,27.37,0,0,0,6.12,3,21.26,21.26,0,0,0,3.38,1.21c2.76.64,6.79,1,9.57,0s5.82-2.23,7.74-4.63a33.92,33.92,0,0,0,3.31-4.6,15,15,0,0,0-5.33-20.53,14.83,14.83,0,0,0-3.67-1.55,15.8,15.8,0,0,0-8.19,0,6.18,6.18,0,0,0-.94-.67l-1.53-.65a6.58,6.58,0,0,0-1.71-.22,6.5,6.5,0,0,0-1.7.22Zm-3.45,4.8h0l-.57.06.54-.07Z" transform="translate(0.04 0)"/><path class="cls-2" d="M342.17,492A26.66,26.66,0,0,0,329,515c.32,2.36.63,4.72,1,7.09a26.73,26.73,0,0,0,6.86,11.77h0l.36,1c.21.59.45,1.19.7,1.79-.84,3.59-1.78,7.16-2.63,10.73-.79,3.32-1.58,6.63-2.53,9.91a90.3,90.3,0,0,0-2.43,10.25c-.49,2.86-.84,5.73-1.45,8.56s-1.37,5.52-2,8.27c-1.15,4.63-2.26,9.24-3.83,13.73-.82,1.6-1.74,3.13-2.71,4.67-1.36,2.16-2.92,4.17-4.37,6.28-1.61,2.35-3.16,4.76-4.91,7-1.24,1.62-2.39,3.31-3.6,5-.84,1.06-1.71,2.1-2.65,3.08s-2.07,2.14-3.09,3.22q-1.2.38-2.43.66c-2.54.09-5.09-.2-7.63-.29a39.23,39.23,0,0,0-12.66,1.42,21.45,21.45,0,0,0-8.41,4.75c-.68.6-1.33,1.25-2,1.91a8.8,8.8,0,0,0-3.33-.51,18.36,18.36,0,0,0-2.86.38,10.46,10.46,0,0,0-4.61,2.69L256,640.49a10.51,10.51,0,0,0-1.43,5.28,6.12,6.12,0,0,0,0,1.71h0c0,2.62.56,3.58,1.6,5.9a3.3,3.3,0,0,0,.34.49c.73,1,1.46,1.94,2.24,2.87a25.25,25.25,0,0,0,1.72,1.86,21.39,21.39,0,0,0,2.35,2,11.15,11.15,0,0,0,6.17,4.1,16.21,16.21,0,0,0,2.78.41l.86.31a30.24,30.24,0,0,0,5.66,1c1.7.25,3.39.51,5.11.73a35.5,35.5,0,0,0,5,.13,93.84,93.84,0,0,0,12.73-1.38,53.8,53.8,0,0,0,20.33-8.37c3-1.92,5.91-3.92,8.79-6,1.49-1.07,3-2.13,4.5-3.16,2-1.34,3.9-2.82,5.8-4.3a62,62,0,0,0,5.64-4.58c1.34-1.29,2.51-2.75,3.85-4a87.75,87.75,0,0,0,6.21-6.29c3.35-4,6.45-7.89,8.46-12.65a109.44,109.44,0,0,0,4.07-10.35c.51-1.64,1-3.3,1.34-5,.88-3.7,1.73-7.4,2.6-11.11A120.46,120.46,0,0,0,374.87,577c.42-2.3,1-4.57,1.6-6.83.8-3,1.52-5.95,2.27-8.93s1.64-5.85,2.36-8.8c.36-1.47.61-3,.84-4.43.1-.66.16-1.35.27-2,.66-1.52,1.28-3.07,1.89-4.58a8.46,8.46,0,0,0,.46-1.48,72,72,0,0,0,1-7.47,7.49,7.49,0,0,0,0-1.16,72,72,0,0,0-1.44-9.46c-.57-2.81-1.23-5.61-1.83-8.42a26.66,26.66,0,0,0-26.59-25.09h-.05A26.51,26.51,0,0,0,342.17,492Z" transform="translate(0.04 0)"/><path class="cls-2" d="M346.34,415.7a11.95,11.95,0,0,0-8.28,14.83,17.87,17.87,0,0,0,.5,1.91c.26.82.52,1.63.77,2.45.49,1.55,1,3.11,1.39,4.68a11.51,11.51,0,0,0-2.3,2.81,11.4,11.4,0,0,0-1.58,5.83,24.5,24.5,0,0,0,.56,4.59c.51,3.89,1,7.79,1.61,11.67.51,3.42,1.13,6.81,1.64,10.22.37,2.88.68,5.77.8,8.66.15,3.74.21,7.48.24,11.23.07,7.42,0,14.83-.63,22.24-.38,4.58-.88,9.15-1.37,13.72l-.63,5.87a5.15,5.15,0,0,0-3.08-.17,5,5,0,0,0-3,2.28,5.24,5.24,0,0,0-.5,3.82c.43,2.07.84,4.14,1.17,6.22.14,1.57.25,3.15.29,4.72a8.16,8.16,0,0,0,.78,3.67c.76,1.39,2.6,2.84,4.31,2.63a7.08,7.08,0,0,0,2.86-.69,14.78,14.78,0,0,0,1.7-1.24,9.66,9.66,0,0,0,1.61-1.94,20.15,20.15,0,0,0,1.17-1.82A41.13,41.13,0,0,0,349.3,547c.64-1.83,1.18-3.67,1.69-5.53,1-3.5,1.71-7.06,2.55-10.6.51-2.15,1.07-4.29,1.62-6.43a11.71,11.71,0,0,0,2.73,2.22l2.74,1.15a11.48,11.48,0,0,0,6.1,0c2.25-.87,3.55-1.31,5.29-3.05s2.32-3.26,3.26-5.58a21.39,21.39,0,0,0,1-5.2c.13-1.07.25-2.13.34-3.19.16-1.78.22-3.56.28-5.33.12-3.67.1-7.33,0-11a197.77,197.77,0,0,0-2.58-25c-.35-2.31-.77-4.62-1.28-6.9q-1.19-5.86-2.81-11.61c-1.3-4.63-2.93-9.18-4.5-13.72-.31-.89-.64-1.77-1-2.65-.58-2-1.16-4-1.8-5.94-.29-.87-.58-1.73-.89-2.6a41.08,41.08,0,0,0-1.66-4,15.77,15.77,0,0,0-2.44-3.36,11.94,11.94,0,0,0-5.26-3.07,12.17,12.17,0,0,0-6.34,0Z" transform="translate(0.04 0)"/><path class="cls-2" d="M349.08,413.56a10,10,0,0,0-5.89,4.52,10.82,10.82,0,0,0-1,8.4c.12.42.26.83.42,1.24.29.83.61,1.65.93,2.47,1,2.46,2,4.9,3.08,7.32,1.25,2.85,2.67,5.63,4,8.47,1.11,2.82,2.07,5.71,3,8.61,1,3.4,1.86,6.87,3,10.25.55,1.64,1.14,3.28,1.66,4.93s1,3.45,1.45,5.18c.87,3.35,1.87,6.66,2.59,10,.17.85.35,1.7.53,2.55h0c-.31,4.48-.68,9-1.22,13.42-.33,2.14-.73,4.27-1.26,6.37-.24.93-.51,1.84-.81,2.76a7.7,7.7,0,0,0-1.89,9.93,7.59,7.59,0,0,0,3.39,3,2.09,2.09,0,0,0,1.83,3.66,6.36,6.36,0,0,0,1.21-.4,5.17,5.17,0,0,0,1.32-1,3.78,3.78,0,0,0,.64-.9h.51a9.58,9.58,0,0,0,6.85-2.74A11.71,11.71,0,0,0,376,518a57.08,57.08,0,0,0,2.69-6.53,63.55,63.55,0,0,0,2.25-12.76c.38-3.43.69-6.86.9-10.31a29,29,0,0,0,0-4.75,23.31,23.31,0,0,0-.91-5.11c-.24-.73-.3-1.51-.47-2.26-.36-1.5-.58-3-.88-4.54-.67-3.48-1.75-6.84-2.68-10.26-.77-2.82-1.47-5.67-2.29-8.48s-1.8-5.48-2.68-8.23c-1.78-5.58-3.92-11-6.18-16.43l.08.19c-.89-2.12-1.74-4.26-2.72-6.35-1.75-3.75-4.36-7.76-8.67-8.73a9.88,9.88,0,0,0-5.23,0Z" transform="translate(0.04 0)"/><path class="cls-2" d="M371.65,470.47h-.07a9.23,9.23,0,0,0-8.89,6.77,11.31,11.31,0,0,0-.35,3.38,9.06,9.06,0,0,0-1.25,4.54,23.22,23.22,0,0,0,.55,3.71.9.9,0,0,0,.05.36c.21,1.62.4,3.25.61,4.88.05.4.1.8.16,1.2-.31-.8-.63-1.59-1-2.38a13,13,0,0,0-1.49-2.8,4,4,0,0,0-1-1,3.19,3.19,0,0,0-1.56-.47,2.07,2.07,0,0,0-1.8,1,5.11,5.11,0,0,0-.64,2.47c-.07.57-.11,1.13-.16,1.7a2.11,2.11,0,0,0,2.09,2.09h.27c.25,1.16.47,2.32.71,3.48.43,2.16.87,4.31,1.32,6.47.8,3.83,1.48,7.65,2,11.52.18,1.54.32,3.08.41,4.63s.1,3.39.25,5.09a10.09,10.09,0,0,0,.12,1.09,18,18,0,0,0,.36,2.3,6.94,6.94,0,0,0,1.73,2.9,6.14,6.14,0,0,0,2.58,1.54c-.09,1.11-.17,2.22-.25,3.33-.1,1.4-.21,2.81-.37,4.2-.81,5.36-1.91,10.68-3,16-.63,3.15-1.53,6.23-2.23,9.37-.61,2.78-1.29,5.54-2.12,8.27-.49,1.6-1.06,3.18-1.63,4.75-.68,1.85-1.27,3.72-1.91,5.57-1.14,3.28-2.39,6.53-3.72,9.74a71,71,0,0,1-7.26,13c-.82,1-1.68,1.89-2.55,2.81-1.25,1.32-2.41,2.81-3.74,4.07h-.06a9.31,9.31,0,0,0,7.17,17,22.79,22.79,0,0,0,5.57-2.18,29.1,29.1,0,0,0,3.79-2.94c1.22-1,2.39-2.15,3.51-3.32a53.93,53.93,0,0,0,4.1-5.06c.93-1.23,1.79-2.52,2.62-3.83,3.89-6.16,6.29-13.11,8.65-20,1-3,2-6.07,3-9.08.92-2.65,1.8-5.26,2.48-8s1.11-5.74,1.79-8.59c.39-1.61.84-3.2,1.22-4.81s.64-3.17,1-4.75c.66-3,1.19-6.07,1.79-9.1a74.68,74.68,0,0,0,1.32-10.32c.06-1.27.06-2.55,0-3.82s-.2-2.64-.22-4c0-3.31.35-6.6.29-9.91-.05-2.23-.1-4.47-.25-6.7-.18-2.65-.52-5.28-.79-7.92V502c-.06-1.71-.24-3.4-.46-5.1-.32-2.35-.57-4.72-1-7.06-.54-3.25-1.48-6.42-2.15-9.64a16.42,16.42,0,0,0-1.81-5.36,9.38,9.38,0,0,0-7.59-4.58Z" transform="translate(0.04 0)"/><path class="cls-2" d="M332.18,380.47a7.06,7.06,0,0,0-2.45,1.88,13.8,13.8,0,0,0-3,5.34,24.22,24.22,0,0,0-.86,5.41,24.26,24.26,0,0,1-1.27,4.42c-.05.12-.11.24-.16.37a8.59,8.59,0,0,0-2.4,1l-1.65,1.28a8.12,8.12,0,0,0-2.1,3.59,9.84,9.84,0,0,0-.3,2.53,9.19,9.19,0,0,0,1.18,4.34,9.71,9.71,0,0,0,1.51,2.08,10.36,10.36,0,0,0,2,1.62l.93.44c1.82,2.49,3.47,5.1,5.07,7.74,1.9,3.12,3.71,6.34,5.37,9.59,1.49,2.93,5.29,4.24,8.35,3.4a7.48,7.48,0,0,0,2.83-1.52c.47,1.19.93,2.38,1.33,3.6s.86,2.47,1.24,3.73c.08.47.16.93.25,1.39s.15.87.24,1.3a14.27,14.27,0,0,0,1.15,3.31,7.18,7.18,0,0,0,7,3.51l.51,1.37a81.55,81.55,0,0,1,3.11,9.65c.65,2.64,1.3,5.27,2,7.91.62,2.47,1.05,5,1.56,7.49,1,5.13,1.88,10.32,2.63,15.5.21,1.75.37,3.51.57,5.26.3,2.61.72,5.2,1.11,7.81a113.09,113.09,0,0,1,.43,11.35v6.59a43.88,43.88,0,0,1-.42,5.25c-.43,2.88-1,5.75-1.6,8.59-.71,3.06-1.62,6.08-2.33,9.14-.77,3.31-1.56,6.6-2.53,9.85-.77,2.59-1.73,5.13-2.75,7.64-2.8,6.35-6,12.51-9.25,18.64A104.6,104.6,0,0,1,344,592c-2,3-4.15,6-6.15,9-1.17,1.77-2.36,3.51-3.62,5.21a33,33,0,0,1-2.61,2.94c-1.25,1.2-2.49,2.41-3.74,3.6a6.81,6.81,0,0,0,3,11.38,6.59,6.59,0,0,0,5.24-.69,123.32,123.32,0,0,0,10.09-7.85,80.65,80.65,0,0,0,7.35-8c2.85-3.25,5.56-6.61,8.08-10.13,2.1-2.93,3.87-6.1,5.71-9.21s3.57-6.09,5.12-9.27c1.91-3.91,3.63-7.91,5.2-12,2.63-6.81,3.93-14,5.84-21a103.36,103.36,0,0,0,2.27-10.59,105,105,0,0,0,1.39-12.87c.11-3.36.05-6.73,0-10.08a91.4,91.4,0,0,0-1.26-13c-.06-.37-.12-.74-.17-1.11-.14-1.24-.26-2.47-.38-3.71-.25-2.46-.59-4.92-.94-7.37-.5-3.43-1-6.86-1.56-10.28-.48-3-1.08-5.93-1.66-8.9s-1.41-5.89-2.16-8.84c-.44-1.72-.82-3.43-1.35-5.13s-1.15-3.33-1.76-5c-1.37-3.73-2.91-7.4-4.48-11.06q-1.15-2.85-2.16-5.78c-.91-2.65-1.88-5.28-2.69-8a69.19,69.19,0,0,0-4-9.68c-1.2-2.5-2.5-4.92-3.58-7.47l.43,1a111,111,0,0,0-4.82-10.24c-.82-1.5-1.59-3-2.48-4.5-.48-.79-.92-1.6-1.32-2.42l-.3-1a18.71,18.71,0,0,0-1.77-4.05c-1.83-3-5-5.81-8.58-6.4a26.68,26.68,0,0,0-2.81-.37H337a10.91,10.91,0,0,0-4.73,1.36Z" transform="translate(0.04 0)"/><path class="cls-2" d="M112.32,548.11a16.28,16.28,0,0,0-5.77,6.22,19.92,19.92,0,0,0-2,5.81c-.08.44-.14.89-.21,1.33a7.54,7.54,0,0,0-1.75,5v.78c-.32,1.24-.8,2.44-1.15,3.68-.49,1.69-.88,3.4-1.21,5.13-.25,1.39-.49,2.79-.75,4.18A18.54,18.54,0,0,0,91,578.09a17.89,17.89,0,0,0-9.08,2.46c-3.83,2.24-7.3,6.31-8.26,10.74-.38,1.77-1,3.48-1.28,5.26a46.57,46.57,0,0,0-.87,10.2A92.75,92.75,0,0,0,72.68,617a32.52,32.52,0,0,0,1.2,4.76,105.62,105.62,0,0,0,4.73,12,58.35,58.35,0,0,0,4.57,7.73c1.87,2.77,3.65,5.59,5.45,8.41,2.33,3.64,4.49,7.3,7.49,10.47.58.6,1.16,1.2,1.79,1.75a20.12,20.12,0,0,0,4.51,3.32,25.93,25.93,0,0,0,4.73,1.85,31.89,31.89,0,0,0,5.24.71,28.81,28.81,0,0,0,7.18-.4c1-.11,1.9-.23,2.85-.38,1.81-.28,3.42-1.33,5.09-2.07a6.54,6.54,0,0,0,1.37-.82,21.17,21.17,0,0,0,3.86-3.21,39.33,39.33,0,0,0,3-3.91c.37-.58.74-1.16,1.12-1.74a33.47,33.47,0,0,0,2.94-6.16,18,18,0,0,0,.72-2.26,15.72,15.72,0,0,0,.66-5.62,44.76,44.76,0,0,0-.79-5.4c-.13-.5-.23-1-.31-1.52s-.14-.75-.23-1.13a10.81,10.81,0,0,1-.09-1.32,78.47,78.47,0,0,0-1.2-8.91c-.24-1.29-.51-2.57-.77-3.84s-.7-2.65-1-4l-.12-1.69c0-.58-.07-1.16-.11-1.75l.06-1c.1-1.48.06-3,.07-4.45s.1-2.71.11-4.07v-8.07c0-1.68-.09-3.33-.18-5s0-3,0-4.55c0-2.07-.13-4.13-.09-6.19l.06-.23a33,33,0,0,0,.86-6.33,41.21,41.21,0,0,0,.28-4.84,10.61,10.61,0,0,0-.16-1.49c-.19-1.43-.33-3.06-.64-4.55a20,20,0,0,0-1.74-4.36,31.89,31.89,0,0,0-2.31-3,20.86,20.86,0,0,0-2.79-2.17,16.15,16.15,0,0,0-3.92-3.5,13,13,0,0,0-6.93-1.93,12.73,12.73,0,0,0-6.89,1.93Z" transform="translate(0.04 0)"/><path class="cls-2" d="M72,616.39a16.4,16.4,0,0,0-5.85,5.85h0v.07a16,16,0,0,0-1.59,3.76,14.79,14.79,0,0,0-.64,4.58,4.91,4.91,0,0,1,.07.86,2.79,2.79,0,0,0,.08.81,13.89,13.89,0,0,0,.54,3,19.77,19.77,0,0,0,2.28,4.91c1.24,1.72,2.57,3.38,3.9,5,1.18,1.57,2.38,3.13,3.69,4.6.49.55,1,1.07,1.52,1.62a33.6,33.6,0,0,0,5.37,6.35,68.64,68.64,0,0,0,6.54,4.72l1.17.77a18.49,18.49,0,0,0,3.34,2.19A26.11,26.11,0,0,0,98.78,668l2.55.54c.41.08.81.17,1.23.23,1.64.23,3.32.55,5,.64a13.75,13.75,0,0,0,3-.29h.11q2.79-.21,5.56-.69a19,19,0,0,0,5.31-2.23,17.67,17.67,0,0,0,2.6-1.14,15.74,15.74,0,0,0,7.36-9.43,14.63,14.63,0,0,0-10.26-18l-3.9-.55a14.87,14.87,0,0,0-3.92.53,6,6,0,0,0-1.74.54c-.42-.22-.83-.44-1.23-.7l-.38-.23a10.23,10.23,0,0,0-1.15-1.13c-.9-.75-1.82-1.44-2.75-2.12-.61-.77-1.24-1.52-1.88-2.25-1.07-1.23-2.08-2.5-3.17-3.7a22.61,22.61,0,0,0-4.29-3.7c-.89-1-1.73-2-2.66-3-2.67-2.79-5.71-5.68-9.64-6.5l-4.34-.58A16.25,16.25,0,0,0,72,616.38Zm41.27,22.53,1.91.25L113.3,639h-.06Z" transform="translate(0.04 0)"/><path class="cls-2" d="M87.72,373c-.68.1-1.36.25-2,.41a7.73,7.73,0,0,0-1,.38c-.84.35-1.69.7-2.52,1.08A16.48,16.48,0,0,0,80,376c-1.12.74-2.17,1.59-3.22,2.43a12.73,12.73,0,0,0-1.81,1.71A30,30,0,0,0,72.74,383a14,14,0,0,0-1.17,2.62l-.32.75a7.73,7.73,0,0,0-.36,2.13,4.5,4.5,0,0,0,.23,1.82,6,6,0,0,0,4.23,4.19,6.61,6.61,0,0,0,3.42,0,9.39,9.39,0,0,0,4.28-2.65c.6-.57,1.21-1.13,1.78-1.72.77-.8,1.59-1.55,2.39-2.32s1.6-1.75,2.47-2.55A25.25,25.25,0,0,0,91.91,383a23.2,23.2,0,0,0,2.64-3.05,4.67,4.67,0,0,0,.47-3.58l-.47-1.11a4.61,4.61,0,0,0-1.67-1.67,5.55,5.55,0,0,0-3-.81h-.25a13.64,13.64,0,0,0-1.92.26Z" transform="translate(0.04 0)"/><path class="cls-2" d="M90.39,365.75a11,11,0,0,0-1.47.19,5.21,5.21,0,0,0-2.3,1.34,2.13,2.13,0,0,0-.3.3,6.65,6.65,0,0,0-.85.41,11.56,11.56,0,0,0-2.4,1.89c-.68.68-1.33,1.36-2.06,2a20.14,20.14,0,0,0-1.74,1.44l-1.93,1.87a25.41,25.41,0,0,0-2.12,2.16c-.7.87-1.45,1.7-2.18,2.53-3.1,3.55-5.53,7.62-8.35,11.37a43.44,43.44,0,0,0-3,4.46c-.52.93-1,1.9-1.48,2.83-.28.5-.55,1-.8,1.52l-.12.15a31.71,31.71,0,0,0-2.58,4,61.77,61.77,0,0,0-2.8,5.65l-.7,1.07A29.28,29.28,0,0,0,51,414.59a6.83,6.83,0,0,0-1,3.13,3.8,3.8,0,0,0,2.69,3.54,3.47,3.47,0,0,0,2.86-.36A5.6,5.6,0,0,0,57,419.4l.36-.5,1-1.41a32.51,32.51,0,0,0,1.79-3c.63-1.21,1.34-2.36,2-3.54a59.25,59.25,0,0,1,3.3-5.3c.72-.89,1.48-1.74,2.23-2.61,1.2-1.38,2.22-2.92,3.35-4.37,1.77-2.31,3.36-4.77,5.11-7.09l.38-.48A8.72,8.72,0,0,0,76.8,394a5.58,5.58,0,0,0,1,2.41,8.83,8.83,0,0,0,3.12,3.13,9.63,9.63,0,0,0,4.6,1.27,25.16,25.16,0,0,0,2.61-.34,22.1,22.1,0,0,0,3-1.3c.56-.34,1.11-.71,1.64-1.1s1.2-.76,1.82-1.12c1.21-.71,2.47-1.36,3.63-2.15a18.34,18.34,0,0,0,2.46-1.93,7.85,7.85,0,0,0,2.24-7.79,8,8,0,0,0-3.43-4.48,11.24,11.24,0,0,0,.4-2.64,9,9,0,0,0-1.13-4.53,8.56,8.56,0,0,0-1.58-2.06c-.17-.18-.36-.33-.54-.49s-.2-.41-.31-.6a8.29,8.29,0,0,0-.81-1.13l-.27-.44a6.23,6.23,0,0,0-2.13-2.17,5.21,5.21,0,0,0-2.55-.74Zm-.07,0Z" transform="translate(0.04 0)"/><path class="cls-2" d="M88.14,375.3a1.13,1.13,0,0,0-.4,1.53c.25.45.45.92.69,1.38a16,16,0,0,0,1,1.57c.72,1,1.35,2.08,2,3.13a27.3,27.3,0,0,0,2.46,3.21c.76.88,1.61,1.7,2.34,2.61.22.28.45.56.69.82a2,2,0,0,0,2.37.31,2.07,2.07,0,0,0,.7-.71,1.92,1.92,0,0,0,.2-1.5,4.07,4.07,0,0,0-.38-.82,4.5,4.5,0,0,0-.61-.7l-.75-.67c-.57-.51-1.16-1-1.73-1.54a31.8,31.8,0,0,1-2.93-3.31,28.71,28.71,0,0,0-2-2.41c-.37-.38-.73-.76-1.08-1.16s-.56-.6-.82-.91a3.78,3.78,0,0,1-.26-.43,1.13,1.13,0,0,0-1.53-.4Z" transform="translate(0.04 0)"/><path class="cls-2" d="M88.89,368a3.27,3.27,0,0,0-.11,2.72c.11.3.22.6.32.9.27.75.56,1.49.87,2.23s.91,1.59,1.34,2.41l.09.34a6.37,6.37,0,0,0,.39,1.78,10.55,10.55,0,0,0,1.1,2l.81,1.15a12.9,12.9,0,0,0,2.38,2.67,20,20,0,0,0,1.8,1.25,12.56,12.56,0,0,1,1.27.89h0c.89.69,1.79,1.37,2.75,2s2.16,1.33,3.23,2,1.89,1.29,2.84,1.93l1.44,1a5,5,0,0,0,2.7,1.2,2.44,2.44,0,0,0,2.1-1.21,1.62,1.62,0,0,0,.17-.35c.47.31.93.61,1.38.94.9.7,1.82,1.39,2.75,2.06.72.52,1.47,1,2.2,1.53,1.28.91,2.58,1.79,3.92,2.61,1,.64,2.11,1.24,3.15,1.87.46.29.9.61,1.37.88a13.12,13.12,0,0,0,1.67.75,5.15,5.15,0,0,0,2.78.08,4,4,0,0,0,1.8-1,4.08,4.08,0,0,0,1.19-2.88c0-2.41-2-4.42-4-5.44-.48-.24-1-.43-1.46-.68-.78-.39-1.55-.73-2.35-1.07l.76.32c-1.43-.61-2.7-1.49-4.1-2.15a32.62,32.62,0,0,1-4.8-2.76,24.77,24.77,0,0,0-2.9-1.82,16.49,16.49,0,0,1-1.88-1.06c-.75-.52-1.45-1.12-2.2-1.65s-1.37-1-2-1.47c-.86-.68-1.71-1.37-2.6-2-.49-.35-1-.66-1.5-1a11.71,11.71,0,0,1-1.21-1.05c-.4-.35-.94-.77-1.42-1.15h0c-.86-.67-1.66-1.4-2.46-2.15s-1.39-1.15-2.06-1.75-1.17-1.09-1.75-1.65l-.86-.85a10.79,10.79,0,0,0-1.2-.94c-.52-.43-1-.89-1.56-1.31a6.41,6.41,0,0,0-1.59-.8l-1.08-.48a2.66,2.66,0,0,0-1-.2A2.71,2.71,0,0,0,89,368Zm15.42,8.33.25.19Z" transform="translate(0.04 0)"/><path class="cls-2" d="M133.48,426.29a7.81,7.81,0,0,0-2.8,10.68h0c.41.53.81,1.06,1.22,1.58a7.91,7.91,0,0,0,3.45,2c1.59.24,3.14.57,4.75.73a20,20,0,0,0,3.63-.11l2.07-.28a7.82,7.82,0,0,0,3.44-13.06,7.53,7.53,0,0,0-5.52-2.29,25.12,25.12,0,0,1-3,.15l-1.18-.2-2.08-.28a7.79,7.79,0,0,0-4,1.07Z" transform="translate(0.04 0)"/><path class="cls-2" d="M127.76,393.9c-2.09.35-3.85,2.69-3.14,4.81a7.24,7.24,0,0,0,2.92,3.36,21.56,21.56,0,0,0,3,1.69c1.21.64,2.35,1.39,3.55,2,.6.31,1.21.59,1.83.86,1.14.49,2.47,1.26,3.75.76a3.36,3.36,0,0,0,.91-.4c1.9.83,3.81,1.63,5.73,2.42h0l.27.12-.22-.1,2.47,1c2.34,1,4.71,2,7.07,2.9,2,.81,4.06,1.68,6.14,2.34,1.86.58,3.75,1.08,5.57,1.78.69.27,1.39.48,2.1.7.93.28,1.84.65,2.79.91s2,.44,3,.7l2.52.67c1.38.36,2.72.87,4.13,1.15s2.94.49,4.41.73c3.15.51,6.33.94,9.46,1.53,1.71.33,3.37.73,5,1.18s3.44,1,5.19,1.39a5.14,5.14,0,0,0,2.75,0,5.2,5.2,0,0,0,3.63-6.38,5,5,0,0,0-2.4-3,67.11,67.11,0,0,0-6.3-2.59,50,50,0,0,0-5.21-1.78c-1.79-.45-3.6-.83-5.39-1.24s-3.31-.73-5-1a42.12,42.12,0,0,1-4.72-1c-1.22-.35-2.42-.71-3.64-1-1-.27-2-.55-3-.77s-2.08-.59-3.12-.9a34.3,34.3,0,0,0-4.71-1c-2.08-.32-4.11-.86-6.15-1.38s-4.29-1.18-6.45-1.72c-1.11-.28-2.18-.65-3.26-1s-2.32-.71-3.48-1.08c-1.47-.47-3-.89-4.41-1.38-1.2-.4-2.4-.87-3.58-1.35-1.67-.71-3.34-1.45-5-2.15l1,.44a12.72,12.72,0,0,0-2-.77c-.28-.06-.56-.11-.85-.15a18.85,18.85,0,0,1-2.22-.53,19.21,19.21,0,0,0-2.21-.76,8.68,8.68,0,0,0-1.44-.15,7,7,0,0,0-1.37.14Zm14.37,4.1.58.25Z" transform="translate(0.04 0)"/><path class="cls-2" d="M101.38,444a7.82,7.82,0,1,0,7.83-7.81h0A7.89,7.89,0,0,0,101.38,444Z" transform="translate(0.04 0)"/><path class="cls-2" d="M228.69,468.79c-1.45,0-2.9,0-4.35.06s-3,.19-4.45.29c-1.24.08-2.48.13-3.73.25-1.57.15-3.12.35-4.68.58-2.15.34-4.28.74-6.4,1.24s-4.24.91-6.33,1.51-4.16,1.33-6.24,2-4.27,1.47-6.37,2.28c-2.64,1-5.3,1.94-7.87,3.14-1.23.58-2.42,1.22-3.59,1.92-1.38.82-2.69,1.75-4.09,2.53s-2.68,1.43-4,2.25-2.45,1.67-3.68,2.49-2.74,1.74-4.08,2.63a58.77,58.77,0,0,0-4.78,3.52,37.41,37.41,0,0,0-3.49,3.29c-1.43,1.55-2.7,3.24-4,4.91-1.1,1.44-2.17,2.91-3.25,4.36a42.4,42.4,0,0,0-2.9,4.16,4.78,4.78,0,0,0,4.13,7.19,5,5,0,0,0,3.38-1.4c1-.9,1.93-2,2.86-2.94s1.62-1.78,2.43-2.66c1-1.1,2-2.18,3.12-3.22.8-.78,1.65-1.51,2.51-2.23,2.19-1.6,4.49-3,6.8-4.43,1.26-.77,2.54-1.53,3.77-2.35s2.34-1.64,3.53-2.44,2.45-1.52,3.71-2.23,2.54-1.62,3.81-2.43a42,42,0,0,1,5.78-3.06c1.44-.6,2.88-1.19,4.3-1.84,1-.48,2-1,3.08-1.43l5-2c1-.37,1.92-.69,2.88-1s1.84-.63,2.78-.87,2-.43,2.93-.64,2.07-.49,3.1-.71c1.81-.39,3.65-.73,5.48-1,1-.12,2-.23,2.92-.29,1.75-.1,3.5-.26,5.26-.32s3.39,0,5.09,0a25.4,25.4,0,0,1,3.8.19c1,.14,2,.27,3,.36.8.08,1.61.14,2.41.23a32.5,32.5,0,0,0,5.82.55c.94,0,1.89-.17,2.84-.24,1.31-.1,2.61-.26,3.9-.44a29.15,29.15,0,0,1,3.74-.07c1.35,0,2.69.09,4,.17s2.74.14,4.11.09c1.16-.05,2.32-.22,3.48-.35a1.65,1.65,0,0,0,1.62-1.62,1.63,1.63,0,0,0-1.62-1.62,14,14,0,0,1-2.59.06,41.55,41.55,0,0,1-5.65-1.77c-1.91-.64-3.87-1.18-5.74-1.92-.81-.35-1.62-.71-2.41-1.11a27.42,27.42,0,0,0-3.47-1.52,45.8,45.8,0,0,0-4.45-1.23,41.1,41.1,0,0,0-9.58-.88h-3.58Z" transform="translate(0.04 0)"/><path class="cls-2" d="M329.88,376.81a18.94,18.94,0,0,0-2.48.25,5.45,5.45,0,0,0-.8.18,10.88,10.88,0,0,0-2.93.63l-.85.31h-.27a11.59,11.59,0,0,0-3.55,1.26l-.25.08c-.61.21-1.25.39-1.86.61a50.64,50.64,0,0,0-4.82,2.3l-.4.2c-.92.34-1.87.63-2.8.94-1.66.57-3.25,1.31-4.86,2l-2.88,1.18.58-.24c-1.65.69-3.32,1.33-5,2.08-1.13.51-2.25,1.05-3.38,1.55-1.32.54-2.65,1.08-4,1.53-1.62.53-3.22,1.14-4.82,1.76-1.29.49-2.57,1-3.85,1.52l-2.07.82c-.85.35-1.68.74-2.52,1.11-1.65.65-3.31,1.27-5,1.9-1.87.71-3.7,1.51-5.53,2.29s-3.64,1.48-5.47,2.18a31.06,31.06,0,0,1-2.95,1c-1.27.37-2.59.61-3.89.92-3,.72-6.11,1.35-9.15,2.17s-6.32,1.72-9.46,2.68a45.13,45.13,0,0,0-6.17,2.37,14,14,0,0,0-2.22,1.43c-1.16.88-2.34,1.74-3.43,2.7a5.1,5.1,0,0,0,2.25,8.53,5.41,5.41,0,0,0,3.94-.51c1.45-.73,2.86-1.54,4.33-2.23s2.84-1,4.29-1.46c1.64-.51,3.27-1.05,4.92-1.53,3.1-.9,6.2-1.84,9.31-2.72,2.69-.76,5.38-1.53,8-2.41,1.92-.63,3.79-1.44,5.65-2.22,1-.41,2-.78,2.95-1.18s2.2-1,3.29-1.43c1.54-.62,3.1-1.16,4.64-1.78.87-.35,1.75-.67,2.62-1,1.09-.45,2.16-1,3.24-1.43,1.54-.64,3.09-1.27,4.62-1.92s3-1.33,4.44-2c.87-.34,1.75-.63,2.61-1q2.19-.87,4.35-1.81c1.81-.79,3.57-1.72,5.39-2.49l-.76.32c2.47-1.06,4.91-2.22,7.33-3.4,1.57-.76,3.18-1.44,4.74-2.21,1.22-.59,2.34-1.32,3.5-2l.31-.19a5.39,5.39,0,0,0,1.56-.51l.23-.1c.64-.26,1.3-.5,1.94-.77.89-.38,1.76-.8,2.64-1.19s1.59-.6,2.34-1a1.15,1.15,0,0,0,.37,0h0a9.86,9.86,0,0,1,1.53.12c1.08.16,2.16.37,3.24.57a30.86,30.86,0,0,1,4.45,1.13c1,.48,2,1.06,3,1.54a8.47,8.47,0,0,0,3.32,1.07,3.44,3.44,0,0,0,2.54-1,3.29,3.29,0,0,0,.83-3.28,13.65,13.65,0,0,0-1.21-2.3c-.16-.26-.35-.5-.5-.77a3.73,3.73,0,0,0-.82-1.29,3.26,3.26,0,0,0-1.23-.84c-.54-.25-1.1-.46-1.65-.68-1.06-.46-2.13-.9-3.22-1.32-.58-.22-1.18-.43-1.78-.62a12.62,12.62,0,0,0-2.72-.48c-.64-.05-1.29-.07-1.94-.07h-1.86Z" transform="translate(0.04 0)"/><path class="cls-5" d="M322.12,200.82c-18.73,8.77-28,33.54-19.68,52.46a40.09,40.09,0,0,0,43.77,23.3,40,40,0,0,0,11.58-4C376.1,263,384.23,237.8,375,219.28c-6.75-13.59-22-21.9-37-21.9a37.32,37.32,0,0,0-15.88,3.44Zm8,52.8a19.23,19.23,0,0,1-8.33-8.66c-2.44-5.07-2.08-11.45.94-17.05s8.14-9.39,13.72-10.15a15.4,15.4,0,0,1,2.17-.15A19.79,19.79,0,0,1,353.37,225,18.6,18.6,0,0,1,357.85,240a15.53,15.53,0,0,1-1.27,4,19.76,19.76,0,0,1-8.09,8.63,20.92,20.92,0,0,1-10.45,2.9,16.78,16.78,0,0,1-7.94-1.91Z" transform="translate(0.04 0)"/><path class="cls-5" d="M92.08,204.75c-14.91,9.12-22.59,28.6-17.93,45.45S95.41,279.81,112.89,280c16.69.16,32.9-11.1,38.57-26.8s.42-34.72-12.52-45.27A41,41,0,0,0,113.09,199a40.24,40.24,0,0,0-21,5.75Zm2.77,48.34a19.65,19.65,0,0,1-4.45-16.26c1.8-8.8,10.75-15.69,20.36-15.69a17.62,17.62,0,0,1,7.07,1.43,20.82,20.82,0,0,1,8.3,29.78,20,20,0,0,1-16.2,8.39,19.69,19.69,0,0,1-15.08-7.65Z" transform="translate(0.04 0)"/><path class="cls-6" d="M110.76,221.14c-9.61,0-18.56,6.89-20.36,15.69a20.84,20.84,0,0,0,19.53,23.91,20,20,0,0,0,16.2-8.38,20.83,20.83,0,0,0-8.3-29.79,17.59,17.59,0,0,0-7.07-1.43Z" transform="translate(0.04 0)"/><path class="cls-6" d="M338.6,217.61a15.4,15.4,0,0,0-2.17.15c-5.58.76-10.71,4.56-13.73,10.15s-3.36,12-.93,17.06a19.26,19.26,0,0,0,8.33,8.65,16.78,16.78,0,0,0,7.94,1.91c9.41,0,18.3-7,19.81-15.5A18.58,18.58,0,0,0,353.37,225a19.76,19.76,0,0,0-14.77-7.36Z" transform="translate(0.04 0)"/></svg>