<svg id="Draw_Layer" data-name="Draw Layer" xmlns="http://www.w3.org/2000/svg" viewBox="0 0 1117 1529.12"><defs><style>.cls-1{fill:#2c2c2c;}.cls-2{fill:#bebebe;}.cls-3{fill:#725af7;}.cls-4{fill:#03c3eb;}.cls-5{fill:#161616;}.cls-6{fill:#fefefe;}</style></defs><title>Basic_hedgehog</title><path class="cls-1" d="M807.2,315.9c-64.9-13.6-135.9,6.9-183.6,53l56.8,15.8a258.78,258.78,0,0,0-82.5,129.9,107.66,107.66,0,0,1,53-6.5,276.9,276.9,0,0,0-76.4,118.1c-2,6.2-3.1,14.5,2.5,17.8,2.8,1.7,6.3,1.3,9.6.9l65.8-8.7a468.68,468.68,0,0,0-85.7,164.4c-1.9,6.4-3.6,13.4-1.2,19.7s10.7,10.6,16,6.6a128.92,128.92,0,0,1,68-24.8c-50.1,64.2-76.3,146.5-72.6,227.8a229.85,229.85,0,0,1,57.8-37.1,353,353,0,0,0-45.9,185.7,243,243,0,0,1,107.7-53.9c11.8-2.5,24.3-4.2,35.9-.6s21.9,13.5,22.4,25.6a165,165,0,0,0,21,73.5c6,10.6,14,21.2,25.8,24.4,21.4,5.8,40.2-15.3,50-35.1a243.42,243.42,0,0,0,25.2-112.8c-.3-14.7,12.6-26.9,26.7-30.9s29.1-1.7,43.6.7a593.2,593.2,0,0,0,26.1,133.9c5.1,16,11.1,32.3,22.4,44.8s29.1,20.4,45.2,15.6c16.4-4.8,26.9-21,32-37.3s6.3-33.6,11.9-49.7c17.3-49.9,81.1-77.5,129.3-56,10.3,4.6,16.7-11.6,16-22.9a499.14,499.14,0,0,0-25.3-130.9,46,46,0,0,1,31.3,8.7c8.3,6.2,21.1-1.1,24.2-10.9s-.1-20.5-3.3-30.4q-18.15-54.9-36.4-109.9l38.7,6.9a370.48,370.48,0,0,0-62.4-151.9,55.18,55.18,0,0,1,50.2-18.5c10.4,1.7,12.2-14.5,8.8-24.4A284.1,284.1,0,0,0,1188,529.2l33-20.9c3.3-2.1,6.8-4.5,7.5-8.3.6-3.5-1.5-6.9-3.5-9.8a349.65,349.65,0,0,0-110.9-101.5l59.2-52.1a333.82,333.82,0,0,0-199.7-9.5c11.2-19.5,22.3-39,33.5-58.4-46.4-.9-92.9,18.3-125.2,51.6a131.32,131.32,0,0,0-89.3-55.2,300.58,300.58,0,0,0,14.6,50.8ZM805,277.4h0a136.76,136.76,0,0,1,73.2,53.3c1.2,1.7,2.2,3.3,3,4.6l.1.2.1.1a168.84,168.84,0,0,1,84.4-52.9,166.6,166.6,0,0,1,19.9-3.9l.9-.1c1.1-.1,2.2-.3,3.2-.4h0a179.63,179.63,0,0,0-23.8,37c-3,6.2-3,15.4-.1,20.1a6.14,6.14,0,0,0,5.3,3.1,6.93,6.93,0,0,0,2-.3,334.91,334.91,0,0,1,166.7-.5q6.45,1.65,11.7,3.3l.7.2.8.3h.1l-6.4,5.1-32.2,25.8c-4.8,3.9-9,7.5-10.3,12.7-3.2,12.3,10.9,21.2,21.8,26.9a207.65,207.65,0,0,1,77.8,70.5c3,4.5,5.8,9.2,8.3,13.8.8,1.3,1.3,2.5,1.9,3.5l.4.8h0c-10.1,1.8-22.7,3.9-31.3,11.9a24.14,24.14,0,0,0-7.4,18.1,15.62,15.62,0,0,0,5.7,11.8q5.55,4.35,10.5,9a18.48,18.48,0,0,1,1.4,1.4l.2.2h0l-.1-.1.1.1h0l-.1-.1v0h0a168.8,168.8,0,0,1,45.8,74.9c1.1,3.6,2.1,7.4,2.9,11.3v.1a77.69,77.69,0,0,1,1.5,8.3v.3H1240c-12.7,0-27.2.6-38.7,7.8a31.16,31.16,0,0,0-13.9,20.8,20.14,20.14,0,0,0,3.8,16.4,259,259,0,0,1,51,105.3c1.2,5.4,2.2,10.6,3,15.5l.2,1.2c.1.4.1.8.2,1.2h0c-5.5-2.6-13.8-6.1-21.3-6.1-4.7,0-8.6,1.3-11.6,4-12.1,10.4-2.2,29.5,6.3,43a171,171,0,0,1,26.7,93.8c-.1,4.3-.3,8.5-.6,12.3v.3a2,2,0,0,1-.1.7h0c-8.8-6.3-16.8-11.7-26.1-13.4a24.87,24.87,0,0,0-4.7-.4c-9.3,0-17.3,4.4-20.4,11.4-4,8.8.2,19.1,4,28.1v.1a271,271,0,0,1,20.5,104.4c0,3.5-.1,6.8-.3,9.6a2.2,2.2,0,0,1-.1.8v.3h0a109.65,109.65,0,0,0-38-6.5c-26.9,0-54.2,9.5-74.8,26.1-2.8,2.3-5.7,4.8-8.6,7.6l-.7.7a15.38,15.38,0,0,0-1.2,1.3h0l1.4-179.4,1.4-178.1c.7-86.5,1.4-184.6-32.5-271l-.6-1.5c-10-25.4-21.3-54.3-5.8-75.9a76.73,76.73,0,0,1,8.6-9.4l.1-.1c3.6-3.5,7.4-7.2,10.1-11.6,4.3-7.2,5.1-16.1,2.3-25.2a39.67,39.67,0,0,0-20.7-24.2,45.38,45.38,0,0,0-19.6-4.1c-12.4,0-25.4,4.3-36.7,12.1-16.6,11.5-28.7,29.1-38.8,44.7A175.54,175.54,0,0,0,879.1,389a180.22,180.22,0,0,0-70.3,14.2l-1.1.5h0c-8.4-22.9-26.6-50.3-51.4-50.3a35.93,35.93,0,0,0-4.7.3c-10.2,1.4-19.1,7.7-25.1,17.7-8.1,13.7-9.7,32.1-4,46.9,2.1,5,4.4,9.9,7,14.7,3,5.8,6.2,11.8,8.2,18.2,4.9,15.6,2.8,32.6.9,47.7L723.8,618l-13,105.1c-10,80.8-20.4,164.3-1.9,245.4,4.7,20.5,11.2,40.8,17.6,60.5v.1l.1.2c8.3,25.6,16.8,52,21.2,79.1.3,2.1.6,3.7.8,5.2v.1h0a189.4,189.4,0,0,0-24.9-1.7A193.19,193.19,0,0,0,611,1148.6c-4.3,3.1-8.6,6.6-13,10.3l-.8.8c-.6.5-1.1,1-1.7,1.5h0a349.61,349.61,0,0,1,51-167.7,7,7,0,0,0,.3-6,9.94,9.94,0,0,0-6.8-5.8,15.26,15.26,0,0,0-3-.3c-4.2,0-8.3,1.8-12.1,3.7a159.94,159.94,0,0,0-34.6,23.5c-1.3,1.1-2.7,2.5-4.8,4.3l-.3.2-.9,1h0c-.5-76.4,28.2-153.2,78.8-210.5a6.24,6.24,0,0,0,1.2-6,10.14,10.14,0,0,0-6.3-6.9,14.87,14.87,0,0,0-4.7-.7c-3.7,0-7.6,1.2-11.4,2.5L575.3,815l-.8.2-.4.1h-.2a456.68,456.68,0,0,1,84.8-172.7c2.9-3.6,5.5-6.8,7.8-9.5l.3-.4.1-.1a124,124,0,0,0-35.8-5.2,128.52,128.52,0,0,0-41.7,7c-1.3.5-2.8,1-4.5,1.6l-.5.2h-.1l-.8.3h0a233.53,233.53,0,0,1,78.8-125.6c2-1.6,3.4-2.7,4.5-3.6l.1-.1h.1a48.55,48.55,0,0,0-31.9-11.5,49.44,49.44,0,0,0-21.7,4.8c-.8.4-1.7.9-3,1.6H610l-.6.4h0A201.8,201.8,0,0,1,683,399.7c4.1-2.9,6-7.7,5.5-13.4-.7-7.7-5.8-15.3-12.4-18.5a34.8,34.8,0,0,0-15.5-3.2,85.58,85.58,0,0,0-19.3,2.7l-1.5.3-.3.1-.2.1q-.6.15-1.5.3h0l-.3.1h0c41-40.8,103-46.3,158.3-46.3,6.5,0,13.8.1,22.9.3l2.4.1h.8A314.05,314.05,0,0,0,805,277.4Zm-48.5,86.1c16,0,32.6,15,37,33.5a24.6,24.6,0,0,0,.7,2.9l.1.3c.8,3.9,1.7,7.9,3.8,11.3s6.1,5.8,9.6,5.8a8.08,8.08,0,0,0,3.4-.8,150.19,150.19,0,0,1,143,4.6,11.49,11.49,0,0,0,6,1.6c4.8,0,10-2.6,13.7-6.7,3.3-3.8,5.6-8.4,7.7-12.9h0V403c.9-1.9,2-4.2,3.2-6.2a61.29,61.29,0,0,1,9.5-12.6,63.55,63.55,0,0,1,25.8-15.7,61.66,61.66,0,0,1,17.6-2.8h2.4c10.6.5,21.4,5.5,27.4,12.9a20.26,20.26,0,0,1,4.8,16c-1.5,9.8-9.4,15.8-17.8,22.1-6,4.5-12.2,9.2-15.9,15.5-7.3,12.4-3.6,28,.9,41.7,4.3,12.9,9.3,25.8,14.1,38.1l.1.2c9.7,25.2,19.8,51.2,24.6,78.1,3.3,18.3,4.1,36.8,4.8,55.8.9,26,1.4,52.4,1.6,78.3.1,20.6-.2,39-5.4,56.7-7.5,25.6-24.4,46.8-41.6,66-12.7,14.1-23.9,25.2-37.5,33.2-7.2,4.2-18.2,9.2-30.4,9.2a42.26,42.26,0,0,1-10.6-1.4c-9.9-2.7-18.3-9.4-24.4-19.4a58.76,58.76,0,0,1-8.4-31.4c.1-7.3,1.2-16.2,5.9-28.6a169.66,169.66,0,0,1,10.6-22.4c1.7-3,3.5-6.2,5.5-9.5,1.8-3,3.8-6.1,5.5-8.9l.2-.2c9.5-15.2,19.3-31,24.4-48.4,3.3-11.5,4.5-25.8,1.1-39v-.2a47,47,0,0,0-2.9-8.2,45.36,45.36,0,0,0-9.2-13.6c-10.2-10.4-26.2-16.4-47.5-17.7-3.1-.2-6.2-.3-9.2-.3-15.9,0-29.8,2.8-41.4,8.4a61.57,61.57,0,0,0-12.4,7.8,62.79,62.79,0,0,0-8.3,8l-.1.1h0A50,50,0,0,0,837.3,687c-3.7,18,3.7,36.7,9.7,51.8L857.8,766l10.7,27.2c4.7,11.8,9.5,24,10.6,36.9,1.2,14.4-3,27.4-11.6,35.4-6.4,6.1-15.2,9.3-25.3,9.3a50.93,50.93,0,0,1-25.8-7.2c-16.3-9.7-27-26.1-35.7-40.8-38.9-65.2-57.1-127.3-54.1-184.9.9-17.2,3.7-34.4,6.5-51l9-55,8.8-53.7c1.7-10.5,3.9-23.5-.7-34.6-2-4.8-5.1-9.1-8.1-13.3l-.1-.1-3-4.2c-5.7-8.3-12.4-21.2-11.5-35.5.8-13.6,8.9-25.6,20.1-29.8a25,25,0,0,1,8.9-1.6v.4ZM881.7,865.9c8.4-14.1,10.4-33.1,5.4-53.6-3.5-14.3-9.7-28-15.8-41.3-1.5-3.2-3-6.7-4.5-10-4.8-10.7-9.1-21.7-13-32.7-5.2-14.7-9.3-30.2-3.6-44,6.9-16.8,25.8-24.8,40.5-28.5a102.35,102.35,0,0,1,25.9-3.5,77.38,77.38,0,0,1,15.9,1.7c14.8,3.4,27.1,12.5,32.9,24.2,8.1,16.1,5,37.4-9.1,63.1-3.7,6.8-7.7,13.4-11.6,19.9l-.1.1-.1.1-.2.3c-9.5,15.9-19.4,32.3-25.1,50.2-7,22.1-7.8,54.8,13.2,74.4,10.1,9.5,24.9,14.9,40.5,14.9,1,0,2.2,0,3.8-.1h.1c-4.4,25.2-11.2,53.9-29,75.6-13.8,16.8-34.4,27.2-53.8,27.2a50.8,50.8,0,0,1-18.9-3.6c-8.4-3.4-16.4-9.3-24.5-18-20.3-21.8-32.3-51.4-34-83.2-.2-4.1,0-13.9,7-15.8a7.8,7.8,0,0,1,2.2-.3,20.1,20.1,0,0,1,7.1,1.8h.1l.3.1h.1l.2.1,1.1.4a33.77,33.77,0,0,0,10.9,1.9c14-.1,28.5-8.7,36.1-21.4Zm-74.6,368.8c-15.5-1.3-24.6-17.7-29.5-31.2-9.4-25.9-13.9-53.6-18.4-80.5-2.4-14.9-5-30.3-8.3-45.3-4.9-22.1-11.8-44-18.4-65.3v-.1c-9.2-29.4-18.7-59.8-23.1-90.8-9.5-66.1,3.6-132.5,16.3-196.6h0c1.8,5.9,3.7,11.8,5.6,17.9,9.1,28.3,19.4,56.6,34.2,81.8l.1.1a.1.1,0,0,0,.1.1,189.29,189.29,0,0,0,29.2,38l.8.8c5.5,5.5,11.8,11.7,12.1,19.6,1,27.3,4.4,46.5,8.6,60.7a137.81,137.81,0,0,0,8.8,22.3c.8,1.5,1.6,3,2.4,4.4a86.46,86.46,0,0,0,5.4,8.5,94.64,94.64,0,0,0,21.4,21.9c13.1,9.6,28.1,15.1,42.9,15.1,1.1,0,2.1,0,3.2-.1,22.1-1.2,44.4-14.5,59.6-35.7,2-2.8,3.9-5.7,5.8-8.8a141.26,141.26,0,0,0,10.9-23.3,238.65,238.65,0,0,0,9.5-34.3c2.3-10.9,12.4-18.2,21.3-24.7l.9-.7a281.88,281.88,0,0,0,65.9-68c2.4-3.5,4.6-7,6.8-10.5h0c11.8,124,8.9,251.8-8.5,380-2.2,16.1-4.6,30.4-12.3,42.6-7.4,11.7-19.8,19.3-31.5,19.3a25.39,25.39,0,0,1-6.1-.7c-7.1-1.6-13.8-6.1-20.6-13.5-17.1-18.9-24.4-44.1-29.7-68.6a602,602,0,0,1-12.7-95.5c-.4-8.5-2-20.1-10.8-23.1a13.36,13.36,0,0,0-4-.6c-4.1,0-8.2,1.8-12.2,3.4l-1.9.8a74.7,74.7,0,0,1-28,5.5,73.86,73.86,0,0,1-20.9-3,6.45,6.45,0,0,0-2-.3c-3.5,0-7.2,2.6-8.9,6.4-1.8,4-1.8,8.6-1.7,13v.4a295.84,295.84,0,0,1-27,128.3,82.74,82.74,0,0,1-6.2,11.3c-4,6.2-8.8,11.8-14.5,15.3a23.38,23.38,0,0,1-12.8,3.8,12.1,12.1,0,0,1-1.9-.1Z" transform="translate(-144.5 264)"/><path class="cls-1" d="M870.9,581.7a18.46,18.46,0,0,0-2.1,6.9,40.92,40.92,0,0,0,.1,7c.3,3.6.6,7.6,2.3,11.2a19.7,19.7,0,0,0,3.2,4.9,34.09,34.09,0,0,0,6.1,5.9,26.38,26.38,0,0,0,15.2,4.8,26,26,0,0,0,11.3-2.6,25.67,25.67,0,0,0,11.6-34.4,26.25,26.25,0,0,0-10.4-11,32.81,32.81,0,0,0-15.3-3.9c-9.8-.1-18.2,4.2-22,11.2Zm12.8,21.6a16.38,16.38,0,0,1-3.8-6.8,11.53,11.53,0,0,1,8.7-13.9,12.65,12.65,0,0,1,2.8-.3,11.49,11.49,0,0,1,4.8,1c3.4,1.5,5.8,4.5,7.9,7.6,1.8,2.5,3.6,5.5,3.7,8.8a8.33,8.33,0,0,1-.3,2.2,10.89,10.89,0,0,1-1,2.5,11.33,11.33,0,0,1-8.9,5.5h-1c-4.5,0-9.3-2.5-12.9-6.6Z" transform="translate(-144.5 264)"/><path class="cls-1" d="M882.8,674.7c-1.7,1.2-1.9,3.6-1.9,6,0,8.7,0,17.5-.1,26.3a15.55,15.55,0,0,0,.9,6.4l.1.2.1.2a5.37,5.37,0,0,0,4.4,2.8,3.19,3.19,0,0,0,1.4-.3c2.4-1.1,2.7-4.5,2.8-7,0-8.2.1-16.5.1-24.7V684c0-2.3,0-5.2-1.3-7.4a5.44,5.44,0,0,0-4.4-2.6,4.76,4.76,0,0,0-2.1.7Z" transform="translate(-144.5 264)"/><path class="cls-1" d="M923.2,690.6c-1.9,2.3-2,5.5-1.9,8.9l.2,9.9.2,9.7c.1,6.4.5,12.4,4.2,16.7l.2.2.2.2c6.1-4,5.5-13,5-16.7-.2-1.1-.3-2.2-.5-3.2v-.7c-.8-4.9-1.7-9.8-.2-14.5a18.44,18.44,0,0,0,.4-10.4,3.57,3.57,0,0,0-3.5-2,5.7,5.7,0,0,0-4.3,1.9Z" transform="translate(-144.5 264)"/><path class="cls-1" d="M904,743.8a2,2,0,0,0-.6,1.5l.1,18.9.1,18.9a13.55,13.55,0,0,0,.5,4.5,6.53,6.53,0,0,0,5.9,4.6,2.2,2.2,0,0,0,.8-.1,5,5,0,0,0,3.6-2.7,4.24,4.24,0,0,0,.1-3.8,13.76,13.76,0,0,1-1.2-5.6c-.6-9.7-1.2-19.5-1.8-29.3-.2-2.6-.5-5.3-2.3-7a3.84,3.84,0,0,0-2.5-.9,4.65,4.65,0,0,0-2.7,1Z" transform="translate(-144.5 264)"/><path class="cls-1" d="M901.4,880.3c-2.3.5-2.6,3.6-2.5,5.5,0,10,.1,20.4,1.8,30.5a11,11,0,0,0,1.6,4.6l.3.3a4.2,4.2,0,0,0,3.1,1.5,3,3,0,0,0,1.6-.5c1.3-.9,1.5-2.8,1.5-4.6.2-10.3.1-21-.3-31.8v-.4c0-1.1-.1-2.1-.1-3.2a1.7,1.7,0,0,1-.7.1,5.7,5.7,0,0,1-2.8-1.1,5.58,5.58,0,0,0-2.8-1,2.64,2.64,0,0,1-.7.1Z" transform="translate(-144.5 264)"/><path class="cls-1" d="M860.6,919c-.3,12-.3,24.1.2,36.1.1,2.7.3,5.3,1.7,7.2l.1.1c0,.1.1.1.1.2a5.32,5.32,0,0,0,3.9,1.8,3.13,3.13,0,0,0,2.8-1.4,5.92,5.92,0,0,0,.7-2.9,113.48,113.48,0,0,0-1.3-27.3,169.14,169.14,0,0,0,2.8-18v-.2l.1-.7-4.1-.1-4-.1c-2.1.1-2.9,2.9-3,5.3Z" transform="translate(-144.5 264)"/><path class="cls-1" d="M935,926.9a108.19,108.19,0,0,0,2.6,31.6c1.1,4.9,2.8,10.5,6.8,14.2,3.3-1.7,4.4-5.8,4.3-8.8a30.25,30.25,0,0,0-1.7-7.8c-.2-.8-.5-1.6-.7-2.4a50.69,50.69,0,0,1-1.7-16.9l.1-.9v-.5a20.78,20.78,0,0,0,0-6.1c-.4-2.2-1.7-4.8-4.2-5.7a5.9,5.9,0,0,0-1.4-.2c-1.8.1-4,1.4-4.1,3.5Z" transform="translate(-144.5 264)"/><path class="cls-2" d="M725.6,724.9h0c-12.7,64.1-25.8,130.5-16.3,196.6,4.5,31,13.9,61.4,23.1,90.8v.1c6.6,21.3,13.5,43.2,18.4,65.3,3.3,15,5.9,30.4,8.3,45.3,4.4,26.8,9,54.5,18.3,80.5,4.9,13.5,14,29.9,29.5,31.2a12.1,12.1,0,0,0,1.9.1c17,0,28.3-19.1,33.5-30.4a298.75,298.75,0,0,0,27-128.3v-.4c-.1-4.4-.2-9,1.7-13,1.7-3.8,5.4-6.4,8.9-6.4a6.93,6.93,0,0,1,2,.3,73.86,73.86,0,0,0,20.9,3,74.7,74.7,0,0,0,28-5.5l1.9-.8c4-1.7,8.1-3.4,12.2-3.4a13.36,13.36,0,0,1,4,.6c8.7,3,10.3,14.6,10.8,23.1a592.12,592.12,0,0,0,12.7,95.5c5.3,24.5,12.5,49.7,29.7,68.6,6.8,7.5,13.5,11.9,20.6,13.5a24.83,24.83,0,0,0,6.1.7c11.7,0,24.1-7.6,31.5-19.3,7.7-12.2,10.1-26.5,12.3-42.6,17.4-128.2,20.3-256,8.5-380a279.5,279.5,0,0,1-72.8,78.5l-.9.7c-8.9,6.5-18.9,13.8-21.3,24.7-6.2,29.3-14.2,49.8-26.2,66.4-15.3,21.2-37.6,34.6-59.6,35.7-1.1.1-2.2.1-3.2.1-26.8,0-54.1-17.8-69.7-45.5-8.2-14.6-17.9-37.7-19.8-87.4-.3-7.9-6.6-14.1-12.1-19.6l-.8-.8C757,825.4,740.3,772,725.6,724.9Z" transform="translate(-144.5 264)"/><path class="cls-3" d="M891.5,582.3a11.63,11.63,0,0,0-11.8,11.5,13.33,13.33,0,0,0,.3,2.8,15.78,15.78,0,0,0,3.8,6.8c3.6,4.1,8.4,6.5,12.9,6.5h1c6.2-.5,10.3-5.6,10.3-10.1-.1-3.3-1.9-6.3-3.7-8.8-2.1-3-4.5-6.1-7.9-7.6a10.91,10.91,0,0,0-4.9-1.1Z" transform="translate(-144.5 264)"/><path class="cls-4" d="M916.7,652.2a108.41,108.41,0,0,0-25.9,3.5c-14.7,3.7-33.6,11.6-40.5,28.5-5.6,13.8-1.6,29.3,3.6,44,3.9,11,8.3,22,13,32.7,1.5,3.3,3,6.8,4.5,10,6.1,13.3,12.3,27,15.8,41.3,4.9,20.5,3,39.5-5.4,53.6-7.7,12.8-22.2,21.4-36.1,21.4a31.28,31.28,0,0,1-10.9-1.9c-.4-.1-.8-.3-1.1-.4l-.2-.1h-.1l-.3-.1H833a20.1,20.1,0,0,0-7.1-1.8,8.33,8.33,0,0,0-2.2.3c-6.9,1.9-7.2,11.7-7,15.8,1.7,31.8,13.7,61.4,34,83.2,8.1,8.7,16.1,14.6,24.5,18a49.23,49.23,0,0,0,18.9,3.6c19.4,0,40-10.4,53.8-27.2,17.8-21.7,24.6-50.4,29-75.6-1.6,0-2.9.1-3.9.1-15.6,0-30.3-5.4-40.5-14.9-21-19.6-20.3-52.4-13.2-74.4,5.7-17.9,15.6-34.3,25.1-50.2l.2-.3.1-.1.1-.1c3.9-6.5,7.9-13.2,11.6-19.9,14.1-25.8,17.2-47,9.1-63.1-5.9-11.7-18.2-20.8-32.9-24.2a78.13,78.13,0,0,0-15.9-1.7Zm-30.4,64.5a5.37,5.37,0,0,1-4.4-2.8l-.1-.2-.1-.2c-1-2-.9-4.4-.9-6.4,0-8.8,0-17.5.1-26.3,0-2.4.2-4.8,1.9-6a3.61,3.61,0,0,1,2-.6,5.55,5.55,0,0,1,4.4,2.6c1.4,2.3,1.3,5.1,1.3,7.4v.6c0,8.2-.1,16.5-.1,24.7,0,2.4-.3,5.8-2.8,7a4.44,4.44,0,0,1-1.3.2Zm39.9,19.4-.2-.2-.2-.2c-3.7-4.3-4.1-10.4-4.2-16.7l-.2-9.7-.2-9.9c-.1-3.3,0-6.5,1.9-8.9a5.53,5.53,0,0,1,4.2-1.9,3.66,3.66,0,0,1,3.5,2,19.37,19.37,0,0,1-.4,10.4c-1.6,4.7-.7,9.7.2,14.5v.6a30.62,30.62,0,0,1,.5,3.2c.5,3.7,1.1,12.7-5,16.7Zm-16.3,56.1a6.67,6.67,0,0,1-5.9-4.6,17.26,17.26,0,0,1-.5-4.5l-.1-18.9-.1-18.9a2,2,0,0,1,.6-1.5,3.38,3.38,0,0,1,2.5-.9,3.84,3.84,0,0,1,2.5.9c1.8,1.7,2.1,4.4,2.3,7,.6,9.8,1.2,19.5,1.8,29.3a12.3,12.3,0,0,0,1.2,5.6,4.24,4.24,0,0,1-.1,3.8,5,5,0,0,1-3.6,2.7Zm-4.4,130.5a4.2,4.2,0,0,1-3.1-1.5l-.3-.3a11,11,0,0,1-1.6-4.6c-1.7-10.1-1.7-20.5-1.8-30.5,0-1.9.3-5,2.5-5.5h.5a5.93,5.93,0,0,1,2.8,1,6.86,6.86,0,0,0,2.8,1.1,1.7,1.7,0,0,0,.7-.1c.5,12.1.7,24,.5,35.4,0,1.8-.2,3.7-1.5,4.6a3.31,3.31,0,0,1-1.5.4Zm-39,41.7a5.32,5.32,0,0,1-3.9-1.8c-.1-.1-.1-.1-.1-.2l-.1-.1c-1.4-2-1.6-4.5-1.7-7.2-.4-12-.5-24.2-.2-36.1.1-2.4.9-5.1,3-5.1l4,.1,4.1.1c-.7,6.3-1.6,12.6-2.9,18.8a113.48,113.48,0,0,1,1.3,27.3,5.92,5.92,0,0,1-.7,2.9,3.17,3.17,0,0,1-2.8,1.3Zm77.9,8.3c-4-3.7-5.6-9.3-6.8-14.2a112.43,112.43,0,0,1-2.6-31.7c.1-2.1,2.3-3.3,4.2-3.3a6.75,6.75,0,0,1,1.4.2c2.5.9,3.8,3.5,4.2,5.7a20.78,20.78,0,0,1,0,6.1v.5l-.1.9a48.22,48.22,0,0,0,1.7,16.9c.2.8.5,1.6.7,2.4a33.9,33.9,0,0,1,1.7,7.8c0,3-1.1,7-4.4,8.7Z" transform="translate(-144.5 264)"/><path class="cls-4" d="M145.8-250.4a2.86,2.86,0,0,0,2.8,2.8,2.86,2.86,0,0,0,2.8-2.8,2.8,2.8,0,0,0-2.8-2.8A2.8,2.8,0,0,0,145.8-250.4Z" transform="translate(-144.5 264)"/><path class="cls-4" d="M144.5-261.2a2.86,2.86,0,0,0,2.8,2.8,2.86,2.86,0,0,0,2.8-2.8,2.86,2.86,0,0,0-2.8-2.8A2.86,2.86,0,0,0,144.5-261.2Z" transform="translate(-144.5 264)"/><path class="cls-2" d="M756.5,363.5h0a24.37,24.37,0,0,0-9,1.6c-11.3,4.2-19.3,16.1-20.2,29.8-.8,14.3,5.8,27.2,11.5,35.5l3,4.2.1.1c3,4.2,6.2,8.4,8.2,13.3,4.5,11.2,2.4,24.2.7,34.6L742,536.3l-9,55c-2.7,16.7-5.6,33.9-6.5,51-3,57.5,15.2,119.7,54.1,184.9,8.8,14.7,19.5,31.1,35.7,40.8a51.94,51.94,0,0,0,25.8,7.2c10.1,0,18.8-3.2,25.3-9.3,8.5-8.1,12.7-21,11.6-35.4-1-12.9-5.9-25.1-10.6-36.9l-10.8-27.2-10.8-27.2c-6-15-13.4-33.7-9.7-51.8,3.3-15.9,15.3-30.2,32.1-38.3,11.6-5.6,25.5-8.4,41.4-8.4,3,0,6.1.1,9.2.3,21.3,1.3,37.2,7.3,47.5,17.7,16.4,16.7,16.4,42.5,11,61-5.1,17.4-14.9,33.1-24.4,48.4l-.2.2c-1.7,2.8-3.7,5.9-5.5,8.9-19,31.2-21.8,48-22.1,60.4a59,59,0,0,0,8.4,31.4c6.1,10,14.5,16.7,24.4,19.4a42.26,42.26,0,0,0,10.6,1.4c12.2,0,23.3-5,30.4-9.2,13.6-8,24.8-19,37.5-33.2,17.2-19.2,34.1-40.4,41.6-66,5.2-17.7,5.5-36.1,5.4-56.7-.2-25.9-.7-52.3-1.6-78.3-.7-19-1.5-37.5-4.8-55.8-4.8-26.9-14.9-53-24.6-78.1l-.1-.2c-4.8-12.4-9.8-25.3-14.1-38.1-4.5-13.6-8.2-29.3-.9-41.7,3.7-6.3,9.9-11,15.9-15.5,8.3-6.3,16.2-12.3,17.8-22.1.9-5.6-.8-11.1-4.8-16-6.1-7.4-16.8-12.5-27.4-12.9h-2.4c-21.3,0-42.5,12.4-52.8,31-1.2,2.1-2.2,4.3-3.2,6.2v.1h0c-2.2,4.5-4.4,9.1-7.7,12.9-3.7,4.2-8.9,6.7-13.7,6.7a11.49,11.49,0,0,1-6-1.6,150.19,150.19,0,0,0-143-4.6,8.08,8.08,0,0,1-3.4.8c-3.5,0-7.4-2.3-9.6-5.8s-3-7.4-3.8-11.3l-.1-.3a24.6,24.6,0,0,0-.7-2.9c-4.3-18.7-20.9-33.7-36.9-33.7ZM895.6,622.3a26.11,26.11,0,0,1-15.2-4.8,31.06,31.06,0,0,1-6.1-5.9,23,23,0,0,1-3.2-4.9c-1.6-3.5-1.9-7.6-2.3-11.2a32.67,32.67,0,0,1-.1-7,21.21,21.21,0,0,1,2.1-6.9c3.7-6.9,12.1-11.2,21.8-11.2a31.37,31.37,0,0,1,15.3,3.9,25.66,25.66,0,0,1-1.2,45.4,25.13,25.13,0,0,1-11.1,2.6Z" transform="translate(-144.5 264)"/><path class="cls-3" d="M805,277.3h0a313.44,313.44,0,0,1,16.7,44.8h-.8l-2.4-.1c-9.1-.2-16.3-.3-22.9-.3-55.3,0-117.3,5.5-158.3,46.3h.4l1.5-.3.2-.1.3-.1,1.5-.3c5.9-1.3,12.8-2.7,19.3-2.7a35.62,35.62,0,0,1,15.5,3.2c6.6,3.2,11.7,10.8,12.4,18.5.5,5.7-1.4,10.5-5.5,13.4a201.8,201.8,0,0,0-73.6,102.8l.3-.2.4-.2c1.4-.8,2.2-1.2,3-1.6a50.19,50.19,0,0,1,53.6,6.6l-.2.1q-1.65,1.2-4.5,3.6a233.53,233.53,0,0,0-78.8,125.6l.4-.1.6-.2.5-.2c1.7-.6,3.2-1.2,4.5-1.6a128.52,128.52,0,0,1,41.7-7,124,124,0,0,1,35.8,5.2l-.1.1-.4.4c-2.3,2.7-4.9,5.9-7.8,9.5a457.4,457.4,0,0,0-84.8,172.7h.2l.4-.1.8-.2,66.5-22.5c3.9-1.3,7.7-2.5,11.4-2.5a14.87,14.87,0,0,1,4.7.7,10.34,10.34,0,0,1,6.3,6.9,6.24,6.24,0,0,1-1.2,6c-50.6,57.3-79.3,134.1-78.8,210.5l.6-.5.8-.7c2-1.9,3.5-3.2,4.8-4.4a162.41,162.41,0,0,1,34.6-23.5c3.8-1.9,7.9-3.7,12.1-3.7a15.26,15.26,0,0,1,3,.3,10.36,10.36,0,0,1,6.8,5.8,6.4,6.4,0,0,1-.3,6,349.72,349.72,0,0,0-51.1,167.7l.7-.6.8-.7,1.2-1c4.3-3.7,8.7-7.2,13-10.3a193.49,193.49,0,0,1,112.8-36.6,188.24,188.24,0,0,1,24.9,1.7v-.2c-.2-1.5-.4-3-.8-5.2-4.4-27-12.9-53.5-21.2-79.1l-.1-.2v-.1c-6.3-19.7-12.9-40-17.6-60.5-18.5-81.1-8.1-164.6,1.9-245.4l13-105.1L738.6,499c1.9-15.1,4-32.1-.9-47.7-2-6.4-5.1-12.4-8.2-18.2-2.6-4.8-4.9-9.7-7-14.7-5.7-14.8-4.1-33.2,4-46.9,5.9-10,14.8-16.3,25.1-17.7a38.29,38.29,0,0,1,4.7-.3c24.8,0,43,27.4,51.1,50.8a181.07,181.07,0,0,1,71.4-14.7,178.91,178.91,0,0,1,84.5,20.9c10.1-15.6,22.2-33.2,38.8-44.7,11.3-7.8,24.3-12.1,36.7-12.1a46,46,0,0,1,19.6,4.1,39.67,39.67,0,0,1,20.7,24.2c2.8,9,2,18-2.3,25.2-2.7,4.4-6.4,8.1-10.1,11.6l-.1.1a76.73,76.73,0,0,0-8.6,9.4c-15.6,21.6-4.2,50.4,5.8,75.9l.6,1.5c33.9,86.4,33.1,184.5,32.5,271l-1.3,178.1-1.4,179.4.2-.2.9-.9.9-.9a99.64,99.64,0,0,1,8.6-7.6c20.6-16.6,47.9-26.1,74.8-26.1a109.25,109.25,0,0,1,38,6.5v-.1c0-.3.1-.7.1-1q.3-4.35.3-9.6a269.13,269.13,0,0,0-20.5-104.4v.1c-3.7-9-8-19.2-4-28.1,3.1-6.9,11.1-11.4,20.4-11.4a24.18,24.18,0,0,1,4.7.4c9.3,1.6,17.3,7,26.1,13.4v-.1h0a3.4,3.4,0,0,0,.1-1,117.83,117.83,0,0,0,.6-12.3,171,171,0,0,0-26.7-93.8c-8.5-13.5-18.5-32.6-6.3-43a17.38,17.38,0,0,1,11.6-4c7.5,0,15.8,3.5,21.3,6.1v-.3c-.1-.8-.2-1.5-.3-2.3-.8-4.9-1.8-10.1-3-15.5a259.69,259.69,0,0,0-51-105.3c-3.6-4.4-4.9-10.1-3.8-16.4a31.5,31.5,0,0,1,13.9-20.8c11.5-7.2,26-7.8,38.7-7.8h3.7v-.4c-.4-2.5-.9-5.2-1.5-8.3V639c-.8-3.9-1.8-7.7-2.9-11.3a166.49,166.49,0,0,0-45.8-74.9l.1.1.1.1.1.1-.2-.2c-.5-.5-1-1-1.6-1.5q-5-4.65-10.5-9a15.14,15.14,0,0,1-5.7-11.8,24.14,24.14,0,0,1,7.4-18.1c8.6-8,21.2-10.2,31.3-11.9l-.1-.2-.1-.2-.1-.2c-.6-1.2-1.2-2.4-2-3.9-2.5-4.5-5.3-9.2-8.3-13.8a207.72,207.72,0,0,0-77.8-70.5c-10.9-5.7-25.1-14.7-21.8-26.9,1.4-5.1,5.5-8.8,10.3-12.7l32.2-25.7,6.4-5.1-.2-.1a7.37,7.37,0,0,0-1.4-.4c-3.5-1.1-7.5-2.2-11.7-3.3a334.91,334.91,0,0,0-166.7.5,6.45,6.45,0,0,1-2,.3,6.14,6.14,0,0,1-5.3-3.1c-2.9-4.7-2.9-13.9.1-20.1a182.35,182.35,0,0,1,23.8-37h-.7c-1,.1-2.1.2-3.5.4a170.58,170.58,0,0,0-19.9,3.9,168.16,168.16,0,0,0-84.4,52.9v-.1l-.1-.3c-.8-1.4-1.8-2.9-3-4.6a137.61,137.61,0,0,0-73-53.1Z" transform="translate(-144.5 264)"/><path class="cls-5" d="M993.54,512.05c-18.73,8.77-28,33.54-19.69,52.46a40.11,40.11,0,0,0,43.78,23.3,40,40,0,0,0,11.58-4c18.3-9.63,26.44-34.79,17.24-53.32-6.75-13.59-22-21.9-37-21.9a37.29,37.29,0,0,0-15.88,3.44Zm8,52.8a19.21,19.21,0,0,1-8.33-8.65c-2.44-5.08-2.09-11.46.93-17.06s8.15-9.39,13.73-10.15a17,17,0,0,1,2.17-.14,19.79,19.79,0,0,1,14.77,7.35,18.58,18.58,0,0,1,4.48,15.06,16,16,0,0,1-1.27,4,19.71,19.71,0,0,1-8.09,8.63,20.83,20.83,0,0,1-10.46,2.9,16.74,16.74,0,0,1-7.93-1.91Z" transform="translate(-144.5 264)"/><path class="cls-5" d="M763.5,516c-14.91,9.12-22.6,28.61-17.94,45.45s21.27,29.61,38.75,29.78c16.69.16,32.89-11.1,38.57-26.8s.42-34.72-12.52-45.27a41,41,0,0,0-25.85-8.9,40.29,40.29,0,0,0-21,5.74Zm2.77,48.34a19.65,19.65,0,0,1-4.45-16.26c1.8-8.8,10.74-15.69,20.36-15.69a17.49,17.49,0,0,1,7.07,1.44,20.8,20.8,0,0,1,8.29,29.78,19.92,19.92,0,0,1-16.2,8.38,19.69,19.69,0,0,1-15.07-7.65Z" transform="translate(-144.5 264)"/><path class="cls-6" d="M782.18,532.37c-9.62,0-18.56,6.89-20.36,15.69A20.84,20.84,0,0,0,781.34,572a20.24,20.24,0,0,0,9.17-2.25,20,20,0,0,0,7-6.13,20.82,20.82,0,0,0-8.29-29.79,17.66,17.66,0,0,0-7.07-1.43Z" transform="translate(-144.5 264)"/><path class="cls-6" d="M1010,528.85a17.36,17.36,0,0,0-2.18.14c-5.57.76-10.7,4.56-13.72,10.15s-3.37,12-.93,17.06a19.21,19.21,0,0,0,8.33,8.65,16.71,16.71,0,0,0,7.93,1.91c9.42,0,18.31-7,19.82-15.5a18.58,18.58,0,0,0-4.48-15.06,19.79,19.79,0,0,0-14.77-7.35Z" transform="translate(-144.5 264)"/></svg>