<?xml version="1.0" encoding="utf-8"?>
<!-- Generator: Adobe Illustrator 22.0.1, SVG Export Plug-In . SVG Version: 6.00 Build 0)  -->
<svg version="1.1" id="Draw_Layer" xmlns="http://www.w3.org/2000/svg" xmlns:xlink="http://www.w3.org/1999/xlink" x="0px" y="0px"
	 viewBox="0 0 1804 1482" style="enable-background:new 0 0 1804 1482;" xml:space="preserve">
<style type="text/css">
	.st0{fill:#161616;}
	.st1{fill:#BEBEBE;}
	.st2{fill:#6EDAF4;}
	.st3{fill:#725AF7;}
</style>
<title>Bear</title>
<path class="st0" d="M1075.9,292.4c-48.3-18.5-103.1-19.2-151.8-1.9c-13.7-20.5-43.7-27.9-65.4-16.2c-21.7,11.7-31.8,40.9-22.2,63.6
	c3.9,9.1,10.4,16.8,14.5,25.8c21.8,46.7-25.2,100.5-14.2,150.8c5,22.8,21.3,47.8,8.2,67.1c-39.2,57.6-60.8,125.4-62.3,195
	c-0.2,11.3-4,22.3-7.2,33.2c-29.9,102.6-9.2,212.6,17.5,316c7.1,27.5,14.9,55.5,30.1,79.5c15.2,24.1,39.1,44.1,67.3,48
	c28.2,3.9,58.1-10.1,73.2-34.2s14.5-57.1-1.4-80.8l54.1,8.5c-3.5,34.8-5.3,74.6,19.4,99.3c23.9,23.8,63.7,22.8,94.7,9.5
	c66.6-28.6,104.6-101.9,113.7-173.8c12.2,13.2,28.7,27.7,45.8,22.2c16.7-5.3,22.1-26.3,22.2-43.8c0-17.9-3.4-37.2-16.4-49.6
	c-12.9-12.4-37.6-13.1-46.6,2.4c3.9-41.2-0.1-82.9-11.7-122.6c-8.1-27.6-20-55.5-16.4-84c10.5-82.3-17.7-168.7-74.6-229
	c30.5-22,43.7-62.2,42-99.8c-1.7-37.6-16.2-73.3-31.9-107.5c-4.9-10.7-10-23.1-5-33.7c2.8-5.9,8.1-10.1,11.8-15.4
	c13.4-19.5-2.6-49.1-25.6-54.6c-3.5-0.8-7.2-1.3-10.8-1.3C1107.5,265,1088.3,276.8,1075.9,292.4L1075.9,292.4z M1090,292
	c9.4-11.3,23.5-18.4,36.6-18.4c3.6,0,7.3,0.6,10.7,1.7c8.9,2.8,16.5,10.5,19.8,20.1c2.8,8.1,2,16.2-2.2,22.4
	c-1.7,2.6-4.1,4.9-6.3,7.2c-2.3,2.3-4.8,4.8-6.6,7.6c-9.4,14.8,0.4,33.8,8.3,49c15.5,30.2,25,63.2,27.8,97
	c2.2,27.6-1.6,48.6-11.8,64.1c-7.4,11.3-18.7,20.3-27.7,27.5c-11.7,9.3-23.7,18.7-35.7,27.8c-18.3,13.9-35,25.9-54.8,31.8
	c-10.3,3.1-21.8,4.6-35.1,4.6c-3,0-6.3-0.1-9.8-0.3c-45-2.3-85.9-18.1-115-44.5c-32.7-29.7-49.4-72.9-43.7-112.7
	c1.8-12.8,5.9-25.2,9.8-37.3v-0.1v-0.1v-0.1v-0.1c2.3-7.1,4.7-14.5,6.6-22c6.3-24.7,5.1-44.9-3.6-60.1c-2-3.4-4.3-6.7-6.7-9.8
	l-0.1-0.1c-3.3-4.4-6.7-9-8.9-14.1c-1.9-4.4-2.8-9.2-2.7-14.1c0.1-4.8,1-9.6,2.8-14c3.6-9.3,10.4-17.5,19.5-22.1
	c6-2.9,12.5-4.4,19.2-4.4c13.3,0.1,26,5.4,35.4,14.8c2.7,2.8,6.4,6.6,10.2,6.6c0.8,0,1.5-0.1,2.2-0.4c21.6-8.7,44.6-13.1,67.8-13
	c25.9,0,51.5,5.5,75.1,16.1c1.1,0.5,2.2,0.7,3.4,0.7c6,0,11.7-6.9,15.4-11.4L1090,292z M926.5,934c-13.6-2.3-27.2-9.3-42.9-22.2
	c-5.3-4.3-10.4-8.9-15.4-13.9c-19.6-19.2-35.9-41.8-49.6-65.8c-4-6.9-7.8-14.1-11.5-21.6c-5-10.1-10.4-22.1-13.4-34.7
	c-8.8-37,3.6-75.2,18.3-111.1c9.6-23.4,20.1-46.7,31.4-69.3c4.7-9.4,10.8-19.1,20.7-20.4l0,0c10,16.1,24.5,30,43,41.2
	c16.3,9.8,35.2,17.5,56.5,22.7c16.7,4.1,32.4,6.2,46.8,6.2c10.8,0.1,21.6-1.2,32-3.8c20.1-5.1,38.2-15.4,54.8-27.2
	c5.4-3.9,10.7-7.9,16-12.1c5.6-4.5,11.1-9,16.4-13.4c1.1-0.9,2.4-1.4,3.8-1.3c4,0,8.1,3.3,9.7,4.7c3.9,3.5,7.7,7.2,11.3,11.1
	c10.9,11.8,19.8,25.1,27.1,39.5c2.7,5.2,5.2,10.6,7.6,16.2c9.5,22.7,16.6,48.9,21.6,80.2c2.7,16.9,5.3,36.9,3.9,57.1
	c-1.6,23.3-8.4,46.6-20.4,69c-2.6,4.9-5.5,9.8-8.6,14.6c-6.6,10.2-13.9,19.7-22.1,28.7c-4.5,4.9-9.1,9.6-14,14.1
	c-3.4,3.2-6.8,6.1-10.2,8.7c-8.7,6.9-18.2,13-28.4,16.9c-5.4,2.1-10.9,3.6-16.6,4.4c-2.5,0.3-5,0.5-7.5,0.5
	c-9.2,0-18.2-2.2-26.3-6.4c-7.1-3.7-13.1-9.1-17.2-15.9c-0.9-1.4-1.6-2.9-2.3-4.4c-5.7-13.4-4-30,5-49.4c2.5-5.4,5.4-10.7,8.1-15.8
	c5.2-9.7,10.6-19.6,13.7-30.3c1.1-3.9,2-7.9,2.4-11.9v-0.1l0,0c1.5-12.7-0.2-25.6-4.9-37.6c-3.2-8.2-8-15.8-14-22.3
	c-12.5-13.2-30.9-21.1-49.4-21.1c-7.3,0-14.5,1.2-21.4,3.8c-3.3,1.2-6.5,2.8-9.5,4.6c-10.8,6.7-19.4,16.4-24.6,28.1
	c-3.9,8.7-5.5,18.3-4.7,27.8c1.5,15.9,9.6,30.1,17.5,43.9l0,0.1c2.4,4.3,5,8.8,7.3,13.2c0.7,1.4,1.5,3.1,2.4,5
	c5.8,12.7,9.4,27.2,7,40.2c0,0,0,0,0,0c0,0,0,0,0,0c-1,5.2-3,10-6,14.3c-7.2,10.2-20.3,16.2-35,16.2
	C932.3,934.7,929.4,934.5,926.5,934L926.5,934z M995.5,934c2.7-2.3,2.1-6.6,1.3-10c-6.9-29.7-17-58.5-30.1-86l-0.8-1.6l-0.7-1.5
	c-8.2-17-16.6-34.6-12.7-52.6c0.5-2,1.1-4,1.8-6c3.1-7.5,8.1-14,14.6-18.8c7-5.4,15.3-8.8,24-9.9c2.1-0.2,4.2-0.4,6.2-0.4l0,0
	c16,0,32.5,7.1,45.2,19.5c6.5,6.2,11.6,13.6,15,21.9c1,2.6,1.9,5.2,2.5,7.9c0.8,3.5,1.2,7.1,1.2,10.7c-0.2,12.7-5.9,24.8-10.9,35.5
	l-6.5,13.8l-12.4,26.4c-3.3,7-7,14.9-12.9,20.7c-1,1-2.1,1.9-3.1,2.8c-3.1,2.7-6.3,5.5-7.6,9.4c-0.8,2.3-0.2,5.3,1.4,7.6
	c1.3,1.8,3,2.8,4.6,2.8c0.7,0,1.4-0.2,2-0.5c1.2-0.7,2.6-1,4-1c3.8,0,7.8,2.4,10.2,6.1c2,3.1,2.4,6.6,1,9.5c-1,2.1-2.7,4-4.3,5.9
	c-2.7,3.1-5.3,6.1-4.7,9.9c0.8,4.6,5.8,6.2,9.8,6.2c1.5,0,3-0.2,4.4-0.7c2-0.7,3.9-1.5,5.8-2.4c3.4-1.5,6.8-3.1,10.5-3.2h0.2
	c1.9,0,3.7,0.4,5.4,1.2c1.7,0.8,3.3,1.9,4.6,3.3c1.2,1.3,2.1,2.7,2.8,4.4c1.9,5.4,0.4,11.4-3.9,15.2c-1.1,1-1.6,2.6-1.3,4.1
	c0.4,2.2,1.9,4.1,4,5c1,0.3,2,0.5,3,0.5c2.9,0,5.8-1.2,8-2.2c4.1-1.9,8-4.2,11.7-6.7c8.5-5.9,15.8-13.3,21.6-21.9l14.4-6.8l7.5-3.6
	c0.9-0.5,1.9-0.8,2.9-0.9c0.3,0,0.5,0,0.7,0.1c1.8,0.5,2.7,2.5,3.3,4.4c2.5,8.3,4.3,15.7,1.8,22.7c-1.9,5.4-7.6,9.6-12.9,9.6
	c-2,0-3.9-0.6-5.4-1.8c-1.8-1.4-3.3-3.5-4.8-5.5c-2.3-3.2-4.4-6.2-7.6-6.2c-0.4,0-0.9,0.1-1.3,0.2c-3.9,1-5.3,5.4-4.2,13.6
	c1.6,12.5-0.9,25.1-7.1,36c-1.7,3-4.5,7.2-8.8,8.5c-0.7,0.2-1.5,0.3-2.2,0.3c-3.4,0-7.1-2.2-7.2-5.7c-0.2-4.9-5.4-7.9-10.3-7.9
	c-1.7,0-3.3,0.3-4.9,1.1c-5.8,2.8-9.1,9-11.9,15.1c-2.7,5.8-5.7,12.3-11.5,15.6c-1.9,1-3.9,1.6-6.1,1.5c-1,0-2-0.1-3-0.4
	c-1.5-0.3-2.9-1-4.2-2c-1.4-1.1-2.4-2.7-2.8-4.4c-0.3-1.5-0.8-3-1.6-4.3c-0.7-1.2-1.6-2.3-2.6-3.3c-3.7-3.6-9.1-5.5-14-5.5
	c-1.5,0-2.9,0.2-4.3,0.5c-11.1,2.6-18,12.7-21.2,18.4c-1,1.8-3,2.8-5.4,2.8c-1.6,0-3.1-0.4-4.4-1.2c-3.2-2-5.1-5.8-6.7-8.8l-9.1-18
	c-2.3-4.5-7.6-7.4-13.8-7.4c-2.3,0-4.5,0.4-6.7,1.1c-7.5,2.7-13.1,8.9-18.1,14.3l0,0l0,0l0,0c-10.6-14.8-15.8-32.8-14.6-51l0.1-1
	c0.2-3.6,0.5-7.4-1.2-10.5c-1.3-2.1-3.6-3.4-6.1-3.5c-1.4,0-2.8,0.6-3.6,1.7c-1.4,2-3.7,3.1-6.5,3.1c-3.6,0-7-1.7-9.2-4.4
	c-3.6-4.6-4.1-10.7-4.3-17.5c-0.2-5.3-0.4-11.3,2.1-16.5c2.1-4.5,6.7-7.7,11-7.7c0.9,0,1.8,0.1,2.6,0.4c2.9,0.9,5.4,3.3,7.6,7.2
	c2,3.6,3.4,7.6,4.8,11.5l0,0.1c0.9,2.6,1.8,5.2,3,7.8c2.4,5.4,6.8,12.4,14,14.6c1.1,0.3,2.3,0.5,3.5,0.5c3.5,0,6.9-1.4,9.5-3.8
	c0.5-0.5,0.9-1,1.3-1.6l0,0c0,0-939.1-597.9,0.1-0.1l0,0c0.8-1.2,1.2-2.7,1.3-4.1c0-1,0-2.1-0.2-3.1c-0.2-1.6-0.4-3.2,0.1-4.7
	c0.8-2.6,3.3-4.2,6.6-4.2c2.9,0,5.7,1.1,7.8,3c2.1,2,3.7,4.5,5.3,6.9c1.5,2.4,3.1,4.9,5.2,6.8c2.2,2,5,3,7.9,3
	c3.3,0,5.7-1.5,6.6-4.1c3.1-9.7,3.3-20,0.4-29.8c1-0.8,2.2-1.2,3.4-1.2c2.6,0,5.5,1.6,8.3,3.1c2.8,1.5,5.6,3,8.1,3
	c1.3,0,2.5-0.4,3.4-1.3L995.5,934z M891.7,1243.5c-15-1.9-29.4-8.5-41.5-18.1c-9-7.1-16.6-15.7-22.6-25.4
	c-9.7-15.7-15.1-33.1-20.7-52.6c-4.1-14.2-7.8-27.8-11.2-40.9c-3.3-12.9-6.4-25.8-9.3-38.8c0-0.1,0-0.2-0.1-0.3l0,0
	c-6.2-28.2-10.7-54.1-13.7-78.7c-7-58.9-5.4-111.3,5-160c2.4-11,6.1-22.9,16-28.1l0,0l0,0c1.8,3.8,3.6,7.7,5.5,11.6
	c13.6,28.3,28.6,56.5,49.8,78.7c6,6.3,12.6,12.1,19.7,17.2c6.5,4.7,2.5,14.3-0.7,22.1l-0.3,0.8c-7.1,17.3-2.4,39.1,11.3,51.8
	c3.5-3.2,7.7-5.7,12.2-7.2l0,0l0,0l0.9-0.3l0,0v0.2l2,9.9c1.9,9.1,3.7,18.1,5.6,27.2c1.1,5.6,2.4,10.7,4.6,15.1l0,0c0,0,0,0.1,0,0.1
	l0,0.1l0,0.1l0.1,0.1c0,0,0,0,0,0.1l0.1,0.1v0l0.1,0.1l0,0.1c0,0,0,0.1,0,0.1l0.1,0.1v0c1.1,1.9,2.5,3.6,4.1,5.1
	c2.8,2.4,6.3,3.7,10,3.7c4.7,0,8.4-2.1,10-5.7c1.4-3.3,4.7-5.2,9-5.2c4.7,0.1,9.1,2,12.3,5.4c3,3.3,5.1,7.3,7.1,11.3
	c1.8,3.5,3.6,7.2,6.2,10.2c3.2,3.9,8.6,6.6,13.4,6.6c2.5,0,5.9-0.7,8.1-4.1c3.7-5.8,8.3-13,15.4-16.2c2.1-0.9,4.3-1.4,6.6-1.4
	c2.6-0.1,5.2,0.6,7.5,1.9c2,1,3.5,2.7,4.5,4.7c0.2,0.4,0.3,0.8,0.5,1.2c1.9,6.1,8.2,10.1,16.1,10.1c4.5,0.1,9-1.3,12.7-3.9
	c1.5-1.1,2.8-2.3,4.1-3.6c2.3-2.4,4.2-5.2,5.7-8.1c2.8-5.2,4.8-11.2,6.9-17.6c0.2,0,0.4,0,0.6,0c4.4,0,6.7,4.2,9.2,8.6
	c2.4,4.2,4.9,8.6,9.3,9.3c0.3,0.1,0.7,0.1,1,0.1c3.2,0,6.1-2.1,8.1-3.8c2.2-1.8,4.3-3.9,6.2-6c10.5-11.9,16-28.3,14.3-44.2l0,0l0,0
	c6.3,1.9,11.8,5.8,15.6,11.1c8.4-3.3,15.3-10.5,18.9-19.8c3.6-9.2,3.5-19.2-0.4-27.3c-4.4-9.2,3.9-18.9,11.6-26.3
	c20.2-19.5,36.8-42.4,49.2-67.7c1-2.1,2-4.3,3-6.4l0,0c36.3,69.3,31.3,152.5,23.7,225.1c-2.6,24.6-5.4,46.7-14.1,67.3
	c-5.8,13.7-13.8,26.1-24,40.6c-18.1,25.5-38.8,51-67.2,64.9c-12.3,6-25.8,9.2-39.6,9.2c-8.9,0.1-17.6-1.4-26-4.4l-0.1,0l0,0
	c-4.4-1.6-8.5-3.7-12.4-6.2c-3.5-2.3-6.8-5-9.8-8c-9.3-9.6-15.2-22.2-17.7-37.6c-2.1-13-1.7-27.9,1.3-43.3
	c1.1-5.7,2.6-13.5-1.9-18.4c-2.7-3-6.7-3.9-11.3-4.8l-23.2-4.5l-23.7-4.6c-0.9-0.2-1.9-0.3-2.8-0.3c-0.9,0-1.9,0.2-2.7,0.7
	c-1.6,1.1-2.1,3.2-2.4,4.9c-1.5,10.2,0.8,20.4,3.1,30.3c1.8,7.7,3.6,15.7,3.6,23.6c0,14.7-6.5,29.1-18.4,40.5
	c-11.5,10.9-26.7,17.7-41.7,18.5c-1.3,0.1-2.6,0.1-3.8,0.1c-3,0-6-0.2-8.9-0.6L891.7,1243.5z M1026,915.9c-1.7-0.4-2.7-2-2.4-3.7
	c0.1-0.4,0.2-0.7,0.4-1c0.5-0.7,1.4-1,2.2-1c1.2,0,2.3,0.6,2.8,1.7c0.3,0.9,0.2,1.9-0.4,2.6c-0.5,0.8-1.4,1.4-2.4,1.4L1026,915.9
	L1026,915.9z M983.3,920c-0.6-1.2-0.7-2.7,0-4c0.4-0.8,1.2-1.4,2.1-1.6l0.3-0.8l0,0c2.6,2.5,3.8,6.1,3.3,9.7c0,0.3-0.1,0.5-0.1,0.8
	l0,0C986.5,923,984.4,922,983.3,920L983.3,920z M918.4,951.1c-2.5-1.1-4.7-2.7-6.7-4.6c-1.1-1.1-2.1-2.2-3-3.5
	c-1.2-1.7-2.2-3.5-2.9-5.5l0,0c2.2,2.4,5.8,2.9,8.6,3.3c3.1,0.4,6.6,1.1,8.5,3.6c1.1,1.6,1.2,3.6,0.4,5.3c-0.5,1.2-1.6,1.9-2.8,1.9
	C919.8,951.7,919.1,951.5,918.4,951.1L918.4,951.1z M962.8,950.7c-1.2-1.2-2.4-2.6-3.4-4c-1.2-1.6-2.3-3.9-1.3-5.8
	c0.6-0.9,1.6-1.5,2.7-1.4c1.7,0,3.3,1,4.2,2.5c1.3,2.4,0.7,5.3,0,8.3c0.2,0.2,0.2,0.3,0.2,0.5c-0.1,0.2-0.5,0.4-1,0.4
	C963.7,951.2,963.2,951,962.8,950.7L962.8,950.7z M1039.2,952.2L1039.2,952.2L1039.2,952.2c-0.7-0.1-1.2-0.7-1.3-1.3
	c-0.2-1,0.2-2.1,1.1-2.7c0.6-0.3,1.2-0.4,1.8-0.4c1.1,0.1,2.3,0.3,3.3,0.7c0.3,0.7,0.2,1.6-0.3,2.2c-0.8,1.1-2.1,1.7-3.5,1.7
	C1039.9,952.4,1039.5,952.3,1039.2,952.2L1039.2,952.2z M1078.6,968.7c1-4.3,6.2-4.9,9.2-4.9c1.2,0,2.4,0.1,3.5,0.3l0.3,0l0,0
	c-2.7,4.3-6.6,7.8-11.2,9.9c-1.1,0.5-2.2,0.9-3.4,1.3l0,0L1078.6,968.7L1078.6,968.7z M1277.4,1093.6c-6.1-1.2-11-5.9-14.9-9.6
	l-6.6-6.2l-6.6-6.2c-1.5-1.4-3.1-2.9-4-4.9c-1.1-2.5-1-5.4-0.7-8.3c1.2-11.5,3.4-24.6,10.3-35.2c4.4-6.7,10-10.9,16-12
	c1-0.2,2.1-0.3,3.1-0.3c7.4,0,15.2,4.8,19.9,12.1c5,7.8,6.6,17.1,7.8,26.1c1.3,9.8,2.3,20.1-1.3,29.5c-1.8,4.5-4.9,8.5-8.8,11.3
	c-2,1.5-4.3,2.6-6.7,3.3c-1.4,0.4-2.9,0.6-4.4,0.6C1279.5,1093.9,1278.5,1093.8,1277.4,1093.6L1277.4,1093.6z"/>
<path class="st0" d="M999.1,504.4c-1.3,0-2.6,0.2-3.8,0.5l-0.1,0c-4.2,1.2-8.1,5.4-9.5,11.1l0,0c-0.5,2.3-0.6,4.6-0.3,6.9
	c1,7.6,5.6,14.2,9.7,20.1l6.5,9.4l0.2,0.3c3.1,4.5,6.7,8.7,11.5,8.8h0.2c4.9,0,8.7-4.4,11.1-7.7c6.2-8.5,11.1-17.8,14.6-27.8
	c2.5-7.2,2.3-12.3-0.4-15.7c-3.1-3.9-8.7-4.4-13.7-4.7l-11.2-0.6l-11-0.6h-0.1c-0.9-0.1-2-0.1-3-0.1L999.1,504.4z M1014.1,549
	c-1.4-0.3-2.4-1.4-3.4-2.5c-4.9-5.6-9-11.8-12.4-18.5c-1.4-2.7-3.2-7.6-0.4-10.4c1.2-1.1,2.8-1.6,4.3-1.9c5.4-1.2,10.9-1.9,16.5-1.9
	l0,0c0.6,0,1.2,0,1.9,0c3.3,0.1,7.5,0.9,8.7,4.1c0.7,1.9,0.1,4-0.6,5.9c-2.2,6.7-4.8,13.2-7.8,19.5c-1,2.1-3.1,5.6-6,5.6
	C1014.6,549.1,1014.4,549.1,1014.1,549L1014.1,549z"/>
<path class="st1" d="M864,575L864,575c-9.9,1.3-16,11-20.7,20.4c-11.3,22.6-21.8,45.9-31.4,69.3c-14.7,35.8-27,74.1-18.3,111.1
	c3,12.7,8.5,24.7,13.4,34.7c21.2,43,46.9,77,76.5,101.3c15.7,12.8,29.3,19.9,42.9,22.2c2.8,0.5,5.7,0.7,8.6,0.7
	c14.7,0,27.8-6.1,35-16.2c14.3-20.2,2.5-48.4-3.3-59.6c-2.3-4.4-4.8-8.9-7.3-13.2l0-0.1c-7.9-13.8-16-28.1-17.5-43.9
	c-2.4-25.3,14.3-51.3,38.8-60.4c6.8-2.5,14.1-3.8,21.4-3.8c18.5,0,36.9,7.9,49.4,21.1c17.3,18.4,23.8,46.6,16.4,71.9
	c-3.1,10.7-8.5,20.7-13.7,30.3c-2.8,5.1-5.6,10.5-8.1,15.8c-9,19.3-10.6,35.9-5,49.4c6.8,16,25.1,26.7,45.7,26.7
	c2.5,0,5-0.2,7.5-0.5c17.8-2.4,35.9-12.2,55.2-30c18.2-16.7,33.6-36.6,44.7-57.3c11.9-22.4,18.8-45.7,20.4-69
	c1.4-20.2-1.2-40.2-3.9-57.1c-5-31.3-12.1-57.5-21.6-80.2c-11.6-27.6-27-50-46-66.8c-1.6-1.4-5.7-4.7-9.7-4.7
	c-1.4,0-2.7,0.5-3.8,1.3c-25,20.7-53.4,44.2-87.2,52.8c-10.5,2.6-21.2,3.9-32,3.8c-14.3,0-30.1-2.1-46.8-6.2
	c-21.2-5.2-40.2-12.8-56.5-22.7C888.6,605,874.1,591.1,864,575L864,575z"/>
<path class="st1" d="M793.7,800.9L793.7,800.9c-9.9,5.1-13.6,17.1-16,28.1c-10.4,48.7-12,101-5,160c5.5,46.2,16.4,96.6,34.2,158.6
	c5.6,19.5,11,36.8,20.7,52.6c16.5,26.7,45.1,44,73,44c1.3,0,2.6,0,3.8-0.1c15-0.8,30.2-7.6,41.7-18.5c11.9-11.3,18.5-25.8,18.4-40.5
	c0-7.9-1.8-15.9-3.6-23.6c-2.3-9.9-4.6-20.2-3.1-30.3c0.3-1.7,0.8-3.9,2.4-4.9c0.8-0.5,1.7-0.7,2.7-0.7c0.9,0,1.9,0.1,2.8,0.3
	l23.7,4.6l23.2,4.5c4.6,0.9,8.6,1.9,11.3,4.8c4.5,4.9,3,12.7,1.9,18.4c-2.9,15.3-3.4,30.3-1.3,43.3c2.5,15.4,8.5,28.1,17.7,37.6
	c11.7,12.1,28.8,18.7,48.3,18.7c13.7,0,27.2-3.2,39.6-9.2c28.4-13.9,49.1-39.4,67.2-64.9c10.3-14.4,18.3-26.9,24-40.6
	c8.6-20.6,11.5-42.6,14.1-67.3c7.6-72.6,12.7-155.9-23.7-225.1c-12.6,27.8-30.3,52.9-52.2,74.1c-7.7,7.4-16,17.1-11.6,26.3
	c3.9,8.1,4,18.1,0.4,27.3s-10.5,16.4-18.9,19.8c-3.9-5.3-9.3-9.2-15.6-11.1c1.8,19.1-5.8,37.9-20.5,50.2c-1.9,1.6-4.9,3.8-8.1,3.8
	c-0.3,0-0.7,0-1-0.1c-4.4-0.6-6.9-5-9.3-9.3c-2.5-4.4-4.9-8.6-9.2-8.6c-0.2,0-0.4,0-0.6,0c-3.9,12.2-7.8,22.9-16.7,29.4
	c-3.7,2.6-8.1,4-12.7,3.9c-7.9,0-14.2-3.9-16.1-10.1c-1.2-3.9-5.5-7.8-12.4-7.8c-2.3,0-4.5,0.5-6.6,1.4
	c-7.1,3.3-11.7,10.4-15.4,16.2c-2.2,3.4-5.6,4.1-8.1,4.1c-4.8,0-10.2-2.6-13.4-6.6c-2.5-3.1-4.4-6.7-6.2-10.2c-2-3.9-4.1-8-7.1-11.3
	c-3.2-3.4-7.7-5.3-12.3-5.4c-4.3,0-7.5,1.9-9,5.2c-1.5,3.6-5.3,5.7-10,5.7c-3.7,0-7.2-1.3-10-3.7c-5.6-5-7.5-12.5-9.2-21.1
	c-1.9-9.1-3.7-18.1-5.6-27.2l-2-9.9v-0.2c-4.9,1.4-9.4,4-13.2,7.5c-13.7-12.7-18.4-34.5-11.3-51.8l0.3-0.8
	c3.2-7.8,7.2-17.4,0.7-22.1c-36.8-26.4-57.1-69.5-75.1-107.4l0,0L793.7,800.9z"/>
<path class="st2" d="M999.2,747.4L999.2,747.4c-2.1,0-4.2,0.1-6.2,0.4c-19.6,2.3-36.6,16.9-40.4,34.6c-3.9,18,4.5,35.5,12.7,52.6
	l0.7,1.5l0.8,1.6c13.1,27.5,23.2,56.3,30.1,86c0.8,3.4,1.3,7.6-1.3,10c-0.9,0.8-2.2,1.3-3.5,1.3c-2.5,0-5.4-1.5-8.1-3
	c-2.8-1.5-5.7-3.1-8.3-3.1c-1.2,0-2.4,0.4-3.4,1.2c2.8,9.8,2.7,20.1-0.4,29.8c-0.8,2.6-3.2,4.1-6.6,4.1c-2.9,0-5.7-1.1-7.9-3
	c-2.1-2-3.7-4.5-5.2-6.9s-3.1-4.9-5.3-6.9c-2.2-1.9-5-3-7.8-3c-3.4,0-5.8,1.6-6.6,4.2c-0.5,1.5-0.3,3.2-0.1,4.7c0.2,1,0.2,2,0.2,3.1
	c-0.3,6-6.5,9.7-12.1,9.7c-1.2,0-2.4-0.2-3.5-0.5c-7.2-2.2-11.6-9.1-14-14.6c-1.1-2.5-2-5.2-3-7.8l0-0.1c-1.3-3.9-2.7-7.8-4.8-11.5
	c-2.2-4-4.7-6.3-7.6-7.2c-0.8-0.3-1.7-0.4-2.6-0.4c-4.3,0-8.8,3.2-11,7.7c-2.5,5.2-2.3,11.2-2.1,16.5c0.2,6.9,0.7,12.9,4.3,17.5
	c2.3,2.8,5.7,4.4,9.2,4.4c2.8,0,5.1-1.1,6.5-3.1c0.8-1.1,2.2-1.8,3.6-1.7c2.5,0.1,4.8,1.4,6,3.5c1.8,3.1,1.5,6.9,1.3,10.5l-0.1,1
	c-1.1,18.2,4,36.2,14.6,51l0.1-0.1c5-5.4,10.7-11.6,18.1-14.3c2.1-0.8,4.4-1.2,6.7-1.1c6.2,0,11.5,2.8,13.8,7.4c3,6,6,12,9.1,18
	c1.5,3,3.4,6.8,6.7,8.8c1.3,0.8,2.9,1.2,4.4,1.2c2.4,0,4.5-1.1,5.4-2.8c3.1-5.8,10.1-15.8,21.2-18.4c1.4-0.3,2.9-0.5,4.3-0.5
	c7.6,0,16.6,4.6,18.3,13.1c0.9,4.6,5.8,6.8,9.9,6.8c2.1,0,4.2-0.5,6.1-1.5c5.7-3.3,8.8-9.8,11.5-15.6c2.8-6.1,6.1-12.3,11.9-15.1
	c1.5-0.7,3.2-1.1,4.9-1.1c4.9,0,10,2.9,10.3,7.9c0.1,3.5,3.9,5.7,7.2,5.7c0.7,0,1.5-0.1,2.2-0.3c4.3-1.3,7.1-5.5,8.8-8.5
	c6.2-10.9,8.7-23.6,7.1-36c-1-8.2,0.3-12.6,4.2-13.6c0.4-0.1,0.9-0.2,1.3-0.2c3.2,0,5.3,3,7.6,6.2c1.4,2,2.9,4.1,4.8,5.5
	c1.6,1.2,3.5,1.8,5.4,1.8c5.4,0,11-4.2,12.9-9.6c2.5-7,0.6-14.5-1.8-22.7c-0.6-1.9-1.4-4-3.2-4.4c-0.2-0.1-0.5-0.1-0.7-0.1
	c-1,0.1-2,0.4-2.9,0.9l-7.5,3.6l-14.4,6.8c-8.3,12.4-19.8,22.2-33.3,28.6c-2.2,1-5.1,2.3-8,2.3c-1,0-2-0.2-3-0.5
	c-2.1-0.9-3.6-2.7-4-5c-0.3-1.5,0.1-3,1.3-4.1c5.7-4.9,6.4-13.5,1.5-19.2c-2.6-3-6.4-4.8-10.4-4.8h-0.2c-3.7,0.1-7.2,1.6-10.5,3.2
	c-1.9,0.9-3.8,1.7-5.8,2.4c-1.4,0.4-2.9,0.7-4.4,0.7c-4,0-9-1.6-9.8-6.2c-0.7-3.8,1.9-6.8,4.6-9.9c1.6-1.8,3.3-3.8,4.3-5.9
	c1.3-2.9,1-6.4-1-9.5c-2.4-3.7-6.3-6.1-10.2-6.1c-1.4,0-2.8,0.3-4,1c-0.6,0.3-1.3,0.5-2,0.5c-1.7,0-3.4-1-4.6-2.8
	c-1.6-2.3-2.2-5.3-1.4-7.6c1.3-3.9,4.5-6.7,7.6-9.4c1-0.9,2.1-1.8,3.1-2.8c5.9-5.8,9.6-13.7,12.9-20.7l12.4-26.4l6.5-13.8
	c5-10.7,10.7-22.8,10.9-35.5c0.2-14-6.7-28.8-18.7-40.5C1031.7,754.5,1015.2,747.4,999.2,747.4L999.2,747.4z"/>
<path class="st3" d="M1274.1,1011c-1,0-2.1,0.1-3.1,0.3c-5.9,1.1-11.6,5.3-16,12c-7,10.6-9.1,23.7-10.3,35.2c-0.3,3-0.5,5.8,0.7,8.3
	c0.9,1.9,2.5,3.4,4,4.9l6.6,6.2l6.6,6.2c3.9,3.7,8.9,8.4,14.9,9.6c1,0.2,2.1,0.3,3.1,0.3c8.1,0,16.4-6.4,19.9-15.3
	c3.7-9.3,2.7-19.7,1.3-29.5c-1.2-9-2.8-18.4-7.8-26.1C1289.3,1015.7,1281.5,1011,1274.1,1011L1274.1,1011z"/>
<path class="st3" d="M1018.7,513.9L1018.7,513.9c-5.5,0-11.1,0.6-16.5,1.9c-1.6,0.4-3.2,0.8-4.3,1.9c-2.9,2.8-1,7.7,0.4,10.4
	c3.4,6.6,7.5,12.8,12.4,18.5c1,1.1,2,2.2,3.4,2.5c0.3,0.1,0.6,0.1,0.9,0.1c3,0,5-3.5,6-5.6c3-6.4,5.6-12.9,7.8-19.6
	c0.7-2,1.3-4.1,0.6-5.9c-1.2-3.3-5.4-4-8.7-4.1C1020,513.9,1019.3,513.9,1018.7,513.9L1018.7,513.9z"/>
<path class="st3" d="M1026.2,910.3c-0.9,0-1.7,0.3-2.2,1c-0.9,1.4-0.5,3.3,0.9,4.2c0.3,0.2,0.7,0.3,1,0.4c0.1,0,0.2,0,0.3,0
	c1,0,1.9-0.6,2.4-1.4c0.6-0.8,0.7-1.7,0.4-2.6C1028.5,910.9,1027.4,910.2,1026.2,910.3L1026.2,910.3z"/>
<path class="st3" d="M1087.8,963.8c-3,0-8.3,0.6-9.2,4.9l-1.5,6.6c6.1-1.8,11.2-5.8,14.6-11.2
	C1090.4,963.9,1089.1,963.8,1087.8,963.8L1087.8,963.8z"/>
<path class="st3" d="M1040.9,947.6c-0.6,0-1.2,0.1-1.8,0.4c-0.9,0.6-1.3,1.7-1.1,2.7c0.1,0.7,0.6,1.2,1.3,1.3v0.1
	c0.4,0.1,0.8,0.2,1.2,0.2c1.4,0,2.7-0.6,3.5-1.7c0.5-0.6,0.6-1.5,0.3-2.2C1043.2,947.9,1042.1,947.7,1040.9,947.6L1040.9,947.6z"/>
<path class="st3" d="M985.7,913.6L985.7,913.6l-0.3,0.8c-0.9,0.1-1.7,0.7-2.1,1.6c-0.6,1.3-0.6,2.7,0,4c1.1,2,3.2,3,5.5,4.1
	C989.6,920.3,988.5,916.3,985.7,913.6L985.7,913.6z"/>
<path class="st3" d="M960.8,939.5c-1.1-0.1-2.1,0.5-2.7,1.4c-1.1,1.9,0.1,4.2,1.3,5.8c1,1.4,2.2,2.8,3.4,4c0.4,0.3,0.9,0.5,1.3,0.5
	c0.5,0,0.9-0.2,1-0.4c0.1-0.1,0-0.3-0.2-0.5c0.7-3,1.3-5.9,0-8.3C964.1,940.5,962.5,939.5,960.8,939.5L960.8,939.5z"/>
<path class="st3" d="M905.9,937.6L905.9,937.6c2.2,6,6.7,10.9,12.5,13.5c0.7,0.3,1.5,0.6,2.2,0.6c1.2,0,2.4-0.8,2.8-1.9
	c0.8-1.7,0.7-3.7-0.4-5.3c-1.9-2.5-5.4-3.2-8.5-3.6C911.7,940.5,908.1,940,905.9,937.6L905.9,937.6z"/>
<path class="st3" d="M1365.4,525.4c-0.5,1.6-0.9,3.1-1.3,4.7c-0.3,1.1-0.6,2.3-1,3.4c-0.1,0.5-0.3,0.9-0.4,1.4
	c-0.2,0.7-0.4,1.5-0.6,2.2c-0.3,1-0.5,2.1-0.8,3.1c-0.3,1.2-0.6,2.4-0.8,3.6c-0.1,0.7-0.3,1.4-0.4,2.2c-0.2,0.9-0.3,1.7-0.5,2.6
	c0,0.1,0,0.2,0,0.3c0.1,0.1,0.1,0.2,0.2,0.2c0.2,0.1,0.4-0.1,0.5-0.3c0,0,0,0,0,0c0.1-0.7,0.3-1.4,0.4-2.1c0.1-0.5,0.2-1,0.3-1.5
	l0.4-1.8c0.1-0.6,0.3-1.2,0.4-1.8c0.3-1.1,0.5-2.2,0.8-3.3s0.5-2.1,0.8-3.1c0.1-0.5,0.3-1,0.4-1.5l0.6-2.1c0.6-2,1.1-4,1.7-6
	c0.1-0.2-0.1-0.4-0.3-0.5h-0.1C1365.5,525.1,1365.4,525.2,1365.4,525.4L1365.4,525.4z"/>
<path class="st1" d="M1126.6,273.5c-13.1,0-27.1,7.1-36.6,18.4c-3.8,4.5-9.5,11.4-15.4,11.4c-1.2,0-2.3-0.3-3.4-0.7
	c-23.6-10.6-49.2-16.1-75.1-16.1c-23.2-0.1-46.3,4.3-67.8,13c-0.7,0.3-1.4,0.4-2.2,0.4c-3.8,0-7.5-3.8-10.2-6.6
	c-9.4-9.4-22.1-14.7-35.4-14.8c-6.6-0.1-13.2,1.4-19.2,4.4c-18.1,9-27.2,32.5-19.6,50.2c2.2,5.2,5.6,9.7,8.9,14.1l0.1,0.1
	c2.4,3.1,4.6,6.4,6.7,9.8c8.7,15.3,9.9,35.5,3.6,60.2c-1.9,7.5-4.3,14.8-6.6,22v0.1l0,0.1v0.1v0.1c-3.9,12.1-8,24.5-9.8,37.2
	c-5.7,39.9,11.1,83,43.7,112.7c29.1,26.5,70,42.3,115,44.5c3.5,0.2,6.8,0.3,9.8,0.3c13.3,0,24.7-1.5,35.1-4.6
	c19.8-6,36.5-18,54.8-31.8c12-9.1,24-18.5,35.7-27.8c9-7.2,20.3-16.1,27.7-27.5c10.2-15.6,14-36.5,11.8-64.1
	c-2.8-33.9-12.3-66.8-27.8-97.1c-7.9-15.2-17.7-34.2-8.3-49c1.8-2.9,4.3-5.3,6.6-7.6c2.4-2.3,4.6-4.6,6.3-7.2
	c4.2-6.2,5-14.4,2.2-22.4c-3.3-9.6-10.9-17.2-19.8-20.1C1133.9,274.1,1130.3,273.5,1126.6,273.5L1126.6,273.5z M1013.5,561.5h-0.2
	c-4.8-0.1-8.4-4.3-11.5-8.8l-0.2-0.3L995,543c-4.1-5.9-8.7-12.5-9.7-20.1c-1.2-9.1,4-16.3,9.8-18l0.1,0c1.3-0.3,2.5-0.5,3.8-0.5h0.7
	c1,0,2,0,3,0.1h0.1l11,0.6l11.2,0.6c5,0.3,10.6,0.9,13.7,4.7c2.7,3.4,2.9,8.6,0.4,15.7c-3.4,9.9-8.3,19.3-14.6,27.8
	C1022.1,557.1,1018.3,561.5,1013.5,561.5L1013.5,561.5z"/>
</svg>
