<svg id="Draw_Layer" data-name="Draw Layer" xmlns="http://www.w3.org/2000/svg" viewBox="0 0 886.06 1637.41"><defs><style>.cls-1{fill:#2c2c2c;}.cls-2{fill:#bebebe;}.cls-2,.cls-3,.cls-4{opacity:0.7;}.cls-3{fill:#6edaf4;}.cls-4{fill:#725af7;}</style></defs><title>Bunny</title><path class="cls-1" d="M1205.39,195.91c-.42.64-.8,1.39-1.27,1.44-10.71,1.18-17.3,8.3-23.28,16.2-3.54,4.68-6.86,9.42-8.4,15.37-1.66,6.41-4.83,12.43-6.4,18.84s-2.07,13-2.81,19.5c-1,9-2,18.09-2.61,27.16-.17,2.69,1.36,5.45,1.63,8.23,1,10.38,1.83,20.79,2.76,31.18a31.19,31.19,0,0,0,.93,6.35c2.27,7.28,4.74,14.49,7.14,21.72,2.13,6.44,3.55,13.26,6.6,19.24A323.56,323.56,0,0,0,1198.06,413a220.5,220.5,0,0,0,19.63,25.06c8.31,9.27,16.16,18.79,23.6,28.8a81.58,81.58,0,0,1,14.92,32.41,50.7,50.7,0,0,1-1.06,25.93c-3,9.43-8.62,16.43-14.58,23.62-4.32,5.21-8.8,10.32-12.65,15.87a224.38,224.38,0,0,0-12.37,20c-5.34,9.72-10.75,19.46-15.14,29.62a264.93,264.93,0,0,0-10.18,29.43c-2.3,7.78-3.81,15.81-5.44,23.77-1.11,5.42-2.08,10.89-2.67,16.39a136.09,136.09,0,0,0-.9,17.12c.35,16.55-.84,33.09,2.34,49.64,1.83,9.57,2.85,19.27,5.58,28.71,2.43,8.41,3.88,17,8,25,3.56,6.83,6.08,14.25,8.48,21.59.71,2.18,4.43,4,1,7.45-6.5,6.67-12.21,14.12-18.55,20.95-8.68,9.36-15.54,20-22.19,30.78a211.68,211.68,0,0,0-11.29,20c-3.36,7.1-5.89,14.61-8.66,22-3.3,8.8-6.89,17.53-9.59,26.52a229.14,229.14,0,0,0-5.44,24.22,168.26,168.26,0,0,0-2.67,20c-.64,10-.58,20.1-1,30.14-.46,10.23-.89,20.47-1.85,30.66a164.45,164.45,0,0,1-3.67,23.61c-1.6,6.53-5.27,12.56-6.87,19.09-2.34,9.62-9.09,16.84-12.74,25.71-2.94,7.16-6.9,13.9-9.74,21.09-2.34,5.92-3.14,12.47-5.63,18.31a108.34,108.34,0,0,0-7,25.81c-.33,2.11-.23,4.37-1,6.33-3.1,8.25-3.45,17-4.38,25.54-.56,5.24-.57,10.52-1,15.77-.07.91-1.12,1.73-1.72,2.82V1299c.6.69,1.68,1.35,1.72,2.06.42,7.5.44,15,1,22.51s1.61,14.84,2.67,22.22c.66,4.6,1.65,9.16,2.67,13.7,1.36,6,2.93,12,4.33,18,.48,2.07.56,4.23,1.06,6.3,1.43,5.83,3.11,11.6,4.43,17.45,1.36,6,2.25,12.21,3.68,18.24,1.24,5.28,3,10.43,4.42,15.66,2.15,8,4,16,6.35,23.86,2.25,7.72,4.82,15.35,7.39,23,2.52,7.47,5.38,14.84,7.76,22.36,1.52,4.79,2.22,9.83,3.71,14.63,2.1,6.74,4.75,13.3,6.86,20,1.54,4.92,2.48,10,3.89,15,1.1,3.87,2.6,7.61,3.73,11.46.48,1.63.21,3.5.77,5.08a134.29,134.29,0,0,1,6.37,23c1.16,7,3.56,13.77,5.23,20.69q2.86,11.85,5.39,23.8c1.9,9,3.67,17.94,5.39,26.94,1,5.29,1.64,10.66,2.75,15.93,1.6,7.53,3.44,15,5.25,22.5s3,14.86,5.61,21.92c4.48,12.29,9.17,24.6,17.86,34.79,3.2,3.75,6,8,9.61,11.22a81.39,81.39,0,0,0,24.94,15.53c8.71,3.32,17.34,5.59,26.61,5s18-3.1,25.45-9c3.28-2.59,6.85-4.94,9.66-8,6.35-6.87,11-14.95,15-23.37,2.5-5.24,4.82-10.57,7.19-15.87,2.6-5.81,5.31-11.57,7.67-17.47,2.14-5.4,3.69-11,5.85-16.42,2.48-6.16,5.47-12.11,8-18.24,2.27-5.49,4.16-11.14,6.34-16.67,2.63-6.69,5.26-13.38,8.13-20,2.5-5.7,5.27-11.29,8-16.87,4.27-8.67,8.33-17.47,14.78-24.86,3.34-3.82,6.13-8.27,10-11.5a113.16,113.16,0,0,1,18.73-13.22c4-2.18,9.22-2.39,14-3a51.49,51.49,0,0,1,10-.05,55.08,55.08,0,0,1,22.73,6.9c11.43,6.12,19.86,15.44,27.4,25.34a72.65,72.65,0,0,1,11.94,24.18c2.21,7.75,3.61,15.57,5.38,23.36,2.94,12.94.76,26.12,2.83,38.82,2,12.46.52,24.72,1.41,37,.32,4.37.22,8.8,1,13.08,1.15,6.32,2.85,12.55,4.42,18.8,1.73,6.9,3.19,13.9,5.5,20.62a50.34,50.34,0,0,0,6.92,13.68,224.12,224.12,0,0,0,16.76,19.55c5.84,6.17,13.75,9,21.57,11.76,2.48.88,5,1.52,7.81,2.49,7.86.22,15.49.22,23.12,0,3.6-1.27,7.28-2.15,10.79-3.43,2.33-.85,5-1.82,6.55-3.55,5.12-5.53,11.08-10.81,14.37-17.37,3.87-7.7,5.5-16.57,7.71-25,1.32-5.06,1.89-10.31,2.77-15.47.92-5.46,2.22-10.9,2.59-16.4a162.81,162.81,0,0,1,2.57-20.92c1.56-7.84,1.46-16,2.54-24,1.55-11.46,1.15-23.18,2.85-34.77,1.39-9.45.85-19.17,1.12-28.77.68-25.19-1.71-50.45,1.84-75.56.93-6.56,1.32-13.53,3.91-19.46,2.91-6.67,4.74-13.93,9.9-19.83,2.21-2.52,2.32-2.46,4.32-.69a48.55,48.55,0,0,0,22.85,10.77c10.28,2,20.85,2.2,31.27-1.37,8-2.74,15.33-6.19,21.59-11.86a12,12,0,0,1,2.21-1.27c.29.93.63,1.84.85,2.78.69,3,.92,6.21,2.09,9,3,7.14,8.59,11.69,15.25,15.52,11,6.33,22.12,6.23,32.92.74a44.43,44.43,0,0,0,17.67-16.82c6.46-10.55,10.81-21.57,11.09-34a16.78,16.78,0,0,1,.21-1.7,8.36,8.36,0,0,0,1.6,1.11c3.47,1.39,6.86,3.47,10.46,3.91,11.24,1.36,21-1.77,29.63-9.68,8.89-8.18,14.07-17.6,13.73-29.76-.15-5.47.63-10.93-1.64-16.37-2-4.72-2-10.33-4.28-14.81-4.14-8.07-9.4-15.57-14-23.4a3.64,3.64,0,0,1,.38-3.28c6-7.5,8.1-16.39,8.63-25.56.25-4.22-1.33-8.61-2.4-12.84-.92-3.62-1.47-7.72-3.59-10.57-6.46-8.71-13.73-16.69-25.38-18.49-3.77-.58-7.51-2-11.25-1.92-4,.07-8.08,1.23-12,2.22-8.28,2.06-15.62,5.85-21.37,12.33a13.4,13.4,0,0,1-1.58,1.31,14.2,14.2,0,0,1-.29-2.12,35.32,35.32,0,0,0-7.26-22.12c-7.39-10-17.46-15.52-30-15.92a13,13,0,0,0-4.09.8,13.27,13.27,0,0,1-4.13.78c-6.63-.24-11,4-15.86,7.28-3.24,2.2-5.83,5.37-8.72,8.1l-.54,2.69-1.13-.33c.41-.78.81-1.57,1.45-2.59.72-8.71.87-17.15,2.63-25.64,1.63-7.83,1.16-16.15,1.12-24.25-.07-13.2-.34-26.39-.92-39.57-.28-6.5.22-12.88-1.28-19.56-1.8-8-.94-16.57-2.94-24.86-1.75-7.2-2-14.77-2.88-22.18a43.4,43.4,0,0,0-.94-6.35c-1.36-5-3.1-9.8-4.4-14.77s-2.07-9.9-3.32-14.8c-1.47-5.8-3.31-11.5-4.77-17.3-1.92-7.61-3.95-15.21-5.32-22.91a165,165,0,0,1-2.63-22.67c-.2-5.1-.9-10.22,1.35-15.53,1.73-4,1.07-9.2,1.14-13.87q.21-13,0-26a96.37,96.37,0,0,0-1-14.43c-1.13-6.77-2.86-13.45-4.41-20.15-1.19-5.17-2.08-10.47-3.83-15.47-2.23-6.38-5-12.59-7.86-18.72-4.71-10.09-9.35-20.12-15.63-29.49-7.2-10.79-14.35-21.46-23.68-30.53-3.54-3.45-6.83-7.16-10.52-10.43-4.65-4.1-9.71-7.73-14.32-11.87-1.42-1.26-4.53-2.18-2.46-5.55,3.8-6.17,8-12.24,10.67-18.91a226.21,226.21,0,0,0,10-31.28c1.92-8.21,2.13-16.85,2.84-25.32a98,98,0,0,0,0-12.12q-.79-18.48-1.8-36.95a56.93,56.93,0,0,0-.91-8.15c-1.38-7-3-14-4.43-21-1.27-6.22-2.11-12.55-3.68-18.69-2.1-8.21-4.89-16.24-7.06-24.43s-4-16.33-5.84-24.52c-.44-2-.19-4.08-.72-6-1.27-4.54-3-9-4.22-13.5a119.1,119.1,0,0,1-2.69-12.79c-1.07-7.09-1.87-14.21-2.72-21.33-.16-1.32.11-2.7,0-4-.85-7.41-2.37-14.81-2.49-22.23-.11-6.45-1.1-12.92,1.36-19.54,2.13-5.76,1.86-12.37,3-18.53a34.24,34.24,0,0,1,8.54-17.5,81.27,81.27,0,0,1,14.76-12.87,102.52,102.52,0,0,1,19.79-9.54c5.35-2,11.24-2.46,16.85-3.77,6-1.39,11.86-3.5,17.91-4.35,10.78-1.5,21.72-.5,32.59-2.53,7.14-1.33,14.69.06,22.14,1.21,8.79,1.35,17.88.17,26.7,2.87,5.25,1.61,10.91,1.81,16.34,2.86s10.73,2.2,16,3.6c5.63,1.5,11.17,3.36,16.75,5.06,3.86,1.16,7.76,2.2,11.56,3.52,6.15,2.11,12.15,4.67,18.37,6.56,5.22,1.58,10.65,2.47,16,3.67,7.93,1.79,15.82,4.85,23.81,5.12,15.84.53,31.74,1.5,47.25-4.81,8.56-3.48,16.61-7.06,23.08-13.58,5.52-5.57,10.67-11.49,16-17.48,0-8.75,0-17.28-.22-25.81-.67-3.1-1.11-6.21-1.58-9.31a7.4,7.4,0,0,0-.54-1.36,6.05,6.05,0,0,0-.33,1.21c-.06.74,0,1.5,0,2.24a15.72,15.72,0,0,1-.28,1.67c-.32-.5-.6-1-1-1.52-4.65-6.46-8.8-13.35-14.07-19.26a149.26,149.26,0,0,0-38.3-30.77,170.68,170.68,0,0,0-29.93-13.39c-8-2.68-16.07-5.39-24.25-7.5a117.62,117.62,0,0,0-17.27-2.74,152.9,152.9,0,0,0-17.12-.9q-14.61.11-29.23.89c-5.6.3-11.16,1.17-16.74,1.82a48.94,48.94,0,0,0-5.93.85c-5.83,1.41-11.62,3-17.44,4.45-5.14,1.31-10.39,2.3-15.42,4-7.09,2.32-14,5.13-21,7.72-5.32,2-10.8,3.56-15.94,5.92-8.18,3.75-16.15,8-24.18,12-8.4,4.27-16.82,8.52-25.13,13-5.53,3-10.86,6.3-16.28,9.45s-10.63,6.13-15.92,9.24-10.19,6.4-15.52,9.12a242.24,242.24,0,0,1-23.69,11c-8,3.05-16.35,5.82-24.8,7.16a45.66,45.66,0,0,1-22.39-1.91c-10.59-3.72-21.26-7.27-32.07-10.3-8.23-2.31-16.7-3.84-25.12-5.44-6-1.15-12.08-2.12-18.17-2.68-6.73-.61-13.51-.73-20.27-.94-1.77-.06-3.53,0-5.3,0-2.28,0-4.55.05-6.81-.08-1.7-.1-3.39-1.56-5-1.48-2.79.13-5.52,1.37-8.29,1.49-10.94.46-21.89.67-32.84,1a3.49,3.49,0,0,1-.64,0,1.78,1.78,0,0,0-1.12.08c-5,3.22-10.7,1.49-16,2.66-2.32.51-2.77-.64-2.54-2.68.66-5.88,1.71-11.77,1.68-17.65,0-6.49-1.21-13-1.62-19.45-.47-7.35-.16-14.77-1.08-22-.8-6.35-3-12.52-4.31-18.81-1.17-5.38-1.63-10.95-3.19-16.2-2.15-7.28-5-14.36-7.62-21.51-3-8.32-5.46-16.92-9.24-24.88a244.6,244.6,0,0,0-14.51-25.4c-5.49-8.71-11.25-17.3-17.47-25.5a248.79,248.79,0,0,0-17.43-20.14c-3.56-3.78-7.86-6.88-11.88-10.22-4.88-4.06-9.47-8.63-14.83-11.91-6.23-3.81-13.17-6.43-19.77-9.61-.94-.45-1.74-1.18-2.82-1.78-6.66,0-13.09,0-19.53.23Zm217.33,747.55c-5.31-.6-10.82-1.47-16.85-2.68l-3.54-.71c-6.82-1.34-13.87-2.74-20.69-4.75-6.39-1.88-12.77-4.21-18.94-6.46l-.11,0-.52-.2c-2.62-1-5.25-1.91-7.88-2.84l-3.2-1.07-.45-.15c-2.28-.74-4.87-1.6-7.33-2.62-7.8-3.27-14.62-6.28-20.87-9.21s-12.83-6.08-19.32-9.69A98.16,98.16,0,0,1,1291.1,895c-8.36-6.45-17.3-13.42-26-20.64l-.34-.29c-5.9-4.9-12-10-17.24-15.64a179.56,179.56,0,0,1-11.72-14.69c-1.3-1.76-2.61-3.52-3.94-5.26l-1.53-2-.08-.1c-2.8-3.65-5.69-7.42-8.18-11.35-4.42-7-8-13.25-11.09-19.19-1.57-3.06-2.88-6.31-4.18-9.5-1-2.52-2.07-5.12-3.25-7.62a116.56,116.56,0,0,1-8.48-25.66c-.55-2.58-1-5.27-1.3-7.68a90.92,90.92,0,0,0-1.94-10.29c-2.88-10.62-2.72-21.56-2.57-32.16.07-4.16.11-7.92,0-11.65a89.86,89.86,0,0,1,.93-16.22c.88-5.41,2.11-10.86,3.31-16.13l0-.14c.55-2.42,1.09-4.83,1.61-7.25.32-1.52.61-3.06.9-4.61a92.38,92.38,0,0,1,2.22-9.81c1.13-3.72,2.59-7.41,4-11.07.69-1.75,1.38-3.5,2-5.26.43-1.16.83-2.34,1.23-3.52a58.76,58.76,0,0,1,2.53-6.59l.84-1.76c3.65-7.63,7.43-15.52,11.67-23.12,4.63-8.3,9.82-16.46,14.85-24.36l.68-1.08a27.09,27.09,0,0,1,3.23-3.91l.08-.1a34.64,34.64,0,0,0,2.33-2.66c1.57-2,3.21-4.07,4.8-6l.08-.09A146.63,146.63,0,0,0,1258.74,541a94,94,0,0,0,9.81-22c2.38-8.23,1.89-16.39,1-24-.62-5.39-3.68-10.61-6.65-15.66l-.07-.11c-.52-.89-1-1.77-1.53-2.65-6.6-11.58-16-21.12-25-30.35-3.33-3.39-7.1-7.23-10.6-11.08-6.67-7.35-12.24-16-17.83-24.88-6.48-10.36-12.34-20.76-17.41-30.94a88,88,0,0,1-5.35-15.08c-.41-1.4-.81-2.79-1.23-4.17-.78-2.58-1.46-5.3-2.07-7.74a100.78,100.78,0,0,0-3.51-11.95,32.83,32.83,0,0,1-1.7-8.91,40.25,40.25,0,0,0-1-6.61c-2.91-11-2.71-22.26-2.51-33.16v-.12c.09-4.63.18-9.42,0-14.13a63.37,63.37,0,0,1,.91-13.07l.47-2.65a198.85,198.85,0,0,1,5-22.94c3.12-10.33,8.29-23.21,20.77-31.22a14.83,14.83,0,0,1,4.18-1.59l.2-.06c.5-.14,1-.27,1.47-.43s1.05-.36,1.58-.55a14.08,14.08,0,0,1,4.43-1.11h.07a8,8,0,0,1,3.1.9,15.43,15.43,0,0,0,1.92.73c1.24.34,2.55.64,3.78.91a44.79,44.79,0,0,1,6.74,1.9,53,53,0,0,1,10.67,5.61,185,185,0,0,1,31.16,26.64c6.72,7.31,12,13.52,16.79,19.54a157.31,157.31,0,0,1,12.05,17.45c5.45,9.23,10.46,18.47,14.91,27.47,3.53,7.12,6.56,14.62,9.5,21.88l0,.11.66,1.61a108.2,108.2,0,0,1,4,12.27c.89,3.26,1.69,6.61,2.47,9.84l.1.42c.59,2.5,1.27,5.33,2,8.07a127.09,127.09,0,0,1,2.55,14.43v.14c.39,2.83.79,5.74,1.3,8.59,2.3,12.71,2.43,25.51,2.37,37.54,0,5.24-.32,11-.91,18a51.31,51.31,0,0,1-.81,5.28l0,.13a48.22,48.22,0,0,0-.84,5.53,6.2,6.2,0,0,0,1.87,4.4,7.58,7.58,0,0,0,5,2.68c1.37,0,2.74.07,4.11.12h.14c1.89.06,3.86.13,5.78.13a51.35,51.35,0,0,0,6.71-.38,123.81,123.81,0,0,0,13.55-2.79c1.91-.47,4.06-1,6.18-1.47a5.9,5.9,0,0,1,1.09-.08h.68l10.45-.18,3.51-.07c12.37-.23,25.16-.47,37.74-.59h1.24a79.19,79.19,0,0,1,13.18.95c4,.68,8,1.65,11.95,2.58l.14,0c2.34.56,5,1.2,7.63,1.75s5.1,1,7.6,1.46l.16,0c3.59.66,7.32,1.34,10.93,2.21,2.55.61,5.1,1.5,7.59,2.36,2,.71,4.16,1.44,6.29,2,2.89.78,5.87,1.46,8.75,2.11l.17,0a119.82,119.82,0,0,1,15.78,4.35,48.54,48.54,0,0,0,17.31,2.68c2.63,0,5.39-.11,7.62-.2h.15c2-.08,4.12-.16,6.18-.19,6.34-.07,12.86-2.52,20.5-7.72,4.07-2.77,8.35-5.37,12.49-7.89l.15-.09c2.09-1.27,4.17-2.54,6.25-3.83.72-.46,1.44-1,2.17-1.53l.22-.16.75-.55c2.86-1.75,5.49-3.24,8-4.68l.93-.53,1.68-.95,2.68-1.54c4.81-2.75,10.26-5.86,15.43-8.92,2-1.17,3.94-2.42,5.85-3.63h0l.1-.07c2.94-1.87,6-3.8,9.11-5.48,6-3.22,12.17-6.39,17.66-9.18,3.35-1.71,6.71-3.43,10-5.16,1.69-.88,3.37-1.82,5-2.73l.12-.07c2.75-1.53,5.59-3.11,8.49-4.43,4.19-1.9,8.51-3.55,12.69-5.16l.55-.21,4.08-1.58,3.73-1.47.1,0c4.18-1.65,8.51-3.36,12.82-4.9a141.29,141.29,0,0,1,13.91-4.31c7.07-1.72,14.3-3.24,21.3-4.71l.22-.05,3.18-.67c1.77-.37,3.59-.69,5.34-1l.31-.06c2.65-.45,5.66-1,8.47-1.7,10-2.59,19.85-2.93,27.35-2.93,4.29,0,8.63.13,12.82.25h.35c3.62.11,8.12.23,12.39.23h1.6a105.6,105.6,0,0,1,25.46,3.57c5.3,1.32,10.56,3.18,15.69,5l.12,0c4.51,1.59,9.17,3.24,13.85,4.51,7.41,2,13.93,5.83,20.23,9.53l.65.37,3.39,2a107.88,107.88,0,0,1,11.4,7.89l.12.09c3.68,2.79,7.17,5.67,10.37,8.56a70.39,70.39,0,0,1,17.58,25c3.57,8.42,4.54,16,2.88,22.44a38.94,38.94,0,0,1-7.84,15,51.15,51.15,0,0,1-14.66,12.05c-10.22,5.41-21,6.15-30.16,6.15-3.73,0-7.53-.15-11.21-.29h-.25c-1.77-.07-3.55-.14-5.33-.19-6.5-.2-13-1.61-19.37-3l-2.48-.53c-5.87-1.24-11.73-2.91-17.41-4.53l-2.81-.8c-5.2-1.47-10.48-3-15.64-4.54-4-1.18-8-2.36-12-3.51-2.74-.78-5.48-1.54-8.27-2.3-3.62-1-7.37-2-11-3.12-2.11-.63-4.23-1.36-6.29-2.06l-.28-.1c-2.23-.76-4.53-1.55-6.86-2.24a4.75,4.75,0,0,0-1.33-.16c-.39,0-.79,0-1.2.06s-.8.06-1.2.06a5.85,5.85,0,0,1-.73,0c-2.56-.31-5.11-.58-7.67-.85l-.56-.06c-6.71-.7-13.65-1.43-20.34-2.79a110.49,110.49,0,0,0-22.54-1.92c-4.16,0-8.39.13-12.49.25h-.36c-4,.11-8.08.23-12.11.23-1.43,0-2.87,0-4.3-.05h-1.35a123.35,123.35,0,0,0-17.71,1.74q-2.92.44-5.85.83a127.45,127.45,0,0,0-14.13,2.69c-2.85.71-5.7,1.61-8.52,2.5-1.78.57-3.61,1.15-5.45,1.68a15.26,15.26,0,0,1-2.59.45c-.55.06-1.09.13-1.63.22A78.28,78.28,0,0,0,1604,485.88c-9.12,5.76-15.38,13-19.16,22-5,11.9-5,24-5,35.61l0,4.93c0,8.35-.07,17,0,25.59,0,1.49,0,3,0,4.51,0,5-.08,10.07,1.11,14.8a74.29,74.29,0,0,1,1.76,13.74v.11c.17,2.63.34,5.34.7,8,.75,5.84,1.58,12.05,2.71,18.19,1.9,10.43,3.61,19,5.4,26.93.77,3.44,1.76,6.88,2.73,10.22l0,.18c.66,2.27,1.33,4.61,1.93,6.93,1.59,6.11,3.13,12.35,4.61,18.38l.07.27,1.32,5.35.73,3,.58,2.34.11.42c1.32,5.33,2.7,10.85,3.93,16.3.45,1.94.78,3.93,1.09,5.86a69.2,69.2,0,0,0,1.71,8.26c3.42,11.53,3,23.43,2.65,35-.11,3.34-.22,6.79-.23,10.18,0,8-1.14,16.49-3.55,27.67a142.65,142.65,0,0,1-8.1,26.23c-2.54,6-5.7,11.77-8.81,17.46-2,3.7-4.1,7.53-6,11.42a89,89,0,0,1-15.58,21.84c-2.47,2.6-4.88,5.36-7.22,8a146.37,146.37,0,0,1-13.9,14.51c-13,11.3-23.92,18.4-35.28,23-6.16,2.5-12.75,5.15-19.31,7.58a22.43,22.43,0,0,1-5.53,1l-.33,0c-1.6.15-3.28.21-4.77.27a41.36,41.36,0,0,0-9,1,57.82,57.82,0,0,1-15.21,1.69c-2.75,0-5.53-.11-8.22-.21h-.43c-2.46-.09-5.52-.21-8.4-.21-1.74,0-3.26,0-4.66.12-1,0-1.91.08-2.91.08a116.64,116.64,0,0,1-12.86-.94Zm-151.83,244.87c-6.47-.87-12.76-3.8-17.52-6.26-7.59-3.91-15-8.41-22.11-12.77l-2-1.19-2-1.2a25.08,25.08,0,0,1-3.93-3.16l-.13-.12c-.63-.58-1.29-1.19-2-1.74q-2.71-2.22-5.49-4.45c-2.93-2.37-6-4.82-8.93-7.31-3.31-2.78-6.64-5.65-9.91-8.47-3-2.57-6-5.15-9-7.68-1-.86-2.13-1.66-3.22-2.44a28.12,28.12,0,0,1-5.15-4.31c-1.8-2.07-3.61-4.12-5.43-6.17-7.29-8.22-14.82-16.72-20.55-26.55-5.14-8.83-10-17.56-13.16-27.37-2.66-8.29-5.12-17.31-5.13-27,0-2.26,0-4.51,0-6.78,0-6.29,0-12.8.06-19.25a65.72,65.72,0,0,1,.94-11.73c.74-3.72,1.74-7.42,2.7-11,.61-2.3,1.17-4.38,1.68-6.48a26.5,26.5,0,0,0,.48-3,26.43,26.43,0,0,1,.45-2.9c.44-1.87.86-3.74,1.28-5.61,1.23-5.53,2.51-11.24,4.22-16.81a101.91,101.91,0,0,1,4.32-11c.92-2.1,1.75-4,2.52-5.93s1.5-3.94,2.15-5.73c1.07-3,2.18-6,3.52-9,2.6-5.73,5.57-11.7,9.61-19.35,3.44-6.52,7.49-14.11,12-21.52a123.48,123.48,0,0,1,8.93-12.47c7.82-9.93,14.2-17.84,20.08-24.89a5.88,5.88,0,0,1,4.5-2.25,6.57,6.57,0,0,1,4.66,2.15c2.53,2.6,5.06,5.28,7.5,7.87l.26.27c5,5.28,10.12,10.73,15.51,15.82a245.53,245.53,0,0,0,22,18.41c7.9,5.9,16.3,11.25,24.22,16.22,8.34,5.23,17,10.24,25.23,14.92,1.72,1,3.43,2,5.14,2.94l1.13.66c8.15,4.68,16.56,9.53,25.14,13.77,7.54,3.72,15.47,6.5,24.32,9.51,8.29,2.81,17,4.18,25.51,5.5l1.8.28c13.51,2.14,26.82,2.32,39.31,2.32h2.26c5.55,0,11.52-.27,19.38-.88,9.8-.75,19.69-1.66,29.4-2.7l.24,0c6.51-.69,13.23-1.4,19.71-2.75a72.42,72.42,0,0,0,11.33-3.7l.34-.13c.7-.27,1.39-.55,2.09-.81,7.22-2.75,13.88-6.75,19.56-10.29,14.42-9,26.32-20.87,37.28-32.26,2.52-2.63,4.82-5.54,7.07-8.37,1.82-2.3,3.71-4.68,5.73-6.92,2.46-2.74,4.7-4,7-4,2,0,4,.89,6.45,2.78,7.55,5.87,12.71,11.55,16.23,17.86a19.81,19.81,0,0,0,3,3.77l.1.11a28.19,28.19,0,0,1,2.17,2.47q1.89,2.52,3.83,5l.32.42a176.29,176.29,0,0,1,11,15.28c3,4.84,5.64,10,8.24,15.06,1.87,3.65,4,7.78,6.23,11.67,4.85,8.47,7.74,17.78,10.54,26.82l1.06,3.41c2.34,7.43,4.79,16.34,5.27,26.11.11,2.19.44,4.43.76,6.59l0,.13a49,49,0,0,1,.8,9.14,134.16,134.16,0,0,1-2.71,24,222,222,0,0,1-8.11,26.7,55.1,55.1,0,0,1-4.08,8.31c-1,1.75-2,3.57-2.87,5.41-1.84,4-3.61,8.08-5.18,11.71-1,2.3-2,4.6-3,6.89l-.77,1.76-.32.73,0,.1c-1.31,3-2.68,6.14-4.23,9.09-2.65,5-5.54,10-8.36,14.88l-.87,1.5c-3.64,6.29-6.69,11.44-9.61,16.22A42.3,42.3,0,0,1,1621,1160l-1.29,1.7c-6.85,9.78-16.25,22.32-28.17,32.42a171.69,171.69,0,0,1-23.66,16.49,152.63,152.63,0,0,1-18.56,8.91l-3.19,1.37a67.49,67.49,0,0,1-11.51,3.61,114.32,114.32,0,0,1-25.59,2.91c-2,0-4.08-.06-6.06-.16-13.72-.72-25.26-4.06-35.28-10.2l-2.27-1.37-.48-.29a68.56,68.56,0,0,1-10.24-7c-7.64-6.76-7.88-16-6.74-22.63a37.82,37.82,0,0,1,11.37-20.84l3.19-3.06c4.86-4.67,10.36-10,15.82-15A37.62,37.62,0,0,1,1482,1144a23.91,23.91,0,0,0,5-4.25c1.49-1.86,3.06-3.73,4.58-5.54l.12-.14c5.67-6.76,11.54-13.75,14.87-22.07a55.15,55.15,0,0,0,3.25-31.63c-2.68-13.66-10.07-25.12-22.57-35-8.3-6.56-18.2-11.72-30.29-15.75l-.72-.24c-7-2.33-13.58-4.53-20.86-5.11a57.41,57.41,0,0,1-13.68-2.71c-4.52-1.51-9.23-1.73-13.79-2a71.76,71.76,0,0,1-9.32-.86,147.46,147.46,0,0,0-26.74-2.12c-7.84,0-15.74.4-23.39.79l-2,.09-3.72.19c-11.32.53-24.51,2-36.55,8.95-7.82,4.52-13.19,10.61-15.94,18.1-1.58,4.32-2.14,11,1,16.71a34.39,34.39,0,0,1,2.51,6.38l0,.15c.42,1.31.85,2.66,1.37,4a16.39,16.39,0,0,0,2.54,3.87l2.32,2.94.2.25c3.92,5,8,10.06,12.08,15,7.87,9.47,12.6,17.77,15.35,26.9a54,54,0,0,1,1.34,27.71c-1.34,6-3.61,13.62-9.22,19.51a18.6,18.6,0,0,0-2.18,3,14.71,14.71,0,0,1-2.68,3.44,71.22,71.22,0,0,1-21.27,12.56,35.15,35.15,0,0,1-12.5,2.11,77.68,77.68,0,0,1-10.32-.84Zm10.37,13.54a132.46,132.46,0,0,0,19.42-5c11.32-3.78,20.73-10.45,28.79-20.4a67.73,67.73,0,0,0,10.83-19.33,52.19,52.19,0,0,0,3.16-15.68c.34-7.1.45-14.62-1-21.55-1.29-6.34-3.45-14.52-8.57-21.56a94.79,94.79,0,0,1-6-9.81l-.09-.16c-1.27-2.29-2.59-4.66-4-6.9a30.7,30.7,0,0,0-3.38-4.11,36.19,36.19,0,0,1-2.78-3.23l-.12-.16c-3.51-4.77-7.15-9.7-10.34-14.8-5.21-8.33-1.43-16.75,4.63-21.4,4.84-3.7,10.43-4.53,16.35-5.41l1.58-.23c13.29-2,26.5-2.43,42.23-2.43l8.29,0q4.17,0,8.36,0l5.12,0h.41c6.86,0,13.7,1.14,20.32,2.24l.35.06c2.17.37,4.42.74,6.62,1.06,9.32,1.37,18.1,4.62,26.6,7.76l1.84.67c5.77,2.13,11,5.5,16.73,9.37l.79.53c6.09,4.09,12.39,8.33,17.54,13.53a51.15,51.15,0,0,1,11,16.45c1.33,3.3,1,7.32.77,11.29-.09,1.2-.17,2.45-.2,3.64-.32,10.75-6.25,19.73-10.69,25.55s-9.87,11.19-15.08,16.32l-.25.25c-2.62,2.59-5.34,5.27-7.89,8l-1.35,1.43c-5.17,5.48-10.52,11.16-15.31,17.24a45.21,45.21,0,0,0-7.8,13.76c-2.31,7.21-4.15,13.81-3.23,21.44a34.06,34.06,0,0,0,7.89,18.26c3.52,4.2,8.71,7.11,13.72,9.92l.7.39c5.65,3.17,12,4.5,18.25,5.79,1.39.28,2.77.57,4.15.88,7.55,1.68,15.55,2.43,25.93,2.43,4,0,8.06-.11,11.16-.21,9.51-.29,19.14-1.88,28.51-3.43l.5-.09a70.82,70.82,0,0,0,9.81-2.61c2.08-.66,4-1.25,5.85-1.75a12.89,12.89,0,0,1,3.3-.45c5.62,0,9.84,4.22,10.75,10.75a94.7,94.7,0,0,0,2.73,12l.11.42c.49,1.81,1,3.68,1.44,5.52a7.18,7.18,0,0,1,.1,1.92c0,.25,0,.5,0,.75,0,1.37,0,2.73,0,4.15.06,3.06.12,6.22-.11,9.31l-.19,2.57c-.63,8.37-1.27,17-2.56,25.47a190.32,190.32,0,0,1-4.38,19.34l-.47,1.79-.47,1.79c-1.18,4.59-2.61,9.31-3.86,13.48l-.18.6c-.44,1.45-.87,2.89-1.3,4.34-.71,2.41-1.4,4.83-2.09,7.24l-.23.84c-1.78,6.27-3.61,12.76-5.86,19.06-4,11.39-8.7,22.44-12.3,30.8a280.78,280.78,0,0,1-12.14,25.47,75.88,75.88,0,0,1-7.88,10.9c-1,1.28-2.09,2.57-3.1,3.87-.52.66-1,1.34-1.59,2.06a67.62,67.62,0,0,1-6.72,7.92,113.6,113.6,0,0,1-13.64,11.45c-6.93,4.85-15.22,10.48-24.11,15.46-5.27,3-11.19,5-16.91,6.88l-.37.12c-8.4,2.83-16.82,5.22-23.94,7.18a32.48,32.48,0,0,1-6.68.86l-.48,0-1,.07c-2.6.17-5.2.38-7.87.6-6.36.51-12.94,1-19.4,1h-1.15a131.66,131.66,0,0,1-18.62-2l-.81-.12-3.24-.49a57.45,57.45,0,0,1-7.28-1.73c-1.08-.32-2.17-.63-3.27-.91a8.88,8.88,0,0,1-2.06-1.09,3.46,3.46,0,0,0-1.25-.64,113.84,113.84,0,0,1-34.81-13.59c-8.28-4.79-17.67-10.2-26.43-16.2a145.94,145.94,0,0,1-18.82-15.21c-7.43-7.12-17.09-16.61-26-27a100.78,100.78,0,0,1-9.31-13.71c-1.26-2.08-2.56-4.24-3.91-6.33-1.15-1.78-2.33-3.55-3.51-5.33-2.59-3.91-5.54-8.33-8.08-12.77a86.25,86.25,0,0,1-4.51-9.63l-.15-.37c-.56-1.32-1.12-2.65-1.7-4-.49-1.09-1-2.18-1.48-3.26l-.38-.83-.06-.12c-1.41-3.07-2.86-6.25-4.14-9.43-1.93-4.77-3.64-9.75-5.1-14l-.08-.24c-1.64-4.82-3.48-10.28-5-15.61-.94-3.37-1.73-6.94-2.42-10.08-.37-1.7-.74-3.38-1.14-5.06-.51-2.19-1-4.37-1.59-6.55l-.07-.29c-1.07-4.32-2.16-8.78-3-13.21-1.22-6.35-2.29-13.18-3.35-21.5-.17-1.35-.34-2.7-.52-4l0-.25a207.63,207.63,0,0,1-2-21.06c-.28-10.25.24-20.54.85-30.14a206.18,206.18,0,0,1,2.71-22.65,96.17,96.17,0,0,1,4.71-16.89,3.09,3.09,0,0,1,2.88-2.26,5.07,5.07,0,0,1,3.23,1.46c1.22,1.05,2.42,2.13,3.64,3.21l.46.41c5.15,4.59,10.48,9.34,16.41,13.07,8.18,5.15,16.65,10.47,26.61,12.47,1.34.28,2.78.5,4,.69a35.39,35.39,0,0,1,9.11,2.21,20.06,20.06,0,0,0,8.2,1.76,21.57,21.57,0,0,0,3.67-.32Zm-48.51,571.94c-10.66-3.62-19.12-7.53-25.73-14.84-1.47-1.62-3.06-3.2-4.59-4.72a65.75,65.75,0,0,1-8.24-9.33,93.28,93.28,0,0,1-7.23-13.75l-.11-.24c-.69-1.5-1.38-3-2.09-4.5-.32-.64-.63-1.28-1-2a62.42,62.42,0,0,1-4.27-10.21,165.23,165.23,0,0,1-3.74-17.77c-.42-2.41-.69-4.94-.93-7.17a68.72,68.72,0,0,0-2-11.84,59.92,59.92,0,0,1-1.82-13.63,78,78,0,0,0-1-9.95,113.68,113.68,0,0,1-1.44-15.49,115.05,115.05,0,0,0-1.25-14.37,222.4,222.4,0,0,1-2.53-24.52,95.52,95.52,0,0,0-2.67-17.26c-.79-3.22-1.85-6.44-2.89-9.6a82.82,82.82,0,0,1-3.89-14.87,46.87,46.87,0,0,0-3.63-11.71,72,72,0,0,1-2.69-7.32,59.38,59.38,0,0,0-4.56-10.56c-.75-1.48-1.53-3-2.25-4.55q-1.66-3.6-3.35-7.2c-2.09-4.5-4.19-9-6.26-13.51l-.71-1.55c-1.92-4.16-4.31-9.34-6.46-14.33l-1.18-2.7-.1-.24c-3.09-7.15-6.28-14.54-9.18-21.9-2.2-5.59-4-11.09-6.06-17.69-2.74-8.69-5.64-17.94-8.22-27.11-.78-2.75-1.33-5.62-1.82-8.16l0-.15c-.39-2-.8-4.1-1.3-6.12-.64-2.61-1.36-5.26-2.07-7.82l-.13-.46c-.75-2.7-1.52-5.5-2.2-8.28a15.34,15.34,0,0,1-.32-3.26,21.8,21.8,0,0,0-.15-2.41c-.37-2.65-.78-5.3-1.2-8-.69-4.45-1.41-9-1.93-13.62-.37-3.33-.59-6.74-.8-10l0-.21c-.4-6.33-.82-12.86-2.3-19a63.45,63.45,0,0,1-1.3-14.05l0-1.47c-.28-16-.39-29.44,0-43.09.2-6.35.91-12.8,1.61-19,.36-3.2.68-6.09,1-9a11.22,11.22,0,0,0,0-1.53,12.39,12.39,0,0,1,0-1.61c.2-1.79.4-3.58.59-5.37l0-.27c.64-5.88,1.3-12,2.1-17.93.59-4.25,1.44-8.89,2.69-14.6.86-3.93,1.82-7.92,2.81-12l.24-1c.6-2.49,1.19-5,1.77-7.46.39-1.7.74-3.44,1.07-5.13l.05-.25a93.56,93.56,0,0,1,2.19-9.42c1.22-4,2.7-8.09,4.12-12l.06-.16.06-.17c.87-2.37,1.77-4.83,2.6-7.26.63-1.85,1.21-3.8,1.73-5.53.62-2.1,1.33-4.48,2.16-6.77,1.5-4.16,3.16-8.33,4.78-12.4l.61-1.54,1.22-3.07c.62-1.61,1.26-3.22,1.89-4.83l.3-.75c1.25-3.16,2.5-6.32,3.72-9.48.6-1.55,1.17-3.11,1.73-4.67s1.23-3.38,1.89-5.06c.8-2,1.56-3,2.46-3,.75,0,1.66.65,2.86,2,2,2.35,4,4.9,5.7,7.16l.27.34c1.27,1.64,2.59,3.35,3.92,5s2.79,3.47,4.17,5.22l.39.48c4,5,8.14,10.26,12.66,15,7.2,7.51,14.86,14.79,22.27,21.82l1.25,1.18,5.23,5c3,2.82,3.28,5.2,1.25,8.79-1,1.81-1.1,4.21-1.18,6.54,0,.94-.06,2.12-.18,3.17q-.37,3-.78,6l-.09.74c-.68,5-1.37,10.25-1.74,15.46-.23,3.15-.17,6.37-.12,9.48v.19c0,2.7.11,5.5,0,8.28s-.5,5.31-.85,7.91c-.61,4.56-1.25,9.28-.61,13.75a217.25,217.25,0,0,1,1.61,23.48v.23c.18,5.56.36,11.31.87,17,.46,5.21,1.45,10.46,2.41,15.53l.24,1.31c.35,1.86.69,3.71,1,5.57,1.28,7,2.6,14.27,4.45,21.34,1.32,5.07,3.2,10.21,4.85,14.76l.18.48c.85,2.36,1.74,4.79,2.54,7.19l.84,2.53c2.73,8.19,5.54,16.66,9.87,24.47,2.29,4.12,4.34,8.39,6.32,12.54,2.13,4.45,4.34,9.06,6.81,13.41a159.76,159.76,0,0,0,10.41,15.4l2.29,3.13a143.86,143.86,0,0,0,10.17,12.83l2.83,3.1.2.23c7.9,8.67,16.07,17.64,24.6,25.94a89.49,89.49,0,0,0,11.73,9.13c1.76,1.22,3.76,2.6,5.65,4,1,.78,2,1.57,3.07,2.36l.54.42c2.37,1.84,4.82,3.75,7.37,5.42,2.91,1.89,6.1,3.63,8.92,5.16,1.14.62,2.28,1.24,3.41,1.87s2.17,1.23,3.25,1.86l.2.11c2.78,1.61,5.66,3.29,8.63,4.64,5.91,2.68,12.08,5.08,18.05,7.4l.09,0,.28.11.59.23c4,1.57,8.6,3.34,13.11,4.6,5.14,1.42,10.37,2.39,15.26,3.23,2.27.39,4.62.65,6.94.9a63.4,63.4,0,0,1,11.64,2,49.86,49.86,0,0,0,14.8,1.87c2.74,0,5.6-.12,8.12-.23h.26c2.59-.11,5.26-.23,7.87-.23l2.37,0c.43,0,.86,0,1.29,0a65.7,65.7,0,0,0,17.29-2.64A204.05,204.05,0,0,0,1481,1494c17.42-8.29,30.79-21.85,42-33.9,7.79-8.41,14.24-18.09,18.41-24.64,4.76-7.48,8.85-15.57,12.82-23.42l1.87-3.69a239.28,239.28,0,0,0,10.1-21.84c3-7.8,5.57-16,8-23.82l0-.1,1-3.29c2.77-8.8,5.63-17.9,8-27.17.93-3.59,1.65-7.3,2.35-10.89l0-.19c.91-4.63,1.84-9.43,3.21-14,2.13-7.1,2.33-14.38,2.52-21.42l0-1.2c0-.78,0-1.55.07-2.33a34.44,34.44,0,0,1,.8-5.53,28.57,28.57,0,0,0,.77-6.74c-.31-5.83-1.14-11.68-2-17.34-.21-1.48-.42-3-.62-4.44-.78-5.69-1.69-11.5-2.71-17.28a11.83,11.83,0,0,0-.83-2.43,10.5,10.5,0,0,1-.87-2.68c-.69-5.3,2.51-9,5.61-12.54l.52-.6c3-3.43,6.08-6.87,9.09-10.2l.42-.46c4.3-4.75,8.75-9.66,12.91-14.66,5.34-6.42,10-13,15.59-20.9.71-1,1.43-2,2.15-3.06l.47-.66c4.75-6.72,9.67-13.67,13.8-20.9,4.85-8.49,9.33-17.23,13.67-25.68l.62-1.21c1.83-3.57,3.66-7.13,5.52-10.67a12,12,0,0,1,1-1.44,12.73,12.73,0,0,0,.92-1.38c.5-.94.94-1.9,1.43-3l.08-.16c.15-.34.3-.67.48-1l.07-.15h0l0,0c.19.51.39,1,.6,1.51.47,1.16.88,2.21,1.23,3.27s.68,2.09,1,3.13l.1.31c1.2,3.67,2.45,7.47,3.5,11.25,2.29,8.27,4.39,16.52,6.14,23.49,1.54,6.17,3.55,14.29,5.37,22.46,1.06,4.76,1.88,9.64,2.67,14.35l0,.25c.3,1.85.54,3.76.77,5.6l0,.29a68.94,68.94,0,0,0,2,11.34,59.84,59.84,0,0,1,1.89,13.32,78.18,78.18,0,0,0,1,9.35,59.58,59.58,0,0,1,.61,11.36,58.58,58.58,0,0,0,.46,10c1.67,10.21,1.43,20.54,1.2,30.53v.28c-.14,6.15-.28,12.51,0,18.76a122,122,0,0,1-.69,16.68l-.15,1.79c-.68,7.88-1.55,16.17-2.69,25.37-.85,6.82-1.69,12-2.72,16.83-.68,3.15-1.57,6.3-2.45,9.41l-.1.37c-.63,2.22-1.28,4.52-1.83,6.79a29,29,0,0,0-.6,4.19c-.09,1-.19,2-.36,3-.21,1.2-.4,2.41-.59,3.64a101.35,101.35,0,0,1-2.16,11c-2.32,8.37-5.08,16.81-7.53,24.25-4,12.37-7.52,22.8-11.29,33.48-2.13,6.07-4.54,12.43-6.48,17.55l-.32.84q-1.74,4.6-3.46,9.23l-.37,1c-2.28,6.17-4.86,13.16-7.27,20.07l-.66,1.91-.15.43c-3.64,10.42-7.4,21.2-10.87,31.87-1.3,4-2.42,8.25-3.41,12-.6,2.26-1.28,4.81-2,7.32-.5,1.75-1.06,3.53-1.6,5.25l-.14.47c-.93,3-1.9,6-2.65,9a17.85,17.85,0,0,0-.32,4.27,24.45,24.45,0,0,1-.11,3.2c-.28,2.14-.63,4.28-1,6.43-.52,3.16-1,6.42-1.28,9.65-.22,2.86-.2,5.81-.18,8.65,0,4.91.07,10-1.11,14.69-1.55,6.2-1.43,12.43-1.32,18.52.06,3.42.12,7-.12,10.44-.2,2.85-.23,5.82-.26,8.44a85,85,0,0,1-.86,13.6,161.53,161.53,0,0,0-1.74,18.5c-.26,4.76-.53,9.68-1.14,14.48-1,7.62-1.77,14.76-2.39,21.81-.09,1-.17,2-.26,3-.47,5.68-1,11.55-2.62,17a52.18,52.18,0,0,0-1.76,10.53c-.2,2.09-.41,4.24-.78,6.35-.6,3.41-1.5,6.78-2.37,10.05-.69,2.57-1.4,5.23-2,7.88a27.59,27.59,0,0,0-.45,4.64,23.89,23.89,0,0,1-.61,5.28c-.3,1.08-.58,2.16-.87,3.24-2.87,10.79-5.84,22-15.09,29.58-6.33,5.21-12.76,7.75-19.66,7.75a31.08,31.08,0,0,1-5.43-.5c-13.36-2.38-24.16-8.33-32.11-17.7-3.39-4-5.72-9-8-13.85l-.08-.16c-.7-1.52-1.43-3.07-2.17-4.57a74.79,74.79,0,0,1-4.19-10.82,15.11,15.11,0,0,1-.53-3.81c0-.72-.09-1.47-.2-2.2-.22-1.64-.5-3.31-.77-4.92l-.08-.45a92.94,92.94,0,0,1-1.39-10.72c-.2-4.44-.22-9-.23-13.39,0-7.57,0-15.4-1.1-23-.56-4-.83-8.15-1.1-12.16-.29-4.49-.59-9.14-1.33-13.69-1.19-7.36-3-14.71-4.81-22.23l-.44-1.76-.34-1.42a147.82,147.82,0,0,0-5.23-18.11c-3-7.86-6.73-15.61-10.34-23.14l-1.41-3c-5.9-12.34-14.68-23.7-27.61-35.73-8.23-6.75-16.48-13.13-26.86-16.89a44.39,44.39,0,0,0-15.37-2.61,67.84,67.84,0,0,0-13.25,1.44c-4.38.87-8.55,3.22-12.58,5.5-2,1.13-4.06,2.29-6.15,3.27-8.54,4-14.38,11.2-19.63,18.2a145,145,0,0,0-10.73,17.59c-1.12,2-2.24,4.1-3.39,6.12-2.39,4.21-4.46,8.56-6,11.87s-3.13,6.88-4.64,10.26l-.24.54c-1.69,3.79-3.35,7.5-5,11.12-1.4,3-2.89,6.1-4.33,9.07l-.34.69c-1.91,3.94-4.08,8.4-6,12.74-1.54,3.41-3,6.94-4.38,10.41l-.12.28c-1.23,3-2.5,6.16-3.85,9.19-1.1,2.48-2.34,4.94-3.54,7.3l-.13.26c-1.1,2.16-2.23,4.4-3.24,6.64-1.28,2.86-2.49,5.8-3.68,8.72s-2.33,5.67-3.58,8.46c-1.69,3.79-3.64,7.53-5.52,11.14l-.6,1.15c-1.07,2.06-2.1,4.15-3.14,6.24a143,143,0,0,1-8.86,16.11c-2.43,3.63-6.36,7.14-11.68,10.42-5.1,3.15-11,6.61-17.31,7.82a43.57,43.57,0,0,1-8.22,1,18,18,0,0,1-8.63-2,4,4,0,0,0-1.86-.35c-.34,0-.69,0-1.07,0s-.73,0-1.09,0a4.82,4.82,0,0,1-1.6-.22Zm454.52-248.37-1.15-.24c-5.69-1.2-11.58-2.45-17-4.66a30.29,30.29,0,0,1-10.49-7.93c-1.33-1.49-.31-5.58.19-7.27,1.91-6.49,4.07-13,6.15-19.33l.06-.16.44-1.35,1.35-4.1.92-2.82.41-1.25c3.08-9.42,6.26-19.16,9.45-28.71,2.69-8,5.46-16.06,8.08-23.57.78-2.28,1.64-4.53,2.62-7.1a119.86,119.86,0,0,0,4.92-14.87,35.42,35.42,0,0,1,9.87-18c1.71-1.67,2.38-4.62,3-7.25l.06-.26.21-.9c.55-2.27,1-4.61,1.36-6.88h0v-.14a78,78,0,0,1,2.31-10.32c.34-1,.66-2.08,1-3.14,1.82-5.93,3.7-12.08,8.4-16.74.84-.84,1.66-1.7,2.48-2.57,3.42-3.65,7-7.41,12.25-8.44a38.58,38.58,0,0,1,7.08-.9,11.14,11.14,0,0,1,4.2.71,40.58,40.58,0,0,1,13.61,9.11,35.43,35.43,0,0,1,7.3,13,96.29,96.29,0,0,1,2.81,11.08c.56,2.65,1.2,5.66,2,8.5.32,1.11,2.73,2.63,3.84,2.63a.72.72,0,0,0,.31,0,65,65,0,0,0,12-6.81c2.43-1.79,4.74-3.8,7-5.76a93.27,93.27,0,0,1,8.85-7,12.35,12.35,0,0,1,7.12-2.11,24.52,24.52,0,0,1,8.57,1.84c8.48,3.15,14.4,9.38,20.21,16,3.71,4.26,7.89,10.1,7.31,17.54a13.85,13.85,0,0,1-1.36,4.31c-.26.59-.56,1.28-.8,2-3.26,3-6.06,5.54-8.88,8.08a8.77,8.77,0,0,1-.9.67c-.62.42-1.27.85-1.35,1.36-1,5.71.53,11.16,4.85,17.67,1,1.56,2.17,3.08,3.31,4.61a64.11,64.11,0,0,1,5.11,7.62l.79,1.46c2.83,5.23,5.76,10.65,7,16.34,1.71,7.76,2.9,16.91-1.26,25.86a28.42,28.42,0,0,1-15.93,15,18,18,0,0,1-6.7,1.29,23.67,23.67,0,0,1-9.61-2.23c-.91-.41-1.81-.85-2.69-1.29l-.22-.1c-3.07-1.54-6.26-3.12-10-3.12-.31,0-.62,0-.94,0-3.45.23-5.94,1.27-7.4,3.1s-2,4.74-1.39,8.45-.21,7.84-1,11.78l-.1.53c-.09.42-.17.84-.25,1.26a37.21,37.21,0,0,1-3.2,9.42c-5.44,11.09-13,18.65-23.15,23.13a16.94,16.94,0,0,1-6.69,1.78c-4.28,0-6.79-3.09-10.49-9.58a109.83,109.83,0,0,1-7.54-15.71c-1.16-3.06-1.3-6.57-1.42-10v-.21c-.22-6-.82-7.32-6.7-7.54H1737a11.75,11.75,0,0,0-7.72,2.78,55.79,55.79,0,0,0-5.34,6.46,45.71,45.71,0,0,1-6.35,7.36,33.36,33.36,0,0,1-22.33,8.53,38.91,38.91,0,0,1-8-.87Z" transform="translate(-1071.63 -195.68)"/><path class="cls-1" d="M1401.52,679.3a23.09,23.09,0,0,1-6.16.68c-1.08,0-2.17,0-3.29-.07h-.1l-.28,0c-1,0-2.09-.07-3.13-.07a26,26,0,0,0-6.06.6c-2.31.55-4.7.91-7,1.26s-4.54.68-6.79,1.19c-7.62,1.78-14.76,5.13-21.67,8.38l-1.2.56-1.8.84c-5.54,2.58-10.12,6.42-14.58,10.15a94.9,94.9,0,0,1-9.79,7.52,6.36,6.36,0,0,0-.37,1.27,2.74,2.74,0,0,1-.53,1.35,94,94,0,0,0-11.59,14.91c-7.46,11.63-11.68,23.45-12.52,35.11-1.11,15.34-2.37,32.73,5.09,48.41.55,1.14,1.09,2.29,1.62,3.43l.42.89c3.65,7.77,7.42,15.79,12.28,22.89,8.1,11.79,19.85,19.83,31.19,27,3.27,2.07,6.59,4.26,9.53,6.19l.09.06c6.78,4.46,13.79,9.07,21,13.08,8.27,4.61,15.44,7.24,22.57,8.27,1.8.27,3.61.68,5.36,1.08l.19,0a40.48,40.48,0,0,0,9,1.39c2.35,0,4.82.07,6.81.11h.24c2.21,0,4.49.11,6.73.11,5.86,0,12.77-.31,19.68-2.64a53.64,53.64,0,0,1,9.77-2c1.88-.27,3.57-.52,5.23-.84a17.88,17.88,0,0,0,4.33-1.41c2.22-1.1,4.46-2.28,6.43-3.32a128,128,0,0,1,12.18-5.91c9.26-3.72,16.92-10,24.36-16q2.31-1.89,4.63-3.75c3.31-2.62,6-6.1,8.65-9.47.93-1.2,1.9-2.43,2.87-3.61,4-4.84,7.13-8.83,9.83-12.53a95.51,95.51,0,0,0,15.56-32.57c.52-2,1.16-4.1,1.79-6.09l0-.14c1.43-4.59,2.91-9.34,3-14,0-1.59.12-3.18.2-4.81.33-7.28.67-14.8-1.35-22.33-.46-1.73-.89-3.46-1.32-5.18l0-.14a102.35,102.35,0,0,0-5.05-16.31c-3.09-7.12-7.77-13.12-12.3-18.93l-.09-.11c-4.45-5.71-10.7-10.4-19.1-14.38a202.64,202.64,0,0,0-20.86-8.11c-3.2-1.09-6.57-1.89-9.9-2.68l-.29-.06c-1.6-.38-3.2-.76-4.79-1.18s-3.38-.93-5-1.41l-.25-.07-.14,0c-3.37-1-6.85-2-10.33-2.63-5.69-1-11.52-1.72-17.17-2.37l-3.23-.38-5.28-.64h-.11c-6.39-.79-13-1.6-19.52-1.94-1.77-.1-3.34-.14-4.82-.14a49.06,49.06,0,0,0-12.89,1.53Zm18.42,205h-.17l-.43,0c-1.5-.08-3-.16-4.56-.2a52,52,0,0,1-24.88-6.92c-3.64-2.09-7.38-4.15-11.05-6.18-6.56-3.62-13.34-7.36-19.76-11.41a118.77,118.77,0,0,1-13-10c-1.53-1.29-3.06-2.59-4.61-3.85-3.9-3.17-7.77-6.51-11.5-9.75l-.27-.23-.19-.16c-7.44-6.44-12.54-14.69-17.52-23.29-4.63-8-6.94-15.38-7-22.66a34.17,34.17,0,0,0-.81-5.85,25.24,25.24,0,0,1-.73-7.3c1.32-12.91,4.24-23.24,9.21-32.51,6.9-12.9,16.82-23,27.22-33.09a137.23,137.23,0,0,1,16.7-13.87,21.05,21.05,0,0,1,6.46-2.57,34.23,34.23,0,0,0,4.39-1.46c4.12-1.81,8.49-2,12.79-2.13a50.65,50.65,0,0,0,8.06-.74,109.19,109.19,0,0,1,21.72-1.84c4.2,0,8.44.13,12.54.26h.56c4.07.13,8.28.26,12.45.26h1.63c5.61,0,11.32,1.36,16.91,2.68,2.3.55,4.68,1.11,7,1.56l.87.17.14,0c5.24,1,10.65,2.08,15.9,3.43a117,117,0,0,1,24,9.32c7.94,4,17,9.16,23.75,17.15,3.61,4.25,6.43,9.29,9.15,14.16.61,1.08,1.21,2.16,1.83,3.23,7.57,13.21,6.85,27.93,6.16,42.16l0,.53c-.39,7.87-3.29,15.4-6.1,22.69l-.38,1-.76,2c-3.13,8.29-7.67,16.24-14.26,25a174.81,174.81,0,0,1-18.38,20.62,68,68,0,0,1-10.33,7.68c-1.5,1-3.22,2.1-4.83,3.24-2.42,1.19-4.63,2.49-6.8,3.77a67.13,67.13,0,0,1-7.86,4.17,131.16,131.16,0,0,1-17.85,5.63c-2.19.58-4.49,1-6.76,1.36a52.32,52.32,0,0,0-9.69,2.28,32.85,32.85,0,0,1-12.11,1.93c-2.25,0-4.53-.13-6.73-.25Z" transform="translate(-1071.63 -195.68)"/><path class="cls-1" d="M1440.16,749.67h-2.79c-5.47,0-11.12,0-16.48,1.12-2.87.59-7.11,3.9-7.77,6.79-1.56,6.78,0,14,4.55,20.75a47.68,47.68,0,0,1,2.82,5.09,30.2,30.2,0,0,0,4.37,7.05,33,33,0,0,0,11.16,7.41,3.21,3.21,0,0,0,1.3.25c3.7,0,9.47-5.07,11.41-8.36,1.28-2.18,2.66-4.24,4.13-6.41,1.21-1.8,2.58-3.83,3.89-6,.65-1.65,1.39-3.2,2.15-4.79a38.17,38.17,0,0,0,3.06-7.81c.61-2.69-.52-6.62-2.9-10-1.72-2.45-3.73-4-5.38-4.24a107.35,107.35,0,0,0-12.93-.89Zm-8.57,32.73c-.8-1.53-1.67-3.07-2.52-4.55l-.07-.12a81.52,81.52,0,0,1-3.9-7.41,21.42,21.42,0,0,1-1.32-7.82c0-.59,2.09-1.58,3.24-1.78,3.08-.52,6.27-.92,9.09-1.27l.84-.11,2.75-.35c3.33.56,6.83,1.24,9.78,2.89,1,.55,1.63,3.58,1,5-2.48,6-5.56,12.2-11.19,16.86a6.46,6.46,0,0,1-3.9,1.83c-1.49,0-2.74-1-3.84-3.17Z" transform="translate(-1071.63 -195.68)"/><path class="cls-2" d="M1214.72,844.46a5.85,5.85,0,0,0-4.5,2.26c-5.89,7-12.26,15-20.08,24.88a121.92,121.92,0,0,0-8.93,12.47c-4.46,7.41-8.51,15-12,21.52-4,7.65-7,13.62-9.61,19.36-1.34,2.95-2.45,6-3.52,9-.65,1.79-1.39,3.81-2.15,5.72s-1.6,3.83-2.52,5.93a104.1,104.1,0,0,0-4.33,11c-1.71,5.57-3,11.28-4.21,16.81q-.63,2.82-1.27,5.62a26.3,26.3,0,0,0-.46,2.89,26.69,26.69,0,0,1-.48,3c-.51,2.09-1.06,4.17-1.69,6.47-1,3.58-1.94,7.28-2.69,11a66.74,66.74,0,0,0-.94,11.73c-.1,6.46-.08,13-.06,19.25q0,3.4,0,6.78c0,9.73,2.47,18.74,5.13,27,3.15,9.81,8,18.55,13.16,27.37,5.73,9.84,13.26,18.33,20.55,26.55,1.82,2,3.63,4.1,5.43,6.17a28.12,28.12,0,0,0,5.15,4.31c1.09.78,2.2,1.58,3.22,2.44,3,2.54,6,5.11,9,7.68,3.27,2.82,6.6,5.69,9.91,8.47,3,2.5,6,4.94,8.94,7.31l5.48,4.46c.67.54,1.33,1.15,2,1.73l.13.12a26.23,26.23,0,0,0,3.93,3.17l2,1.19,2,1.2c7.13,4.35,14.52,8.85,22.11,12.76,4.76,2.46,11.05,5.39,17.52,6.27a79.47,79.47,0,0,0,10.32.83,35.15,35.15,0,0,0,12.5-2.11A70.84,70.84,0,0,0,1315,1174.5a14.74,14.74,0,0,0,2.69-3.44,18,18,0,0,1,2.18-3c5.61-5.89,7.88-13.52,9.22-19.51a54,54,0,0,0-1.34-27.71c-2.75-9.13-7.48-17.43-15.35-26.89-4.11-4.94-8.16-10-12.08-15l-.2-.25-2.32-2.94a16.39,16.39,0,0,1-2.54-3.87c-.52-1.28-1-2.64-1.37-3.94l0-.16a35.07,35.07,0,0,0-2.5-6.38c-3.18-5.73-2.62-12.39-1-16.71,2.75-7.49,8.12-13.58,15.94-18.09,12-6.94,25.23-8.43,36.55-9l3.72-.19,2-.09c7.65-.39,15.55-.79,23.39-.79a148.44,148.44,0,0,1,26.74,2.12,71.76,71.76,0,0,0,9.32.86c4.56.22,9.27.44,13.79,2a57.41,57.41,0,0,0,13.68,2.71c7.28.58,13.87,2.78,20.86,5.11l.72.24c12.09,4,22,9.19,30.29,15.76,12.5,9.9,19.89,21.36,22.57,35a55.16,55.16,0,0,1-3.25,31.63c-3.33,8.31-9.2,15.3-14.87,22.06l-.12.15c-1.52,1.81-3.09,3.67-4.58,5.54a23.86,23.86,0,0,1-5,4.24,37.62,37.62,0,0,0-3.69,2.85c-5.46,5-11,10.33-15.82,15l-3.19,3.06a37.82,37.82,0,0,0-11.37,20.84c-1.14,6.59-.9,15.87,6.74,22.63a66.6,66.6,0,0,0,10.24,7l.48.29,2.27,1.37c10,6.14,21.56,9.48,35.28,10.2,2,.1,4,.16,6.06.16a114.17,114.17,0,0,0,25.58-2.91,66.46,66.46,0,0,0,11.52-3.61l3.19-1.36a155.65,155.65,0,0,0,18.56-8.91,172.55,172.55,0,0,0,23.66-16.5c11.92-10.1,21.32-22.63,28.17-32.42l1.29-1.7a42.3,42.3,0,0,0,2.73-3.81c2.92-4.78,6-9.93,9.61-16.21l.87-1.5c2.82-4.87,5.71-9.86,8.36-14.88,1.55-3,2.92-6.08,4.23-9.1l0-.1.32-.73c.25-.59.51-1.17.77-1.76,1-2.29,2-4.58,3-6.88,1.57-3.64,3.34-7.77,5.18-11.72.87-1.84,1.88-3.65,2.87-5.41a55.1,55.1,0,0,0,4.08-8.31,221.43,221.43,0,0,0,8.11-26.7,135,135,0,0,0,2.71-24,49.07,49.07,0,0,0-.8-9.14l0-.13c-.32-2.16-.65-4.39-.76-6.59-.48-9.77-2.93-18.68-5.27-26.1l-1.06-3.42c-2.8-9-5.69-18.35-10.54-26.82-2.23-3.89-4.36-8-6.23-11.67-2.6-5.06-5.26-10.22-8.24-15.06a176.29,176.29,0,0,0-11-15.28l-.32-.41c-1.28-1.66-2.57-3.32-3.83-5a28.19,28.19,0,0,0-2.17-2.47l-.1-.11a19.09,19.09,0,0,1-3-3.77c-3.53-6.31-8.69-12-16.24-17.86-2.44-1.89-4.49-2.78-6.45-2.78-2.34,0-4.57,1.28-7,4-2,2.24-3.91,4.62-5.73,6.92-2.25,2.83-4.55,5.75-7.07,8.37-11,11.39-22.86,23.27-37.28,32.26-5.68,3.54-12.34,7.54-19.56,10.29l-2.09.81-.34.13a71.06,71.06,0,0,1-11.33,3.7,195,195,0,0,1-19.71,2.75l-.24,0c-9.71,1-19.6,1.94-29.4,2.69-7.86.61-13.83.88-19.38.89h-2.26c-12.48,0-25.8-.18-39.31-2.31l-1.8-.28c-8.47-1.33-17.22-2.7-25.51-5.51-8.85-3-16.78-5.79-24.32-9.51-8.58-4.24-17-9.09-25.13-13.77l-1.14-.65c-1.71-1-3.42-2-5.14-3-8.19-4.68-16.89-9.69-25.23-14.92-7.92-5-16.32-10.32-24.22-16.22a247.17,247.17,0,0,1-22-18.4c-5.39-5.1-10.53-10.55-15.51-15.82l-.26-.28c-2.44-2.59-5-5.27-7.5-7.87a6.57,6.57,0,0,0-4.66-2.15Z" transform="translate(-1071.63 -195.68)"/><path class="cls-2" d="M1130.65,1090c-.9,0-1.66.91-2.46,3-.66,1.67-1.28,3.39-1.89,5s-1.13,3.13-1.73,4.67c-1.22,3.17-2.47,6.33-3.72,9.48l-.3.75-1.9,4.83-1.21,3.07-.61,1.54c-1.62,4.07-3.28,8.25-4.78,12.4-.83,2.29-1.54,4.67-2.17,6.77-.51,1.73-1.09,3.68-1.72,5.53-.83,2.43-1.73,4.89-2.6,7.26l-.06.17-.06.16c-1.42,3.92-2.9,8-4.13,12a95.46,95.46,0,0,0-2.18,9.41l-.05.26c-.34,1.68-.68,3.42-1.07,5.12-.58,2.49-1.18,5-1.77,7.46l-.24,1c-1,4.08-2,8.07-2.81,12-1.25,5.71-2.11,10.35-2.68,14.6-.81,6-1.47,12-2.11,17.93l0,.27c-.19,1.79-.39,3.58-.59,5.37a12.4,12.4,0,0,0,0,1.61,11.19,11.19,0,0,1,0,1.53c-.28,2.93-.6,5.82-1,9-.69,6.24-1.41,12.69-1.61,19-.42,13.65-.31,27.1,0,43.09l0,1.47a63.45,63.45,0,0,0,1.3,14.05c1.48,6.19,1.9,12.73,2.3,19l0,.21c.21,3.3.43,6.72.8,10,.52,4.56,1.24,9.17,1.93,13.63.42,2.64.83,5.29,1.2,8a19.35,19.35,0,0,1,.16,2.4,14.6,14.6,0,0,0,.31,3.26c.68,2.78,1.45,5.58,2.2,8.28l.13.47c.7,2.55,1.43,5.2,2.07,7.81.5,2,.91,4.11,1.3,6.12l0,.16c.49,2.53,1,5.4,1.82,8.15,2.58,9.18,5.48,18.42,8.22,27.11,2.09,6.61,3.86,12.1,6.06,17.69,2.9,7.36,6.09,14.75,9.18,21.91l.1.23,1.17,2.7c2.16,5,4.55,10.17,6.47,14.33l.71,1.55q3.11,6.77,6.26,13.51,1.68,3.6,3.35,7.2c.72,1.54,1.5,3.07,2.25,4.55a59.7,59.7,0,0,1,4.56,10.56,72,72,0,0,0,2.69,7.32,46.46,46.46,0,0,1,3.63,11.71,82.82,82.82,0,0,0,3.89,14.87c1,3.16,2.1,6.39,2.89,9.6a95.62,95.62,0,0,1,2.67,17.27,222.47,222.47,0,0,0,2.53,24.51,117,117,0,0,1,1.26,14.37,112.09,112.09,0,0,0,1.43,15.49,78,78,0,0,1,1,9.95,59.92,59.92,0,0,0,1.82,13.63,68.72,68.72,0,0,1,2,11.84c.24,2.23.52,4.76.93,7.18a165.58,165.58,0,0,0,3.74,17.76,62.52,62.52,0,0,0,4.27,10.22l1,2c.71,1.49,1.4,3,2.09,4.5l.11.25a94.29,94.29,0,0,0,7.23,13.75,66.22,66.22,0,0,0,8.24,9.32c1.53,1.52,3.12,3.1,4.59,4.72,6.61,7.31,15.07,11.22,25.73,14.84a4.82,4.82,0,0,0,1.6.22c.36,0,.73,0,1.1,0s.72,0,1.06,0a4,4,0,0,1,1.86.35,18,18,0,0,0,8.63,2,42.76,42.76,0,0,0,8.22-1c6.26-1.21,12.21-4.67,17.31-7.82,5.32-3.28,9.25-6.79,11.68-10.42a141.38,141.38,0,0,0,8.86-16.11c1-2.09,2.08-4.18,3.15-6.24l.59-1.15c1.88-3.61,3.83-7.34,5.52-11.13,1.25-2.8,2.43-5.68,3.58-8.47s2.4-5.85,3.68-8.72c1-2.24,2.14-4.48,3.24-6.64l.13-.26c1.2-2.36,2.44-4.81,3.54-7.3,1.35-3,2.62-6.16,3.85-9.19l.12-.28c1.41-3.46,2.84-7,4.38-10.41,2-4.34,4.13-8.8,6-12.73l.34-.7c1.44-3,2.92-6,4.33-9.07,1.69-3.62,3.35-7.32,5-11.12l.24-.54c1.51-3.37,3.07-6.86,4.64-10.26s3.61-7.65,6-11.87c1.15-2,2.27-4.07,3.39-6.12a144.66,144.66,0,0,1,10.74-17.6c5.25-7,11.09-14.16,19.62-18.19,2.09-1,4.15-2.14,6.15-3.27,4-2.28,8.2-4.63,12.59-5.5a67.58,67.58,0,0,1,13.24-1.44,44.39,44.39,0,0,1,15.37,2.61c10.38,3.77,18.63,10.14,26.86,16.89,12.94,12,21.71,23.39,27.61,35.73l1.41,3c3.62,7.53,7.33,15.28,10.34,23.14a146.52,146.52,0,0,1,5.22,18.11l.35,1.42.44,1.76c1.85,7.52,3.62,14.87,4.81,22.23.74,4.55,1,9.2,1.33,13.69.27,4,.54,8.12,1.1,12.16,1.07,7.59,1.08,15.42,1.1,23,0,4.41,0,9,.23,13.39a90.79,90.79,0,0,0,1.39,10.72l.08.45c.27,1.62.55,3.29.78,4.92.1.73.14,1.48.19,2.21a15.09,15.09,0,0,0,.53,3.8,73.91,73.91,0,0,0,4.19,10.82c.74,1.5,1.47,3.06,2.17,4.57l.08.16c2.25,4.85,4.58,9.86,8,13.85,8,9.37,18.75,15.32,32.11,17.7a31.08,31.08,0,0,0,5.43.5c6.9,0,13.33-2.54,19.66-7.75,9.25-7.63,12.22-18.79,15.09-29.58l.87-3.24a23.82,23.82,0,0,0,.61-5.28,28.64,28.64,0,0,1,.44-4.64c.56-2.65,1.27-5.31,2-7.88.87-3.27,1.77-6.64,2.37-10,.37-2.12.58-4.27.78-6.35a52.87,52.87,0,0,1,1.76-10.54c1.66-5.41,2.15-11.28,2.63-17,.08-1,.16-2,.25-3,.62-7.06,1.41-14.2,2.39-21.82.61-4.79.88-9.72,1.14-14.48a161.74,161.74,0,0,1,1.74-18.5,85,85,0,0,0,.86-13.6c0-2.62.06-5.59.26-8.44.25-3.48.18-7,.12-10.44-.12-6.09-.23-12.32,1.32-18.52,1.18-4.7,1.14-9.78,1.11-14.69,0-2.84,0-5.78.17-8.65.24-3.23.78-6.49,1.29-9.65.35-2.15.7-4.29,1-6.43a24.45,24.45,0,0,0,.11-3.2,17.36,17.36,0,0,1,.33-4.27c.74-3,1.7-6.1,2.64-9l.14-.47c.54-1.72,1.1-3.49,1.6-5.25.72-2.5,1.4-5.06,2-7.32,1-3.74,2.11-8,3.41-12,3.47-10.67,7.23-21.45,10.87-31.87l.15-.43.66-1.91c2.41-6.91,5-13.9,7.27-20.07l.37-1q1.71-4.62,3.46-9.22l.32-.85c1.94-5.11,4.35-11.48,6.49-17.55,3.76-10.68,7.23-21.11,11.28-33.48,2.45-7.44,5.21-15.87,7.53-24.25a99,99,0,0,0,2.15-11c.2-1.23.39-2.43.6-3.63.17-1,.27-2,.36-3.06a29,29,0,0,1,.6-4.19c.55-2.27,1.2-4.57,1.83-6.79l.1-.37c.88-3.11,1.77-6.26,2.45-9.41,1-4.82,1.87-10,2.72-16.83,1.14-9.19,2-17.49,2.69-25.37l.15-1.79a122,122,0,0,0,.69-16.68c-.31-6.25-.17-12.61,0-18.76v-.27c.24-10,.47-20.33-1.19-30.54a58.58,58.58,0,0,1-.46-10,59.58,59.58,0,0,0-.61-11.36,80.33,80.33,0,0,1-1-9.35,59.08,59.08,0,0,0-1.88-13.31,68.27,68.27,0,0,1-2-11.34l0-.3c-.23-1.84-.47-3.75-.77-5.6l0-.25c-.79-4.71-1.61-9.59-2.67-14.35-1.82-8.17-3.82-16.29-5.37-22.45-1.75-7-3.84-15.23-6.14-23.5-1-3.78-2.3-7.57-3.5-11.25l-.1-.3c-.35-1.05-.69-2.09-1-3.13s-.76-2.12-1.23-3.27c-.2-.51-.41-1-.6-1.52-.22.39-.4.78-.58,1.17l-.07.17c-.48,1.07-.93,2-1.43,3a11.42,11.42,0,0,1-.92,1.38,12,12,0,0,0-1,1.44c-1.86,3.54-3.69,7.11-5.52,10.67l-.62,1.22c-4.34,8.45-8.82,17.18-13.67,25.67-4.13,7.23-9.05,14.18-13.8,20.9l-.47.66c-.72,1-1.44,2-2.15,3.06-5.57,7.91-10.24,14.48-15.59,20.9-4.16,5-8.61,9.91-12.91,14.66l-.42.47c-3,3.32-6.11,6.76-9.09,10.2l-.52.59c-3.1,3.57-6.3,7.25-5.61,12.54a10.37,10.37,0,0,0,.87,2.68,11.83,11.83,0,0,1,.83,2.43c1,5.78,1.93,11.6,2.71,17.28.2,1.48.41,3,.62,4.44.81,5.66,1.64,11.51,2,17.34a28.2,28.2,0,0,1-.77,6.75,34.32,34.32,0,0,0-.8,5.52c0,.78,0,1.55-.07,2.33l0,1.2c-.19,7-.39,14.32-2.52,21.42-1.37,4.59-2.31,9.38-3.21,14l0,.19c-.7,3.59-1.42,7.3-2.35,10.89-2.4,9.27-5.26,18.37-8,27.17l-1,3.29,0,.1c-2.47,7.87-5,16-8,23.83a240.33,240.33,0,0,1-10.1,21.83l-1.87,3.69c-4,7.85-8.06,15.94-12.82,23.42-4.17,6.55-10.62,16.23-18.41,24.64-11.17,12.06-24.54,25.61-42,33.9a203,203,0,0,1-32.64,12.21,65.87,65.87,0,0,1-17.3,2.65l-1.29,0-2.37,0c-2.61,0-5.28.11-7.87.22h-.26c-2.52.11-5.38.24-8.12.24a49.51,49.51,0,0,1-14.8-1.88,64.26,64.26,0,0,0-11.64-2c-2.32-.25-4.67-.5-6.94-.9-4.89-.84-10.12-1.81-15.26-3.23-4.51-1.25-9.08-3-13.11-4.6l-.59-.23-.28-.11-.1,0c-6-2.32-12.13-4.71-18-7.4a97.69,97.69,0,0,1-8.63-4.64l-.2-.11c-1.08-.63-2.16-1.25-3.25-1.86s-2.27-1.25-3.41-1.87c-2.82-1.53-6-3.27-8.92-5.16-2.55-1.67-5-3.58-7.37-5.42l-.54-.42c-1-.79-2-1.58-3.07-2.35-1.89-1.41-3.89-2.8-5.65-4a90.28,90.28,0,0,1-11.73-9.12c-8.53-8.31-16.7-17.28-24.6-26l-.21-.22-2.82-3.11a143.86,143.86,0,0,1-10.17-12.83l-2.29-3.13a158.53,158.53,0,0,1-10.41-15.4c-2.47-4.35-4.68-9-6.81-13.41-2-4.15-4-8.42-6.32-12.54-4.33-7.81-7.15-16.27-9.87-24.46l-.84-2.54c-.81-2.4-1.69-4.83-2.54-7.18l-.18-.49c-1.65-4.54-3.53-9.69-4.85-14.75-1.85-7.08-3.17-14.33-4.45-21.35-.34-1.86-.68-3.71-1-5.57l-.24-1.31c-1-5.07-2-10.32-2.41-15.53-.51-5.64-.69-11.39-.87-17V1257a214.88,214.88,0,0,0-1.6-23.48c-.64-4.47,0-9.19.61-13.75.35-2.59.72-5.28.85-7.91s.07-5.58,0-8.28v-.19c0-3.11-.11-6.33.12-9.47.37-5.22,1.07-10.43,1.73-15.47l.1-.74q.4-3,.78-6c.12-1.06.16-2.24.18-3.18.08-2.33.15-4.73,1.18-6.54,2-3.59,1.69-6-1.25-8.79l-5.23-5-1.25-1.19c-7.41-7-15.07-14.31-22.27-21.82-4.52-4.7-8.65-9.91-12.66-15l-.38-.48q-2.08-2.62-4.18-5.21c-1.33-1.64-2.65-3.34-3.92-5l-.27-.34c-1.73-2.25-3.7-4.81-5.7-7.16-1.2-1.4-2.11-2-2.86-2Z" transform="translate(-1071.63 -195.68)"/><path class="cls-2" d="M1212.18,203.89h-.07a14.08,14.08,0,0,0-4.43,1.11c-.53.19-1,.39-1.57.55s-1,.29-1.48.43l-.2.06a14.83,14.83,0,0,0-4.18,1.59c-12.48,8-17.65,20.89-20.77,31.23a198.23,198.23,0,0,0-5,22.93l-.47,2.65a63.42,63.42,0,0,0-.91,13.08c.16,4.7.07,9.49,0,14.12v.12c-.2,10.9-.4,22.18,2.51,33.16a41.35,41.35,0,0,1,1,6.61,32.83,32.83,0,0,0,1.7,8.91,100.78,100.78,0,0,1,3.51,11.95c.61,2.45,1.29,5.16,2.07,7.74.42,1.38.82,2.77,1.23,4.17a88,88,0,0,0,5.35,15.08c5.07,10.18,10.93,20.59,17.41,30.94,5.59,8.91,11.16,17.53,17.83,24.88,3.5,3.85,7.27,7.7,10.6,11.08,9.07,9.24,18.43,18.77,25,30.35.5.88,1,1.76,1.54,2.65l.07.11c3,5.05,6,10.27,6.65,15.67.88,7.59,1.36,15.75-1,24a94.22,94.22,0,0,1-9.81,22,144.84,144.84,0,0,1-12.06,16.49l-.08.1c-1.59,2-3.23,4-4.8,6-.72.93-1.53,1.81-2.33,2.67l-.08.09a27.64,27.64,0,0,0-3.23,3.91l-.68,1.08c-5,7.9-10.22,16.06-14.85,24.36-4.24,7.6-8,15.49-11.67,23.12l-.84,1.76a59.52,59.52,0,0,0-2.53,6.59c-.4,1.18-.8,2.36-1.23,3.52-.66,1.76-1.35,3.51-2,5.26-1.44,3.66-2.9,7.35-4,11.07a90,90,0,0,0-2.22,9.81c-.29,1.55-.58,3.09-.9,4.61-.52,2.43-1.06,4.84-1.61,7.25l0,.14c-1.2,5.27-2.43,10.72-3.3,16.13a89.79,89.79,0,0,0-.94,16.22c.08,3.74,0,7.49,0,11.65-.15,10.6-.31,21.54,2.57,32.16a90.67,90.67,0,0,1,1.94,10.3c.35,2.4.75,5.09,1.3,7.67a116.82,116.82,0,0,0,8.48,25.67c1.18,2.49,2.23,5.1,3.25,7.61,1.29,3.19,2.61,6.44,4.18,9.5,3,5.94,6.67,12.22,11.09,19.19,2.49,3.93,5.38,7.7,8.18,11.35l.08.1,1.53,2c1.33,1.74,2.64,3.5,3.94,5.26a177.87,177.87,0,0,0,11.72,14.69c5.24,5.68,11.34,10.74,17.24,15.64l.34.29c8.71,7.22,17.65,14.19,26,20.64A98.16,98.16,0,0,0,1303,903c6.49,3.61,13.12,6.79,19.32,9.7s13.07,5.93,20.87,9.2c2.46,1,5,1.87,7.33,2.62l.45.15c1.07.35,2.14.71,3.2,1.08,2.63.92,5.26,1.88,7.88,2.84l.52.19.11,0c6.17,2.25,12.55,4.58,19,6.46,6.82,2,13.86,3.41,20.68,4.76l3.54.7c6,1.21,11.54,2.08,16.85,2.68a116.64,116.64,0,0,0,12.86.94c1,0,2,0,2.91-.08,1.4-.08,2.92-.12,4.66-.12,2.88,0,5.94.12,8.4.21h.43c2.69.1,5.47.21,8.22.21a57.82,57.82,0,0,0,15.21-1.69,41.36,41.36,0,0,1,9-1c1.49-.05,3.17-.12,4.77-.27l.33,0a22.43,22.43,0,0,0,5.53-1c6.55-2.43,13.15-5.08,19.31-7.58,11.36-4.61,22.24-11.71,35.28-23a146.37,146.37,0,0,0,13.9-14.51c2.34-2.68,4.75-5.44,7.22-8a89.37,89.37,0,0,0,15.59-21.84c1.91-3.89,4-7.72,6-11.42,3.1-5.69,6.27-11.5,8.81-17.46a142.28,142.28,0,0,0,8.1-26.24c2.41-11.17,3.5-19.71,3.55-27.66,0-3.38.12-6.84.23-10.18.38-11.53.77-23.43-2.65-35a67.28,67.28,0,0,1-1.71-8.26c-.32-1.93-.64-3.92-1.09-5.86-1.23-5.44-2.61-11-3.93-16.3l-.11-.41-.58-2.35-.73-3-1.32-5.36-.07-.27c-1.48-6-3-12.26-4.61-18.38-.6-2.31-1.27-4.66-1.93-6.92l-.06-.19c-1-3.33-2-6.78-2.72-10.22-1.79-7.94-3.5-16.5-5.4-26.93-1.13-6.14-2-12.35-2.72-18.19-.34-2.65-.52-5.36-.69-8v-.12a74.29,74.29,0,0,0-1.76-13.74c-1.19-4.72-1.15-9.84-1.11-14.8,0-1.51,0-3,0-4.51-.12-8.6-.09-17.23,0-25.59l0-4.93c0-11.65.08-23.71,5-35.61,3.78-9.05,10-16.25,19.16-22a78.28,78.28,0,0,1,27.89-10.57c.54-.09,1.09-.16,1.63-.22a15.26,15.26,0,0,0,2.59-.45c1.84-.52,3.67-1.11,5.45-1.67,2.82-.9,5.67-1.8,8.52-2.51a129.81,129.81,0,0,1,14.13-2.69c2-.25,3.9-.54,5.85-.83a123.35,123.35,0,0,1,17.71-1.74h1.35c1.43,0,2.87.05,4.3.05,4,0,8.14-.12,12.11-.23h.36c4.1-.12,8.33-.25,12.49-.25a110.49,110.49,0,0,1,22.54,1.92c6.69,1.36,13.63,2.09,20.34,2.79l.56.06c2.56.27,5.11.54,7.67.85a5.85,5.85,0,0,0,.73,0c.4,0,.8,0,1.2-.06s.81-.06,1.2-.06a4.75,4.75,0,0,1,1.33.16c2.33.69,4.63,1.48,6.87,2.25l.27.09c2,.7,4.18,1.43,6.29,2.06,3.66,1.09,7.41,2.12,11,3.12,2.79.77,5.53,1.52,8.27,2.3q6,1.74,12,3.51c5.16,1.52,10.44,3.07,15.64,4.54l2.81.8c5.68,1.62,11.54,3.29,17.42,4.53l2.47.54c6.33,1.36,12.88,2.77,19.37,3,1.78.05,3.56.12,5.33.19h.25c3.68.14,7.48.28,11.21.28,9.18,0,19.94-.72,30.16-6.13A51.36,51.36,0,0,0,1938,479.46a39.07,39.07,0,0,0,7.84-15c1.65-6.47.69-14-2.88-22.44a70.29,70.29,0,0,0-17.59-25c-3.19-2.89-6.68-5.77-10.36-8.56l-.12-.09a107.88,107.88,0,0,0-11.4-7.89l-3.39-2-.65-.37c-6.3-3.7-12.83-7.53-20.23-9.53-4.68-1.27-9.34-2.92-13.85-4.51l-.12,0c-5.13-1.82-10.39-3.68-15.69-5a105.6,105.6,0,0,0-25.46-3.57h-1.6c-4.27,0-8.77-.13-12.39-.24h-.35c-4.19-.12-8.52-.24-12.82-.24-7.5,0-17.38.33-27.34,2.92-2.82.73-5.83,1.25-8.48,1.7l-.31.06c-1.75.3-3.57.62-5.34,1l-3.17.67-.23.05c-7,1.47-14.23,3-21.29,4.71a144.27,144.27,0,0,0-13.92,4.31c-4.31,1.54-8.64,3.25-12.82,4.9l-.1,0-3.73,1.47-4.08,1.58-.55.21c-4.18,1.61-8.5,3.26-12.69,5.16-2.9,1.32-5.74,2.9-8.49,4.43l-.12.07c-1.63.91-3.32,1.85-5,2.73-3.34,1.73-6.7,3.45-10,5.16-5.48,2.79-11.7,6-17.66,9.18-3.12,1.68-6.17,3.61-9.11,5.48l-.1.07h0c-1.9,1.21-3.88,2.46-5.85,3.63-5.17,3.06-10.62,6.17-15.43,8.92l-2.68,1.54-1.68.95-.94.53c-2.54,1.45-5.17,2.93-8,4.68l-.74.55-.23.16c-.73.55-1.45,1.07-2.18,1.53-2.07,1.29-4.15,2.56-6.24,3.83l-.15.09c-4.14,2.52-8.42,5.12-12.49,7.89-7.65,5.2-14.16,7.66-20.5,7.73-2.06,0-4.15.1-6.18.18h-.15c-2.22.09-5,.2-7.62.2a48.54,48.54,0,0,1-17.31-2.68,119.35,119.35,0,0,0-15.78-4.34l-.17,0c-2.88-.66-5.87-1.34-8.75-2.12-2.13-.58-4.25-1.31-6.3-2-2.48-.86-5-1.74-7.58-2.36-3.61-.87-7.34-1.55-10.93-2.2l-.16,0c-2.5-.46-5.08-.92-7.6-1.46s-5.29-1.19-7.63-1.76l-.14,0c-3.9-.93-7.93-1.9-11.94-2.57a78.34,78.34,0,0,0-13.19-.95h-1.24c-12.58.12-25.37.36-37.74.59l-3.51.07-10.45.19h-.68a5.23,5.23,0,0,0-1.09.09c-2.12.47-4.28,1-6.18,1.46a121.51,121.51,0,0,1-13.55,2.79,51.35,51.35,0,0,1-6.71.38c-1.92,0-3.88-.07-5.78-.13h-.14q-2.06-.08-4.11-.12a7.58,7.58,0,0,1-5-2.68,6.2,6.2,0,0,1-1.87-4.4,50.89,50.89,0,0,1,.84-5.53l0-.13a51.12,51.12,0,0,0,.81-5.27c.59-7.06.87-12.79.91-18,.06-12-.07-24.83-2.37-37.54-.51-2.84-.91-5.76-1.3-8.59v-.14a127.09,127.09,0,0,0-2.55-14.43c-.71-2.74-1.38-5.57-2-8.07l-.1-.42c-.78-3.23-1.58-6.57-2.46-9.83a109.93,109.93,0,0,0-4-12.28l-.66-1.61,0-.11c-2.94-7.26-6-14.76-9.49-21.88-4.45-9-9.47-18.24-14.92-27.47a158.68,158.68,0,0,0-12.05-17.45c-4.74-6-10.08-12.23-16.79-19.54a185,185,0,0,0-31.16-26.64,53.5,53.5,0,0,0-10.67-5.61,44.58,44.58,0,0,0-6.75-1.9c-1.22-.27-2.53-.57-3.77-.91a15.43,15.43,0,0,1-1.92-.73,8.14,8.14,0,0,0-3.1-.9ZM1395.36,680a23.42,23.42,0,0,0,6.15-.67,48.76,48.76,0,0,1,12.9-1.54c1.47,0,3,0,4.82.13,6.52.35,13.13,1.16,19.52,2h.11l5.28.64,3.23.38c5.65.65,11.48,1.32,17.17,2.38,3.48.64,7,1.65,10.33,2.62l.14,0,.25.07c1.65.48,3.35,1,5,1.41s3.19.8,4.79,1.18l.29.07a102.34,102.34,0,0,1,9.9,2.68,200.22,200.22,0,0,1,20.86,8.1c8.4,4,14.65,8.68,19.1,14.38l.09.11c4.53,5.81,9.21,11.81,12.3,18.93a101.85,101.85,0,0,1,5.05,16.3l0,.15c.43,1.72.86,3.45,1.32,5.18,2,7.53,1.68,15,1.35,22.33-.07,1.63-.14,3.22-.2,4.81-.14,4.71-1.62,9.46-3,14l0,.14c-.63,2-1.27,4.06-1.79,6.09a95.32,95.32,0,0,1-15.56,32.57c-2.7,3.71-5.82,7.69-9.83,12.53-1,1.18-1.94,2.42-2.87,3.61-2.62,3.37-5.34,6.85-8.64,9.48-1.56,1.23-3.1,2.48-4.64,3.74-7.44,6-15.1,12.29-24.36,16a131.72,131.72,0,0,0-12.18,5.91c-2,1-4.21,2.22-6.43,3.32a17.88,17.88,0,0,1-4.33,1.41c-1.66.33-3.35.57-5.23.84a55.38,55.38,0,0,0-9.77,2c-6.91,2.33-13.82,2.64-19.68,2.64-2.24,0-4.52-.05-6.73-.11h-.24c-2-.05-4.46-.11-6.81-.12a41.22,41.22,0,0,1-9-1.38l-.18-.05c-1.75-.4-3.57-.81-5.36-1.07-7.13-1-14.3-3.67-22.57-8.28-7.19-4-14.2-8.62-21-13.08l-.09-.06c-2.94-1.93-6.26-4.12-9.53-6.19-11.34-7.22-23.09-15.26-31.19-27-4.86-7.1-8.63-15.12-12.28-22.89l-.41-.89c-.54-1.14-1.08-2.29-1.63-3.43-7.47-15.68-6.2-33.07-5.09-48.4.85-11.67,5.06-23.49,12.52-35.11a94.23,94.23,0,0,1,11.58-14.92,2.74,2.74,0,0,0,.54-1.35,7.34,7.34,0,0,1,.37-1.27,96,96,0,0,0,9.79-7.52c4.46-3.73,9-7.57,14.58-10.15l1.8-.84,1.2-.56c6.91-3.25,14-6.6,21.67-8.37,2.25-.52,4.56-.87,6.8-1.2s4.7-.71,7-1.26a26,26,0,0,1,6.06-.6c1,0,2.09,0,3.13.07h.38c1.12,0,2.21.07,3.29.07Z" transform="translate(-1071.63 -195.68)"/><path class="cls-3" d="M1372,1029.69c-15.74,0-28.94.42-42.23,2.43l-1.58.24c-5.92.87-11.51,1.7-16.34,5.41-6.07,4.64-9.85,13.06-4.64,21.39,3.19,5.1,6.83,10,10.34,14.81l.12.16a37.48,37.48,0,0,0,2.78,3.22,30.16,30.16,0,0,1,3.38,4.12c1.43,2.23,2.75,4.6,4,6.89l.09.16a94.79,94.79,0,0,0,6,9.81c5.13,7,7.28,15.22,8.58,21.55,1.42,6.94,1.31,14.46,1,21.56a52.5,52.5,0,0,1-3.17,15.68,67.73,67.73,0,0,1-10.83,19.33c-8.06,10-17.48,16.63-28.79,20.4a132.46,132.46,0,0,1-19.42,5,21.57,21.57,0,0,1-3.67.32,20.06,20.06,0,0,1-8.2-1.76,35.39,35.39,0,0,0-9.11-2.21c-1.27-.19-2.71-.41-4-.68-10-2-18.42-7.33-26.61-12.48-5.93-3.73-11.26-8.48-16.41-13.07l-.46-.41q-1.82-1.62-3.64-3.21a5.07,5.07,0,0,0-3.23-1.46,3.09,3.09,0,0,0-2.88,2.26,96.17,96.17,0,0,0-4.71,16.89,206.18,206.18,0,0,0-2.71,22.65c-.61,9.6-1.13,19.89-.84,30.14a204.79,204.79,0,0,0,2,21.06l0,.24c.18,1.36.35,2.71.52,4.06,1.06,8.32,2.13,15.15,3.35,21.51.86,4.43,2,8.89,3,13.2l.07.29c.54,2.18,1.08,4.36,1.59,6.55.4,1.68.77,3.36,1.14,5,.69,3.15,1.48,6.72,2.41,10.09,1.49,5.33,3.33,10.79,5,15.61l.09.24c1.46,4.3,3.17,9.29,5.09,14,1.29,3.18,2.74,6.36,4.15,9.43l.06.13.38.82c.49,1.09,1,2.17,1.48,3.26.58,1.31,1.14,2.64,1.7,4l.15.37a86.25,86.25,0,0,0,4.51,9.63c2.54,4.44,5.49,8.87,8.08,12.77,1.18,1.78,2.36,3.55,3.51,5.33,1.35,2.09,2.65,4.25,3.91,6.34a101.3,101.3,0,0,0,9.31,13.7c8.87,10.35,18.53,19.84,26,27a145.94,145.94,0,0,0,18.82,15.21c8.76,6,18.15,11.41,26.43,16.2a113.8,113.8,0,0,0,34.82,13.59,3.5,3.5,0,0,1,1.24.64,8.67,8.67,0,0,0,2.06,1.1c1.1.28,2.19.59,3.27.9a59.22,59.22,0,0,0,7.28,1.73l3.24.49.8.12a132,132,0,0,0,18.63,2H1400c6.46,0,13-.53,19.4-1,2.67-.22,5.27-.43,7.87-.61l1-.06.48,0a32.57,32.57,0,0,0,6.68-.86c7.12-2,15.54-4.35,23.94-7.18l.37-.12c5.72-1.92,11.64-3.91,16.91-6.88,8.89-5,17.17-10.61,24.11-15.46a113.6,113.6,0,0,0,13.64-11.45,67.62,67.62,0,0,0,6.72-7.92c.55-.72,1.07-1.4,1.59-2.06,1-1.3,2.06-2.59,3.1-3.87a75.88,75.88,0,0,0,7.88-10.9,280.78,280.78,0,0,0,12.14-25.47c3.6-8.36,8.26-19.41,12.31-30.8,2.24-6.3,4.07-12.79,5.85-19.06l.23-.83c.69-2.42,1.38-4.84,2.09-7.25.43-1.45.86-2.89,1.3-4.34l.18-.6c1.26-4.17,2.68-8.89,3.87-13.48l.46-1.79.47-1.79a188.23,188.23,0,0,0,4.37-19.34c1.3-8.45,1.94-17.1,2.57-25.46l.19-2.58c.23-3.09.17-6.25.11-9.31,0-1.42,0-2.78,0-4.15,0-.25,0-.5,0-.75a7.18,7.18,0,0,0-.1-1.92c-.44-1.84-1-3.71-1.44-5.52l-.11-.42a95.1,95.1,0,0,1-2.73-12c-.91-6.53-5.13-10.75-10.75-10.75a12.89,12.89,0,0,0-3.3.45c-1.91.5-3.78,1.09-5.85,1.75a70.82,70.82,0,0,1-9.81,2.61l-.5.09c-9.37,1.55-19,3.14-28.51,3.44-3.11.09-7.18.21-11.16.21a116.37,116.37,0,0,1-25.93-2.44c-1.38-.31-2.77-.59-4.15-.88-6.2-1.29-12.59-2.61-18.25-5.79l-.7-.39c-5-2.81-10.2-5.72-13.72-9.92a34.22,34.22,0,0,1-7.9-18.26c-.91-7.63.93-14.23,3.25-21.44a45,45,0,0,1,7.79-13.76c4.8-6.08,10.14-11.75,15.31-17.24l1.35-1.43c2.55-2.71,5.27-5.39,7.89-8l.25-.25c5.21-5.13,10.6-10.44,15.08-16.32s10.37-14.8,10.69-25.55c0-1.19.11-2.44.2-3.64.28-4,.56-8-.77-11.29a51.15,51.15,0,0,0-11-16.45c-5.15-5.2-11.45-9.44-17.54-13.53l-.79-.53c-5.74-3.87-11-7.24-16.73-9.37l-1.84-.67c-8.5-3.14-17.29-6.39-26.6-7.76-2.21-.32-4.45-.69-6.62-1.06l-.35,0c-6.62-1.11-13.46-2.25-20.32-2.25h-.41l-5.12,0q-4.19,0-8.36,0l-8.29,0Z" transform="translate(-1071.63 -195.68)"/><path class="cls-3" d="M1409.94,688.25a109.19,109.19,0,0,0-21.72,1.84,50.65,50.65,0,0,1-8.06.74c-4.3.16-8.67.32-12.79,2.13a34.23,34.23,0,0,1-4.39,1.46,21.05,21.05,0,0,0-6.46,2.57,137.23,137.23,0,0,0-16.7,13.87c-10.4,10.08-20.32,20.19-27.22,33.09-5,9.27-7.89,19.6-9.21,32.51a25.32,25.32,0,0,0,.74,7.31,33.9,33.9,0,0,1,.8,5.84c.11,7.28,2.42,14.69,7,22.66,5,8.6,10.08,16.85,17.52,23.29l.19.16.27.23c3.74,3.24,7.6,6.58,11.5,9.75,1.55,1.26,3.08,2.56,4.61,3.85a119.62,119.62,0,0,0,13,10c6.43,4.05,13.21,7.79,19.77,11.41,3.67,2,7.41,4.09,11.05,6.18a52,52,0,0,0,24.88,6.92c1.52,0,3,.12,4.56.2l.42,0h.18c2.2.12,4.48.25,6.73.25a32.85,32.85,0,0,0,12.11-1.93,52.32,52.32,0,0,1,9.69-2.28c2.27-.39,4.57-.78,6.76-1.35a132.58,132.58,0,0,0,17.85-5.63,68.74,68.74,0,0,0,7.86-4.18c2.17-1.28,4.37-2.58,6.8-3.77,1.62-1.14,3.32-2.25,4.83-3.23a69.43,69.43,0,0,0,10.33-7.69,174.81,174.81,0,0,0,18.38-20.62c6.59-8.78,11.12-16.73,14.26-25l.76-2,.38-1c2.81-7.29,5.71-14.82,6.1-22.69l0-.53c.69-14.23,1.4-28.95-6.16-42.16-.62-1.07-1.22-2.15-1.83-3.23-2.72-4.87-5.54-9.9-9.15-14.16-6.79-8-15.81-13.15-23.75-17.15a117,117,0,0,0-24-9.32c-5.25-1.35-10.66-2.41-15.9-3.43l-.14,0L1461,693c-2.33-.45-4.71-1-7-1.56-5.59-1.32-11.3-2.67-16.91-2.67h-1.63c-4.17,0-8.38-.13-12.45-.26h-.56c-4.1-.13-8.34-.26-12.54-.26Zm27.38,109.89a3.21,3.21,0,0,1-1.3-.25,33,33,0,0,1-11.16-7.41,30.54,30.54,0,0,1-4.37-7.05,47.68,47.68,0,0,0-2.82-5.09c-4.54-6.79-6.11-14-4.55-20.75.67-2.89,4.9-6.2,7.76-6.79,5.36-1.1,11-1.11,16.49-1.12h3.38a105,105,0,0,1,12.92.89c1.66.2,3.67,1.79,5.39,4.24,2.38,3.4,3.51,7.33,2.9,10a38.47,38.47,0,0,1-3.06,7.82c-.75,1.57-1.5,3.13-2.16,4.78-1.3,2.13-2.67,4.16-3.88,6-1.46,2.18-2.85,4.24-4.13,6.42-1.94,3.29-7.71,8.36-11.41,8.36Z" transform="translate(-1071.63 -195.68)"/><path class="cls-4" d="M1439.7,759h0l-2.75.35-.84.11c-2.82.35-6,.75-9.09,1.27-1.15.2-3.25,1.19-3.24,1.78a21.42,21.42,0,0,0,1.32,7.82,81.52,81.52,0,0,0,3.9,7.41l.07.12c.85,1.48,1.72,3,2.51,4.55,1.11,2.13,2.36,3.17,3.85,3.17a6.46,6.46,0,0,0,3.9-1.83c5.63-4.66,8.71-10.86,11.19-16.86.59-1.41,0-4.45-1-5-3-1.65-6.44-2.33-9.78-2.89Z" transform="translate(-1071.63 -195.68)"/><path class="cls-4" d="M1741.22,1326.51a38.81,38.81,0,0,0-7.09.9c-5.28,1-8.82,4.79-12.24,8.44-.82.87-1.64,1.74-2.48,2.57-4.7,4.66-6.58,10.81-8.4,16.74-.32,1.06-.64,2.11-1,3.14a78,78,0,0,0-2.31,10.32v.14h0c-.4,2.27-.82,4.61-1.36,6.88l-.21.9-.06.27c-.6,2.62-1.27,5.57-3,7.24a35.42,35.42,0,0,0-9.87,18,119.86,119.86,0,0,1-4.92,14.87c-1,2.57-1.83,4.82-2.63,7.1-2.61,7.51-5.38,15.51-8.07,23.57-3.19,9.55-6.37,19.29-9.45,28.71l-.41,1.25-.92,2.82-1.35,4.1-.44,1.35-.06.16c-2.08,6.31-4.24,12.85-6.15,19.33-.5,1.69-1.52,5.78-.19,7.27,2.33,2.61,6,6.11,10.49,7.93,5.42,2.21,11.31,3.45,17,4.66l1.15.24a38.23,38.23,0,0,0,8,.87,33.3,33.3,0,0,0,22.32-8.53,45.27,45.27,0,0,0,6.36-7.36,55.79,55.79,0,0,1,5.34-6.46,11.75,11.75,0,0,1,7.72-2.78h.37c5.88.22,6.48,1.53,6.7,7.54v.21c.12,3.39.25,6.9,1.42,10a110.91,110.91,0,0,0,7.54,15.71c3.7,6.49,6.21,9.58,10.49,9.58a16.94,16.94,0,0,0,6.69-1.78c10.14-4.48,17.71-12,23.15-23.13a37.21,37.21,0,0,0,3.2-9.42l.24-1.26.11-.53c.78-3.94,1.58-8,1-11.78s-.12-6.55,1.4-8.45,4-2.87,7.4-3.1c.32,0,.63,0,.94,0,3.79,0,7,1.59,10.06,3.12l.21.11c.88.43,1.78.88,2.69,1.28a23.65,23.65,0,0,0,9.61,2.22,18,18,0,0,0,6.7-1.28,28.39,28.39,0,0,0,15.93-15c4.16-9,3-18.1,1.26-25.86-1.26-5.69-4.19-11.11-7-16.34l-.79-1.46a63.31,63.31,0,0,0-5.11-7.62c-1.14-1.53-2.28-3.06-3.31-4.61-4.32-6.51-5.82-12-4.85-17.67.09-.51.73-.94,1.35-1.36a8.77,8.77,0,0,0,.9-.67c2.81-2.54,5.62-5.08,8.88-8.08.25-.68.54-1.37.8-2a14.12,14.12,0,0,0,1.36-4.31c.58-7.44-3.6-13.28-7.31-17.53-5.81-6.66-11.73-12.9-20.21-16a24.47,24.47,0,0,0-8.57-1.84,12.35,12.35,0,0,0-7.12,2.11,91.8,91.8,0,0,0-8.85,7c-2.26,2-4.58,4-7,5.75a65,65,0,0,1-12,6.81.72.72,0,0,1-.31,0c-1.11,0-3.51-1.52-3.83-2.63-.81-2.84-1.45-5.85-2-8.5a95.62,95.62,0,0,0-2.81-11.07,35.41,35.41,0,0,0-7.3-13,40.31,40.31,0,0,0-13.61-9.12,11,11,0,0,0-4.2-.71Z" transform="translate(-1071.63 -195.68)"/></svg>