<?xml version="1.0" encoding="utf-8"?>
<!-- Generator: Adobe Illustrator 22.0.1, SVG Export Plug-In . SVG Version: 6.00 Build 0)  -->
<svg version="1.1" id="Draw_Layer" xmlns="http://www.w3.org/2000/svg" xmlns:xlink="http://www.w3.org/1999/xlink" x="0px" y="0px"
	 viewBox="0 0 1804 1482" style="enable-background:new 0 0 1804 1482;" xml:space="preserve">
<style type="text/css">
	.st0{fill:#2C2C2C;}
	.st1{opacity:0.7;fill:#BEBEBE;enable-background:new    ;}
	.st2{opacity:0.7;fill:#6EDAF4;enable-background:new    ;}
	.st3{opacity:0.7;fill:#725AF7;enable-background:new    ;}
</style>
<title>Bunny</title>
<path class="st0" d="M724.1,265c-0.3,0.4-0.5,0.8-0.8,0.9c-6.5,0.7-10.6,5.1-14.2,9.9c-2.2,2.9-4.2,5.8-5.1,9.4
	c-1,3.9-3,7.6-3.9,11.5c-1,3.9-1.3,7.9-1.7,11.9c-0.6,5.5-1.2,11-1.6,16.6c-0.1,1.6,0.8,3.3,1,5c0.6,6.3,1.1,12.7,1.7,19
	c0.1,1.3,0.2,2.6,0.6,3.9c1.4,4.4,2.9,8.9,4.4,13.3c1.3,3.9,2.2,8.1,4,11.8c3.4,6.7,7.1,13.2,11.2,19.5c3.6,5.4,7.6,10.5,12,15.3
	c5.1,5.7,9.9,11.5,14.4,17.6c4.5,5.8,7.6,12.6,9.1,19.8c1.2,5.2,0.9,10.7-0.6,15.8c-1.8,5.8-5.3,10-8.9,14.4
	c-2.6,3.2-5.4,6.3-7.7,9.7c-2.7,3.9-5.3,8-7.6,12.2c-3.3,5.9-6.6,11.9-9.2,18.1c-2.4,5.9-4.5,11.9-6.2,18c-1.4,4.8-2.3,9.7-3.3,14.5
	c-0.7,3.3-1.3,6.7-1.6,10c-0.4,3.5-0.6,7-0.5,10.5c0.2,10.1-0.5,20.2,1.4,30.3c1.1,5.8,1.7,11.8,3.4,17.5c1.5,5.1,2.4,10.4,4.9,15.3
	c2.2,4.2,3.7,8.7,5.2,13.2c0.4,1.3,2.7,2.4,0.6,4.6c-4,4.1-7.5,8.6-11.3,12.8c-5.3,5.7-9.5,12.2-13.6,18.8c-2.5,3.9-4.8,8-6.9,12.2
	c-2.1,4.3-3.6,8.9-5.3,13.4c-2,5.4-4.2,10.7-5.9,16.2c-1.4,4.9-2.5,9.8-3.3,14.8c-0.8,4-1.3,8.1-1.6,12.2
	c-0.4,6.1-0.4,12.3-0.6,18.4c-0.3,6.2-0.5,12.5-1.1,18.7c-0.4,4.9-1.1,9.7-2.2,14.4c-1,4-3.2,7.7-4.2,11.7
	c-1.4,5.9-5.6,10.3-7.8,15.7c-1.8,4.4-4.2,8.5-5.9,12.9c-1.4,3.6-1.9,7.6-3.4,11.2c-2.1,5.1-3.5,10.4-4.3,15.8
	c-0.2,1.3-0.1,2.7-0.6,3.9c-1.9,5-2.1,10.4-2.7,15.6c-0.3,3.2-0.3,6.4-0.6,9.6c0,0.6-0.7,1.1-1.1,1.7v34.4c0.4,0.4,1,0.8,1.1,1.3
	c0.3,4.6,0.3,9.2,0.6,13.7s1,9.1,1.6,13.6c0.4,2.8,1,5.6,1.6,8.4c0.8,3.7,1.8,7.3,2.6,11c0.3,1.3,0.3,2.6,0.6,3.8
	c0.9,3.6,1.9,7.1,2.7,10.7c0.8,3.7,1.4,7.5,2.2,11.1c0.8,3.2,1.8,6.4,2.7,9.6c1.3,4.9,2.4,9.8,3.9,14.6c1.4,4.7,2.9,9.4,4.5,14
	c1.5,4.6,3.3,9.1,4.7,13.7c0.9,2.9,1.4,6,2.3,8.9c1.3,4.1,2.9,8.1,4.2,12.2c0.9,3,1.5,6.1,2.4,9.2c0.7,2.4,1.6,4.6,2.3,7
	c0.3,1,0.1,2.1,0.5,3.1c1.7,4.6,3,9.3,3.9,14c0.7,4.3,2.2,8.4,3.2,12.6c1.2,4.8,2.3,9.7,3.3,14.5c1.2,5.5,2.2,11,3.3,16.5
	c0.6,3.2,1,6.5,1.7,9.7c1,4.6,2.1,9.2,3.2,13.7c1.1,4.6,1.8,9.1,3.4,13.4c2.7,7.5,5.6,15,10.9,21.3c2,2.3,3.7,4.9,5.9,6.9
	c4.5,4.1,9.6,7.3,15.2,9.5c5.3,2,10.6,3.4,16.3,3.1s11-1.9,15.5-5.5c2-1.6,4.2-3,5.9-4.9c3.9-4.2,6.7-9.1,9.2-14.3
	c1.5-3.2,2.9-6.5,4.4-9.7c1.6-3.5,3.2-7.1,4.7-10.7c1.3-3.3,2.3-6.7,3.6-10c1.5-3.8,3.3-7.4,4.9-11.1c1.4-3.4,2.5-6.8,3.9-10.2
	c1.6-4.1,3.2-8.2,5-12.2c1.5-3.5,3.2-6.9,4.9-10.3c2.6-5.3,5.1-10.7,9-15.2c2-2.3,3.7-5.1,6.1-7c3.5-3.1,7.4-5.8,11.4-8.1
	c2.4-1.3,5.6-1.5,8.6-1.8c2-0.2,4.1-0.2,6.1,0c4.9,0.4,9.6,1.8,13.9,4.2c7,3.7,12.1,9.4,16.7,15.5c3.3,4.4,5.8,9.4,7.3,14.8
	c1.3,4.7,2.2,9.5,3.3,14.3c1.8,7.9,0.5,16,1.7,23.7c1.2,7.6,0.3,15.1,0.9,22.6c0.2,2.7,0.1,5.4,0.6,8c0.7,3.9,1.7,7.7,2.7,11.5
	c1.1,4.2,1.9,8.5,3.4,12.6c1,3,2.4,5.8,4.2,8.4c3.2,4.2,6.6,8.2,10.2,11.9c3.6,3.8,8.4,5.5,13.2,7.2c1.5,0.5,3.1,0.9,4.8,1.5
	c4.8,0.1,9.5,0.1,14.1,0c2.2-0.8,4.4-1.3,6.6-2.1c1.4-0.5,3.1-1.1,4-2.2c3.1-3.4,6.8-6.6,8.8-10.6c2.4-4.7,3.4-10.1,4.7-15.3
	c0.8-3.1,1.2-6.3,1.7-9.4c0.6-3.3,1.4-6.7,1.6-10c0.2-4.3,0.8-8.6,1.6-12.8c1-4.8,0.9-9.8,1.6-14.7c0.9-7,0.7-14.2,1.7-21.2
	c0.8-5.8,0.5-11.7,0.7-17.6c0.4-15.4-1-30.8,1.1-46.2c0.6-4,0.8-8.3,2.4-11.9c1.8-4.1,2.9-8.5,6-12.1c1.3-1.5,1.4-1.5,2.6-0.4
	c4,3.4,8.8,5.7,14,6.6c6.3,1.2,12.7,1.3,19.1-0.8c4.9-1.7,9.4-3.8,13.2-7.2c0.4-0.3,0.9-0.6,1.3-0.8c0.2,0.6,0.4,1.1,0.5,1.7
	c0.4,1.8,0.6,3.8,1.3,5.5c1.8,4.4,5.2,7.1,9.3,9.5c6.7,3.9,13.5,3.8,20.1,0.5c4.5-2.4,8.2-5.9,10.8-10.3c3.9-6.4,6.6-13.2,6.8-20.8
	c0-0.3,0.1-0.7,0.1-1c0.3,0.3,0.6,0.5,1,0.7c2.1,0.8,4.2,2.1,6.4,2.4c6.9,0.8,12.8-1.1,18.1-5.9c5.4-5,8.6-10.8,8.4-18.2
	c-0.1-3.3,0.4-6.7-1-10c-1.2-2.9-1.2-6.3-2.6-9c-2.5-4.9-5.7-9.5-8.6-14.3c-0.2-0.7-0.2-1.4,0.2-2c3.7-4.6,4.9-10,5.3-15.6
	c0.2-2.6-0.8-5.3-1.5-7.8c-0.6-2.2-0.9-4.7-2.2-6.5c-3.9-5.3-8.4-10.2-15.5-11.3c-2.3-0.4-4.6-1.2-6.9-1.2c-2.4,0-4.9,0.8-7.3,1.4
	c-5.1,1.3-9.5,3.6-13.1,7.5c-0.3,0.3-0.6,0.6-1,0.8c-0.1-0.4-0.2-0.9-0.2-1.3c0.1-4.9-1.5-9.6-4.4-13.5c-4.5-6.1-10.7-9.5-18.3-9.7
	c-0.9,0-1.7,0.2-2.5,0.5c-0.8,0.3-1.7,0.5-2.5,0.5c-4-0.1-6.7,2.4-9.7,4.4c-2,1.3-3.6,3.3-5.3,4.9l-0.3,1.6l-0.7-0.2
	c0.3-0.5,0.5-1,0.9-1.6c0.4-5.3,0.5-10.5,1.6-15.7c1-4.8,0.7-9.9,0.7-14.8c0-8.1-0.2-16.1-0.6-24.2c-0.2-4,0.1-7.9-0.8-11.9
	c-1.1-4.9-0.6-10.1-1.8-15.2c-1.1-4.4-1.2-9-1.8-13.5c-0.1-1.3-0.3-2.6-0.6-3.9c-0.8-3.1-1.9-6-2.7-9c-0.8-3-1.3-6-2-9
	c-0.9-3.5-2-7-2.9-10.6c-1.2-4.6-2.4-9.3-3.2-14c-0.9-4.6-1.4-9.2-1.6-13.8c-0.1-3.1-0.5-6.2,0.8-9.5c1.1-2.4,0.7-5.6,0.7-8.5
	c0.1-5.3,0.1-10.6,0-15.9c0-2.9-0.2-5.9-0.6-8.8c-0.7-4.1-1.7-8.2-2.7-12.3c-0.7-3.2-1.3-6.4-2.3-9.4c-1.4-3.9-3.1-7.7-4.8-11.4
	c-2.9-6.2-5.7-12.3-9.5-18c-4.4-6.6-8.8-13.1-14.5-18.6c-2.2-2.1-4.2-4.4-6.4-6.4c-2.8-2.5-5.9-4.7-8.7-7.3
	c-0.9-0.8-2.8-1.3-1.5-3.4c2.3-3.8,4.9-7.5,6.5-11.6c2.5-6.2,4.5-12.6,6.1-19.1c1.2-5,1.3-10.3,1.7-15.5c0.2-2.5,0.2-4.9,0-7.4
	c-0.3-7.5-0.7-15-1.1-22.6c-0.1-1.7-0.3-3.3-0.6-5c-0.8-4.3-1.8-8.6-2.7-12.8c-0.8-3.8-1.3-7.7-2.2-11.4c-1.3-5-3-9.9-4.3-14.9
	c-1.3-5-2.4-10-3.6-15c-0.3-1.2-0.1-2.5-0.4-3.7c-0.8-2.8-1.8-5.5-2.6-8.2c-0.7-2.6-1.2-5.2-1.6-7.8c-0.7-4.3-1.1-8.7-1.7-13
	c-0.1-0.8,0.1-1.6,0-2.4c-0.5-4.5-1.4-9-1.5-13.6c-0.1-3.9-0.7-7.9,0.8-11.9c1.3-3.5,1.1-7.6,1.8-11.3c0.7-4,2.5-7.7,5.2-10.7
	c2.7-3,5.7-5.6,9-7.9c3.8-2.4,7.9-4.3,12.1-5.8c3.3-1.2,6.9-1.5,10.3-2.3c3.7-0.8,7.2-2.1,10.9-2.7c6.6-0.9,13.3-0.3,19.9-1.5
	c4.4-0.8,9,0,13.5,0.7c5.4,0.8,10.9,0.1,16.3,1.8c3.2,1,6.7,1.1,10,1.7c3.3,0.6,6.6,1.3,9.8,2.2c3.4,0.9,6.8,2.1,10.2,3.1
	c2.4,0.7,4.7,1.3,7.1,2.2c3.8,1.3,7.4,2.9,11.2,4c3.2,1,6.5,1.5,9.8,2.2c4.8,1.1,9.7,3,14.5,3.1c9.7,0.3,19.4,0.9,28.9-2.9
	c5.2-2.1,10.1-4.3,14.1-8.3c3.4-3.4,6.5-7,9.8-10.7c0-5.3,0-10.6-0.1-15.8c-0.4-1.9-0.7-3.8-1-5.7c-0.1-0.3-0.2-0.6-0.3-0.8
	c-0.1,0.2-0.2,0.5-0.2,0.7c0,0.5,0,0.9,0,1.4c0,0.3-0.1,0.7-0.2,1c-0.2-0.3-0.4-0.6-0.6-0.9c-2.8-3.9-5.4-8.2-8.6-11.8
	c-6.7-7.5-14.6-13.9-23.4-18.8c-5.8-3.3-11.9-6-18.3-8.2c-4.9-1.6-9.8-3.3-14.8-4.6c-3.5-0.8-7-1.4-10.5-1.7
	c-3.5-0.4-7-0.6-10.5-0.5c-5.9,0-11.9,0.2-17.9,0.5c-3.4,0.2-6.8,0.7-10.2,1.1c-1.2,0.1-2.4,0.3-3.6,0.5c-3.6,0.9-7.1,1.8-10.7,2.7
	c-3.1,0.8-6.3,1.4-9.4,2.4c-4.3,1.4-8.6,3.1-12.8,4.7c-3.2,1.2-6.6,2.2-9.7,3.6c-5,2.3-9.9,4.9-14.8,7.3c-5.1,2.6-10.3,5.2-15.3,7.9
	c-3.4,1.8-6.6,3.8-9.9,5.8s-6.5,3.7-9.7,5.6c-3.2,1.9-6.2,3.9-9.5,5.6c-4.7,2.5-9.5,4.7-14.5,6.7c-4.9,1.9-10,3.6-15.1,4.4
	c-4.6,0.8-9.3,0.4-13.7-1.2c-6.5-2.3-13-4.4-19.6-6.3c-5-1.4-10.2-2.3-15.3-3.3c-3.7-0.7-7.4-1.3-11.1-1.6
	c-4.1-0.4-8.3-0.4-12.4-0.6c-1.1,0-2.2,0-3.2,0c-1.4,0-2.8,0-4.2,0c-1-0.1-2.1-1-3.1-0.9c-1.7,0.1-3.4,0.8-5.1,0.9
	c-6.7,0.3-13.4,0.4-20.1,0.6c-0.1,0-0.3,0-0.4,0c-0.2-0.1-0.5,0-0.7,0c-3.1,2-6.5,0.9-9.8,1.6c-1.4,0.3-1.7-0.4-1.6-1.6
	c0.4-3.6,1-7.2,1-10.8c0-4-0.7-7.9-1-11.9c-0.3-4.5-0.1-9-0.7-13.4c-0.5-3.9-1.8-7.6-2.6-11.5c-0.7-3.3-1-6.7-1.9-9.9
	c-1.3-4.4-3.1-8.8-4.7-13.1c-1.8-5.1-3.3-10.3-5.6-15.2c-2.6-5.3-5.6-10.5-8.9-15.5c-3.4-5.3-6.9-10.6-10.7-15.6
	c-3.3-4.3-6.9-8.4-10.6-12.3c-2.2-2.3-4.8-4.2-7.3-6.2c-3-2.5-5.8-5.3-9.1-7.3c-3.8-2.3-8-3.9-12.1-5.9c-0.6-0.3-1.1-0.7-1.7-1.1
	c-4.1,0-8,0-11.9,0.1L724.1,265z M856.8,721.6c-3.2-0.4-6.6-0.9-10.3-1.6l-2.2-0.4c-4.2-0.8-8.5-1.7-12.6-2.9
	c-3.9-1.1-7.8-2.6-11.6-3.9h-0.1l-0.3-0.1c-1.6-0.6-3.2-1.2-4.8-1.7l-2-0.7l-0.3-0.1c-1.4-0.5-3-1-4.5-1.6c-4.8-2-8.9-3.8-12.7-5.6
	c-3.8-1.8-7.8-3.7-11.8-5.9c-2.5-1.5-5-3.1-7.3-4.9c-5.1-3.9-10.6-8.2-15.9-12.6l-0.2-0.2c-3.6-3-7.3-6.1-10.5-9.6
	c-2.5-2.9-4.9-5.9-7.2-9c-0.8-1.1-1.6-2.2-2.4-3.2l-0.9-1.2l0-0.1c-1.7-2.2-3.5-4.5-5-6.9c-2.7-4.3-4.9-8.1-6.8-11.7
	c-1-1.9-1.8-3.9-2.6-5.8c-0.6-1.5-1.3-3.1-2-4.7c-2.3-5-4.1-10.3-5.2-15.7c-0.3-1.6-0.6-3.2-0.8-4.7c-0.3-2.1-0.7-4.2-1.2-6.3
	c-1.8-6.5-1.7-13.2-1.6-19.6c0-2.5,0.1-4.8,0-7.1c-0.1-3.3,0.1-6.6,0.6-9.9c0.5-3.3,1.3-6.6,2-9.9v-0.1c0.3-1.5,0.7-3,1-4.4
	c0.2-0.9,0.4-1.9,0.5-2.8c0.3-2,0.8-4,1.4-6c0.7-2.3,1.6-4.5,2.4-6.8c0.4-1.1,0.8-2.1,1.2-3.2c0.3-0.7,0.5-1.4,0.8-2.2
	c0.4-1.4,1-2.7,1.5-4l0.5-1.1c2.2-4.7,4.5-9.5,7.1-14.1c2.8-5.1,6-10.1,9.1-14.9l0.4-0.7c0.6-0.9,1.2-1.7,2-2.4l0-0.1
	c0.5-0.5,1-1.1,1.4-1.6c1-1.2,2-2.5,2.9-3.7l0-0.1c2.7-3.2,5.2-6.6,7.4-10.1c2.6-4.2,4.6-8.7,6-13.4c1.5-5,1.2-10,0.6-14.7
	c-0.4-3.3-2.2-6.5-4.1-9.6l0-0.1c-0.3-0.5-0.6-1.1-0.9-1.6c-4-7.1-9.8-12.9-15.3-18.5c-2-2.1-4.3-4.4-6.5-6.8
	c-4.1-4.5-7.5-9.8-10.9-15.2c-4-6.3-7.5-12.7-10.6-18.9c-1.4-3-2.5-6-3.3-9.2c-0.3-0.9-0.5-1.7-0.8-2.5c-0.5-1.6-0.9-3.2-1.3-4.7
	c-0.6-2.5-1.3-4.9-2.1-7.3c-0.6-1.8-0.9-3.6-1-5.4c-0.1-1.4-0.3-2.7-0.6-4c-1.8-6.7-1.7-13.6-1.5-20.3v-0.1c0.1-2.8,0.1-5.8,0-8.6
	c-0.1-2.7,0.1-5.3,0.6-8l0.3-1.6c0.7-4.7,1.8-9.4,3.1-14c1.9-6.3,5.1-14.2,12.7-19.1c0.8-0.5,1.7-0.8,2.6-1l0.1,0
	c0.3-0.1,0.6-0.2,0.9-0.3c0.3-0.1,0.6-0.2,1-0.3c0.9-0.4,1.8-0.6,2.7-0.7h0c0.7,0.1,1.3,0.2,1.9,0.5c0.4,0.2,0.8,0.3,1.2,0.4
	c0.8,0.2,1.6,0.4,2.3,0.6c1.4,0.3,2.8,0.7,4.1,1.2c2.3,0.9,4.5,2,6.5,3.4c6.9,4.7,13.3,10.2,19,16.3c4.1,4.5,7.3,8.3,10.3,11.9
	c2.7,3.4,5.1,6.9,7.4,10.7c3.3,5.6,6.4,11.3,9.1,16.8c2.2,4.3,4,8.9,5.8,13.4v0.1l0.4,1c1,2.4,1.8,5,2.4,7.5c0.5,2,1,4,1.5,6
	l0.1,0.3c0.4,1.5,0.8,3.3,1.2,4.9c0.7,2.9,1.2,5.8,1.6,8.8v0.1c0.2,1.7,0.5,3.5,0.8,5.2c1.4,7.8,1.5,15.6,1.4,22.9
	c0,3.2-0.2,6.7-0.6,11c-0.1,1.1-0.3,2.2-0.5,3.2v0.1c-0.2,1.1-0.4,2.2-0.5,3.4c0,1,0.4,2,1.1,2.7c0.8,0.9,1.9,1.5,3.1,1.6
	c0.8,0,1.7,0,2.5,0.1h0.1c1.2,0,2.4,0.1,3.5,0.1c1.4,0,2.7-0.1,4.1-0.2c2.8-0.4,5.6-1,8.3-1.7c1.2-0.3,2.5-0.6,3.8-0.9
	c0.2,0,0.4-0.1,0.7,0h0.4l6.4-0.1l2.1,0c7.6-0.1,15.4-0.3,23.1-0.4h0.8c2.7,0,5.4,0.2,8.1,0.6c2.4,0.4,4.9,1,7.3,1.6h0.1
	c1.4,0.3,3.1,0.7,4.7,1.1c1.6,0.3,3.1,0.6,4.6,0.9h0.1c2.2,0.4,4.5,0.8,6.7,1.3c1.6,0.4,3.1,0.9,4.6,1.4c1.2,0.4,2.5,0.9,3.8,1.2
	c1.8,0.5,3.6,0.9,5.3,1.3h0.1c3.3,0.7,6.5,1.6,9.6,2.7c3.4,1.2,7,1.7,10.6,1.6c1.6,0,3.3-0.1,4.7-0.1h0.1c1.2,0,2.5-0.1,3.8-0.1
	c3.9,0,7.9-1.5,12.5-4.7c2.5-1.7,5.1-3.3,7.6-4.8l0.1-0.1c1.3-0.8,2.5-1.6,3.8-2.3c0.4-0.3,0.9-0.6,1.3-0.9l0.1-0.1l0.5-0.3
	c1.7-1.1,3.4-2,4.9-2.9l0.6-0.3l1-0.6l1.6-0.9c2.9-1.7,6.3-3.6,9.4-5.4c1.2-0.7,2.4-1.5,3.6-2.2l0,0l0.1,0c1.8-1.1,3.7-2.3,5.6-3.3
	c3.7-2,7.4-3.9,10.8-5.6c2-1,4.1-2.1,6.1-3.2c1-0.5,2.1-1.1,3.1-1.7l0.1,0c1.7-0.9,3.4-1.9,5.2-2.7c2.6-1.2,5.2-2.2,7.8-3.2l0.3-0.1
	l2.5-1l2.3-0.9h0.1c2.6-1,5.2-2.1,7.8-3c2.8-1,5.6-1.9,8.5-2.6c4.3-1.1,8.7-2,13-2.9l0.1,0l1.9-0.4c1.1-0.2,2.2-0.4,3.3-0.6l0.2,0
	c1.6-0.3,3.5-0.6,5.2-1c6.1-1.6,12.1-1.8,16.7-1.8c2.6,0,5.3,0.1,7.8,0.2h0.2c2.2,0.1,5,0.1,7.6,0.1h1c5.3,0.1,10.5,0.8,15.6,2.2
	c3.2,0.8,6.5,1.9,9.6,3.1h0.1c2.8,1,5.6,2,8.5,2.8c4.5,1.2,8.5,3.6,12.4,5.8l0.4,0.2l2.1,1.2c2.4,1.5,4.7,3.1,7,4.8l0.1,0.1
	c2.2,1.7,4.4,3.5,6.3,5.2c4.7,4.2,8.3,9.5,10.7,15.3c2.2,5.1,2.8,9.8,1.8,13.7c-0.9,3.4-2.5,6.5-4.8,9.2c-2.5,3-5.5,5.5-9,7.4
	c-6.2,3.3-12.8,3.8-18.4,3.8c-2.3,0-4.6-0.1-6.8-0.2h-0.2c-1.1,0-2.2-0.1-3.3-0.1c-4-0.1-7.9-1-11.8-1.8l-1.5-0.3
	c-3.6-0.8-7.2-1.8-10.6-2.8l-1.7-0.5c-3.2-0.9-6.4-1.8-9.6-2.8c-2.4-0.7-4.9-1.4-7.3-2.1c-1.7-0.5-3.3-0.9-5.1-1.4
	c-2.2-0.6-4.5-1.2-6.7-1.9c-1.3-0.4-2.6-0.8-3.8-1.3l-0.2-0.1c-1.4-0.5-2.8-0.9-4.2-1.4c-0.3-0.1-0.5-0.1-0.8-0.1
	c-0.2,0-0.5,0-0.7,0c-0.3,0-0.5,0-0.7,0c-0.1,0-0.3,0-0.4,0c-1.6-0.2-3.1-0.4-4.7-0.5l-0.3,0c-4.1-0.4-8.3-0.9-12.4-1.7
	c-4.5-0.9-9.2-1.3-13.8-1.2c-2.5,0-5.1,0.1-7.6,0.2h-0.2c-2.4,0.1-4.9,0.1-7.4,0.1c-0.9,0-1.8,0-2.6,0h-0.8
	c-3.6,0.1-7.2,0.4-10.8,1.1c-1.2,0.2-2.4,0.3-3.6,0.5c-2.9,0.4-5.8,0.9-8.6,1.6c-1.7,0.4-3.5,1-5.2,1.5c-1.1,0.3-2.2,0.7-3.3,1
	c-0.5,0.1-1,0.2-1.6,0.3c-0.3,0-0.7,0.1-1,0.1c-6,1.1-11.8,3.3-17,6.6c-5.6,3.5-9.4,7.9-11.7,13.4c-3.1,7.3-3.1,14.7-3.1,21.8v3
	c0,5.1,0,10.4,0,15.6c0,0.9,0,1.8,0,2.8c0,3.1,0,6.2,0.7,9c0.6,2.8,1,5.6,1.1,8.4v0.1c0.1,1.6,0.2,3.3,0.4,4.9
	c0.5,3.6,1,7.4,1.7,11.1c1.2,6.4,2.2,11.6,3.3,16.4c0.5,2.1,1.1,4.2,1.7,6.2v0.1c0.4,1.4,0.8,2.8,1.2,4.2c1,3.7,1.9,7.5,2.8,11.2
	l0,0.2l0.8,3.3l0.4,1.8l0.4,1.4l0.1,0.3c0.8,3.3,1.6,6.6,2.4,10c0.3,1.2,0.5,2.4,0.7,3.6c0.2,1.7,0.6,3.4,1,5
	c2.1,7,1.8,14.3,1.6,21.4c-0.1,2-0.1,4.1-0.1,6.2c0,4.9-0.7,10.1-2.2,16.9c-1.1,5.5-2.8,10.9-4.9,16c-1.6,3.7-3.5,7.2-5.4,10.7
	c-1.2,2.3-2.5,4.6-3.7,7c-2.5,4.9-5.7,9.4-9.5,13.3c-1.5,1.6-3,3.3-4.4,4.9c-2.6,3.1-5.5,6.1-8.5,8.9c-7.9,6.9-14.6,11.2-21.5,14
	c-3.8,1.5-7.8,3.1-11.8,4.6c-1.1,0.3-2.2,0.5-3.4,0.6h-0.2c-1,0.1-2,0.1-2.9,0.2c-1.8,0-3.7,0.2-5.5,0.6c-3,0.8-6.2,1.1-9.3,1
	c-1.7,0-3.4-0.1-5-0.1h-0.3c-1.5-0.1-3.4-0.1-5.1-0.1c-1.1,0-2,0-2.8,0.1c-0.6,0-1.2,0-1.8,0C862,722.2,859.4,722,856.8,721.6
	L856.8,721.6z M764.1,871.2c-4-0.5-7.8-2.3-10.7-3.8c-4.6-2.4-9.2-5.1-13.5-7.8l-1.2-0.7l-1.2-0.7c-0.9-0.6-1.7-1.2-2.4-1.9
	l-0.1-0.1c-0.4-0.4-0.8-0.7-1.2-1.1c-1.1-0.9-2.2-1.8-3.4-2.7c-1.8-1.4-3.7-2.9-5.5-4.5c-2-1.7-4.1-3.5-6.1-5.2
	c-1.8-1.6-3.7-3.1-5.5-4.7c-0.6-0.5-1.3-1-2-1.5c-1.2-0.7-2.2-1.6-3.1-2.6c-1.1-1.3-2.2-2.5-3.3-3.8c-4.5-5-9.1-10.2-12.6-16.2
	c-3.1-5.4-6.1-10.7-8-16.7c-1.6-5.1-3.1-10.6-3.1-16.5c0-1.4,0-2.8,0-4.1c0-3.8,0-7.8,0-11.8c0-2.4,0.2-4.8,0.6-7.2
	c0.5-2.3,1.1-4.5,1.6-6.7c0.4-1.4,0.7-2.7,1-4c0.1-0.6,0.2-1.2,0.3-1.8c0.1-0.6,0.2-1.2,0.3-1.8c0.3-1.1,0.5-2.3,0.8-3.4
	c0.8-3.4,1.5-6.9,2.6-10.3c0.7-2.3,1.6-4.5,2.6-6.7c0.6-1.3,1.1-2.4,1.5-3.6c0.5-1.2,0.9-2.4,1.3-3.5c0.7-1.8,1.3-3.7,2.2-5.5
	c1.6-3.5,3.4-7.1,5.9-11.8c2.1-4,4.6-8.6,7.3-13.1c1.7-2.6,3.5-5.2,5.5-7.6c4.8-6.1,8.7-10.9,12.3-15.2c0.7-0.8,1.7-1.4,2.7-1.4
	c1.1,0,2.1,0.5,2.8,1.3c1.5,1.6,3.1,3.2,4.6,4.8l0.2,0.2c3.1,3.2,6.2,6.6,9.5,9.7c4.3,4,8.7,7.8,13.4,11.2c4.8,3.6,10,6.9,14.8,9.9
	c5.1,3.2,10.4,6.3,15.4,9.1c1.1,0.6,2.1,1.2,3.1,1.8l0.7,0.4c5,2.9,10.1,5.8,15.4,8.4c4.6,2.3,9.4,4,14.9,5.8
	c5.1,1.7,10.4,2.6,15.6,3.4l1.1,0.2c8.3,1.3,16.4,1.4,24,1.4h1.4c3.4,0,7-0.2,11.8-0.5c6-0.5,12-1,18-1.6h0.1c4-0.4,8.1-0.9,12-1.7
	c2.4-0.6,4.7-1.3,6.9-2.3l0.2-0.1c0.4-0.2,0.8-0.3,1.3-0.5c4.4-1.7,8.5-4.1,11.9-6.3c8.8-5.5,16.1-12.7,22.8-19.7
	c1.5-1.6,2.9-3.4,4.3-5.1c1.1-1.4,2.3-2.9,3.5-4.2c1.5-1.7,2.9-2.4,4.3-2.4c1.2,0,2.4,0.5,3.9,1.7c4.6,3.6,7.8,7.1,9.9,10.9
	c0.5,0.8,1.1,1.6,1.8,2.3l0.1,0.1c0.5,0.5,0.9,1,1.3,1.5c0.8,1,1.5,2,2.3,3.1l0.2,0.3c2.4,3,4.6,6.1,6.7,9.3c1.8,3,3.4,6.1,5,9.2
	c1.1,2.2,2.4,4.8,3.8,7.1c3,5.2,4.7,10.9,6.4,16.4l0.6,2.1c1.4,4.5,2.9,10,3.2,15.9c0.1,1.3,0.3,2.7,0.5,4v0.1
	c0.3,1.8,0.5,3.7,0.5,5.6c-0.1,4.9-0.7,9.8-1.7,14.7c-1.3,5.5-3,11-5,16.3c-0.7,1.8-1.5,3.5-2.5,5.1c-0.6,1.1-1.2,2.2-1.8,3.3
	c-1.1,2.4-2.2,4.9-3.2,7.2c-0.6,1.4-1.2,2.8-1.8,4.2l-0.5,1.1l-0.2,0.4v0.1c-0.8,1.8-1.6,3.8-2.6,5.6c-1.6,3.1-3.4,6.1-5.1,9.1
	l-0.5,0.9c-2.2,3.8-4.1,7-5.9,9.9c-0.5,0.8-1,1.6-1.6,2.3l-0.8,1c-4.2,6-9.9,13.6-17.2,19.8c-4.5,3.8-9.4,7.1-14.5,10.1
	c-3.7,2.1-7.4,3.9-11.3,5.4l-1.9,0.8c-2.3,0.9-4.6,1.7-7,2.2c-5.1,1.2-10.4,1.8-15.6,1.8c-1.2,0-2.5,0-3.7-0.1
	c-8.4-0.4-15.4-2.5-21.5-6.2l-1.4-0.8l-0.3-0.2c-2.2-1.2-4.3-2.7-6.3-4.3c-4.7-4.1-4.8-9.8-4.1-13.8c0.9-4.9,3.3-9.3,6.9-12.7
	l1.9-1.9c3-2.9,6.3-6.1,9.7-9.2c0.7-0.6,1.5-1.2,2.2-1.7c1.1-0.7,2.2-1.6,3.1-2.6c0.9-1.1,1.9-2.3,2.8-3.4l0.1-0.1
	c3.5-4.1,7-8.4,9.1-13.5c2.5-6.1,3.2-12.8,2-19.3c-1.6-8.3-6.2-15.3-13.8-21.4c-5.1-4-11.1-7.2-18.5-9.6l-0.4-0.1
	c-4.3-1.4-8.3-2.8-12.7-3.1c-2.8-0.2-5.6-0.8-8.4-1.7c-2.8-0.9-5.6-1.1-8.4-1.2c-1.9-0.1-3.8-0.2-5.7-0.5
	c-5.4-0.9-10.9-1.4-16.3-1.3c-4.8,0-9.6,0.2-14.3,0.5l-1.2,0.1l-2.3,0.1c-6.9,0.3-15,1.2-22.3,5.5c-4.8,2.8-8.1,6.5-9.7,11.1
	c-1,2.6-1.3,6.7,0.6,10.2c0.6,1.2,1.2,2.6,1.5,3.9v0.1c0.3,0.8,0.5,1.6,0.8,2.4c0.4,0.9,0.9,1.7,1.6,2.4l1.4,1.8l0.1,0.2
	c2.4,3.1,4.9,6.1,7.4,9.2c4.8,5.8,7.7,10.9,9.4,16.4c1.7,5.5,2,11.3,0.8,16.9c-0.8,3.7-2.2,8.3-5.6,11.9c-0.5,0.6-0.9,1.2-1.3,1.8
	c-0.4,0.8-1,1.5-1.6,2.1c-3.9,3.3-8.2,5.9-13,7.7c-2.4,0.9-5,1.3-7.6,1.3C768.2,871.7,766.1,871.5,764.1,871.2L764.1,871.2z
	 M770.4,879.5c4-0.7,8-1.7,11.9-3.1c6.9-2.3,12.7-6.4,17.6-12.5c2.8-3.5,5.1-7.5,6.6-11.8c1.1-3.1,1.8-6.3,1.9-9.6
	c0.2-4.3,0.3-8.9-0.6-13.2c-0.8-3.9-2.1-8.9-5.2-13.2c-1.3-1.9-2.6-3.9-3.7-6l-0.1-0.1c-0.8-1.4-1.6-2.8-2.4-4.2
	c-0.6-0.9-1.3-1.7-2.1-2.5c-0.6-0.6-1.2-1.3-1.7-2l-0.1-0.1c-2.1-2.9-4.4-5.9-6.3-9c-3.2-5.1-0.9-10.2,2.8-13.1
	c3-2.3,6.4-2.8,10-3.3l1-0.1c8.1-1.2,16.2-1.5,25.8-1.5h5.1c1.7,0,3.4,0,5.1,0h3.1h0.3c4.2,0,8.4,0.7,12.4,1.4l0.2,0
	c1.3,0.2,2.7,0.5,4,0.6c5.7,0.8,11.1,2.8,16.2,4.7l1.1,0.4c3.5,1.3,6.7,3.4,10.2,5.7l0.5,0.3c3.7,2.5,7.6,5.1,10.7,8.3
	c2.9,2.9,5.2,6.3,6.7,10c0.8,2,0.6,4.5,0.5,6.9c-0.1,0.7-0.1,1.5-0.1,2.2c-0.2,6.6-3.8,12.1-6.5,15.6c-2.7,3.6-6,6.8-9.2,10
	l-0.2,0.2c-1.6,1.6-3.3,3.2-4.8,4.9l-0.8,0.9c-3.2,3.3-6.4,6.8-9.4,10.5c-2.1,2.5-3.7,5.3-4.8,8.4c-1.4,4.4-2.5,8.4-2,13.1
	c0.5,4.1,2.1,8,4.8,11.2c2.2,2.6,5.3,4.3,8.4,6.1l0.4,0.2c3.5,1.9,7.3,2.7,11.1,3.5c0.8,0.2,1.7,0.3,2.5,0.5c4.6,1,9.5,1.5,15.8,1.5
	c2.4,0,4.9-0.1,6.8-0.1c5.8-0.2,11.7-1.1,17.4-2.1l0.3-0.1c2-0.4,4-0.9,6-1.6c1.3-0.4,2.4-0.8,3.6-1.1c0.7-0.2,1.3-0.3,2-0.3
	c3.4,0,6,2.6,6.6,6.6c0.4,2.5,1,4.9,1.7,7.3l0.1,0.3c0.3,1.1,0.6,2.2,0.9,3.4c0.1,0.4,0.1,0.8,0.1,1.2c0,0.2,0,0.3,0,0.5
	c0,0.8,0,1.7,0,2.5c0,1.9,0.1,3.8-0.1,5.7l-0.1,1.6c-0.4,5.1-0.8,10.4-1.6,15.6c-0.7,4-1.6,7.9-2.7,11.8l-0.3,1.1l-0.3,1.1
	c-0.7,2.8-1.6,5.7-2.4,8.2l-0.1,0.4c-0.3,0.9-0.5,1.8-0.8,2.7c-0.4,1.5-0.9,3-1.3,4.4l-0.1,0.5c-1.1,3.8-2.2,7.8-3.6,11.6
	c-2.4,7-5.3,13.7-7.5,18.8c-2.2,5.3-4.7,10.5-7.4,15.6c-1.4,2.4-3,4.6-4.8,6.7c-0.6,0.8-1.3,1.6-1.9,2.4c-0.3,0.4-0.6,0.8-1,1.3
	c-1.2,1.7-2.6,3.3-4.1,4.8c-2.6,2.5-5.4,4.9-8.3,7c-4.2,3-9.3,6.4-14.7,9.4c-3.2,1.8-6.8,3.1-10.3,4.2l-0.2,0.1
	c-5.1,1.7-10.3,3.2-14.6,4.4c-1.3,0.3-2.7,0.5-4.1,0.5h-0.3l-0.6,0c-1.6,0.1-3.2,0.2-4.8,0.4c-3.9,0.3-7.9,0.6-11.8,0.6h-0.7
	c-3.8-0.1-7.6-0.5-11.4-1.2l-0.5-0.1l-2-0.3c-1.5-0.3-3-0.6-4.4-1.1c-0.7-0.2-1.3-0.4-2-0.6c-0.4-0.2-0.9-0.4-1.3-0.7
	c-0.2-0.2-0.5-0.3-0.8-0.4c-7.5-1.6-14.7-4.4-21.3-8.3c-5.1-2.9-10.8-6.2-16.1-9.9c-4.1-2.8-7.9-5.9-11.5-9.3
	c-4.5-4.3-10.4-10.1-15.9-16.5c-2.1-2.6-4-5.4-5.7-8.4c-0.8-1.3-1.6-2.6-2.4-3.9c-0.7-1.1-1.4-2.2-2.1-3.3c-1.6-2.4-3.4-5.1-4.9-7.8
	c-1-1.9-2-3.9-2.8-5.9l-0.1-0.2c-0.3-0.8-0.7-1.6-1-2.4c-0.3-0.7-0.6-1.3-0.9-2l-0.2-0.5l0-0.1c-0.9-1.9-1.7-3.8-2.5-5.8
	c-1.2-2.9-2.2-6-3.1-8.6l0-0.1c-1-2.9-2.1-6.3-3.1-9.5c-0.6-2.1-1.1-4.2-1.5-6.2c-0.2-1-0.5-2.1-0.7-3.1c-0.3-1.3-0.6-2.7-1-4l0-0.2
	c-0.7-2.6-1.3-5.4-1.8-8.1c-0.7-3.9-1.4-8.1-2-13.1c-0.1-0.8-0.2-1.6-0.3-2.4v-0.2c-0.6-4.3-1-8.6-1.2-12.9
	c-0.2-6.3,0.1-12.5,0.5-18.4c0.3-4.6,0.8-9.3,1.7-13.8c0.6-3.5,1.6-7,2.9-10.3c0.2-0.8,0.9-1.4,1.8-1.4c0.7,0.1,1.4,0.4,2,0.9
	c0.7,0.6,1.5,1.3,2.2,2l0.3,0.3c3.1,2.8,6.4,5.7,10,8c5,3.1,10.2,6.4,16.3,7.6c0.8,0.2,1.7,0.3,2.4,0.4c1.9,0.2,3.8,0.7,5.6,1.3
	c1.6,0.7,3.3,1.1,5,1.1C768.9,879.6,769.7,879.6,770.4,879.5L770.4,879.5z M740.8,1228.8c-6.5-2.2-11.7-4.6-15.7-9.1
	c-0.9-1-1.9-2-2.8-2.9c-1.9-1.7-3.5-3.6-5-5.7c-1.7-2.7-3.2-5.5-4.4-8.4l-0.1-0.1c-0.4-0.9-0.8-1.8-1.3-2.7
	c-0.2-0.4-0.4-0.8-0.6-1.2c-1.1-2-1.9-4.1-2.6-6.2c-1-3.6-1.7-7.2-2.3-10.9c-0.3-1.5-0.4-3-0.6-4.4c-0.2-2.4-0.6-4.9-1.2-7.2
	c-0.7-2.7-1.1-5.5-1.1-8.3c-0.1-2-0.3-4.1-0.6-6.1c-0.5-3.1-0.8-6.3-0.9-9.5c-0.1-2.9-0.3-5.9-0.8-8.8c-0.8-5-1.3-10-1.5-15
	c-0.2-3.6-0.8-7.1-1.6-10.5c-0.5-2-1.1-3.9-1.8-5.9c-1.1-2.9-1.9-6-2.4-9.1c-0.4-2.5-1.2-4.9-2.2-7.2c-0.6-1.5-1.2-3-1.6-4.5
	c-0.7-2.2-1.7-4.4-2.8-6.5c-0.5-0.9-0.9-1.8-1.4-2.8c-0.7-1.5-1.4-2.9-2-4.4c-1.3-2.7-2.6-5.5-3.8-8.3l-0.4-0.9
	c-1.2-2.5-2.6-5.7-3.9-8.8l-0.7-1.6l-0.1-0.1c-1.9-4.4-3.8-8.9-5.6-13.4c-1.3-3.4-2.4-6.8-3.7-10.8c-1.7-5.3-3.4-11-5-16.6
	c-0.5-1.7-0.8-3.4-1.1-5v-0.1c-0.2-1.2-0.5-2.5-0.8-3.7c-0.4-1.6-0.8-3.2-1.3-4.8l-0.1-0.3c-0.5-1.6-0.9-3.4-1.3-5.1
	c-0.1-0.7-0.2-1.3-0.2-2c0-0.5,0-1-0.1-1.5c-0.2-1.6-0.5-3.2-0.7-4.9c-0.4-2.7-0.9-5.5-1.2-8.3c-0.2-2-0.4-4.1-0.5-6.1v-0.1
	c-0.2-3.9-0.5-7.9-1.4-11.6c-0.6-2.8-0.8-5.7-0.8-8.6v-0.9c-0.2-9.8-0.2-18,0-26.3c0.1-3.9,0.6-7.8,1-11.6c0.2-2,0.4-3.7,0.6-5.5
	c0-0.3,0-0.6,0-0.9c0-0.3,0-0.7,0-1c0.1-1.1,0.2-2.2,0.4-3.3v-0.2c0.4-3.6,0.8-7.3,1.3-11c0.4-2.6,0.9-5.4,1.6-8.9
	c0.5-2.4,1.1-4.8,1.7-7.3l0.1-0.6c0.4-1.5,0.7-3.1,1.1-4.6c0.2-1,0.5-2.1,0.7-3.1l0-0.2c0.3-1.9,0.8-3.9,1.3-5.8
	c0.7-2.4,1.6-4.9,2.5-7.3l0-0.1l0-0.1c0.5-1.4,1.1-3,1.6-4.4c0.4-1.1,0.7-2.3,1.1-3.4c0.4-1.3,0.8-2.7,1.3-4.1
	c0.9-2.5,1.9-5.1,2.9-7.6l0.4-0.9l0.7-1.9c0.4-1,0.8-2,1.2-3l0.2-0.5c0.8-1.9,1.5-3.9,2.3-5.8c0.4-0.9,0.7-1.9,1.1-2.9
	c0.3-1,0.8-2.1,1.2-3.1c0.5-1.2,1-1.8,1.5-1.8c0.5,0,1,0.4,1.7,1.2c1.2,1.4,2.4,3,3.5,4.4l0.2,0.2c0.8,1,1.6,2,2.4,3.1
	s1.7,2.1,2.5,3.2l0.2,0.3c2.4,3.1,5,6.3,7.7,9.2c4.4,4.6,9.1,9,13.6,13.3l0.8,0.7l3.2,3.1c1.8,1.7,2,3.2,0.8,5.4
	c-0.6,1.1-0.7,2.6-0.7,4c0,0.6,0,1.3-0.1,1.9c-0.2,1.2-0.3,2.4-0.5,3.7l-0.1,0.5c-0.4,3.1-0.8,6.3-1.1,9.4c-0.1,1.9-0.1,3.9-0.1,5.8
	v0.1c0,1.6,0.1,3.4,0,5.1c-0.1,1.7-0.3,3.2-0.5,4.8c-0.4,2.8-0.8,5.7-0.4,8.4c0.6,4.8,0.9,9.5,1,14.3v0.1c0.1,3.4,0.2,6.9,0.5,10.4
	c0.3,3.2,0.9,6.4,1.5,9.5l0.1,0.8c0.2,1.1,0.4,2.3,0.6,3.4c0.8,4.3,1.6,8.7,2.7,13c0.8,3.1,2,6.2,3,9l0.1,0.3
	c0.5,1.4,1.1,2.9,1.6,4.4l0.5,1.5c1.7,5,3.4,10.2,6,14.9c1.4,2.5,2.7,5.1,3.9,7.7c1.3,2.7,2.7,5.5,4.2,8.2c1.9,3.3,4.1,6.4,6.4,9.4
	l1.4,1.9c1.9,2.7,4,5.3,6.2,7.8l1.7,1.9l0.1,0.1c4.8,5.3,9.8,10.8,15,15.8c2.2,2.1,4.6,3.9,7.2,5.6c1.1,0.7,2.3,1.6,3.5,2.4
	c0.6,0.5,1.2,1,1.9,1.4l0.3,0.3c1.4,1.1,2.9,2.3,4.5,3.3c1.8,1.2,3.7,2.2,5.4,3.2c0.7,0.4,1.4,0.8,2.1,1.1c0.7,0.4,1.3,0.8,2,1.1
	l0.1,0.1c1.7,1,3.5,2,5.3,2.8c3.6,1.6,7.4,3.1,11,4.5h0.1l0.2,0.1l0.4,0.1c2.4,1,5.3,2,8,2.8c3.1,0.9,6.3,1.5,9.3,2
	c1.4,0.2,2.8,0.4,4.2,0.5c2.4,0.2,4.8,0.6,7.1,1.2c2.9,0.8,6,1.2,9,1.1c1.7,0,3.4-0.1,5-0.1h0.2c1.6-0.1,3.2-0.1,4.8-0.1h1.4
	c0.3,0,0.5,0,0.8,0c3.6-0.1,7.1-0.6,10.6-1.6c6.9-1.9,13.6-4.4,20-7.5c10.6-5.1,18.8-13.3,25.7-20.7c4.8-5.1,8.7-11,11.2-15.1
	c2.9-4.6,5.4-9.5,7.8-14.3l1.1-2.3c2.3-4.3,4.3-8.8,6.2-13.3c1.8-4.8,3.4-9.8,4.9-14.5v-0.1l0.6-2c1.7-5.4,3.4-10.9,4.9-16.6
	c0.6-2.2,1-4.5,1.4-6.7v-0.1c0.6-2.8,1.1-5.8,2-8.6c1.3-4.3,1.4-8.8,1.5-13.1v-0.7c0-0.5,0-0.9,0-1.4c0.1-1.1,0.2-2.3,0.5-3.4
	c0.3-1.3,0.5-2.7,0.5-4.1c-0.2-3.6-0.7-7.1-1.2-10.6c-0.1-0.9-0.3-1.8-0.4-2.7c-0.5-3.5-1-7-1.7-10.6c-0.1-0.5-0.3-1-0.5-1.5
	c-0.2-0.5-0.4-1.1-0.5-1.6c-0.4-3.2,1.5-5.5,3.4-7.7l0.3-0.4c1.8-2.1,3.7-4.2,5.6-6.2l0.3-0.3c2.6-2.9,5.3-5.9,7.9-9
	c3.3-3.9,6.1-7.9,9.5-12.8c0.4-0.6,0.9-1.2,1.3-1.9l0.3-0.4c2.9-4.1,5.9-8.3,8.4-12.8c3-5.2,5.7-10.5,8.3-15.7l0.4-0.7
	c1.1-2.2,2.2-4.4,3.4-6.5c0.2-0.3,0.4-0.6,0.6-0.9c0.2-0.3,0.4-0.6,0.6-0.8c0.3-0.6,0.6-1.2,0.9-1.8l0-0.1c0.1-0.2,0.2-0.4,0.3-0.6
	l0-0.1l0,0l0,0c0.1,0.3,0.2,0.6,0.4,0.9c0.3,0.7,0.5,1.3,0.8,2s0.4,1.3,0.6,1.9l0.1,0.2c0.7,2.2,1.5,4.6,2.1,6.9
	c1.4,5.1,2.7,10.1,3.8,14.3c0.9,3.8,2.2,8.7,3.3,13.7c0.6,2.9,1.1,5.9,1.6,8.8v0.2c0.2,1.1,0.3,2.3,0.5,3.4v0.2
	c0.2,2.3,0.6,4.7,1.2,6.9c0.7,2.7,1.1,5.4,1.2,8.1c0.1,1.9,0.3,3.8,0.6,5.7c0.3,2.3,0.5,4.6,0.4,6.9c-0.1,2,0,4.1,0.3,6.1
	c1,6.2,0.9,12.5,0.7,18.6v0.2c-0.1,3.8-0.2,7.6,0,11.5c0.1,3.4,0,6.8-0.4,10.2l-0.1,1.1c-0.4,4.8-0.9,9.9-1.6,15.5
	c-0.5,4.2-1,7.3-1.7,10.3c-0.4,1.9-1,3.8-1.5,5.7l-0.1,0.2c-0.4,1.4-0.8,2.8-1.1,4.1c-0.2,0.8-0.3,1.7-0.4,2.6
	c-0.1,0.6-0.1,1.2-0.2,1.8c-0.1,0.7-0.2,1.5-0.4,2.2c-0.3,2.3-0.8,4.5-1.3,6.7c-1.4,5.1-3.1,10.3-4.6,14.8
	c-2.4,7.6-4.6,13.9-6.9,20.5c-1.3,3.7-2.8,7.6-4,10.7l-0.2,0.5c-0.7,1.9-1.4,3.8-2.1,5.6l-0.2,0.6c-1.4,3.8-3,8-4.4,12.3l-0.4,1.2
	l-0.1,0.3c-2.2,6.4-4.5,12.9-6.6,19.5c-0.8,2.4-1.5,5-2.1,7.3c-0.4,1.4-0.8,2.9-1.2,4.5c-0.3,1.1-0.6,2.2-1,3.2l-0.1,0.3
	c-0.6,1.8-1.2,3.7-1.6,5.5c-0.2,0.9-0.2,1.7-0.2,2.6c0,0.7,0,1.3-0.1,2c-0.2,1.3-0.4,2.6-0.6,3.9c-0.3,1.9-0.6,3.9-0.8,5.9
	c-0.1,1.7-0.1,3.5-0.1,5.3c0,3,0,6.1-0.7,9c-0.9,3.8-0.9,7.6-0.8,11.3c0,2.1,0.1,4.3-0.1,6.4c-0.1,1.7-0.1,3.6-0.2,5.2
	c0,2.8-0.1,5.6-0.5,8.3c-0.6,3.7-0.9,7.5-1.1,11.3c-0.2,2.9-0.3,5.9-0.7,8.8c-0.6,4.7-1.1,9-1.5,13.3c-0.1,0.6-0.1,1.2-0.2,1.8
	c-0.3,3.5-0.6,7.1-1.6,10.4c-0.6,2.1-0.9,4.3-1.1,6.4c-0.1,1.3-0.3,2.6-0.5,3.9c-0.4,2.1-0.9,4.1-1.4,6.1c-0.4,1.6-0.9,3.2-1.2,4.8
	c-0.2,0.9-0.3,1.9-0.3,2.8c0,1.1-0.1,2.2-0.4,3.2c-0.2,0.7-0.4,1.3-0.5,2c-1.8,6.6-3.6,13.4-9.2,18.1c-3.9,3.2-7.8,4.7-12,4.7
	c-1.1,0-2.2-0.1-3.3-0.3c-8.2-1.5-14.8-5.1-19.6-10.8c-2.1-2.4-3.5-5.5-4.9-8.5l0-0.1c-0.4-0.9-0.9-1.9-1.3-2.8
	c-1-2.1-1.9-4.3-2.6-6.6c-0.2-0.8-0.3-1.5-0.3-2.3c0-0.4-0.1-0.9-0.1-1.3c-0.1-1-0.3-2-0.5-3l0-0.3c-0.4-2.2-0.7-4.4-0.8-6.5
	c-0.1-2.7-0.1-5.5-0.1-8.2c0-4.6,0-9.4-0.7-14c-0.3-2.4-0.5-5-0.7-7.4c-0.2-2.7-0.4-5.6-0.8-8.4c-0.7-4.5-1.8-9-2.9-13.6l-0.3-1.1
	l-0.2-0.9c-0.8-3.8-1.9-7.4-3.2-11.1c-1.8-4.8-4.1-9.5-6.3-14.1l-0.9-1.8c-3.6-7.5-9-14.5-16.9-21.8c-5-4.1-10.1-8-16.4-10.3
	c-3-1.1-6.2-1.6-9.4-1.6c-2.7,0-5.4,0.3-8.1,0.9c-2.7,0.5-5.2,2-7.7,3.4c-1.2,0.7-2.5,1.4-3.8,2c-5.2,2.4-8.8,6.8-12,11.1
	c-2.4,3.4-4.6,7-6.6,10.7c-0.7,1.2-1.4,2.5-2.1,3.7c-1.5,2.6-2.7,5.2-3.7,7.3c-0.9,2-1.9,4.2-2.8,6.3l-0.1,0.3c-1,2.3-2,4.6-3.1,6.8
	c-0.9,1.8-1.8,3.7-2.6,5.5l-0.2,0.4c-1.2,2.4-2.5,5.1-3.7,7.8c-0.9,2.1-1.8,4.2-2.7,6.4l-0.1,0.2c-0.8,1.8-1.5,3.8-2.4,5.6
	c-0.7,1.5-1.4,3-2.2,4.5l-0.1,0.2c-0.7,1.3-1.4,2.7-2,4.1c-0.8,1.7-1.5,3.5-2.2,5.3c-0.7,1.8-1.4,3.5-2.2,5.2
	c-1,2.3-2.2,4.6-3.4,6.8l-0.4,0.7c-0.7,1.3-1.3,2.5-1.9,3.8c-1.6,3.4-3.4,6.7-5.4,9.8c-1.5,2.2-3.9,4.4-7.1,6.4
	c-3.1,1.9-6.7,4-10.6,4.8c-1.7,0.4-3.3,0.6-5,0.6c-1.8,0-3.6-0.4-5.3-1.2c-0.4-0.2-0.7-0.2-1.1-0.2c-0.2,0-0.4,0-0.7,0s-0.4,0-0.7,0
	c-0.3,0-0.7,0-1-0.1L740.8,1228.8z M1018.4,1077.1l-0.7-0.1c-3.5-0.7-7.1-1.5-10.4-2.8c-2.5-1.1-4.7-2.8-6.4-4.8
	c-0.8-0.9-0.2-3.4,0.1-4.4c1.2-4,2.5-7.9,3.8-11.8l0-0.1l0.3-0.8l0.8-2.5l0.6-1.7l0.3-0.8c1.9-5.8,3.8-11.7,5.8-17.5
	c1.6-4.9,3.3-9.8,4.9-14.4c0.5-1.4,1-2.8,1.6-4.3c1.2-3,2.2-6,3-9.1c0.9-4.2,3-8,6-11c1-1,1.5-2.8,1.8-4.4l0-0.2l0.1-0.5
	c0.3-1.4,0.6-2.8,0.8-4.2l0,0v-0.1c0.3-2.1,0.8-4.2,1.4-6.3c0.2-0.6,0.4-1.3,0.6-1.9c1.1-3.6,2.3-7.4,5.1-10.2c0.5-0.5,1-1,1.5-1.6
	c2.1-2.2,4.3-4.5,7.5-5.2c1.4-0.3,2.9-0.5,4.3-0.5c0.9,0,1.7,0.1,2.6,0.4c3.1,1.3,5.9,3.2,8.3,5.6c2,2.3,3.6,5,4.5,7.9
	c0.7,2.2,1.3,4.5,1.7,6.8c0.3,1.6,0.7,3.5,1.2,5.2c0.2,0.7,1.7,1.6,2.3,1.6c0.1,0,0.1,0,0.2,0c2.6-1.1,5-2.5,7.3-4.2
	c1.5-1.1,2.9-2.3,4.3-3.5c1.7-1.5,3.5-3,5.4-4.3c1.3-0.9,2.8-1.3,4.3-1.3c1.8,0.1,3.6,0.4,5.2,1.1c5.2,1.9,8.8,5.7,12.3,9.8
	c2.3,2.6,4.8,6.2,4.5,10.7c-0.1,0.9-0.4,1.8-0.8,2.6c-0.2,0.4-0.3,0.8-0.5,1.2c-2,1.8-3.7,3.4-5.4,4.9c-0.2,0.1-0.4,0.3-0.5,0.4
	c-0.4,0.3-0.8,0.5-0.8,0.8c-0.6,3.5,0.3,6.8,3,10.8c0.6,1,1.3,1.9,2,2.8c1.2,1.5,2.2,3,3.1,4.7l0.5,0.9c1.7,3.2,3.5,6.5,4.3,10
	c1,4.7,1.8,10.3-0.8,15.8c-1.9,4.2-5.4,7.5-9.7,9.2c-1.3,0.5-2.7,0.8-4.1,0.8c-2,0-4-0.5-5.9-1.4c-0.6-0.3-1.1-0.5-1.6-0.8l-0.1-0.1
	c-1.9-0.9-3.8-1.9-6.1-1.9c-0.2,0-0.4,0-0.6,0c-2.1,0.1-3.6,0.8-4.5,1.9s-1.2,2.9-0.8,5.2c0.4,2.3-0.1,4.8-0.6,7.2l-0.1,0.3
	c-0.1,0.3-0.1,0.5-0.2,0.8c-0.4,2-1,3.9-2,5.8c-3.3,6.8-7.9,11.4-14.1,14.1c-1.3,0.6-2.7,1-4.1,1.1c-2.6,0-4.1-1.9-6.4-5.9
	c-1.8-3.1-3.3-6.3-4.6-9.6c-0.7-1.9-0.8-4-0.9-6.1v-0.1c-0.1-3.7-0.5-4.5-4.1-4.6h-0.3c-1.7,0-3.4,0.6-4.7,1.7
	c-1.2,1.2-2.3,2.6-3.3,3.9c-1.1,1.6-2.4,3.1-3.9,4.5c-3.7,3.4-8.6,5.2-13.6,5.2C1021.7,1077.6,1020,1077.5,1018.4,1077.1
	L1018.4,1077.1z"/>
<path class="st0" d="M843.9,560.3c-1.2,0.3-2.5,0.4-3.8,0.4c-0.7,0-1.3,0-2,0H838h-0.2c-0.6,0-1.3,0-1.9,0c-1.2,0-2.5,0.1-3.7,0.4
	c-1.4,0.3-2.9,0.6-4.3,0.8c-1.4,0.2-2.8,0.4-4.1,0.7c-4.7,1.1-9,3.1-13.2,5.1l-0.7,0.3l-1.1,0.5c-3.4,1.6-6.2,3.9-8.9,6.2
	c-1.9,1.7-3.9,3.2-6,4.6c-0.1,0.3-0.2,0.5-0.2,0.8c0,0.3-0.1,0.6-0.3,0.8c-2.7,2.8-5,5.8-7.1,9.1c-4.6,7.1-7.1,14.3-7.6,21.4
	c-0.7,9.4-1.4,20,3.1,29.6c0.3,0.7,0.7,1.4,1,2.1l0.3,0.5c2.2,4.7,4.5,9.6,7.5,14c4.9,7.2,12.1,12.1,19.1,16.5c2,1.3,4,2.6,5.8,3.8
	l0.1,0c4.1,2.7,8.4,5.5,12.8,8c5.1,2.8,9.4,4.4,13.8,5.1c1.1,0.2,2.2,0.4,3.3,0.7h0.1c1.8,0.5,3.6,0.8,5.5,0.8c1.4,0,2.9,0,4.2,0.1
	h0.1c1.3,0,2.7,0.1,4.1,0.1c3.6,0,7.8-0.2,12-1.6c1.9-0.6,3.9-1,6-1.2c1.1-0.2,2.2-0.3,3.2-0.5c0.9-0.2,1.8-0.5,2.6-0.9
	c1.4-0.7,2.7-1.4,3.9-2c2.4-1.3,4.9-2.5,7.4-3.6c5.7-2.3,10.3-6.1,14.9-9.8c0.9-0.8,1.9-1.5,2.8-2.3c2-1.6,3.7-3.7,5.3-5.8
	c0.6-0.7,1.2-1.5,1.8-2.2c2.4-3,4.4-5.4,6-7.7c4.4-6,7.6-12.7,9.5-19.9c0.3-1.2,0.7-2.5,1.1-3.7v-0.1c0.9-2.8,1.8-5.7,1.8-8.6
	c0-1,0.1-1.9,0.1-2.9c0.2-4.4,0.4-9-0.8-13.6c-0.3-1.1-0.5-2.1-0.8-3.2v-0.1c-0.7-3.4-1.8-6.7-3.1-10c-1.9-4.3-4.7-8-7.5-11.6
	l-0.1-0.1c-2.7-3.5-6.5-6.4-11.7-8.8c-4.2-1.9-8.4-3.5-12.7-5c-2-0.7-4-1.2-6-1.6l-0.2,0c-1-0.2-2-0.5-2.9-0.7s-2.1-0.6-3.1-0.9
	l-0.2,0h-0.1c-2.1-0.6-4.2-1.2-6.3-1.6c-3.5-0.6-7-1.1-10.5-1.4l-2-0.2l-3.2-0.4h-0.1c-3.9-0.5-7.9-1-11.9-1.2
	c-1.1-0.1-2-0.1-2.9-0.1C849.1,559.3,846.4,559.6,843.9,560.3L843.9,560.3z M855.1,685.5H855h-0.3c-0.9,0-1.8-0.1-2.8-0.1
	c-5.3-0.1-10.6-1.6-15.2-4.2c-2.2-1.3-4.5-2.5-6.7-3.8c-4-2.2-8.1-4.5-12.1-7c-2.8-1.9-5.4-3.9-7.9-6.1c-0.9-0.8-1.9-1.6-2.8-2.4
	c-2.4-1.9-4.7-4-7-6l-0.2-0.1l-0.1-0.1c-4.5-3.9-7.7-9-10.7-14.2c-2.8-4.9-4.2-9.4-4.3-13.8c-0.1-1.2-0.2-2.4-0.5-3.6
	c-0.4-1.5-0.5-3-0.4-4.5c0.8-7.9,2.6-14.2,5.6-19.9c4.2-7.9,10.3-14,16.6-20.2c3.2-3.1,6.6-5.9,10.2-8.5c1.2-0.7,2.6-1.3,3.9-1.6
	c0.9-0.2,1.8-0.5,2.7-0.9c2.5-1.1,5.2-1.2,7.8-1.3c1.7,0,3.3-0.2,4.9-0.5c4.4-0.8,8.8-1.2,13.3-1.1c2.6,0,5.2,0.1,7.7,0.2h0.3
	c2.5,0.1,5.1,0.2,7.6,0.2h1c3.4,0,6.9,0.8,10.3,1.6c1.4,0.3,2.9,0.7,4.3,1l0.5,0.1h0.1c3.2,0.6,6.5,1.3,9.7,2.1
	c5.1,1.4,10,3.3,14.7,5.7c4.8,2.4,10.4,5.6,14.5,10.5c2.2,2.6,3.9,5.7,5.6,8.6c0.4,0.7,0.7,1.3,1.1,2c4.6,8.1,4.2,17.1,3.8,25.8v0.3
	c-0.2,4.8-2,9.4-3.7,13.9l-0.2,0.6l-0.5,1.2c-1.9,5.1-4.7,9.9-8.7,15.3c-3.4,4.5-7.2,8.7-11.2,12.6c-2,1.8-4.1,3.3-6.3,4.7
	c-0.9,0.6-2,1.3-3,2c-1.5,0.7-2.8,1.5-4.2,2.3c-1.5,1-3.1,1.8-4.8,2.5c-3.5,1.4-7.2,2.6-10.9,3.4c-1.3,0.4-2.7,0.6-4.1,0.8
	c-2,0.3-4,0.7-5.9,1.4c-2.4,0.9-4.9,1.3-7.4,1.2C857.9,685.6,856.5,685.6,855.1,685.5L855.1,685.5z"/>
<path class="st0" d="M867.5,603.2h-1.7c-3.3,0-6.8,0-10.1,0.7c-1.8,0.4-4.3,2.4-4.7,4.1c-1,4.1,0,8.6,2.8,12.7c0.6,1,1.2,2,1.7,3.1
	c0.7,1.6,1.6,3,2.7,4.3c1.9,2,4.3,3.5,6.8,4.5c0.3,0.1,0.5,0.2,0.8,0.2c2.3,0,5.8-3.1,7-5.1c0.8-1.3,1.6-2.6,2.5-3.9
	c0.7-1.1,1.6-2.3,2.4-3.7c0.4-1,0.8-2,1.3-2.9c0.8-1.5,1.4-3.1,1.9-4.8c0.4-1.6-0.3-4-1.8-6.1c-1.1-1.5-2.3-2.4-3.3-2.6
	c-2.6-0.3-5.3-0.5-7.9-0.5L867.5,603.2z M862.2,623.2c-0.5-0.9-1-1.9-1.5-2.8l0-0.1c-0.9-1.5-1.7-3-2.4-4.5
	c-0.6-1.5-0.8-3.1-0.8-4.8c0-0.4,1.3-1,2-1.1c1.9-0.3,3.8-0.6,5.6-0.8l0.5-0.1l1.7-0.2c2,0.3,4.2,0.8,6,1.8c0.6,0.3,1,2.2,0.6,3.1
	c-1.5,3.7-3.4,7.5-6.8,10.3c-0.6,0.6-1.5,1-2.4,1.1C863.7,625.2,862.9,624.6,862.2,623.2L862.2,623.2z"/>
<path class="st1" d="M729.8,661.1c-1.1,0-2.1,0.5-2.7,1.4c-3.6,4.3-7.5,9.2-12.3,15.2c-2,2.4-3.8,5-5.5,7.6
	c-2.7,4.5-5.2,9.2-7.3,13.1c-2.4,4.7-4.3,8.3-5.9,11.8c-0.8,1.8-1.5,3.7-2.2,5.5c-0.4,1.1-0.8,2.3-1.3,3.5c-0.5,1.2-1,2.3-1.5,3.6
	c-1,2.2-1.9,4.4-2.6,6.7c-1,3.4-1.8,6.9-2.6,10.3c-0.3,1.1-0.5,2.3-0.8,3.4c-0.1,0.6-0.2,1.2-0.3,1.8c-0.1,0.6-0.2,1.2-0.3,1.8
	c-0.3,1.3-0.6,2.5-1,4c-0.6,2.2-1.2,4.4-1.6,6.7c-0.4,2.4-0.6,4.8-0.6,7.2c-0.1,3.9,0,7.9,0,11.8c0,1.4,0,2.8,0,4.1
	c0,5.9,1.5,11.4,3.1,16.5c1.9,6,4.9,11.3,8,16.7c3.5,6,8.1,11.2,12.6,16.2c1.1,1.2,2.2,2.5,3.3,3.8c0.9,1,2,1.9,3.1,2.6
	c0.7,0.5,1.3,1,2,1.5c1.8,1.6,3.7,3.1,5.5,4.7c2,1.7,4,3.5,6.1,5.2c1.8,1.5,3.7,3,5.5,4.5l3.3,2.7c0.4,0.3,0.8,0.7,1.2,1.1l0.1,0.1
	c0.7,0.7,1.5,1.4,2.4,1.9l1.2,0.7l1.2,0.7c4.4,2.7,8.9,5.4,13.5,7.8c2.9,1.5,6.7,3.3,10.7,3.8c2.1,0.3,4.2,0.5,6.3,0.5
	c2.6,0,5.2-0.4,7.6-1.3c4.7-1.8,9.1-4.4,13-7.7c0.6-0.6,1.2-1.3,1.6-2.1c0.4-0.7,0.8-1.3,1.3-1.8c3.4-3.6,4.8-8.3,5.6-11.9
	c1.2-5.6,0.9-11.5-0.8-16.9c-1.7-5.6-4.6-10.6-9.4-16.4c-2.5-3-5-6.1-7.4-9.2l-0.1-0.2l-1.4-1.8c-0.6-0.7-1.1-1.5-1.6-2.4
	c-0.3-0.8-0.6-1.6-0.8-2.4v-0.1c-0.4-1.3-0.9-2.7-1.5-3.9c-1.9-3.5-1.6-7.6-0.6-10.2c1.7-4.6,5-8.3,9.7-11
	c7.3-4.2,15.4-5.1,22.3-5.5l2.3-0.1l1.2-0.1c4.7-0.2,9.5-0.5,14.3-0.5c5.5-0.1,10.9,0.4,16.3,1.3c1.9,0.3,3.8,0.5,5.7,0.5
	c2.8,0.1,5.7,0.3,8.4,1.2c2.7,0.9,5.5,1.4,8.4,1.7c4.4,0.4,8.5,1.7,12.7,3.1l0.4,0.1c7.4,2.4,13.4,5.6,18.5,9.6
	c7.6,6,12.1,13,13.8,21.4c1.2,6.5,0.6,13.2-2,19.3c-2,5.1-5.6,9.3-9.1,13.5l-0.1,0.1c-0.9,1.1-1.9,2.2-2.8,3.4
	c-0.9,1-1.9,1.9-3.1,2.6c-0.8,0.5-1.5,1.1-2.3,1.7c-3.3,3.1-6.7,6.3-9.7,9.2l-1.9,1.9c-3.6,3.4-6.1,7.9-6.9,12.7
	c-0.7,4-0.5,9.7,4.1,13.8c1.9,1.6,4,3,6.3,4.3l0.3,0.2l1.4,0.8c6.1,3.8,13.2,5.8,21.5,6.2c1.2,0.1,2.4,0.1,3.7,0.1
	c5.3,0,10.5-0.6,15.6-1.8c2.4-0.5,4.8-1.3,7-2.2l1.9-0.8c3.9-1.6,7.7-3.4,11.3-5.4c5.1-3,9.9-6.3,14.5-10.1
	c7.3-6.2,13-13.8,17.2-19.8l0.8-1c0.6-0.7,1.2-1.5,1.7-2.3c1.8-2.9,3.7-6.1,5.9-9.9l0.5-0.9c1.7-3,3.5-6,5.1-9.1
	c0.9-1.8,1.8-3.7,2.6-5.6V826l0.2-0.4c0.2-0.4,0.3-0.7,0.5-1.1c0.6-1.4,1.2-2.8,1.8-4.2c1-2.2,2-4.7,3.2-7.2
	c0.5-1.1,1.1-2.2,1.8-3.3c1-1.6,1.8-3.3,2.5-5.1c2-5.3,3.6-10.8,5-16.3c1-4.8,1.5-9.7,1.7-14.7c0-1.9-0.2-3.7-0.5-5.6v-0.1
	c-0.2-1.3-0.4-2.7-0.5-4c-0.3-6-1.8-11.4-3.2-15.9l-0.6-2.1c-1.7-5.5-3.5-11.2-6.4-16.4c-1.4-2.4-2.7-4.9-3.8-7.1
	c-1.6-3.1-3.2-6.2-5-9.2c-2.1-3.2-4.3-6.3-6.7-9.3l-0.2-0.3c-0.8-1-1.6-2-2.3-3.1c-0.4-0.5-0.9-1-1.3-1.5l-0.1-0.1
	c-0.7-0.7-1.3-1.5-1.8-2.3c-2.2-3.9-5.3-7.3-9.9-10.9c-1.5-1.2-2.7-1.7-3.9-1.7c-1.4,0-2.8,0.8-4.3,2.4c-1.2,1.4-2.4,2.8-3.5,4.2
	c-1.4,1.7-2.8,3.5-4.3,5.1c-6.7,7-14,14.2-22.8,19.7c-3.5,2.2-7.5,4.6-11.9,6.3l-1.3,0.5l-0.2,0.1c-2.2,0.9-4.6,1.7-6.9,2.3
	c-4,0.8-8,1.3-12,1.7h-0.1c-5.9,0.6-12,1.2-18,1.6c-4.8,0.4-8.4,0.5-11.8,0.5h-1.4c-7.6,0-15.8-0.1-24-1.4l-1.1-0.2
	c-5.2-0.8-10.5-1.6-15.6-3.4c-5.4-1.8-10.2-3.5-14.9-5.8c-5.2-2.6-10.4-5.6-15.3-8.4l-0.7-0.4c-1-0.6-2.1-1.2-3.1-1.8
	c-5-2.9-10.3-5.9-15.4-9.1c-4.8-3.1-10-6.3-14.8-9.9c-4.7-3.5-9.2-7.2-13.4-11.2c-3.3-3.1-6.4-6.4-9.5-9.7l-0.2-0.2
	c-1.5-1.6-3.1-3.2-4.6-4.8C731.9,661.6,730.9,661.1,729.8,661.1L729.8,661.1z"/>
<path class="st1" d="M678.4,811.1c-0.5,0-1,0.6-1.5,1.8c-0.4,1-0.8,2.1-1.2,3.1c-0.4,1-0.7,1.9-1.1,2.9c-0.7,1.9-1.5,3.9-2.3,5.8
	l-0.2,0.5l-1.2,3l-0.7,1.9l-0.4,0.9c-1,2.5-2,5-2.9,7.6c-0.5,1.4-0.9,2.9-1.3,4.1c-0.3,1.1-0.7,2.2-1.1,3.4c-0.5,1.5-1.1,3-1.6,4.4
	l0,0.1l0,0.1c-0.9,2.4-1.8,4.9-2.5,7.3c-0.5,1.9-1,3.8-1.3,5.7l0,0.2c-0.2,1-0.4,2.1-0.7,3.1c-0.4,1.5-0.7,3.1-1.1,4.6l-0.1,0.6
	c-0.6,2.5-1.2,4.9-1.7,7.3c-0.8,3.5-1.3,6.3-1.6,8.9c-0.5,3.7-0.9,7.3-1.3,11v0.2c-0.1,1.1-0.2,2.2-0.4,3.3c0,0.3,0,0.7,0,1
	c0,0.3,0,0.6,0,0.9c-0.2,1.8-0.4,3.6-0.6,5.5c-0.4,3.8-0.9,7.8-1,11.6c-0.3,8.3-0.2,16.6,0,26.3v0.9c-0.1,2.9,0.2,5.8,0.8,8.6
	c0.9,3.8,1.2,7.8,1.4,11.6v0.1c0.1,2,0.3,4.1,0.5,6.1c0.3,2.8,0.8,5.6,1.2,8.3c0.3,1.6,0.5,3.2,0.7,4.9c0.1,0.5,0.1,1,0.1,1.5
	c0,0.7,0.1,1.3,0.2,2c0.4,1.7,0.9,3.4,1.3,5.1l0.1,0.3c0.4,1.6,0.9,3.2,1.3,4.8c0.3,1.2,0.6,2.5,0.8,3.7v0.1c0.3,1.5,0.6,3.3,1.1,5
	c1.6,5.6,3.3,11.3,5,16.6c1.3,4,2.4,7.4,3.7,10.8c1.8,4.5,3.7,9,5.6,13.4l0.1,0.1l0.7,1.6c1.3,3.1,2.8,6.2,4,8.8l0.4,0.9
	c1.3,2.8,2.5,5.5,3.8,8.3c0.7,1.5,1.4,2.9,2,4.4c0.4,0.9,0.9,1.9,1.4,2.8c1.1,2.1,2.1,4.2,2.8,6.5c0.5,1.5,1,3,1.6,4.5
	c1.1,2.3,1.8,4.7,2.2,7.2c0.5,3.1,1.3,6.1,2.4,9.1c0.6,1.9,1.3,3.9,1.8,5.9c0.9,3.5,1.4,7,1.6,10.5c0.2,5,0.8,10,1.5,15
	c0.4,2.9,0.7,5.8,0.8,8.8c0.1,3.2,0.4,6.3,0.9,9.5c0.3,2,0.5,4,0.6,6.1c0,2.8,0.4,5.6,1.1,8.3c0.6,2.4,1,4.8,1.2,7.2
	c0.1,1.4,0.3,2.9,0.6,4.4c0.6,3.7,1.3,7.3,2.3,10.8c0.7,2.2,1.6,4.2,2.6,6.2l0.6,1.2c0.4,0.9,0.9,1.8,1.3,2.7l0.1,0.2
	c1.2,2.9,2.7,5.7,4.4,8.4c1.5,2.1,3.2,4,5,5.7c0.9,0.9,1.9,1.9,2.8,2.9c4,4.5,9.2,6.9,15.7,9.1c0.3,0.1,0.6,0.1,1,0.1
	c0.2,0,0.4,0,0.7,0c0.2,0,0.4,0,0.6,0c0.4,0,0.8,0.1,1.1,0.2c1.6,0.8,3.4,1.3,5.3,1.2c1.7,0,3.4-0.2,5-0.6c3.8-0.7,7.5-2.9,10.6-4.8
	c3.2-2,5.7-4.1,7.1-6.4c2-3.2,3.8-6.4,5.4-9.8c0.6-1.3,1.3-2.6,1.9-3.8l0.4-0.7c1.1-2.2,2.3-4.5,3.4-6.8c0.8-1.7,1.5-3.5,2.2-5.2
	c0.7-1.7,1.5-3.6,2.2-5.3c0.6-1.4,1.3-2.7,2-4.1l0.1-0.2c0.7-1.4,1.5-2.9,2.2-4.5c0.8-1.8,1.6-3.8,2.4-5.6l0.1-0.2
	c0.9-2.1,1.7-4.3,2.7-6.4c1.2-2.7,2.5-5.4,3.7-7.8l0.2-0.4c0.9-1.8,1.8-3.7,2.6-5.5c1-2.2,2-4.5,3.1-6.8l0.1-0.3
	c0.9-2.1,1.9-4.2,2.8-6.3s2.2-4.7,3.7-7.3c0.7-1.2,1.4-2.5,2.1-3.7c1.9-3.7,4.1-7.3,6.6-10.8c3.2-4.3,6.8-8.6,12-11.1
	c1.3-0.6,2.5-1.3,3.8-2c2.4-1.4,5-2.8,7.7-3.4c2.7-0.6,5.4-0.9,8.1-0.9c3.2,0,6.4,0.5,9.4,1.6c6.3,2.3,11.4,6.2,16.4,10.3
	c7.9,7.3,13.3,14.3,16.9,21.8l0.9,1.8c2.2,4.6,4.5,9.3,6.3,14.1c1.3,3.6,2.4,7.3,3.2,11.1l0.2,0.9l0.3,1.1c1.1,4.6,2.2,9.1,2.9,13.6
	c0.5,2.8,0.6,5.6,0.8,8.4c0.2,2.4,0.3,5,0.7,7.4c0.7,4.6,0.7,9.4,0.7,14c0,2.7,0,5.5,0.1,8.2c0.2,2.2,0.4,4.4,0.8,6.5l0,0.3
	c0.2,1,0.3,2,0.5,3c0.1,0.4,0.1,0.9,0.1,1.3c0,0.8,0.1,1.6,0.3,2.3c0.7,2.3,1.5,4.5,2.6,6.6c0.5,0.9,0.9,1.9,1.3,2.8l0,0.1
	c1.4,3,2.8,6,4.9,8.5c4.9,5.7,11.5,9.4,19.6,10.8c1.1,0.2,2.2,0.3,3.3,0.3c4.2,0,8.1-1.6,12-4.7c5.7-4.7,7.5-11.5,9.2-18.1l0.5-2
	c0.2-1.1,0.4-2.1,0.4-3.2c0-1,0.1-1.9,0.3-2.8c0.3-1.6,0.8-3.2,1.2-4.8c0.5-2,1.1-4.1,1.4-6.1c0.2-1.3,0.4-2.6,0.5-3.9
	c0.1-2.2,0.5-4.3,1.1-6.4c1-3.3,1.3-6.9,1.6-10.4c0-0.6,0.1-1.2,0.2-1.8c0.4-4.3,0.9-8.7,1.5-13.3c0.4-2.9,0.5-5.9,0.7-8.8
	c0.1-3.8,0.5-7.6,1.1-11.3c0.4-2.8,0.6-5.5,0.5-8.3c0-1.6,0-3.4,0.2-5.2c0.2-2.1,0.1-4.3,0.1-6.4c-0.1-3.7-0.1-7.5,0.8-11.3
	c0.7-2.9,0.7-6,0.7-9c0-1.7,0-3.5,0.1-5.3c0.1-2,0.5-4,0.8-5.9c0.2-1.3,0.4-2.6,0.6-3.9c0.1-0.6,0.1-1.3,0.1-2c0-0.9,0-1.8,0.2-2.6
	c0.5-1.8,1-3.7,1.6-5.5l0.1-0.3c0.3-1.1,0.7-2.1,1-3.2c0.4-1.5,0.9-3.1,1.2-4.5c0.6-2.3,1.3-4.9,2.1-7.3c2.1-6.5,4.4-13.1,6.6-19.5
	l0.1-0.3l0.4-1.2c1.5-4.2,3.1-8.5,4.4-12.3l0.2-0.6c0.7-1.9,1.4-3.8,2.1-5.6l0.2-0.5c1.2-3.1,2.7-7,4-10.7
	c2.3-6.5,4.4-12.9,6.9-20.5c1.5-4.5,3.2-9.7,4.6-14.8c0.6-2.2,1-4.5,1.3-6.7c0.1-0.8,0.2-1.5,0.4-2.2c0.1-0.6,0.2-1.2,0.2-1.9
	c0.1-0.9,0.2-1.7,0.4-2.6c0.3-1.4,0.7-2.8,1.1-4.1l0.1-0.2c0.5-1.9,1.1-3.8,1.5-5.7c0.6-2.9,1.1-6.1,1.7-10.3
	c0.7-5.6,1.2-10.7,1.6-15.5l0.1-1.1c0.4-3.4,0.5-6.8,0.4-10.2c-0.2-3.8-0.1-7.7,0-11.5v-0.2c0.1-6.1,0.3-12.4-0.7-18.7
	c-0.3-2-0.4-4.1-0.3-6.1c0.1-2.3,0-4.6-0.4-6.9c-0.3-1.9-0.5-3.8-0.6-5.7c-0.1-2.7-0.5-5.5-1.1-8.1c-0.6-2.3-1-4.6-1.2-6.9v-0.2
	c-0.1-1.1-0.3-2.3-0.5-3.4v-0.2c-0.5-2.9-1-5.9-1.6-8.8c-1.1-5-2.3-10-3.3-13.7c-1.1-4.3-2.3-9.3-3.8-14.4c-0.6-2.3-1.4-4.6-2.1-6.9
	l-0.1-0.2c-0.2-0.6-0.4-1.3-0.6-1.9c-0.2-0.6-0.5-1.3-0.8-2c-0.1-0.3-0.3-0.6-0.4-0.9c-0.1,0.2-0.2,0.5-0.4,0.7l0,0.1
	c-0.3,0.7-0.6,1.2-0.9,1.8c-0.2,0.3-0.4,0.6-0.6,0.8c-0.2,0.3-0.4,0.6-0.6,0.9c-1.1,2.2-2.3,4.3-3.4,6.5l-0.4,0.7
	c-2.7,5.2-5.4,10.5-8.3,15.7c-2.5,4.4-5.5,8.7-8.4,12.8l-0.3,0.4c-0.4,0.6-0.9,1.2-1.3,1.9c-3.4,4.8-6.3,8.8-9.5,12.8
	c-2.5,3.1-5.3,6.1-7.9,9l-0.3,0.3c-1.8,2-3.7,4.1-5.6,6.2l-0.3,0.4c-1.9,2.2-3.8,4.4-3.4,7.7c0.1,0.6,0.3,1.1,0.5,1.6
	c0.2,0.5,0.4,1,0.5,1.5c0.6,3.5,1.2,7.1,1.7,10.6c0.1,0.9,0.3,1.8,0.4,2.7c0.5,3.5,1,7,1.2,10.6c0,1.4-0.1,2.8-0.5,4.1
	c-0.3,1.1-0.4,2.2-0.5,3.4c0,0.5,0,0.9,0,1.4v0.7c-0.1,4.3-0.2,8.7-1.5,13.1c-0.8,2.8-1.4,5.7-2,8.6v0.1c-0.4,2.2-0.9,4.5-1.4,6.7
	c-1.5,5.7-3.2,11.2-4.9,16.6l-0.6,2v0.1c-1.5,4.8-3.1,9.8-4.9,14.6c-1.8,4.5-3.9,9-6.2,13.3l-1.1,2.3c-2.4,4.8-4.9,9.7-7.8,14.3
	c-2.5,4-6.5,9.9-11.2,15.1c-6.8,7.4-15,15.6-25.7,20.7c-6.4,3.1-13.1,5.5-19.9,7.5c-3.4,1-7,1.6-10.6,1.6h-0.8h-1.4
	c-1.6,0-3.2,0.1-4.8,0.1h-0.2c-1.5,0.1-3.3,0.1-5,0.1c-3.1,0.1-6.1-0.3-9-1.1c-2.3-0.6-4.7-1-7.1-1.2c-1.4-0.2-2.9-0.3-4.2-0.5
	c-3-0.5-6.2-1.1-9.3-2c-2.8-0.8-5.5-1.8-8-2.8l-0.4-0.1l-0.2-0.1h-0.1c-3.7-1.4-7.4-2.9-11-4.5c-1.8-0.9-3.6-1.8-5.3-2.8l-0.1-0.1
	c-0.7-0.4-1.3-0.8-2-1.1c-0.7-0.4-1.4-0.8-2.1-1.1c-1.7-0.9-3.7-2-5.4-3.2c-1.6-1-3.1-2.2-4.5-3.3l-0.3-0.3c-0.6-0.5-1.2-1-1.9-1.4
	c-1.2-0.9-2.4-1.7-3.5-2.4c-2.5-1.7-4.9-3.5-7.2-5.6c-5.2-5.1-10.2-10.6-15-15.9l-0.1-0.1l-1.7-1.9c-2.2-2.5-4.3-5.1-6.2-7.8
	l-1.4-1.9c-2.3-3-4.4-6.1-6.4-9.4c-1.5-2.7-2.9-5.5-4.2-8.2c-1.2-2.5-2.4-5.1-3.9-7.7c-2.6-4.8-4.4-9.9-6-14.9l-0.5-1.6
	c-0.5-1.5-1-3-1.6-4.4l-0.1-0.3c-1-2.8-2.2-5.9-3-9c-1.1-4.3-1.9-8.8-2.7-13c-0.2-1.1-0.4-2.3-0.6-3.4l-0.1-0.8
	c-0.6-3.1-1.2-6.3-1.5-9.5c-0.3-3.4-0.4-7-0.5-10.4v-0.1c-0.1-4.8-0.4-9.6-1-14.3c-0.4-2.7,0-5.6,0.4-8.4c0.2-1.6,0.4-3.2,0.5-4.8
	s0-3.4,0-5.1v-0.1c0-1.9-0.1-3.9,0.1-5.8c0.2-3.2,0.7-6.4,1.1-9.4l0.1-0.5c0.2-1.2,0.3-2.4,0.5-3.7c0.1-0.6,0.1-1.4,0.1-1.9
	c0-1.4,0.1-2.9,0.7-4c1.2-2.2,1-3.7-0.8-5.4l-3.2-3.1l-0.8-0.7c-4.5-4.3-9.2-8.7-13.6-13.3c-2.8-2.9-5.3-6.1-7.7-9.2l-0.2-0.3
	c-0.8-1.1-1.7-2.1-2.6-3.2c-0.8-1-1.6-2-2.4-3.1l-0.2-0.2c-1.1-1.4-2.3-2.9-3.5-4.4c-0.7-0.9-1.3-1.2-1.7-1.2L678.4,811.1z"/>
<path class="st1" d="M728.2,269.9L728.2,269.9c-1,0.1-1.9,0.3-2.7,0.7c-0.3,0.1-0.6,0.2-1,0.3c-0.3,0.1-0.6,0.2-0.9,0.3l-0.1,0
	c-0.9,0.2-1.8,0.5-2.6,1c-7.6,4.9-10.8,12.8-12.7,19.1c-1.3,4.6-2.3,9.3-3.1,14l-0.3,1.6c-0.5,2.6-0.6,5.3-0.6,8
	c0.1,2.9,0,5.8,0,8.6v0.1c-0.1,6.7-0.2,13.5,1.5,20.3c0.3,1.3,0.5,2.7,0.6,4c0.1,1.9,0.4,3.7,1,5.4c0.9,2.4,1.6,4.8,2.1,7.3
	c0.4,1.5,0.8,3.2,1.3,4.7c0.3,0.8,0.5,1.7,0.8,2.5c0.8,3.2,1.9,6.2,3.3,9.2c3.1,6.2,6.7,12.6,10.6,18.9c3.4,5.4,6.8,10.7,10.9,15.2
	c2.1,2.4,4.4,4.7,6.5,6.8c5.5,5.6,11.3,11.5,15.3,18.5c0.3,0.5,0.6,1.1,0.9,1.6l0,0.1c1.8,3.1,3.7,6.3,4.1,9.6
	c0.5,4.6,0.8,9.6-0.6,14.7c-1.4,4.7-3.4,9.2-6,13.4c-2.2,3.5-4.7,6.9-7.4,10.1l0,0.1c-1,1.2-2,2.4-2.9,3.7c-0.4,0.6-0.9,1.1-1.4,1.6
	l0,0.1c-0.7,0.7-1.4,1.5-2,2.4l-0.4,0.7c-3.1,4.8-6.2,9.8-9.1,14.9c-2.6,4.6-4.9,9.5-7.1,14.1l-0.5,1.1c-0.6,1.3-1.1,2.7-1.5,4
	c-0.2,0.7-0.5,1.4-0.8,2.2c-0.4,1.1-0.8,2.1-1.2,3.2c-0.9,2.2-1.8,4.5-2.4,6.8c-0.6,2-1,4-1.4,6c-0.2,0.9-0.4,1.9-0.5,2.8
	c-0.3,1.5-0.6,3-1,4.4v0.1c-0.7,3.2-1.5,6.5-2,9.9c-0.5,3.3-0.7,6.6-0.6,9.9c0,2.3,0,4.6,0,7.1c-0.1,6.5-0.2,13.2,1.6,19.6
	c0.5,2.1,0.9,4.2,1.2,6.3c0.2,1.5,0.5,3.1,0.8,4.7c1.1,5.4,2.9,10.7,5.2,15.7c0.7,1.5,1.4,3.1,2,4.6c0.8,1.9,1.6,3.9,2.6,5.8
	c1.8,3.6,4.1,7.5,6.8,11.7c1.5,2.4,3.3,4.7,5,6.9l0,0.1l0.9,1.2c0.8,1.1,1.6,2.1,2.4,3.2c2.2,3.1,4.6,6.1,7.2,9
	c3.2,3.5,6.9,6.6,10.5,9.6l0.2,0.2c5.3,4.4,10.8,8.7,15.9,12.6c2.3,1.8,4.7,3.4,7.2,4.9c4,2.2,8,4.1,11.8,5.9s8,3.6,12.7,5.6
	c1.5,0.6,3.1,1.1,4.5,1.6l0.3,0.1c0.7,0.2,1.3,0.4,2,0.7c1.6,0.6,3.2,1.1,4.8,1.7l0.3,0.1h0.1c3.8,1.4,7.7,2.8,11.6,3.9
	c4.2,1.2,8.5,2.1,12.6,2.9l2.2,0.4c3.7,0.7,7,1.3,10.3,1.6c2.6,0.3,5.2,0.5,7.9,0.6c0.6,0,1.2,0,1.8,0c0.9,0,1.8-0.1,2.8-0.1
	c1.8,0,3.6,0.1,5.1,0.1h0.3c1.6,0.1,3.3,0.1,5,0.1c3.1,0.1,6.3-0.3,9.3-1c1.8-0.4,3.6-0.6,5.5-0.6c0.9,0,1.9-0.1,2.9-0.2h0.2
	c1.1-0.1,2.3-0.3,3.4-0.6c4-1.5,8-3.1,11.8-4.6c6.9-2.8,13.6-7.2,21.5-14c3-2.8,5.9-5.7,8.5-8.9c1.4-1.6,2.9-3.3,4.4-4.9
	c3.8-3.9,7-8.4,9.5-13.3c1.2-2.4,2.4-4.7,3.7-7c1.9-3.5,3.8-7,5.4-10.7c2.2-5.2,3.8-10.5,4.9-16c1.5-6.8,2.1-12,2.2-16.9
	c0-2.1,0.1-4.2,0.1-6.2c0.2-7,0.5-14.3-1.6-21.4c-0.5-1.7-0.8-3.3-1-5c-0.2-1.2-0.4-2.4-0.7-3.6c-0.8-3.3-1.6-6.7-2.4-10l-0.1-0.3
	l-0.4-1.4l-0.4-1.8l-0.8-3.3l0-0.2c-0.9-3.7-1.8-7.5-2.8-11.2c-0.4-1.4-0.8-2.8-1.2-4.2l0-0.1c-0.6-2-1.2-4.1-1.7-6.2
	c-1.1-4.8-2.1-10.1-3.3-16.4c-0.7-3.8-1.2-7.5-1.7-11.1c-0.2-1.6-0.3-3.3-0.4-4.9v-0.1c-0.1-2.8-0.5-5.6-1.1-8.4
	c-0.7-2.9-0.7-6-0.7-9c0-0.9,0-1.8,0-2.8c-0.1-5.3-0.1-10.5,0-15.6v-3c0-7.1,0-14.5,3.1-21.8c2.3-5.5,6.1-9.9,11.7-13.4
	c5.2-3.2,11-5.4,17-6.5c0.3-0.1,0.7-0.1,1-0.1c0.5,0,1.1-0.1,1.6-0.3c1.1-0.3,2.2-0.7,3.3-1c1.7-0.5,3.5-1.1,5.2-1.5
	c2.8-0.7,5.7-1.3,8.6-1.6c1.2-0.2,2.4-0.3,3.6-0.5c3.6-0.6,7.2-1,10.8-1.1h0.8c0.9,0,1.8,0,2.6,0c2.4,0,5-0.1,7.4-0.1h0.2
	c2.5-0.1,5.1-0.2,7.6-0.2c4.6-0.1,9.2,0.3,13.8,1.2c4.1,0.8,8.3,1.3,12.4,1.7l0.3,0c1.6,0.2,3.1,0.3,4.7,0.5c0.1,0,0.3,0,0.4,0
	c0.2,0,0.5,0,0.7,0s0.5,0,0.7,0c0.3,0,0.5,0,0.8,0.1c1.4,0.4,2.8,0.9,4.2,1.4l0.2,0.1c1.2,0.4,2.6,0.9,3.8,1.3
	c2.2,0.7,4.5,1.3,6.7,1.9c1.7,0.5,3.4,0.9,5.1,1.4c2.4,0.7,4.9,1.4,7.3,2.1c3.2,0.9,6.4,1.9,9.6,2.8l1.7,0.5c3.5,1,7,2,10.6,2.8
	l1.5,0.3c3.9,0.8,7.9,1.7,11.8,1.8c1.1,0,2.2,0.1,3.3,0.1h0.2c2.2,0.1,4.6,0.2,6.8,0.2c5.6,0,12.2-0.4,18.4-3.7
	c3.4-1.9,6.4-4.3,9-7.3c2.2-2.7,3.9-5.8,4.8-9.2c1-4,0.4-8.6-1.8-13.7c-2.4-5.8-6.1-11-10.7-15.3c-1.9-1.8-4.1-3.5-6.3-5.2l-0.1-0.1
	c-2.2-1.8-4.5-3.4-7-4.8l-2.1-1.2l-0.4-0.2c-3.8-2.3-7.8-4.6-12.4-5.8c-2.9-0.8-5.7-1.8-8.5-2.8h-0.1c-3.1-1.1-6.3-2.2-9.6-3.1
	c-5.1-1.4-10.3-2.1-15.6-2.2h-1c-2.6,0-5.4-0.1-7.6-0.1h-0.2c-2.6-0.1-5.2-0.1-7.8-0.1c-4.6,0-10.6,0.2-16.7,1.8
	c-1.7,0.4-3.6,0.8-5.2,1l-0.2,0c-1.1,0.2-2.2,0.4-3.3,0.6l-1.9,0.4l-0.1,0c-4.3,0.9-8.7,1.8-13,2.9c-2.9,0.7-5.7,1.6-8.5,2.6
	c-2.6,0.9-5.3,2-7.8,3h-0.1l-2.3,0.9l-2.5,1l-0.3,0.1c-2.6,1-5.2,2-7.8,3.2c-1.8,0.8-3.5,1.8-5.2,2.7l-0.1,0c-1,0.6-2,1.1-3.1,1.7
	c-2,1.1-4.1,2.1-6.1,3.2c-3.3,1.7-7.1,3.7-10.8,5.6c-1.9,1-3.8,2.2-5.6,3.3l-0.1,0l0,0c-1.2,0.7-2.4,1.5-3.6,2.2
	c-3.2,1.9-6.5,3.8-9.4,5.4l-1.6,0.9l-1,0.6l-0.6,0.3c-1.6,0.9-3.2,1.8-4.9,2.9l-0.5,0.3l-0.1,0.1c-0.4,0.3-0.9,0.7-1.3,0.9
	c-1.3,0.8-2.5,1.6-3.8,2.3l-0.1,0.1c-2.5,1.5-5.1,3.1-7.6,4.8c-4.7,3.2-8.6,4.7-12.5,4.7c-1.3,0-2.5,0.1-3.8,0.1h-0.1
	c-1.4,0.1-3.1,0.1-4.7,0.1c-3.6,0.1-7.2-0.5-10.6-1.6c-3.1-1.1-6.4-2-9.6-2.7H909c-1.8-0.4-3.6-0.8-5.3-1.3
	c-1.3-0.4-2.6-0.8-3.8-1.2c-1.5-0.5-3.1-1.1-4.6-1.4c-2.2-0.5-4.5-0.9-6.7-1.3h-0.1c-1.5-0.3-3.1-0.6-4.6-0.9
	c-1.5-0.3-3.2-0.7-4.7-1.1H879c-2.4-0.6-4.8-1.2-7.3-1.6c-2.7-0.4-5.4-0.6-8.1-0.6h-0.8c-7.7,0.1-15.5,0.2-23.1,0.4l-2.1,0l-6.4,0.1
	h-0.4c-0.2,0-0.4,0-0.7,0.1c-1.3,0.3-2.6,0.6-3.8,0.9c-2.7,0.7-5.5,1.3-8.3,1.7c-1.4,0.2-2.7,0.2-4.1,0.2c-1.2,0-2.4,0-3.5-0.1h-0.1
	c-0.8,0-1.7-0.1-2.5-0.1c-1.2-0.1-2.3-0.7-3.1-1.6c-0.7-0.7-1.1-1.7-1.1-2.7c0.1-1.1,0.3-2.3,0.5-3.4v-0.1c0.2-1.1,0.4-2.1,0.5-3.2
	c0.4-4.3,0.5-7.8,0.6-11c0-7.3,0-15.2-1.4-22.9c-0.3-1.7-0.6-3.5-0.8-5.2v-0.1c-0.3-3-0.9-5.9-1.6-8.8c-0.4-1.7-0.8-3.4-1.2-4.9
	l-0.1-0.3c-0.5-2-1-4-1.5-6c-0.7-2.5-1.5-5.1-2.4-7.5l-0.4-1v-0.1c-1.8-4.4-3.7-9-5.8-13.4c-2.7-5.5-5.8-11.1-9.1-16.8
	c-2.2-3.7-4.7-7.3-7.4-10.7c-2.9-3.7-6.2-7.5-10.3-11.9c-5.7-6.1-12.1-11.6-19-16.3c-2-1.4-4.2-2.5-6.5-3.4
	c-1.3-0.5-2.7-0.9-4.1-1.2c-0.7-0.2-1.5-0.3-2.3-0.6c-0.4-0.1-0.8-0.3-1.2-0.4c-0.6-0.3-1.2-0.5-1.9-0.5L728.2,269.9z M840.1,560.7
	c1.3,0,2.5-0.1,3.8-0.4c2.6-0.7,5.2-1,7.9-0.9c0.9,0,1.8,0,2.9,0.1c4,0.2,8,0.7,11.9,1.2h0.1l3.2,0.4l2,0.2c3.5,0.4,7,0.8,10.5,1.5
	c2.1,0.4,4.3,1,6.3,1.6h0.1l0.2,0c1,0.3,2,0.6,3.1,0.9s1.9,0.5,2.9,0.7l0.2,0c2,0.4,4.1,1,6,1.6c4.3,1.4,8.6,3.1,12.7,4.9
	c5.1,2.4,8.9,5.3,11.7,8.8l0.1,0.1c2.8,3.5,5.6,7.2,7.5,11.6c1.3,3.2,2.3,6.6,3.1,10v0.1c0.3,1.1,0.5,2.1,0.8,3.2
	c1.2,4.6,1,9.2,0.8,13.6c0,1-0.1,2-0.1,2.9c-0.1,2.9-1,5.8-1.8,8.6v0.1c-0.4,1.2-0.8,2.5-1.1,3.7c-1.9,7.2-5.1,13.9-9.5,19.9
	c-1.6,2.3-3.6,4.7-6,7.7c-0.6,0.7-1.2,1.5-1.8,2.2c-1.6,2.1-3.3,4.2-5.3,5.8c-1,0.8-1.9,1.5-2.8,2.3c-4.5,3.7-9.2,7.5-14.9,9.8
	c-2.5,1.1-5,2.3-7.4,3.6c-1.2,0.6-2.6,1.4-3.9,2c-0.8,0.4-1.7,0.7-2.6,0.9c-1,0.2-2,0.3-3.2,0.5c-2,0.2-4,0.6-6,1.2
	c-4.2,1.4-8.4,1.6-12,1.6c-1.4,0-2.8,0-4.1-0.1h-0.1c-1.2,0-2.7-0.1-4.2-0.1c-1.9-0.1-3.7-0.4-5.5-0.8l-0.1,0
	c-1.1-0.2-2.2-0.5-3.3-0.7c-4.4-0.6-8.7-2.2-13.8-5.1c-4.4-2.4-8.7-5.3-12.8-8l-0.1,0c-1.8-1.2-3.8-2.5-5.8-3.8
	c-6.9-4.4-14.1-9.3-19.1-16.5c-3-4.3-5.3-9.2-7.5-14l-0.3-0.5c-0.3-0.7-0.7-1.4-1-2.1c-4.6-9.6-3.8-20.2-3.1-29.6
	c0.5-7.1,3.1-14.3,7.6-21.4c2-3.3,4.4-6.3,7.1-9.1c0.2-0.2,0.3-0.5,0.3-0.8c0.1-0.3,0.1-0.5,0.2-0.8c2.1-1.4,4.1-2.9,6-4.6
	c2.7-2.3,5.5-4.6,8.9-6.2l1.1-0.5l0.7-0.3c4.2-2,8.6-4,13.2-5.1c1.4-0.3,2.8-0.5,4.2-0.7c1.4-0.2,2.9-0.4,4.3-0.8
	c1.2-0.3,2.5-0.4,3.7-0.4c0.6,0,1.3,0,1.9,0h0.2C838.8,560.6,839.5,560.7,840.1,560.7L840.1,560.7z"/>
<path class="st2" d="M825.8,774.3c-9.6,0-17.7,0.3-25.8,1.5l-1,0.1c-3.6,0.5-7,1-10,3.3c-3.7,2.8-6,8-2.8,13.1
	c1.9,3.1,4.2,6.1,6.3,9l0.1,0.1c0.5,0.7,1.1,1.3,1.7,2c0.8,0.8,1.5,1.6,2.1,2.5c0.9,1.4,1.7,2.8,2.4,4.2l0.1,0.1
	c1.1,2.1,2.3,4.1,3.7,6c3.1,4.3,4.4,9.3,5.2,13.2c0.9,4.2,0.8,8.8,0.6,13.2c-0.2,3.3-0.8,6.5-1.9,9.6c-1.5,4.3-3.8,8.3-6.6,11.8
	c-4.9,6.1-10.7,10.2-17.6,12.5c-3.9,1.3-7.8,2.3-11.9,3.1c-0.7,0.1-1.5,0.2-2.2,0.2c-1.7,0-3.4-0.4-5-1.1c-1.8-0.7-3.7-1.1-5.6-1.3
	c-0.8-0.1-1.7-0.3-2.4-0.4c-6.1-1.2-11.3-4.5-16.3-7.6c-3.6-2.3-6.9-5.2-10-8l-0.3-0.3c-0.7-0.7-1.5-1.3-2.2-2
	c-0.5-0.5-1.2-0.8-2-0.9c-0.8,0-1.5,0.6-1.8,1.4c-1.3,3.3-2.2,6.8-2.9,10.3c-0.8,4.6-1.4,9.2-1.7,13.8c-0.4,5.9-0.7,12.1-0.5,18.4
	c0.2,4.3,0.6,8.6,1.2,12.9v0.1c0.1,0.8,0.2,1.7,0.3,2.5c0.6,5.1,1.3,9.3,2,13.1c0.5,2.7,1.2,5.4,1.8,8.1l0,0.2c0.3,1.3,0.7,2.7,1,4
	c0.2,1,0.5,2.1,0.7,3.1c0.4,1.9,0.9,4.1,1.5,6.2c0.9,3.3,2,6.6,3.1,9.5l0.1,0.1c0.9,2.6,1.9,5.7,3.1,8.6c0.8,1.9,1.7,3.9,2.5,5.8
	l0,0.1l0.2,0.5c0.3,0.7,0.6,1.3,0.9,2c0.4,0.8,0.7,1.6,1,2.4l0.1,0.2c0.8,2,1.7,4,2.8,5.9c1.6,2.7,3.4,5.4,4.9,7.8
	c0.7,1.1,1.4,2.2,2.1,3.3c0.8,1.3,1.6,2.6,2.4,3.9c1.7,2.9,3.6,5.7,5.7,8.4c5.4,6.3,11.3,12.1,15.9,16.5c3.6,3.4,7.4,6.5,11.5,9.3
	c5.4,3.7,11.1,7,16.1,9.9c6.6,3.9,13.8,6.7,21.3,8.3c0.3,0.1,0.5,0.2,0.8,0.4c0.4,0.3,0.8,0.5,1.3,0.7c0.7,0.2,1.3,0.4,2,0.5
	c1.5,0.4,2.9,0.8,4.4,1.1l2,0.3l0.5,0.1c3.8,0.7,7.6,1.1,11.4,1.2h0.7c3.9,0,7.9-0.3,11.8-0.6c1.6-0.1,3.2-0.3,4.8-0.4l0.6,0h0.3
	c1.4,0,2.7-0.2,4.1-0.5c4.3-1.2,9.5-2.7,14.6-4.4l0.2-0.1c3.5-1.2,7.1-2.4,10.3-4.2c5.4-3.1,10.5-6.5,14.7-9.4c3-2.1,5.7-4.4,8.3-7
	c1.5-1.5,2.9-3.1,4.1-4.8c0.3-0.4,0.7-0.9,1-1.3c0.6-0.8,1.3-1.6,1.9-2.4c1.8-2.1,3.4-4.3,4.8-6.7c2.7-5.1,5.2-10.3,7.4-15.6
	c2.2-5.1,5-11.9,7.5-18.8c1.4-3.8,2.5-7.8,3.6-11.6l0.1-0.5c0.4-1.5,0.8-3,1.3-4.4c0.3-0.9,0.5-1.8,0.8-2.7l0.1-0.4
	c0.8-2.5,1.6-5.4,2.4-8.2l0.3-1.1l0.3-1.1c1.1-3.9,2-7.8,2.7-11.8c0.8-5.2,1.2-10.4,1.6-15.6l0.1-1.6c0.1-1.9,0.1-3.8,0.1-5.7
	c0-0.9,0-1.7,0-2.5c0-0.2,0-0.3,0-0.5c0-0.4,0-0.8-0.1-1.2c-0.3-1.1-0.6-2.3-0.9-3.4l-0.1-0.3c-0.7-2.4-1.3-4.9-1.7-7.3
	c-0.6-4-3.1-6.6-6.6-6.6c-0.7,0-1.4,0.1-2,0.3c-1.2,0.3-2.3,0.7-3.6,1.1c-2,0.7-4,1.2-6,1.6l-0.3,0.1c-5.7,0.9-11.6,1.9-17.4,2.1
	c-1.9,0.1-4.4,0.1-6.8,0.1c-5.3,0.1-10.6-0.4-15.8-1.5c-0.8-0.2-1.7-0.4-2.5-0.5c-3.8-0.8-7.7-1.6-11.1-3.5l-0.4-0.2
	c-3.1-1.7-6.2-3.5-8.4-6.1c-2.7-3.2-4.4-7-4.8-11.2c-0.6-4.7,0.6-8.7,2-13.1c1.1-3.1,2.7-5.9,4.8-8.4c2.9-3.7,6.2-7.2,9.4-10.5
	l0.8-0.9c1.6-1.7,3.2-3.3,4.8-4.9l0.2-0.2c3.2-3.1,6.5-6.4,9.2-10s6.3-9,6.5-15.6c0-0.7,0.1-1.5,0.1-2.2c0.2-2.4,0.3-4.9-0.5-6.9
	c-1.6-3.8-3.8-7.2-6.7-10c-3.1-3.2-7-5.8-10.7-8.3l-0.5-0.3c-3.5-2.4-6.7-4.4-10.2-5.7l-1.1-0.4c-5.2-1.9-10.6-3.9-16.2-4.7
	c-1.3-0.2-2.7-0.4-4-0.6h-0.2c-4-0.7-8.2-1.4-12.4-1.4h-0.3H836c-1.7,0-3.4,0-5.1,0L825.8,774.3L825.8,774.3z"/>
<path class="st2" d="M849,565.7c-4.4-0.1-8.9,0.3-13.3,1.1c-1.6,0.3-3.3,0.4-4.9,0.5c-2.6,0.1-5.3,0.2-7.8,1.3
	c-0.9,0.4-1.8,0.7-2.7,0.9c-1.4,0.3-2.7,0.8-3.9,1.6c-3.6,2.6-7,5.4-10.2,8.5c-6.4,6.2-12.4,12.3-16.6,20.2
	c-3.1,5.7-4.8,12-5.6,19.9c-0.1,1.5,0.1,3,0.5,4.5c0.3,1.2,0.4,2.4,0.5,3.6c0.1,4.4,1.5,9,4.3,13.8c3.1,5.3,6.2,10.3,10.7,14.2
	l0.1,0.1l0.2,0.1c2.3,2,4.6,4,7,6c0.9,0.8,1.9,1.6,2.8,2.4c2.5,2.2,5.2,4.3,7.9,6.1c3.9,2.5,8.1,4.8,12.1,7c2.2,1.2,4.5,2.5,6.7,3.8
	c4.6,2.7,9.9,4.1,15.2,4.2c0.9,0,1.8,0.1,2.8,0.1h0.3h0.1c1.3,0.1,2.7,0.2,4.1,0.2c2.5,0.1,5-0.3,7.4-1.2c1.9-0.7,3.9-1.1,5.9-1.4
	c1.4-0.2,2.8-0.5,4.1-0.8c3.7-0.9,7.4-2,10.9-3.4c1.7-0.7,3.3-1.6,4.8-2.6c1.3-0.8,2.7-1.6,4.2-2.3c1-0.7,2-1.4,3-2
	c2.2-1.4,4.4-2.9,6.3-4.7c4.1-3.9,7.8-8.1,11.2-12.6c4-5.4,6.8-10.2,8.7-15.3l0.5-1.2l0.2-0.6c1.7-4.5,3.5-9.1,3.7-13.9v-0.3
	c0.4-8.7,0.9-17.7-3.8-25.8c-0.4-0.7-0.7-1.3-1.1-2c-1.7-3-3.4-6-5.6-8.6c-4.1-4.9-9.7-8-14.5-10.5c-4.7-2.4-9.6-4.3-14.7-5.7
	c-3.2-0.8-6.5-1.5-9.7-2.1h-0.1l-0.5-0.1c-1.4-0.3-2.9-0.6-4.3-1c-3.4-0.8-6.9-1.6-10.3-1.6h-1c-2.5,0-5.1-0.1-7.6-0.2h-0.3
	C854.2,565.8,851.6,565.7,849,565.7L849,565.7z M865.7,632.9c-0.3,0-0.5,0-0.8-0.2c-2.6-1-4.9-2.6-6.8-4.5c-1.1-1.3-2-2.8-2.7-4.3
	c-0.5-1.1-1.1-2.1-1.7-3.1c-2.8-4.1-3.7-8.6-2.8-12.7c0.4-1.8,3-3.8,4.7-4.1c3.3-0.7,6.7-0.7,10.1-0.7h2.1c2.6,0,5.3,0.2,7.9,0.5
	c1,0.1,2.2,1.1,3.3,2.6c1.5,2.1,2.1,4.5,1.8,6.1c-0.4,1.7-1.1,3.3-1.9,4.8c-0.5,1-0.9,1.9-1.3,2.9c-0.8,1.3-1.6,2.5-2.4,3.7
	c-0.9,1.3-1.7,2.6-2.5,3.9C871.5,629.8,868,632.9,865.7,632.9L865.7,632.9z"/>
<path class="st3" d="M867.2,608.9L867.2,608.9l-1.7,0.2l-0.5,0.1c-1.7,0.2-3.7,0.5-5.6,0.8c-0.7,0.1-2,0.7-2,1.1
	c0,1.6,0.2,3.2,0.8,4.8c0.7,1.5,1.5,3.1,2.4,4.5l0,0.1c0.5,0.9,1.1,1.8,1.5,2.8c0.7,1.3,1.4,1.9,2.4,1.9c0.9-0.1,1.7-0.5,2.4-1.1
	c3.4-2.8,5.3-6.6,6.8-10.3c0.4-0.9,0-2.7-0.6-3.1C871.4,609.7,869.3,609.3,867.2,608.9L867.2,608.9z"/>
<path class="st3" d="M1051.4,955.6c-1.5,0-2.9,0.2-4.3,0.5c-3.2,0.6-5.4,2.9-7.5,5.2c-0.5,0.5-1,1.1-1.5,1.6
	c-2.9,2.8-4,6.6-5.1,10.2c-0.2,0.6-0.4,1.3-0.6,1.9c-0.6,2.1-1.1,4.2-1.4,6.3v0.1l0,0c-0.2,1.4-0.5,2.8-0.8,4.2l-0.1,0.5l0,0.2
	c-0.4,1.6-0.8,3.4-1.8,4.4c-3.1,3-5.1,6.8-6,11c-0.8,3.1-1.8,6.1-3,9.1c-0.6,1.6-1.1,2.9-1.6,4.3c-1.6,4.6-3.3,9.5-4.9,14.4
	c-1.9,5.8-3.9,11.8-5.8,17.5l-0.3,0.8l-0.6,1.7l-0.8,2.5l-0.3,0.8l0,0.1c-1.3,3.9-2.6,7.8-3.8,11.8c-0.3,1-0.9,3.5-0.1,4.4
	c1.4,1.6,3.7,3.7,6.4,4.8c3.3,1.3,6.9,2.1,10.4,2.8l0.7,0.1c1.6,0.3,3.2,0.5,4.9,0.5c5,0,9.9-1.8,13.6-5.2c1.5-1.4,2.8-2.9,3.9-4.5
	c1-1.4,2.1-2.7,3.3-3.9c1.3-1.1,3-1.7,4.7-1.7h0.2c3.6,0.1,4,0.9,4.1,4.6v0.1c0.1,2.1,0.2,4.2,0.9,6.1c1.3,3.3,2.8,6.5,4.6,9.6
	c2.3,4,3.8,5.9,6.4,5.9c1.4-0.1,2.8-0.4,4.1-1.1c6.2-2.7,10.8-7.3,14.1-14.1c0.9-1.8,1.6-3.8,2-5.8l0.1-0.8l0.1-0.3
	c0.5-2.4,1-4.9,0.6-7.2s-0.1-4,0.9-5.2s2.4-1.8,4.5-1.9c0.2,0,0.4,0,0.6,0c2.3,0,4.3,1,6.1,1.9l0.1,0.1c0.5,0.3,1.1,0.5,1.6,0.8
	c1.8,0.9,3.8,1.3,5.9,1.4c1.4,0,2.8-0.3,4.1-0.8c4.3-1.6,7.8-4.9,9.7-9.2c2.5-5.5,1.8-11.1,0.8-15.8c-0.8-3.5-2.6-6.8-4.3-10
	l-0.5-0.9c-0.9-1.6-2-3.2-3.1-4.7c-0.7-0.9-1.4-1.9-2-2.8c-2.6-4-3.6-7.3-3-10.8c0.1-0.3,0.4-0.6,0.8-0.8c0.2-0.1,0.4-0.3,0.5-0.4
	c1.7-1.6,3.4-3.1,5.4-4.9c0.2-0.4,0.3-0.8,0.5-1.2c0.4-0.8,0.7-1.7,0.8-2.6c0.4-4.5-2.2-8.1-4.5-10.7c-3.5-4.1-7.2-7.9-12.3-9.8
	c-1.7-0.7-3.4-1.1-5.2-1.1c-1.5,0-3.1,0.4-4.3,1.3c-1.9,1.3-3.7,2.7-5.4,4.3c-1.4,1.2-2.8,2.4-4.3,3.5c-2.3,1.6-4.7,3-7.3,4.2
	c-0.1,0-0.1,0-0.2,0c-0.7,0-2.1-0.9-2.3-1.6c-0.5-1.7-0.9-3.6-1.2-5.2c-0.4-2.3-1-4.5-1.7-6.8c-0.9-2.9-2.4-5.6-4.5-7.9
	c-2.4-2.4-5.2-4.3-8.3-5.6C1053.1,955.7,1052.2,955.5,1051.4,955.6L1051.4,955.6z"/>
</svg>
