<svg id="Draw_Layer" data-name="Draw Layer" xmlns="http://www.w3.org/2000/svg" viewBox="0 0 1249.12 1255.19"><defs><style>.cls-1{fill:#2c2c2c;}.cls-2{fill:#c19515;}.cls-3{fill:#ffc41b;}.cls-4{fill:#fff500;}.cls-5{fill:#161616;}</style></defs><title>Coin</title><path class="cls-1" d="M719.74,769.34a25.33,25.33,0,0,1,9.18-3.49,23.51,23.51,0,0,0-9.18,3.49Z" transform="translate(-629.06 -385.7)"/><path class="cls-2" d="M1245.19,385.72h-.12c-98.7,0-196.64,22.25-283.24,64.33A518.53,518.53,0,0,0,889.78,492c-29.74,20.86-58,46-86.31,76.9-70.68,77-122.92,172.49-151.06,276C624,949.52,621.46,1058,645.13,1158.47c14.33,60.82,38.76,119.7,72.62,175A659.44,659.44,0,0,0,997.81,1584c58.71,27.51,119.93,45.26,182,52.76a580.42,580.42,0,0,0,69.21,4.13c233.14,0,459.76-137.21,563.91-341.43,28.39-55.65,47.81-116.36,57.72-180.45a659.5,659.5,0,0,0-51.7-372.2c-27-58.95-62.24-112.07-104.73-157.89-69.36-74.8-157.37-132.5-254.51-166.86A641.41,641.41,0,0,0,1245.2,385.7v0Zm-131.4,1219.37c-88.88-21.76-174.19-65.48-246.71-126.4S736.81,1341.36,699.8,1257.53s-54.58-177.94-51-272.54,28.3-187.14,71.4-268A638.92,638.92,0,0,1,835.14,563.21c32.6-32.23,64.7-57.29,98.13-76.6,34.53-19.95,74.43-36.06,125.55-50.69,72.07-20.63,141.67-31.09,206.88-31.09a549.3,549.3,0,0,1,122.66,13.41c68.18,15.66,134.78,45.87,198,89.79,78.32,54.43,145.12,127.71,193.17,211.92,48.8,85.5,77,180.17,81.42,273.78,8.86,185.92-75.52,374.74-220.18,492.78-53.29,43.48-114.31,77.35-181.36,100.68a621.74,621.74,0,0,1-204.75,34.69,593.39,593.39,0,0,1-140.85-16.79Z" transform="translate(-629.06 -385.7)"/><path class="cls-2" d="M1017.69,679.91a432.42,432.42,0,0,0-164,234.32c-18.42,65.76-20.12,133.33-4.9,195.41,14.72,60.09,45.51,119.77,91.49,177.39,13.64,17.09,32.3,38.84,55.71,55.48,17.27,12.28,36.52,21.4,54.74,29.43,51.78,22.82,95.59,36.71,137.87,43.73a392.93,392.93,0,0,0,64.07,5.23,421.82,421.82,0,0,0,163.71-33.7c52.32-22.26,99.8-55.15,137.29-95.12,44.9-47.87,78-108,95.71-173.83s19.2-134.44,4.34-198.39S1607.3,795,1562.39,743.72s-101.13-90.66-162.54-113.83a401.5,401.5,0,0,0-142.22-25.48c-86.69,0-171.9,26.82-239.94,75.5Zm-39.14,631.92c-49.93-45.28-87.69-104.53-109.2-171.34-21.56-67-25.33-137.08-10.91-202.75C872.77,872.53,904.4,810,949.91,757a426.35,426.35,0,0,1,43.32-43.74c71.84-62.5,167.69-98.35,263-98.36,4.67,0,9.59.1,14.63.29,100.82,3.85,198.82,47.46,268.86,119.64,67.57,69.64,108,165.2,110.9,262.19a401.55,401.55,0,0,1-13.89,117c-17.61,65.07-52.61,126.08-101.22,176.43s-108.46,87.46-172.79,107A390.2,390.2,0,0,1,1249.24,1414c-100.41,0-199.07-37.25-270.69-102.18Z" transform="translate(-629.06 -385.7)"/><path class="cls-3" d="M1058.82,435.92c-51.12,14.63-91,30.74-125.55,50.69-33.43,19.31-65.53,44.37-98.13,76.6A638.92,638.92,0,0,0,720.23,717c-43.1,80.87-67.79,173.55-71.4,268s14,188.84,51,272.54,94.86,160.31,167.28,221.16,157.83,104.64,246.71,126.4a593.39,593.39,0,0,0,140.85,16.79,621.74,621.74,0,0,0,204.75-34.69c67-23.33,128.07-57.2,181.36-100.68,144.67-118,229-306.86,220.18-492.78-4.47-93.61-32.62-188.28-81.42-273.78-48-84.21-114.85-157.49-193.17-211.92-63.2-43.92-129.8-74.13-198-89.79a549.3,549.3,0,0,0-122.66-13.41c-65.21,0-134.81,10.46-206.88,31.09ZM1159.39,564c-4.31-2.52-5.23-7.9-5.23-12,0-.9,0-1.78.12-2.63l.12-1.16a103.57,103.57,0,0,1,3.9-16.86l26.43-91.4c1.45-5,3.23-10.1,7.5-12.48a9.74,9.74,0,0,1,4.77-1.25h0a14.62,14.62,0,0,1,8,2.82,39.64,39.64,0,0,1,8.76,8.61l.1.13.17.23.07.08.12.18.32.43.08.1c21.67,30.09,42.58,61.29,62.15,92.76,2.81,4.52,4.24,8.41,4.23,11.56a8,8,0,0,1-1.9,5.32,8.11,8.11,0,0,1-6.31,2.63,12,12,0,0,1-6.34-1.87c-3.93-2.55-6.4-6.84-8.57-10.64l-6.23-10.89-6-10.42c-1-1.75-3-2.6-6.07-2.6a23,23,0,0,0-2.93.2l-18.45,2.38-19.52,2.5c-4.23.54-9,1.16-12.72,3.92-5.31,4-6.73,11.25-7.34,16.38-.1.89-.2,1.79-.29,2.7l0,.44c-.51,5.06-1,10.3-3.52,14.77-2.34,4.21-6.94,7.15-11.19,7.15a8.4,8.4,0,0,1-4.24-1.12Zm215.8,10.68c-5.41-.53-8.94-6.19-9.23-11.36,0-.34,0-.67,0-1,0-5.07,2.19-9.94,4.1-14.24l11.79-26.52,10.85-24.4a5.91,5.91,0,0,0,.52-2.43,6.15,6.15,0,0,0-.44-2.19c-1.42-3.59-6.06-6.62-9.93-8.25l-19.32-8.17-10.87-4.59c-4.61-1.94-9.83-4.14-13.43-8.19a14.47,14.47,0,0,1-3.61-9.22,9.33,9.33,0,0,1,1.62-5.37c1.93-2.76,5.41-4.34,9.55-4.34a16.24,16.24,0,0,1,3.47.37c4.12.95,7.79,3.21,11.34,5.39l1.57.95c20.43,12.34,44,18.66,66.82,24.79l.14,0c6.77,1.81,14.44,3.87,21.79,6.06,5.37,1.6,10.51,3.33,14.49,6.81,2.46,2.15,5.34,6.28,5.35,10.86a10.37,10.37,0,0,1-.62,3.56c-2.06,5.63-8.31,7.64-13.47,7.64a21.28,21.28,0,0,1-6.49-1,60.9,60.9,0,0,1-10.57-5,62.19,62.19,0,0,0-10.43-4.93,21.48,21.48,0,0,0-6.62-1h-1.25l-.17,0h-.19l-.14,0-.23,0a18.16,18.16,0,0,0-4,.84,16.89,16.89,0,0,0-1.77.72,10.64,10.64,0,0,0-5.64,5.87l-10,26.4-10.43,27.53c-2.49,6.56-6.87,14.38-13.61,14.38a8.77,8.77,0,0,1-.88,0ZM999.56,627.29l-28.7-43L941,539.58a17.42,17.42,0,0,1-2.93-5.93,9.65,9.65,0,0,1-.2-1.89c0-5.49,5.25-10.55,15.55-15a183.82,183.82,0,0,0,39.46-23.4l1-.8c5-3.91,10.2-8,16.44-8.6a10.93,10.93,0,0,1,1.15-.06,13.24,13.24,0,0,1,10,4.7,7.81,7.81,0,0,1,1.77,6.76c-.64,2.9-2.88,5.22-4.93,7.17a133.17,133.17,0,0,1-43.09,27.25c-4.07,1.58-6.71,5.77-6.88,10.93,0,.16,0,.33,0,.49,0,4.94,2.34,9.11,6.14,10.88a13,13,0,0,0,5.54,1.19,22,22,0,0,0,12.33-4.4l.19-.14a73.24,73.24,0,0,0,7.43-6.46,76.14,76.14,0,0,1,7.08-6.19c4.15-3,8.68-4.72,12.76-4.72a13,13,0,0,1,5.27,1.07,10.77,10.77,0,0,1,6,8.58,9.77,9.77,0,0,1,.06,1.08,7.08,7.08,0,0,1-2.81,5.92l-29.23,21.36c-.33.23-.66.47-1,.72-1.57,1.22-3.24,2.74-3.66,4.83-.39,1.88.35,3.85,1,5.48,2.12,5.66,4.52,12.07,9.17,16.64a17.14,17.14,0,0,0,11.66,5,11.42,11.42,0,0,0,5.82-1.51l24.47-14.31,13.78-8.06c4.11-2.4,8.76-5.12,13.85-5.58.41,0,.82-.06,1.24-.06,4.33,0,9.45,2.07,11.11,6.69l0,.1,0,.1,0,.1,0,.1,0,.1,0,.1,0,.1,0,.11,0,.1,0,.1,0,.12a9,9,0,0,1-.3,4.91,12.4,12.4,0,0,1-1.64,3.13,27.81,27.81,0,0,1-8.15,7.19l-.12.08-.16.1-.18.11-.19.11-.35.21-.16.1c-.71.41-1.46.82-2.23,1.22L1035,617.31c-3.39,1.75-6.9,3.56-9.63,6.4a41,41,0,0,0-3.62,4.56l-.08.11-.27.38c-2.31,3.19-5.19,7.16-9.61,7.5-.21,0-.41,0-.62,0-4.94,0-8.65-4.55-11.62-9Zm514.22,19.5c-10.53-4.56-18.68-13-21.81-22.69a37.56,37.56,0,0,1-1.5-15.61l0-.29a58.26,58.26,0,0,1,1-6l0-.21,0-.11.07-.29a125.81,125.81,0,0,1,6.93-20.24c7.68-18.41,16-37,24.83-55.12,2.46-5.06,5.68-10.3,11-10.79a5.63,5.63,0,0,1,.71,0c5.54,0,9.64,5.92,9.85,11.24,0,.22,0,.44,0,.66,0,5.46-2.63,10.53-5.18,15.43l-.06.12a501.78,501.78,0,0,0-23.27,51.88c-1.66,4.35-3.56,10-3.57,15.29a16,16,0,0,0,2.62,9.28c4.18,6.19,12.15,7.49,18.1,7.49a46.27,46.27,0,0,0,5.17-.3,84.28,84.28,0,0,0,63.37-42.27,6.5,6.5,0,0,1,6-3.25c4.18,0,8.38,2.72,9.78,6.33a13.58,13.58,0,0,1,.92,5c0,4.06-1.53,8.66-4.7,14.05a92.77,92.77,0,0,1-68.45,44.34,81.17,81.17,0,0,1-8.84.5,57.6,57.6,0,0,1-23-4.4Zm-325.15,768.88c-42.28-7-86.09-20.91-137.87-43.73-18.22-8-37.47-17.15-54.74-29.43-23.41-16.64-42.07-38.39-55.71-55.48-46-57.62-76.76-117.3-91.49-177.39C833.6,1047.56,835.3,980,853.73,914.23a432.28,432.28,0,0,1,164-234.32c68-48.68,153.24-75.49,239.93-75.5a401.5,401.5,0,0,1,142.22,25.48c61.41,23.17,117.61,62.53,162.54,113.83s76.5,112.2,91.36,176.14,13.36,132.55-4.34,198.39-50.8,126-95.71,173.83c-37.49,40-85,72.86-137.29,95.12a421.82,421.82,0,0,1-163.71,33.7,392.93,392.93,0,0,1-64.07-5.23ZM883.76,746l-62.9-45L795.21,682.7c-1.41-1-3.17-2.26-4-4.07a7.93,7.93,0,0,1-.58-3.3c0-.48,0-1,.05-1.48.93-17.1,6.56-32.81,15.83-44.24.38-.46.76-.92,1.15-1.37,10.1-11.7,24.6-18.68,38.8-18.68a42.93,42.93,0,0,1,5.12.31c17,2.07,31.59,15.5,33.95,31.25.74,4.93.37,10,0,15v.15a83.69,83.69,0,0,0-.29,12.17c1-.42,2.11-.83,3.23-1.24l.2-.08.17-.06.43-.15.13,0,.46-.16.12,0,.56-.19a108.16,108.16,0,0,1,22.91-5l.67-.07.51-.05h.14l.5,0h.12l.52,0h.1l.49,0h.13l.51,0h.11c.62-.05,1.24-.08,1.86-.12h.11l.49,0h.2l.42,0h4.5a105.73,105.73,0,0,1,19.57,1.83c7.9,1.51,15.58,6,14.93,12.76-.47,4.88-5.23,8-9.46,8.75l-.55.09a18.93,18.93,0,0,1-2.87.2,46.75,46.75,0,0,1-8.88-1.15c-.83-.17-1.67-.33-2.5-.48a78.46,78.46,0,0,0-13.72-1.21,80.77,80.77,0,0,0-47.32,15.28c-3.38,2.47-7,7.31-7,11.44a5.18,5.18,0,0,0,2.35,4.43l5.58,3.84,18.37,12.63c4.83,3.32,9.92,8.92,10.42,13.95a7.32,7.32,0,0,1,0,.81,6.85,6.85,0,0,1-2,4.89,7.44,7.44,0,0,1-5.49,2.25h-.11c-4.66,0-9.8-3.19-12.45-5.1ZM1585,725.59a8.16,8.16,0,0,1-.4-2.57c0-4.19,3.06-8.66,9.34-13.64l63.88-50.65,1.4-1.11c2.46-2,4.89-3.7,7.71-3.7h.27c16.82.7,31.52,6.34,41.39,15.87a41.79,41.79,0,0,1,12.83,29.54,32.07,32.07,0,0,1-2.22,11.86c-.14.33-.27.66-.42,1a30.1,30.1,0,0,1-26.66,17.42,22.87,22.87,0,0,1-10-2.22c-.74-.35-1.51-.77-2.21-1.16l-.19-.1a19,19,0,0,0-6.34-2.54,6.58,6.58,0,0,0-.9-.06,7.17,7.17,0,0,0-4.15,1.3,4.29,4.29,0,0,0-1.95,3.48,144,144,0,0,1-8.53,49l-.14.37c-1.81,5-4.06,10.11-8.19,13.41a13.36,13.36,0,0,1-8.22,2.93,9.23,9.23,0,0,1-6.37-2.31,10.39,10.39,0,0,1-3.11-8c0-4,1.46-8.3,2.55-11.2l.59-1.59c5.75-15.51,11.51-33.46,7-50.3a15.79,15.79,0,0,0-3.7-7.23,10.2,10.2,0,0,0-7.31-2.79,19.9,19.9,0,0,0-12.11,4.72,67.27,67.27,0,0,0-6.06,6l-.08.08c-2.88,3.09-5.86,6.29-9.55,8.45a15.81,15.81,0,0,1-7.89,2.06c-4,0-8.83-1.64-10.26-6.23ZM756,873.22l-.51-.23-.51-.25-.5-.24-.5-.24-.47-.24-1-.49-.49-.26-.49-.26-.47-.26a84.34,84.34,0,0,1-12-8,87,87,0,0,1-7.64-6.91A92.22,92.22,0,0,1,720.13,842c-1.77-2.64-3.42-5.38-4.93-8.19l-.09-.19-.06-.1-.23-.45c-1.48-2.83-2.83-5.75-4-8.69l0-.12-.12-.3-.1-.25-.12-.3-.14-.37-.07-.18-.14-.34-.05-.16-.38-1,0-.12-.15-.41,0-.12-.18-.51a65.75,65.75,0,0,1-4.14-21.63,40.44,40.44,0,0,1,1.79-12.31c.07-.24.15-.48.23-.72a30.26,30.26,0,0,1,12.68-16.25,23.54,23.54,0,0,1,9.1-3.46,19.72,19.72,0,0,1,2.91-.25H732c2.51,0,6,.51,8.14,2.94a6.18,6.18,0,0,1,1.47,4.83,4.44,4.44,0,0,1-1.78,3.15l-.1.06-.22.16-.13.08-.1.07-.21.15a21.78,21.78,0,0,0-1.77,1.38l-.2.17-.5.44-.07.08-.11.1-.11.11-.09.08-.2.2-.24.24a30.6,30.6,0,0,0-7.49,12.92l0,.1,0,.12a35.93,35.93,0,0,0-1.43,10v1.46l0,.14v.88l0,.26,0,.27,0,.34,0,.28,0,.27,0,.27c1.15,10.15,6.19,20.54,15,30.9,12.43,14.66,27.43,23.24,42.22,24.16.84.06,1.71.08,2.58.08A45.07,45.07,0,0,0,823,843.77l.4-.57a45.32,45.32,0,0,0,4.43-42.09,7.25,7.25,0,0,1,.85-7,3,3,0,0,1,.2-.29,12.59,12.59,0,0,1,9.81-5,9.42,9.42,0,0,1,3.3.57c8.76,3.2,11.53,14,12.32,18.43a55.92,55.92,0,0,1,0,18.88l-.05.27,0,.28-.05.3,0,.16,0,.11,0,.2,0,.23-.06.31-.11.52a62.81,62.81,0,0,1-3.65,11.57,66,66,0,0,1-13.36,20.07l-.12.11a62.32,62.32,0,0,1-10.22,8.39l-.09.06-.28.18-.2.12-.13.08-.31.2a70,70,0,0,1-37.33,10.35,77.42,77.42,0,0,1-32.23-7Zm952.8,82.21c-5.49-.49-9.61-5.46-12.59-15.21-6-19.47-11.23-39.4-15.64-59.25-.49-2.25-1.06-4.81-2.66-6.69a14.91,14.91,0,0,0-4.13-3,17.72,17.72,0,0,1-3.71-2.54,9.31,9.31,0,0,1-2.67-6.84,14.3,14.3,0,0,1,2.78-8.35c3.41-4.51,8.78-7.06,13.53-9.31l31.15-14.78,45.64-21.66,5-2.39c2.34-1.11,5.82-2.59,9-2.59a7.52,7.52,0,0,1,4.8,1.56c3.65,2.93,3.17,8.35,2.74,13.13l0,.16c-1.39,15.39,2.2,31.59,10.4,46.86.66,1.23,1.35,2.46,2,3.72,3.53,6.3,7.19,12.83,7.22,20v.34c-.09,7.4-6.53,14.68-13,14.68a8.72,8.72,0,0,1-4-1c-4.2-2.14-6.13-7-7.74-11.75l-6.51-19.27-7.39-21.86c-1.91-5.65-4.59-11.57-10.07-12.66a7.76,7.76,0,0,0-1.52-.15,8.08,8.08,0,0,0-2.34.34c-4.25,1.26-7.22,5.63-8,9.28-1.11,5.39.59,10.83,2.57,16.39s4.17,11.39,6.38,16.94c1.18,3,3.16,8.76,3.16,14.09s-1.84,8.83-5.5,10.72a9.3,9.3,0,0,1-4.33,1,14.2,14.2,0,0,1-10.07-4.75c-3.67-4-5.35-9.51-6.84-14.33L1722.72,874l-3.83-12.36c-.79-2.55-3.18-4.07-6.39-4.07a9.81,9.81,0,0,0-8.16,4.18l-.15.24c-3.08,5.19-1.9,11.77-.55,17.53a434.26,434.26,0,0,0,13.7,46.66l.13.36c1.72,4.82,3.49,9.79,3.48,14.83a22.92,22.92,0,0,1-.18,2.63c-.78,5.54-5.29,11.51-11.25,11.51l-.77,0Zm-797.81,523.8c-7.54-5.78-15.3-12.28-21-20.61-6.35-9.32-9.83-21.22-9.81-33.51a65.64,65.64,0,0,1,3.74-21.72l.13-.35.05-.14.07-.22.06-.16.08-.21.13-.35,0-.1.09-.22,0-.12.1-.25.23-.58.13-.32a74.91,74.91,0,0,1,8.46-15.31,85.13,85.13,0,0,1,14.28-15.38l.22-.19c.71-.59,1.43-1.17,2.2-1.77l.27-.22.11-.08.27-.21.11-.09.23-.17.16-.13.16-.12.23-.17.14-.1.26-.19.1-.08.37-.27.37-.28.39-.27.38-.28.39-.27c2.1-1.48,4.31-2.89,6.58-4.22,8.74-5.1,16.9-7.69,24.25-7.69a29.06,29.06,0,0,1,7.26.91c8,2.09,14.56,7.71,20.4,12.7l4.7,4,4.69,4a5.8,5.8,0,0,1,0,6.09,12.37,12.37,0,0,1-10.15,5.71,9.24,9.24,0,0,1-1.05-.06c-3.64-.41-7.07-2-10.43-3.52a42.27,42.27,0,0,0-8.57-3.21,22.34,22.34,0,0,0-4.8-.51c-4.92,0-10.35,1.49-16.13,4.44l-.33.17-.13.06-.22.11-.12.08-.3.16-.15.08-.18.09-.16.1-.15.08-.35.18-.09.07-.21.11-.1.06-.22.13-.54.32-.28.17-.77.47-.27.17-.49.31-.28.19c-.23.14-.45.29-.76.5l-.26.18-.47.32-.19.14-.12.09-.16.11-.18.13-.22.16-.15.11-.14.11-.2.13-.1.09-.28.2-.09.08-.3.23-.31.24-.34.27a56.93,56.93,0,0,0-5.81,5.35,53.56,53.56,0,0,0-6.71,8.69l-.09.15-.08.15c-.68,1.12-1.32,2.27-1.9,3.43h0c0,.09-.09.19-.14.29l-.07.13-.08.16-.12.26a44.51,44.51,0,0,0-2.69,7.08,41.36,41.36,0,0,0-1.46,7.8l0,.17,0,.3c-.07.9-.11,1.81-.11,2.73,0,17,11.88,32.9,27.09,36.16,1.64.36,3.45.62,4.9.82l.22,0c5.41.78,11,1.58,14.32,5.79a9.29,9.29,0,0,1,2,5.92,12.23,12.23,0,0,1-1,4.63c-2.17,5.23-7.37,9.31-12.64,9.92a21.85,21.85,0,0,1-2.39.14c-8.56,0-16.68-5.33-23.5-10.55Zm147.69,65.8a58.63,58.63,0,0,1-10.58-2.36c-13.34-4.1-23.91-10.82-30.56-19.44l-.15-.19-.07-.1-.07-.1-.1-.13-.1-.13-.07-.1-.11-.15-.07-.09-.09-.13-.06-.09-.08-.12-.07-.1-.07-.09-.11-.16-.11-.16-.11-.15-.1-.17-.11-.16-.11-.16-.1-.16-.11-.17-.1-.16-.1-.16-.1-.16-.11-.18-.1-.16-.1-.17-.19-.33a51.77,51.77,0,0,1-6.79-23.41c0-.66,0-1.33-.06-2a68.33,68.33,0,0,1,5.55-28c.31-.78.65-1.55,1-2.33.69-1.51,1.43-3,2.21-4.51l.16-.3.1-.2,0-.1.16-.29.15-.27a87.76,87.76,0,0,1,7.45-11.49l.77-1,.15-.18.06-.09.11-.13.11-.14.09-.11.14-.17.07-.08.21-.26c.54-.65,1.08-1.29,1.64-1.93l.14-.15.11-.12.23-.27.09-.07.07-.09.15-.18.11-.12.24-.25.1-.11.11-.12.16-.16.08-.1.08-.08.08-.08.12-.14.09-.09.14-.13.07-.09.1-.1.1-.11c1.69-1.74,3.48-3.41,5.32-5l.29-.24.19-.16.1-.08.15-.12.15-.12.1-.09.25-.19.25-.21.25-.2a65,65,0,0,1,9.94-6.43,55.63,55.63,0,0,1,25.54-6.34,46.77,46.77,0,0,1,18.09,3.51c7.77,3.26,13.44,8.43,16,14.59,6.27,15.3,9.44,30,9.43,43.77a75.53,75.53,0,0,1-4.15,25.18c-.61,1.73-1.32,3.47-2.11,5.17l-.14.29-.13.28-.07.14c-.47,1-1,2-1.55,3l-.09.17a60.72,60.72,0,0,1-11.91,15c-7.94,7.24-17.58,12-27.15,13.34l-.25,0-.25,0-.24,0-.23,0-.29,0-.67.07h-.26l-.25,0h-.15l-.12,0h-.74l-.27,0h-2.06a40.67,40.67,0,0,1-4.71-.27Zm358.16-53.28a288.55,288.55,0,0,0-2.33-36.84,48.79,48.79,0,0,1-.48-6.07c0-3.73.84-6.4,2.65-8.42a8.74,8.74,0,0,1,6.71-2.79,13.8,13.8,0,0,1,10.54,5.18c4,5.12,4.66,11.86,5.06,18.9a697.83,697.83,0,0,1-1,92.71c-.46,6-1.51,12.73-5.7,16.54a10.83,10.83,0,0,1-2.14,1.52,11,11,0,0,1-5.31,1.36c-6.66,0-13.61-5.75-18.27-10.57-20.48-21.23-40.78-43.19-60.32-65.28-.3.44-.59.89-.86,1.36a36,36,0,0,0-4.24,13.11l0,.11v.12c-.41,2.73-.65,5.45-.86,7.85l-1.9,21.33-2,22.18c-.91,10.15-4.06,15.94-9.38,17.21a8.64,8.64,0,0,1-1.9.21c-4.2,0-8.48-3.18-10.43-7.73a24.22,24.22,0,0,1-1.67-9.7c0-2,.12-4,.23-5.78q2.91-46.69,5.81-93.41c.24-3.57.58-6.72,2.58-9a8.68,8.68,0,0,1,6.78-2.82,12.1,12.1,0,0,1,4.65.93c3.89,1.61,6.93,4.82,9.63,7.66l25.08,26.39,25.13,26.45c6.53,6.87,13.29,14,20.61,20.38a287.59,287.59,0,0,0,3.28-43Zm-229.66,68.58a22.32,22.32,0,0,1-1.94-9.79,66.88,66.88,0,0,1,1-9.93l10.3-70.21c.81-5.55,2.15-11,6.5-13.34a8,8,0,0,1,3.87-1c4.21,0,8.74,3.07,10.76,7.28a22.39,22.39,0,0,1,2,9.94c0,2.45-.25,5.1-.51,7.61-.36,3.47-.74,7-1.14,10.42-2.42,21.21-5.49,42.61-9.14,63.61-.67,3.83-1.53,7.8-4.1,10.41a10.22,10.22,0,0,1-1,.89,8.21,8.21,0,0,1-5,1.64c-4.54,0-9.36-3.18-11.44-7.57Z" transform="translate(-629.06 -385.7)"/><path class="cls-3" d="M1060.16,1447.28c-6.33,2.94-12,8.09-17.43,15.73a81.92,81.92,0,0,0-12,25.14,35.23,35.23,0,0,0-1.54,9.41,18.16,18.16,0,0,0,.76,5.46c1.52,4.88,5.49,9.2,11.78,12.85a38.77,38.77,0,0,0,19,5.52,25.69,25.69,0,0,0,9.71-1.82c9.94-4,16.91-14.14,21.31-30.94a68.91,68.91,0,0,0,2.67-17.34,38.89,38.89,0,0,0-.32-4.93c-1.08-8.16-5.24-15.17-11.12-18.74a21.65,21.65,0,0,0-11.2-3,27.6,27.6,0,0,0-11.6,2.62Z" transform="translate(-629.06 -385.7)"/><path class="cls-3" d="M1667.82,682.2c-3,.2-6.28.72-8.43,3A5.65,5.65,0,0,0,1658,689a5.39,5.39,0,0,0,.12,1.17,3.63,3.63,0,0,0,2.16,2.75l13.51,5.47,13.63,5.51a5.58,5.58,0,0,0,2.1.42c2.23,0,4.46-1.43,6-3.84a10.6,10.6,0,0,0,1.62-5.51,8.06,8.06,0,0,0-.76-3.54c-3-6.26-10.76-8.36-16.68-9a65.93,65.93,0,0,0-7.16-.39c-1.5,0-3.06.05-4.63.16Z" transform="translate(-629.06 -385.7)"/><path class="cls-3" d="M1200.58,457.66l-1.22,5L1193.18,488a19.7,19.7,0,0,0-.64,4.36,5.78,5.78,0,0,0,1.43,4.21c1.53,1.59,3.91,1.85,6.26,1.89h1.21a78,78,0,0,0,18.13-2.14c2.78-.68,5.79-1.71,7.09-4.26a5.79,5.79,0,0,0,.6-2.58c0-2.81-1.85-5.75-3.46-8l-8-11.1-8-11.07c-1.26-1.71-3.62-3.11-5.28-3.11a1.81,1.81,0,0,0-1.92,1.48Z" transform="translate(-629.06 -385.7)"/><path class="cls-3" d="M848.41,629.6c-4.2,0-8,2.23-10.83,4.16A61.24,61.24,0,0,0,820,652.25c-1.73,2.83-4.05,7.12-4.23,11.83,0,.18,0,.35,0,.52,0,10.89,10.77,18.6,20.19,24.1,2.69,1.56,5.32,3,8.09,3a7.27,7.27,0,0,0,1.27-.11c5.18-.87,7.67-6.7,9.26-11.67l2.35-7.32,2.37-7.39c1.7-5.31,3.63-11.33,3.62-17.35a25.56,25.56,0,0,0-.3-4c-1.11-6.94-6.68-14.18-14.07-14.26Z" transform="translate(-629.06 -385.7)"/><path class="cls-4" d="M993.23,713.22A426.35,426.35,0,0,0,949.91,757C904.4,810,872.77,872.53,858.44,937.74c-14.42,65.67-10.65,135.77,10.91,202.75,21.51,66.81,59.27,126.06,109.2,171.34,71.62,64.93,170.28,102.18,270.69,102.18a390.2,390.2,0,0,0,113.47-16.59c64.33-19.53,124.08-56.53,172.79-107s83.61-111.36,101.22-176.43a401.55,401.55,0,0,0,13.89-117c-2.91-97-43.33-192.55-110.9-262.19-70-72.18-168-115.79-268.86-119.64-5-.19-10-.29-14.63-.29-95.3,0-191.15,35.86-263,98.36Zm192.2,452.66c28.54-.93,55-19.09,64.41-44.17l.45-1.19c2-5.34,4.21-11.39,9.57-13a8.3,8.3,0,0,1,2.45-.36c5.39,0,10.06,4.95,12.13,9.55a58.18,58.18,0,0,1,2.59,7.71,43.44,43.44,0,0,0,3.78,10c3.32,5.71,9.15,9.48,13.24,11.83a85.36,85.36,0,0,0,42.41,11c19.8,0,38.84-6.38,53.61-18l.38-.29c5.47-4.31,12.29-9.68,18.8-9.68a11.16,11.16,0,0,1,5.17,1.26c4.58,2.38,6.21,7.63,6.21,11.74a16,16,0,0,1-.87,5.28c-2.29,6.47-7.87,11.19-12.47,14.59-18.08,13.35-41.26,20.71-65.29,20.71-26.7,0-51.94-8.83-71.08-24.85a7.2,7.2,0,0,0-4.69-1.73c-4.14,0-9.28,3.3-15.3,9.83-15,16.24-37.77,25.56-62.55,25.56a95.84,95.84,0,0,1-19.34-2c-26.7-5.52-52.85-22.27-73.65-47.17-3.08-3.69-6.39-9.47-6.4-14.63,0-.44,0-.88.07-1.29a8,8,0,0,1,3.21-5.65,7.83,7.83,0,0,1,4.8-1.64c6,0,12.27,6.32,16.52,11.62,17.56,21.9,43.5,35,69.37,35,.83,0,1.65,0,2.47,0Z" transform="translate(-629.06 -385.7)"/><path class="cls-5" d="M1410.05,921c20.5-31.92,63.56-47.29,99.64-35.56,9.72,3.16,18.78,8,27.79,12.83,4.86,2.6,10.46,6.53,9.8,12a62.9,62.9,0,0,1,24.06,105.09c-6.37,6.14-14,10.85-21.71,15.11a389.57,389.57,0,0,1-35.35,16.76,117,117,0,0,1-17.53,6.28,62.89,62.89,0,0,1-29.63.07c-10.09-2.43-19.39-7.31-28.58-12.15a88.49,88.49,0,0,1-12.52-7.51c-9.64-7.35-15.78-18.27-21.39-29a83.71,83.71,0,0,1-.18-75.71l5.6-8.2Zm50.1,128a83,83,0,0,0,73.7-15.5c-25,3.32-51.38-9.83-63.76-31.79s-10-51.34,5.78-71,43.94-28.37,68.06-21c-23.42-23.17-60.73-31.22-91.46-19.34s-53,43.24-53.65,76.18,20.61,65.34,51.26,77.43c3.51,1.39,7.23,2.58,10.07,5.07Zm116.13-100.73a12.64,12.64,0,0,0-4.24-8.68,12.47,12.47,0,1,0,3.35,14,12.64,12.64,0,0,0,.89-5.37Zm-33.14-13.61a12.59,12.59,0,0,0,5.72-2.28c1.85-1.18,3.74-2.73,4.13-4.89a6.22,6.22,0,0,0-.72-3.86,9.86,9.86,0,0,0-10.29-5.27,8.91,8.91,0,0,0-7.12,8.85,8.11,8.11,0,0,0,8.28,7.45Zm-559.24,85c-2.62-4.49-4.8-9.57-9.13-12.46a63.6,63.6,0,0,1,6.74-109.79c2.85-1.43,6-2.82,7.61-5.58,2.07-3.56,5.56-6.05,9.07-8.21,32.61-20,76.9-19,108.56,2.46a92.5,92.5,0,0,1,1.33,144.34,94.77,94.77,0,0,1-40.19,19.28,131,131,0,0,1-32.27,0c-12.23-1.52-24.47-4.88-34.68-11.79a56.26,56.26,0,0,1-17-18.23Zm9.93-126.15c29-8.15,62.8,7.83,74.91,35.42s1,63.28-24.63,79.11a64.84,64.84,0,0,1-58.2,4.47c1.4,11,10.88,19.29,20.68,24.57,28.26,15.21,64.76,13.82,91.67-3.67s43-50.41,40.11-82.36-24.78-61.52-54.57-73.44-66.12-5.58-90,15.9Zm32,32.54c1.19,7.88,9.83,13.77,17.6,12s13-10.83,10.65-18.44a14.53,14.53,0,0,0-28.25,6.44Zm-5.95-14.46c3.57-2.76,3.18-9.16-.69-11.48a10.71,10.71,0,0,0-5.88-1.2c-3.11.1-6.51,1.05-8.12,3.7s-.67,6.74,1.85,8.84a10.71,10.71,0,0,0,9.34,1.74,9.54,9.54,0,0,0,3.5-1.6Z" transform="translate(-629.06 -385.7)"/><path class="cls-5" d="M732,765.6h-.23c-8.64.11-20,6.41-24.7,20-.07.24-.15.48-.23.72a40.75,40.75,0,0,0-1.78,12.31,65.75,65.75,0,0,0,4.14,21.63l.17.51.05.12.15.41,0,.12.37,1,.06.16.14.34.07.18.14.37.12.3.1.25.12.3,0,.12c1.19,2.94,2.54,5.86,4,8.69l.23.46.05.09.1.19A94.2,94.2,0,0,0,739,862.72a84.16,84.16,0,0,0,12,8l.48.26.49.26.49.26c.34.18.65.34,1,.49l.47.24.5.24.5.24.51.25.51.24a77.57,77.57,0,0,0,32.23,7,70,70,0,0,0,37.33-10.35l.32-.19.12-.09.2-.12.28-.18.09-.06a62.32,62.32,0,0,0,10.22-8.39l.11-.12a65.71,65.71,0,0,0,13.37-20.06,63,63,0,0,0,3.65-11.57l.1-.53.06-.29.05-.24,0-.19,0-.12,0-.16.05-.3,0-.28,0-.26a55.46,55.46,0,0,0,0-18.89c-.78-4.47-3.55-15.22-12.31-18.43a9.42,9.42,0,0,0-3.3-.57,12.59,12.59,0,0,0-9.81,5,3,3,0,0,0-.2.29,7.25,7.25,0,0,0-.85,7,45.32,45.32,0,0,1-4.43,42.09l-.4.57a45.09,45.09,0,0,1-36.18,18.53c-.87,0-1.74,0-2.58-.07-14.79-.93-29.79-9.51-42.22-24.16-8.79-10.37-13.83-20.77-15-30.91l0-.27,0-.27,0-.28,0-.34,0-.27,0-.26v-.88l0-.14V803a36,36,0,0,1,1.45-10l0-.12.05-.11a30.5,30.5,0,0,1,7.48-12.91l.24-.24.2-.2.09-.08.11-.11.11-.1.07-.08.5-.44.2-.17c.58-.5,1.18-1,1.77-1.38l.21-.15.1-.07.13-.08.22-.16.1-.06a4.44,4.44,0,0,0,1.78-3.15,6.19,6.19,0,0,0-1.47-4.83c-2.19-2.43-5.64-2.94-8.14-2.94Z" transform="translate(-629.06 -385.7)"/><path class="cls-5" d="M846.49,609.56c-14.2,0-28.71,7-38.8,18.68-.39.45-.77.91-1.15,1.37-9.27,11.43-14.89,27.14-15.83,44.24,0,.52-.05,1-.05,1.48a7.9,7.9,0,0,0,.58,3.3c.8,1.81,2.56,3.06,4,4.07L820.85,701l62.91,45c2.65,1.9,7.79,5.09,12.45,5.09h.11a7.44,7.44,0,0,0,5.49-2.25,6.85,6.85,0,0,0,2-4.89c0-.27,0-.54,0-.81-.5-5-5.59-10.63-10.41-13.95L875,716.59l-5.59-3.84a5.21,5.21,0,0,1-2.36-4.43c0-4.13,3.59-9,7-11.44a80.77,80.77,0,0,1,47.32-15.28,78.27,78.27,0,0,1,13.71,1.21l2.51.47a46.07,46.07,0,0,0,8.88,1.16,20.56,20.56,0,0,0,2.88-.2l.54-.1c4.23-.79,9-3.86,9.46-8.74.65-6.72-7-11.25-14.93-12.76a105.73,105.73,0,0,0-19.57-1.82H921l-.39,0h-.21l-.42,0h-.2l-.49,0h-.11l-1.86.12h-.11l-.51,0h-.13l-.49,0h-.1l-.52,0h-.13l-.49,0h-.14l-.51.05-.67.07a108.16,108.16,0,0,0-22.91,5l-.56.19-.12,0-.46.16-.13,0-.43.15-.17.06-.2.08c-1.12.41-2.18.81-3.23,1.24a83.69,83.69,0,0,1,.29-12.17v-.15c.36-5,.74-10.06,0-15-2.36-15.75-16.95-29.18-33.95-31.25a42.93,42.93,0,0,0-5.12-.31ZM844,691.67c-2.76,0-5.4-1.41-8.09-3-9.42-5.5-20.24-13.21-20.19-24.1,0-.17,0-.34,0-.52.17-4.71,2.5-9,4.23-11.83a61.36,61.36,0,0,1,17.6-18.49c2.84-1.94,6.63-4.16,10.83-4.16h.11c7.39.08,13,7.31,14.07,14.27a25.32,25.32,0,0,1,.31,4c0,6-1.93,12-3.64,17.35l-2.36,7.39-2.35,7.32c-1.59,5-4.08,10.8-9.26,11.68a8.31,8.31,0,0,1-1.27.1Z" transform="translate(-629.06 -385.7)"/><path class="cls-5" d="M1011.46,483.88a10.93,10.93,0,0,0-1.15.06c-6.24.64-11.42,4.69-16.44,8.6l-1,.8a183.37,183.37,0,0,1-39.46,23.39c-10.3,4.48-15.53,9.54-15.54,15a8.76,8.76,0,0,0,.19,1.88,17.65,17.65,0,0,0,2.93,5.94l29.89,44.75,28.7,43c3,4.44,6.68,9,11.62,9l.63,0c4.41-.35,7.29-4.31,9.6-7.5l.27-.38.08-.11a43.35,43.35,0,0,1,3.61-4.56c2.73-2.84,6.25-4.65,9.64-6.4l38.31-19.8c.77-.4,1.53-.81,2.23-1.22l.17-.1.34-.21.19-.11.18-.11.16-.1.12-.08a27.81,27.81,0,0,0,8.15-7.19,12.4,12.4,0,0,0,1.64-3.13,9,9,0,0,0,.3-4.91l0-.12,0-.1,0-.1,0-.11,0-.1,0-.1,0-.1,0-.1,0-.1,0-.1,0-.1c-1.66-4.62-6.78-6.69-11.11-6.69-.42,0-.83,0-1.24.06-5.09.46-9.74,3.18-13.85,5.58l-13.78,8.06L1022,600.54a11.42,11.42,0,0,1-5.82,1.51,17.19,17.19,0,0,1-11.67-5c-4.64-4.57-7-11-9.16-16.64-.61-1.63-1.35-3.61-1-5.49.43-2.08,2.1-3.6,3.67-4.82.32-.25.65-.49,1-.72L1028.28,548a7.11,7.11,0,0,0,2.81-5.92A10.09,10.09,0,0,0,1031,541a10.76,10.76,0,0,0-6-8.57,13,13,0,0,0-5.27-1.07c-4.08,0-8.61,1.68-12.75,4.72a75,75,0,0,0-7.09,6.19,73.24,73.24,0,0,1-7.43,6.46l-.19.14a22,22,0,0,1-12.33,4.4,13,13,0,0,1-5.54-1.19c-3.8-1.77-6.15-5.94-6.14-10.88,0-.16,0-.33,0-.49.17-5.16,2.81-9.35,6.88-10.93a133.13,133.13,0,0,0,43.08-27.25c2.06-1.95,4.3-4.27,4.94-7.17a7.84,7.84,0,0,0-1.77-6.76,13.24,13.24,0,0,0-10-4.7Z" transform="translate(-629.06 -385.7)"/><path class="cls-5" d="M1197,426.27h0a9.74,9.74,0,0,0-4.77,1.25c-4.27,2.38-6,7.47-7.5,12.48l-26.43,91.4a104.62,104.62,0,0,0-3.9,16.86l-.12,1.15c-.08.86-.12,1.75-.12,2.64,0,4.07.92,9.45,5.23,12a8.4,8.4,0,0,0,4.24,1.12c4.24,0,8.85-2.94,11.19-7.15,2.48-4.47,3-9.71,3.51-14.77l.05-.44c.09-.91.19-1.81.29-2.7.61-5.13,2-12.41,7.34-16.38,3.69-2.77,8.49-3.38,12.73-3.92l19.51-2.51,18.45-2.37a23,23,0,0,1,2.93-.2c3.08,0,5.06.85,6.06,2.6l6,10.43,6.23,10.89c2.17,3.79,4.64,8.08,8.57,10.63a12,12,0,0,0,6.34,1.87,8.11,8.11,0,0,0,6.31-2.63,7.93,7.93,0,0,0,1.9-5.32c0-3.15-1.41-7-4.23-11.56-19.57-31.47-40.48-62.67-62.15-92.75l-.08-.11-.32-.43-.12-.18-.07-.08-.17-.22-.1-.14a39.64,39.64,0,0,0-8.76-8.61,14.59,14.59,0,0,0-8-2.82Zm4.44,72.16h-1.21c-2.35-.05-4.73-.31-6.26-1.9a5.74,5.74,0,0,1-1.43-4.21,19.11,19.11,0,0,1,.65-4.36l6.18-25.32,1.21-5a1.81,1.81,0,0,1,1.92-1.48c1.66,0,4,1.4,5.28,3.12l8,11.06,8,11.1c1.61,2.25,3.47,5.18,3.46,8a5.69,5.69,0,0,1-.6,2.58c-1.3,2.55-4.31,3.58-7.08,4.25a77.57,77.57,0,0,1-18.14,2.15Z" transform="translate(-629.06 -385.7)"/><path class="cls-5" d="M1346.76,444.42c-4.14,0-7.62,1.58-9.55,4.34a9.25,9.25,0,0,0-1.61,5.37,14.34,14.34,0,0,0,3.6,9.21c3.6,4.06,8.82,6.26,13.43,8.2l10.87,4.59,19.32,8.17c3.87,1.63,8.51,4.66,9.93,8.25a5.94,5.94,0,0,1,.44,2.19,5.72,5.72,0,0,1-.52,2.43l-10.85,24.4L1370,548.09c-1.91,4.3-4.08,9.17-4.09,14.24,0,.34,0,.67,0,1,.29,5.17,3.82,10.83,9.23,11.36a8.77,8.77,0,0,0,.88,0c6.74,0,11.12-7.82,13.61-14.38l10.43-27.53,10-26.4a10.67,10.67,0,0,1,5.64-5.87,16.89,16.89,0,0,1,1.77-.72,18.75,18.75,0,0,1,4-.84l.23,0,.14,0h.19l.17,0h1.25a21.48,21.48,0,0,1,6.62,1,62.19,62.19,0,0,1,10.43,4.93,60.9,60.9,0,0,0,10.57,5,21.27,21.27,0,0,0,6.49,1c5.16,0,11.41-2,13.47-7.63a10.33,10.33,0,0,0,.62-3.56c0-4.58-2.89-8.71-5.35-10.86-4-3.48-9.12-5.21-14.49-6.81-7.35-2.19-15-4.25-21.79-6.06l-.14,0c-22.81-6.11-46.39-12.44-66.81-24.78l-1.58-.95c-3.55-2.18-7.22-4.44-11.34-5.38a15.7,15.7,0,0,0-3.47-.38Z" transform="translate(-629.06 -385.7)"/><path class="cls-5" d="M1535,515.4a5.63,5.63,0,0,0-.71,0c-5.28.49-8.5,5.73-11,10.79-8.8,18.16-17.15,36.71-24.83,55.12a126.48,126.48,0,0,0-6.93,20.24l-.07.29,0,.11,0,.21a58.26,58.26,0,0,0-1,6l0,.29a37.58,37.58,0,0,0,1.5,15.61c3.13,9.64,11.29,18.13,21.81,22.69a57.6,57.6,0,0,0,23,4.4,81.17,81.17,0,0,0,8.84-.5,92.76,92.76,0,0,0,68.45-44.34c3.17-5.39,4.71-10,4.7-14.05a13.58,13.58,0,0,0-.92-5c-1.4-3.61-5.61-6.33-9.78-6.33a6.48,6.48,0,0,0-6,3.25,84.34,84.34,0,0,1-63.37,42.28,48.72,48.72,0,0,1-5.17.29c-6,0-13.92-1.3-18.1-7.49a16,16,0,0,1-2.62-9.28c0-5.27,1.91-10.94,3.58-15.29a499.59,499.59,0,0,1,23.26-51.88l.06-.12c2.55-4.9,5.18-10,5.18-15.43,0-.22,0-.44,0-.66-.22-5.32-4.31-11.24-9.85-11.24Z" transform="translate(-629.06 -385.7)"/><path class="cls-5" d="M1666.89,653.92c-2.81,0-5.25,1.75-7.71,3.7l-1.4,1.11-63.88,50.65c-6.28,5-9.34,9.44-9.34,13.64a8.41,8.41,0,0,0,.4,2.57c1.44,4.59,6.24,6.23,10.26,6.23a15.84,15.84,0,0,0,7.89-2.06c3.7-2.16,6.67-5.35,9.55-8.45l.08-.08a67.27,67.27,0,0,1,6.06-6,19.88,19.88,0,0,1,12.11-4.72,10.16,10.16,0,0,1,7.31,2.79,15.79,15.79,0,0,1,3.7,7.23c4.55,16.84-1.21,34.79-7,50.3l-.59,1.59c-1.09,2.89-2.53,7.21-2.54,11.2a10.31,10.31,0,0,0,3.1,8,9.19,9.19,0,0,0,6.37,2.32,13.36,13.36,0,0,0,8.22-2.93c4.13-3.3,6.38-8.4,8.2-13.41l.13-.37a144,144,0,0,0,8.53-49,4.29,4.29,0,0,1,1.95-3.48,7.17,7.17,0,0,1,4.15-1.3,6.69,6.69,0,0,1,.9.06,19.18,19.18,0,0,1,6.34,2.54l.19.11c.7.38,1.46.8,2.21,1.15a22.86,22.86,0,0,0,10,2.21,30.11,30.11,0,0,0,26.66-17.41q.23-.49.42-1a32.07,32.07,0,0,0,2.22-11.86,41.75,41.75,0,0,0-12.83-29.53c-9.87-9.54-24.57-15.18-41.39-15.87Zm22.58,50.42a5.59,5.59,0,0,1-2.1-.43l-13.63-5.51-13.51-5.47a3.63,3.63,0,0,1-2.16-2.75A5.39,5.39,0,0,1,1658,689a5.65,5.65,0,0,1,1.44-3.81c2.15-2.28,5.47-2.79,8.44-3,1.56-.11,3.12-.16,4.62-.16a65.61,65.61,0,0,1,7.15.39c5.93.66,13.64,2.75,16.69,9a8.24,8.24,0,0,1,.77,3.54,10.7,10.7,0,0,1-1.63,5.51c-1.51,2.41-3.73,3.85-6,3.85Z" transform="translate(-629.06 -385.7)"/><path class="cls-5" d="M1774.48,802.8c-3.16,0-6.64,1.48-9,2.59l-5,2.39-45.64,21.65-31.15,14.79c-4.75,2.25-10.12,4.8-13.53,9.31a14.3,14.3,0,0,0-2.78,8.35,9.33,9.33,0,0,0,2.67,6.84,17.35,17.35,0,0,0,3.71,2.54,14.91,14.91,0,0,1,4.13,3c1.6,1.88,2.17,4.44,2.67,6.7,4.41,19.84,9.66,39.77,15.62,59.24,3,9.75,7.11,14.72,12.6,15.21l.77,0c6,0,10.47-6,11.24-11.5a19.41,19.41,0,0,0,.18-2.64c0-5-1.75-10-3.47-14.83l-.12-.36a432.54,432.54,0,0,1-13.71-46.65c-1.35-5.77-2.53-12.35.55-17.54l.15-.24a9.81,9.81,0,0,1,8.16-4.18c3.21,0,5.6,1.52,6.39,4.07l3.83,12.36,3.83,12.35c1.48,4.82,3.17,10.29,6.84,14.33a14.2,14.2,0,0,0,10.07,4.75,9.3,9.3,0,0,0,4.33-1c3.66-1.89,5.51-5.5,5.5-10.72s-2-11.11-3.16-14.09c-2.21-5.55-4.36-11.25-6.38-16.93s-3.68-11-2.58-16.4c.75-3.65,3.73-8,8-9.28a8.08,8.08,0,0,1,2.34-.34,7.76,7.76,0,0,1,1.52.15c5.48,1.09,8.16,7,10.07,12.66l7.39,21.86,6.51,19.27c1.61,4.77,3.54,9.61,7.74,11.75a8.72,8.72,0,0,0,4,1c6.48,0,12.92-7.27,13-14.68v-.34c0-7.17-3.69-13.7-7.22-20-.7-1.26-1.39-2.49-2-3.72-8.2-15.27-11.79-31.47-10.4-46.86v-.16c.43-4.78.92-10.19-2.73-13.13a7.52,7.52,0,0,0-4.8-1.56Z" transform="translate(-629.06 -385.7)"/><path class="cls-5" d="M1262.31,1107.15a8.64,8.64,0,0,0-2.45.35c-5.36,1.63-7.6,7.68-9.57,13l-.45,1.19c-9.38,25.08-35.87,43.24-64.41,44.18-.82,0-1.64,0-2.47,0-25.87,0-51.81-13.08-69.37-35-4.25-5.3-10.57-11.62-16.52-11.62a7.83,7.83,0,0,0-4.8,1.64,8,8,0,0,0-3.21,5.65c0,.41-.07.85-.07,1.29,0,5.16,3.32,10.94,6.4,14.63,20.8,24.89,46.95,41.65,73.65,47.17a95.84,95.84,0,0,0,19.34,2c24.78,0,47.57-9.32,62.55-25.56,6-6.53,11.16-9.84,15.3-9.84a7.21,7.21,0,0,1,4.69,1.74c19.14,16,44.38,24.85,71.08,24.85,24,0,47.21-7.36,65.28-20.71,4.61-3.4,10.19-8.12,12.48-14.59a16,16,0,0,0,.87-5.28c0-4.11-1.64-9.36-6.21-11.74a11.16,11.16,0,0,0-5.17-1.26c-6.51,0-13.33,5.37-18.8,9.68l-.37.29c-14.78,11.61-33.82,18-53.62,18a85.37,85.37,0,0,1-42.41-11c-4.09-2.35-9.92-6.12-13.24-11.83a43.44,43.44,0,0,1-3.78-10,57.7,57.7,0,0,0-2.59-7.71c-2.07-4.6-6.75-9.55-12.13-9.55Z" transform="translate(-629.06 -385.7)"/><path class="cls-5" d="M945,1352.88c-7.35,0-15.51,2.59-24.25,7.69-2.27,1.33-4.48,2.75-6.58,4.22l-.39.27-.38.28-.38.27-.38.28-.37.27-.1.08-.26.19-.14.1-.23.17-.16.12-.16.13-.22.17-.12.09-.27.21-.11.08-.27.22c-.77.6-1.49,1.18-2.2,1.77l-.22.19a85.13,85.13,0,0,0-14.28,15.38,75.17,75.17,0,0,0-8.47,15.31l-.13.32-.23.58-.09.25-.05.12-.08.22,0,.1-.13.35-.08.21-.06.16-.08.22,0,.14-.12.35a65.64,65.64,0,0,0-3.74,21.72c0,12.29,3.46,24.19,9.81,33.51,5.68,8.33,13.44,14.83,21,20.61,6.82,5.22,14.94,10.55,23.5,10.55a21.85,21.85,0,0,0,2.39-.14c5.27-.61,10.47-4.69,12.64-9.92a12.39,12.39,0,0,0,1-4.63,9.29,9.29,0,0,0-2-5.92c-3.31-4.21-8.91-5-14.32-5.78l-.22,0c-1.45-.21-3.26-.46-4.9-.82-15.21-3.26-27.11-19.15-27.09-36.16,0-.91,0-1.83.11-2.73l0-.3v-.17a42,42,0,0,1,1.47-7.8A49.72,49.72,0,0,1,915.42,1395a56.93,56.93,0,0,1,5.81-5.35l.34-.27.31-.24.3-.23.09-.08.28-.2.1-.09.2-.13.14-.11.15-.11.22-.16.18-.13.16-.11.13-.09.18-.14.47-.32.26-.18c.31-.21.53-.36.76-.5l.28-.19.49-.31.27-.17.77-.47.28-.17.54-.32.22-.13.1-.06.21-.11.09-.07.35-.18.15-.08.17-.09.17-.1.15-.08.3-.16.12-.08.22-.1.13-.07.33-.17c5.78-3,11.21-4.45,16.13-4.45a23,23,0,0,1,4.8.51,42.9,42.9,0,0,1,8.57,3.22c3.36,1.54,6.79,3.11,10.43,3.52a9.24,9.24,0,0,0,1.05.06,12.37,12.37,0,0,0,10.15-5.71,5.8,5.8,0,0,0,0-6.09l-4.69-4-4.7-4c-5.84-5-12.41-10.61-20.4-12.7a29.06,29.06,0,0,0-7.26-.91Z" transform="translate(-629.06 -385.7)"/><path class="cls-5" d="M1072.94,1420.42a55.63,55.63,0,0,0-25.54,6.34,64.39,64.39,0,0,0-9.93,6.43l-.26.2-.25.21-.25.19-.1.09-.15.12-.15.12-.1.08-.19.16-.29.24c-1.84,1.55-3.63,3.22-5.32,5l-.1.11-.1.1-.07.09-.14.13-.09.09-.12.14-.08.08-.08.08-.08.1-.16.16-.11.12-.1.11-.24.25-.11.12-.15.18-.07.09-.09.07-.23.27-.11.12-.14.15c-.56.64-1.1,1.28-1.64,1.93l-.21.26-.07.08-.14.17-.09.11-.11.14-.11.13-.06.09-.15.18-.77,1a87.76,87.76,0,0,0-7.45,11.49l-.15.27-.16.29,0,.1-.1.2-.16.3c-.78,1.48-1.52,3-2.21,4.51a72.17,72.17,0,0,0-6.48,32.34,52,52,0,0,0,6.78,23.41l.2.33.1.17.1.16.11.18.1.16.1.16.1.16.11.17.1.16.11.16.11.16.1.17.11.15.11.16.11.16.07.09.07.11.08.11.06.1.09.11.07.1.11.15.07.09.1.14.1.13.07.09.07.11.15.19c6.66,8.62,17.22,15.34,30.57,19.45a59.11,59.11,0,0,0,10.57,2.35,40.67,40.67,0,0,0,4.71.27h2.06l.27,0h1l.25,0h.26l.67-.07.29,0,.23,0,.24,0,.25,0,.25,0c9.57-1.36,19.21-6.1,27.14-13.34a60.53,60.53,0,0,0,11.92-15l.09-.17c.55-1,1.08-2,1.56-3l.06-.14.13-.28.14-.29c.79-1.7,1.5-3.44,2.11-5.17a75.53,75.53,0,0,0,4.15-25.18c0-13.74-3.16-28.47-9.43-43.77-2.52-6.15-8.19-11.34-16-14.59a46.77,46.77,0,0,0-18.09-3.51Zm-12.23,101a38.74,38.74,0,0,1-19-5.52c-6.29-3.65-10.25-8-11.77-12.85a18.14,18.14,0,0,1-.78-5.46,35.61,35.61,0,0,1,1.55-9.41,82,82,0,0,1,12-25.14c5.4-7.64,11.1-12.79,17.43-15.73a27.6,27.6,0,0,1,11.6-2.62,21.55,21.55,0,0,1,11.2,3c5.88,3.57,10,10.58,11.12,18.74a37.13,37.13,0,0,1,.32,4.93,68.45,68.45,0,0,1-2.68,17.34c-4.39,16.8-11.36,26.92-21.3,30.94a25.69,25.69,0,0,1-9.71,1.82Z" transform="translate(-629.06 -385.7)"/><path class="cls-5" d="M1206.81,1456.1a8,8,0,0,0-3.87,1c-4.34,2.34-5.69,7.79-6.5,13.33l-10.3,70.22a68.25,68.25,0,0,0-1,9.93,22.32,22.32,0,0,0,1.94,9.79c2.09,4.38,6.9,7.56,11.44,7.56a8.27,8.27,0,0,0,5-1.63,10.22,10.22,0,0,0,1-.89c2.57-2.61,3.43-6.57,4.09-10.41,3.66-21,6.73-42.4,9.15-63.61.4-3.47.78-6.95,1.14-10.42a75.92,75.92,0,0,0,.5-7.61,22.26,22.26,0,0,0-1.94-9.94c-2-4.22-6.55-7.28-10.76-7.28Z" transform="translate(-629.06 -385.7)"/><path class="cls-5" d="M1423.34,1437.63a8.74,8.74,0,0,0-6.71,2.79c-1.81,2-2.65,4.69-2.65,8.42a48.79,48.79,0,0,0,.48,6.07,287.9,287.9,0,0,1-1,79.89c-7.32-6.4-14.08-13.51-20.61-20.38L1367.77,1488l-25.08-26.39c-2.7-2.84-5.75-6-9.63-7.66a12.32,12.32,0,0,0-4.65-.92,8.67,8.67,0,0,0-6.78,2.81c-2,2.32-2.35,5.46-2.57,9l-5.82,93.41c-.11,1.76-.23,3.76-.23,5.78a24.26,24.26,0,0,0,1.67,9.7c2,4.55,6.24,7.73,10.43,7.73a8.09,8.09,0,0,0,1.9-.22c5.32-1.26,8.48-7,9.38-17.2l2-22.18,1.89-21.32c.22-2.41.46-5.13.86-7.86v-.12l0-.11a36,36,0,0,1,4.24-13.11c.27-.46.56-.92.86-1.36,19.54,22.09,39.84,44,60.32,65.28,4.66,4.82,11.6,10.57,18.27,10.57a10.93,10.93,0,0,0,5.31-1.36,10.77,10.77,0,0,0,2.13-1.52c4.2-3.81,5.25-10.5,5.71-16.54a697.85,697.85,0,0,0,1-92.71c-.4-7-1.09-13.78-5.06-18.9a13.8,13.8,0,0,0-10.54-5.18Z" transform="translate(-629.06 -385.7)"/></svg>