<svg id="Draw_Layer" data-name="Draw Layer" xmlns="http://www.w3.org/2000/svg" viewBox="0 0 351.22 100.82"><defs><style>.cls-1{fill:#161616;}.cls-2{fill:#fefefe;}</style></defs><title>Crazy_Eyes</title><path class="cls-1" d="M1522.92,465.28c-16.48,0-33,8.75-41.46,23l-2.88,4.58a45.61,45.61,0,0,0,1.6,41.24c3.27,5.74,6.84,11.57,12.24,15.38a47.13,47.13,0,0,0,7,3.84c5.1,2.45,10.26,4.93,15.81,6a34.25,34.25,0,0,0,16.13-.63,63.34,63.34,0,0,0,9.43-3.78,209.24,209.24,0,0,0,18.92-9.83,54.58,54.58,0,0,0,11.52-8.66,34.28,34.28,0,0,0-15.2-56.77c.25-3-2.88-5-5.57-6.34a94.55,94.55,0,0,0-15.4-6.43,43.72,43.72,0,0,0-12.07-1.66ZM1511.29,557a14.85,14.85,0,0,0-4.74-2.27l-.84-.29a41,41,0,0,1-10-5.18,46.53,46.53,0,0,1-17-22.46,42.55,42.55,0,0,1-2.5-13.53c-.3-17.94,11.1-35.45,27.72-42.59a45.05,45.05,0,0,1,17.91-3.6,48.7,48.7,0,0,1,25.64,7.28,44.79,44.79,0,0,1,6.67,5.05h0l0,0a32.87,32.87,0,0,0-8.39-1.07,35.7,35.7,0,0,0-28.25,13.89,34,34,0,0,0-5.61,12,36.55,36.55,0,0,0-.57,14.8,33.89,33.89,0,0,0,4.45,12,35.43,35.43,0,0,0,34.3,16.21l1.05-.16s0,0,0,0h0a45.51,45.51,0,0,1-29.77,11.1,43.07,43.07,0,0,1-10.1-1.19Zm38.26-67.85a4.88,4.88,0,0,1,3.72-5,5,5,0,0,1,1-.11,5.51,5.51,0,0,1,4.69,2.79,3.46,3.46,0,0,1,.48,2.1,4.51,4.51,0,0,1-2.17,2.77,7,7,0,0,1-3.08,1.36,2.61,2.61,0,0,1-.4,0,4.47,4.47,0,0,1-4.28-3.94Zm10,14a7.05,7.05,0,0,1,2.13-8.14,6.83,6.83,0,0,1,10.91,4.81,6.75,6.75,0,0,1-.39,2.95,6.94,6.94,0,0,1-6.2,4.49h-.18a7,7,0,0,1-6.27-4.12Z" transform="translate(-1229.55 -465.28)"/><path class="cls-1" d="M1256.36,476.11a13.83,13.83,0,0,0-4.78,4.65c-.82,1.54-2.5,2.35-4,3.19a34.67,34.67,0,0,0-1.48,59.94c2.42,1.49,3.7,4.21,5.22,6.61a30.78,30.78,0,0,0,9.65,9.59c5.7,3.56,12.43,5.14,19.12,5.73a71.94,71.94,0,0,0,17.59-.63,52.18,52.18,0,0,0,17.35-8c1.43-1,2.82-2.12,4.15-3.28a50.42,50.42,0,0,0-3.6-78.61,55.89,55.89,0,0,0-59.19.83Zm31-7.65a45.76,45.76,0,0,1,15.52,2.65,48.82,48.82,0,0,1,31.2,38.93,47.94,47.94,0,0,1-3,23.29l-.09.24a.5.5,0,0,0,0,.13,52,52,0,0,1-2.38,5.14l0,.07a.41.41,0,0,0,0,.09,48.09,48.09,0,0,1-14.64,16.72,50,50,0,0,1-49.87,3.83,26.51,26.51,0,0,1-8.77-6.63,13.55,13.55,0,0,1-3-6.36h0a0,0,0,0,0,0,0,34.67,34.67,0,0,0,12.19,2.18,35.19,35.19,0,0,0,19.41-5.78,32.29,32.29,0,0,0,8.05-7.76,36.82,36.82,0,0,0,6.76-25.38,32.4,32.4,0,0,0-3-10.42,32.94,32.94,0,0,0-9.91-11.91.05.05,0,0,0,0,0l-.14-.11a37,37,0,0,0-11.37-5.71l-.13,0h0a35.74,35.74,0,0,0-10.12-1.47,33.69,33.69,0,0,0-8,1c-.59.16-1.18.32-1.77.51l0,0,0,0a48,48,0,0,1,33.2-13.11Zm-25.67,22.65a3.91,3.91,0,0,1-1.18-4.81c1-1.7,3.14-2.1,4.36-2.19l.66,0a5.12,5.12,0,0,1,2.57.57,4,4,0,0,1,.62,6.27,5.26,5.26,0,0,1-1.88.94,6.85,6.85,0,0,1-1.89.27,5.31,5.31,0,0,1-3.26-1Zm10.52,7.56a8.17,8.17,0,0,1,2.31-7.2,8.08,8.08,0,0,1,5.56-2.2,8.34,8.34,0,0,1,1.73.19,8.13,8.13,0,0,1,5.7,5.13,8.25,8.25,0,0,1-5.44,10.28,7.17,7.17,0,0,1-1.82.24,8.41,8.41,0,0,1-8-6.44Z" transform="translate(-1229.55 -465.28)"/><path class="cls-2" d="M1521.86,467.09a45.05,45.05,0,0,0-17.91,3.6c-16.62,7.13-28,24.65-27.72,42.58s12.7,35.26,29.48,41.18l.84.29a15,15,0,0,1,4.74,2.27,43.06,43.06,0,0,0,10.1,1.18,45.46,45.46,0,0,0,29.77-11.1,36.12,36.12,0,0,1-5.45.42,34.57,34.57,0,1,1,.06-69.14,32.93,32.93,0,0,1,8.39,1.07,48,48,0,0,0-32.3-12.35Z" transform="translate(-1229.55 -465.28)"/><path class="cls-2" d="M1565.77,493.67a6.86,6.86,0,0,0-4.1,1.33,6.82,6.82,0,0,0,4.14,12.25h.18a6.85,6.85,0,0,0,6.59-7.45,6.73,6.73,0,0,0-6.81-6.13Z" transform="translate(-1229.55 -465.28)"/><path class="cls-2" d="M1554.31,484.07a4.42,4.42,0,0,0-1,.11,4.86,4.86,0,0,0-3.72,5,4.46,4.46,0,0,0,4.28,3.94l.4,0a7,7,0,0,0,3.09-1.36,4.53,4.53,0,0,0,2.16-2.77,3.6,3.6,0,0,0-.47-2.1,5.52,5.52,0,0,0-4.7-2.78Z" transform="translate(-1229.55 -465.28)"/><path class="cls-2" d="M1287.37,468.46a48,48,0,0,0-33.2,13.11,32.9,32.9,0,0,1,9.75-1.46c13.42,0,26.18,7.75,31.76,19.28,7.18,14.84,1.87,34.38-11.83,43.56a35.19,35.19,0,0,1-19.41,5.78,34.45,34.45,0,0,1-12.19-2.19c1.09,6.84,7.83,11.08,11.74,13a50.06,50.06,0,0,0,49.88-3.83c14.3-10.05,22.42-28.41,20.22-45.68a48.82,48.82,0,0,0-31.2-38.93,45.76,45.76,0,0,0-15.52-2.65Z" transform="translate(-1229.55 -465.28)"/><path class="cls-2" d="M1280.09,489.27a8.08,8.08,0,0,0-5.56,2.2,8.17,8.17,0,0,0-2.31,7.2,8.4,8.4,0,0,0,8,6.44,7.17,7.17,0,0,0,1.82-.24,8.25,8.25,0,0,0,5.44-10.28,8.1,8.1,0,0,0-5.7-5.12,7.78,7.78,0,0,0-1.73-.2Z" transform="translate(-1229.55 -465.28)"/><path class="cls-2" d="M1265.54,484.09l-.66,0c-1.22.09-3.41.49-4.36,2.19a3.9,3.9,0,0,0,1.19,4.81,5.28,5.28,0,0,0,3.25,1,6.73,6.73,0,0,0,1.88-.27,5.23,5.23,0,0,0,1.89-.94,4,4,0,0,0-.61-6.27,5.18,5.18,0,0,0-2.58-.57Z" transform="translate(-1229.55 -465.28)"/></svg>