<svg id="Draw_Layer" data-name="Draw Layer" xmlns="http://www.w3.org/2000/svg" viewBox="0 0 541.3 1000.27"><defs><style>.cls-1{fill:#2c2c2c;}.cls-2{fill:#bebebe;}.cls-2,.cls-3,.cls-4{opacity:0.7;isolation:isolate;}.cls-3{fill:#6edaf4;}.cls-4{fill:#725af7;}.cls-5{fill:#161616;}.cls-6{fill:#fefefe;}</style></defs><title>Crazy_bunny</title><path class="cls-1" d="M724.1,265c-.3.4-.5.8-.8.9-6.5.7-10.6,5.1-14.2,9.9-2.2,2.9-4.2,5.8-5.1,9.4-1,3.9-3,7.6-3.9,11.5a79.32,79.32,0,0,0-1.7,11.9c-.6,5.5-1.2,11-1.6,16.6-.1,1.6.8,3.3,1,5,.6,6.3,1.1,12.7,1.7,19a17.56,17.56,0,0,0,.6,3.9c1.4,4.4,2.9,8.9,4.4,13.3,1.3,3.9,2.2,8.1,4,11.8a209.23,209.23,0,0,0,11.2,19.5,126.25,126.25,0,0,0,12,15.3c5.1,5.7,9.9,11.5,14.4,17.6a48.43,48.43,0,0,1,9.1,19.8,31.35,31.35,0,0,1-.6,15.8c-1.8,5.8-5.3,10-8.9,14.4-2.6,3.2-5.4,6.3-7.7,9.7a138.34,138.34,0,0,0-7.6,12.2,181,181,0,0,0-9.2,18.1,166.32,166.32,0,0,0-6.2,18c-1.4,4.8-2.3,9.7-3.3,14.5a86.63,86.63,0,0,0-1.6,10,73.84,73.84,0,0,0-.5,10.5c.2,10.1-.5,20.2,1.4,30.3,1.1,5.8,1.7,11.8,3.4,17.5,1.5,5.1,2.4,10.4,4.9,15.3a88.28,88.28,0,0,1,5.2,13.2c.4,1.3,2.7,2.4.6,4.6-4,4.1-7.5,8.6-11.3,12.8-5.3,5.7-9.5,12.2-13.6,18.8a132.15,132.15,0,0,0-6.9,12.2c-2.1,4.3-3.6,8.9-5.3,13.4-2,5.4-4.2,10.7-5.9,16.2a126.3,126.3,0,0,0-3.3,14.8,99.29,99.29,0,0,0-1.6,12.2c-.4,6.1-.4,12.3-.6,18.4s-.5,12.5-1.1,18.7a98.08,98.08,0,0,1-2.2,14.4c-1,4-3.2,7.7-4.2,11.7-1.4,5.9-5.6,10.3-7.8,15.7-1.8,4.4-4.2,8.5-5.9,12.9-1.4,3.6-1.9,7.6-3.4,11.2a67.29,67.29,0,0,0-4.3,15.8,16.71,16.71,0,0,1-.6,3.9c-1.9,5-2.1,10.4-2.7,15.6-.3,3.2-.3,6.4-.6,9.6,0,.6-.7,1.1-1.1,1.7v34.4c.4.4,1,.8,1.1,1.3.3,4.6.3,9.2.6,13.7s1,9.1,1.6,13.6c.4,2.8,1,5.6,1.6,8.4.8,3.7,1.8,7.3,2.6,11,.3,1.3.3,2.6.6,3.8.9,3.6,1.9,7.1,2.7,10.7s1.4,7.5,2.2,11.1c.8,3.2,1.8,6.4,2.7,9.6,1.3,4.9,2.4,9.8,3.9,14.6s2.9,9.4,4.5,14,3.3,9.1,4.7,13.7c.9,2.9,1.4,6,2.3,8.9,1.3,4.1,2.9,8.1,4.2,12.2.9,3,1.5,6.1,2.4,9.2.7,2.4,1.6,4.6,2.3,7,.3,1,.1,2.1.5,3.1a88.43,88.43,0,0,1,3.9,14c.7,4.3,2.2,8.4,3.2,12.6,1.2,4.8,2.3,9.7,3.3,14.5,1.2,5.5,2.2,11,3.3,16.5.6,3.2,1,6.5,1.7,9.7,1,4.6,2.1,9.2,3.2,13.7s1.8,9.1,3.4,13.4c2.7,7.5,5.6,15,10.9,21.3,2,2.3,3.7,4.9,5.9,6.9a49.22,49.22,0,0,0,15.2,9.5c5.3,2,10.6,3.4,16.3,3.1a26.34,26.34,0,0,0,15.5-5.5,46.49,46.49,0,0,0,5.9-4.9,56.41,56.41,0,0,0,9.2-14.3c1.5-3.2,2.9-6.5,4.4-9.7,1.6-3.5,3.2-7.1,4.7-10.7,1.3-3.3,2.3-6.7,3.6-10,1.5-3.8,3.3-7.4,4.9-11.1,1.4-3.4,2.5-6.8,3.9-10.2,1.6-4.1,3.2-8.2,5-12.2,1.5-3.5,3.2-6.9,4.9-10.3,2.6-5.3,5.1-10.7,9-15.2,2-2.3,3.7-5.1,6.1-7a69.4,69.4,0,0,1,11.4-8.1c2.4-1.3,5.6-1.5,8.6-1.8a31.08,31.08,0,0,1,6.1,0,34.05,34.05,0,0,1,13.9,4.2c7,3.7,12.1,9.4,16.7,15.5a44.52,44.52,0,0,1,7.3,14.8c1.3,4.7,2.2,9.5,3.3,14.3,1.8,7.9.5,16,1.7,23.7s.3,15.1.9,22.6a70,70,0,0,0,.6,8c.7,3.9,1.7,7.7,2.7,11.5,1.1,4.2,1.9,8.5,3.4,12.6a33,33,0,0,0,4.2,8.4,130.27,130.27,0,0,0,10.2,11.9c3.6,3.8,8.4,5.5,13.2,7.2,1.5.5,3.1.9,4.8,1.5q7.2.15,14.1,0c2.2-.8,4.4-1.3,6.6-2.1,1.4-.5,3.1-1.1,4-2.2,3.1-3.4,6.8-6.6,8.8-10.6,2.4-4.7,3.4-10.1,4.7-15.3.8-3.1,1.2-6.3,1.7-9.4a86.63,86.63,0,0,0,1.6-10,91.38,91.38,0,0,1,1.6-12.8c1-4.8.9-9.8,1.6-14.7.9-7,.7-14.2,1.7-21.2.8-5.8.5-11.7.7-17.6.4-15.4-1-30.8,1.1-46.2.6-4,.8-8.3,2.4-11.9,1.8-4.1,2.9-8.5,6-12.1,1.3-1.5,1.4-1.5,2.6-.4a29.32,29.32,0,0,0,14,6.6,37.61,37.61,0,0,0,19.1-.8c4.9-1.7,9.4-3.8,13.2-7.2a9.13,9.13,0,0,1,1.3-.8,10.93,10.93,0,0,1,.5,1.7,33.86,33.86,0,0,0,1.3,5.5c1.8,4.4,5.2,7.1,9.3,9.5,6.7,3.9,13.5,3.8,20.1.5a27.43,27.43,0,0,0,10.8-10.3c3.9-6.4,6.6-13.2,6.8-20.8,0-.3.1-.7.1-1a3.59,3.59,0,0,0,1,.7c2.1.8,4.2,2.1,6.4,2.4a21.85,21.85,0,0,0,18.1-5.9c5.4-5,8.6-10.8,8.4-18.2-.1-3.3.4-6.7-1-10-1.2-2.9-1.2-6.3-2.6-9-2.5-4.9-5.7-9.5-8.6-14.3a2.33,2.33,0,0,1,.2-2c3.7-4.6,4.9-10,5.3-15.6.2-2.6-.8-5.3-1.5-7.8-.6-2.2-.9-4.7-2.2-6.5-3.9-5.3-8.4-10.2-15.5-11.3-2.3-.4-4.6-1.2-6.9-1.2a31.36,31.36,0,0,0-7.3,1.4,25.87,25.87,0,0,0-13.1,7.5,3.92,3.92,0,0,1-1,.8,5.85,5.85,0,0,1-.2-1.3,21.84,21.84,0,0,0-4.4-13.5,22.7,22.7,0,0,0-18.3-9.7,7,7,0,0,0-2.5.5,7.42,7.42,0,0,1-2.5.5c-4-.1-6.7,2.4-9.7,4.4-2,1.3-3.6,3.3-5.3,4.9l-.3,1.6-.7-.2c.3-.5.5-1,.9-1.6.4-5.3.5-10.5,1.6-15.7,1-4.8.7-9.9.7-14.8,0-8.1-.2-16.1-.6-24.2-.2-4,.1-7.9-.8-11.9-1.1-4.9-.6-10.1-1.8-15.2-1.1-4.4-1.2-9-1.8-13.5a26.29,26.29,0,0,0-.6-3.9c-.8-3.1-1.9-6-2.7-9s-1.3-6-2-9c-.9-3.5-2-7-2.9-10.6-1.2-4.6-2.4-9.3-3.2-14a92.65,92.65,0,0,1-1.6-13.8c-.1-3.1-.5-6.2.8-9.5,1.1-2.4.7-5.6.7-8.5q.15-8,0-15.9a65.06,65.06,0,0,0-.6-8.8c-.7-4.1-1.7-8.2-2.7-12.3a92.16,92.16,0,0,0-2.3-9.4c-1.4-3.9-3.1-7.7-4.8-11.4-2.9-6.2-5.7-12.3-9.5-18-4.4-6.6-8.8-13.1-14.5-18.6-2.2-2.1-4.2-4.4-6.4-6.4-2.8-2.5-5.9-4.7-8.7-7.3-.9-.8-2.8-1.3-1.5-3.4,2.3-3.8,4.9-7.5,6.5-11.6a141.44,141.44,0,0,0,6.1-19.1c1.2-5,1.3-10.3,1.7-15.5a45.71,45.71,0,0,0,0-7.4c-.3-7.5-.7-15-1.1-22.6a42.61,42.61,0,0,0-.6-5c-.8-4.3-1.8-8.6-2.7-12.8-.8-3.8-1.3-7.7-2.2-11.4-1.3-5-3-9.9-4.3-14.9s-2.4-10-3.6-15c-.3-1.2-.1-2.5-.4-3.7-.8-2.8-1.8-5.5-2.6-8.2a72,72,0,0,1-1.6-7.8c-.7-4.3-1.1-8.7-1.7-13-.1-.8.1-1.6,0-2.4-.5-4.5-1.4-9-1.5-13.6-.1-3.9-.7-7.9.8-11.9,1.3-3.5,1.1-7.6,1.8-11.3a21.52,21.52,0,0,1,5.2-10.7,52,52,0,0,1,9-7.9,61.15,61.15,0,0,1,12.1-5.8c3.3-1.2,6.9-1.5,10.3-2.3,3.7-.8,7.2-2.1,10.9-2.7,6.6-.9,13.3-.3,19.9-1.5,4.4-.8,9,0,13.5.7,5.4.8,10.9.1,16.3,1.8,3.2,1,6.7,1.1,10,1.7s6.6,1.3,9.8,2.2c3.4.9,6.8,2.1,10.2,3.1,2.4.7,4.7,1.3,7.1,2.2,3.8,1.3,7.4,2.9,11.2,4,3.2,1,6.5,1.5,9.8,2.2,4.8,1.1,9.7,3,14.5,3.1,9.7.3,19.4.9,28.9-2.9,5.2-2.1,10.1-4.3,14.1-8.3,3.4-3.4,6.5-7,9.8-10.7,0-5.3,0-10.6-.1-15.8-.4-1.9-.7-3.8-1-5.7a6.89,6.89,0,0,0-.3-.8,1.85,1.85,0,0,0-.2.7v1.4a3.55,3.55,0,0,1-.2,1l-.6-.9c-2.8-3.9-5.4-8.2-8.6-11.8a90.49,90.49,0,0,0-23.4-18.8,107.54,107.54,0,0,0-18.3-8.2c-4.9-1.6-9.8-3.3-14.8-4.6a76.5,76.5,0,0,0-10.5-1.7,73.84,73.84,0,0,0-10.5-.5c-5.9,0-11.9.2-17.9.5-3.4.2-6.8.7-10.2,1.1-1.2.1-2.4.3-3.6.5l-10.7,2.7c-3.1.8-6.3,1.4-9.4,2.4-4.3,1.4-8.6,3.1-12.8,4.7-3.2,1.2-6.6,2.2-9.7,3.6-5,2.3-9.9,4.9-14.8,7.3-5.1,2.6-10.3,5.2-15.3,7.9-3.4,1.8-6.6,3.8-9.9,5.8s-6.5,3.7-9.7,5.6-6.2,3.9-9.5,5.6a146.81,146.81,0,0,1-14.5,6.7,74.36,74.36,0,0,1-15.1,4.4,26.63,26.63,0,0,1-13.7-1.2c-6.5-2.3-13-4.4-19.6-6.3-5-1.4-10.2-2.3-15.3-3.3a106,106,0,0,0-11.1-1.6c-4.1-.4-8.3-.4-12.4-.6h-7.4c-1-.1-2.1-1-3.1-.9-1.7.1-3.4.8-5.1.9-6.7.3-13.4.4-20.1.6h-.4c-.2-.1-.5,0-.7,0-3.1,2-6.5.9-9.8,1.6-1.4.3-1.7-.4-1.6-1.6a98.53,98.53,0,0,0,1-10.8c0-4-.7-7.9-1-11.9-.3-4.5-.1-9-.7-13.4-.5-3.9-1.8-7.6-2.6-11.5-.7-3.3-1-6.7-1.9-9.9-1.3-4.4-3.1-8.8-4.7-13.1-1.8-5.1-3.3-10.3-5.6-15.2a140.92,140.92,0,0,0-8.9-15.5c-3.4-5.3-6.9-10.6-10.7-15.6a155.89,155.89,0,0,0-10.6-12.3,72.39,72.39,0,0,0-7.3-6.2c-3-2.5-5.8-5.3-9.1-7.3-3.8-2.3-8-3.9-12.1-5.9a16.29,16.29,0,0,1-1.7-1.1c-4.1,0-8,0-11.9.1ZM856.8,721.6c-3.2-.4-6.6-.9-10.3-1.6l-2.2-.4c-4.2-.8-8.5-1.7-12.6-2.9-3.9-1.1-7.8-2.6-11.6-3.9H820l-.3-.1c-1.6-.6-3.2-1.2-4.8-1.7l-2-.7-.3-.1c-1.4-.5-3-1-4.5-1.6-4.8-2-8.9-3.8-12.7-5.6s-7.8-3.7-11.8-5.9a71.53,71.53,0,0,1-7.3-4.9c-5.1-3.9-10.6-8.2-15.9-12.6l-.2-.2a105.72,105.72,0,0,1-10.5-9.6q-3.75-4.35-7.2-9c-.8-1.1-1.6-2.2-2.4-3.2l-.9-1.2v-.1c-1.7-2.2-3.5-4.5-5-6.9-2.7-4.3-4.9-8.1-6.8-11.7-1-1.9-1.8-3.9-2.6-5.8-.6-1.5-1.3-3.1-2-4.7a72.32,72.32,0,0,1-5.2-15.7c-.3-1.6-.6-3.2-.8-4.7q-.45-3.15-1.2-6.3c-1.8-6.5-1.7-13.2-1.6-19.6,0-2.5.1-4.8,0-7.1a54.86,54.86,0,0,1,.6-9.9c.5-3.3,1.3-6.6,2-9.9v-.1c.3-1.5.7-3,1-4.4a27.41,27.41,0,0,0,.5-2.8,43.36,43.36,0,0,1,1.4-6c.7-2.3,1.6-4.5,2.4-6.8.4-1.1.8-2.1,1.2-3.2.3-.7.5-1.4.8-2.2.4-1.4,1-2.7,1.5-4l.5-1.1c2.2-4.7,4.5-9.5,7.1-14.1,2.8-5.1,6-10.1,9.1-14.9l.4-.7a11.6,11.6,0,0,1,2-2.4v-.1a20,20,0,0,0,1.4-1.6c1-1.2,2-2.5,2.9-3.7v-.1a90.11,90.11,0,0,0,7.4-10.1,55.53,55.53,0,0,0,6-13.4c1.5-5,1.2-10,.6-14.7-.4-3.3-2.2-6.5-4.1-9.6v-.1c-.3-.5-.6-1.1-.9-1.6-4-7.1-9.8-12.9-15.3-18.5-2-2.1-4.3-4.4-6.5-6.8-4.1-4.5-7.5-9.8-10.9-15.2a212.72,212.72,0,0,1-10.6-18.9,50.48,50.48,0,0,1-3.3-9.2c-.3-.9-.5-1.7-.8-2.5-.5-1.6-.9-3.2-1.3-4.7-.6-2.5-1.3-4.9-2.1-7.3a20.54,20.54,0,0,1-1-5.4,25.68,25.68,0,0,0-.6-4c-1.8-6.7-1.7-13.6-1.5-20.3v-.1c.1-2.8.1-5.8,0-8.6a36,36,0,0,1,.6-8l.3-1.6a112.94,112.94,0,0,1,3.1-14c1.9-6.3,5.1-14.2,12.7-19.1a8.25,8.25,0,0,1,2.6-1h.1l.9-.3c.3-.1.6-.2,1-.3a9,9,0,0,1,2.7-.7h0a5.92,5.92,0,0,1,1.9.5,5.64,5.64,0,0,0,1.2.4c.8.2,1.6.4,2.3.6a27.69,27.69,0,0,1,4.1,1.2,30.92,30.92,0,0,1,6.5,3.4,113.64,113.64,0,0,1,19,16.3c4.1,4.5,7.3,8.3,10.3,11.9a101.48,101.48,0,0,1,7.4,10.7c3.3,5.6,6.4,11.3,9.1,16.8,2.2,4.3,4,8.9,5.8,13.4v.1l.4,1a50.31,50.31,0,0,1,2.4,7.5l1.5,6,.1.3c.4,1.5.8,3.3,1.2,4.9a85.24,85.24,0,0,1,1.6,8.8v.1c.2,1.7.5,3.5.8,5.2a119.86,119.86,0,0,1,1.4,22.9c0,3.2-.2,6.7-.6,11a30.62,30.62,0,0,1-.5,3.2v.1c-.2,1.1-.4,2.2-.5,3.4a3.86,3.86,0,0,0,1.1,2.7,4.7,4.7,0,0,0,3.1,1.6,20.9,20.9,0,0,1,2.5.1h.1c1.2,0,2.4.1,3.5.1,1.4,0,2.7-.1,4.1-.2a76.27,76.27,0,0,0,8.3-1.7c1.2-.3,2.5-.6,3.8-.9a1.63,1.63,0,0,1,.7,0h.4l6.4-.1h2.1c7.6-.1,15.4-.3,23.1-.4h.8a55.2,55.2,0,0,1,8.1.6c2.4.4,4.9,1,7.3,1.6h.1c1.4.3,3.1.7,4.7,1.1s3.1.6,4.6.9h.1c2.2.4,4.5.8,6.7,1.3,1.6.4,3.1.9,4.6,1.4,1.2.4,2.5.9,3.8,1.2,1.8.5,3.6.9,5.3,1.3h.1a75.56,75.56,0,0,1,9.6,2.7,29.37,29.37,0,0,0,10.6,1.6c1.6,0,3.3-.1,4.7-.1h.1c1.2,0,2.5-.1,3.8-.1,3.9,0,7.9-1.5,12.5-4.7,2.5-1.7,5.1-3.3,7.6-4.8l.1-.1c1.3-.8,2.5-1.6,3.8-2.3.4-.3.9-.6,1.3-.9l.1-.1.5-.3c1.7-1.1,3.4-2,4.9-2.9l.6-.3,1-.6,1.6-.9c2.9-1.7,6.3-3.6,9.4-5.4,1.2-.7,2.4-1.5,3.6-2.2h.1c1.8-1.1,3.7-2.3,5.6-3.3,3.7-2,7.4-3.9,10.8-5.6,2-1,4.1-2.1,6.1-3.2,1-.5,2.1-1.1,3.1-1.7h.1c1.7-.9,3.4-1.9,5.2-2.7,2.6-1.2,5.2-2.2,7.8-3.2l.3-.1,2.5-1,2.3-.9h.1c2.6-1,5.2-2.1,7.8-3a83.37,83.37,0,0,1,8.5-2.6c4.3-1.1,8.7-2,13-2.9h.1l1.9-.4,3.3-.6h.2c1.6-.3,3.5-.6,5.2-1a65.67,65.67,0,0,1,16.7-1.8c2.6,0,5.3.1,7.8.2h.2c2.2.1,5,.1,7.6.1h1a63.15,63.15,0,0,1,15.6,2.2,82.54,82.54,0,0,1,9.6,3.1h.1c2.8,1,5.6,2,8.5,2.8,4.5,1.2,8.5,3.6,12.4,5.8l.4.2,2.1,1.2c2.4,1.5,4.7,3.1,7,4.8l.1.1c2.2,1.7,4.4,3.5,6.3,5.2a42,42,0,0,1,10.7,15.3c2.2,5.1,2.8,9.8,1.8,13.7a23.23,23.23,0,0,1-4.8,9.2,30.76,30.76,0,0,1-9,7.4c-6.2,3.3-12.8,3.8-18.4,3.8-2.3,0-4.6-.1-6.8-.2h-.2c-1.1,0-2.2-.1-3.3-.1a67.3,67.3,0,0,1-11.8-1.8l-1.5-.3c-3.6-.8-7.2-1.8-10.6-2.8l-1.7-.5c-3.2-.9-6.4-1.8-9.6-2.8l-7.3-2.1c-1.7-.5-3.3-.9-5.1-1.4-2.2-.6-4.5-1.2-6.7-1.9-1.3-.4-2.6-.8-3.8-1.3l-.2-.1c-1.4-.5-2.8-.9-4.2-1.4a2.2,2.2,0,0,0-.8-.1h-1.8c-1.6-.2-3.1-.4-4.7-.5h-.3c-4.1-.4-8.3-.9-12.4-1.7a63.84,63.84,0,0,0-13.8-1.2c-2.5,0-5.1.1-7.6.2h-.2c-2.4.1-4.9.1-7.4.1H1019a65.92,65.92,0,0,0-10.8,1.1c-1.2.2-2.4.3-3.6.5a81.49,81.49,0,0,0-8.6,1.6c-1.7.4-3.5,1-5.2,1.5-1.1.3-2.2.7-3.3,1-.5.1-1,.2-1.6.3-.3,0-.7.1-1,.1a47.8,47.8,0,0,0-17,6.6A28.44,28.44,0,0,0,956.2,456c-3.1,7.3-3.1,14.7-3.1,21.8v21.4a37.79,37.79,0,0,0,.7,9,48.35,48.35,0,0,1,1.1,8.4v.1c.1,1.6.2,3.3.4,4.9.5,3.6,1,7.4,1.7,11.1,1.2,6.4,2.2,11.6,3.3,16.4.5,2.1,1.1,4.2,1.7,6.2v.1l1.2,4.2c1,3.7,1.9,7.5,2.8,11.2v.2l.8,3.3.4,1.8.4,1.4.1.3c.8,3.3,1.6,6.6,2.4,10,.3,1.2.5,2.4.7,3.6a40.21,40.21,0,0,0,1,5c2.1,7,1.8,14.3,1.6,21.4-.1,2-.1,4.1-.1,6.2a77.53,77.53,0,0,1-2.2,16.9,87.16,87.16,0,0,1-4.9,16c-1.6,3.7-3.5,7.2-5.4,10.7-1.2,2.3-2.5,4.6-3.7,7a54.63,54.63,0,0,1-9.5,13.3c-1.5,1.6-3,3.3-4.4,4.9a101.78,101.78,0,0,1-8.5,8.9c-7.9,6.9-14.6,11.2-21.5,14-3.8,1.5-7.8,3.1-11.8,4.6a18.57,18.57,0,0,1-3.4.6h-.2c-1,.1-2,.1-2.9.2a25.73,25.73,0,0,0-5.5.6,32.38,32.38,0,0,1-9.3,1c-1.7,0-3.4-.1-5-.1h-.3c-1.5-.1-3.4-.1-5.1-.1a23.52,23.52,0,0,0-2.8.1h-1.8c-3.1-.4-5.7-.6-8.3-1ZM764.1,871.2a33,33,0,0,1-10.7-3.8c-4.6-2.4-9.2-5.1-13.5-7.8l-1.2-.7-1.2-.7a15.45,15.45,0,0,1-2.4-1.9l-.1-.1c-.4-.4-.8-.7-1.2-1.1-1.1-.9-2.2-1.8-3.4-2.7-1.8-1.4-3.7-2.9-5.5-4.5l-6.1-5.2c-1.8-1.6-3.7-3.1-5.5-4.7-.6-.5-1.3-1-2-1.5a13,13,0,0,1-3.1-2.6c-1.1-1.3-2.2-2.5-3.3-3.8-4.5-5-9.1-10.2-12.6-16.2-3.1-5.4-6.1-10.7-8-16.7-1.6-5.1-3.1-10.6-3.1-16.5V764.8a43.73,43.73,0,0,1,.6-7.2c.5-2.3,1.1-4.5,1.6-6.7.4-1.4.7-2.7,1-4l.3-1.8.3-1.8c.3-1.1.5-2.3.8-3.4.8-3.4,1.5-6.9,2.6-10.3a54.57,54.57,0,0,1,2.6-6.7,34.68,34.68,0,0,0,1.5-3.6c.5-1.2.9-2.4,1.3-3.5.7-1.8,1.3-3.7,2.2-5.5,1.6-3.5,3.4-7.1,5.9-11.8,2.1-4,4.6-8.6,7.3-13.1a81.49,81.49,0,0,1,5.5-7.6c4.8-6.1,8.7-10.9,12.3-15.2a3.79,3.79,0,0,1,2.7-1.4,3.72,3.72,0,0,1,2.8,1.3c1.5,1.6,3.1,3.2,4.6,4.8l.2.2c3.1,3.2,6.2,6.6,9.5,9.7a142,142,0,0,0,13.4,11.2c4.8,3.6,10,6.9,14.8,9.9,5.1,3.2,10.4,6.3,15.4,9.1,1.1.6,2.1,1.2,3.1,1.8l.7.4c5,2.9,10.1,5.8,15.4,8.4a107.59,107.59,0,0,0,14.9,5.8,94.51,94.51,0,0,0,15.6,3.4l1.1.2a153.41,153.41,0,0,0,24,1.4h1.4c3.4,0,7-.2,11.8-.5,6-.5,12-1,18-1.6h.1a119.48,119.48,0,0,0,12-1.7,39.91,39.91,0,0,0,6.9-2.3l.2-.1c.4-.2.8-.3,1.3-.5a66.51,66.51,0,0,0,11.9-6.3c8.8-5.5,16.1-12.7,22.8-19.7,1.5-1.6,2.9-3.4,4.3-5.1,1.1-1.4,2.3-2.9,3.5-4.2,1.5-1.7,2.9-2.4,4.3-2.4a6.24,6.24,0,0,1,3.9,1.7c4.6,3.6,7.8,7.1,9.9,10.9a13,13,0,0,0,1.8,2.3l.1.1a17.38,17.38,0,0,1,1.3,1.5c.8,1,1.5,2,2.3,3.1l.2.3c2.4,3,4.6,6.1,6.7,9.3,1.8,3,3.4,6.1,5,9.2,1.1,2.2,2.4,4.8,3.8,7.1,3,5.2,4.7,10.9,6.4,16.4l.6,2.1a64.8,64.8,0,0,1,3.2,15.9c.1,1.3.3,2.7.5,4v.1a34.3,34.3,0,0,1,.5,5.6,81.81,81.81,0,0,1-1.7,14.7,133.26,133.26,0,0,1-5,16.3,30.15,30.15,0,0,1-2.5,5.1l-1.8,3.3c-1.1,2.4-2.2,4.9-3.2,7.2l-1.8,4.2-.5,1.1-.2.4v.1c-.8,1.8-1.6,3.8-2.6,5.6-1.6,3.1-3.4,6.1-5.1,9.1l-.5.9c-2.2,3.8-4.1,7-5.9,9.9a18.82,18.82,0,0,1-1.6,2.3l-.8,1c-4.2,6-9.9,13.6-17.2,19.8A104.34,104.34,0,0,1,945,885.1a83.42,83.42,0,0,1-11.3,5.4l-1.9.8a43.68,43.68,0,0,1-7,2.2,68.52,68.52,0,0,1-15.6,1.8c-1.2,0-2.5,0-3.7-.1A44.46,44.46,0,0,1,884,889l-1.4-.8-.3-.2a43.85,43.85,0,0,1-6.3-4.3c-4.7-4.1-4.8-9.8-4.1-13.8a23.12,23.12,0,0,1,6.9-12.7l1.9-1.9c3-2.9,6.3-6.1,9.7-9.2.7-.6,1.5-1.2,2.2-1.7a15.29,15.29,0,0,0,3.1-2.6l2.8-3.4.1-.1c3.5-4.1,7-8.4,9.1-13.5a34.42,34.42,0,0,0,2-19.3c-1.6-8.3-6.2-15.3-13.8-21.4a58.74,58.74,0,0,0-18.5-9.6l-.4-.1c-4.3-1.4-8.3-2.8-12.7-3.1a35.81,35.81,0,0,1-8.4-1.7,30.45,30.45,0,0,0-8.4-1.2,54.81,54.81,0,0,1-5.7-.5,89.6,89.6,0,0,0-16.3-1.3c-4.8,0-9.6.2-14.3.5l-1.2.1-2.3.1c-6.9.3-15,1.2-22.3,5.5-4.8,2.8-8.1,6.5-9.7,11.1a12.71,12.71,0,0,0,.6,10.2,18.48,18.48,0,0,1,1.5,3.9v.1c.3.8.5,1.6.8,2.4a7.76,7.76,0,0,0,1.6,2.4l1.4,1.8.1.2c2.4,3.1,4.9,6.1,7.4,9.2,4.8,5.8,7.7,10.9,9.4,16.4a33.43,33.43,0,0,1,.8,16.9c-.8,3.7-2.2,8.3-5.6,11.9a20.28,20.28,0,0,0-1.3,1.8,8.34,8.34,0,0,1-1.6,2.1,43.83,43.83,0,0,1-13,7.7,21.69,21.69,0,0,1-7.6,1.3c-2-.5-4.1-.7-6.1-1Zm6.3,8.3a71.87,71.87,0,0,0,11.9-3.1,37.28,37.28,0,0,0,17.6-12.5,40.24,40.24,0,0,0,6.6-11.8,31.49,31.49,0,0,0,1.9-9.6,53.17,53.17,0,0,0-.6-13.2c-.8-3.9-2.1-8.9-5.2-13.2a60.23,60.23,0,0,1-3.7-6l-.1-.1-2.4-4.2a16.38,16.38,0,0,0-2.1-2.5,16.32,16.32,0,0,1-1.7-2l-.1-.1c-2.1-2.9-4.4-5.9-6.3-9-3.2-5.1-.9-10.2,2.8-13.1,3-2.3,6.4-2.8,10-3.3l1-.1a173.19,173.19,0,0,1,25.8-1.5h13.6a72.42,72.42,0,0,1,12.4,1.4h.2c1.3.2,2.7.5,4,.6,5.7.8,11.1,2.8,16.2,4.7l1.1.4a52.25,52.25,0,0,1,10.2,5.7l.5.3c3.7,2.5,7.6,5.1,10.7,8.3a30.33,30.33,0,0,1,6.7,10c.8,2,.6,4.5.5,6.9a16.2,16.2,0,0,0-.1,2.2c-.2,6.6-3.8,12.1-6.5,15.6a96.47,96.47,0,0,1-9.2,10l-.2.2c-1.6,1.6-3.3,3.2-4.8,4.9l-.8.9c-3.2,3.3-6.4,6.8-9.4,10.5a27,27,0,0,0-4.8,8.4c-1.4,4.4-2.5,8.4-2,13.1a21.27,21.27,0,0,0,4.8,11.2c2.2,2.6,5.3,4.3,8.4,6.1l.4.2c3.5,1.9,7.3,2.7,11.1,3.5.8.2,1.7.3,2.5.5a72.43,72.43,0,0,0,15.8,1.5c2.4,0,4.9-.1,6.8-.1a127.15,127.15,0,0,0,17.4-2.1l.3-.1a44.39,44.39,0,0,0,6-1.6c1.3-.4,2.4-.8,3.6-1.1a6.93,6.93,0,0,1,2-.3c3.4,0,6,2.6,6.6,6.6a59.53,59.53,0,0,0,1.7,7.3l.1.3c.3,1.1.6,2.2.9,3.4a4.87,4.87,0,0,1,.1,1.2v3a54.21,54.21,0,0,1-.1,5.7l-.1,1.6c-.4,5.1-.8,10.4-1.6,15.6a118.56,118.56,0,0,1-2.7,11.8l-.3,1.1-.3,1.1c-.7,2.8-1.6,5.7-2.4,8.2l-.1.4c-.3.9-.5,1.8-.8,2.7-.4,1.5-.9,3-1.3,4.4l-.1.5c-1.1,3.8-2.2,7.8-3.6,11.6-2.4,7-5.3,13.7-7.5,18.8-2.2,5.3-4.7,10.5-7.4,15.6a45.39,45.39,0,0,1-4.8,6.7c-.6.8-1.3,1.6-1.9,2.4-.3.4-.6.8-1,1.3a37.17,37.17,0,0,1-4.1,4.8,78.82,78.82,0,0,1-8.3,7,156.8,156.8,0,0,1-14.7,9.4,54.31,54.31,0,0,1-10.3,4.2l-.2.1c-5.1,1.7-10.3,3.2-14.6,4.4a18.41,18.41,0,0,1-4.1.5h-.9c-1.6.1-3.2.2-4.8.4-3.9.3-7.9.6-11.8.6h-.7a73.51,73.51,0,0,1-11.4-1.2l-.5-.1-2-.3a31.45,31.45,0,0,1-4.4-1.1c-.7-.2-1.3-.4-2-.6a8.26,8.26,0,0,1-1.3-.7,2,2,0,0,0-.8-.4,71,71,0,0,1-21.3-8.3c-5.1-2.9-10.8-6.2-16.1-9.9a93.51,93.51,0,0,1-11.5-9.3c-4.5-4.3-10.4-10.1-15.9-16.5a61.93,61.93,0,0,1-5.7-8.4l-2.4-3.9-2.1-3.3c-1.6-2.4-3.4-5.1-4.9-7.8A63.63,63.63,0,0,1,737,981l-.1-.2c-.3-.8-.7-1.6-1-2.4s-.6-1.3-.9-2l-.2-.5v-.1c-.9-1.9-1.7-3.8-2.5-5.8-1.2-2.9-2.2-6-3.1-8.6v-.1c-1-2.9-2.1-6.3-3.1-9.5-.6-2.1-1.1-4.2-1.5-6.2-.2-1-.5-2.1-.7-3.1-.3-1.3-.6-2.7-1-4v-.2c-.7-2.6-1.3-5.4-1.8-8.1-.7-3.9-1.4-8.1-2-13.1l-.3-2.4v-.2q-.9-6.45-1.2-12.9c-.2-6.3.1-12.5.5-18.4a106.15,106.15,0,0,1,1.7-13.8,52.56,52.56,0,0,1,2.9-10.3,1.83,1.83,0,0,1,1.8-1.4,4,4,0,0,1,2,.9c.7.6,1.5,1.3,2.2,2l.3.3a77.92,77.92,0,0,0,10,8c5,3.1,10.2,6.4,16.3,7.6a24,24,0,0,0,2.4.4,26.8,26.8,0,0,1,5.6,1.3,12.52,12.52,0,0,0,5,1.1,3.71,3.71,0,0,0,2.1.2Zm-29.6,349.3c-6.5-2.2-11.7-4.6-15.7-9.1-.9-1-1.9-2-2.8-2.9a34.05,34.05,0,0,1-5-5.7,56,56,0,0,1-4.4-8.4l-.1-.1c-.4-.9-.8-1.8-1.3-2.7l-.6-1.2a37,37,0,0,1-2.6-6.2,100.47,100.47,0,0,1-2.3-10.9c-.3-1.5-.4-3-.6-4.4a43.29,43.29,0,0,0-1.2-7.2,33.18,33.18,0,0,1-1.1-8.3c-.1-2-.3-4.1-.6-6.1a74.53,74.53,0,0,1-.9-9.5,65.41,65.41,0,0,0-.8-8.8,127,127,0,0,1-1.5-15,60.44,60.44,0,0,0-1.6-10.5c-.5-2-1.1-3.9-1.8-5.9a46.89,46.89,0,0,1-2.4-9.1,30,30,0,0,0-2.2-7.2,40.38,40.38,0,0,1-1.6-4.5,41.11,41.11,0,0,0-2.8-6.5c-.5-.9-.9-1.8-1.4-2.8-.7-1.5-1.4-2.9-2-4.4-1.3-2.7-2.6-5.5-3.8-8.3l-.4-.9c-1.2-2.5-2.6-5.7-3.9-8.8l-.7-1.6-.1-.1c-1.9-4.4-3.8-8.9-5.6-13.4-1.3-3.4-2.4-6.8-3.7-10.8-1.7-5.3-3.4-11-5-16.6a50.27,50.27,0,0,1-1.1-5v-.1c-.2-1.2-.5-2.5-.8-3.7-.4-1.6-.8-3.2-1.3-4.8l-.1-.3c-.5-1.6-.9-3.4-1.3-5.1a13.55,13.55,0,0,1-.2-2,7.57,7.57,0,0,0-.1-1.5c-.2-1.6-.5-3.2-.7-4.9-.4-2.7-.9-5.5-1.2-8.3-.2-2-.4-4.1-.5-6.1V969a63.43,63.43,0,0,0-1.4-11.6,41.1,41.1,0,0,1-.8-8.6v-.9c-.2-9.8-.2-18,0-26.3.1-3.9.6-7.8,1-11.6.2-2,.4-3.7.6-5.5v-1.9c.1-1.1.2-2.2.4-3.3v-.2c.4-3.6.8-7.3,1.3-11,.4-2.6.9-5.4,1.6-8.9.5-2.4,1.1-4.8,1.7-7.3l.1-.6c.4-1.5.7-3.1,1.1-4.6.2-1,.5-2.1.7-3.1v-.2c.3-1.9.8-3.9,1.3-5.8.7-2.4,1.6-4.9,2.5-7.3v-.2c.5-1.4,1.1-3,1.6-4.4.4-1.1.7-2.3,1.1-3.4.4-1.3.8-2.7,1.3-4.1.9-2.5,1.9-5.1,2.9-7.6l.4-.9.7-1.9,1.2-3,.2-.5c.8-1.9,1.5-3.9,2.3-5.8.4-.9.7-1.9,1.1-2.9s.8-2.1,1.2-3.1q.75-1.8,1.5-1.8c.5,0,1,.4,1.7,1.2,1.2,1.4,2.4,3,3.5,4.4l.2.2c.8,1,1.6,2,2.4,3.1s1.7,2.1,2.5,3.2l.2.3c2.4,3.1,5,6.3,7.7,9.2,4.4,4.6,9.1,9,13.6,13.3l.8.7,3.2,3.1c1.8,1.7,2,3.2.8,5.4a8.66,8.66,0,0,0-.7,4,12.1,12.1,0,0,1-.1,1.9c-.2,1.2-.3,2.4-.5,3.7l-.1.5c-.4,3.1-.8,6.3-1.1,9.4-.1,1.9-.1,3.9-.1,5.8v.1c0,1.6.1,3.4,0,5.1s-.3,3.2-.5,4.8a29.82,29.82,0,0,0-.4,8.4,137.42,137.42,0,0,1,1,14.3v.1c.1,3.4.2,6.9.5,10.4.3,3.2.9,6.4,1.5,9.5l.1.8c.2,1.1.4,2.3.6,3.4.8,4.3,1.6,8.7,2.7,13,.8,3.1,2,6.2,3,9l.1.3c.5,1.4,1.1,2.9,1.6,4.4l.5,1.5c1.7,5,3.4,10.2,6,14.9,1.4,2.5,2.7,5.1,3.9,7.7s2.7,5.5,4.2,8.2a86.4,86.4,0,0,0,6.4,9.4l1.4,1.9a92.17,92.17,0,0,0,6.2,7.8l1.7,1.9.1.1c4.8,5.3,9.8,10.8,15,15.8a49.51,49.51,0,0,0,7.2,5.6c1.1.7,2.3,1.6,3.5,2.4a13.3,13.3,0,0,0,1.9,1.4l.3.3a52.21,52.21,0,0,0,4.5,3.3c1.8,1.2,3.7,2.2,5.4,3.2a21.16,21.16,0,0,0,2.1,1.1,19.83,19.83,0,0,0,2,1.1l.1.1a53.62,53.62,0,0,0,5.3,2.8c3.6,1.6,7.4,3.1,11,4.5h.1l.2.1.4.1a83.21,83.21,0,0,0,8,2.8,81.57,81.57,0,0,0,9.3,2c1.4.2,2.8.4,4.2.5a42.12,42.12,0,0,1,7.1,1.2,30.43,30.43,0,0,0,9,1.1c1.7,0,3.4-.1,5-.1h.2c1.6-.1,3.2-.1,4.8-.1H862a42.5,42.5,0,0,0,10.6-1.6,117.31,117.31,0,0,0,20-7.5c10.6-5.1,18.8-13.3,25.7-20.7a93.67,93.67,0,0,0,11.2-15.1c2.9-4.6,5.4-9.5,7.8-14.3l1.1-2.3c2.3-4.3,4.3-8.8,6.2-13.3,1.8-4.8,3.4-9.8,4.9-14.5v-.1l.6-2c1.7-5.4,3.4-10.9,4.9-16.6.6-2.2,1-4.5,1.4-6.7v-.1c.6-2.8,1.1-5.8,2-8.6,1.3-4.3,1.4-8.8,1.5-13.1v-2.1a19.93,19.93,0,0,1,.5-3.4,18.41,18.41,0,0,0,.5-4.1c-.2-3.6-.7-7.1-1.2-10.6-.1-.9-.3-1.8-.4-2.7-.5-3.5-1-7-1.7-10.6a8.8,8.8,0,0,0-.5-1.5,9.83,9.83,0,0,1-.5-1.6c-.4-3.2,1.5-5.5,3.4-7.7l.3-.4c1.8-2.1,3.7-4.2,5.6-6.2l.3-.3c2.6-2.9,5.3-5.9,7.9-9,3.3-3.9,6.1-7.9,9.5-12.8.4-.6.9-1.2,1.3-1.9l.3-.4a141.16,141.16,0,0,0,8.4-12.8c3-5.2,5.7-10.5,8.3-15.7l.4-.7c1.1-2.2,2.2-4.4,3.4-6.5l.6-.9a5.55,5.55,0,0,1,.6-.8l.9-1.8v-.1l.3-.6v-.1h0a3.55,3.55,0,0,0,.4.9c.3.7.5,1.3.8,2s.4,1.3.6,1.9l.1.2c.7,2.2,1.5,4.6,2.1,6.9,1.4,5.1,2.7,10.1,3.8,14.3.9,3.8,2.2,8.7,3.3,13.7.6,2.9,1.1,5.9,1.6,8.8v.2c.2,1.1.3,2.3.5,3.4v.2a39.84,39.84,0,0,0,1.2,6.9,37.77,37.77,0,0,1,1.2,8.1,55.09,55.09,0,0,0,.6,5.7,40,40,0,0,1,.4,6.9,31.2,31.2,0,0,0,.3,6.1,96.83,96.83,0,0,1,.7,18.6v.2c-.1,3.8-.2,7.6,0,11.5a69.61,69.61,0,0,1-.4,10.2l-.1,1.1c-.4,4.8-.9,9.9-1.6,15.5a91.94,91.94,0,0,1-1.7,10.3c-.4,1.9-1,3.8-1.5,5.7l-.1.2c-.4,1.4-.8,2.8-1.1,4.1a20.24,20.24,0,0,0-.4,2.6c-.1.6-.1,1.2-.2,1.8a17,17,0,0,1-.4,2.2c-.3,2.3-.8,4.5-1.3,6.7-1.4,5.1-3.1,10.3-4.6,14.8-2.4,7.6-4.6,13.9-6.9,20.5-1.3,3.7-2.8,7.6-4,10.7l-.2.5c-.7,1.9-1.4,3.8-2.1,5.6l-.2.6c-1.4,3.8-3,8-4.4,12.3l-.4,1.2-.1.3c-2.2,6.4-4.5,12.9-6.6,19.5-.8,2.4-1.5,5-2.1,7.3q-.6,2.1-1.2,4.5a29.92,29.92,0,0,1-1,3.2l-.1.3a57,57,0,0,0-1.6,5.5,11.4,11.4,0,0,0-.2,2.6,13.4,13.4,0,0,1-.1,2l-.6,3.9c-.3,1.9-.6,3.9-.8,5.9-.1,1.7-.1,3.5-.1,5.3a38.63,38.63,0,0,1-.7,9,43.37,43.37,0,0,0-.8,11.3c0,2.1.1,4.3-.1,6.4-.1,1.7-.1,3.6-.2,5.2a56.94,56.94,0,0,1-.5,8.3,105.44,105.44,0,0,0-1.1,11.3c-.2,2.9-.3,5.9-.7,8.8-.6,4.7-1.1,9-1.5,13.3-.1.6-.1,1.2-.2,1.8a51.23,51.23,0,0,1-1.6,10.4,35.73,35.73,0,0,0-1.1,6.4c-.1,1.3-.3,2.6-.5,3.9-.4,2.1-.9,4.1-1.4,6.1-.4,1.6-.9,3.2-1.2,4.8a13.33,13.33,0,0,0-.3,2.8,11.24,11.24,0,0,1-.4,3.2,14.62,14.62,0,0,0-.5,2c-1.8,6.6-3.6,13.4-9.2,18.1-3.9,3.2-7.8,4.7-12,4.7a18.41,18.41,0,0,1-3.3-.3c-8.2-1.5-14.8-5.1-19.6-10.8-2.1-2.4-3.5-5.5-4.9-8.5v-.1c-.4-.9-.9-1.9-1.3-2.8a47.66,47.66,0,0,1-2.6-6.6,9.08,9.08,0,0,1-.3-2.3c0-.4-.1-.9-.1-1.3-.1-1-.3-2-.5-3v-.3a50.11,50.11,0,0,1-.8-6.5c-.1-2.7-.1-5.5-.1-8.2a93.81,93.81,0,0,0-.7-14c-.3-2.4-.5-5-.7-7.4-.2-2.7-.4-5.6-.8-8.4-.7-4.5-1.8-9-2.9-13.6l-.3-1.1-.2-.9a87.64,87.64,0,0,0-3.2-11.1c-1.8-4.8-4.1-9.5-6.3-14.1l-.9-1.8c-3.6-7.5-9-14.5-16.9-21.8-5-4.1-10.1-8-16.4-10.3a27.32,27.32,0,0,0-9.4-1.6,37.24,37.24,0,0,0-8.1.9c-2.7.5-5.2,2-7.7,3.4-1.2.7-2.5,1.4-3.8,2-5.2,2.4-8.8,6.8-12,11.1a105.9,105.9,0,0,0-6.6,10.7c-.7,1.2-1.4,2.5-2.1,3.7-1.5,2.6-2.7,5.2-3.7,7.3s-1.9,4.2-2.8,6.3l-.1.3c-1,2.3-2,4.6-3.1,6.8-.9,1.8-1.8,3.7-2.6,5.5l-.2.4c-1.2,2.4-2.5,5.1-3.7,7.8-.9,2.1-1.8,4.2-2.7,6.4l-.1.2c-.8,1.8-1.5,3.8-2.4,5.6-.7,1.5-1.4,3-2.2,4.5l-.1.2c-.7,1.3-1.4,2.7-2,4.1-.8,1.7-1.5,3.5-2.2,5.3s-1.4,3.5-2.2,5.2c-1,2.3-2.2,4.6-3.4,6.8l-.4.7c-.7,1.3-1.3,2.5-1.9,3.8a84.38,84.38,0,0,1-5.4,9.8,23.73,23.73,0,0,1-7.1,6.4c-3.1,1.9-6.7,4-10.6,4.8a21.36,21.36,0,0,1-5,.6,12.42,12.42,0,0,1-5.3-1.2,2.15,2.15,0,0,0-1.1-.2h-1.4a3.4,3.4,0,0,1-1-.1Zm277.6-151.7-.7-.1a61.36,61.36,0,0,1-10.4-2.8,18,18,0,0,1-6.4-4.8c-.8-.9-.2-3.4.1-4.4,1.2-4,2.5-7.9,3.8-11.8v-.1l.3-.8.8-2.5.6-1.7.3-.8c1.9-5.8,3.8-11.7,5.8-17.5,1.6-4.9,3.3-9.8,4.9-14.4.5-1.4,1-2.8,1.6-4.3a74.5,74.5,0,0,0,3-9.1,22.09,22.09,0,0,1,6-11,8.76,8.76,0,0,0,1.8-4.4v-.2l.1-.5c.3-1.4.6-2.8.8-4.2h0v-.1a47.46,47.46,0,0,1,1.4-6.3c.2-.6.4-1.3.6-1.9,1.1-3.6,2.3-7.4,5.1-10.2.5-.5,1-1,1.5-1.6,2.1-2.2,4.3-4.5,7.5-5.2a21,21,0,0,1,4.3-.5,7.83,7.83,0,0,1,2.6.4,25.88,25.88,0,0,1,8.3,5.6,22.23,22.23,0,0,1,4.5,7.9,52,52,0,0,1,1.7,6.8c.3,1.6.7,3.5,1.2,5.2a3.41,3.41,0,0,0,2.3,1.6h.2a35.43,35.43,0,0,0,7.3-4.2c1.5-1.1,2.9-2.3,4.3-3.5a56.57,56.57,0,0,1,5.4-4.3,7.49,7.49,0,0,1,4.3-1.3,15.1,15.1,0,0,1,5.2,1.1c5.2,1.9,8.8,5.7,12.3,9.8,2.3,2.6,4.8,6.2,4.5,10.7a7.86,7.86,0,0,1-.8,2.6c-.2.4-.3.8-.5,1.2-2,1.8-3.7,3.4-5.4,4.9a2.18,2.18,0,0,0-.5.4c-.4.3-.8.5-.8.8-.6,3.5.3,6.8,3,10.8a28.32,28.32,0,0,0,2,2.8,29.37,29.37,0,0,1,3.1,4.7l.5.9c1.7,3.2,3.5,6.5,4.3,10,1,4.7,1.8,10.3-.8,15.8a17.84,17.84,0,0,1-9.7,9.2,11.5,11.5,0,0,1-4.1.8,13.8,13.8,0,0,1-5.9-1.4c-.6-.3-1.1-.5-1.6-.8l-.1-.1c-1.9-.9-3.8-1.9-6.1-1.9h-.6a5.93,5.93,0,0,0-4.5,1.9c-.9,1.1-1.2,2.9-.8,5.2a19.74,19.74,0,0,1-.6,7.2l-.1.3c-.1.3-.1.5-.2.8a21,21,0,0,1-2,5.8c-3.3,6.8-7.9,11.4-14.1,14.1a11.9,11.9,0,0,1-4.1,1.1c-2.6,0-4.1-1.9-6.4-5.9a70.4,70.4,0,0,1-4.6-9.6,20.46,20.46,0,0,1-.9-6.1v-.1c-.1-3.7-.5-4.5-4.1-4.6h-.3a7.33,7.33,0,0,0-4.7,1.7,40.08,40.08,0,0,0-3.3,3.9,27.36,27.36,0,0,1-3.9,4.5,20.1,20.1,0,0,1-13.6,5.2,44.68,44.68,0,0,1-4.7-.7Z" transform="translate(-642.7 -265)"/><path class="cls-1" d="M843.9,560.3a15.81,15.81,0,0,1-3.8.4h-4.2a15.53,15.53,0,0,0-3.7.4c-1.4.3-2.9.6-4.3.8s-2.8.4-4.1.7a65.65,65.65,0,0,0-13.2,5.1l-.7.3-1.1.5a40.42,40.42,0,0,0-8.9,6.2,53,53,0,0,1-6,4.6,2.35,2.35,0,0,0-.2.8,1.14,1.14,0,0,1-.3.8,57,57,0,0,0-7.1,9.1,45.13,45.13,0,0,0-7.6,21.4c-.7,9.4-1.4,20,3.1,29.6.3.7.7,1.4,1,2.1l.3.5a99.45,99.45,0,0,0,7.5,14c4.9,7.2,12.1,12.1,19.1,16.5,2,1.3,4,2.6,5.8,3.8h.1c4.1,2.7,8.4,5.5,12.8,8a41.89,41.89,0,0,0,13.8,5.1c1.1.2,2.2.4,3.3.7h.1a20.32,20.32,0,0,0,5.5.8c1.4,0,2.9,0,4.2.1h.1c1.3,0,2.7.1,4.1.1a37.5,37.5,0,0,0,12-1.6,29,29,0,0,1,6-1.2c1.1-.2,2.2-.3,3.2-.5a11.42,11.42,0,0,0,2.6-.9c1.4-.7,2.7-1.4,3.9-2,2.4-1.3,4.9-2.5,7.4-3.6,5.7-2.3,10.3-6.1,14.9-9.8.9-.8,1.9-1.5,2.8-2.3a32.64,32.64,0,0,0,5.3-5.8c.6-.7,1.2-1.5,1.8-2.2,2.4-3,4.4-5.4,6-7.7a59,59,0,0,0,9.5-19.9c.3-1.2.7-2.5,1.1-3.7v-.1a28.72,28.72,0,0,0,1.8-8.6c0-1,.1-1.9.1-2.9.2-4.4.4-9-.8-13.6-.3-1.1-.5-2.1-.8-3.2V603a60.73,60.73,0,0,0-3.1-10,56.21,56.21,0,0,0-7.5-11.6l-.1-.1a30.31,30.31,0,0,0-11.7-8.8c-4.2-1.9-8.4-3.5-12.7-5a44.39,44.39,0,0,0-6-1.6H895c-1-.2-2-.5-2.9-.7s-2.1-.6-3.1-.9h-.3c-2.1-.6-4.2-1.2-6.3-1.6-3.5-.6-7-1.1-10.5-1.4l-2-.2-3.2-.4h-.1c-3.9-.5-7.9-1-11.9-1.2-1.1-.1-2-.1-2.9-.1a25.93,25.93,0,0,0-7.9.9Zm11.2,125.2h-.4c-.9,0-1.8-.1-2.8-.1a32.42,32.42,0,0,1-15.2-4.2c-2.2-1.3-4.5-2.5-6.7-3.8-4-2.2-8.1-4.5-12.1-7a79,79,0,0,1-7.9-6.1c-.9-.8-1.9-1.6-2.8-2.4-2.4-1.9-4.7-4-7-6l-.2-.1-.1-.1c-4.5-3.9-7.7-9-10.7-14.2-2.8-4.9-4.2-9.4-4.3-13.8a22.26,22.26,0,0,0-.5-3.6,13.75,13.75,0,0,1-.4-4.5,52.85,52.85,0,0,1,5.6-19.9c4.2-7.9,10.3-14,16.6-20.2a91.91,91.91,0,0,1,10.2-8.5,14.59,14.59,0,0,1,3.9-1.6,14.26,14.26,0,0,0,2.7-.9,21,21,0,0,1,7.8-1.3,26.26,26.26,0,0,0,4.9-.5,65.76,65.76,0,0,1,13.3-1.1c2.6,0,5.2.1,7.7.2h.3c2.5.1,5.1.2,7.6.2h1a46,46,0,0,1,10.3,1.6c1.4.3,2.9.7,4.3,1l.5.1h.1c3.2.6,6.5,1.3,9.7,2.1a77.14,77.14,0,0,1,14.7,5.7c4.8,2.4,10.4,5.6,14.5,10.5a60.36,60.36,0,0,1,5.6,8.6c.4.7.7,1.3,1.1,2,4.6,8.1,4.2,17.1,3.8,25.8v.3c-.2,4.8-2,9.4-3.7,13.9l-.2.6-.5,1.2a61.69,61.69,0,0,1-8.7,15.3,112,112,0,0,1-11.2,12.6,46.86,46.86,0,0,1-6.3,4.7c-.9.6-2,1.3-3,2-1.5.7-2.8,1.5-4.2,2.3a27.3,27.3,0,0,1-4.8,2.5,68.84,68.84,0,0,1-10.9,3.4,27,27,0,0,1-4.1.8,29.81,29.81,0,0,0-5.9,1.4,18.86,18.86,0,0,1-7.4,1.2c-1.4,0-2.8,0-4.2-.1Z" transform="translate(-642.7 -265)"/><path class="cls-1" d="M867.5,603.2h-1.7a49.06,49.06,0,0,0-10.1.7c-1.8.4-4.3,2.4-4.7,4.1-1,4.1,0,8.6,2.8,12.7a30.71,30.71,0,0,1,1.7,3.1,17.34,17.34,0,0,0,2.7,4.3,19.24,19.24,0,0,0,6.8,4.5,2.35,2.35,0,0,0,.8.2c2.3,0,5.8-3.1,7-5.1.8-1.3,1.6-2.6,2.5-3.9.7-1.1,1.6-2.3,2.4-3.7a25.5,25.5,0,0,1,1.3-2.9,25.26,25.26,0,0,0,1.9-4.8c.4-1.6-.3-4-1.8-6.1a6.17,6.17,0,0,0-3.3-2.6,69.82,69.82,0,0,0-7.9-.5Zm-5.3,20c-.5-.9-1-1.9-1.5-2.8v-.1a49.15,49.15,0,0,1-2.4-4.5,12.75,12.75,0,0,1-.8-4.8c0-.4,1.3-1,2-1.1,1.9-.3,3.8-.6,5.6-.8l.5-.1,1.7-.2a18.1,18.1,0,0,1,6,1.8c.6.3,1,2.2.6,3.1-1.5,3.7-3.4,7.5-6.8,10.3a4.12,4.12,0,0,1-2.4,1.1c-1,.1-1.8-.5-2.5-1.9Z" transform="translate(-642.7 -265)"/><path class="cls-2" d="M729.8,661.1a3.19,3.19,0,0,0-2.7,1.4c-3.6,4.3-7.5,9.2-12.3,15.2a81.49,81.49,0,0,0-5.5,7.6c-2.7,4.5-5.2,9.2-7.3,13.1-2.4,4.7-4.3,8.3-5.9,11.8-.8,1.8-1.5,3.7-2.2,5.5-.4,1.1-.8,2.3-1.3,3.5s-1,2.3-1.5,3.6a54.57,54.57,0,0,0-2.6,6.7c-1,3.4-1.8,6.9-2.6,10.3-.3,1.1-.5,2.3-.8,3.4l-.3,1.8-.3,1.8c-.3,1.3-.6,2.5-1,4-.6,2.2-1.2,4.4-1.6,6.7a43.73,43.73,0,0,0-.6,7.2c-.1,3.9,0,7.9,0,11.8v4.1c0,5.9,1.5,11.4,3.1,16.5,1.9,6,4.9,11.3,8,16.7,3.5,6,8.1,11.2,12.6,16.2,1.1,1.2,2.2,2.5,3.3,3.8a15.29,15.29,0,0,0,3.1,2.6c.7.5,1.3,1,2,1.5,1.8,1.6,3.7,3.1,5.5,4.7,2,1.7,4,3.5,6.1,5.2,1.8,1.5,3.7,3,5.5,4.5l3.3,2.7a12,12,0,0,1,1.2,1.1l.1.1a11.17,11.17,0,0,0,2.4,1.9l1.2.7,1.2.7c4.4,2.7,8.9,5.4,13.5,7.8a33,33,0,0,0,10.7,3.8,44.57,44.57,0,0,0,6.3.5,21.69,21.69,0,0,0,7.6-1.3,45.13,45.13,0,0,0,13-7.7,8.34,8.34,0,0,0,1.6-2.1,8.32,8.32,0,0,1,1.3-1.8c3.4-3.6,4.8-8.3,5.6-11.9a33.38,33.38,0,0,0-.8-16.9c-1.7-5.6-4.6-10.6-9.4-16.4-2.5-3-5-6.1-7.4-9.2l-.1-.2-1.4-1.8a14.31,14.31,0,0,1-1.6-2.4,22.5,22.5,0,0,1-.8-2.4v-.1a26.19,26.19,0,0,0-1.5-3.9,12.71,12.71,0,0,1-.6-10.2,21.09,21.09,0,0,1,9.7-11c7.3-4.2,15.4-5.1,22.3-5.5l2.3-.1,1.2-.1c4.7-.2,9.5-.5,14.3-.5a88.89,88.89,0,0,1,16.3,1.3,36.57,36.57,0,0,0,5.7.5,29.92,29.92,0,0,1,8.4,1.2,39.12,39.12,0,0,0,8.4,1.7,56.1,56.1,0,0,1,12.7,3.1l.4.1a58.74,58.74,0,0,1,18.5,9.6c7.6,6,12.1,13,13.8,21.4a33.56,33.56,0,0,1-2,19.3c-2,5.1-5.6,9.3-9.1,13.5l-.1.1c-.9,1.1-1.9,2.2-2.8,3.4a13,13,0,0,1-3.1,2.6c-.8.5-1.5,1.1-2.3,1.7-3.3,3.1-6.7,6.3-9.7,9.2l-1.9,1.9a22.84,22.84,0,0,0-6.9,12.7c-.7,4-.5,9.7,4.1,13.8a41.05,41.05,0,0,0,6.3,4.3l.3.2,1.4.8c6.1,3.8,13.2,5.8,21.5,6.2,1.2.1,2.4.1,3.7.1a67.88,67.88,0,0,0,15.6-1.8,40.72,40.72,0,0,0,7-2.2l1.9-.8a106.73,106.73,0,0,0,11.3-5.4,110.64,110.64,0,0,0,14.5-10.1c7.3-6.2,13-13.8,17.2-19.8l.8-1a19.52,19.52,0,0,0,1.7-2.3c1.8-2.9,3.7-6.1,5.9-9.9l.5-.9c1.7-3,3.5-6,5.1-9.1.9-1.8,1.8-3.7,2.6-5.6v.1l.2-.4c.2-.4.3-.7.5-1.1l1.8-4.2c1-2.2,2-4.7,3.2-7.2a26.85,26.85,0,0,1,1.8-3.3,30.15,30.15,0,0,0,2.5-5.1,153.37,153.37,0,0,0,5-16.3,89.42,89.42,0,0,0,1.7-14.7,35.32,35.32,0,0,0-.5-5.6V768c-.2-1.3-.4-2.7-.5-4a63.85,63.85,0,0,0-3.2-15.9l-.6-2.1c-1.7-5.5-3.5-11.2-6.4-16.4-1.4-2.4-2.7-4.9-3.8-7.1-1.6-3.1-3.2-6.2-5-9.2-2.1-3.2-4.3-6.3-6.7-9.3l-.2-.3a35.53,35.53,0,0,1-2.3-3.1c-.4-.5-.9-1-1.3-1.5l-.1-.1a13,13,0,0,1-1.8-2.3,36.72,36.72,0,0,0-9.9-10.9,6.24,6.24,0,0,0-3.9-1.7c-1.4,0-2.8.8-4.3,2.4-1.2,1.4-2.4,2.8-3.5,4.2-1.4,1.7-2.8,3.5-4.3,5.1-6.7,7-14,14.2-22.8,19.7a70.12,70.12,0,0,1-11.9,6.3l-1.3.5-.2.1a55.82,55.82,0,0,1-6.9,2.3c-4,.8-8,1.3-12,1.7h-.1c-5.9.6-12,1.2-18,1.6-4.8.4-8.4.5-11.8.5h-1.4a152.72,152.72,0,0,1-24-1.4l-1.1-.2a85.3,85.3,0,0,1-15.6-3.4,118.46,118.46,0,0,1-14.9-5.8c-5.2-2.6-10.4-5.6-15.3-8.4l-.7-.4c-1-.6-2.1-1.2-3.1-1.8-5-2.9-10.3-5.9-15.4-9.1-4.8-3.1-10-6.3-14.8-9.9a144.48,144.48,0,0,1-13.4-11.2c-3.3-3.1-6.4-6.4-9.5-9.7l-.2-.2c-1.5-1.6-3.1-3.2-4.6-4.8a5.5,5.5,0,0,0-3-1.1Z" transform="translate(-642.7 -265)"/><path class="cls-2" d="M678.4,811.1q-.75,0-1.5,1.8c-.4,1-.8,2.1-1.2,3.1s-.7,1.9-1.1,2.9c-.7,1.9-1.5,3.9-2.3,5.8l-.2.5-1.2,3-.7,1.9-.4.9c-1,2.5-2,5-2.9,7.6-.5,1.4-.9,2.9-1.3,4.1s-.7,2.2-1.1,3.4c-.5,1.5-1.1,3-1.6,4.4v.2c-.9,2.4-1.8,4.9-2.5,7.3-.5,1.9-1,3.8-1.3,5.7v.2c-.2,1-.4,2.1-.7,3.1-.4,1.5-.7,3.1-1.1,4.6l-.1.6c-.6,2.5-1.2,4.9-1.7,7.3a81.41,81.41,0,0,0-1.6,8.9c-.5,3.7-.9,7.3-1.3,11v.2c-.1,1.1-.2,2.2-.4,3.3v1.9c-.2,1.8-.4,3.6-.6,5.5-.4,3.8-.9,7.8-1,11.6-.3,8.3-.2,16.6,0,26.3v.9a35.34,35.34,0,0,0,.8,8.6,65.61,65.61,0,0,1,1.4,11.6v.1c.1,2,.3,4.1.5,6.1.3,2.8.8,5.6,1.2,8.3.3,1.6.5,3.2.7,4.9a7.57,7.57,0,0,1,.1,1.5,13.55,13.55,0,0,0,.2,2c.4,1.7.9,3.4,1.3,5.1l.1.3c.4,1.6.9,3.2,1.3,4.8.3,1.2.6,2.5.8,3.7v.1c.3,1.5.6,3.3,1.1,5,1.6,5.6,3.3,11.3,5,16.6,1.3,4,2.4,7.4,3.7,10.8,1.8,4.5,3.7,9,5.6,13.4l.1.1.7,1.6c1.3,3.1,2.8,6.2,4,8.8l.4.9c1.3,2.8,2.5,5.5,3.8,8.3.7,1.5,1.4,2.9,2,4.4.4.9.9,1.9,1.4,2.8a37.48,37.48,0,0,1,2.8,6.5c.5,1.5,1,3,1.6,4.5a26.09,26.09,0,0,1,2.2,7.2,48.86,48.86,0,0,0,2.4,9.1c.6,1.9,1.3,3.9,1.8,5.9a54.47,54.47,0,0,1,1.6,10.5c.2,5,.8,10,1.5,15a84.61,84.61,0,0,1,.8,8.8,76.3,76.3,0,0,0,.9,9.5,60,60,0,0,1,.6,6.1,33.18,33.18,0,0,0,1.1,8.3,45.08,45.08,0,0,1,1.2,7.2,35.62,35.62,0,0,0,.6,4.4,94,94,0,0,0,2.3,10.8,42.62,42.62,0,0,0,2.6,6.2l.6,1.2c.4.9.9,1.8,1.3,2.7l.1.2a56,56,0,0,0,4.4,8.4,39.25,39.25,0,0,0,5,5.7c.9.9,1.9,1.9,2.8,2.9,4,4.5,9.2,6.9,15.7,9.1a3.08,3.08,0,0,0,1,.1H743a3.59,3.59,0,0,1,1.1.2,10.6,10.6,0,0,0,5.3,1.2,20.74,20.74,0,0,0,5-.6c3.8-.7,7.5-2.9,10.6-4.8s5.7-4.1,7.1-6.4a93.48,93.48,0,0,0,5.4-9.8c.6-1.3,1.3-2.6,1.9-3.8l.4-.7c1.1-2.2,2.3-4.5,3.4-6.8.8-1.7,1.5-3.5,2.2-5.2s1.5-3.6,2.2-5.3c.6-1.4,1.3-2.7,2-4.1l.1-.2c.7-1.4,1.5-2.9,2.2-4.5.8-1.8,1.6-3.8,2.4-5.6l.1-.2c.9-2.1,1.7-4.3,2.7-6.4,1.2-2.7,2.5-5.4,3.7-7.8l.2-.4c.9-1.8,1.8-3.7,2.6-5.5,1-2.2,2-4.5,3.1-6.8l.1-.3c.9-2.1,1.9-4.2,2.8-6.3a72,72,0,0,1,3.7-7.3c.7-1.2,1.4-2.5,2.1-3.7a86.76,86.76,0,0,1,6.6-10.8c3.2-4.3,6.8-8.6,12-11.1,1.3-.6,2.5-1.3,3.8-2a27.85,27.85,0,0,1,7.7-3.4,37.24,37.24,0,0,1,8.1-.9,27.32,27.32,0,0,1,9.4,1.6c6.3,2.3,11.4,6.2,16.4,10.3,7.9,7.3,13.3,14.3,16.9,21.8l.9,1.8c2.2,4.6,4.5,9.3,6.3,14.1a83.12,83.12,0,0,1,3.2,11.1l.2.9.3,1.1c1.1,4.6,2.2,9.1,2.9,13.6a79.52,79.52,0,0,1,.8,8.4c.2,2.4.3,5,.7,7.4a93.81,93.81,0,0,1,.7,14c0,2.7,0,5.5.1,8.2.2,2.2.4,4.4.8,6.5v.3c.2,1,.3,2,.5,3a5.7,5.7,0,0,1,.1,1.3,8.52,8.52,0,0,0,.3,2.3,37.74,37.74,0,0,0,2.6,6.6c.5.9.9,1.9,1.3,2.8v.1a37.64,37.64,0,0,0,4.9,8.5,32.41,32.41,0,0,0,19.6,10.8,18.41,18.41,0,0,0,3.3.3c4.2,0,8.1-1.6,12-4.7,5.7-4.7,7.5-11.5,9.2-18.1l.5-2a17.5,17.5,0,0,0,.4-3.2,12.65,12.65,0,0,1,.3-2.8c.3-1.6.8-3.2,1.2-4.8.5-2,1.1-4.1,1.4-6.1.2-1.3.4-2.6.5-3.9a27.67,27.67,0,0,1,1.1-6.4,51.23,51.23,0,0,0,1.6-10.4,11,11,0,0,1,.2-1.8c.4-4.3.9-8.7,1.5-13.3.4-2.9.5-5.9.7-8.8a84.78,84.78,0,0,1,1.1-11.3,46.27,46.27,0,0,0,.5-8.3,47,47,0,0,1,.2-5.2c.2-2.1.1-4.3.1-6.4a43.37,43.37,0,0,1,.8-11.3,38.63,38.63,0,0,0,.7-9c0-1.7,0-3.5.1-5.3a55.87,55.87,0,0,1,.8-5.9l.6-3.9a12.75,12.75,0,0,0,.1-2,11,11,0,0,1,.2-2.6c.5-1.8,1-3.7,1.6-5.5l.1-.3c.3-1.1.7-2.1,1-3.2.4-1.5.9-3.1,1.2-4.5.6-2.3,1.3-4.9,2.1-7.3,2.1-6.5,4.4-13.1,6.6-19.5l.1-.3.4-1.2c1.5-4.2,3.1-8.5,4.4-12.3l.2-.6c.7-1.9,1.4-3.8,2.1-5.6l.2-.5c1.2-3.1,2.7-7,4-10.7,2.3-6.5,4.4-12.9,6.9-20.5,1.5-4.5,3.2-9.7,4.6-14.8a52.77,52.77,0,0,0,1.3-6.7,14.35,14.35,0,0,1,.4-2.2,11.08,11.08,0,0,0,.2-1.9,23.36,23.36,0,0,1,.4-2.6c.3-1.4.7-2.8,1.1-4.1l.1-.2c.5-1.9,1.1-3.8,1.5-5.7.6-2.9,1.1-6.1,1.7-10.3.7-5.6,1.2-10.7,1.6-15.5l.1-1.1a69.61,69.61,0,0,0,.4-10.2c-.2-3.8-.1-7.7,0-11.5v-.2c.1-6.1.3-12.4-.7-18.7a31.2,31.2,0,0,1-.3-6.1,32,32,0,0,0-.4-6.9,55.09,55.09,0,0,1-.6-5.7,43.86,43.86,0,0,0-1.1-8.1,41.56,41.56,0,0,1-1.2-6.9v-.2c-.1-1.1-.3-2.3-.5-3.4V864c-.5-2.9-1-5.9-1.6-8.8-1.1-5-2.3-10-3.3-13.7-1.1-4.3-2.3-9.3-3.8-14.4-.6-2.3-1.4-4.6-2.1-6.9l-.1-.2c-.2-.6-.4-1.3-.6-1.9s-.5-1.3-.8-2c-.1-.3-.3-.6-.4-.9a2.51,2.51,0,0,1-.4.7v.1c-.3.7-.6,1.2-.9,1.8a5.55,5.55,0,0,1-.6.8l-.6.9c-1.1,2.2-2.3,4.3-3.4,6.5l-.4.7c-2.7,5.2-5.4,10.5-8.3,15.7-2.5,4.4-5.5,8.7-8.4,12.8l-.3.4c-.4.6-.9,1.2-1.3,1.9-3.4,4.8-6.3,8.8-9.5,12.8-2.5,3.1-5.3,6.1-7.9,9l-.3.3-5.6,6.2-.3.4c-1.9,2.2-3.8,4.4-3.4,7.7a7.49,7.49,0,0,0,.5,1.6,8.8,8.8,0,0,1,.5,1.5c.6,3.5,1.2,7.1,1.7,10.6.1.9.3,1.8.4,2.7.5,3.5,1,7,1.2,10.6a14,14,0,0,1-.5,4.1,18.57,18.57,0,0,0-.5,3.4v2.1c-.1,4.3-.2,8.7-1.5,13.1-.8,2.8-1.4,5.7-2,8.6v.1c-.4,2.2-.9,4.5-1.4,6.7-1.5,5.7-3.2,11.2-4.9,16.6l-.6,2v.1c-1.5,4.8-3.1,9.8-4.9,14.6a133.59,133.59,0,0,1-6.2,13.3l-1.1,2.3c-2.4,4.8-4.9,9.7-7.8,14.3a111.26,111.26,0,0,1-11.2,15.1c-6.8,7.4-15,15.6-25.7,20.7a129,129,0,0,1-19.9,7.5,37.8,37.8,0,0,1-10.6,1.6h-2.2c-1.6,0-3.2.1-4.8.1h-.2c-1.5.1-3.3.1-5,.1a30,30,0,0,1-9-1.1,42.12,42.12,0,0,0-7.1-1.2c-1.4-.2-2.9-.3-4.2-.5a81.57,81.57,0,0,1-9.3-2,83.21,83.21,0,0,1-8-2.8l-.4-.1-.2-.1h-.1c-3.7-1.4-7.4-2.9-11-4.5-1.8-.9-3.6-1.8-5.3-2.8l-.1-.1a19.83,19.83,0,0,0-2-1.1,21.16,21.16,0,0,0-2.1-1.1,50.92,50.92,0,0,1-5.4-3.2,52.21,52.21,0,0,1-4.5-3.3l-.3-.3a13.3,13.3,0,0,0-1.9-1.4c-1.2-.9-2.4-1.7-3.5-2.4a63.32,63.32,0,0,1-7.2-5.6c-5.2-5.1-10.2-10.6-15-15.9l-.1-.1-1.7-1.9a92.17,92.17,0,0,1-6.2-7.8l-1.4-1.9a103.49,103.49,0,0,1-6.4-9.4c-1.5-2.7-2.9-5.5-4.2-8.2-1.2-2.5-2.4-5.1-3.9-7.7a86,86,0,0,1-6-14.9l-.5-1.6c-.5-1.5-1-3-1.6-4.4l-.1-.3c-1-2.8-2.2-5.9-3-9-1.1-4.3-1.9-8.8-2.7-13-.2-1.1-.4-2.3-.6-3.4l-.1-.8c-.6-3.1-1.2-6.3-1.5-9.5-.3-3.4-.4-7-.5-10.4v-.1a135.53,135.53,0,0,0-1-14.3,29.82,29.82,0,0,1,.4-8.4c.2-1.6.4-3.2.5-4.8s0-3.4,0-5.1v-.1a56.13,56.13,0,0,1,.1-5.8c.2-3.2.7-6.4,1.1-9.4l.1-.5c.2-1.2.3-2.4.5-3.7a12.75,12.75,0,0,0,.1-1.9,8.66,8.66,0,0,1,.7-4c1.2-2.2,1-3.7-.8-5.4l-3.2-3.1-.8-.7c-4.5-4.3-9.2-8.7-13.6-13.3a110.34,110.34,0,0,1-7.7-9.2l-.2-.3c-.8-1.1-1.7-2.1-2.6-3.2s-1.6-2-2.4-3.1l-.2-.2c-1.1-1.4-2.3-2.9-3.5-4.4-.7-.9-1.3-1.2-1.7-1.2Z" transform="translate(-642.7 -265)"/><path class="cls-2" d="M728.2,269.9h0a7.67,7.67,0,0,0-2.7.7c-.3.1-.6.2-1,.3l-.9.3h-.1a8.25,8.25,0,0,0-2.6,1c-7.6,4.9-10.8,12.8-12.7,19.1a134.54,134.54,0,0,0-3.1,14l-.3,1.6a42.48,42.48,0,0,0-.6,8c.1,2.9,0,5.8,0,8.6v.1c-.1,6.7-.2,13.5,1.5,20.3a27.61,27.61,0,0,1,.6,4,19.13,19.13,0,0,0,1,5.4,46.75,46.75,0,0,1,2.1,7.3c.4,1.5.8,3.2,1.3,4.7.3.8.5,1.7.8,2.5a50.48,50.48,0,0,0,3.3,9.2c3.1,6.2,6.7,12.6,10.6,18.9,3.4,5.4,6.8,10.7,10.9,15.2,2.1,2.4,4.4,4.7,6.5,6.8,5.5,5.6,11.3,11.5,15.3,18.5.3.5.6,1.1.9,1.6v.1c1.8,3.1,3.7,6.3,4.1,9.6.5,4.6.8,9.6-.6,14.7a55.53,55.53,0,0,1-6,13.4,90.11,90.11,0,0,1-7.4,10.1v.1c-1,1.2-2,2.4-2.9,3.7a10.7,10.7,0,0,1-1.4,1.6v.1a15.91,15.91,0,0,0-2,2.4l-.4.7c-3.1,4.8-6.2,9.8-9.1,14.9-2.6,4.6-4.9,9.5-7.1,14.1l-.5,1.1a32.52,32.52,0,0,0-1.5,4c-.2.7-.5,1.4-.8,2.2-.4,1.1-.8,2.1-1.2,3.2a54.88,54.88,0,0,0-2.4,6.8c-.6,2-1,4-1.4,6a27.41,27.41,0,0,0-.5,2.8c-.3,1.5-.6,3-1,4.4v.1c-.7,3.2-1.5,6.5-2,9.9a54.86,54.86,0,0,0-.6,9.9V581c-.1,6.5-.2,13.2,1.6,19.6q.75,3.15,1.2,6.3c.2,1.5.5,3.1.8,4.7a72.32,72.32,0,0,0,5.2,15.7c.7,1.5,1.4,3.1,2,4.6.8,1.9,1.6,3.9,2.6,5.8a127.79,127.79,0,0,0,6.8,11.7c1.5,2.4,3.3,4.7,5,6.9v.1l.9,1.2c.8,1.1,1.6,2.1,2.4,3.2a101.34,101.34,0,0,0,7.2,9,105.72,105.72,0,0,0,10.5,9.6l.2.2c5.3,4.4,10.8,8.7,15.9,12.6a70.19,70.19,0,0,0,7.2,4.9c4,2.2,8,4.1,11.8,5.9s8,3.6,12.7,5.6c1.5.6,3.1,1.1,4.5,1.6l.3.1a15.87,15.87,0,0,1,2,.7c1.6.6,3.2,1.1,4.8,1.7l.3.1h.1c3.8,1.4,7.7,2.8,11.6,3.9,4.2,1.2,8.5,2.1,12.6,2.9l2.2.4c3.7.7,7,1.3,10.3,1.6,2.6.3,5.2.5,7.9.6h1.8c.9,0,1.8-.1,2.8-.1,1.8,0,3.6.1,5.1.1h.3c1.6.1,3.3.1,5,.1a36.33,36.33,0,0,0,9.3-1,25.05,25.05,0,0,1,5.5-.6c.9,0,1.9-.1,2.9-.2h.2a20.21,20.21,0,0,0,3.4-.6c4-1.5,8-3.1,11.8-4.6,6.9-2.8,13.6-7.2,21.5-14a89.38,89.38,0,0,0,8.5-8.9c1.4-1.6,2.9-3.3,4.4-4.9a54.63,54.63,0,0,0,9.5-13.3c1.2-2.4,2.4-4.7,3.7-7,1.9-3.5,3.8-7,5.4-10.7a82.11,82.11,0,0,0,4.9-16,84.22,84.22,0,0,0,2.2-16.9c0-2.1.1-4.2.1-6.2.2-7,.5-14.3-1.6-21.4a29.51,29.51,0,0,1-1-5c-.2-1.2-.4-2.4-.7-3.6-.8-3.3-1.6-6.7-2.4-10l-.1-.3-.4-1.4-.4-1.8-.8-3.3v-.2c-.9-3.7-1.8-7.5-2.8-11.2l-1.2-4.2v-.1c-.6-2-1.2-4.1-1.7-6.2-1.1-4.8-2.1-10.1-3.3-16.4-.7-3.8-1.2-7.5-1.7-11.1-.2-1.6-.3-3.3-.4-4.9v-.1a48.35,48.35,0,0,0-1.1-8.4,38.63,38.63,0,0,1-.7-9V496q-.15-8,0-15.6v-3c0-7.1,0-14.5,3.1-21.8a28.44,28.44,0,0,1,11.7-13.4,49.56,49.56,0,0,1,17-6.5,3.4,3.4,0,0,1,1-.1,4.53,4.53,0,0,0,1.6-.3c1.1-.3,2.2-.7,3.3-1,1.7-.5,3.5-1.1,5.2-1.5a62.06,62.06,0,0,1,8.6-1.6c1.2-.2,2.4-.3,3.6-.5a79.07,79.07,0,0,1,10.8-1.1h3.4c2.4,0,5-.1,7.4-.1h.2c2.5-.1,5.1-.2,7.6-.2a64.39,64.39,0,0,1,13.8,1.2c4.1.8,8.3,1.3,12.4,1.7h.3c1.6.2,3.1.3,4.7.5h1.8a2.2,2.2,0,0,1,.8.1c1.4.4,2.8.9,4.2,1.4l.2.1c1.2.4,2.6.9,3.8,1.3,2.2.7,4.5,1.3,6.7,1.9,1.7.5,3.4.9,5.1,1.4l7.3,2.1c3.2.9,6.4,1.9,9.6,2.8l1.7.5c3.5,1,7,2,10.6,2.8l1.5.3a68.76,68.76,0,0,0,11.8,1.8c1.1,0,2.2.1,3.3.1h.2c2.2.1,4.6.2,6.8.2,5.6,0,12.2-.4,18.4-3.7a33.21,33.21,0,0,0,9-7.3,24.59,24.59,0,0,0,4.8-9.2c1-4,.4-8.6-1.8-13.7a44.14,44.14,0,0,0-10.7-15.3c-1.9-1.8-4.1-3.5-6.3-5.2l-.1-.1a48.16,48.16,0,0,0-7-4.8l-2.1-1.2-.4-.2c-3.8-2.3-7.8-4.6-12.4-5.8-2.9-.8-5.7-1.8-8.5-2.8h-.1c-3.1-1.1-6.3-2.2-9.6-3.1a63.15,63.15,0,0,0-15.6-2.2h-1c-2.6,0-5.4-.1-7.6-.1h-.2c-2.6-.1-5.2-.1-7.8-.1a65.67,65.67,0,0,0-16.7,1.8,52.67,52.67,0,0,1-5.2,1h-.2l-3.3.6-1.9.4h-.1c-4.3.9-8.7,1.8-13,2.9a83.37,83.37,0,0,0-8.5,2.6c-2.6.9-5.3,2-7.8,3h-.1l-2.3.9-2.5,1-.3.1c-2.6,1-5.2,2-7.8,3.2-1.8.8-3.5,1.8-5.2,2.7h-.1c-1,.6-2,1.1-3.1,1.7-2,1.1-4.1,2.1-6.1,3.2-3.3,1.7-7.1,3.7-10.8,5.6-1.9,1-3.8,2.2-5.6,3.3h-.1c-1.2.7-2.4,1.5-3.6,2.2-3.2,1.9-6.5,3.8-9.4,5.4l-1.6.9-1,.6-.6.3c-1.6.9-3.2,1.8-4.9,2.9l-.5.3-.1.1a10.14,10.14,0,0,1-1.3.9c-1.3.8-2.5,1.6-3.8,2.3l-.1.1c-2.5,1.5-5.1,3.1-7.6,4.8-4.7,3.2-8.6,4.7-12.5,4.7-1.3,0-2.5.1-3.8.1h-.1c-1.4.1-3.1.1-4.7.1a31.72,31.72,0,0,1-10.6-1.6,80.51,80.51,0,0,0-9.6-2.7h.5c-1.8-.4-3.6-.8-5.3-1.3-1.3-.4-2.6-.8-3.8-1.2a40.31,40.31,0,0,0-4.6-1.4c-2.2-.5-4.5-.9-6.7-1.3h-.1l-4.6-.9c-1.5-.3-3.2-.7-4.7-1.1H879c-2.4-.6-4.8-1.2-7.3-1.6a55.2,55.2,0,0,0-8.1-.6h-.8c-7.7.1-15.5.2-23.1.4h-2.1l-6.4.1h-.4a2,2,0,0,0-.7.1c-1.3.3-2.6.6-3.8.9a76.27,76.27,0,0,1-8.3,1.7,28.15,28.15,0,0,1-4.1.2c-1.2,0-2.4,0-3.5-.1h-.1c-.8,0-1.7-.1-2.5-.1a4.7,4.7,0,0,1-3.1-1.6,3.86,3.86,0,0,1-1.1-2.7c.1-1.1.3-2.3.5-3.4v-.1c.2-1.1.4-2.1.5-3.2.4-4.3.5-7.8.6-11,0-7.3,0-15.2-1.4-22.9-.3-1.7-.6-3.5-.8-5.2v-.1a64.89,64.89,0,0,0-1.6-8.8c-.4-1.7-.8-3.4-1.2-4.9l-.1-.3-1.5-6c-.7-2.5-1.5-5.1-2.4-7.5l-.4-1v-.1c-1.8-4.4-3.7-9-5.8-13.4-2.7-5.5-5.8-11.1-9.1-16.8a97.06,97.06,0,0,0-7.4-10.7c-2.9-3.7-6.2-7.5-10.3-11.9a113.64,113.64,0,0,0-19-16.3,30.92,30.92,0,0,0-6.5-3.4,27.69,27.69,0,0,0-4.1-1.2c-.7-.2-1.5-.3-2.3-.6-.4-.1-.8-.3-1.2-.4a4.14,4.14,0,0,0-1.9-.5ZM840.1,560.7a16.37,16.37,0,0,0,3.8-.4,26.29,26.29,0,0,1,7.9-.9c.9,0,1.8,0,2.9.1,4,.2,8,.7,11.9,1.2h.1l3.2.4,2,.2c3.5.4,7,.8,10.5,1.5a64.5,64.5,0,0,1,6.3,1.6h.3c1,.3,2,.6,3.1.9s1.9.5,2.9.7h.2a58.73,58.73,0,0,1,6,1.6c4.3,1.4,8.6,3.1,12.7,4.9a31.9,31.9,0,0,1,11.7,8.8l.1.1a51.33,51.33,0,0,1,7.5,11.6,68.16,68.16,0,0,1,3.1,10v.1c.3,1.1.5,2.1.8,3.2,1.2,4.6,1,9.2.8,13.6,0,1-.1,2-.1,2.9a36.6,36.6,0,0,1-1.8,8.6v.1c-.4,1.2-.8,2.5-1.1,3.7a59,59,0,0,1-9.5,19.9c-1.6,2.3-3.6,4.7-6,7.7-.6.7-1.2,1.5-1.8,2.2a32.64,32.64,0,0,1-5.3,5.8c-1,.8-1.9,1.5-2.8,2.3-4.5,3.7-9.2,7.5-14.9,9.8-2.5,1.1-5,2.3-7.4,3.6-1.2.6-2.6,1.4-3.9,2a11.42,11.42,0,0,1-2.6.9c-1,.2-2,.3-3.2.5a31.89,31.89,0,0,0-6,1.2,37.5,37.5,0,0,1-12,1.6c-1.4,0-2.8,0-4.1-.1h-.1c-1.2,0-2.7-.1-4.2-.1a33.14,33.14,0,0,1-5.5-.8h-.1c-1.1-.2-2.2-.5-3.3-.7a37.84,37.84,0,0,1-13.8-5.1c-4.4-2.4-8.7-5.3-12.8-8h-.1c-1.8-1.2-3.8-2.5-5.8-3.8-6.9-4.4-14.1-9.3-19.1-16.5a89.5,89.5,0,0,1-7.5-14l-.3-.5c-.3-.7-.7-1.4-1-2.1-4.6-9.6-3.8-20.2-3.1-29.6.5-7.1,3.1-14.3,7.6-21.4a51.83,51.83,0,0,1,7.1-9.1,1.14,1.14,0,0,0,.3-.8c.1-.3.1-.5.2-.8a53,53,0,0,0,6-4.6,40.42,40.42,0,0,1,8.9-6.2l1.1-.5.7-.3a68,68,0,0,1,13.2-5.1c1.4-.3,2.8-.5,4.2-.7a32.47,32.47,0,0,0,4.3-.8,15.53,15.53,0,0,1,3.7-.4h2.1a13.33,13.33,0,0,1,2,0Z" transform="translate(-642.7 -265)"/><path class="cls-3" d="M825.8,774.3a173.19,173.19,0,0,0-25.8,1.5l-1,.1c-3.6.5-7,1-10,3.3-3.7,2.8-6,8-2.8,13.1,1.9,3.1,4.2,6.1,6.3,9l.1.1c.5.7,1.1,1.3,1.7,2a16.38,16.38,0,0,1,2.1,2.5,44.94,44.94,0,0,1,2.4,4.2l.1.1a46,46,0,0,0,3.7,6c3.1,4.3,4.4,9.3,5.2,13.2a52.73,52.73,0,0,1,.6,13.2,34.81,34.81,0,0,1-1.9,9.6,40.24,40.24,0,0,1-6.6,11.8,37.28,37.28,0,0,1-17.6,12.5,94.45,94.45,0,0,1-11.9,3.1,16.35,16.35,0,0,1-2.2.2,12.52,12.52,0,0,1-5-1.1,21.71,21.71,0,0,0-5.6-1.3c-.8-.1-1.7-.3-2.4-.4-6.1-1.2-11.3-4.5-16.3-7.6a77.92,77.92,0,0,1-10-8l-.3-.3c-.7-.7-1.5-1.3-2.2-2a3.37,3.37,0,0,0-2-.9,2,2,0,0,0-1.8,1.4,60.53,60.53,0,0,0-2.9,10.3,130,130,0,0,0-1.7,13.8c-.4,5.9-.7,12.1-.5,18.4q.3,6.45,1.2,12.9v.1c.1.8.2,1.7.3,2.5.6,5.1,1.3,9.3,2,13.1.5,2.7,1.2,5.4,1.8,8.1v.2c.3,1.3.7,2.7,1,4,.2,1,.5,2.1.7,3.1.4,1.9.9,4.1,1.5,6.2.9,3.3,2,6.6,3.1,9.5l.1.1c.9,2.6,1.9,5.7,3.1,8.6.8,1.9,1.7,3.9,2.5,5.8v.1l.2.5c.3.7.6,1.3.9,2a24.43,24.43,0,0,1,1,2.4l.1.2a45.35,45.35,0,0,0,2.8,5.9c1.6,2.7,3.4,5.4,4.9,7.8l2.1,3.3,2.4,3.9a77.57,77.57,0,0,0,5.7,8.4c5.4,6.3,11.3,12.1,15.9,16.5a93.51,93.51,0,0,0,11.5,9.3c5.4,3.7,11.1,7,16.1,9.9a71,71,0,0,0,21.3,8.3,3,3,0,0,1,.8.4,5.39,5.39,0,0,0,1.3.7,14.62,14.62,0,0,0,2,.5c1.5.4,2.9.8,4.4,1.1l2,.3.5.1a73.51,73.51,0,0,0,11.4,1.2h.7c3.9,0,7.9-.3,11.8-.6,1.6-.1,3.2-.3,4.8-.4h.9a19.15,19.15,0,0,0,4.1-.5c4.3-1.2,9.5-2.7,14.6-4.4l.2-.1a61.79,61.79,0,0,0,10.3-4.2c5.4-3.1,10.5-6.5,14.7-9.4a61.51,61.51,0,0,0,8.3-7,37.17,37.17,0,0,0,4.1-4.8c.3-.4.7-.9,1-1.3.6-.8,1.3-1.6,1.9-2.4a45.39,45.39,0,0,0,4.8-6.7c2.7-5.1,5.2-10.3,7.4-15.6,2.2-5.1,5-11.9,7.5-18.8,1.4-3.8,2.5-7.8,3.6-11.6l.1-.5c.4-1.5.8-3,1.3-4.4.3-.9.5-1.8.8-2.7l.1-.4c.8-2.5,1.6-5.4,2.4-8.2l.3-1.1.3-1.1a118.56,118.56,0,0,0,2.7-11.8c.8-5.2,1.2-10.4,1.6-15.6l.1-1.6c.1-1.9.1-3.8.1-5.7v-3a4.87,4.87,0,0,0-.1-1.2c-.3-1.1-.6-2.3-.9-3.4l-.1-.3a64.14,64.14,0,0,1-1.7-7.3c-.6-4-3.1-6.6-6.6-6.6a6.45,6.45,0,0,0-2,.3c-1.2.3-2.3.7-3.6,1.1a44.39,44.39,0,0,1-6,1.6l-.3.1a145,145,0,0,1-17.4,2.1c-1.9.1-4.4.1-6.8.1a70,70,0,0,1-15.8-1.5,22.11,22.11,0,0,0-2.5-.5c-3.8-.8-7.7-1.6-11.1-3.5l-.4-.2c-3.1-1.7-6.2-3.5-8.4-6.1a20.2,20.2,0,0,1-4.8-11.2c-.6-4.7.6-8.7,2-13.1a27,27,0,0,1,4.8-8.4,135.11,135.11,0,0,1,9.4-10.5l.8-.9c1.6-1.7,3.2-3.3,4.8-4.9l.2-.2a87.25,87.25,0,0,0,9.2-10c2.7-3.6,6.3-9,6.5-15.6,0-.7.1-1.5.1-2.2.2-2.4.3-4.9-.5-6.9a29.82,29.82,0,0,0-6.7-10c-3.1-3.2-7-5.8-10.7-8.3l-.5-.3a47.52,47.52,0,0,0-10.2-5.7l-1.1-.4c-5.2-1.9-10.6-3.9-16.2-4.7l-4-.6h-.2a72.42,72.42,0,0,0-12.4-1.4h-8.5l-5.1-.3Z" transform="translate(-642.7 -265)"/><path class="cls-3" d="M849,565.7a66.36,66.36,0,0,0-13.3,1.1,40.68,40.68,0,0,1-4.9.5,21,21,0,0,0-7.8,1.3,14.26,14.26,0,0,1-2.7.9,11.1,11.1,0,0,0-3.9,1.6,91.91,91.91,0,0,0-10.2,8.5c-6.4,6.2-12.4,12.3-16.6,20.2-3.1,5.7-4.8,12-5.6,19.9a13.84,13.84,0,0,0,.5,4.5,22.26,22.26,0,0,1,.5,3.6,28.68,28.68,0,0,0,4.3,13.8c3.1,5.3,6.2,10.3,10.7,14.2l.1.1.2.1c2.3,2,4.6,4,7,6,.9.8,1.9,1.6,2.8,2.4a75.75,75.75,0,0,0,7.9,6.1c3.9,2.5,8.1,4.8,12.1,7,2.2,1.2,4.5,2.5,6.7,3.8a31.29,31.29,0,0,0,15.2,4.2c.9,0,1.8.1,2.8.1h.4c1.3.1,2.7.2,4.1.2a18.86,18.86,0,0,0,7.4-1.2,29.81,29.81,0,0,1,5.9-1.4c1.4-.2,2.8-.5,4.1-.8a81,81,0,0,0,10.9-3.4,27.73,27.73,0,0,0,4.8-2.6,41.61,41.61,0,0,1,4.2-2.3c1-.7,2-1.4,3-2a41.28,41.28,0,0,0,6.3-4.7,102.94,102.94,0,0,0,11.2-12.6,61.69,61.69,0,0,0,8.7-15.3l.5-1.2.2-.6c1.7-4.5,3.5-9.1,3.7-13.9v-.3c.4-8.7.9-17.7-3.8-25.8-.4-.7-.7-1.3-1.1-2a55.21,55.21,0,0,0-5.6-8.6c-4.1-4.9-9.7-8-14.5-10.5a77.14,77.14,0,0,0-14.7-5.7c-3.2-.8-6.5-1.5-9.7-2.1h-.1l-.5-.1c-1.4-.3-2.9-.6-4.3-1a46,46,0,0,0-10.3-1.6h-1c-2.5,0-5.1-.1-7.6-.2h-.3c-2.5-.1-5.1-.2-7.7-.2Zm16.7,67.2a1.2,1.2,0,0,1-.8-.2,19.71,19.71,0,0,1-6.8-4.5,19.39,19.39,0,0,1-2.7-4.3,30.71,30.71,0,0,0-1.7-3.1,16.25,16.25,0,0,1-2.8-12.7c.4-1.8,3-3.8,4.7-4.1a48.58,48.58,0,0,1,10.1-.7h2.1a69.82,69.82,0,0,1,7.9.5c1,.1,2.2,1.1,3.3,2.6a8.7,8.7,0,0,1,1.8,6.1,20,20,0,0,1-1.9,4.8c-.5,1-.9,1.9-1.3,2.9-.8,1.3-1.6,2.5-2.4,3.7s-1.7,2.6-2.5,3.9c-1.2,2-4.7,5.1-7,5.1Z" transform="translate(-642.7 -265)"/><path class="cls-4" d="M867.2,608.9h0l-1.7.2-.5.1c-1.7.2-3.7.5-5.6.8-.7.1-2,.7-2,1.1a13.44,13.44,0,0,0,.8,4.8,38.83,38.83,0,0,0,2.4,4.5v.1a24.87,24.87,0,0,1,1.5,2.8c.7,1.3,1.4,1.9,2.4,1.9a4.42,4.42,0,0,0,2.4-1.1c3.4-2.8,5.3-6.6,6.8-10.3a3.27,3.27,0,0,0-.6-3.1,18.48,18.48,0,0,0-5.9-1.8Z" transform="translate(-642.7 -265)"/><path class="cls-4" d="M1051.4,955.6a20.24,20.24,0,0,0-4.3.5c-3.2.6-5.4,2.9-7.5,5.2-.5.5-1,1.1-1.5,1.6-2.9,2.8-4,6.6-5.1,10.2-.2.6-.4,1.3-.6,1.9a47.46,47.46,0,0,0-1.4,6.3v.1h0c-.2,1.4-.5,2.8-.8,4.2l-.1.5v.2c-.4,1.6-.8,3.4-1.8,4.4a21.35,21.35,0,0,0-6,11,74.5,74.5,0,0,1-3,9.1c-.6,1.6-1.1,2.9-1.6,4.3-1.6,4.6-3.3,9.5-4.9,14.4-1.9,5.8-3.9,11.8-5.8,17.5l-.3.8-.6,1.7-.8,2.5-.3.8v.1c-1.3,3.9-2.6,7.8-3.8,11.8-.3,1-.9,3.5-.1,4.4a18.22,18.22,0,0,0,6.4,4.8,61.36,61.36,0,0,0,10.4,2.8l.7.1a26.26,26.26,0,0,0,4.9.5,20.1,20.1,0,0,0,13.6-5.2,27.36,27.36,0,0,0,3.9-4.5,30.92,30.92,0,0,1,3.3-3.9,7.33,7.33,0,0,1,4.7-1.7h.2c3.6.1,4,.9,4.1,4.6v.1a20.46,20.46,0,0,0,.9,6.1,70.4,70.4,0,0,0,4.6,9.6c2.3,4,3.8,5.9,6.4,5.9a10,10,0,0,0,4.1-1.1c6.2-2.7,10.8-7.3,14.1-14.1a23.43,23.43,0,0,0,2-5.8l.1-.8.1-.3a19.74,19.74,0,0,0,.6-7.2c-.4-2.3-.1-4,.9-5.2a5.75,5.75,0,0,1,4.5-1.9h.6a13.68,13.68,0,0,1,6.1,1.9l.1.1c.5.3,1.1.5,1.6.8a14.62,14.62,0,0,0,5.9,1.4,11.5,11.5,0,0,0,4.1-.8,17.18,17.18,0,0,0,9.7-9.2c2.5-5.5,1.8-11.1.8-15.8-.8-3.5-2.6-6.8-4.3-10l-.5-.9a47.64,47.64,0,0,0-3.1-4.7c-.7-.9-1.4-1.9-2-2.8-2.6-4-3.6-7.3-3-10.8a1.55,1.55,0,0,1,.8-.8,2.18,2.18,0,0,0,.5-.4c1.7-1.6,3.4-3.1,5.4-4.9.2-.4.3-.8.5-1.2a7.86,7.86,0,0,0,.8-2.6c.4-4.5-2.2-8.1-4.5-10.7-3.5-4.1-7.2-7.9-12.3-9.8a13.48,13.48,0,0,0-5.2-1.1,7.27,7.27,0,0,0-4.3,1.3,44.28,44.28,0,0,0-5.4,4.3c-1.4,1.2-2.8,2.4-4.3,3.5a47.73,47.73,0,0,1-7.3,4.2h-.2a3.2,3.2,0,0,1-2.3-1.6c-.5-1.7-.9-3.6-1.2-5.2a56.32,56.32,0,0,0-1.7-6.8,20.82,20.82,0,0,0-4.5-7.9,25.88,25.88,0,0,0-8.3-5.6,13.22,13.22,0,0,0-2.7-.2Z" transform="translate(-642.7 -265)"/><path class="cls-5" d="M915.92,498.59a30.07,30.07,0,0,0-25.78,15.11c-.6,1-1.2,2-1.79,3a31.39,31.39,0,0,0,1,27.06c2,3.77,4.25,7.6,7.61,10.1a30.27,30.27,0,0,0,4.34,2.52,41.27,41.27,0,0,0,9.83,4,20.34,20.34,0,0,0,10-.42,38.93,38.93,0,0,0,5.86-2.47A129.47,129.47,0,0,0,938.79,551a34.43,34.43,0,0,0,7.17-5.68,23.86,23.86,0,0,0,5.26-21.45,22.44,22.44,0,0,0-14.72-15.81c.16-2-1.79-3.29-3.47-4.16a57.29,57.29,0,0,0-9.57-4.22,26,26,0,0,0-7.51-1.09Zm-7.23,60.2a9.22,9.22,0,0,0-3-1.49l-.52-.19a24.9,24.9,0,0,1-6.21-3.4A30.41,30.41,0,0,1,888.44,539a29.39,29.39,0,0,1-1.56-8.88c-.18-11.77,6.91-23.26,17.25-28a26.69,26.69,0,0,1,11.13-2.36,29.18,29.18,0,0,1,16,4.77,28.1,28.1,0,0,1,4.15,3.32h0a19.61,19.61,0,0,0-5.21-.7,21.79,21.79,0,0,0-17.57,9.12,22.71,22.71,0,0,0-3.49,7.86,25.19,25.19,0,0,0-.36,9.71,23.11,23.11,0,0,0,2.77,7.87,21.94,21.94,0,0,0,18.61,10.82,21.09,21.09,0,0,0,2.73-.18l.65-.1h0A27.45,27.45,0,0,1,915,559.57a25.42,25.42,0,0,1-6.28-.78Zm23.8-44.53A3.17,3.17,0,0,1,934.8,511a2.81,2.81,0,0,1,.65-.07,3.41,3.41,0,0,1,2.92,1.83,2.44,2.44,0,0,1,.3,1.38,2.94,2.94,0,0,1-1.35,1.81,4.27,4.27,0,0,1-1.92.9h-.25a2.85,2.85,0,0,1-2.66-2.59Zm6.21,9.18A4.8,4.8,0,0,1,940,518.1a4.2,4.2,0,0,1,5.23.09,4.63,4.63,0,0,1,1.31,5,4.35,4.35,0,0,1-3.85,2.95h-.12a4.35,4.35,0,0,1-3.9-2.7Z" transform="translate(-642.7 -265)"/><path class="cls-5" d="M750.13,505.7a8.85,8.85,0,0,0-3,3.05,5.81,5.81,0,0,1-2.51,2.1,23.4,23.4,0,0,0-.92,39.34c1.5,1,2.3,2.76,3.24,4.33a19.65,19.65,0,0,0,6,6.29,25.73,25.73,0,0,0,11.89,3.77,42.66,42.66,0,0,0,10.94-.42,31.77,31.77,0,0,0,10.79-5.26,31.06,31.06,0,0,0,2.58-2.16,34.24,34.24,0,0,0-2.24-51.59,33.24,33.24,0,0,0-36.81.55Zm19.28-5a27.06,27.06,0,0,1,9.66,1.74c10.22,3.86,18,14.13,19.41,25.55a33,33,0,0,1-1.87,15.28,1,1,0,0,1-.05.16l0,.08a36.38,36.38,0,0,1-1.48,3.38l0,0,0,.07a31.17,31.17,0,0,1-9.11,11,29.71,29.71,0,0,1-17.61,5.73,29.11,29.11,0,0,1-13.4-3.22,16.56,16.56,0,0,1-5.46-4.35,9.07,9.07,0,0,1-1.85-4.17h0a20.63,20.63,0,0,0,7.58,1.43,21.15,21.15,0,0,0,12.08-3.79,20.54,20.54,0,0,0,5-5.1,25.16,25.16,0,0,0,4.21-16.65,22,22,0,0,0-1.86-6.84,21.34,21.34,0,0,0-6.16-7.82l0,0-.09-.07a22.5,22.5,0,0,0-7.07-3.75l-.08,0h0a21.14,21.14,0,0,0-6.29-1,19.61,19.61,0,0,0-5,.64c-.37.1-.73.21-1.1.33l0,0h0a29,29,0,0,1,20.64-8.6Zm-16,14.86a2.66,2.66,0,0,1-.74-3.15,3.29,3.29,0,0,1,2.72-1.44l.41,0a3.13,3.13,0,0,1,1.6.38,2.49,2.49,0,0,1,1.14,2,2.54,2.54,0,0,1-.76,2.15,3,3,0,0,1-1.17.62,4,4,0,0,1-1.17.18,3.21,3.21,0,0,1-2-.68Zm6.54,5a5.55,5.55,0,0,1,1.44-4.73,4.87,4.87,0,0,1,3.46-1.44,4.81,4.81,0,0,1,1.07.12,5.15,5.15,0,0,1,3.55,3.37,5.41,5.41,0,0,1-.38,4.11,5,5,0,0,1-3,2.63,4,4,0,0,1-1.13.16,5.3,5.3,0,0,1-5-4.22Z" transform="translate(-642.7 -265)"/><path class="cls-6" d="M915.26,499.78a26.85,26.85,0,0,0-11.13,2.36c-10.34,4.68-17.43,16.18-17.25,28s7.9,23.14,18.34,27l.52.19a9.22,9.22,0,0,1,3,1.49,25.42,25.42,0,0,0,6.28.78,27.45,27.45,0,0,0,18.52-7.28,23,23,0,0,1-3.39.27,22,22,0,0,1-18.61-10.82,24.29,24.29,0,0,1,1.08-25.44,21.79,21.79,0,0,1,17.57-9.12,19.74,19.74,0,0,1,5.22.7,29,29,0,0,0-20.1-8.1Z" transform="translate(-642.7 -265)"/><path class="cls-6" d="M942.58,517.23a4.1,4.1,0,0,0-2.55.87,4.8,4.8,0,0,0-1.33,5.34,4.35,4.35,0,0,0,3.9,2.7h.12a4.35,4.35,0,0,0,3.85-2.95,4.74,4.74,0,0,0,.24-1.94,4.62,4.62,0,0,0-1.55-3.06,4.11,4.11,0,0,0-2.68-1Z" transform="translate(-642.7 -265)"/><path class="cls-6" d="M935.45,510.92a2.76,2.76,0,0,0-.65.07,3.17,3.17,0,0,0-2.31,3.27,2.84,2.84,0,0,0,2.66,2.59h.25a4.27,4.27,0,0,0,1.92-.9,2.92,2.92,0,0,0,1.34-1.81,2.36,2.36,0,0,0-.29-1.38,3.41,3.41,0,0,0-2.92-1.83Z" transform="translate(-642.7 -265)"/><path class="cls-6" d="M769.41,500.68a29,29,0,0,0-20.64,8.6,19.6,19.6,0,0,1,6.06-1A22,22,0,0,1,774.58,521c4.47,9.74,1.17,22.56-7.36,28.59a21.09,21.09,0,0,1-12.07,3.79,20.43,20.43,0,0,1-7.58-1.44c.68,4.49,4.87,7.28,7.31,8.54a29.11,29.11,0,0,0,13.4,3.22A29.77,29.77,0,0,0,785.9,558c8.89-6.6,13.94-18.65,12.57-30s-9.18-21.69-19.4-25.56a27.27,27.27,0,0,0-9.66-1.73Z" transform="translate(-642.7 -265)"/><path class="cls-6" d="M764.89,514.34a4.89,4.89,0,0,0-3.46,1.44,5.55,5.55,0,0,0-1.44,4.73,5.29,5.29,0,0,0,5,4.22,4.33,4.33,0,0,0,1.13-.15,5,5,0,0,0,3-2.64,5.41,5.41,0,0,0,.38-4.11,5.15,5.15,0,0,0-3.55-3.37,4.81,4.81,0,0,0-1.07-.12Z" transform="translate(-642.7 -265)"/><path class="cls-6" d="M755.84,510.93l-.41,0a3.29,3.29,0,0,0-2.72,1.44,2.66,2.66,0,0,0,.74,3.15,3.21,3.21,0,0,0,2,.68,4,4,0,0,0,1.17-.18,3,3,0,0,0,1.17-.62,2.54,2.54,0,0,0,.76-2.15,2.49,2.49,0,0,0-1.14-2,3.13,3.13,0,0,0-1.6-.38Z" transform="translate(-642.7 -265)"/></svg>