<svg id="Layer_1" data-name="Layer 1" xmlns="http://www.w3.org/2000/svg" viewBox="0 0 576.78 1000.03"><defs><style>.cls-1{fill:#2c2c2c;}.cls-2{fill:#bebebe;}.cls-3{fill:#6edaf4;}.cls-4{fill:#725af7;}.cls-5{fill:#161616;}.cls-6{fill:#fefefe;}</style></defs><title>Crazy_panda</title><g id="Draw_Layer" data-name="Draw Layer"><path class="cls-1" d="M1201.1,1031.4c-1.3-18.6-5.4-38.5-19.2-51.1s-39.7-12.7-48.3,3.8a399.74,399.74,0,0,0-24.5-132.9c-6.5-17.8-14.4-35.2-17.7-53.8-3.1-17.6-2-35.6-2.6-53.4-2.5-72.1-35-142.6-88-191.5,28.1-21.5,39.1-60,35.6-95.2s-19.3-67.9-36.6-98.9c-6.6-11.9-12.8-28.8-2.2-37.4,18.5-15,5-48.9-18.1-54.8s-46.8,8.3-62.7,26.1a223.06,223.06,0,0,0-144.5,6.1c-17-20.7-51.8-23.1-71.5-5s-20.2,53.1-.9,71.7c10.5,10.2,12.5,26.5,10,40.9-2.6,14.6-8.9,28-12.9,42a131.42,131.42,0,0,0,.9,73.8c4.9,16,12.8,34.1,3.8,48.2-44,70-56.6,154.6-68.2,236.5-3.1,21.7-6.1,43.4-7.7,65.2-6.4,89.6,12.9,179.2,37.6,265.6,14.3,49.8,36.9,105.8,86.3,120.9,32.3,9.9,70.3-3.1,89.8-30.7s19.2-67.7-.9-94.9l57.6,6.9c-2.8,32.1-4.9,67.1,13.6,93.5,20.1,28.6,60.6,37.9,94.2,28.2s60.8-35.1,80.8-63.8a263.68,263.68,0,0,0,47-140.8c13.7,14.3,33.1,29.8,51.1,21.6,14.2-6.4,18.4-23.7,18.4-40a52.5,52.5,0,0,0-.2-6.8Zm-69.6,3.3c0-3.9.1-7.8.2-11.7.1-6,.5-12.8,5.2-16.6,2-1.6,1.8-4.7,2-7.3a19.72,19.72,0,0,1,13.5-17c9.9-3.1,21,2.4,27.2,10.7s8.7,18.8,10.6,29c1.9,10.6,3.3,21.8-.6,31.7s-15.3,17.8-25.4,14.2c-3.8-1.3-7-4.1-10.1-6.7l-20.1-17.4c-2.2-1.9-2.5-5.1-2.5-8.1v-.8ZM943.2,970.3c2,.1,4-1,5.5-1.9,6.4-3.7,12.6-7.8,17.4-12.5,3.8-3.8,6.8-8,8.2-13a23.3,23.3,0,0,0,.8-4.6c23.8-7.4,46.5-23.9,65.7-47.8,15.3-19,27.1-40.6,38.4-63,1.3-2.5,2.6-5.1,3.8-7.7h0c3.3,5.8,6.5,11.8,9.4,18a278.23,278.23,0,0,1,15.8,41.6c2.3,7.9,4.4,16,6.2,24.3,1.9,9,3.5,18.3,4.8,27.8h0v.2c1.2,8.9,2.1,17.8,2.7,26.8q1.2,17.25,1.2,35.4c0,10.6-.3,21.6-.9,32.7-.1,2.3-.3,4.7-.4,7h0c-12.7-13.7-30.2-23.1-50.4-27.2a120.94,120.94,0,0,0-58.5,2.9c-17.7,5.4-34.9,14.7-51.2,27.6a237.09,237.09,0,0,0-41,42.4c-8.7,11.5-19.2,26.9-22.2,44.2a42,42,0,0,1-7.9,2.2,51.4,51.4,0,0,1-17.5.2,53.44,53.44,0,0,1-13.7-4,57.89,57.89,0,0,1-12.3-7.3l-.1-.1h0a50.09,50.09,0,0,1-11.7-13,46.27,46.27,0,0,1-3.6-7c-13.4-33.3-44.9-59.2-80.2-65.7-33.9-6.3-70.8,5-95.4,29.1-1,1-2.1,2.1-3.1,3.2h0a548.36,548.36,0,0,1-21.2-150.9,540.12,540.12,0,0,1,7.9-92.6c1.8-10.5,5.5-24.9,17.2-28.7a262.06,262.06,0,0,0,98.2,122.7c6.5,4.3,9.6,11.9,12.7,19.3l.3.7.4,1c3,7.2,7.6,15.9,15.8,18.7,3.6,1.2,7.9.3,11.4-2.1,2.9-2.1,4.5-4.9,4.5-7.7a7.17,7.17,0,0,0-.6-2.9,5.38,5.38,0,0,1-.4-2.2c0-2.1,1.2-4.1,3.3-5.7A9.56,9.56,0,0,1,811,929c5.8,1.8,9.4,7.5,12.4,13.4,1.4,2.9,4.4,4.4,8.2,4.2a13.5,13.5,0,0,0,3.4-.6,14.15,14.15,0,0,0,3.1-1.4,12.23,12.23,0,0,0,5.4-6.1,19.23,19.23,0,0,0,1.2-6.9c0-6-2.4-12.2-4.9-18.1,2.4-3.7,6.6-1.7,11.1.3,3.9,1.8,8.1,3.8,11.6,2.3,2.6-1.1,4.1-3.7,4.1-7.6a24.39,24.39,0,0,0-1.5-8c-7.2-21.2-14.7-43.1-24.6-63.6-2.4-5-5-9.9-7.5-14.8h0c-4.3-8.3-8.8-16.9-12.4-25.7-1.8-4.5-3.5-9.1-5-13.8a168.8,168.8,0,0,1-6.8-33.8h0c-.5-5.2-.7-10.5-.7-15.7a166,166,0,0,1,4.2-37.3c.9-3.8,2.1-8.1,4.9-11.3,3.2-3.5,8.1-5.1,12.9-6.2a136.28,136.28,0,0,1,24.5-3.4h.9c3.4-.1,6.9-.2,10.3-.1h0c26.5.3,52.9,6.5,76.7,12.8,4.2,1.1,8.1,2.3,10.4,5.5a11.48,11.48,0,0,1,1.9,6.9,35,35,0,0,1-.7,6.5,481.36,481.36,0,0,1-43.4,128.7c-.4.7-.7,1.5-1.1,2.2-5.2,10.4-10.7,21.1-11.3,32.7a11.58,11.58,0,0,1-1.4,4.8h0a13.67,13.67,0,0,1-2,2.9,36.73,36.73,0,0,1-5.9,5.3l-.4.3c-4.4,3.3-9.1,6.7-10.4,12a11,11,0,0,0-.2,1.8,9.47,9.47,0,0,0,4.1,7.6,5.46,5.46,0,0,0,5.1.5,10.64,10.64,0,0,1,3.5-.9,13.29,13.29,0,0,1,10.7,3.9,11.42,11.42,0,0,1,2.1,3,11.81,11.81,0,0,1,1.1,5,13.16,13.16,0,0,1-6.7,11.5,5.3,5.3,0,0,0-2.9,4.9c0,3.9,3.4,8.9,7.9,9.7,5.1.9,10.2-1.2,15.1-3.3h.1c1.4-.6,2.9-1.2,4.3-1.7,4.2-1.5,9.1-1.9,12.9-.6a12.27,12.27,0,0,1,3.2,1.7h0a7.05,7.05,0,0,1,2.1,2.7,8,8,0,0,1,1,4.1c0,3-1.2,6.1-2.5,9.2v.1l-.9,2.4a16.36,16.36,0,0,0-.8,5c.2,3.6,1.7,8.1,5.8,8.3ZM905.1,1160c.2-14.9,1.2-31.9,10.6-44.7a354.61,354.61,0,0,1,74-75.3c7.6-5.7,14.3-10.2,21.7-13a71.42,71.42,0,0,1,20.4-4.1,126.06,126.06,0,0,1,80.8,22c3.6,2.5,7.2,5.4,8.9,9.4a19.8,19.8,0,0,1,1.3,7.5c0,1.2,0,2.5-.1,3.5a233.57,233.57,0,0,1-58.5,141,170.56,170.56,0,0,1-24,22.5,132.84,132.84,0,0,1-42.9,21.8,93.48,93.48,0,0,1-31.4,4.3,61.47,61.47,0,0,1-25-6.2c-1-.5-2-1.1-2.9-1.6-12.9-7.7-22.8-21.5-27.9-38.8-4.3-14.7-4.9-30.2-4.9-42a41.69,41.69,0,0,1-.1-6.3Zm75.8-592.2c2.7-2.2,5.4-4.3,8.6-4.3,2.9,0,5.6,1.7,7.9,3.4a138.91,138.91,0,0,1,20.2,18,161.62,161.62,0,0,1,13.7,17c21.9,31,33.9,68.9,42.1,101.4,3.7,14.6,7.3,30.3,8.4,46.1.2,3.6.4,7.2.4,10.9h0c0,48-22.4,98.1-61.7,137.2-14,14-26.6,22.9-39.6,28.1-16.6,6.6-33.9,6.5-47.5-.1a47.24,47.24,0,0,1-25.9-38.7c0-1-.1-2.1-.1-3.2,0-12.5,4.7-24.9,8.9-35.8l14.4-37.5,14.5-37.7c4.9-12.9,10.1-26.2,13.5-39.8a169.9,169.9,0,0,0,4.9-40.4c0-4.7-.2-9.4-.5-14a172.14,172.14,0,0,0-20-67.8q-2.1-3.9-4.5-7.8,21.3-17.55,42.3-35ZM718.3,368l7-8.3,7-8.3c9.5-11.3,19.8-23.5,31.9-33.6h.1c2.4-2,4.9-4,7.5-5.8a102,102,0,0,1,13.5-8c17.2-8.3,36.4-10.5,53-11.6,20.2-1.3,35.4-.6,49.4,2.1,24.4,4.9,46.6,16.9,68.1,28.5,21.2,11.5,33.4,34.1,43.2,54.4,4.8,10.1,9.8,20.9,14.2,32.2,5.7,14.7,10.4,29.7,13,45.1.8,4.8,1.4,9.6,1.8,14.5.2,3.4.4,6.6.4,9.6a77.79,77.79,0,0,1-2.2,19.4c-3.6,14.1-11.7,25.8-22.1,36.9-5,5.4-10.6,10.5-16.1,15.4-2.3,2-4.7,4.1-7.2,6.2-20.4,17.4-44.4,38-72.1,49.5a132.94,132.94,0,0,1-13.8,4.9,112,112,0,0,1-18.3,3.7,141.15,141.15,0,0,1-22.1.5c-29.6-1.2-72.4-8.5-107.5-36.2a129.11,129.11,0,0,1-34.4-41.3,133,133,0,0,1-7.2-16.5,118.42,118.42,0,0,1-4.9-19.5,99.87,99.87,0,0,1-1.2-15.4q0-3.75.3-7.5c1.1-14.2,5.3-28.4,9.3-42.1,4.6-15.7,9.4-31.9,9.4-47.8a71.18,71.18,0,0,0-1.8-16.2c0-.2-.1-.4-.1-.7-.1-1.4.8-2.8,1.9-4.1Zm212-76.1c1.4-4.1,5.2-7.1,7.9-8.9a57.93,57.93,0,0,1,8.4-4.7h0a47,47,0,0,1,11-3.5,42.34,42.34,0,0,1,7.9-.8c10.2-.1,20,3.6,26.8,10.2,4.5,4.3,7.1,9.6,7.1,14.6a13.33,13.33,0,0,1-.3,2.8c-.8,3.9-3.4,7.3-5.6,10.3l-3.3,4.4-5.9,7.8c-1,1.4-2.7,2.9-4.4,3.1a2.73,2.73,0,0,1-1.8-.5c-12.9-11.1-28.8-17.8-44.1-24.3-2.6-1.1-4.2-3.9-4.2-7.3a6.56,6.56,0,0,1,.5-3.2ZM953,945.3a10.09,10.09,0,0,1,12-3.4c-1.4,2-2.8,3.9-4.2,5.9l.1.1c-2.4,1.9-4.8,3.8-7.2,5.8a4.77,4.77,0,0,1-1.9-4.1,6.17,6.17,0,0,1,1.2-4.3ZM827.5,633.4a19.2,19.2,0,0,1,1.8-3.3,21.41,21.41,0,0,1,1.3-1.9c2.3-3,5.6-5.8,9.7-4.7,28.3,8.1,58-2.6,88.4-15.2A177.63,177.63,0,0,1,942.9,633a184.86,184.86,0,0,1,15.8,49.9h0c-4.9-5.9-12.8-8.2-19.8-10a296.35,296.35,0,0,0-114.1-5.5c-3.2.5-6.5,1-9.7,1.6h0a197.64,197.64,0,0,1,12.4-35.6Zm83.2,294.2c1.6-.8,3.6,0,4.9,1.2.2,2.1-2.6,3.1-4.7,2.6v.3a1.77,1.77,0,0,1-1.4-1.9,2.61,2.61,0,0,1,1.2-2.2Zm-16.5-38.7a3.45,3.45,0,0,1,4.4,3.1l-.6.3c-.2,2.1-3.3,3.2-4.9,1.8a2.72,2.72,0,0,1-.9-2.1,3.17,3.17,0,0,1,2-3.1Zm-41.8,6.3.9-.6a10,10,0,0,1,3.9,9.5c-3.1-.2-5.5-3.3-5.5-6.4a4.51,4.51,0,0,1,.7-2.5Zm-49.3-134A185.92,185.92,0,0,0,814.9,809a140.75,140.75,0,0,0,6.8,14.7c2.2,4.1,4.6,8.1,6.9,12.1a165.84,165.84,0,0,1,10.9,20.4c3.4,8.1,5.2,15.9,5.2,23.1a37,37,0,0,1-2.2,13c-3.1,8.6-9.7,15.7-19,20.4a51.46,51.46,0,0,1-28.4,5.2,66.3,66.3,0,0,1-21.4-6,119.67,119.67,0,0,1-24.3-15c-1.8-1.3-3.6-2.8-5.5-4.3a278.78,278.78,0,0,1-83.6-116.5c-3.9-10.3-8.4-24.1-9-38.6v-3.2c0-12.7,2.8-25.3,5.9-37A484.74,484.74,0,0,1,711,570.4c2-3.3,4-6.6,6.1-9.9h0c22.2,31,57,52.6,94.5,59.2,3.5.6,7,1.1,10.5,1.4h0c-6.6,10.1-10.5,21.6-13.1,33.2-.3,1.6-.7,3.3-1,4.9-1.1,5.6-1.9,11.1-2.6,16.4a399.65,399.65,0,0,0-4.1,54.9c.2,10.8.7,21,1.8,30.7ZM662.6,1080.1a97.85,97.85,0,0,1,47.7-32.2,92.78,92.78,0,0,1,9.1-2.2c1.8-.3,3.6-.6,5.5-.8,15.7-1.7,31.8,2.2,45.8,9.9a88.77,88.77,0,0,1,12.5,8.1,93.09,93.09,0,0,1,9.6,8.4,144.09,144.09,0,0,1,24.4,32.5c2.3,4.1,4.5,8.4,6.7,13,11.1,23.5,17,46.8,17.8,69v3.7c0,14.8-3,26-9.3,34.5-7.5,10.2-19.6,16-30.3,20.3-8,3.2-17.5,6.6-27.6,7.5a62.53,62.53,0,0,1-10.6,0,68.44,68.44,0,0,1-16.6-3.6h-.2a81.25,81.25,0,0,1-12.5-5.6,99.74,99.74,0,0,1-31.3-28.2c-16.7-22.9-24.7-50.5-32.5-77.1l-9-30.7-5.3-18.2c2-3,4-5.7,6.1-8.3Zm168-157.9c2.2.3,3.7,2.6,3.9,4.8s-.6,4.4-1.4,6.5a12.15,12.15,0,0,1-4.9-4.1l.1-.2a3.11,3.11,0,0,1-1.5-2.8c-.1-2.2,1.5-4.5,3.8-4.2Zm-46.1,3.7c2.1.5,4.3,1.1,5.9,2.6s2.4,4,1.2,5.8c-2,3-6.7,1.2-9.7-.9-3.8-2.7-8-5.9-8.7-10.5,3.8,1.1,7.6,2.1,11.3,3ZM694.1,313.5c5.7-11.2,17.7-18,29.8-21.4,10.7-3,23-3.5,32.3,2.6,3.2,2.2,6.2,5.8,5.4,9.7a12.42,12.42,0,0,1-2.8,5c-10.4,13.2-20.9,26.4-31.3,39.6-4.5,5.6-9,11.4-15,15.5a8.86,8.86,0,0,0-4.7-9.3c-10.5-5.2-16.8-17-16.8-28.6a31.48,31.48,0,0,1,3.1-13.1Z" transform="translate(-624.56 -264.88)"/><path class="cls-1" d="M963.6,422c-7.2-11.6-19-19.7-29.4-26.9-6.3-4.3-12.8-8.8-20.4-11-13.9-4-30.3,1.4-39,13a36.24,36.24,0,0,0-7.1,21.8,35.2,35.2,0,0,0,5.4,19.2c5.6,8.8,15.5,15.7,27.9,19.4,11.2,3.3,22.9,3.9,34.4,4.4a34.75,34.75,0,0,0,9.1-.4c6.2-1.4,11.1-6.4,15.1-10.3,3-3,6.4-6.5,7.8-10.9a15.07,15.07,0,0,0,.7-4.8c-.1-5.2-2.5-10.3-4.5-13.5Zm-86.7-5.6c.1-8.2,5.3-16.5,13.4-21.6a19.68,19.68,0,0,1,8-3.1c3.7-.3,7.3.9,10.4,2.2a123.53,123.53,0,0,1,45.5,31.7c2.1,2.4,4.5,5.2,5.1,8.6a9.15,9.15,0,0,1,.1,1.7c0,4.9-3.8,9.9-9.2,12.1-5.6,2.3-11.9,1.9-17.6,1.5-8.9-.5-17.9-1.1-26.8-1.6a24.85,24.85,0,0,1-7.1-1.4,33.33,33.33,0,0,1-20.8-21.4,29.23,29.23,0,0,1-1.2-8.3.4.4,0,0,0,.2-.4Z" transform="translate(-624.56 -264.88)"/><path class="cls-1" d="M892.1,496.1a8,8,0,0,0-2.2-2.3,13.55,13.55,0,0,0-4.4-2,39.28,39.28,0,0,0-8.6-.8c-6.6,0-13.3.1-19.9.1h-.4c-5.4,0-11.5.4-14.9,4.4-1.8,2.1-2.8,5.2-2.8,9v.5c.2,11.6,7.9,21.4,16.5,31.2,6.1,7.1,11.4,9.7,16.1,8,2.8-1,4.8-3.6,6.5-5.9a104.42,104.42,0,0,0,14.3-28.5,25.81,25.81,0,0,0,1.5-7.9,11,11,0,0,0-1.7-5.8Zm-42.7,10.7c.4-2.5,2.9-4.2,7.3-5.1a130.39,130.39,0,0,1,16.5-2c4.5-.2,7.3.7,8.5,3a4.71,4.71,0,0,1,.5,2.4,15.34,15.34,0,0,1-1.1,4.7c-2.2,5.9-4.4,11.9-6.7,17.9-1.4,3.8-3.1,5.6-5.3,5.5-1.5,0-2.8-1.1-3.8-2a65,65,0,0,1-14.8-19.7,9.83,9.83,0,0,1-1.1-3.9v-.8Z" transform="translate(-624.56 -264.88)"/><path class="cls-1" d="M823.6,383.6c-7.3-4.8-17.4-5.9-27.1-2.9a42.45,42.45,0,0,0-8.7,3.8,50.76,50.76,0,0,0-8.5,6.1,64.72,64.72,0,0,0-10.5,11.7c-7,9.8-11.7,21.2-15.9,31.9-1.9,5-3.9,10.3-5.9,15.6-2.2,6.1-3.4,11.5-3.4,16,0,5.4,1.7,9.6,5,12.4,7.1,6,18.1,2.5,26-1.4a191.86,191.86,0,0,0,34.6-22.5c13.7-11.2,21.6-21.6,25.2-32.9a40,40,0,0,0,1.7-11.5c0-11.3-4.7-21.1-12.5-26.3Zm-69.2,80.1,1.8-6.3L758,451c4-14,8.1-28.5,16.6-40.8,9.4-13.7,23.1-21.8,36.6-21.6a16.07,16.07,0,0,1,6.7,1.2,14.83,14.83,0,0,1,6.5,6.8,25.8,25.8,0,0,1,2.8,12.2,37,37,0,0,1-4.5,17.1c-4.8,9-12.7,16.2-20.4,22.5-11.6,9.6-25.8,19.6-42.2,21.3-1.7.2-4.8.1-5.8-2a2.9,2.9,0,0,1-.3-1.4,7.1,7.1,0,0,1,.4-2.6Z" transform="translate(-624.56 -264.88)"/><path class="cls-2" d="M1123.4,994c0-32.5-3-62.9-8.9-90.2-6.6-31-17.2-59.2-31.4-83.9-12.5,25.1-25.2,49.5-42.3,70.6-19.3,23.8-42,40.4-65.7,47.8-.9,13.4-13.2,22.4-26.3,30.1-1.5.9-3.5,2-5.5,1.9-4.2-.2-5.6-4.6-5.6-8.4a16.36,16.36,0,0,1,.8-5l.9-2.4v-.1c1.2-3,2.5-6.2,2.5-9.2a8,8,0,0,0-1-4.1c-2.9-5.8-11.4-6.4-18.3-3.8-1.4.5-2.9,1.1-4.3,1.7h-.1c-4.9,2-9.9,4.2-15.1,3.3-4.5-.8-7.9-5.8-7.9-9.7a5.23,5.23,0,0,1,2.9-4.9,12.92,12.92,0,0,0,6.7-11.5,10.75,10.75,0,0,0-1.1-5c-2.7-5.7-10.5-8.6-16.4-6a5.51,5.51,0,0,1-5.1-.5,9.47,9.47,0,0,1-4.1-7.6,11,11,0,0,1,.2-1.8c1.3-5.2,5.9-8.7,10.4-12l.4-.3c4.2-3.1,9.2-7.5,9.4-13.1.5-11.6,6-22.3,11.3-32.7.4-.7.7-1.5,1.1-2.2a480.18,480.18,0,0,0,43.4-128.7,34.06,34.06,0,0,0,.7-6.5,11.28,11.28,0,0,0-1.9-6.9c-2.3-3.2-6.2-4.4-10.4-5.5-34.6-9.1-74.7-18-112.8-9.1-4.7,1.1-9.6,2.6-12.9,6.2-2.8,3.1-4,7.4-4.9,11.3a165.34,165.34,0,0,0-4.2,37.3,167,167,0,0,0,12.5,63.4c3.6,8.8,8.1,17.4,12.4,25.7h0c2.5,4.8,5.1,9.8,7.5,14.8,9.9,20.5,17.4,42.4,24.6,63.6a27.91,27.91,0,0,1,1.5,8c0,3.9-1.4,6.5-4.1,7.6-3.5,1.4-7.6-.4-11.6-2.3-4.5-2.1-8.7-4.1-11.1-.3,2.4,5.8,4.9,12,4.9,18.1a20,20,0,0,1-1.2,6.9c-1.7,4.4-6.7,7.9-12,8.2-3.7.2-6.7-1.3-8.1-4.2-3-5.9-6.6-11.6-12.4-13.4a10.15,10.15,0,0,0-8.5,1.7,7.2,7.2,0,0,0-3.3,5.7,5.7,5.7,0,0,0,.4,2.2,7.17,7.17,0,0,1,.6,2.9c0,2.8-1.6,5.6-4.5,7.7a13,13,0,0,1-11.4,2.1c-8.2-2.7-12.7-11.4-15.8-18.7l-.4-1-.3-.7c-3-7.3-6.2-14.9-12.7-19.3a261.57,261.57,0,0,1-98.2-122.7c-11.6,3.8-15.3,18.3-17.2,28.7a550.35,550.35,0,0,0-7.9,92.6,543.54,543.54,0,0,0,21.2,150.9c24.5-26.2,63.3-38.9,98.6-32.3s66.8,32.4,80.2,65.7c4.8,11.9,14.9,21.9,27.7,27.4s27,6.1,39,1.5c3.1-17.4,13.5-32.8,22.2-44.2,12.8-16.8,26.5-31,41-42.4,16.3-12.9,33.6-22.2,51.2-27.6a121,121,0,0,1,58.5-2.9c20.3,4.1,37.7,13.6,50.4,27.2a385.33,385.33,0,0,0,1.8-39.7Z" transform="translate(-624.56 -264.88)"/><path class="cls-2" d="M1028.4,478.8c0-3-.1-6.2-.4-9.6-2.6-33.2-16.1-65-29-91.8-9.8-20.3-22-43-43.2-54.4-21.5-11.6-43.6-23.6-68.1-28.5-14-2.8-29.2-3.4-49.4-2.1-16.5,1-35.8,3.2-53,11.6-21.9,10.6-38.5,30.3-53.1,47.6l-7,8.3-7,8.3c-1,1.2-2,2.6-2,4.1a2,2,0,0,0,.1.7,71.18,71.18,0,0,1,1.8,16.2c0,15.9-4.7,32.2-9.4,47.8-4,13.7-8.2,27.9-9.3,42.1q-.3,3.75-.3,7.5c0,17.2,4.6,34.9,13.3,51.4a131.51,131.51,0,0,0,34.4,41.3c35.2,27.7,77.9,35,107.5,36.2a154.56,154.56,0,0,0,22.1-.5c41.6-4.6,76.3-34.3,104.2-58.1,21.3-18.2,39.5-35.2,45.4-58.5a71.63,71.63,0,0,0,2.4-19.6ZM867.7,418.9a36,36,0,0,1,7.1-21.8c8.7-11.6,25.1-17,39-13,7.5,2.2,14.1,6.7,20.4,11,10.4,7.2,22.2,15.4,29.4,26.9,2,3.3,4.5,8.3,4.5,13.6a15.07,15.07,0,0,1-.7,4.8c-1.4,4.4-4.8,7.8-7.8,10.9-3.9,3.9-8.8,8.9-15.1,10.3a34.75,34.75,0,0,1-9.1.4c-11.4-.5-23.2-1.1-34.4-4.4-12.4-3.7-22.3-10.6-27.9-19.4a36,36,0,0,1-5.4-19.3Zm-28.9,85.7c0-3.7.9-6.8,2.8-9,3.4-4,9.5-4.4,14.9-4.4h.4c6.6,0,13.3-.1,19.9-.1,6.1,0,12.3.5,15.3,5.1a10.68,10.68,0,0,1,1.6,5.8,26.91,26.91,0,0,1-1.5,7.9,104.42,104.42,0,0,1-14.3,28.5c-1.6,2.3-3.6,4.9-6.5,5.9-4.7,1.7-10-.9-16.1-8-8.5-9.8-16.2-19.6-16.5-31.2v-.5Zm-95.4-38.9c0-4.4,1.1-9.8,3.4-16,1.9-5.3,3.9-10.6,5.9-15.6,4.2-10.7,8.9-22,15.9-31.9,5.4-7.6,14.6-17.5,27.7-21.5,9.7-3,19.9-1.9,27.1,2.9,7.8,5.2,12.5,15,12.5,26.1a40.52,40.52,0,0,1-1.7,11.5c-3.5,11.2-11.5,21.7-25.2,32.9a187.12,187.12,0,0,1-34.6,22.6c-7.9,4-18.9,7.5-26,1.4-3.3-2.8-5-7-5-12.4Z" transform="translate(-624.56 -264.88)"/><path class="cls-3" d="M844.9,879.3a58.54,58.54,0,0,0-5.2-23.1,165.84,165.84,0,0,0-10.9-20.4c-2.3-3.9-4.7-8-6.9-12.1-13.7-25.8-20.4-56.3-20.4-93.3a399.65,399.65,0,0,1,4.1-54.9c2.4-17.7,5.9-38,16.8-54.5-41.5-4.1-80.8-26.7-105.1-60.7A484.94,484.94,0,0,0,657.4,697c-3.1,11.7-5.9,24.2-5.9,37v3.2c.6,14.5,5.1,28.2,9,38.6a277.91,277.91,0,0,0,83.6,116.5c24.9,20.5,41.2,24.2,51.2,25.3a51.46,51.46,0,0,0,28.4-5.2c9.3-4.7,15.8-11.7,19-20.4a36,36,0,0,0,2.2-12.7Z" transform="translate(-624.56 -264.88)"/><path class="cls-3" d="M1082.2,760.2h0c0-3.6-.1-7.3-.4-10.9-1.1-15.8-4.7-31.5-8.4-46.1-11.7-46.2-31-103.6-76-136.2-2.3-1.6-5-3.4-7.9-3.4-3.1,0-5.8,2-8.6,4.3-14.1,11.6-28.1,23.2-42.2,34.9a171,171,0,0,1,25,89.6,165.51,165.51,0,0,1-4.9,40.4c-3.4,13.6-8.5,26.9-13.5,39.8l-14.5,37.7-14.4,37.5c-4.2,10.9-8.9,23.2-8.9,35.8,0,1,0,2.1.1,3.2a47.24,47.24,0,0,0,25.9,38.7c13.6,6.7,30.9,6.7,47.5.1,13-5.1,25.5-14.1,39.6-28.1,39.2-39.3,61.6-89.2,61.6-137.3Z" transform="translate(-624.56 -264.88)"/><path class="cls-3" d="M958.6,682.9h0a184.12,184.12,0,0,0-30-74.6c-30.4,12.6-60.1,23.3-88.4,15.2-6.7-1.9-11.5,7.1-12.8,9.9A203.52,203.52,0,0,0,814.8,669a295.81,295.81,0,0,1,123.9,3.9c7.1,1.8,15,4.2,19.9,10Z" transform="translate(-624.56 -264.88)"/><path class="cls-3" d="M999.5,298.6c0-4.9-2.6-10.2-7.1-14.6-6.8-6.6-16.6-10.3-26.8-10.2-9.3,0-19,3.3-27.5,9.1-2.7,1.8-6.5,4.8-7.9,8.9a10.07,10.07,0,0,0-.5,3.1c0,3.4,1.6,6.2,4.2,7.3,15.4,6.5,31.3,13.2,44.1,24.3a2.27,2.27,0,0,0,1.8.5c1.6-.1,3.3-1.7,4.4-3.1l5.9-7.8,3.3-4.4c2.2-3,4.8-6.3,5.6-10.3a6.92,6.92,0,0,0,.5-2.8Z" transform="translate(-624.56 -264.88)"/><path class="cls-3" d="M959.6,435.9a10.28,10.28,0,0,0-.1-1.7c-.6-3.4-3-6.2-5.1-8.6a124.71,124.71,0,0,0-45.5-31.7c-3.1-1.2-6.7-2.5-10.4-2.2a17.18,17.18,0,0,0-8,3.1c-8.2,5.1-13.3,13.4-13.4,21.6v.4c0,15.6,13.6,30.1,29.2,31.1,8.9.5,17.9,1.1,26.8,1.6,5.6.3,12,.7,17.6-1.5,5.1-2.2,8.9-7.2,8.9-12.1Z" transform="translate(-624.56 -264.88)"/><path class="cls-3" d="M827.1,408.7a26.09,26.09,0,0,0-2.8-12.2,14.83,14.83,0,0,0-6.5-6.8,16.07,16.07,0,0,0-6.7-1.2c-13.5-.1-27.2,7.9-36.6,21.6-8.4,12.3-12.6,26.8-16.6,40.8l-1.8,6.4-1.8,6.3a10,10,0,0,0-.4,2.4,3.19,3.19,0,0,0,.3,1.4c1,2.2,4.1,2.2,5.8,2,16.5-1.7,30.6-11.7,42.2-21.3,7.7-6.3,15.6-13.5,20.4-22.5a35.63,35.63,0,0,0,4.5-16.9Z" transform="translate(-624.56 -264.88)"/><path class="cls-3" d="M841.8,1189.4v-3.7c-.7-22.2-6.7-45.4-17.8-69s-24.7-41.7-40.7-53.9c-19.3-14.8-43.1-21.2-63.9-17.2a98,98,0,0,0-62.7,42.6l5.3,18.2,9,30.7c7.8,26.6,15.8,54.2,32.5,77.1a98.67,98.67,0,0,0,31.3,28.2c13,7.2,26.7,10.5,39.9,9.3,10.1-.9,19.6-4.3,27.5-7.5,10.8-4.3,22.8-10.1,30.3-20.3,6.3-8.4,9.3-19.7,9.3-34.5Z" transform="translate(-624.56 -264.88)"/><path class="cls-3" d="M1122.8,1061.9a18,18,0,0,0-1.3-7.5c-1.7-4-5.3-6.9-8.9-9.4a126.06,126.06,0,0,0-80.8-22,71.42,71.42,0,0,0-20.4,4.1c-7.5,2.8-14.1,7.2-21.7,13a355.08,355.08,0,0,0-74.1,75.3c-9.3,12.8-10.3,29.8-10.6,44.7v6.5c0,11.9.5,27.3,4.9,42,5.1,17.4,15.1,31.2,27.9,38.8,8.9,5.3,28.4,12.8,59.4,3.5a135.91,135.91,0,0,0,42.9-21.8,165.27,165.27,0,0,0,24-22.5,233.57,233.57,0,0,0,58.5-141c.1-1.2.2-2.5.2-3.7Z" transform="translate(-624.56 -264.88)"/><path class="cls-4" d="M882.3,505.1a6,6,0,0,0-.5-2.4c-1.2-2.2-3.9-3.2-8.5-3a114.37,114.37,0,0,0-16.5,2c-4.4.9-6.9,2.6-7.3,5.1v.8a10.32,10.32,0,0,0,1.1,3.9,65,65,0,0,0,14.8,19.7c1.1.9,2.3,2,3.8,2,2.2,0,3.9-1.7,5.3-5.5,2.2-5.9,4.4-11.9,6.7-17.9a12.45,12.45,0,0,0,1.1-4.7Z" transform="translate(-624.56 -264.88)"/><path class="cls-3" d="M729.2,309.7a20,20,0,0,1-1.6-1.4c-.2-.2-.7-.2-1-.2h-.8a25.39,25.39,0,0,0-3.9,0,3.72,3.72,0,0,0-2.2.8h0c.2-.4.5-.8.7-1.2a24.26,24.26,0,0,1,1.4-2,7.46,7.46,0,0,0,1.2-.7,14.21,14.21,0,0,0,2.5-2.4,4.23,4.23,0,0,0,.5-.7c0-.1.3-.5.1-.7a.75.75,0,0,0-.5-.1.37.37,0,0,0-.3.1,3,3,0,0,0-.8.4,12.38,12.38,0,0,0-1.8,1.4,6.12,6.12,0,0,0-1.2.5c-.9.4-1.9.8-2.8,1.3s-1.6.9-2.4,1.4-1.6,1.1-2.4,1.7-1.8,1.4-2.7,2.2a39.67,39.67,0,0,0-2.9,2.9,33,33,0,0,0-2.2,3,9.82,9.82,0,0,0-.8,1.8c-.1.3-.2.7-.3,1.1a2.2,2.2,0,0,0-.1.8c0,.6.6.7,1.1.8a.9.9,0,0,0,.5-.1,15.76,15.76,0,0,0,1.5-1.2c.1-.1,1.7-1.8,1.3-2l-.6-.3a.37.37,0,0,1-.1-.3,6,6,0,0,1,.6-2.2,8.26,8.26,0,0,1,.7-1.3,2.19,2.19,0,0,0,.3-.5l.3-.3.4-.4c.2-.2.5-.4.7-.6.7-.5,1.4-1.1,2.2-1.6.6-.4,1.3-.8,2-1.2s1.4-.7,2.2-1.1c.4-.1.7-.3,1.1-.4-.5.7-1.1,1.3-1.6,2.1a30.49,30.49,0,0,0-1.9,3c-.5.8-.9,1.7-1.3,2.5a11.72,11.72,0,0,0-.9,2.4,5.08,5.08,0,0,0-.3,1.7,3.18,3.18,0,0,0,.2,1.4h.2c.2,0,.3-.1.5-.2a9.38,9.38,0,0,0,1.2-.9,13.36,13.36,0,0,0,2-2.1,6.38,6.38,0,0,0,.8-1.4l.3-1.2a17.42,17.42,0,0,1,.5-2.2c.8-.1,1.6-.3,2.4-.4a11.8,11.8,0,0,0,2-.4,15.52,15.52,0,0,1,2.1-.4,3.51,3.51,0,0,1,.8.5c.3.2.6.5.9.7a.37.37,0,0,0,.3-.1,7,7,0,0,0,1-.8,4.35,4.35,0,0,0,.6-.7,2.19,2.19,0,0,0,.3-.5v-.3Zm-20.9,6.7Z" transform="translate(-624.56 -264.88)"/><path class="cls-3" d="M729.1,310.4a16,16,0,0,1-2.1-.5.31.31,0,0,1-.2-.1,2.44,2.44,0,0,0-2.2,0,13.93,13.93,0,0,0-1.9,1.5,9,9,0,0,1-1,.9c0-.1.1-.2.2-.3a16.18,16.18,0,0,1,1-1.8,17.39,17.39,0,0,1,1.1-1.8c.1-.2.3-.5.4-.7l.3-.6a10.37,10.37,0,0,0,.4-1c0-.3.1-.6.1-1a2.54,2.54,0,0,0-.9-2.1c-.2-.1-.4-.3-.6-.4a3.31,3.31,0,0,0-1.5-.4,3.83,3.83,0,0,0-2.5.7,14.91,14.91,0,0,0-2,1.5c-.5.4-1.1,1-1.6,1.5a6.89,6.89,0,0,0-1.1,1.3l-.9,1.2a1.33,1.33,0,0,0-.3-.8,2.48,2.48,0,0,0-1.6-1.2,3.3,3.3,0,0,0-1.4,0,4.1,4.1,0,0,0-.1-1.1l.3-.3a4.62,4.62,0,0,1,.7-.7,4.18,4.18,0,0,0,1.1-1.8,1.7,1.7,0,0,0,0-1c-.1-.5-.5-.8-.9-1.2-.7-.5-1.7-.2-2.6,0-.7.2-1.3.5-1.9.7-1,.4-1.9,1-2.9,1.4a13.36,13.36,0,0,0-1.8.7c-.2.1-.5.2-.7.3a4.44,4.44,0,0,0-1.1.8,19.2,19.2,0,0,0-1.5,1.4c-.6.7-1.3,1.4-1.9,2.2a29,29,0,0,0-2.9,5.2,23,23,0,0,0-1.2,3.4c-.4,1-.8,2-1.2,3.1a16.22,16.22,0,0,0-.8,4.9,3.22,3.22,0,0,0,.7,2.5v1.4a1.7,1.7,0,0,0,.1.7,1.33,1.33,0,0,0,.6.9,11.05,11.05,0,0,0,.9,3.1A2.37,2.37,0,0,0,697,334a2.17,2.17,0,0,0,1-1.1c0,.1.1.1.1.2a5.5,5.5,0,0,0,.7.9,2.87,2.87,0,0,0,3.3.4,3.18,3.18,0,0,0,1-1,3.29,3.29,0,0,0,.4-1.7c.1-1.1,0-2.2,0-3.3s0-2.1.1-3.2c0-.3.1-.6.1-.9l.3-1.2a8.6,8.6,0,0,0,.1,1.6,24.18,24.18,0,0,0,.3,2.5,8,8,0,0,0,.3,1.5,6.94,6.94,0,0,0,.5,1.3,2.19,2.19,0,0,0,.3.5,2.41,2.41,0,0,0,1,1,3.25,3.25,0,0,0,3.3,0,3.41,3.41,0,0,0,1.5-2.2,13.64,13.64,0,0,1,.4-1.7c.2-1.2.5-2.4.8-3.6s.8-2.4,1.2-3.6c0-.1.1-.2.2-.4v.3a3.55,3.55,0,0,0,.4.9,2.48,2.48,0,0,0,4,.5,12.23,12.23,0,0,0,1.2-1.9,11.91,11.91,0,0,1,.9-1.5c.4-.4.9-.8,1.3-1.2a17.88,17.88,0,0,1,1.4-1.3c.8-.8,1.7-1.7,2.6-2.5.1,0,.3.1.4.1a13.64,13.64,0,0,1,1.7.4,1.71,1.71,0,0,0,2.2-1.3v-.4a1.17,1.17,0,0,0-.9-1.7ZM697,331Z" transform="translate(-624.56 -264.88)"/><path class="cls-3" d="M710.9,352.3c-.1-.1-.3-.1-.4-.2a6.47,6.47,0,0,1-.8-.9,16.86,16.86,0,0,0-2.5-2c-.7-.6-1.5-1.2-2.2-1.9a3.3,3.3,0,0,0,0-1.4,2.85,2.85,0,0,0-.8-1.4,1.38,1.38,0,0,0-.4-.3,17.1,17.1,0,0,1-1.1-1.4c-.4-.5-.9-1-1.4-1.6v-.1a4.05,4.05,0,0,0-.5-.9c-.3-.6-.6-1.2-.9-1.9a33.59,33.59,0,0,1-1.4-4.5,47.63,47.63,0,0,1-1-5.2c-.1-1.2-.2-2.5-.2-3.7v-2.5a.89.89,0,0,0,1.1-.5,1.13,1.13,0,0,0-.4-1.5,6.89,6.89,0,0,0-.8-.3c-.1,0-.3-.1-.4-.1a1.76,1.76,0,0,0-.4-.5,2.9,2.9,0,0,0-4,0,3.29,3.29,0,0,0-.7,1.3.37.37,0,0,1-.1.3c0,.2-.1.5-.1.7l-.3,2.4a24.09,24.09,0,0,0,0,3.8c0,1.2,0,2.4.1,3.6a10.28,10.28,0,0,0,.1,1.7,7.72,7.72,0,0,0,.2,1.5c0,.2.1.4.1.6v.3a13.64,13.64,0,0,0,.4,1.7,11.72,11.72,0,0,0,.9,2.4,7.72,7.72,0,0,0,.2,1.5,17.23,17.23,0,0,0,.7,2.1,11.22,11.22,0,0,0,.5,1.3,15.39,15.39,0,0,0,.8,1.9c.4.7.8,1.3,1.2,2a18.1,18.1,0,0,0,3.7,4.1c.5.5,1.1,1,1.7,1.5s1.2,1,1.9,1.5c.5.4,1,1,1.5,1.5.2.2.4.5.7.8a3.82,3.82,0,0,0,4.8.8,4,4,0,0,0,1.3-1.3,3.31,3.31,0,0,0,.4-1.5v-.1c0-.2.1-.5.1-.8a3.19,3.19,0,0,0-1.6-2.8Z" transform="translate(-624.56 -264.88)"/><path class="cls-3" d="M761.5,299.4a12.54,12.54,0,0,0-1.6-2.4,10.63,10.63,0,0,0-.9-1.1c-.6-.5-1.2-1-1.9-1.5a22.45,22.45,0,0,0-2.7-1.3,8.26,8.26,0,0,1-1.3-.7,24.43,24.43,0,0,0-2.4-1c-1.1-.4-2.4-.5-3.6-.8-.8-.2-1.6-.5-2.4-.7s-1.9-.6-2.9-.9c-1.3-.3-2.6-.4-3.9-.6-.4,0-.9-.1-1.4-.1a14.77,14.77,0,0,0-2.1.1,16,16,0,0,0-2.1.5l-1.9.3a28.64,28.64,0,0,0-5.1.9c-.9.3-1.9.7-2.8,1a22.88,22.88,0,0,1-2.8.8,22.64,22.64,0,0,0-6.6,2.8c-.9.5-1.9,1-2.8,1.6s-1.6,1.2-2.4,1.8-1.5.9-2.2,1.4-1.5.9-2.2,1.5a10.91,10.91,0,0,0-3.7,3.7c-.2.4-.3.8-.5,1.2s-.4.7-.6,1.1a3.93,3.93,0,0,0-.3,2.8,4.71,4.71,0,0,0-.4,1.7,2.77,2.77,0,0,0,2.1,2.7c2.1.7,3.7-1.5,5-2.8a11,11,0,0,1,1.1-1c.3,0,.6-.1.9-.1a10.86,10.86,0,0,0,.1,3.1,3.81,3.81,0,0,0,.3,1c-.4.4-.9.8-1.3,1.2a28.54,28.54,0,0,0-4.7,5.7,16.27,16.27,0,0,0-1.1,2.3,23.29,23.29,0,0,0-1.1,2.8c-.2.6-.4,1.2-.6,1.9-.3,1.3-.6,2.7-.8,4-.1,1-.3,2-.4,3.1,0,.5-.1,1.1-.1,1.7a12.31,12.31,0,0,0,.2,2,.76.76,0,0,0,.1.4h0a15,15,0,0,0,.2,2,12.66,12.66,0,0,0,.6,1.8,4.92,4.92,0,0,0,1,1.5,55.09,55.09,0,0,0,.6,5.7,28.72,28.72,0,0,0,.8,3.8,12,12,0,0,0,3.2,5.1,13.93,13.93,0,0,0,1.9,1.5c.1,0,.2.1.3.1.6.2.9.4,1.3.5l.1.1.3.3a2.19,2.19,0,0,1,.3.5,4.88,4.88,0,0,0,4.2,2.5,5,5,0,0,0,2.4-.6,3.06,3.06,0,0,0,1.3-1.2,7,7,0,0,0,.6-.9,3,3,0,0,1,.4-.8c0-.1.1-.1.1-.2a37.27,37.27,0,0,1,3.4-3.5c.7-.7,1.6-1.3,2.3-2a20.28,20.28,0,0,0,1.8-2.3c.5-.5,1-1.1,1.5-1.6.7-.8,1.4-1.5,2-2.3,1.3-1.6,2.6-3.2,3.8-4.8s2.7-3.4,4.1-5.1c.9-1.1,1.8-2.4,2.8-3.6.6-.8,1.2-1.7,1.8-2.5.5-.6,1.1-1.2,1.7-1.9s1.3-1.5,2-2.3,1.3-1.5,1.9-2.3l2.1-2.7,2.2-2.5c1-1.1,1.8-2.4,2.7-3.6.8-1,1.6-2,2.4-3.1.5-.8,1-1.5,1.6-2.3a16.61,16.61,0,0,1,1.3-1.4c.7-.8,1.4-1.8,2.1-2.7a10.4,10.4,0,0,0,1.6-5.5v-.1a7,7,0,0,0-.9-3.7Zm-7.1-6.3Z" transform="translate(-624.56 -264.88)"/><path class="cls-3" d="M699.3,342.3l-.1-.1a10.91,10.91,0,0,1-.6-1.1c-.2-.4-.3-.7-.5-1.1-.3-.7-.7-1.5-1-2.3l-.6-1.5-.3-.9c0-.2-.1-.5-.1-.7v-1a1.09,1.09,0,0,1,.1-.5v-.4c-.1-.1-.2-.2-.3-.2h-.4c-.1,0-.2.2-.2.3a6.6,6.6,0,0,0-.1,1.4v.7a4.71,4.71,0,0,0,.4,1.6,24.88,24.88,0,0,0,1.1,2.9v-.1c.2.6.5,1.2.7,1.8.1.3.3.7.4,1a3.45,3.45,0,0,0,.9,1.2c.1,0,.2.1.3.1a.4.4,0,0,0,.4-.2.76.76,0,0,0,.2-.4,2.19,2.19,0,0,0-.3-.5Zm-3.3-8.9Zm.3,5.8Z" transform="translate(-624.56 -264.88)"/><path class="cls-3" d="M710.1,359.9a8.26,8.26,0,0,1-1.3-.7c-.2-.1-.3-.3-.5-.5s-.3-.4-.5-.6c-.4-.5-.8-1.1-1.2-1.6s-.9-1.2-1.3-1.9-.9-1.2-1.3-1.9-.8-1.3-1.2-1.9-.8-1.3-1.2-2-.8-1.3-1.2-1.9l-1.2-2.1a20,20,0,0,1-1-2.1l-.3-.6a8.8,8.8,0,0,1-.5-1.5c-.2-.6-.3-1.3-.5-1.9a.63.63,0,0,0-.8-.4.54.54,0,0,0-.4.3.45.45,0,0,0,0,.5,23.81,23.81,0,0,0,.5,2.6,9.35,9.35,0,0,0,.7,2.2,16.27,16.27,0,0,0,1.1,2.3l1.2,2.1a18.58,18.58,0,0,1,1.1,1.9c.4.6.8,1.3,1.2,2s.8,1.3,1.2,1.9a22,22,0,0,0,1.4,1.8c.8,1,1.5,2.1,2.3,3.1a2.65,2.65,0,0,0,.5.6,4.35,4.35,0,0,0,.7.6c.3.2.5.4.8.6a4.05,4.05,0,0,1,.9.5,1,1,0,0,0,1-.2c0-.1.1-.2.1-.3.1-.6,0-.8-.3-.9Z" transform="translate(-624.56 -264.88)"/><path class="cls-3" d="M704.5,354.7c-.1-.2-.2-.3-.3-.5a2.19,2.19,0,0,1-.3-.5,5.5,5.5,0,0,0-.7-.9v-.1a.35.35,0,0,1-.1-.2,1.38,1.38,0,0,1-.3-.4c-.3-.4-.6-.9-.9-1.3a23.92,23.92,0,0,0-1.3-2.1,24.26,24.26,0,0,0-1.4-2c-.1-.1-.1-.2-.2-.3h0c-.1-.3-.3-.6-.4-.9a19.45,19.45,0,0,1-.8-2.2,21.72,21.72,0,0,1-.7-2.4c-.4-1.3-1-2.7-1.4-4a.73.73,0,0,0-.2-.6.37.37,0,0,0-.1-.3c-.1-.3-.1-.6-.2-.9a.75.75,0,0,0-.7-.5.68.68,0,0,0-.7.7,14.68,14.68,0,0,0,.5,2.9,4.33,4.33,0,0,1,.1.5v.6a10.27,10.27,0,0,0,.7,2.5l.9,2.1a8.8,8.8,0,0,0,.5,1.5,16.3,16.3,0,0,0,2.4,4.5c.5.7,1,1.4,1.4,2.1s.9,1.4,1.4,2.1a3.51,3.51,0,0,1,.5.8c.1.1.1.2.2.4a.35.35,0,0,1,.1.2c.1.1.2.3.3.4a.91.91,0,0,0,1.2.1.68.68,0,0,0,.4-.6v-.2c.2-.1.2-.3.1-.5Z" transform="translate(-624.56 -264.88)"/><path class="cls-3" d="M711.4,361c-.1-.2-.3-.4-.4-.6-.3-.5-.7-.9-1-1.4-.8-1.1-1.7-2.1-2.5-3.2a30.25,30.25,0,0,1-2.3-3.5,35.54,35.54,0,0,1-2-3.9,5.78,5.78,0,0,1-.5-1.4c-.2-.6-.4-1.3-.6-1.9-.4-1.5-.8-3-1.3-4.5a1.74,1.74,0,0,0-2.1-1.2,1.59,1.59,0,0,0-1,.8,1.9,1.9,0,0,0-.1,1.3c.1.4.2.9.3,1.3h0a1.66,1.66,0,0,0-1.2-.5,1.63,1.63,0,0,0-1.5,1.1c0,.2-.1.4,0,.6a2,2,0,0,0,.1.7,4.33,4.33,0,0,1,.1.5,4.18,4.18,0,0,0,.4,1c.3.7.6,1.5,1,2.3a8.86,8.86,0,0,0,.8,1.7c.3.6.6,1.3.9,1.9.7,1.3,1.5,2.5,2.3,3.7a22,22,0,0,0,1.4,1.8,6,6,0,0,0,.8.8c1,.9,2.1,1.7,3.1,2.7a17.88,17.88,0,0,1,1.3,1.4,7,7,0,0,0,1.9,1.5,1.9,1.9,0,0,0,1.9-.5,1.54,1.54,0,0,0,.5-1.3,1.68,1.68,0,0,0-.3-1.2Z" transform="translate(-624.56 -264.88)"/><path class="cls-3" d="M1186.3,1045.9a72.3,72.3,0,0,0-1.6-9.1c-.5-2.5-1.2-5.1-1.9-7.6-1.4-5.2-3.2-10.3-4.9-15.4a61.55,61.55,0,0,0-2.8-7.1c-.4-.8-.8-1.7-1.3-2.5a14.8,14.8,0,0,0-2.2-2.9l-.3-.3a14.63,14.63,0,0,0-1.3-.9c-.1,0-.2-.1-.4-.1a4.76,4.76,0,0,0-1.8-.5c0-.3-.1-.7-.1-1a32.53,32.53,0,0,0-1.2-5.2,32.18,32.18,0,0,0-2.3-5,22.18,22.18,0,0,0-3.2-4.2,7.55,7.55,0,0,0-1.4-1.1c-.5-.4-1.1-.7-1.6-1.1a9.62,9.62,0,0,0-1.8-.7,6.89,6.89,0,0,0,.8.3,16.82,16.82,0,0,0-2.4-.7,12.19,12.19,0,0,0-2.7,0,11.08,11.08,0,0,0-2.5.5,25.57,25.57,0,0,0-2.4,1.1,21.11,21.11,0,0,0-2.7,1.8,32.69,32.69,0,0,0-3.5,3,19.1,19.1,0,0,0-2.4,3.2,24.87,24.87,0,0,0-1.5,2.8,64.37,64.37,0,0,0-2.5,7.4,106.16,106.16,0,0,0-2.9,12.4,70.12,70.12,0,0,0-.5,8v.4c-.2,2-.4,4-.5,6v2.9a24.91,24.91,0,0,0-.1,6.1,16.54,16.54,0,0,0,.7,3.2c.2.7.4,1.4.6,2.2.1.5.3,1.1.4,1.7a9.93,9.93,0,0,0,1.4,2.7,6.38,6.38,0,0,0,3.3,2.5h0a.35.35,0,0,0,.2.1c.5.4.9.8,1.4,1.2.7.6,1.4,1.2,2.2,1.8a33.68,33.68,0,0,0,3.1,2.1c.6.4,1.3.8,1.9,1.2a12.67,12.67,0,0,1,1.3,1.1,29.77,29.77,0,0,0,2.7,2.3c1.7,1.4,3.5,2.7,5.4,4a44.91,44.91,0,0,0,6.3,4,29,29,0,0,0,4.1,1.6,17.56,17.56,0,0,0,4,.6h2.6c.4,0,.9-.1,1.3-.1a11.93,11.93,0,0,0,2.6-.5,9.43,9.43,0,0,0,2.3-1,14.32,14.32,0,0,0,2.2-1.5,5.24,5.24,0,0,0,1-1.1,17.61,17.61,0,0,0,1.4-2.3,34.72,34.72,0,0,0,1.7-4.5,20.14,20.14,0,0,0,1-3.5,37.13,37.13,0,0,0,.5-4.8v-1.7a2.2,2.2,0,0,0,.3-1.8Zm-9.2,5.5v0Zm-1.2,4.9a6.12,6.12,0,0,1-.5,1.2v-.8a1,1,0,0,1,.5-.4Zm-27.6-66c-.1.2-.2.3-.3.5s-.2.3-.4.4a.35.35,0,0,0-.2-.1,6.47,6.47,0,0,0,.9-.8Zm7.5-9.5Z" transform="translate(-624.56 -264.88)"/><path class="cls-3" d="M1182.2,1047.8a4.36,4.36,0,0,0-1.7-2.7,8.65,8.65,0,0,0-1-.7,7.84,7.84,0,0,0-1.4-.5c-.4-.1-.8-.2-1.3-.3s-1-.1-1.5-.2a.35.35,0,0,1-.1-.2,20,20,0,0,1-.9-3.5c-.6-3.4-1-6.8-1.7-10.2a2.59,2.59,0,0,0-.7-1.1,2.64,2.64,0,0,0-1.9-.7,2.69,2.69,0,0,0-2.6,2.8c.1,2.6.3,5.3.6,8,.2,2.9.2,6,1.6,8.7a6.25,6.25,0,0,0,1.8,2.2,5.67,5.67,0,0,0,1.3.8c.4.2.9.3,1.4.5h0a5.67,5.67,0,0,0-.8,1.3,28.64,28.64,0,0,0-1.5,4.1c-.1.5-.2,1-.3,1.6a14.72,14.72,0,0,0,0,2.1,4.24,4.24,0,0,0,.6,1.9,3.86,3.86,0,0,0,1.6,1.5,1.69,1.69,0,0,0,1,.3,2.77,2.77,0,0,1,.9.1,5,5,0,0,0,1.2-.2,1.69,1.69,0,0,0,.5-.2,2,2,0,0,0,.8-.4,9,9,0,0,0,1-.9,5.67,5.67,0,0,0,.8-1.3,10.09,10.09,0,0,0,.7-1.5,19.75,19.75,0,0,0,1.4-6,22.75,22.75,0,0,0,.2-2.6v-.6a4.86,4.86,0,0,0,0-2.1Zm-6.7-4.2Zm0-.1c-.1,0-.1-.1,0,0-.1-.1-.1,0,0,0Z" transform="translate(-624.56 -264.88)"/><path class="cls-3" d="M1192.3,1025.6a100.49,100.49,0,0,0-1.6-10.8,43.17,43.17,0,0,0-1.7-7.1c-.8-2.3-1.5-4.6-2.4-6.9-.3-.9-.7-1.9-1-2.8-.6-1.5-1.4-2.9-2.1-4.4a11.87,11.87,0,0,0-1.6-2.3c-.7-.8-1.4-1.7-2.2-2.5a11,11,0,0,1-1.1-1c-.9-.8-1.7-1.6-2.6-2.5a23.93,23.93,0,0,0-4.5-3.1,28.71,28.71,0,0,0-5.5-2.2,19.68,19.68,0,0,0-3.5-.5c-.7-.1-1.5-.1-2.2-.2h0a10.92,10.92,0,0,0-3.6-.2,29.41,29.41,0,0,0-5.9,1.2,19.49,19.49,0,0,0-4.2,1.9,10.86,10.86,0,0,0-2.6,2.2,6.53,6.53,0,0,0-1.1,1.2,26.8,26.8,0,0,0-5.3,11,34.82,34.82,0,0,0-.7,6.4c-.1,1.2,0,2.4,0,3.6a69,69,0,0,0,1.5,10,39.36,39.36,0,0,0,2.5,7.3c1.2,3,2.8,6.1,5.4,8.2a17.13,17.13,0,0,0,7.2,3.4c1,.1,2,.2,3,.2a16.68,16.68,0,0,0,3.1-.5,9.83,9.83,0,0,0,2.7-1.2,8.34,8.34,0,0,0,1.2-.8,37.06,37.06,0,0,0,2.9-2.7v2.8a26.19,26.19,0,0,1-1.2,5.4,15.11,15.11,0,0,1-.9,1.8l-.6,1.2a17.26,17.26,0,0,0-1.1,3.2,7.69,7.69,0,0,0,2.2,7.2,7.48,7.48,0,0,0,3.4,1.8,8.81,8.81,0,0,0,1.7.2,3.56,3.56,0,0,0-2,2.3,6,6,0,0,0,0,3.5,4,4,0,0,0,.8,1.6c.4.5.9,1,1.3,1.6a9.34,9.34,0,0,0,1.3,1.5,7.22,7.22,0,0,0,2.4,1.4,18.29,18.29,0,0,0,2.5.8,7.38,7.38,0,0,0,3.9-.1c.4-.1.7-.3,1.1-.4a9.88,9.88,0,0,0,3.5-2.2,28.16,28.16,0,0,0,2.4-3.6c.6-1.1,1.3-2.2,1.8-3.3l.9-2.4c.5-1.4,1-2.7,1.4-4.2a35.32,35.32,0,0,0,.8-7.9c0-2.4,0-4.9.1-7.4.1-1.7.1-3.4.1-5.1a24.18,24.18,0,0,0,.1-4.6Zm-20.2,27.8a9.89,9.89,0,0,0,4.7-2.8,14.63,14.63,0,0,0,2.1-2.8c-.1.6-.2,1.3-.3,1.9a24.59,24.59,0,0,1-.9,3.4,20,20,0,0,1-1,2.1l-.6,1.2h0c-.1.1-.3.2-.4.3-.4-.2-.9-.3-1.3-.5a3.31,3.31,0,0,0-2.5-2.7h-.2a1,1,0,0,0,.4-.1Zm-13.5-56.6h0c-.2.1-.3.3-.5.4h0c.1-.1.3-.2.5-.4Zm-.1.1a5.64,5.64,0,0,1-.4,1.2,20.21,20.21,0,0,0-.6,3.4c-.2,1.8-.3,3.7-.4,5.5,0,1.1-.1,2.2-.2,3.4a26.29,26.29,0,0,1-.6,3.9c-.1-.6-.3-1.2-.4-1.8a43.87,43.87,0,0,1-.2-8.1,24.24,24.24,0,0,1,1-4.5,12.44,12.44,0,0,1,1-2,7,7,0,0,1,.8-1Zm-.5.4h0l-.2.2c0-.1.1-.1.2-.2Z" transform="translate(-624.56 -264.88)"/></g><path class="cls-5" d="M938.35,387.35a32.93,32.93,0,0,0-28.19,16.37l-2,3.26a33.74,33.74,0,0,0,1.09,29.33c2.22,4.09,4.65,8.23,8.32,10.94a31.9,31.9,0,0,0,4.74,2.74,45.59,45.59,0,0,0,10.75,4.3,22.45,22.45,0,0,0,11-.45,42.59,42.59,0,0,0,6.41-2.68,142.89,142.89,0,0,0,12.86-7,37.07,37.07,0,0,0,7.84-6.16,25.67,25.67,0,0,0,5.75-23.25,24.37,24.37,0,0,0-16.08-17.13c.16-2.13-2-3.57-3.8-4.51a63.06,63.06,0,0,0-10.47-4.58,28.65,28.65,0,0,0-8.21-1.18Zm-7.9,65.25a10.09,10.09,0,0,0-3.23-1.61l-.57-.21a27.78,27.78,0,0,1-6.79-3.68,33,33,0,0,1-11.56-16,31.51,31.51,0,0,1-1.7-9.63c-.2-12.76,7.55-25.21,18.85-30.29a29.49,29.49,0,0,1,12.18-2.56,32.1,32.1,0,0,1,17.44,5.17,30.6,30.6,0,0,1,4.53,3.6h0l0,0a21.66,21.66,0,0,0-5.71-.76,23.91,23.91,0,0,0-19.2,9.88,24.38,24.38,0,0,0-3.82,8.52,27.05,27.05,0,0,0-.39,10.53,24.67,24.67,0,0,0,3,8.53,24,24,0,0,0,20.34,11.73,23,23,0,0,0,3-.2l.72-.11h0a30.14,30.14,0,0,1-20.25,7.9,28.08,28.08,0,0,1-6.86-.85Zm26-48.26a3.44,3.44,0,0,1,2.53-3.55,3.19,3.19,0,0,1,.7-.08,3.72,3.72,0,0,1,3.2,2,2.54,2.54,0,0,1,.32,1.49,3.16,3.16,0,0,1-1.48,2,4.69,4.69,0,0,1-2.09,1h-.27a3.09,3.09,0,0,1-2.91-2.8Zm6.79,10a5.17,5.17,0,0,1,1.45-5.8,4.56,4.56,0,0,1,2.79-.94,4.47,4.47,0,0,1,2.93,1.05,4.94,4.94,0,0,1,1.43,5.41,4.75,4.75,0,0,1-4.21,3.2h-.13a4.75,4.75,0,0,1-4.26-2.92Z" transform="translate(-624.56 -264.88)"/><path class="cls-5" d="M757.08,395.05a9.65,9.65,0,0,0-3.26,3.31,6.11,6.11,0,0,1-2.74,2.27,25.25,25.25,0,0,0-1,42.64c1.64,1.06,2.51,3,3.54,4.7a21.42,21.42,0,0,0,6.57,6.82,28.21,28.21,0,0,0,13,4.08,47,47,0,0,0,12-.45,34.72,34.72,0,0,0,14.62-8,36.89,36.89,0,0,0-2.45-55.91,36.55,36.55,0,0,0-40.24.58Zm21.08-5.44a29.91,29.91,0,0,1,10.55,1.89c11.18,4.19,19.71,15.32,21.23,27.69a35.6,35.6,0,0,1-2,16.57l-.06.17,0,.09a39.87,39.87,0,0,1-1.62,3.66s0,0,0,.05l0,.06a33.84,33.84,0,0,1-10,11.9,32.69,32.69,0,0,1-19.25,6.21,32.23,32.23,0,0,1-14.67-3.49,18.18,18.18,0,0,1-6-4.71,9.83,9.83,0,0,1-2-4.53h0a22.48,22.48,0,0,0,8.29,1.55,23.23,23.23,0,0,0,13.2-4.11,22.41,22.41,0,0,0,5.47-5.52,27.05,27.05,0,0,0,4.6-18.05,23.6,23.6,0,0,0-2-7.41,23.17,23.17,0,0,0-6.74-8.48l0,0-.1-.08a24.9,24.9,0,0,0-7.73-4.06l-.09,0h0a23.19,23.19,0,0,0-6.88-1.05,21.44,21.44,0,0,0-5.43.69c-.4.11-.8.22-1.2.36l0,0h0a31.86,31.86,0,0,1,22.58-9.33Zm-17.45,16.12a2.87,2.87,0,0,1-.81-3.42,3.56,3.56,0,0,1,3-1.56l.45,0a3.38,3.38,0,0,1,1.75.41,2.69,2.69,0,0,1,1.24,2.12,2.73,2.73,0,0,1-.83,2.34,3.44,3.44,0,0,1-1.28.66,4.33,4.33,0,0,1-1.28.2,3.52,3.52,0,0,1-2.21-.73Zm7.15,5.37a6,6,0,0,1,1.57-5.12,5.39,5.39,0,0,1,3.78-1.56,4.76,4.76,0,0,1,1.18.14,5.57,5.57,0,0,1,3.87,3.64,5.83,5.83,0,0,1-.41,4.46,5.43,5.43,0,0,1-3.29,2.85,4.41,4.41,0,0,1-1.23.18,5.79,5.79,0,0,1-5.47-4.59Z" transform="translate(-624.56 -264.88)"/><path class="cls-6" d="M937.63,388.64a29.49,29.49,0,0,0-12.18,2.56c-11.3,5.07-19.05,17.53-18.85,30.29s8.64,25.08,20,29.29l.57.21a10.09,10.09,0,0,1,3.23,1.61,28.08,28.08,0,0,0,6.86.85,30.14,30.14,0,0,0,20.25-7.9,24.63,24.63,0,0,1-3.71.3,24,24,0,0,1-20.34-11.73,26.14,26.14,0,0,1,1.17-27.58,23.94,23.94,0,0,1,19.21-9.88,21.66,21.66,0,0,1,5.71.76,31.83,31.83,0,0,0-22-8.78Z" transform="translate(-624.56 -264.88)"/><path class="cls-6" d="M967.5,407.55a4.56,4.56,0,0,0-2.79.94,5.16,5.16,0,0,0-1.45,5.79,4.74,4.74,0,0,0,4.26,2.93h.13a4.75,4.75,0,0,0,4.21-3.2,4.94,4.94,0,0,0-1.43-5.41,4.47,4.47,0,0,0-2.93-1.05Z" transform="translate(-624.56 -264.88)"/><path class="cls-6" d="M959.7,400.72a3.2,3.2,0,0,0-.7.07,3.44,3.44,0,0,0-2.53,3.55,3.09,3.09,0,0,0,2.91,2.8h.27a4.73,4.73,0,0,0,2.1-1,3.18,3.18,0,0,0,1.47-2,2.54,2.54,0,0,0-.32-1.49,3.71,3.71,0,0,0-3.2-2Z" transform="translate(-624.56 -264.88)"/><path class="cls-6" d="M778.16,389.61a31.86,31.86,0,0,0-22.58,9.33,21.49,21.49,0,0,1,6.64-1,24.12,24.12,0,0,1,21.59,13.72c4.88,10.55,1.27,24.45-8,31a23.23,23.23,0,0,1-13.2,4.11,22.48,22.48,0,0,1-8.29-1.55c.74,4.86,5.32,7.88,8,9.25a32.22,32.22,0,0,0,14.66,3.49,32.7,32.7,0,0,0,19.26-6.21c9.73-7.16,15.25-20.22,13.75-32.5s-10-23.5-21.22-27.69a29.91,29.91,0,0,0-10.55-1.89Z" transform="translate(-624.56 -264.88)"/><path class="cls-6" d="M773.21,404.42a5.39,5.39,0,0,0-3.78,1.56,6,6,0,0,0-1.57,5.13,5.79,5.79,0,0,0,5.47,4.58,4.8,4.8,0,0,0,1.23-.17,5.45,5.45,0,0,0,3.29-2.86,5.84,5.84,0,0,0,.41-4.46,5.57,5.57,0,0,0-3.87-3.64,4.7,4.7,0,0,0-1.18-.14Z" transform="translate(-624.56 -264.88)"/><path class="cls-6" d="M763.32,400.73l-.45,0a3.56,3.56,0,0,0-3,1.56,2.87,2.87,0,0,0,.81,3.42,3.52,3.52,0,0,0,2.21.73,4.67,4.67,0,0,0,1.28-.19,3.6,3.6,0,0,0,1.28-.67,2.72,2.72,0,0,0,.83-2.34,2.66,2.66,0,0,0-1.24-2.12,3.38,3.38,0,0,0-1.75-.41Z" transform="translate(-624.56 -264.88)"/></svg>