<svg id="Draw_Layer" data-name="Draw Layer" xmlns="http://www.w3.org/2000/svg" viewBox="0 0 402.89 115.65"><defs><style>.cls-1{fill:#2c2c2c;}</style></defs><title>Crazy_Eyes</title><path class="cls-1" d="M1471.24,433.1c12.08-20.42,38.64-31,61.45-24.5,6.14,1.75,11.92,4.58,17.66,7.38,3.09,1.52,6.68,3.84,6.4,7.28a39.32,39.32,0,0,1,17.43,65.11,63.07,63.07,0,0,1-13.22,9.94,242.41,242.41,0,0,1-21.7,11.28,73.11,73.11,0,0,1-10.82,4.33,39.29,39.29,0,0,1-18.51.72c-6.36-1.29-12.28-4.13-18.13-6.94a54.55,54.55,0,0,1-8-4.41c-6.19-4.37-10.28-11.05-14-17.64a52.29,52.29,0,0,1-1.84-47.3l3.31-5.25Zm34.23,78.81a51.9,51.9,0,0,0,45.7-11.38,39.75,39.75,0,1,1,3.46-77.61c-15.16-13.95-38.66-18.12-57.59-10s-32.12,28.23-31.78,48.82,14.38,40.36,33.8,47.22c2.23.78,4.58,1.44,6.41,2.94Zm70.26-65.6a7.89,7.89,0,0,0-2.84-5.33,7.8,7.8,0,1,0,2.41,8.7,7.73,7.73,0,0,0,.43-3.37Zm-21-7.75a8,8,0,0,0,3.53-1.55,5.15,5.15,0,0,0,2.47-3.16,3.9,3.9,0,0,0-.54-2.39,6.18,6.18,0,0,0-6.55-3.06,5.57,5.57,0,0,0-4.25,5.69,5.07,5.07,0,0,0,5.34,4.47Zm-347.5,65.89c-1.74-2.75-3.22-5.87-6-7.57a39.78,39.78,0,0,1,1.7-68.77c1.75-1,3.68-1.89,4.62-3.65a15.78,15.78,0,0,1,5.49-5.34c19.91-13.25,47.61-13.64,67.89-.95a57.84,57.84,0,0,1,4.13,90.17,59.66,59.66,0,0,1-24.67,13,82,82,0,0,1-20.16.73c-7.68-.68-15.41-2.5-21.94-6.58a35.12,35.12,0,0,1-11.07-11Zm3.32-79.05c17.94-5.76,39.42,3.46,47.62,20.42s2.07,39.51-13.58,50a40.54,40.54,0,0,1-36.27,4.13c1.13,6.86,7.24,11.8,13.49,14.87,18,8.86,40.78,7.16,57.19-4.38S1304.7,478,1302.16,458s-16.89-37.87-35.77-44.64-41.45-2-55.86,12Zm20.72,19.6a9.08,9.08,0,1,0,17.5-4.67,9.08,9.08,0,0,0-17.5,4.67Zm-4.06-8.9a4.57,4.57,0,0,0-.69-7.16,6.69,6.69,0,0,0-3.7-.61c-1.94.13-4,.8-5,2.49a4.47,4.47,0,0,0,1.36,5.49,6.72,6.72,0,0,0,5.87.87,5.89,5.89,0,0,0,2.15-1.08Z" transform="translate(-1182.27 -406.69)"/></svg>