<svg id="Draw_Layer" data-name="Draw Layer" xmlns="http://www.w3.org/2000/svg" viewBox="0 0 854.21 1224.65"><defs><style>.cls-1{fill:#161616;}.cls-2{fill:#fefefe;}</style></defs><title>Cute_Eyes</title><path class="cls-1" d="M671.78-306.23a4,4,0,0,0,4,4,4,4,0,0,0,4-4,4,4,0,0,0-4-4,4,4,0,0,0-4,4Z" transform="translate(-671.78 310.23)"/><path class="cls-1" d="M1471.26,824.27a60.08,60.08,0,0,0-13.2,6.46,35.93,35.93,0,0,0-10.3,9.94c-2.68,4.07-5.44,8-6.71,12.79a51.69,51.69,0,0,0-1.84,12.12,62.85,62.85,0,0,0,.7,8.86,28.39,28.39,0,0,0,4.17,12.11c3,4.64,5.63,9.57,10.25,12.92a53.17,53.17,0,0,0,5.82,4c2.59,1.37,5.46,2.2,8.08,3.52a35.44,35.44,0,0,0,12.37,3.26c4.57.52,9-.8,13.29-1.85a43.51,43.51,0,0,0,8.89-3.78,38.11,38.11,0,0,0,13.2-10.43,58.85,58.85,0,0,0,6.21-10,35,35,0,0,0,2.54-8.1,49.82,49.82,0,0,0,1.25-8.83,35.3,35.3,0,0,0-.72-7.72A40.05,40.05,0,0,0,1523,851c-2.61-6-5.63-11.83-11-16-.21-.16-.28-.5-.5-.85-.49-.36-1-.54-1.24-.91-1.14-2-3.17-2.65-5.07-3.54-2.56-1.2-5.19-2.3-7.62-3.74a22.9,22.9,0,0,0-9.65-2.81c-2.28-.21-4.59-.39-6.9-.39a29.12,29.12,0,0,0-9.8,1.48Zm23.11,14.87a4.92,4.92,0,0,1,1.1-3.78,3.69,3.69,0,0,1,2.76-1.19,4.9,4.9,0,0,1,2.37.65c1.66.91,1.89,2.47,1.89,3.87a3.3,3.3,0,0,1-2.19,3.18,4.75,4.75,0,0,1-2,.48,4.09,4.09,0,0,1-3.9-3.21Zm17.73,18.34c-1.66-.19-2.37-1.63-2.91-3-.11-.26-.23-.51-.36-.79a6.37,6.37,0,0,1-.71-2.3,6.22,6.22,0,0,1,.93-3.57,3.43,3.43,0,0,1,2.49-1.17,1.42,1.42,0,0,1,.3,0,5.53,5.53,0,0,1,4.49,3.11c1.34,2.36,1.37,4.37.09,6.32a3.12,3.12,0,0,1-2.87,1.46,13.73,13.73,0,0,1-1.45-.11Z" transform="translate(-671.78 310.23)"/><path class="cls-1" d="M1242.06,827.31c-4.31.81-8.48,2.66-12.53,4.47a30.78,30.78,0,0,0-7.36,4.75A72.11,72.11,0,0,0,1215,844a15.63,15.63,0,0,0-1.77,3.37,9.42,9.42,0,0,1-.93,1.85c-3.65,4.35-4.88,9.82-5.58,15-.68,5-1.16,10.34.54,15.37,1.24,3.66,2.67,7.26,4.13,10.84.41,1,1.49,1.78,1.77,2.81a13.49,13.49,0,0,0,3.77,5.93c1,.93,2,1.74,3,2.66s1.85,2,2.9,2.83c.84.7,2,1,2.79,1.78a21.58,21.58,0,0,0,9.44,5.24,95.54,95.54,0,0,0,14.25,2.62,30.4,30.4,0,0,0,7.91-.68c4.79-.75,9.43-1.85,13.71-4.41,4.9-2.94,9.56-6.18,13.16-10.57,2.58-3.14,5.24-6.6,6.5-10.37,2.15-6.46,4.1-13.13,3.55-20.32-.06-5.28-1.83-10-3.35-14.72-1.68-5.25-5.12-9.42-8.82-13.39-2.86-3-6.34-5.25-9.8-7.53a32.12,32.12,0,0,0-9.13-3.73,28.32,28.32,0,0,0-8.57-1.5c-1.49,0-3,0-4.5-.07-1.15,0-2.3-.09-3.44-.09a25.1,25.1,0,0,0-4.51.35Zm-2.88,10.25c-.53-.81-1.49-2.91,1.22-5.18a4.46,4.46,0,0,1,3-1.51,3,3,0,0,1,2,.82c2.45,2.13,3.09,4.33,1.73,6l-.36.46a6.63,6.63,0,0,1-2.1,2,3.81,3.81,0,0,1-1.69.47c-1.22,0-2.24-.85-3.75-3.13Zm16.65,7.27c-.67-2,.24-4,2.36-5.14a6.06,6.06,0,0,1,3.6-1.53,2.74,2.74,0,0,1,1.32.32,21.44,21.44,0,0,0,2,.89c1.81.76,3.68,1.54,4.76,3.46a5,5,0,0,1,0,4.66,5.82,5.82,0,0,1-4.27,3.29,7.8,7.8,0,0,1-1.1.08,9.62,9.62,0,0,1-8.65-6Z" transform="translate(-671.78 310.23)"/><path class="cls-2" d="M1261.79,838.16a6,6,0,0,0-3.59,1.53c-2.13,1.17-3,3.15-2.37,5.14a9.61,9.61,0,0,0,8.65,6,7.8,7.8,0,0,0,1.1-.08,5.82,5.82,0,0,0,4.27-3.29,5,5,0,0,0,0-4.66c-1.08-1.92-2.95-2.7-4.76-3.46-.72-.3-1.36-.57-2-.89a2.74,2.74,0,0,0-1.32-.32Z" transform="translate(-671.78 310.23)"/><path class="cls-2" d="M1243.38,830.87a4.53,4.53,0,0,0-3,1.51c-2.71,2.26-1.75,4.37-1.22,5.18,1.52,2.28,2.53,3.13,3.75,3.13a3.81,3.81,0,0,0,1.69-.47,6.63,6.63,0,0,0,2.1-2l.36-.46c1.36-1.71.72-3.91-1.73-6a3,3,0,0,0-2-.82Z" transform="translate(-671.78 310.23)"/><path class="cls-2" d="M1511.54,846.68a3.43,3.43,0,0,0-2.49,1.17,6.22,6.22,0,0,0-.92,3.57,6.06,6.06,0,0,0,.7,2.29c.13.29.25.54.36.8.54,1.34,1.25,2.78,2.91,3a13.73,13.73,0,0,0,1.45.11,3.14,3.14,0,0,0,2.88-1.46c1.27-2,1.24-4-.1-6.32a5.53,5.53,0,0,0-4.49-3.11l-.3,0Z" transform="translate(-671.78 310.23)"/><path class="cls-2" d="M1498.23,834.17a3.65,3.65,0,0,0-2.76,1.2,4.84,4.84,0,0,0-1.09,3.77,4.07,4.07,0,0,0,3.89,3.21,4.75,4.75,0,0,0,2-.48,3.3,3.3,0,0,0,2.19-3.18c0-1.4-.23-3-1.89-3.87a4.93,4.93,0,0,0-2.37-.65Z" transform="translate(-671.78 310.23)"/></svg>