<svg id="Draw_Layer" data-name="Draw Layer" xmlns="http://www.w3.org/2000/svg" viewBox="0 0 749.62 999.89"><defs><style>.cls-1{fill:#2c2c2c;}.cls-2{fill:#bebebe;}.cls-3{fill:#6edaf4;}.cls-4{fill:#725af7;}.cls-5{fill:#161616;}.cls-6{fill:#fefefe;}</style></defs><title>Cute_dalmation</title><path class="cls-1" d="M792.4,266.2c-41,3.8-79.8,19.6-117.5,36.2,2.3-3.6-1.5-8.5-5.7-8.9s-8.1,1.9-11.7,4.2q-48,30.75-96.1,61.7c-9.1,5.9-18.9,12.6-22.1,23-3.2,10.6,1.5,21.8,6.9,31.4A205.2,205.2,0,0,0,599.8,476c5.1,3.9,11.7,7.7,17.5,5,5.6-2.7,7-9.8,7.5-16a446,446,0,0,0,.7-70.3q17.4,87.15,34.8,174.4c1.5,7.5,2.7,16.1-2.1,22.1-33.5,41.3-39.1,97.9-41.7,151.1a2496.35,2496.35,0,0,0,5.5,325.9c4.2,51.4,10.5,104.1,34.8,149.6,6.5,12.2,14.8,24.3,27.1,30.8,30.4,16.2,68.3-10.2,81.3-42.1s10.5-67.8,17.5-101.5c12.7-.2,25.7-.4,37.5,4.3s22,15.6,21.9,28.2c-.1,26.5-.1,53.8,9.4,78.6s30.9,46.8,57.3,49.1c23.5,2,46.2-12,59.9-31.2s19.6-42.8,22.9-66.1c6.9-48.1,4.3-97.1,1.6-145.6,37.5,17.1,82.7-2.4,111.4-32s46.5-67.8,71.3-100.7A290.79,290.79,0,0,1,1252,819c9.7-6.2,20-12,27.4-20.9s11.3-21.8,6.1-32.2-21.6-14.1-28.6-5c-19.7,25.5-51.4,38.4-76.2,59-31.4,26-50.8,63.3-74.1,96.8s-54.2,65.8-94.4,72.4c-5.3.9-11.5,1.1-15.4-2.6-3-2.8-4-7.1-4.8-11.1a702.71,702.71,0,0,1-8.9-211.7c7.1-64.2-16.1-131.1-61.4-177.2-17.7-18-13.6-47.2-8.4-71.9q14.1-66.75,28.4-133.4l3.3,57c.5,8.5,1.6,18.1,8.4,23.1,10.3,7.6,24.5-.6,34.2-8.9a663.85,663.85,0,0,0,55-52.4c9.2-9.8,18.6-23.4,12.7-35.4-2.8-5.7-8.4-9.3-13.8-12.6l-78.1-48.5c-17.8-11.1-44.9-20.4-56.3-2.8-25.6-24.6-61.8-35.2-97.6-35.2-5.8,0-11.5.2-17.1.7Zm-62.1,27.1a4.72,4.72,0,0,1-.3-4.6c1.3-2.6,4.4-3.8,7.1-4.8a215.64,215.64,0,0,1,106.6-8.4c2.3.4,4.6.9,6.9,1.3h0a17.18,17.18,0,0,0-8.1,19.6,40.64,40.64,0,0,0,2.7,6c2,3.9,4,7.5,3,11.5-.7,3-2.9,5.2-5,7.4-2,2-4,4.2-4.9,6.9a9.24,9.24,0,0,0,1.3,7.9,13,13,0,0,0,9,5.9,14.77,14.77,0,0,0,2.1.1c5.1,0,10.6-2.5,15.6-7.1l1.2-1.2.2-.1a19.64,19.64,0,0,1,6.1-4.6,9.28,9.28,0,0,1,3.3-.7,5.7,5.7,0,0,1,5.2,2.7c3.6,6.5,9.1,10.9,14.9,12a12.41,12.41,0,0,0,2.7.3c5.9,0,11.4-3.5,13.1-8.3,0-.1.1-.2.1-.4h0a8.21,8.21,0,0,0,4.3,1.2,8.11,8.11,0,0,0,4.1-1.1h0A120.61,120.61,0,0,1,932,407.7c-2,11.4-5.6,22.6-9.2,33.5-1.3,4.1-2.7,8.3-4,12.5a314.26,314.26,0,0,0-13,71.3c-.3,4-.5,8.1-.7,12.6-.8,16.8-1.6,34.1-7.6,49.9a62,62,0,0,1-17.3,24.7c-8.2,7-17.4,10.7-26.6,10.7-1.1,0-2.2-.1-3.3-.2-12.4-1.2-22.8-8.7-32.9-15.9-8.5-6.1-17.4-12.5-27.5-15.2a45.58,45.58,0,0,0-11.6-1.5c-1,0-2,0-3.1.1a56.72,56.72,0,0,0-14.1,2.7c-8.3,2.6-18.9,7.5-33.3,16.6-6.7,4.3-13.7,8.7-21.6,9.3-.5,0-1.1.1-1.6.1-9.8,0-19.8-6.3-26.1-16.3-6.1-9.6-8.5-21.4-10.6-31.8l-15.6-76-15.6-76c-2.1-10.1-4.2-20.6-3.5-31.1a46.21,46.21,0,0,1,3.3-14.6V373h0a35.1,35.1,0,0,1,4.8-8.4,34.06,34.06,0,0,1,4.6-4.7,24.39,24.39,0,0,1,15-5.4,16.87,16.87,0,0,1,11.7,4.3,14.61,14.61,0,0,0,10.2,3.7,25.62,25.62,0,0,0,16.4-6.7c4.5-4.2,8-9.6,11.3-14.8a106.58,106.58,0,0,1,6-8.9,37.71,37.71,0,0,1,9.9-9.2,23.61,23.61,0,0,1,7.1-3.1h0a17.4,17.4,0,0,1,4.5-.6,13.93,13.93,0,0,1,3.5.4,8.75,8.75,0,0,0,1.6.2c3,0,5.9-1.8,7.9-4.7a11.81,11.81,0,0,0,1.6-10.8c-2.6-6.6-9.9-9.5-16-9.5a18.41,18.41,0,0,0-3.3.3h-.5a3.54,3.54,0,0,1-2.5-1.8ZM852,333.5a4.78,4.78,0,0,1-3.1-3.5,3.15,3.15,0,0,1,.9-3.2,19.34,19.34,0,0,0,4.1-23.2,39.56,39.56,0,0,0-2.2-3.4,28.9,28.9,0,0,1-2.7-4.4c-1.3-2.7-1.6-6.5.6-8.7a9.43,9.43,0,0,1,3.9-2.2c2.9-1.2,6.3-2.4,9.5-2.4a9.2,9.2,0,0,1,4.6,1.1c17.7,9.2,37.5,20.5,47.8,39.5l.2.4h0a25.74,25.74,0,0,0-6.4,5,31.67,31.67,0,0,1-4.9,4,11.58,11.58,0,0,1-6,1.7c-3.2,0-5.6-1.4-6.4-3.9a16.64,16.64,0,0,0-11.6-10.7,13.93,13.93,0,0,0-3.5-.4,16.26,16.26,0,0,0-11.6,4.8,21.58,21.58,0,0,0-2.7,3.3,21.58,21.58,0,0,1-2.7,3.3,9.08,9.08,0,0,1-6.1,3,4.88,4.88,0,0,1-1.7-.1ZM645.9,351.4c-.4-1.3.2-2.8.8-4a82.63,82.63,0,0,1,5.1-9.2c7.8-12.3,18.6-22.5,30.9-30.8a152.82,152.82,0,0,1,29.2-15.2,8.08,8.08,0,0,1,3.4-.8,2.77,2.77,0,0,1,.9.1,3.1,3.1,0,0,1,2,1.5,2,2,0,0,1,.1,1.7,3.64,3.64,0,0,0,.3,3.2,6.86,6.86,0,0,0,4.4,3.2,9.74,9.74,0,0,0,2.4.2,28.51,28.51,0,0,0,3.1-.2c1-.1,2.1-.2,3.2-.2h.3a15.62,15.62,0,0,1,12.8,7.3c-3,3.8-7.8,4.6-12.8,5.5a50.64,50.64,0,0,0-7.7,1.8c-7.3,2.8-12.1,10-15.5,15.9-.5.9-1,1.9-1.6,2.8l-.1.2c-3.1,5.6-6.2,11.4-11.2,15.5a19.4,19.4,0,0,1-12.2,4.6,12.48,12.48,0,0,1-8.5-3,18,18,0,0,0-12.3-4.5,18.57,18.57,0,0,0-13.7,5.7,1.61,1.61,0,0,1-1.1.5,3.3,3.3,0,0,1-2.2-1.8ZM962.8,454.8c-2.7-1.1-4.4-3.8-5.5-5.6-6-10.6-6.1-23.3-6.2-35.7s-.1-25.5-6.5-36.2c-4.7-7.9-7-17.2-9.2-26.1-2.7-10.7-5.4-21.8-12.3-30.4-.5-.7-1.1-1.3-1.6-1.9-2.2-2.6-4.5-5.3-5.2-8.7a9.76,9.76,0,0,1,2.4-8.2,16.27,16.27,0,0,1,11.8-5.5h.5c7.7.3,14.3,5,20.7,9.5a669.84,669.84,0,0,0,89.3,53.2,6.38,6.38,0,0,1,1.4.8,12.61,12.61,0,0,1,4,4.6,17.56,17.56,0,0,1,1.3,13.3c-1.8,6.8-6.6,12.3-11.7,17.8a527.61,527.61,0,0,1-59.2,54.6c-3,2.4-7,5.2-11,5.2a10.88,10.88,0,0,1-3-.7ZM604.9,470.1a232.11,232.11,0,0,1-50.4-57.8c-5.4-8.8-10.6-19.1-8.3-29.5,3.3-14.8,19.3-21.8,33.4-28.1l.9-.4a241,241,0,0,0,76.9-54.1,3.93,3.93,0,0,1,2.9-1.3,6.76,6.76,0,0,1,4.7,2.4,6.93,6.93,0,0,1,2,5.3c-.4,4.9-4.5,8.6-8,11.8l-.3.3a121.92,121.92,0,0,0-15.9,17.8,124.77,124.77,0,0,0-19.4,40.2,116.82,116.82,0,0,0-4.2,24.9,248.21,248.21,0,0,0,.2,25.9c.5,11.8,1,24-.9,35.8-.4,2.2-2,9.5-7.2,9.7H611c-2.3.2-4.3-1.3-6.1-2.9Zm273.6,153c13.3-7.9,23.8-21.8,28.9-38.3h0a185.91,185.91,0,0,1,54.8,81.7c.6,1.7.7,4.2-.3,5.5a1.69,1.69,0,0,1-1.7.8h-.9c-9.1,0-17.5,3.5-22.5,9.4-5.9,7-6.6,17.5-1.5,24.1a4.13,4.13,0,0,1,.7,1.1,8,8,0,0,1,.7,4.6c-.3,3-2,6.4-5.6,9.6-1,.8-2,1.7-3,2.5-3.5,2.9-7.2,5.9-8.4,10.2a10.59,10.59,0,0,0,1.9,9.4,18.11,18.11,0,0,0,13.9,6.7,17.52,17.52,0,0,0,4-.5c8.3-2.4,14.2-9.4,18.8-16.9.9-1.4,1.7-2.8,2.5-4.3h0c.4,5.7,6.1,10.7,12,10.7a11.53,11.53,0,0,0,2.6-.3l.2-.1h0c1.1,35.1,1.3,72.2-9.6,106.8a143,143,0,0,1-25.3,47.6c-12.1,14.8-26.3,25.5-42.3,31.6a68.69,68.69,0,0,1-24.6,4.9,47.18,47.18,0,0,1-15.8-2.6c-14-4.9-23.8-17.5-23.9-30.6a179.74,179.74,0,0,1,6.5-50c.9-3.2,1.8-6.3,2.9-9.4h0c.2,4.4.4,9.8,3.1,14a10.44,10.44,0,0,0,8.3,4.6,6.48,6.48,0,0,0,4.1-1.3c6.3-5,14.6-6.1,22.7-7.1,2.5-.3,5.2-.7,7.7-1.1a30.28,30.28,0,0,0,6.7-1.9c5.7-2.2,10.9-5.8,13.4-10.6h0a13.75,13.75,0,0,0,1.6-6.9c-.2-4.6-2.7-8.9-5.1-13.1-3.1-5.3-6-10.3-4.4-15.8a11.63,11.63,0,0,0-1.6-9.6,16.88,16.88,0,0,0-11.2-7.5,18.41,18.41,0,0,0-3.3-.3c-5.9,0-12.3,2.4-19.2,7.3-2.4,1.7-4.7,3.5-6.8,5.2a83.22,83.22,0,0,1-10.9,7.8c-.6.4-1.3.7-1.9,1.1h0l-.7-8.8-.7-8.8c-.7-9.7-1.7-19.2-4.4-27.5a48.33,48.33,0,0,0-4.6-10.1,31.75,31.75,0,0,0-5.4-6.7c-7.6-7.4-18.7-11.2-33-11.2a109.93,109.93,0,0,0-17.2,1.5c-11.9,2-40.2,9.1-45.5,31.3-2,8.3-.1,17,1.5,24.8l3.6,17.3,3.6,17.4c3.8,18.4,8.1,39.2,3.8,59a58,58,0,0,1-13.6,26.5c-7.2,7.9-16,12.5-25.3,13.4-1.2.1-2.4.2-3.6.2a40.54,40.54,0,0,1-11.9-1.9c-10.1-3.2-19.2-10.2-27-18.4a113.61,113.61,0,0,1-9.5-11.3c-8.3-11.1-14-20.7-18.1-30.4-4.9-11.7-7.5-24.3-9.6-36.2-7.1-40.1-9-78.1-5.6-112.9,3.9-40,14.7-75.7,32.3-106.2,1.7-2.9,3.6-5.9,6.6-7.1a5.93,5.93,0,0,1,2.3-.5c2.4,0,5.2,1.4,5.4,4,1.5,15.4,15.9,28.4,31.4,28.4h.3c12-.1,22.5-6.9,32.6-13.5,2.8-1.8,6.1-3.9,9.2-5.7,7.9-4.6,20.2-10.1,33.9-10.1a45.77,45.77,0,0,1,16,2.9c7.4,2.9,13.7,7.9,19.9,12.8,5.5,4.3,11.1,8.8,17.5,11.8a46.22,46.22,0,0,0,19.7,4.2,53.66,53.66,0,0,0,27.3-7.5Zm55,118.9c-2.3-.2-4.9-1.2-5.5-3.5s1.3-4.6,2.9-6.1c.8-.8,1.6-1.6,2.4-2.3,3.4-3.2,6.9-6.5,9.3-10.5,2.7-4.7,3.9-11.6.3-16.4-3.1-4.2-2.8-10.8.8-15.4,3.1-3.9,8.3-6.5,14.4-7.2a16.2,16.2,0,0,1,2.2-.1,10.62,10.62,0,0,1,6,1.6c3,2.1,4,6,4.7,9.6,2.1,10.3,3.7,20.9,4.8,31.3l.1,1.3h0L968,723l-8.1-1.3a15.26,15.26,0,0,0-3-.3,5.87,5.87,0,0,0-3.2.8c-1.9,1.3-2.4,3.7-2.8,6.1a8.47,8.47,0,0,1-.4,1.7,15,15,0,0,1-2.2,5,17.64,17.64,0,0,1-5.9,5.3,14.84,14.84,0,0,1-7.4,1.9c-.6-.1-1.1-.1-1.5-.2ZM786.4,795.7c-1-3.9,1.1-7.3,3.3-11a36,36,0,0,0,2.9-5.5,15.62,15.62,0,0,0-6.3-18.1,38.18,38.18,0,0,0-4.6-2.1,25.46,25.46,0,0,1-5-2.4,13.81,13.81,0,0,1-6.2-11.5,7.67,7.67,0,0,1,2.6-6.2c1.6-1.3,3.8-1.5,6.3-1.6,4.3-.2,9.2-.5,13.9-.5,2.6,0,5,.1,7.3.2,7.7.5,13.4,2,18.1,4.7a29,29,0,0,1,5.3,3.9h.1a37.33,37.33,0,0,1,4.5,5.2,45,45,0,0,1,5.3,10.2c2.7,7.2,3.7,14.8,4.6,22.2l.3,2.4h0a26.14,26.14,0,0,0-14.7-5.1h-1c-6,.3-11.3,3.8-13.3,8.6-2.5,6.1-5.9,10.1-10.2,11.8a8.72,8.72,0,0,1-3.9.7c-3.8.1-8.3-1.8-9.3-5.9ZM715.9,927.3a46.17,46.17,0,0,0,11.2-4.8h0l.1-.1a51.86,51.86,0,0,0,8.1-5.8A62.67,62.67,0,0,0,754.1,888c7.7-24.3,2.2-50.8-3.4-71.2-.4-1.6-.9-3.2-1.3-4.7-3.3-11.8-6.7-24-6.1-36.3a43.42,43.42,0,0,1,6.2-20.1c3.9-6.4,9.3-10.8,15.6-12.8h0a8.12,8.12,0,0,0-1.6,6.4,13.79,13.79,0,0,0,1.7,4.8,18.19,18.19,0,0,0,2.9,3.8,44.39,44.39,0,0,0,5.9,4.6,36.52,36.52,0,0,1,7.1,5.9,13.3,13.3,0,0,1,3.2,9.7,6.89,6.89,0,0,1-2.9,5.1,10.4,10.4,0,0,0-3.7,4.6,12.5,12.5,0,0,0-.9,3.7,17.82,17.82,0,0,0,.3,4.6c1.4,6.8,6.6,12.4,12.6,13.7a17.22,17.22,0,0,0,3.9.4c10.7,0,20-8.6,24.5-17.1,1.4-2.7,4.2-4.2,7.8-4.2a13.83,13.83,0,0,1,11.4,6.2c3.9,6.5,2.9,14.5,1.4,22.9l-7.3,42-1.1,6.2c-2.3,13-4.8,27.8-1.3,41.6.2.9.5,1.8.7,2.6a40.23,40.23,0,0,0,11.7,17.8,28.6,28.6,0,0,0,14.1,6.5c.6.1,1.2.1,1.8.2h0c-6,3.3-12.7,7.1-17.4,12.7a23.59,23.59,0,0,0-5.2,11.2,14,14,0,0,0,0,5,16,16,0,0,0,1.1,3.9c1.6,3.5,4.6,6.7,7.4,9.8,4.9,5.2,9.5,10.2,6.7,16.1a19.36,19.36,0,0,0,4.7,21.9,18.4,18.4,0,0,0,12.3,4.4,19.59,19.59,0,0,0,10-2.8c3.9-2.5,6.7-6.3,9.4-10,1-1.3,2.1-2.9,3.3-4.3,2-2.5,7.4-8.2,14-8.2a10.68,10.68,0,0,1,2.5.3,15.26,15.26,0,0,0,3,.3c9.5,0,17.2-10,18.5-19.4,1-7.7-.7-15.5-2.4-23-.7-2.9-1.3-6-1.8-9-.3-2-.6-4-.7-6a39.87,39.87,0,0,1,1.1-12.4c1.2-4.3,3.3-8.5,7.2-11.5A126.84,126.84,0,0,0,960.7,880a129,129,0,0,0,7.4-14.3h0a1192.1,1192.1,0,0,1,18.1,147c.3,4.4-.5,10.6-3.6,13.8a5.91,5.91,0,0,1-4.5,2h-1.7c-6.4,0-12.7,3.6-16.9,9.5-4,5.8-5.2,12.8-3.1,18.7,1.2,3.3-1.7,6.9-5.1,8.3a28.52,28.52,0,0,1-4.8,1.3,24.27,24.27,0,0,0-5.4,1.7c-4,2-6.5,6.7-6.3,12s3.2,9.8,7.4,11.3a29.92,29.92,0,0,0,5.8,1.2c2.9.4,5.9.7,8.2,2.5,2.7,2,4.1,5.5,5.4,8.9,1.7,4.4,3.4,8.5,7.7,9.1.3,0,.6.1,1,.1,2.5,0,5-1.2,7.7-2.7l.4-.2c2.4-1.3,4.7-2.5,6.7-2.5a4.07,4.07,0,0,1,3.2,1.5c-.4,5.9-.7,12-.9,17.8v.2c-.8,18.6-1.7,37.8-5.8,56.2a132.22,132.22,0,0,1-7.7,23.8c-5.5,12.7-13.3,24.4-23.7,33.2a69.39,69.39,0,0,1-6.7,5.1,62.46,62.46,0,0,1-34.3,10.3c-13.7,0-26-4.7-34.6-13.2-9.8-9.7-14.5-23.1-18.2-36.1a314.27,314.27,0,0,1-11.4-80.1c-.1-5.4-.3-10.7-1.7-15.1a18.62,18.62,0,0,0-2.5-5.1,15.18,15.18,0,0,0-3.3-3.4c-2.9-2.1-6.4-3.1-11.5-3.1-2.2,0-4.6.2-6.8.4h-.1c-2.2.2-4.6.4-6.8.4a25.6,25.6,0,0,1-5.5-.5,44.52,44.52,0,0,1-10-3.7,52.59,52.59,0,0,0-9.3-3.6,16.55,16.55,0,0,0-3.2-.3,14.77,14.77,0,0,0-10.1,3.8,7.31,7.31,0,0,0-2.2,5.5,317.12,317.12,0,0,1-6.2,72.1c-3.5,17-9.4,38.6-24.1,54.3a57.13,57.13,0,0,1-10,8.4,54.55,54.55,0,0,1-19.3,8h-.1a47.77,47.77,0,0,1-8.4.8,38.3,38.3,0,0,1-16.6-3.7,40.34,40.34,0,0,1-8.5-5.6l-.1-.1-.1-.1c-1.6-1.4-3.2-2.9-4.7-4.5-5.2-5.7-9.2-12.4-12.5-18.3a227.33,227.33,0,0,1-25.6-75.5c-2.3-15.1-3.1-30.7-3.9-45.8l-2.4-46.5-2.3-45.3c-.2-3.5.3-7.9,3.6-8.9,4.1-1.2,4.1-5.7,4-10.6a27.54,27.54,0,0,1,.5-7c1.9-7.6,10-9.2,18.6-10.8,8-1.5,16.2-3.1,19.3-9.9a10.88,10.88,0,0,0,.9-5.6c-.4-4-2.7-8-5.8-11.3A31.56,31.56,0,0,0,664,932c-1.7-1.2-3.5-2.4-5.3-3.5-5.1-3.3-10.4-6.7-13.4-12-2.5-4.5-3-9.7-3.5-14.8l-.3-3c-.6-5.1-1.9-12.3-7.2-16.3a10.37,10.37,0,0,0-6.4-2,9.73,9.73,0,0,0-7.3,3,5.67,5.67,0,0,0-1.3,2.7h0a220,220,0,0,1,.9-65.8c.6-3.7,1.3-7.4,2.1-11v0a146.75,146.75,0,0,0,38.6,96c13,14.1,26.4,21.8,39.6,23.1,1.2.1,2.5.2,3.7.2a41.28,41.28,0,0,0,11.1-1.5Zm365.4,31.9c18.5-18.6,33.2-41.1,47.3-62.8,3.1-4.8,6.4-9.8,9.6-14.6,17.4-26.2,37.4-52.8,64.9-70.1,4.5-2.8,9.2-5.4,13.8-8,4-2.2,8.2-4.5,12.2-6.9a149.65,149.65,0,0,0,35.1-29.8,6.29,6.29,0,0,1,4.6-2,8.42,8.42,0,0,1,6.1,2.7c3.2,3.5,3,8.7,2.7,11.5-2.2,17.3-19.2,27.9-34.2,37.2l-1.9,1.2a266.42,266.42,0,0,0-74.3,69.2c-8.5,11.7-16.2,24.3-23.6,36.5h0v.1c-9.2,15.1-18.7,30.6-29.9,44.7-2.8,3.5-6.3,7.6-10.3,11.8a139.71,139.71,0,0,1-16.7,15c-14.5,11.2-32.9,20.6-54.1,21.4h-2.9c-8.3,0-16.6-1.2-24.7-2.4-4.6-.7-9.2-1.6-11.9-5a7.13,7.13,0,0,1-.6-7.3,4.38,4.38,0,0,1,3.9-2.7h2a94.78,94.78,0,0,0,34.9-6.9,136.57,136.57,0,0,0,37.5-22.8c3.4-3.1,6.9-6.4,10.5-10ZM874.7,812c2.3-1.9,2.5-5.2,1.8-7.6a5.94,5.94,0,0,0-4.9-4.5,2.49,2.49,0,0,1-2.1-1.7,6.12,6.12,0,0,1,1.3-5.5c2.1-2.1,5.2-3.2,9.1-3.2a22.47,22.47,0,0,1,5.8.7c2.1.5,4.4,1.1,6,2.7s2.4,4.2,1.1,6.1a7.79,7.79,0,0,0-1.3,4.7h0v.1a14.14,14.14,0,0,0,1.1,4.5,27.87,27.87,0,0,0,4.4,6.9c4.1,5,8,10.8,5.4,16.1-1.9,3.9-6.7,5.4-10.4,6-.9.1-1.8.2-2.8.4-3.2.4-6.4.7-9.2,2.3a11.74,11.74,0,0,1-5.8,1.3,31.08,31.08,0,0,1-4.3-.3h-.1l-1.4-.1a14.77,14.77,0,0,0-2.1-.1c-4.2,0-7.1,1.2-8.7,3.5a2.09,2.09,0,0,1-1.6.8,3.72,3.72,0,0,1-3.1-2,8.53,8.53,0,0,1-.4-4.2v-1.7c0-2-.9-4.3-2.8-4.6-4-.8-6.1-5.5-5.5-9.4s3.1-7.5,5.4-10.6c1.3-1.9,2.9-4,5.2-5a5.34,5.34,0,0,1,2.5-.5,4.55,4.55,0,0,1,4,2,9.86,9.86,0,0,0,8.5,4.8,8.09,8.09,0,0,0,4.9-1.9Zm-256,93.4c-.1-3.5-.2-7.4,1-11.1a10.59,10.59,0,0,1,7.8-7.3c.3,0,.6-.1.9-.1a7.14,7.14,0,0,1,5.1,2.3,5.27,5.27,0,0,1,1.5,4c-.6,8.6.9,17.3,2.6,25.5.6,3,1.3,5.6,2.9,7.8a17.87,17.87,0,0,0,6,4.7l10.5,6.2c3.6,2.1,8.3,5.4,7.8,10-.4,4-4.5,6.5-8.2,7.1a24.49,24.49,0,0,1-5.4.3h-.5a37.58,37.58,0,0,0-5.8.3,18.94,18.94,0,0,0-8.7,4.1,21.78,21.78,0,0,0-7.4,12.8,16,16,0,0,0-.3,4.4v.5c.1,3.5.3,7.7-2.2,9.5a3.38,3.38,0,0,1-1.2.6h0c-3.4-26.9-5.5-54.4-6.4-81.6Zm291.8,24a3.58,3.58,0,0,1,1.1-.4c1.6,0,3.2,1.8,3.3,3.6a10.57,10.57,0,0,1-.8,4,21.72,21.72,0,0,0-.7,2.4,18.42,18.42,0,0,0,.8,8.1l5.3,21.8.2.7c.9,3.5,1.6,7.5-.4,10.5-1.1,1.6-2.9,2.7-5.5,3.5a53.26,53.26,0,0,1-9.7,1.7c-2,.2-4.2.4-6.3.8-3.8.7-10.5,2.8-13,8.5-1.9,4.3-4.3,9.2-8.3,12.5a15.22,15.22,0,0,1-9.4,3.6,10.82,10.82,0,0,1-4.7-1.1,9,9,0,0,1-4.6-6.6,6.93,6.93,0,0,1,1.8-6.1c4.6-4.6.1-12.5-1.3-14.8a89,89,0,0,0-9.1-12.1l-.2-.3c-2.7-3-5.7-6.4-5.5-10.4.3-5.4,5.9-8.7,10.7-11l12.7-5.9,2.2-1c2.9-1.3,6.3-2.9,9.8-2.9h1.8a53.86,53.86,0,0,0,29.8-9.1ZM946,1084.1a3.58,3.58,0,0,1-2-2.6,5.54,5.54,0,0,1,.8-4.5c1.3-1.8,3.6-3.1,7-3.8.6-.1,1.3-.3,1.9-.4h.2a23.82,23.82,0,0,0,5.8-1.6,11.5,11.5,0,0,0,6.1-8.1c.5-2.8-.1-5.7-.7-8.6-.7-3.3-1.4-6.7-.3-9.9,2.3-6.5,10.3-8.3,17.1-9.2.4,0,.8-.1,1.2-.1a5.45,5.45,0,0,1,3.7,1.1,2,2,0,0,1,.6,1.4c-.5,18.1-.4,36.5.2,54.6a10.81,10.81,0,0,1-.8,5.6c-1.2,2.4-3.8,3.6-7.7,3.6a22.42,22.42,0,0,1-5.2-.6c-2.7-2-4.6-5.1-6.3-8-.7-1.1-1.3-2.2-2-3.2-1.4-2.1-5.3-6.9-10.3-6.9a3.4,3.4,0,0,0-1,.1,24.37,24.37,0,0,0-2.6.6h-.1a12.85,12.85,0,0,1-3.4.7,3.77,3.77,0,0,1-2.2-.2Z" transform="translate(-538.26 -265.5)"/><path class="cls-1" d="M780.6,336.2a14.5,14.5,0,0,0-9.4,6.6,9.47,9.47,0,0,0-1.2,7.7c1.2,4-2.7,7.7-7.1,9.4-.7.3-1.5.5-2.3.8h-.1c-3.4,1.1-6.9,2.3-8.8,5.2a7.84,7.84,0,0,0-1,6.3,12.68,12.68,0,0,0,5.5,7.7c4.8,3,11,3.1,15.9,3.1h2.8c4,0,8.3-.2,12.2-1.8,5.9-2.4,10.8-8,13.5-15.5,2.4-6.7,2.9-13.9,3.4-20.8a5.47,5.47,0,0,0-.4-3.1c-.7-1.2-2-1.8-3.5-2.4-4.5-1.6-10-3.7-15.5-3.7a24.28,24.28,0,0,0-4,.5Zm-21.7,36.5a3.11,3.11,0,0,1,0-2.5,5.73,5.73,0,0,1,3.3-3,22.07,22.07,0,0,1,3.5-.8,21.69,21.69,0,0,0,3.5-.7c4.9-1.7,7.7-7.3,8.5-16.9.1-1.6.4-3.4,1.7-4.3a4,4,0,0,1,2.2-.6,7.57,7.57,0,0,1,1.5.1l4.3.5,4.4.5a2,2,0,0,1,1.3.4,2.85,2.85,0,0,1,.7,2.7l-1.2,10.8c-.6,5.6-2,12.3-7.3,14.3a9.6,9.6,0,0,1-3.3.6,29.78,29.78,0,0,1-5.1-.7,29.78,29.78,0,0,0-5.1-.7,16.35,16.35,0,0,0-2.2.2,13.09,13.09,0,0,0-2.8.9,15.18,15.18,0,0,1-2.8.9,4.87,4.87,0,0,1-1.2.1,3.7,3.7,0,0,1-3.9-1.8Z" transform="translate(-538.26 -265.5)"/><path class="cls-1" d="M754.2,499.9c-4.2,8.9-4.5,20.2-1,31,3,9,8.5,17.7,16.8,26.6,3.5,3.8,7.8,7.6,13.2,7.8h.3c6.6,0,11.7-5.9,15-10.3a143.17,143.17,0,0,0,17.2-30.5c1.8-4.5,3.5-9.8,1.6-14.4-2.6-6.4-10.5-8.4-17.9-9.5l-15.5-2.3L768.2,496a37.25,37.25,0,0,0-4.7-.4c-4.9.1-8,1.5-9.3,4.3Zm23.5,53.2a66.51,66.51,0,0,1-15-19.9c-3.5-6.9-4.6-12.7-3.4-17.7,1.3-5.7,6.4-10.2,11.6-10.2a8.81,8.81,0,0,1,1.7.2l26.9,5.3,5.3,1c2.6.5,4.2,3.2,4.4,5.7a16.46,16.46,0,0,1-1.7,7.5,106.61,106.61,0,0,1-15.9,26.8c-1.9,2.3-4.3,4.7-7.3,4.8h-.1c-2.4-.1-4.7-1.8-6.5-3.5Z" transform="translate(-538.26 -265.5)"/><path class="cls-1" d="M801.9,628.9c-7.5,3.7-12,12.6-10.1,20.2a35.74,35.74,0,0,0,3.6,8,34.53,34.53,0,0,1,3,6.1,21.37,21.37,0,0,1-2.6,19.6,10.55,10.55,0,0,0-1.4,8.8,14.66,14.66,0,0,0,7.1,9.2,17,17,0,0,0,8,1.8,27.19,27.19,0,0,0,12.5-3.4c5.1-2.8,9.4-6.8,13.7-10.8,1-.9,2-1.8,2.9-2.7,5-4.5,11-9.3,18.2-10.9,1-.2,2.1-.4,3.2-.6,3.5-.6,7.2-1.2,9.5-3.8,3-3.4,2.3-8.6.1-12.1-2.3-3.7-6.2-6.3-9.7-8.6-8.6-5.7-17.5-11.6-27.7-14.5a19.64,19.64,0,0,1-5.5-3l-.1-.1c-.5-.4-1.1-.7-1.6-1.1a25.06,25.06,0,0,0-13.8-4.1,19.32,19.32,0,0,0-9.3,2Zm3.4,63.9a9.59,9.59,0,0,1-1.8-7.5,24.09,24.09,0,0,1,2.4-6.3,34.31,34.31,0,0,0,2.2-5.6c2-8.2-3.1-16.3-6.3-20.3a11.46,11.46,0,0,1,9.2-18.6,12.52,12.52,0,0,1,5,1.1l21.7,10.9,21.8,10.9a3.56,3.56,0,0,1,2,3.2,6.88,6.88,0,0,1-2.7,5.8c-2,1.5-4.6,2-7.1,2.5a30.05,30.05,0,0,0-3.2.7c-7,1.9-12.5,7.3-17.8,12.5-6.5,6.3-12.7,12.3-21.3,12.6h-.2a5.08,5.08,0,0,1-3.9-1.9Z" transform="translate(-538.26 -265.5)"/><path class="cls-1" d="M672.7,703.8l-7.3.6-7.3.6c-5.3.5-10.1,1.1-13.6,4-5.2,4.4-5.4,11.9-5,16.1.2,2.3.6,4.5,1,6.8a39.71,39.71,0,0,1-.6,20.9h0v.1a66.37,66.37,0,0,0-1.6,8.7c-.6,6.4,1.5,14,7.6,16.5a20.63,20.63,0,0,0,6.5,1.1l6.1.3,6.1.3c1.9.1,3.5.2,5.2.2a25.49,25.49,0,0,0,9.1-1.4c8.2-3.1,13.1-13.2,10.5-21.5a30.26,30.26,0,0,0-1.2-3.2c-1-2.3-2-4.7-1.8-7.2.4-4.9,5-8.1,8.8-10,.8-.4,1.7-.8,2.5-1.2,3.4-1.5,6.9-3.1,9.3-6.1,3.6-4.5,3.4-11.8-.3-17-3.2-4.5-8.7-7.6-15.5-8.8a48.66,48.66,0,0,0-7.6-.6c-3.8.2-7.4.5-10.9.8Zm-26.6,59.7c-.7-4,.6-8.2,2-12l.2-.6c1.3-3.6,2.7-7.4,2.5-11.3a29.8,29.8,0,0,0-2-8.2v-.1c-.4-1.1-.8-2.2-1.1-3.3-.8-2.8-1.8-8,1-11.6,2.6-3.2,7.1-3.9,11.5-4.3l6.8-.6,6.6-.6c2.8-.2,5.9-.5,8.9-.5,6,0,10.5,1,14.3,3.1a10.22,10.22,0,0,1,3.4,2.8c2.4,3.5.7,8.4-2.2,11.2-2.3,2.3-5.3,3.7-8.2,5.1-.8.4-1.7.8-2.5,1.2-4.8,2.4-7.6,5.2-8.6,8.4-1.3,3.9.2,8.2,1.6,12.3,1.6,4.7,3.1,9.1.9,13.2-2.6,4.8-8.7,5.3-11.2,5.3h-1.3c-2-.2-4-.5-5.9-.8a46.57,46.57,0,0,0-7.5-.9h-1.2c-4.1-.1-7.3-4-8-7.8Z" transform="translate(-538.26 -265.5)"/><path class="cls-1" d="M703.8,1005.7c-5.5,4.1-8,12.3-6.1,19.9.3,1.3.8,2.6,1.2,3.9a28.8,28.8,0,0,1,1.8,7.7c.1,6.1-4.4,11.3-8.1,14.6-1.3,1.2-2.8,2.3-4.2,3.4l-.2.1c-3,2.4-6.1,4.8-8.5,7.9a18.73,18.73,0,0,0-3.7,8.1,12.92,12.92,0,0,0-.1,3.4h0v.1a12.11,12.11,0,0,0,1.5,4.4c2.4,3.7,6.8,5.4,11.5,6.9l17.3,5.4a42.25,42.25,0,0,0,9.2,2.1c.5,0,1,.1,1.6.1,4.5,0,9-1.3,13-2.5,3.6-1.1,8.2-2.4,11-5.7,2.6-3,3.4-7.1,4.2-11.1,1-5,2-9.8,6.2-12.3a13.26,13.26,0,0,0,5.9-8.5,17.14,17.14,0,0,0-2.1-12.9,21.81,21.81,0,0,0-9.5-8,31.21,31.21,0,0,0-4.3-1.5h-.1a32.84,32.84,0,0,0-6.9-1c-4.3-.2-7.2-4.6-8.1-9-.3-1.3-.5-2.7-.7-3.9-.5-3-.9-6.1-2.5-8.6a12.37,12.37,0,0,0-10.8-5.6,13.18,13.18,0,0,0-8.5,2.6Zm1.9,76.3-6.3-1.9-6.3-2c-3.6-1.1-7.2-2.6-8.3-5.8-1-2.8.4-5.8,2-7.7a26,26,0,0,1,5.1-4.2l1.4-1a50.21,50.21,0,0,0,11.5-11.5c3-4.2,4.4-7.8,4.4-11.3,0-3.1-1.1-6-2.1-8.9-.1-.4-.3-.8-.4-1.2-1.2-3.3-2.2-6.9-1.3-10.3.8-3.2,3.7-5.7,6.5-5.7a3.75,3.75,0,0,1,1.1.1c3.1.7,4.8,4.1,5.4,7,.2,1.3.3,2.5.4,3.8a33.53,33.53,0,0,0,.8,5.4c2.3,7.5,10.5,10.8,19.1,13.4a21.92,21.92,0,0,1,7.7,3.4c2,1.6,3.8,4.5,3.1,7.4-.6,2.6-2.8,4.2-5.1,5.8a18.76,18.76,0,0,0-4.4,4c-1.6,2.4-1.7,5.3-1.8,8.2a23.24,23.24,0,0,1-.7,5.9c-1.8,6.2-8.3,9.5-14,10a17.7,17.7,0,0,1-2.3.1c-5.3.2-10.7-1.5-15.5-3Z" transform="translate(-538.26 -265.5)"/><path class="cls-1" d="M898.5,1120.4a11,11,0,0,0-3.3,13.2,16.09,16.09,0,0,0,1.7,2.8v.1a23.29,23.29,0,0,1,2,3.4c.9,2.3.4,5.4-1.8,6.3-10.8,4.4-17.8,16.9-15.8,28.5.8,4.6,2.9,8.5,5.8,10.8a15.18,15.18,0,0,0,9.7,3,26.56,26.56,0,0,0,7.9-1.2c2.4-.7,4.7-1.6,7-2.5a66,66,0,0,1,10.4-3.3,53.54,53.54,0,0,1,7-.7c4.9-.3,9.9-.7,13.9-3.4,4.7-3.2,7.3-9.4,6.7-16-.5-5.2-2.8-10.7-7-16.6-2-2.8-1.7-6.3-1.3-9.8.1-1.1.2-2.1.2-3.1a10.84,10.84,0,0,0-2.7-7.5,4.74,4.74,0,0,0-3.3-1.6,4.1,4.1,0,0,0-1.1.1,16.52,16.52,0,0,1-3.8.5c-4.1,0-8.2-1.4-12.2-2.8l-.4-.1-1.6-.6a32.08,32.08,0,0,0-9.8-1.8,12.51,12.51,0,0,0-8.2,2.3Zm-2.9,58.1a9,9,0,0,1-5-4.8,13,13,0,0,1-.4-9.5c1.7-4.5,5.6-8.3,11.8-11.6l.2-.1c3.3-1.7,7-3.7,7.5-7.3.4-3-1.6-5.5-3.5-8l-.4-.5-.2-.3c-2.1-2.7-3.6-6.5-1.6-9.1a4.67,4.67,0,0,1,4-1.7,14.8,14.8,0,0,1,5.9,1.6c3.6,1.8,7.5,3.5,10.9,3.5a7.24,7.24,0,0,0,5.2-2,1.5,1.5,0,0,1,1.1-.4,2.43,2.43,0,0,1,2.1,1.4,6.89,6.89,0,0,1,.2,3.5v.3a28.54,28.54,0,0,0,7.4,23.2,6,6,0,0,1,1.5,4.6,9.62,9.62,0,0,1-3,6.1c-3.3,2.8-8,3.3-11.3,3.4h-2.6a33.45,33.45,0,0,0-9.4,1,44.74,44.74,0,0,0-7,3.3c-3.5,1.9-6.7,3.7-10.2,3.7a6.76,6.76,0,0,1-3.2-.3Z" transform="translate(-538.26 -265.5)"/><path class="cls-2" d="M907.4,584.8h0c-5,16.4-15.6,30.4-28.9,38.2a53.66,53.66,0,0,1-27.3,7.5,45.91,45.91,0,0,1-19.7-4.2c-6.4-3-12.1-7.5-17.5-11.8-6.1-4.9-12.5-9.9-19.9-12.8a41.63,41.63,0,0,0-16-2.9c-13.7,0-26,5.5-33.9,10.1-3.1,1.8-6.3,3.9-9.2,5.7-10.1,6.6-20.6,13.3-32.6,13.5h-.3c-15.5,0-29.9-13-31.4-28.4-.3-2.6-3-4-5.4-4a5.87,5.87,0,0,0-2.3.4c-3,1.3-4.9,4.2-6.6,7.1-17.5,30.5-28.4,66.3-32.3,106.2-3.4,34.8-1.5,72.8,5.6,112.9,2.1,11.9,4.7,24.5,9.6,36.2,4,9.7,9.8,19.4,18.1,30.4,10.8,14.4,28,31.6,48.4,31.6,1.2,0,2.4-.1,3.6-.2,9.3-.9,18-5.6,25.3-13.4a57,57,0,0,0,13.6-26.5c4.3-19.7,0-40.6-3.8-59L740.9,804l-3.6-17.3c-1.6-7.7-3.4-16.5-1.5-24.8,5.3-22.3,33.5-29.3,45.5-31.3a110,110,0,0,1,17.2-1.6c14.3,0,25.4,3.8,33,11.2,11.1,10.8,13.1,27.1,14.4,44.3l.7,8.8.7,8.8a81.26,81.26,0,0,0,12.8-8.9c2.1-1.7,4.5-3.6,6.8-5.2,6.8-4.8,13.3-7.3,19.2-7.3a18.41,18.41,0,0,1,3.3.3,16.88,16.88,0,0,1,11.2,7.5,11.63,11.63,0,0,1,1.6,9.6c-1.6,5.5,1.3,10.5,4.4,15.8,2.4,4.2,5,8.5,5.1,13.1.4,10.5-11,17.4-21.8,19.4-2.5.5-5.2.8-7.7,1.1-8.1,1-16.4,2.1-22.7,7.1a6.1,6.1,0,0,1-4.1,1.3,10.16,10.16,0,0,1-8.3-4.6c-2.7-4.1-2.9-9.6-3.1-14a182.45,182.45,0,0,0-9.4,59.5c.1,13.1,9.9,25.6,23.9,30.6a47.18,47.18,0,0,0,15.8,2.6,69.12,69.12,0,0,0,24.6-4.9c16-6.2,30.2-16.8,42.3-31.6a145.82,145.82,0,0,0,25.3-47.6c10.9-34.6,10.7-71.8,9.6-106.8a12.61,12.61,0,0,1-2.8.4c-6,0-11.6-5-12-10.7-5,8.9-11.5,18.3-21.3,21.1a13.72,13.72,0,0,1-4,.5,18.11,18.11,0,0,1-13.9-6.7,10.24,10.24,0,0,1-1.9-9.4c1.2-4.3,4.9-7.3,8.4-10.2,1-.9,2-1.7,3-2.5,6.2-5.6,6.7-11.9,4.2-15.2-5-6.6-4.4-17.2,1.5-24.1,5-5.9,13.4-9.4,22.5-9.4h.9a2.14,2.14,0,0,0,1.7-.8c.9-1.3.8-3.8.3-5.5a190.71,190.71,0,0,0-55.3-81.8ZM809.6,702.5a18.36,18.36,0,0,1-8-1.8,14.34,14.34,0,0,1-7.1-9.2,10.93,10.93,0,0,1,1.4-8.8,21.37,21.37,0,0,0,2.6-19.6,38.29,38.29,0,0,0-3-6.1,32.12,32.12,0,0,1-3.6-8c-1.9-7.6,2.6-16.5,10.1-20.2a20.51,20.51,0,0,1,9.4-2.1,25.91,25.91,0,0,1,13.8,4.1c.5.4,1.1.7,1.6,1.1l.1.1a19.64,19.64,0,0,0,5.5,3c10.1,2.9,19,8.8,27.7,14.5,3.5,2.3,7.3,4.8,9.7,8.6,2.2,3.5,2.8,8.8-.1,12.1-2.3,2.6-6,3.2-9.5,3.8-1.1.2-2.2.4-3.2.6-7.2,1.6-13.2,6.5-18.2,11-1,.9-2,1.8-2.9,2.7-4.2,3.9-8.6,8-13.7,10.8a27.93,27.93,0,0,1-12.6,3.4ZM639.8,752.9a39.71,39.71,0,0,0,.6-20.9,55.21,55.21,0,0,1-.9-6.8c-.4-4.1-.2-11.7,5-16.1,3.5-3,8.2-3.6,13.6-4l7.3-.7,7.3-.6c3.4-.3,7-.6,10.6-.6a47.72,47.72,0,0,1,7.6.6c6.7,1.2,12.3,4.3,15.5,8.8,3.7,5.2,3.9,12.5.3,17-2.3,2.9-5.9,4.5-9.3,6.1-.8.4-1.7.8-2.5,1.2-3.8,1.9-8.5,5.1-8.8,10-.2,2.5.8,4.9,1.8,7.2a30.26,30.26,0,0,1,1.2,3.2c2.6,8.4-2.3,18.4-10.5,21.5a25.49,25.49,0,0,1-9.1,1.4c-1.6,0-3.3-.1-5.2-.2l-6.1-.3-6.1-.3a18.14,18.14,0,0,1-6.5-1.1c-6.1-2.5-8.2-10-7.6-16.5a82.41,82.41,0,0,1,1.8-8.9Z" transform="translate(-538.26 -265.5)"/><path class="cls-2" d="M765.2,742.9h0c-6.2,2-11.6,6.5-15.6,12.8a43.42,43.42,0,0,0-6.2,20.1c-.7,12.3,2.7,24.5,6,36.3.4,1.6.9,3.2,1.3,4.7,5.6,20.3,11,46.8,3.4,71.2a63.47,63.47,0,0,1-18.8,28.6c-9.3,8-19.8,12.2-30.5,12.2-1.2,0-2.5-.1-3.7-.2-13.3-1.2-26.6-9-39.7-23.1a147,147,0,0,1-38.6-96,220.28,220.28,0,0,0-3.1,76.8c.9-4,5-5.8,8.6-5.8a11.27,11.27,0,0,1,6.4,2c5.2,4,6.6,11.2,7.2,16.3l.3,3c.5,5.1,1,10.3,3.5,14.8,3,5.3,8.2,8.7,13.4,12,1.8,1.1,3.6,2.3,5.3,3.5,6.9,5,12.4,13.4,9.1,20.7-3,6.7-11.3,8.3-19.3,9.9-8.6,1.7-16.8,3.2-18.6,10.8a32.55,32.55,0,0,0-.5,7c0,4.9.1,9.4-4,10.6-3.4,1-3.8,5.4-3.6,8.9l2.3,45.3,2.4,46.5c.8,15.1,1.6,30.6,3.9,45.8a227.33,227.33,0,0,0,25.6,75.5c5.6,10.2,13.6,22.6,25.9,28.6a38,38,0,0,0,16.6,3.7c13.4,0,28-6.6,38-17.3,14.7-15.7,20.6-37.3,24.1-54.3a317.12,317.12,0,0,0,6.2-72.1,7,7,0,0,1,2.2-5.5,14.59,14.59,0,0,1,10.1-3.8,17.33,17.33,0,0,1,3.2.3,43.7,43.7,0,0,1,9.3,3.6,44.52,44.52,0,0,0,10,3.7,33.08,33.08,0,0,0,5.5.5c2.3,0,4.6-.2,6.8-.4h.1c2.3-.2,4.6-.4,6.8-.4,5,0,8.5,1,11.5,3.1,6.7,4.9,7.3,13.9,7.5,23.6a315.78,315.78,0,0,0,11.5,80.2c3.6,13,8.3,26.4,18.2,36.1,8.6,8.5,20.9,13.2,34.6,13.2a62.46,62.46,0,0,0,34.3-10.3c18.3-12.3,31.8-34.3,38-62.1,4.1-18.4,5-37.6,5.8-56.2v-.3c.3-5.9.5-11.9.9-17.8a4.07,4.07,0,0,0-3.2-1.5c-2,0-4.3,1.2-6.7,2.5l-.4.2c-2.8,1.5-5.3,2.7-7.7,2.7a3.75,3.75,0,0,1-1-.1c-4.3-.6-5.9-4.7-7.7-9.1-1.3-3.4-2.7-6.9-5.4-8.9-2.3-1.8-5.3-2.1-8.3-2.5a28.46,28.46,0,0,1-5.8-1.2c-4.2-1.5-7.2-6-7.4-11.3s2.2-10.1,6.3-12a30.92,30.92,0,0,1,5.4-1.7,42.74,42.74,0,0,0,4.8-1.3c3.4-1.4,6.3-5,5.1-8.3-2.1-5.9-1-12.8,3.1-18.7s10.5-9.5,16.9-9.5h1.7a5.91,5.91,0,0,0,4.5-2c3-3.2,3.8-9.4,3.6-13.8a1192.1,1192.1,0,0,0-18.1-147A126.5,126.5,0,0,1,931.4,914c-10.1,8-8.7,23.6-7.6,29.9.5,3,1.2,6,1.8,9,1.7,7.5,3.4,15.3,2.4,23-1.2,9.4-9,19.4-18.5,19.4a10.32,10.32,0,0,1-3-.4,10.07,10.07,0,0,0-2.5-.3c-6.5,0-12,5.8-14,8.2-1.2,1.4-2.3,3-3.3,4.3-2.7,3.7-5.5,7.5-9.4,10a17.83,17.83,0,0,1-10,2.8,18.4,18.4,0,0,1-12.3-4.4,19.17,19.17,0,0,1-4.7-21.9c2.7-6-1.9-10.9-6.7-16.1-2.9-3.1-5.8-6.3-7.4-9.8-3.3-7.3.1-15.4,4-20.1,4.7-5.6,11.4-9.4,17.4-12.7-10.5-.7-23.8-9.4-28.3-27.1-3.5-13.8-.9-28.6,1.3-41.6l1.1-6.2,7.3-42c1.4-8.3,2.4-16.3-1.4-22.9a13.72,13.72,0,0,0-11.4-6.2,8.67,8.67,0,0,0-7.8,4.2c-4.5,8.5-13.8,17.1-24.5,17.1a17.22,17.22,0,0,1-3.9-.4c-6-1.2-11.2-6.8-12.6-13.7-1.1-5.5.4-10.2,4.3-13a7.07,7.07,0,0,0,2.9-5.1,13.3,13.3,0,0,0-3.2-9.7,36.52,36.52,0,0,0-7.1-5.9,44.39,44.39,0,0,1-5.9-4.6c-4.4-4-6.7-10.7-3.2-14.9Zm-48,350.7a8.08,8.08,0,0,1-1.6-.1,41,41,0,0,1-9.2-2.1l-17.3-5.4c-4.7-1.5-9.2-3.1-11.5-6.9-3.2-5-1.2-11.6,2.2-16a48.32,48.32,0,0,1,8.5-7.8l.2-.1c1.4-1.1,2.8-2.2,4.2-3.4,3.8-3.3,8.2-8.5,8.1-14.6a22.78,22.78,0,0,0-1.8-7.7,29.07,29.07,0,0,1-1.2-3.9c-1.9-7.6.6-15.8,6.1-19.9a13.88,13.88,0,0,1,8.5-2.7c4.7,0,8.8,2.1,10.8,5.6,1.6,2.6,2,5.7,2.5,8.6.2,1.2.4,2.6.7,3.9,1,4.3,3.9,8.8,8.1,9,9.1.4,16.9,4.3,20.8,10.6a17.21,17.21,0,0,1,2.1,12.9,13.26,13.26,0,0,1-5.9,8.5c-4.1,2.5-5.1,7.3-6.2,12.3-.8,4-1.7,8.1-4.2,11.1-2.8,3.3-7.4,4.6-11,5.7-4,1.2-8.5,2.5-12.9,2.4Zm179.6,94.8a15.37,15.37,0,0,1-9.7-3c-3-2.3-5.1-6.1-5.8-10.8-2-11.5,5-24.1,15.8-28.5,2.2-.9,2.7-4,1.8-6.3a14.48,14.48,0,0,0-2-3.4v-.1a26.06,26.06,0,0,1-1.7-2.8,11,11,0,0,1,3.3-13.2,13.09,13.09,0,0,1,8.1-2.4,33.23,33.23,0,0,1,9.8,1.8l1.7.6.4.1c4,1.3,8.1,2.8,12.2,2.8a12,12,0,0,0,3.8-.5,3.75,3.75,0,0,1,1.1-.1,4.58,4.58,0,0,1,3.4,1.6,11,11,0,0,1,2.7,7.5c0,1-.1,2-.2,3.1-.3,3.5-.6,7.1,1.3,9.8,4.3,5.9,6.6,11.3,7,16.6.6,6.5-2,12.8-6.7,16-4,2.7-9.1,3.1-13.9,3.4-2.3.1-4.7.4-7,.7a60,60,0,0,0-10.4,3.3c-2.3.9-4.6,1.8-7,2.5a24.38,24.38,0,0,1-8,1.3Z" transform="translate(-538.26 -265.5)"/><path class="cls-2" d="M806.8,272.3a214.58,214.58,0,0,0-69.7,11.6c-2.7.9-5.8,2.2-7.1,4.8a4.72,4.72,0,0,0,.3,4.6A3.2,3.2,0,0,0,733,295h.5a18.41,18.41,0,0,1,3.3-.3c6.1,0,13.4,2.9,16,9.5a11.85,11.85,0,0,1-1.6,10.8c-2,2.9-5,4.7-7.9,4.7a7.77,7.77,0,0,1-1.6-.2,19.73,19.73,0,0,0-3.5-.4c-7.2,0-15.3,4.8-21.4,12.9a106.58,106.58,0,0,0-6,8.9c-3.3,5.2-6.7,10.6-11.3,14.8a25.3,25.3,0,0,1-16.4,6.7,14.78,14.78,0,0,1-10.2-3.7,16.87,16.87,0,0,0-11.7-4.3,23.39,23.39,0,0,0-15,5.4c-7.3,6-12,16.1-12.8,27.7-.7,10.5,1.4,21,3.5,31.1l15.6,76,15.6,76c2.1,10.4,4.5,22.2,10.6,31.8,6.3,10.1,16.3,16.3,26.1,16.3a8.6,8.6,0,0,0,1.6-.1c7.9-.6,14.9-5,21.6-9.3,26.9-17.1,40.7-19.4,50.5-19.4a45.58,45.58,0,0,1,11.6,1.5c10.1,2.7,18.9,9,27.5,15.2,10.1,7.3,20.5,14.7,32.9,15.9,1.1.1,2.2.2,3.3.2,9.2,0,18.5-3.7,26.6-10.7a62.62,62.62,0,0,0,17.3-24.8c6.1-15.8,6.8-33.1,7.6-49.9.2-4.5.4-8.5.7-12.6a318,318,0,0,1,13-71.2c1.3-4.2,2.7-8.4,4-12.5,3.6-10.9,7.2-22.1,9.2-33.5a119.93,119.93,0,0,0-10.6-72.9,8.77,8.77,0,0,1-4.2,1.1,8.21,8.21,0,0,1-4.3-1.2c-1.6,5.1-7.2,8.7-13.2,8.7a12.41,12.41,0,0,1-2.7-.3c-5.9-1.1-11.3-5.5-14.9-12a5.7,5.7,0,0,0-5.2-2.7,7.84,7.84,0,0,0-3.3.7c-2.4,1-4.2,2.8-6.1,4.6l-.2.1-1.2,1.2c-5,4.6-10.5,7.1-15.6,7.1a14.77,14.77,0,0,1-2.1-.1,13.34,13.34,0,0,1-9-5.9,9.59,9.59,0,0,1-1.3-7.9c.9-2.7,2.9-4.8,4.9-6.9s4.3-4.5,5-7.4c1-4-1-7.7-3-11.5a32.38,32.38,0,0,1-2.7-6c-2.3-7.3,1.3-16.1,8.1-19.6a239,239,0,0,0-43.8-4.3ZM774.7,383h-2.8c-4.9-.1-11.1-.2-15.9-3.1a12.41,12.41,0,0,1-5.5-7.7,7.78,7.78,0,0,1,1-6.3c1.9-2.9,5.4-4,8.8-5.2h.1c.8-.3,1.6-.5,2.3-.8,4.4-1.7,8.3-5.4,7.1-9.4a9.53,9.53,0,0,1,1.2-7.7,14.5,14.5,0,0,1,9.4-6.6,17.52,17.52,0,0,1,4-.4c5.4,0,11,2,15.5,3.7a5.6,5.6,0,0,1,3.5,2.4,6.66,6.66,0,0,1,.4,3.1c-.5,6.9-1,14.1-3.4,20.8-2.7,7.4-7.6,13-13.5,15.5-3.9,1.5-8.1,1.7-12.2,1.7Zm8.7,182.3h-.3c-5.3-.1-9.6-4-13.2-7.8-8.3-8.9-13.8-17.6-16.8-26.6-3.5-10.7-3.2-22,1-31,1.3-2.8,4.4-4.3,9.2-4.3a24.18,24.18,0,0,1,4.7.4l15.7,2.3,15.5,2.3c7.4,1.1,15.2,3.1,17.9,9.5,1.9,4.6.2,9.8-1.6,14.4A139,139,0,0,1,798.3,555c-3.1,4.5-8.2,10.3-14.9,10.3Z" transform="translate(-538.26 -265.5)"/><path class="cls-2" d="M930.5,296.5a16.27,16.27,0,0,0-11.8,5.5,9.76,9.76,0,0,0-2.4,8.2c.6,3.4,2.9,6.1,5.2,8.7.6.7,1.1,1.3,1.6,1.9,7,8.6,9.7,19.7,12.3,30.4,2.2,9,4.5,18.2,9.2,26.1,6.4,10.7,6.4,23.6,6.5,36.2.1,12.3.1,25.1,6.2,35.7,1.1,1.9,2.8,4.5,5.5,5.6a8.15,8.15,0,0,0,3.1.6c4,0,8-2.8,11-5.2a537.21,537.21,0,0,0,59.2-54.6c5.1-5.5,9.8-11,11.7-17.8,2.4-8.8-1.7-16.2-6.7-18.7a676.24,676.24,0,0,1-89.3-53.2c-6.4-4.5-13-9.2-20.7-9.5l-.6.1Z" transform="translate(-538.26 -265.5)"/><path class="cls-2" d="M660.2,299a3.6,3.6,0,0,0-2.9,1.3,241,241,0,0,1-76.9,54.1l-.9.4c-14.1,6.2-30.1,13.3-33.4,28.1-2.3,10.4,2.9,20.8,8.3,29.5a233.89,233.89,0,0,0,50.4,57.8c1.9,1.5,3.9,3,6.2,3h.2c5.2-.2,6.8-7.5,7.2-9.7,1.9-11.8,1.4-24,.9-35.8a248.42,248.42,0,0,1-.2-25.9,124.1,124.1,0,0,1,39.5-82.9l.3-.3c3.6-3.3,7.6-7,8-11.8a6.57,6.57,0,0,0-2-5.2,6.3,6.3,0,0,0-4.7-2.6Z" transform="translate(-538.26 -265.5)"/><path class="cls-3" d="M863,282.5c-3.2,0-6.6,1.2-9.5,2.4a11.58,11.58,0,0,0-3.9,2.2c-2.2,2.3-1.9,6-.6,8.7a32.34,32.34,0,0,0,2.7,4.4,24.64,24.64,0,0,1,2.2,3.4,19.36,19.36,0,0,1-4.1,23.2,3.21,3.21,0,0,0-.9,3.2,4.6,4.6,0,0,0,3.1,3.5,7.72,7.72,0,0,0,1.5.2,8.88,8.88,0,0,0,6.1-3,27.82,27.82,0,0,0,2.7-3.3,21.58,21.58,0,0,1,2.7-3.3,16.26,16.26,0,0,1,11.6-4.8,13.42,13.42,0,0,1,3.5.4,16.44,16.44,0,0,1,11.6,10.7c.8,2.4,3.2,3.9,6.4,3.9a11.58,11.58,0,0,0,6-1.7,38,38,0,0,0,4.9-4.1,27.7,27.7,0,0,1,6.4-5c-10.2-19.2-30.1-30.7-48-40a8,8,0,0,0-4.4-1Z" transform="translate(-538.26 -265.5)"/><path class="cls-3" d="M715.3,291.4a13,13,0,0,0-3.4.8c-30.8,12.1-54,31.6-65.2,55.1-.6,1.2-1.2,2.7-.8,4a2.47,2.47,0,0,0,2.2,1.7,1.61,1.61,0,0,0,1.1-.5,19.13,19.13,0,0,1,13.7-5.7,18,18,0,0,1,12.3,4.5,12.65,12.65,0,0,0,8.5,3,19.4,19.4,0,0,0,12.2-4.6c4.9-4.1,8.1-9.9,11.2-15.5l.1-.2c.5-.9,1-1.9,1.6-2.8,3.4-5.9,8.1-13.1,15.4-15.9a34.45,34.45,0,0,1,7.7-1.8c5.1-.9,9.8-1.7,12.8-5.5a15.62,15.62,0,0,0-12.8-7.3h-.3c-1.1,0-2.1.1-3.2.2s-2.1.2-3.1.2a19.42,19.42,0,0,1-2.4-.2,7.12,7.12,0,0,1-4.4-3.2,3.61,3.61,0,0,1-.3-3.2,2.46,2.46,0,0,0-.1-1.7,3,3,0,0,0-2-1.5,2.49,2.49,0,0,1-.8.1Z" transform="translate(-538.26 -265.5)"/><path class="cls-3" d="M781.6,344a4.19,4.19,0,0,0-2.2.5c-1.3.9-1.6,2.7-1.7,4.3-.8,9.6-3.6,15.1-8.5,16.9a13.59,13.59,0,0,1-3.5.7,13.71,13.71,0,0,0-3.5.8,6,6,0,0,0-3.3,3,2.75,2.75,0,0,0,0,2.5,4,4,0,0,0,3.9,2.1,4.87,4.87,0,0,0,1.2-.1,13.09,13.09,0,0,0,2.8-.9,13.09,13.09,0,0,1,2.8-.9,15,15,0,0,1,2.2-.2,29.78,29.78,0,0,1,5.1.7,29.78,29.78,0,0,0,5.1.7,9.6,9.6,0,0,0,3.3-.6c5.3-2,6.7-8.7,7.3-14.3l1.2-10.8c.1-1,.1-2.2-.7-2.7a3.26,3.26,0,0,0-1.3-.4l-4.4-.5-4.3-.5a8,8,0,0,0-1.5-.3Z" transform="translate(-538.26 -265.5)"/><path class="cls-3" d="M810.9,634.5a11.46,11.46,0,0,0-9.2,18.6c3.2,4,8.4,12.1,6.3,20.3a29.59,29.59,0,0,1-2.2,5.6,34.13,34.13,0,0,0-2.4,6.3,9.21,9.21,0,0,0,1.8,7.5,5.17,5.17,0,0,0,3.9,2h.2c8.6-.3,14.8-6.3,21.3-12.6,5.4-5.2,10.9-10.5,17.8-12.5a25.46,25.46,0,0,1,3.2-.7c2.5-.5,5-1,7.1-2.5a6.88,6.88,0,0,0,2.7-5.8,3.56,3.56,0,0,0-2-3.2l-21.8-10.9-21.7-10.9a11.15,11.15,0,0,0-5-1.2Z" transform="translate(-538.26 -265.5)"/><path class="cls-3" d="M682.4,710.4a86.86,86.86,0,0,0-8.9.5l-6.6.6-6.8.6c-4.4.4-8.9,1-11.5,4.3-2.8,3.6-1.9,8.8-1,11.6.3,1.1.7,2.2,1.1,3.3v.1a28.15,28.15,0,0,1,2,8.2c.2,3.9-1.2,7.6-2.5,11.3l-.2.6c-1.4,3.9-2.7,8-2,12,.7,3.8,3.8,7.8,7.9,7.8h1.2a48,48,0,0,1,7.5.9,39.8,39.8,0,0,0,5.9.8h1.4c2.5,0,8.6-.5,11.2-5.3,2.2-4,.7-8.5-.9-13.2-1.4-4.1-2.9-8.3-1.6-12.3,1-3.3,3.9-6,8.7-8.4.8-.4,1.6-.8,2.5-1.2a26.88,26.88,0,0,0,8.2-5.1c2.9-2.8,4.6-7.7,2.2-11.2a8.43,8.43,0,0,0-3.4-2.8c-3.9-2-8.5-3-14.4-3.1Z" transform="translate(-538.26 -265.5)"/><path class="cls-3" d="M960.4,680.4a17,17,0,0,0-2.2.1c-6.1.7-11.3,3.3-14.4,7.2-3.6,4.6-4,11.2-.8,15.4,3.6,4.8,2.4,11.7-.3,16.4-2.4,4-5.9,7.3-9.2,10.5-.8.8-1.7,1.5-2.5,2.3-1.5,1.5-3.5,3.7-2.9,6.1s3.2,3.3,5.5,3.5c.4,0,.9.1,1.3.1,7.1,0,14-5.3,15.6-12.2a10.46,10.46,0,0,1,.4-1.7c.5-2.3.9-4.8,2.8-6.1a5.29,5.29,0,0,1,3.2-.8,15.26,15.26,0,0,1,3,.3l8.1,1.3,8.1,1.3a326.33,326.33,0,0,0-4.9-32.7c-.7-3.5-1.7-7.5-4.7-9.6a11.9,11.9,0,0,0-6.1-1.4Z" transform="translate(-538.26 -265.5)"/><path class="cls-3" d="M793.2,736.8c-4.7,0-9.6.2-13.9.5-2.4.1-4.6.3-6.3,1.6s-2.5,3.5-2.6,6.2a13.68,13.68,0,0,0,6.2,11.5,32.74,32.74,0,0,0,5,2.4,38.18,38.18,0,0,1,4.6,2.1c5.9,3.5,8.7,11.6,6.3,18.1a36,36,0,0,1-2.9,5.5c-2.2,3.7-4.3,7.1-3.3,11,1.1,4.2,5.5,6.1,9.2,6.1a10.36,10.36,0,0,0,3.9-.7c4.3-1.7,7.7-5.7,10.2-11.8,2-4.9,7.4-8.3,13.3-8.6h1c4.7,0,9.8,1.8,14.7,5.1-1-8.2-2-16.6-4.9-24.6-3.2-8.8-8.6-15.7-15.2-19.4-4.7-2.7-10.4-4.1-18.1-4.7q-3.3-.3-7.2-.3Z" transform="translate(-538.26 -265.5)"/><path class="cls-3" d="M880,789.6c-3.9,0-7,1.1-9.1,3.2a5.55,5.55,0,0,0-1.3,5.5,2.45,2.45,0,0,0,2.1,1.8c2.3.2,4,1.9,4.9,4.5.7,2.4.5,5.7-1.8,7.6a7.68,7.68,0,0,1-5,1.8,9.86,9.86,0,0,1-8.5-4.8,4.55,4.55,0,0,0-4-2,7,7,0,0,0-2.5.5c-2.3,1-3.8,3.1-5.2,5-2.3,3.1-4.8,6.5-5.4,10.6-.5,3.9,1.6,8.6,5.5,9.4,1.9.4,2.8,2.6,2.8,4.6V839a10,10,0,0,0,.4,4.2,3.53,3.53,0,0,0,3.1,2,1.94,1.94,0,0,0,1.6-.8c1.6-2.3,4.5-3.5,8.7-3.5a15.48,15.48,0,0,1,2.1.1l1.4.1h.1c1.4.1,2.9.3,4.3.3a11.74,11.74,0,0,0,5.8-1.3c2.8-1.6,6.1-1.9,9.2-2.3a23.58,23.58,0,0,0,2.8-.4c3.7-.6,8.5-2,10.4-6,2.6-5.3-1.3-11.1-5.4-16.1-3.8-4.6-7.6-11.1-4.2-16.1,1.3-1.9.5-4.6-1.1-6.1s-4-2.3-6-2.7a26.12,26.12,0,0,0-5.7-.8Z" transform="translate(-538.26 -265.5)"/><path class="cls-3" d="M628.4,887a2.77,2.77,0,0,0-.9.1c-3.4.5-6.4,3.4-7.8,7.3-1.3,3.6-1.1,7.6-1,11.1.9,27.2,3.1,54.6,6.5,81.6,3.7-1.2,3.5-6.1,3.4-10.1v-.5c-.3-10.2,7-19.8,16.4-21.3a27.86,27.86,0,0,1,5.8-.3h.5a48.86,48.86,0,0,0,5.4-.3c3.7-.6,7.9-3.1,8.2-7.1.4-4.6-4.3-7.9-7.8-10l-10.5-6.2a19.23,19.23,0,0,1-6-4.7c-1.6-2.1-2.3-4.8-2.9-7.8-1.7-8.2-3.2-16.9-2.6-25.5a5.42,5.42,0,0,0-1.5-4,7,7,0,0,0-5.2-2.3Z" transform="translate(-538.26 -265.5)"/><path class="cls-3" d="M911.7,929.1a1.5,1.5,0,0,0-1.1.4,54.27,54.27,0,0,1-30,9.1h-1.8c-3.5,0-6.8,1.6-9.8,2.9l-2.2,1-12.7,5.9c-4.9,2.3-10.5,5.6-10.7,11-.2,4,2.8,7.4,5.5,10.4l.2.3a98.1,98.1,0,0,1,9.1,12.1c1.5,2.3,5.9,10.3,1.3,14.8a7.14,7.14,0,0,0-1.8,6.1,8.84,8.84,0,0,0,4.6,6.6,11.16,11.16,0,0,0,4.7,1.1,14.87,14.87,0,0,0,9.4-3.6c4-3.4,6.4-8.2,8.3-12.5,2.6-5.7,9.3-7.7,13-8.5,2.1-.4,4.2-.6,6.3-.8a45.87,45.87,0,0,0,9.7-1.7,10.31,10.31,0,0,0,5.5-3.5c2-2.9,1.3-6.9.4-10.5l-.2-.7-5.3-21.8c-.6-2.5-1.3-5.4-.8-8.1a21.72,21.72,0,0,1,.7-2.4,11.4,11.4,0,0,0,.8-4c.1-1.9-1.5-3.7-3.1-3.6Z" transform="translate(-538.26 -265.5)"/><path class="cls-3" d="M982.9,1035.4a4.87,4.87,0,0,0-1.2.1c-6.7.9-14.8,2.7-17.1,9.2-1.1,3.2-.4,6.6.3,9.9.6,2.8,1.2,5.8.7,8.6a11.25,11.25,0,0,1-6.1,8.1,22.65,22.65,0,0,1-5.8,1.6h-.2a12.86,12.86,0,0,0-1.9.4c-3.4.7-5.7,2-7,3.8a5.54,5.54,0,0,0-.8,4.5,3.78,3.78,0,0,0,3.9,3,12.85,12.85,0,0,0,3.4-.7h.1a11,11,0,0,1,2.6-.6c.3,0,.7-.1,1-.1,5.1,0,8.9,4.9,10.3,7,.7,1,1.3,2.1,2,3.2,1.8,2.9,3.6,5.9,6.3,8a30.7,30.7,0,0,0,5.2.6c3.9,0,6.5-1.2,7.7-3.6.9-1.7.8-3.8.8-5.6-.7-18.2-.7-36.6-.3-54.6a1.82,1.82,0,0,0-.6-1.4c-.3-1-1.6-1.4-3.3-1.4Z" transform="translate(-538.26 -265.5)"/><path class="cls-3" d="M907.9,1125.8a4.78,4.78,0,0,0-4,1.7c-2,2.5-.5,6.3,1.6,9.1l.2.3.4.5c1.9,2.5,4,5,3.6,8-.5,3.6-4.2,5.6-7.5,7.3l-.2.1c-6.3,3.3-10.1,7.1-11.8,11.6a12.51,12.51,0,0,0,.4,9.5,8.75,8.75,0,0,0,5,4.8,10.59,10.59,0,0,0,3.1.5c3.4,0,6.7-1.8,10.2-3.7a44.74,44.74,0,0,1,7-3.3,32.68,32.68,0,0,1,9.4-1h2.6c3.3-.1,8-.6,11.3-3.4a8.75,8.75,0,0,0,3-6.1,6,6,0,0,0-1.5-4.6,28.76,28.76,0,0,1-7.4-23.2v-.3a6,6,0,0,0-.2-3.5,2.46,2.46,0,0,0-2.2-1.4,1.5,1.5,0,0,0-1.1.4,6.85,6.85,0,0,1-5.2,2c-3.4,0-7.3-1.7-10.9-3.5a11.65,11.65,0,0,0-5.8-1.8Z" transform="translate(-538.26 -265.5)"/><path class="cls-3" d="M712,1010.6h0c-2.8,0-5.7,2.5-6.5,5.7-.9,3.4.1,6.9,1.3,10.3.1.4.3.8.4,1.2a25.17,25.17,0,0,1,2.1,8.9c0,3.5-1.4,7.1-4.4,11.3a50.21,50.21,0,0,1-11.5,11.5c-.5.3-.9.7-1.4,1a26,26,0,0,0-5.1,4.2c-1.6,1.9-3,4.9-2,7.7,1.1,3.1,4.7,4.6,8.3,5.8l6.3,2,6.3,2c4.8,1.5,10.2,3.2,15.6,3.2a17.7,17.7,0,0,0,2.3-.1c5.7-.5,12.1-3.8,14-10a23.24,23.24,0,0,0,.7-5.9c.1-2.9.2-5.8,1.8-8.2a18.76,18.76,0,0,1,4.4-4c2.3-1.7,4.5-3.2,5.1-5.8.7-2.9-1.1-5.8-3.1-7.4-2.3-1.8-5.1-2.6-7.7-3.4-8.5-2.5-16.8-5.9-19.1-13.4a25.18,25.18,0,0,1-.8-5.4c-.1-1.3-.2-2.6-.4-3.8-.5-2.9-2.2-6.3-5.4-7a2.38,2.38,0,0,0-1.2-.4Z" transform="translate(-538.26 -265.5)"/><path class="cls-4" d="M770.8,505.3c-5.2,0-10.2,4.5-11.6,10.2-1.2,5-.1,10.8,3.4,17.7a69.9,69.9,0,0,0,15.1,19.9c1.8,1.7,4,3.4,6.5,3.4h.1c3,0,5.3-2.4,7.3-4.8a103.72,103.72,0,0,0,15.9-26.8,16.17,16.17,0,0,0,1.7-7.5c-.2-2.4-1.8-5.2-4.4-5.7l-5.3-1-26.9-5.3c-.6,0-1.2-.1-1.8-.1Z" transform="translate(-538.26 -265.5)"/><path class="cls-4" d="M1268.9,764.9a5.66,5.66,0,0,0-4.6,2,149.65,149.65,0,0,1-35.1,29.8c-4,2.4-8.2,4.7-12.2,6.9-4.6,2.5-9.3,5.1-13.8,8-27.5,17.4-47.5,44-64.9,70.1-3.2,4.8-6.5,9.8-9.6,14.6-14.2,21.8-28.8,44.2-47.3,62.8-25.3,25.5-54.8,39.5-83.1,39.5h-2a4.33,4.33,0,0,0-3.9,2.7,7.33,7.33,0,0,0,.6,7.3c2.7,3.4,7.3,4.3,11.9,5,8.1,1.2,16.4,2.4,24.7,2.4a27.15,27.15,0,0,0,2.9-.1c38.3-1.3,67.2-30.8,81.1-48.2,11.2-14,20.7-29.6,29.9-44.7v-.1h0c7.4-12.2,15.1-24.8,23.6-36.5a269.19,269.19,0,0,1,74.3-69.2l1.9-1.2c15-9.3,32-19.9,34.2-37.2.4-2.8.5-7.9-2.7-11.5a8.56,8.56,0,0,0-5.9-2.4Z" transform="translate(-538.26 -265.5)"/><path class="cls-5" d="M874.17,398.84a52.78,52.78,0,0,0-11.39,5.3,30,30,0,0,0-8.89,8.15c-2.32,3.34-4.7,6.53-5.79,10.49a40.27,40.27,0,0,0-1.59,9.94,48,48,0,0,0,.61,7.26,22.49,22.49,0,0,0,3.59,9.94c2.58,3.8,4.86,7.84,8.85,10.59a45.86,45.86,0,0,0,5,3.32c2.24,1.13,4.71,1.8,7,2.89a31.9,31.9,0,0,0,10.69,2.67c3.94.43,7.72-.65,11.46-1.51a39.12,39.12,0,0,0,7.68-3.11,32.8,32.8,0,0,0,11.39-8.55,47.73,47.73,0,0,0,5.36-8.17,27.84,27.84,0,0,0,2.2-6.64,39.54,39.54,0,0,0,1.07-7.24,27.77,27.77,0,0,0-.62-6.34,31,31,0,0,0-1.93-7.06c-2.25-4.92-4.86-9.69-9.48-13.11-.18-.13-.24-.41-.43-.7-.42-.29-.89-.43-1.07-.74-1-1.63-2.74-2.17-4.38-2.9-2.21-1-4.48-1.89-6.57-3.07a20.65,20.65,0,0,0-8.33-2.31c-2-.17-4-.31-6-.31a26.34,26.34,0,0,0-8.46,1.21Zm20,12.2a3.86,3.86,0,0,1,1-3.1,3.25,3.25,0,0,1,2.38-1,4.4,4.4,0,0,1,2,.53,3.16,3.16,0,0,1,1.63,3.17,2.7,2.7,0,0,1-1.88,2.61,4.36,4.36,0,0,1-1.75.4,3.5,3.5,0,0,1-3.37-2.63Zm15.3,15c-1.43-.15-2-1.33-2.51-2.43-.09-.21-.2-.42-.31-.65a4.92,4.92,0,0,1-.61-1.89,4.85,4.85,0,0,1,.8-2.92,3,3,0,0,1,2.15-1h.26a4.78,4.78,0,0,1,3.87,2.55c1.16,1.94,1.18,3.59.08,5.19a2.74,2.74,0,0,1-2.47,1.19c-.43,0-.86-.05-1.26-.09Z" transform="translate(-538.26 -265.5)"/><path class="cls-5" d="M676.35,401.34A50.65,50.65,0,0,0,665.54,405a26.54,26.54,0,0,0-6.36,3.89A60.52,60.52,0,0,0,653,415a12.91,12.91,0,0,0-1.52,2.76,7.12,7.12,0,0,1-.81,1.52c-3.14,3.57-4.21,8.05-4.81,12.33-.59,4.1-1,8.48.47,12.61,1.06,3,2.3,5.95,3.56,8.89.36.83,1.28,1.46,1.53,2.3a11,11,0,0,0,3.26,4.87c.82.76,1.75,1.43,2.59,2.18s1.6,1.62,2.5,2.32c.73.57,1.74.84,2.41,1.46a19.07,19.07,0,0,0,8.15,4.3,87.65,87.65,0,0,0,12.3,2.15,28.27,28.27,0,0,0,6.83-.56,33.33,33.33,0,0,0,11.83-3.62c4.23-2.41,8.25-5.07,11.36-8.67,2.23-2.58,4.52-5.41,5.61-8.5,1.86-5.3,3.54-10.77,3.06-16.67-.05-4.32-1.58-8.19-2.89-12.07-1.45-4.31-4.42-7.72-7.61-11a45,45,0,0,0-8.46-6.17,28.11,28.11,0,0,0-7.88-3.06,25.32,25.32,0,0,0-7.39-1.23c-1.29,0-2.59,0-3.89-.06-1,0-2-.08-3-.08a21.8,21.8,0,0,0-3.89.3Zm-2.49,8.39c-.46-.65-1.28-2.38,1.06-4.24a4,4,0,0,1,2.56-1.24,2.68,2.68,0,0,1,1.7.67c2.12,1.75,2.67,3.56,1.5,5l-.31.38a5.69,5.69,0,0,1-1.81,1.66,3.51,3.51,0,0,1-1.47.39c-1,0-1.92-.7-3.23-2.58Zm14.37,6c-.57-1.63.21-3.25,2-4.22a5.43,5.43,0,0,1,3.11-1.25,2.52,2.52,0,0,1,1.14.26,17.86,17.86,0,0,0,1.69.73c1.56.63,3.18,1.27,4.12,2.84a3.9,3.9,0,0,1,0,3.82,5,5,0,0,1-3.68,2.7,7.32,7.32,0,0,1-.95.07c-3.17,0-6.52-2.22-7.47-4.95Z" transform="translate(-538.26 -265.5)"/><path class="cls-6" d="M693.38,410.23a5.46,5.46,0,0,0-3.11,1.25c-1.83,1-2.61,2.59-2,4.22.95,2.73,4.3,4.94,7.47,4.94a7.34,7.34,0,0,0,.95-.06,5,5,0,0,0,3.68-2.7,3.88,3.88,0,0,0,0-3.82c-.94-1.57-2.55-2.21-4.12-2.84a17.86,17.86,0,0,1-1.69-.73,2.52,2.52,0,0,0-1.14-.26Z" transform="translate(-538.26 -265.5)"/><path class="cls-6" d="M677.48,404.25a4,4,0,0,0-2.56,1.24c-2.34,1.86-1.52,3.59-1.06,4.25,1.31,1.87,2.19,2.57,3.23,2.57a3.51,3.51,0,0,0,1.47-.39,5.69,5.69,0,0,0,1.81-1.66l.31-.38c1.17-1.4.62-3.21-1.5-5a2.68,2.68,0,0,0-1.7-.67Z" transform="translate(-538.26 -265.5)"/><path class="cls-6" d="M908.94,417.22a3,3,0,0,0-2.15.95,4.41,4.41,0,0,0-.19,4.82l.31.65c.46,1.1,1.08,2.28,2.51,2.43.4,0,.84.09,1.26.09a2.72,2.72,0,0,0,2.47-1.19c1.1-1.6,1.08-3.25-.08-5.19a4.75,4.75,0,0,0-3.87-2.54,1.1,1.1,0,0,0-.26,0Z" transform="translate(-538.26 -265.5)"/><path class="cls-6" d="M897.45,407a3.25,3.25,0,0,0-2.38,1,3.86,3.86,0,0,0-1,3.1,3.49,3.49,0,0,0,3.37,2.62,4.49,4.49,0,0,0,1.75-.38,2.71,2.71,0,0,0,1.88-2.62,3.16,3.16,0,0,0-1.63-3.17,4.4,4.4,0,0,0-2-.53Z" transform="translate(-538.26 -265.5)"/></svg>