<svg id="Draw_Layer" data-name="Draw Layer" xmlns="http://www.w3.org/2000/svg" viewBox="0 0 360.72 103.32"><defs><style>.cls-1{fill:#2c2c2c;}</style></defs><title>Cute_Eyes</title><path class="cls-1" d="M1294.17,445.27c.63,8.12-1.57,15.64-4,22.92-1.42,4.26-4.42,8.15-7.33,11.7-4.07,4.94-9.32,8.6-14.84,11.91-4.83,2.89-10.07,4.13-15.47,5-3,.46-6,1.09-8.92.77a108.2,108.2,0,0,1-16.07-3,24.23,24.23,0,0,1-10.64-5.91c-.87-.85-2.2-1.22-3.15-2-1.18-1-2.16-2.16-3.27-3.2s-2.31-1.94-3.39-3a15.17,15.17,0,0,1-4.25-6.69c-.33-1.15-1.54-2-2-3.17-1.64-4-3.26-8.09-4.66-12.21-1.91-5.68-1.37-11.71-.61-17.34.79-5.89,2.18-12.06,6.29-17a10.22,10.22,0,0,0,1.05-2.09,17.82,17.82,0,0,1,2-3.8,81.17,81.17,0,0,1,8-8.42,34.43,34.43,0,0,1,8.31-5.36c4.56-2,9.27-4.13,14.13-5,4.53-.85,9.35-.08,14-.22a31.33,31.33,0,0,1,9.65,1.69,35.73,35.73,0,0,1,10.31,4.21c3.9,2.57,7.82,5,11,8.49,4.18,4.48,8.06,9.17,10,15.09,1.71,5.34,3.71,10.65,3.77,16.6Zm-40.55-31.89c-2.39,1.32-3.42,3.54-2.68,5.77a10.66,10.66,0,0,0,11,6.69c4.12-.65,6.73-5.52,4.79-8.93-1.66-2.94-5-3.49-7.58-4.89-1.58-.84-3.71-.1-5.51,1.36Zm-20.07-8.24c-2.59,2.16-2.36,4.32-1.38,5.81,2.25,3.37,3.64,4.19,6.11,3a9.34,9.34,0,0,0,2.76-2.8c1.66-2.09.6-4.58-2-6.78-1.64-1.43-3.46-1.21-5.54.78Zm305.74,2c.26.39.33.78.56,1,6.05,4.69,9.46,11.25,12.4,18a45,45,0,0,1,2.51,9.71,40.07,40.07,0,0,1,.82,8.72,56.92,56.92,0,0,1-1.41,9.95,39.2,39.2,0,0,1-2.87,9.14,66.61,66.61,0,0,1-7,11.22,43.32,43.32,0,0,1-14.89,11.77c-3.25,1.62-6.55,3.41-10,4.26-4.88,1.19-9.83,2.67-15,2.09a40.05,40.05,0,0,1-14-3.67c-3-1.5-6.19-2.43-9.11-4a59.29,59.29,0,0,1-6.56-4.57c-5.21-3.77-8.19-9.33-11.56-14.56a32,32,0,0,1-4.7-13.66,71.55,71.55,0,0,1-.8-10,59,59,0,0,1,2.08-13.67c1.43-5.45,4.54-9.83,7.58-14.42a40.29,40.29,0,0,1,11.6-11.21,67.65,67.65,0,0,1,14.89-7.29c6-2.13,12.56-1.8,18.83-1.23a25.81,25.81,0,0,1,10.89,3.17c2.73,1.62,5.7,2.87,8.59,4.22,2.14,1,4.43,1.75,5.72,4,.23.41.85.61,1.39,1Zm5.39,17.63a6.22,6.22,0,0,0-5-3.48,3.83,3.83,0,0,0-3.14,1.27,7.17,7.17,0,0,0-1,4,10.74,10.74,0,0,0,1.19,3.48c.63,1.55,1.42,3.12,3.27,3.33s3.61.4,4.85-1.51c1.52-2.32,1.32-4.58-.1-7.11Zm-24.72-12a4.57,4.57,0,0,0,6.66,3.07,3.71,3.71,0,0,0,2.44-3.58c0-1.81-.37-3.38-2.12-4.34-3.68-2-7.38.35-7,4.85Z" transform="translate(-1194.88 -394.31)"/></svg>