<svg id="Draw_Layer" data-name="Draw Layer" xmlns="http://www.w3.org/2000/svg" viewBox="0 0 1804.5 1482.63"><defs><style>.cls-1{fill:#2c2c2c;}.cls-2{fill:#bebebe;}.cls-3{fill:#6edaf4;}.cls-4{fill:#725af7;}</style></defs><title>Dalmatian</title><path class="cls-1" d="M1434.49,255.62c-60.77,5.65-118.34,29-174.16,53.69,3.39-5.28-2.21-12.58-8.45-13.26s-12.07,2.85-17.35,6.25Q1163.28,348,1092,393.78c-13.56,8.7-28.09,18.66-32.72,34.08-4.7,15.66,2.26,32.32,10.22,46.6A303.38,303.38,0,0,0,1149,566.65c7.53,5.8,17.4,11.48,26,7.4,8.27-3.94,10.32-14.59,11.14-23.72a651.64,651.64,0,0,0,1-104.17Q1213,575.45,1238.8,704.74c2.22,11.13,4.07,23.94-3.09,32.75-49.67,61.2-58,145.22-61.86,224a3706.82,3706.82,0,0,0,8.18,483.19c6.28,76.2,15.55,154.35,51.54,221.82,9.69,18.16,22,36,40.12,45.73,45,24.07,101.26-15.12,120.47-62.43s15.56-100.53,26-150.51c18.77-.34,38.12-.56,55.55,6.41s32.62,23.07,32.54,41.84c-.17,39.35-.15,79.76,14,116.47s45.84,69.42,85,72.82c34.8,3,68.52-17.85,88.76-46.31s29-63.5,34-98.07c10.3-71.35,6.34-143.9,2.35-215.88,55.53,25.41,122.54-3.59,165.1-47.4s69-100.51,105.64-149.36a433.4,433.4,0,0,1,112.76-104.61c14.43-9.23,29.7-17.86,40.65-31s16.68-32.39,9-47.67-32-20.91-42.45-7.37c-29.26,37.81-76.14,57-112.94,87.49-46.55,38.6-75.35,93.83-109.83,143.5s-80.37,97.51-140,107.4c-7.91,1.31-17,1.59-22.88-3.85-4.48-4.13-5.92-10.5-7.1-16.48a1041.26,1041.26,0,0,1-13.16-313.94c10.49-95.22-23.85-194.43-91-262.78-26.17-26.65-20.23-70-12.46-106.56q21-98.93,42.07-197.84,2.44,42.24,4.86,84.45c.73,12.57,2.31,26.82,12.42,34.32,15.2,11.28,36.28-.92,50.69-13.18a1001.77,1001.77,0,0,0,81.52-77.68c13.59-14.5,27.63-34.73,18.84-52.55-4.14-8.38-12.47-13.74-20.42-18.67l-115.73-71.91c-26.38-16.39-66.57-30.23-83.46-4.17-37.91-36.51-91.65-52.2-144.7-52.2-8.46,0-16.91.4-25.27,1.18Zm-92,40.11a7.18,7.18,0,0,1-.44-6.81c2-3.89,6.48-5.69,10.54-7.09a318.79,318.79,0,0,1,158-12.4q5.1.9,10.18,2h0c-10,5.23-15.44,18.27-12,29.07a55.27,55.27,0,0,0,4.07,8.92c3,5.73,5.87,11.13,4.44,17.08-1,4.38-4.32,7.74-7.48,11-3,3-6,6.21-7.31,10.24a13.94,13.94,0,0,0,1.87,11.74,19.46,19.46,0,0,0,13.37,8.8,22.92,22.92,0,0,0,3.12.21c7.53,0,15.73-3.76,23.08-10.6.61-.56,1.2-1.13,1.8-1.71l.23-.22c2.71-2.62,5.51-5.34,9-6.85a12.32,12.32,0,0,1,4.87-1c3.48,0,6.37,1.47,7.74,3.94,5.37,9.61,13.44,16.11,22.14,17.81a21.11,21.11,0,0,0,4.07.39c8.8,0,16.87-5.17,19.45-12.37.06-.18.12-.35.17-.53h0v0a12.48,12.48,0,0,0,6.43,1.75,12.65,12.65,0,0,0,6.15-1.58l.07,0h0a178,178,0,0,1,15.56,108.08c-2.93,16.92-8.37,33.53-13.65,49.63-2,6.08-4.05,12.36-6,18.59a468.14,468.14,0,0,0-19.31,105.65c-.39,6-.68,12-1,18.66-1.15,24.84-2.35,50.52-11.3,73.94a92,92,0,0,1-25.59,36.61c-12.15,10.37-25.82,15.85-39.51,15.85-1.62,0-3.26-.08-4.87-.23-18.35-1.75-33.82-12.86-48.78-23.61-12.67-9.09-25.77-18.5-40.74-22.47a67.44,67.44,0,0,0-17.19-2.19c-1.47,0-3,0-4.6.12a91.59,91.59,0,0,0-20.9,3.94c-12.29,3.82-28.06,11.09-49.44,24.64-10,6.34-20.35,12.9-32.08,13.72-.79,0-1.59.09-2.39.09-14.48,0-29.31-9.28-38.7-24.21-9-14.29-12.57-31.77-15.73-47.2l-23.09-112.7-23.08-112.7c-3.06-15-6.24-30.51-5.15-46.09a69.12,69.12,0,0,1,4.94-21.61.59.59,0,0,0,0-.08v0a53.31,53.31,0,0,1,7.15-12.39,44.25,44.25,0,0,1,6.8-7,35.92,35.92,0,0,1,22.3-8c6.86,0,12.85,2.18,17.35,6.31a21.81,21.81,0,0,0,15.07,5.51c8.31,0,17.64-3.82,24.35-10s11.89-14.23,16.79-22c2.8-4.42,5.69-9,8.89-13.19a56.6,56.6,0,0,1,14.62-13.69,36.3,36.3,0,0,1,10.48-4.63h0l.06,0A26.71,26.71,0,0,1,1354,334a26,26,0,0,1,5.13.52,11.74,11.74,0,0,0,2.43.26c4.4,0,8.8-2.6,11.77-6.95,3.37-4.94,4.27-11.05,2.36-16-3.81-9.73-14.65-14.09-23.69-14.09a28.17,28.17,0,0,0-4.9.42,4.34,4.34,0,0,1-.71.06,4.68,4.68,0,0,1-3.92-2.49Zm180.46,59.63a6.92,6.92,0,0,1-4.57-5.16,4.77,4.77,0,0,1,1.36-4.76c9.54-8.24,12.22-23.34,6.11-34.37a58.91,58.91,0,0,0-3.32-5.07,43.29,43.29,0,0,1-4.07-6.55c-1.88-4-2.34-9.6.88-12.95a15.83,15.83,0,0,1,5.75-3.27c4.31-1.71,9.31-3.53,14.1-3.53a14.43,14.43,0,0,1,6.82,1.56c26.31,13.58,55.6,30.42,70.8,58.57l.36.66v0c-3.63,1.76-6.62,4.59-9.55,7.36a51.77,51.77,0,0,1-7.24,6,16.79,16.79,0,0,1-8.88,2.55c-4.79,0-8.34-2.13-9.5-5.71a24.27,24.27,0,0,0-17.2-15.81,22.86,22.86,0,0,0-5.23-.6,24.14,24.14,0,0,0-17.2,7.12,47.31,47.31,0,0,0-4,4.87,47.1,47.1,0,0,1-4,4.93c-2.77,2.81-6.1,4.42-9.11,4.42a8.24,8.24,0,0,1-2.27-.32Zm-305.59,26.51c-.6-2,.29-4.12,1.17-5.95a125,125,0,0,1,7.6-13.61c11.63-18.21,27.61-33.4,45.8-45.65a222.39,222.39,0,0,1,43.31-22.51,14,14,0,0,1,5-1.24,6.55,6.55,0,0,1,1.34.14,4.69,4.69,0,0,1,3,2.26,3,3,0,0,1,.21,2.51,5.48,5.48,0,0,0,.4,4.71,10,10,0,0,0,6.51,4.71,17.53,17.53,0,0,0,3.56.33c1.59,0,3.22-.15,4.67-.29s3.11-.3,4.69-.3h.38a23.17,23.17,0,0,1,19,10.84c-4.41,5.66-11.5,6.87-19,8.16a62.22,62.22,0,0,0-11.47,2.7c-10.88,4.14-18,14.78-22.91,23.59-.77,1.38-1.53,2.77-2.3,4.17l-.17.32c-4.54,8.29-9.24,16.87-16.54,22.95a29.37,29.37,0,0,1-18.11,6.75,18.57,18.57,0,0,1-12.63-4.52,27.15,27.15,0,0,0-18.27-6.66,27.66,27.66,0,0,0-20.32,8.38,2.09,2.09,0,0,1-1.57.67,3.59,3.59,0,0,1-3.25-2.46Zm469.74,153.37c-4-1.69-6.53-5.57-8.1-8.34-8.93-15.71-9-34.58-9.12-52.87-.09-18.58-.18-37.8-9.61-53.61-7-11.75-10.4-25.47-13.68-38.75-3.93-15.89-8-32.33-18.3-45.14-.77-1-1.58-1.91-2.4-2.87-3.31-3.87-6.74-7.88-7.65-12.86a14.68,14.68,0,0,1,3.53-12.16,23.68,23.68,0,0,1,17.51-8.16l.8,0c11.42.47,21.2,7.38,30.66,14.06a994.34,994.34,0,0,0,132.34,78.86,15.66,15.66,0,0,1,2.07,1.23,19,19,0,0,1,6,6.81,26.3,26.3,0,0,1,2,19.66c-2.72,10.1-9.74,18.25-17.31,26.39a786.47,786.47,0,0,1-87.72,81c-4.51,3.56-10.45,7.66-16.37,7.66a11.74,11.74,0,0,1-4.6-.93Zm-530.61,22.69a344.94,344.94,0,0,1-74.67-85.63c-8-13-15.71-28.33-12.31-43.77,4.85-21.9,28.55-32.36,49.46-41.59l1.3-.57a358.21,358.21,0,0,0,114-80.27,5.83,5.83,0,0,1,4.3-1.86,10,10,0,0,1,7,3.52,10.49,10.49,0,0,1,3,7.79c-.64,7.21-6.61,12.69-11.88,17.53l-.5.46A178.86,178.86,0,0,0,1212.59,360a185.88,185.88,0,0,0-28.8,59.58,180.22,180.22,0,0,0-6.21,36.87c-.79,12.83-.23,25.83.32,38.43.75,17.5,1.53,35.59-1.31,53.14-.54,3.31-2.9,14.13-10.66,14.44h-.31c-3.43,0-6.4-2.22-9.16-4.49Zm405.77,226.78C1582,773,1597.61,752.34,1605.09,728h0A276.23,276.23,0,0,1,1686.4,849.2c.84,2.52,1,6.22-.38,8.13a2.93,2.93,0,0,1-2.55,1.26l-1.34,0c-13.51,0-26,5.25-33.43,14-8.73,10.33-9.72,26-2.26,35.78a9.83,9.83,0,0,1,1,1.59,11.33,11.33,0,0,1,1,6.82c-.5,4.41-3,9.47-8.23,14.17-1.41,1.26-2.91,2.5-4.45,3.77-5.22,4.28-10.62,8.72-12.46,15.13a15.52,15.52,0,0,0,2.89,13.9c4.51,6,12.82,10,20.67,10a21.92,21.92,0,0,0,5.95-.8c12.26-3.5,21-13.94,27.87-25,1.3-2.1,2.55-4.22,3.74-6.34v0l0,0c.66,8.44,9,15.84,17.84,15.84a16.41,16.41,0,0,0,3.81-.46l.29-.08h0c1.66,52,1.94,107-14.2,158.35-8.27,26.32-21.23,50.74-37.46,70.61-17.93,22-39,37.75-62.74,46.9a101.37,101.37,0,0,1-36.43,7.29,70.1,70.1,0,0,1-23.46-3.85c-20.69-7.32-35.26-26-35.43-45.31a269.78,269.78,0,0,1,9.66-74.16q1.93-7.07,4.25-14v.06a.14.14,0,0,1,0-.06c.23,6.48.52,14.54,4.59,20.69a15.54,15.54,0,0,0,12.34,6.87,9.84,9.84,0,0,0,6.14-2c9.4-7.39,21.71-9,33.66-10.46,3.78-.48,7.68-1,11.43-1.65a57.22,57.22,0,0,0,10-2.77c8.43-3.22,16.16-8.53,19.92-15.65v0l0-.06a20.32,20.32,0,0,0,2.34-10.2c-.23-6.88-4-13.26-7.58-19.45-4.57-7.83-8.89-15.23-6.5-23.41a17.43,17.43,0,0,0-2.39-14.23,25,25,0,0,0-16.56-11.14,29.9,29.9,0,0,0-4.93-.4c-8.71,0-18.26,3.63-28.4,10.78-3.5,2.47-7,5.26-10.13,7.74a138,138,0,0,1-16.11,11.58c-.93.54-1.86,1.06-2.81,1.56h0l-1-13-1-13c-1.09-14.44-2.54-28.46-6.58-40.82a68.77,68.77,0,0,0-6.81-14.91,52.88,52.88,0,0,0-8-10c-11.3-11-27.76-16.62-48.93-16.62a153.66,153.66,0,0,0-25.43,2.29c-17.65,3-59.57,13.42-67.4,46.46-2.9,12.26-.21,25.26,2.16,36.73l5.31,25.71,5.31,25.75c5.63,27.26,12,58.15,5.61,87.4a86,86,0,0,1-20.17,39.29c-10.7,11.65-23.65,18.53-37.45,19.9a53.64,53.64,0,0,1-5.37.27,57.42,57.42,0,0,1-17.58-2.84c-14.94-4.78-28.46-15.12-40-27.28a185.81,185.81,0,0,1-14.12-16.75c-12.31-16.42-20.83-30.75-26.8-45.11-7.22-17.34-11.11-36-14.25-53.69-10.54-59.44-13.35-115.74-8.36-167.33,5.74-59.27,21.85-112.26,47.88-157.5,2.49-4.33,5.3-8.71,9.8-10.6a8.91,8.91,0,0,1,3.45-.67c3.62,0,7.68,2.09,8.07,6,2.23,22.86,23.57,42.17,46.58,42.17h.5c17.75-.22,33.3-10.26,48.34-20,4.22-2.72,9-5.81,13.62-8.49,11.75-6.84,30-15,50.32-15a64.34,64.34,0,0,1,23.72,4.34c10.92,4.29,20.32,11.73,29.43,18.94,8.13,6.43,16.53,13.09,26,17.5a68.76,68.76,0,0,0,29.27,6.28,80.46,80.46,0,0,0,40.43-11.13ZM1643.76,961c-3.36-.3-7.25-1.82-8.14-5.18-.94-3.52,2-6.85,4.24-9,1.2-1.16,2.41-2.3,3.63-3.44,5-4.7,10.22-9.57,13.72-15.56,4.07-7,5.79-17.23.45-24.34-4.64-6.18-4.1-16,1.25-22.8,4.57-5.81,12.36-9.7,21.38-10.68a31,31,0,0,1,3.33-.2,15,15,0,0,1,8.88,2.39c4.44,3.1,6,8.94,7,14.18,3.14,15.32,5.54,30.93,7.13,46.45l.21,2h0s0,0,0,0l-12-2-12-2a27.94,27.94,0,0,0-4.5-.48,8.42,8.42,0,0,0-4.79,1.25c-2.84,1.9-3.54,5.5-4.22,9-.17.87-.33,1.73-.54,2.56a22,22,0,0,1-3.33,7.34,25.31,25.31,0,0,1-8.82,7.85,23.3,23.3,0,0,1-11,2.88q-.93,0-1.89-.09Zm-218.17,79.56c-1.48-5.75,1.6-10.86,4.85-16.28a51.41,51.41,0,0,0,4.28-8.17c3.58-9.53-.62-21.56-9.35-26.8a44.31,44.31,0,0,0-6.77-3.1,40.78,40.78,0,0,1-7.41-3.5,20.64,20.64,0,0,1-9.2-17.11c0-4,1.43-7.35,3.82-9.21s5.68-2.23,9.31-2.41c6.37-.32,13.59-.68,20.58-.68,3.9,0,7.45.11,10.86.33,11.41.76,19.94,3,26.86,6.91a42,42,0,0,1,7.86,5.84l0,0,.08.07a51.36,51.36,0,0,1,6.61,7.64,65.39,65.39,0,0,1,7.89,15.16c3.93,10.66,5.53,21.87,6.84,32.84.15,1.2.29,2.39.43,3.59h0v0c-7.31-5-14.86-7.59-21.84-7.59-.47,0-.94,0-1.41,0-8.87.45-16.82,5.59-19.77,12.82-3.71,9.07-8.79,15-15.11,17.52a15.36,15.36,0,0,1-5.81,1.1c-5.45,0-12-2.84-13.64-9.06Zm-104.4,195.2a70.43,70.43,0,0,0,16.64-7.11l0,0,.16-.09a83.2,83.2,0,0,0,12-8.64,94,94,0,0,0,27.89-42.33c11.4-36.1,3.32-75.34-5-105.49q-1-3.52-2-7c-4.94-17.51-10-35.61-9-53.89a64.89,64.89,0,0,1,9.21-29.78c5.85-9.47,13.83-16.06,23.07-19.05l0,0v0a11.91,11.91,0,0,0-2.44,9.45,20.54,20.54,0,0,0,2.46,7.09,24.25,24.25,0,0,0,4.3,5.58,71.89,71.89,0,0,0,8.74,6.81c3.72,2.59,7.56,5.28,10.58,8.74a19.53,19.53,0,0,1,4.74,14.43,10.55,10.55,0,0,1-4.31,7.63,15.91,15.91,0,0,0-5.54,6.81,18.35,18.35,0,0,0-1.35,5.55,23.4,23.4,0,0,0,.46,6.84c2.12,10.11,9.82,18.44,18.72,20.26a28.55,28.55,0,0,0,5.78.59c15.88,0,29.68-12.71,36.32-25.31,2.11-4,6.3-6.3,11.5-6.3,6.75,0,13.7,3.8,16.92,9.23,5.73,9.66,4.28,21.55,2.13,33.9l-10.84,62.3-1.61,9.23c-3.37,19.34-7.18,41.26-2,61.72.34,1.32.71,2.61,1.1,3.86a59.14,59.14,0,0,0,17.36,26.41,43.2,43.2,0,0,0,20.93,9.7c.86.12,1.73.21,2.62.26l0,0h0c-8.84,4.91-18.86,10.47-25.78,18.81a35.26,35.26,0,0,0-7.67,16.62,25.7,25.7,0,0,0-.06,7.43,22.33,22.33,0,0,0,1.69,5.81c2.35,5.24,6.77,10,11,14.53,7.25,7.77,14.11,15.11,10,23.94-4.93,10.74-1.92,24.69,7,32.45a27.8,27.8,0,0,0,18.3,6.59,27.34,27.34,0,0,0,14.81-4.2c5.77-3.71,9.91-9.39,13.92-14.88,1.47-2,3.13-4.3,4.84-6.4,3-3.66,11-12.19,20.72-12.19a16,16,0,0,1,3.65.42,20,20,0,0,0,4.49.51c14.09,0,25.54-14.86,27.39-28.74,1.52-11.42-1-23-3.55-34.1-1-4.34-2-8.83-2.73-13.28a83.4,83.4,0,0,1-1-8.91,58.1,58.1,0,0,1,1.66-18.35c1.72-6.4,4.95-12.55,10.65-17.08a187.14,187.14,0,0,0,44-50.29,185.21,185.21,0,0,0,10.93-21.25v0l0,0a1763,1763,0,0,1,26.77,218c.38,6.46-.77,15.69-5.27,20.46a8.86,8.86,0,0,1-6.66,3l-.71,0q-.87-.06-1.74-.06c-9.48,0-18.85,5.28-25,14.12-6,8.63-7.77,19-4.62,27.67,1.78,4.89-2.5,10.16-7.5,12.24a43.36,43.36,0,0,1-7.11,2,37.91,37.91,0,0,0-8,2.46c-6,2.9-9.69,9.89-9.29,17.82s4.72,14.53,11,16.82a39.63,39.63,0,0,0,8.67,1.71c4.3.53,8.75,1.07,12.23,3.69,4,3,6.07,8.19,8.06,13.21,2.57,6.49,5,12.63,11.4,13.53a9.86,9.86,0,0,0,1.44.1c3.66,0,7.36-1.8,11.47-4l.58-.31c3.55-1.89,6.92-3.68,9.92-3.68a6.21,6.21,0,0,1,4.8,2.2c-.56,8.8-1,17.77-1.37,26.45v.32c-1.26,27.53-2.56,56-8.64,83.31a193.76,193.76,0,0,1-11.4,35.32c-8.22,18.88-19.73,36.13-35.11,49.26a103.64,103.64,0,0,1-9.89,7.53,92.33,92.33,0,0,1-50.79,15.27c-20.31,0-38.55-7-51.37-19.58-14.58-14.38-21.55-34.2-26.91-53.49A470.46,470.46,0,0,1,1513,1531.2c-.12-8-.49-15.8-2.54-22.35a28.11,28.11,0,0,0-3.64-7.63,21.54,21.54,0,0,0-4.9-5c-4.33-3.18-9.56-4.59-17-4.59-3.32,0-6.76.27-10.1.53h-.1c-3.32.26-6.76.53-10.12.53a43,43,0,0,1-8.11-.68c-5.21-1-10.11-3.28-14.89-5.51-4.42-2.06-9-4.19-13.82-5.28a21.45,21.45,0,0,0-4.74-.51c-5.85,0-11.58,2.16-15,5.64a11.07,11.07,0,0,0-3.29,8.2,465.15,465.15,0,0,1-9.18,106.91c-5.17,25.27-13.89,57.25-35.66,80.5a82.49,82.49,0,0,1-14.87,12.46,80.32,80.32,0,0,1-28.66,11.9h0l-.18,0a66.25,66.25,0,0,1-12.52,1.24,55.59,55.59,0,0,1-24.57-5.5,60.39,60.39,0,0,1-12.64-8.33l-.18-.16-.1-.08a80.08,80.08,0,0,1-6.93-6.74c-7.73-8.48-13.71-18.33-18.5-27.06a338,338,0,0,1-38-111.92c-3.44-22.41-4.64-45.49-5.8-67.83l-3.57-69-3.47-67.22c-.27-5.23.44-11.77,5.4-13.2,6.12-1.79,6.06-8.52,6-15.74a42.82,42.82,0,0,1,.72-10.33c2.76-11.26,14.84-13.58,27.63-16,11.84-2.27,24.08-4.62,28.6-14.62a16.47,16.47,0,0,0,1.4-8.32c-.52-6-4-11.92-8.56-16.78a45.83,45.83,0,0,0-6.35-5.56c-2.54-1.84-5.25-3.58-7.87-5.26-7.58-4.87-15.43-9.9-19.82-17.76-3.7-6.62-4.46-14.4-5.2-21.94-.14-1.51-.29-3-.46-4.5-.85-7.56-2.88-18.3-10.65-24.22a15.58,15.58,0,0,0-9.43-3c-4,0-8.24,1.41-10.77,4.48a9.6,9.6,0,0,0-2,4.06V1175l0,.06a326.05,326.05,0,0,1,1.4-97.49q1.37-8.22,3.12-16.35v.1l0-.1a217.36,217.36,0,0,0,57.19,142.39c19.32,20.84,39.09,32.35,58.78,34.18,1.84.17,3.69.26,5.51.26a61.47,61.47,0,0,0,16.46-2.26Zm541.63,47.32c27.47-27.61,49.16-60.9,70.17-93.14,4.66-7.13,9.47-14.51,14.26-21.7,25.87-38.83,55.43-78.3,96.24-104,6.68-4.22,13.68-8.06,20.45-11.79,6-3.28,12.17-6.68,18.09-10.3a222.25,222.25,0,0,0,52-44.17,8.89,8.89,0,0,1,6.87-2.91,12.41,12.41,0,0,1,9,3.94c4.68,5.23,4.51,12.87,4,17-3.29,25.71-28.48,41.38-50.72,55.2l-2.82,1.75a398.39,398.39,0,0,0-110.21,102.58c-12.64,17.36-24,36-35.06,54.1h0l-.06.11c-13.63,22.33-27.72,45.44-44.29,66.23-4.18,5.25-9.3,11.24-15.26,17.46a221,221,0,0,1-24.71,22.3c-21.53,16.59-48.79,30.54-80.28,31.68-1.37,0-2.82.07-4.33.07-12.28,0-24.66-1.81-36.66-3.56-6.75-1-13.67-2.37-17.63-7.36a10.8,10.8,0,0,1-.92-10.89,6.41,6.41,0,0,1,5.76-4h.13c.93,0,1.84,0,2.76,0a142.63,142.63,0,0,0,51.78-10.18c20-7.83,38.81-19.67,55.53-33.74q8.08-6.83,15.87-14.65Zm-306.2-218.22c3.35-2.87,3.73-7.73,2.64-11.26-1.18-3.8-3.88-6.28-7.22-6.64a3.58,3.58,0,0,1-3.08-2.56,8.55,8.55,0,0,1,2-8.11c3.16-3.14,7.7-4.74,13.49-4.74a40.93,40.93,0,0,1,8.65,1c3.06.68,6.52,1.7,8.92,4s3.5,6.2,1.58,9a11.39,11.39,0,0,0-1.93,7h0v.08a19.34,19.34,0,0,0,1.65,6.63,43.88,43.88,0,0,0,6.53,10.25c6.1,7.41,11.82,16,8,23.84-2.83,5.8-9.92,8-15.38,8.83-1.33.2-2.68.36-4.17.54-4.69.54-9.55,1.11-13.71,3.43a17.1,17.1,0,0,1-8.65,1.92c-2.12,0-4.29-.21-6.42-.42h-.14l-2.06-.19c-1.08-.09-2.13-.14-3.14-.14-6.19,0-10.52,1.73-12.85,5.13a2.77,2.77,0,0,1-2.4,1.21,5.3,5.3,0,0,1-4.55-3,14.05,14.05,0,0,1-.62-6.2v-.25c0-.72.07-1.47,0-2.2,0-3-1.34-6.31-4.16-6.87-5.87-1.17-9-8.15-8.21-13.93.81-6,4.6-11.17,8-15.72,2-2.76,4.34-5.88,7.68-7.43a8.92,8.92,0,0,1,3.71-.8,6.48,6.48,0,0,1,5.88,3,14.69,14.69,0,0,0,12.57,7.16,11.13,11.13,0,0,0,7.38-2.6ZM1177,1203.23c-.17-5.17-.35-11,1.52-16.39,2-5.79,6.55-10,11.51-10.79a8.32,8.32,0,0,1,1.35-.1,10.78,10.78,0,0,1,7.63,3.36,7.79,7.79,0,0,1,2.22,5.86c-.94,12.72,1.3,25.69,3.85,37.81.93,4.42,1.89,8.33,4.3,11.51s5.81,5.15,8.89,7l15.58,9.22c5.29,3.12,12.24,8.06,11.61,14.82-.56,5.89-6.72,9.57-12.22,10.49a48.32,48.32,0,0,1-8,.48h-.72a55.68,55.68,0,0,0-8.55.44,26.84,26.84,0,0,0-12.91,6.07,33.14,33.14,0,0,0-11,19,30.8,30.8,0,0,0-.49,6.52l0,.8c.18,5.18.39,11.46-3.25,14.09a6.19,6.19,0,0,1-1.76.89h0c-5.06-40-8.29-80.73-9.62-121Zm432.69,35.64a3,3,0,0,1,1.68-.52c2.33,0,4.74,2.65,4.87,5.35a17,17,0,0,1-1.22,6,26.61,26.61,0,0,0-1,3.53c-.8,4.07.22,8.29,1.12,12l7.84,32.36.25,1c1.27,5.24,2.37,11.19-.66,15.53-1.59,2.3-4.26,4-8.16,5.24a73.15,73.15,0,0,1-14.38,2.5c-3,.31-6.21.65-9.29,1.23-5.58,1.06-15.51,4.09-19.32,12.54-2.85,6.36-6.4,13.57-12.34,18.56a22.12,22.12,0,0,1-13.89,5.33,15.12,15.12,0,0,1-7-1.63,13.36,13.36,0,0,1-6.83-9.81,10.25,10.25,0,0,1,2.61-9c6.8-6.77.2-18.59-2-22a139.31,139.31,0,0,0-13.45-17.93l-.37-.41c-4-4.45-8.43-9.49-8.15-15.48.38-8,8.71-12.88,15.93-16.25l18.84-8.79,3.26-1.52c4.37-2,9.32-4.36,14.52-4.36h.5c.73,0,1.46,0,2.2,0a80.69,80.69,0,0,0,44.45-13.49Zm52.59,229.32a5.67,5.67,0,0,1-3-3.8,8.23,8.23,0,0,1,1.18-6.68c1.92-2.74,5.3-4.59,10.33-5.66.94-.21,1.88-.38,2.82-.55l.26,0a33.09,33.09,0,0,0,8.59-2.37,16.65,16.65,0,0,0,9-12c.71-4.17-.21-8.49-1.11-12.7-1-4.9-2.14-10-.49-14.71,3.34-9.63,15.31-12.35,25.36-13.65a14,14,0,0,1,1.73-.11c2.42,0,4.4.61,5.42,1.66a2.85,2.85,0,0,1,.83,2.14c-.71,26.83-.58,54.08.37,81,.09,2.71.2,5.78-1.14,8.34-1.83,3.53-5.69,5.33-11.46,5.33a41,41,0,0,1-7.74-.85c-4.07-3-6.78-7.49-9.41-11.84-1-1.57-1.94-3.19-3-4.74-2.09-3.09-7.79-10.3-15.31-10.3a11.63,11.63,0,0,0-1.55.1,25.28,25.28,0,0,0-3.84.94h0l-.09,0a18.46,18.46,0,0,1-5,1,6.14,6.14,0,0,1-2.75-.6Z" transform="translate(-364.54 -254.44)"/><path class="cls-1" d="M1417,359.32a22,22,0,0,0-14,9.78,14.07,14.07,0,0,0-1.81,11.35c1.71,5.91-4,11.49-10.58,13.94-1.1.41-2.27.81-3.4,1.18l-.18.06c-5,1.67-10.17,3.41-13,7.71a12,12,0,0,0-1.5,9.36,18.56,18.56,0,0,0,8.12,11.38c7.15,4.42,16.24,4.56,23.55,4.67,1.35,0,2.72,0,4.08,0,6,0,12.29-.33,18.15-2.72,8.74-3.57,16-11.93,20-22.91,3.59-9.9,4.34-20.54,5.07-30.83a8.79,8.79,0,0,0-.52-4.64c-1-1.84-3-2.71-5.16-3.5-6.64-2.42-14.9-5.44-23-5.44a30.33,30.33,0,0,0-5.89.57Zm-32.15,54.1a4.46,4.46,0,0,1,.06-3.71,8.6,8.6,0,0,1,4.86-4.4,25.87,25.87,0,0,1,5.25-1.12,26.53,26.53,0,0,0,5.14-1.07c7.3-2.59,11.42-10.76,12.6-25,.21-2.38.59-5,2.53-6.35a5.48,5.48,0,0,1,3.19-.82,20.71,20.71,0,0,1,2.23.16l6.31.74,6.46.74a4.17,4.17,0,0,1,2,.58c1.19.84,1.16,2.59,1,4l-1.71,16.08c-.88,8.29-2.9,18.19-10.76,21.14a13.65,13.65,0,0,1-4.86.82,40.06,40.06,0,0,1-7.57-1,40.67,40.67,0,0,0-7.56-1,15.61,15.61,0,0,0-3.21.31,28.2,28.2,0,0,0-4.14,1.36,24.37,24.37,0,0,1-4.19,1.35,8.48,8.48,0,0,1-1.83.19c-2.77,0-4.93-1.15-5.77-3.07Z" transform="translate(-364.54 -254.44)"/><path class="cls-1" d="M1377.91,602.14c-6.19,13.25-6.73,30-1.49,45.89,4.41,13.38,12.54,26.3,24.85,39.5,5.22,5.6,11.63,11.34,19.52,11.54h.42c9.8,0,17.4-8.71,22.26-15.27a206,206,0,0,0,25.43-45.22c2.73-6.74,5.15-14.53,2.37-21.3-3.92-9.52-15.6-12.46-26.49-14.06l-23-3.41-23.27-3.45a48.22,48.22,0,0,0-7-.56c-7.09,0-11.68,2.13-13.65,6.33ZM1412.76,681a101.2,101.2,0,0,1-22.28-29.43c-5.13-10.22-6.78-18.83-5-26.3,2-8.51,9.49-15.17,17.14-15.17a13.63,13.63,0,0,1,2.56.25l39.83,7.83,7.82,1.54c3.89.77,6.26,4.81,6.59,8.41.34,3.87-1,7.59-2.46,11.07a156.54,156.54,0,0,1-23.6,39.67c-2.83,3.48-6.33,7-10.75,7.11h-.13c-3.7,0-7-2.53-9.67-5Z" transform="translate(-364.54 -254.44)"/><path class="cls-1" d="M1448.67,793.28c-11.16,5.51-17.74,18.67-15,30,1,4.21,3.21,8.06,5.32,11.83a62.16,62.16,0,0,1,4.46,9,31.69,31.69,0,0,1-3.84,29,15.78,15.78,0,0,0-2.11,13.09,21.28,21.28,0,0,0,10.55,13.64,25.91,25.91,0,0,0,11.87,2.71,39.77,39.77,0,0,0,18.6-5.1c7.56-4.16,14-10.15,20.3-16,1.45-1.35,2.9-2.69,4.37-4,7.37-6.66,16.35-13.8,27-16.23,1.52-.34,3.11-.61,4.74-.89,5.22-.88,10.61-1.79,14.06-5.68,4.4-5,3.42-12.79.18-18-3.46-5.53-9.21-9.33-14.34-12.72-12.76-8.43-26-17.15-41-21.44-3-.84-5.59-2.67-8.12-4.45l-.2-.13c-.78-.55-1.56-1.1-2.36-1.62a38.1,38.1,0,0,0-20.48-6.12,31.47,31.47,0,0,0-14,3.15Zm5,94.77a14.08,14.08,0,0,1-2.62-11.12,40.85,40.85,0,0,1,3.53-9.35,46.87,46.87,0,0,0,3.24-8.24c3-12.18-4.56-24.11-9.36-30.13a17.61,17.61,0,0,1,.1-21.38,17.43,17.43,0,0,1,13.5-6.19,16.55,16.55,0,0,1,7.39,1.7l32.19,16.15,32.29,16.2a5.5,5.5,0,0,1,3,4.73,10.2,10.2,0,0,1-4,8.58c-3,2.16-6.81,2.92-10.47,3.66-1.7.34-3.23.65-4.72,1.06-10.31,2.89-18.51,10.84-26.45,18.53-9.71,9.41-18.88,18.3-31.61,18.71h-.23a7.32,7.32,0,0,1-5.73-2.91Z" transform="translate(-364.54 -254.44)"/><path class="cls-1" d="M1257.14,904.34l-10.88.95-10.89.94c-7.93.69-14.91,1.63-20.13,6-7.66,6.46-7.94,17.69-7.42,23.81.28,3.35.84,6.74,1.41,10.1.85,5.1,1.73,10.38,1.56,15.63s-1.39,10.41-2.56,15.43h0l0,.13a96.12,96.12,0,0,0-2.39,12.88c-.87,9.54,2.28,20.8,11.3,24.44,3.06,1.23,6.39,1.41,9.6,1.58l9,.48,9,.49c2.87.16,5.25.27,7.7.27a37.69,37.69,0,0,0,13.55-2.06c12.16-4.6,19.41-19.52,15.52-31.93-.51-1.61-1.17-3.2-1.82-4.74-1.43-3.41-2.92-6.94-2.62-10.64.57-7.26,7.44-12.06,13.11-14.81,1.22-.59,2.46-1.15,3.72-1.72,5.06-2.29,10.3-4.66,13.76-9,5.3-6.63,5.1-17.47-.45-25.23-4.79-6.68-12.94-11.32-23-13a64.47,64.47,0,0,0-11.33-.89c-5.32,0-10.6.46-15.71.91Zm-39.55,88.56c-1-6,.89-12.11,3-17.82l.34-.94c2-5.4,4-11,3.72-16.74-.21-4.19-1.65-8.22-3-12.11l-.07-.18c-.57-1.61-1.17-3.29-1.66-4.94-1.25-4.15-2.7-11.9,1.52-17.22,3.82-4.81,10.51-5.75,17-6.31l10.12-.87,9.77-.83c4.22-.36,8.72-.72,13.15-.72,8.88,0,15.63,1.47,21.24,4.62a14.11,14.11,0,0,1,5,4.17c3.62,5.24,1,12.49-3.22,16.66-3.43,3.36-7.87,5.46-12.16,7.49-1.23.59-2.46,1.17-3.67,1.78-7.08,3.6-11.27,7.7-12.82,12.52-1.86,5.84.31,12.11,2.41,18.18,2.4,7,4.66,13.52,1.37,19.51-3.87,7.05-12.89,7.81-16.58,7.81-.69,0-1.38,0-2-.07a85.05,85.05,0,0,1-8.78-1.24,64.84,64.84,0,0,0-11.05-1.28l-1.31,0h-.4c-6.11,0-10.79-5.85-11.78-11.51Z" transform="translate(-364.54 -254.44)"/><path class="cls-1" d="M1303.25,1352c-8.11,6.14-11.8,18.29-9,29.53.49,2,1.15,3.9,1.81,5.85,1.26,3.66,2.56,7.46,2.61,11.39.09,9.06-6.52,16.75-12.07,21.61-2,1.75-4.15,3.43-6.21,5.06l-.24.18c-4.46,3.5-9.08,7.12-12.63,11.64a27,27,0,0,0-5.44,12,19.12,19.12,0,0,0-.15,5.06h0v.1a15.17,15.17,0,0,0,2.25,6.45c3.53,5.53,10.1,8,17.11,10.16l25.64,8c4.4,1.38,9,2.8,13.66,3.15.75,0,1.55.08,2.37.08,6.63,0,13.33-2,19.23-3.73,5.41-1.6,12.14-3.58,16.33-8.44,3.8-4.4,5.07-10.53,6.3-16.45,1.54-7.46,3-14.51,9.12-18.21a19.7,19.7,0,0,0,8.72-12.62,25.56,25.56,0,0,0-3.1-19.15,32.09,32.09,0,0,0-14.07-11.79,41.23,41.23,0,0,0-6.37-2.28l-.14,0h0a47.34,47.34,0,0,0-10.21-1.53c-6.32-.27-10.61-6.88-12.08-13.31-.43-1.93-.74-4-1-5.82-.67-4.4-1.37-9-3.7-12.79-3.13-5.15-9.14-8.23-16.08-8.23a21,21,0,0,0-12.62,4.06ZM1306,1465.1l-9.28-2.89-9.29-2.9c-5.39-1.68-10.61-3.88-12.29-8.55-1.52-4.17.52-8.66,2.93-11.46a38.33,38.33,0,0,1,7.58-6.22l2.1-1.46a73,73,0,0,0,17-17c4.44-6.25,6.53-11.58,6.57-16.76,0-4.54-1.57-8.92-3.13-13.17-.22-.6-.44-1.2-.65-1.8-1.76-4.92-3.22-10.16-1.91-15.2,1.22-4.72,5.48-8.43,9.7-8.44a7.35,7.35,0,0,1,1.68.2c4.65,1.09,7.16,6.08,8,10.4a52.11,52.11,0,0,1,.62,5.66,37,37,0,0,0,1.22,8c3.42,11.09,15.61,16.08,28.27,19.83,3.75,1.11,8,2.37,11.35,5,3,2.37,5.6,6.67,4.6,10.9-.9,3.86-4.11,6.17-7.52,8.62-2.41,1.74-4.91,3.54-6.51,5.94-2.36,3.54-2.52,7.93-2.67,12.18a36,36,0,0,1-1.06,8.81c-2.69,9.16-12.36,14.06-20.75,14.86-1.13.11-2.25.16-3.41.16-8,0-16-2.51-23.09-4.73Z" transform="translate(-364.54 -254.44)"/><path class="cls-1" d="M1591.91,1522a16.43,16.43,0,0,0-4.89,19.59,32.5,32.5,0,0,0,2.48,4.13l0,.09a25.37,25.37,0,0,1,2.92,5.09c1.36,3.47.61,8.07-2.67,9.4-16.07,6.55-26.38,25.09-23.45,42.21,1.17,6.89,4.25,12.57,8.67,16,3.75,2.91,8.57,4.38,14.33,4.38a42.13,42.13,0,0,0,11.71-1.79c3.53-1,7-2.36,10.34-3.66a86.71,86.71,0,0,1,15.47-4.88,91.76,91.76,0,0,1,10.34-1.1c7.22-.5,14.68-1,20.66-5.09,6.92-4.72,10.83-14,10-23.76-.69-7.78-4.11-15.81-10.44-24.56-3-4.09-2.48-9.4-2-14.55.15-1.6.29-3.15.33-4.63a16.15,16.15,0,0,0-4-11.13,6.86,6.86,0,0,0-4.94-2.31,6.09,6.09,0,0,0-1.57.2,23.12,23.12,0,0,1-5.67.67c-6.09,0-12.22-2.09-18.14-4.12l-.58-.19-2.44-.83a46.82,46.82,0,0,0-14.49-2.72,19.43,19.43,0,0,0-12,3.58Zm-4.37,86.17a13,13,0,0,1-7.39-7.06,18.81,18.81,0,0,1-.54-14.08c2.5-6.66,8.24-12.29,17.54-17.23l.24-.13c4.84-2.57,10.33-5.49,11.06-10.81.62-4.41-2.36-8.17-5.26-11.83l-.54-.68-.31-.39c-3.13-4-5.41-9.67-2.42-13.44a7.13,7.13,0,0,1,5.88-2.53,21.19,21.19,0,0,1,8.75,2.42c5.4,2.7,11.1,5.19,16.17,5.19a10.44,10.44,0,0,0,7.75-3,2.17,2.17,0,0,1,1.56-.62,3.65,3.65,0,0,1,3.13,2.08c.73,1.61.48,3.44.25,5.2l-.06.46a42.91,42.91,0,0,0,11,34.47,9,9,0,0,1,2.26,6.81,13.27,13.27,0,0,1-4.48,9c-4.89,4.16-11.93,4.86-16.81,5-1.12,0-2.25.05-3.38.06h-.48c-4.61,0-9.38.09-13.87,1.46a57.12,57.12,0,0,0-10.43,4.87c-5.15,2.84-10,5.52-15.11,5.52a13.45,13.45,0,0,1-4.53-.79Z" transform="translate(-364.54 -254.44)"/><path class="cls-2" d="M1605.1,728h0c-7.48,24.32-23.1,45-42.86,56.69a80.46,80.46,0,0,1-40.43,11.13,68.76,68.76,0,0,1-29.27-6.28c-9.48-4.41-17.89-11.06-26-17.49-9.11-7.22-18.51-14.66-29.43-19a64.34,64.34,0,0,0-23.72-4.34c-20.29,0-38.57,8.15-50.33,15-4.61,2.68-9.39,5.77-13.61,8.49-15,9.72-30.59,19.76-48.34,20h-.5c-23,0-44.35-19.31-46.59-42.17-.38-3.87-4.44-6-8.06-6a9.1,9.1,0,0,0-3.45.66c-4.51,1.88-7.31,6.27-9.81,10.6-26,45.24-42.13,98.23-47.86,157.5-5,51.6-2.18,107.9,8.36,167.33,3.13,17.64,7,36.36,14.23,53.69,6,14.36,14.5,28.69,26.81,45.1,16,21.39,41.52,46.88,71.74,46.88a53.64,53.64,0,0,0,5.37-.27c13.8-1.37,26.75-8.25,37.44-19.9A86,86,0,0,0,1369,1166.4c6.39-29.24,0-60.14-5.61-87.4l-5.32-25.75-5.3-25.71c-2.37-11.47-5.06-24.47-2.15-36.73,7.82-33,49.74-43.5,67.39-46.46a154.82,154.82,0,0,1,25.43-2.3c21.17,0,37.63,5.6,48.93,16.63,16.41,16,19.48,40.23,21.4,65.73l1,13,1,13c6.85-3.54,13-8.42,18.94-13.14,3.12-2.48,6.63-5.27,10.13-7.74,10.14-7.15,19.69-10.78,28.4-10.78a30,30,0,0,1,4.93.4,25,25,0,0,1,16.56,11.14,17.44,17.44,0,0,1,2.39,14.24c-2.39,8.17,1.93,15.57,6.5,23.4,3.62,6.19,7.35,12.57,7.58,19.45.53,15.61-16.38,25.82-32.31,28.7-3.74.68-7.64,1.17-11.42,1.65-12,1.51-24.26,3.07-33.66,10.46a9.84,9.84,0,0,1-6.14,2,15.54,15.54,0,0,1-12.34-6.87c-4.07-6.15-4.36-14.21-4.59-20.69a269.81,269.81,0,0,0-13.93,88.19c.17,19.36,14.74,38,35.43,45.31a70.1,70.1,0,0,0,23.46,3.85,101.37,101.37,0,0,0,36.43-7.29c23.7-9.15,44.81-24.93,62.74-46.9,16.23-19.87,29.18-44.29,37.46-70.61,16.14-51.34,15.86-106.38,14.19-158.35a16,16,0,0,1-4.12.54c-8.84,0-17.18-7.4-17.84-15.84-7.46,13.15-17,27.15-31.63,31.32a21.92,21.92,0,0,1-5.95.8c-7.85,0-16.16-4-20.67-10a15.52,15.52,0,0,1-2.89-13.9c1.84-6.41,7.24-10.85,12.46-15.13,1.54-1.27,3-2.51,4.44-3.77,9.12-8.24,10-17.59,6.21-22.58-7.46-9.73-6.47-25.45,2.26-35.78,7.42-8.79,19.92-14,33.43-14l1.34,0a2.93,2.93,0,0,0,2.55-1.26c1.38-1.91,1.22-5.61.38-8.13A276.29,276.29,0,0,0,1605.12,728ZM1460,902.46a25.91,25.91,0,0,1-11.87-2.71,21.29,21.29,0,0,1-10.55-13.63,15.79,15.79,0,0,1,2.11-13.1,31.69,31.69,0,0,0,3.84-29,62.16,62.16,0,0,0-4.46-9c-2.12-3.76-4.29-7.62-5.32-11.83-2.77-11.29,3.81-24.45,15-30a31.47,31.47,0,0,1,14-3.15,38.18,38.18,0,0,1,20.48,6.12c.79.52,1.58,1.07,2.36,1.62l.19.13c2.54,1.78,5.14,3.61,8.13,4.46,15,4.28,28.23,13,41,21.43,5.13,3.39,10.87,7.19,14.34,12.73,3.24,5.18,4.22,13-.18,18-3.45,3.89-8.85,4.8-14.06,5.68-1.63.28-3.23.55-4.74.89-10.63,2.43-19.6,9.57-27,16.24-1.47,1.32-2.92,2.66-4.37,4-6.27,5.8-12.74,11.79-20.31,16a39.5,39.5,0,0,1-18.59,5.1Zm-251.73,74.77c1.18-5,2.4-10.21,2.57-15.43s-.71-10.53-1.57-15.63c-.56-3.36-1.12-6.75-1.4-10.1-.52-6.12-.24-17.35,7.41-23.81,5.23-4.4,12.21-5.33,20.14-6l10.89-1,10.88-.94c5.11-.45,10.39-.91,15.71-.91a65.53,65.53,0,0,1,11.33.89c10,1.73,18.17,6.37,23,13,5.55,7.76,5.75,18.6.45,25.23-3.46,4.33-8.7,6.7-13.76,9-1.26.57-2.5,1.13-3.72,1.72-5.67,2.75-12.54,7.55-13.11,14.81-.3,3.7,1.18,7.23,2.62,10.64.65,1.54,1.31,3.13,1.82,4.74,3.89,12.41-3.36,27.33-15.52,31.93a37.7,37.7,0,0,1-13.56,2.07c-2.44,0-4.82-.12-7.69-.28l-9-.48-9-.49c-3.22-.17-6.54-.35-9.6-1.58-9-3.64-12.17-14.89-11.3-24.43a96,96,0,0,1,2.39-12.89l0-.12Z" transform="translate(-364.54 -254.44)"/><path class="cls-2" d="M1394.27,962.3h0c-9.24,3-17.23,9.58-23.07,19.05a65,65,0,0,0-9.21,29.78c-1.09,18.28,4,36.38,8.94,53.89q1,3.53,2,7c8.3,30.15,16.38,69.39,5,105.5A94,94,0,0,1,1350,1219.9c-13.74,11.86-29.39,18.12-45.25,18.12-1.82,0-3.67-.08-5.5-.26-19.7-1.83-39.47-13.34-58.79-34.18a217.36,217.36,0,0,1-57.19-142.39A325.84,325.84,0,0,0,1178.7,1175c1.31-5.9,7.34-8.55,12.74-8.55a15.58,15.58,0,0,1,9.43,3c7.77,5.92,9.8,16.66,10.65,24.22.17,1.49.32,3,.46,4.5.74,7.54,1.5,15.33,5.2,21.94,4.39,7.86,12.23,12.89,19.82,17.76,2.62,1.68,5.33,3.42,7.87,5.26,10.26,7.44,18.42,19.8,13.51,30.66-4.52,10-16.76,12.35-28.6,14.62-12.79,2.45-24.87,4.77-27.64,16a43.38,43.38,0,0,0-.71,10.33c.06,7.22.12,14-6,15.73-5,1.44-5.67,8-5.4,13.21l3.47,67.22,3.57,69c1.16,22.34,2.36,45.42,5.8,67.84a338,338,0,0,0,38,111.91c8.27,15.07,20.1,33.51,38.35,42.38a55.72,55.72,0,0,0,24.57,5.49c19.89,0,41.45-9.83,56.27-25.64,21.78-23.25,30.49-55.24,35.66-80.51a466.08,466.08,0,0,0,9.18-106.9,11.07,11.07,0,0,1,3.29-8.2c3.38-3.48,9.11-5.64,15-5.64a21.45,21.45,0,0,1,4.74.51c4.83,1.09,9.4,3.22,13.82,5.28,4.78,2.23,9.68,4.52,14.89,5.51a43,43,0,0,0,8.11.68c3.36,0,6.8-.27,10.12-.53h.1c3.34-.26,6.78-.54,10.1-.54,7.39,0,12.62,1.42,17,4.6,9.86,7.23,10.87,20.67,11.08,35A470.91,470.91,0,0,0,1530.15,1650c5.36,19.28,12.33,39.11,26.91,53.49,12.82,12.63,31.06,19.58,51.37,19.58a92.22,92.22,0,0,0,50.79-15.27c27.17-18.18,47.2-50.89,56.39-92.11,6.09-27.3,7.39-55.77,8.65-83.31V1532c.4-8.68.81-17.65,1.37-26.45a6.19,6.19,0,0,0-4.8-2.19c-3,0-6.37,1.78-9.93,3.67l-.57.31c-4.11,2.17-7.81,4-11.47,4a9.86,9.86,0,0,1-1.44-.1c-6.39-.9-8.82-7-11.4-13.53-2-5-4-10.19-8.06-13.21-3.48-2.61-7.93-3.16-12.24-3.69a39.66,39.66,0,0,1-8.66-1.71c-6.3-2.29-10.62-8.89-11-16.82s3.25-14.92,9.29-17.82a38.09,38.09,0,0,1,8-2.46,43.36,43.36,0,0,0,7.11-2c5-2.08,9.28-7.35,7.51-12.24-3.16-8.69-1.44-19,4.61-27.67,6.19-8.84,15.56-14.12,25-14.12q.87,0,1.74.06c.24,0,.47,0,.71,0a8.85,8.85,0,0,0,6.66-3c4.5-4.77,5.65-14,5.27-20.46a1763,1763,0,0,0-26.77-218,187.29,187.29,0,0,1-55,71.54c-15,11.89-12.9,35-11.32,44.34.76,4.45,1.76,8.94,2.73,13.28,2.49,11.15,5.07,22.68,3.55,34.1-1.85,13.88-13.3,28.75-27.39,28.75a20,20,0,0,1-4.49-.52,16,16,0,0,0-3.65-.42c-9.7,0-17.72,8.53-20.72,12.19-1.71,2.1-3.37,4.39-4.84,6.4-4,5.49-8.15,11.17-13.92,14.88a27.34,27.34,0,0,1-14.81,4.2,27.82,27.82,0,0,1-18.3-6.59c-8.93-7.76-11.94-21.71-7-32.45,4.06-8.83-2.79-16.17-10-23.94-4.26-4.56-8.67-9.28-11-14.53-4.85-10.84.22-22.86,6-29.86,6.92-8.34,16.94-13.9,25.78-18.81-15.56-1-35.35-14-42-40.25-5.18-20.46-1.37-42.38,2-61.72l1.61-9.23,10.84-62.3c2.14-12.35,3.6-24.24-2.13-33.9-3.22-5.43-10.17-9.22-16.92-9.23-5.2,0-9.39,2.3-11.5,6.3-6.64,12.6-20.44,25.31-36.32,25.31a28.48,28.48,0,0,1-5.78-.59c-8.9-1.82-16.6-10.15-18.72-20.26-1.7-8.11.64-15.11,6.43-19.2a10.51,10.51,0,0,0,4.31-7.63,19.53,19.53,0,0,0-4.74-14.42c-3-3.47-6.86-6.16-10.58-8.75a70.8,70.8,0,0,1-8.75-6.81c-6.2-6-9.51-15.88-4.31-22.12v0ZM1323,1482.36c-.82,0-1.62,0-2.37-.08-4.71-.35-9.26-1.77-13.65-3.15l-25.65-8c-7-2.2-13.58-4.63-17.11-10.16-4.72-7.43-1.73-17.24,3.33-23.68,3.55-4.52,8.17-8.13,12.63-11.63l.24-.19c2.07-1.62,4.21-3.3,6.21-5,5.56-4.86,12.16-12.56,12.07-21.61,0-3.93-1.35-7.73-2.6-11.39-.67-2-1.33-3.9-1.82-5.85-2.81-11.24.88-23.39,9-29.53a21,21,0,0,1,12.62-4.06c6.94,0,13,3.08,16.08,8.23,2.33,3.83,3,8.38,3.7,12.79.28,1.83.59,3.88,1,5.81,1.46,6.44,5.76,13,12.07,13.32,13.43.56,25,6.41,30.83,15.65a25.5,25.5,0,0,1,3.1,19.15,19.7,19.7,0,0,1-8.72,12.62c-6.12,3.7-7.58,10.75-9.12,18.21-1.23,5.92-2.5,12-6.3,16.45-4.19,4.86-10.92,6.84-16.32,8.44-5.91,1.75-12.6,3.73-19.24,3.73Zm266.37,140.55c-5.76,0-10.58-1.47-14.33-4.38-4.42-3.42-7.5-9.09-8.67-16-2.93-17.12,7.38-35.66,23.46-42.21,3.27-1.33,4-5.93,2.67-9.4a26.75,26.75,0,0,0-2.92-5.1l-.06-.08a32.5,32.5,0,0,1-2.48-4.13,16.45,16.45,0,0,1,4.89-19.59,19.43,19.43,0,0,1,12-3.58,46.72,46.72,0,0,1,14.49,2.72l2.45.83.57.19c5.92,2,12,4.12,18.14,4.12a22.65,22.65,0,0,0,5.67-.68,6.6,6.6,0,0,1,1.57-.19,6.88,6.88,0,0,1,5,2.31,16.18,16.18,0,0,1,4,11.13c0,1.47-.19,3-.33,4.63-.47,5.15-.95,10.46,2,14.55,6.33,8.75,9.75,16.78,10.44,24.56.88,9.71-3,19-10,23.76-6,4.06-13.44,4.58-20.65,5.09a91.92,91.92,0,0,0-10.35,1.09,87.82,87.82,0,0,0-15.47,4.89c-3.35,1.29-6.81,2.63-10.34,3.66a42.13,42.13,0,0,1-11.71,1.79Z" transform="translate(-364.54 -254.44)"/><path class="cls-2" d="M1455.88,264.69a317.3,317.3,0,0,0-103.32,17.15c-4.06,1.39-8.55,3.2-10.54,7.09a7.21,7.21,0,0,0,.43,6.81,4.71,4.71,0,0,0,3.93,2.49,4.34,4.34,0,0,0,.71-.06,28.17,28.17,0,0,1,4.9-.42c9,0,19.88,4.36,23.69,14.09,1.91,4.91,1,11-2.36,16-3,4.35-7.37,6.95-11.77,6.95a11.74,11.74,0,0,1-2.43-.26A25.3,25.3,0,0,0,1354,334c-10.74,0-22.62,7.17-31.77,19.19-3.2,4.21-6.09,8.77-8.89,13.19-4.9,7.73-10,15.71-16.79,22s-16,10-24.35,10a21.81,21.81,0,0,1-15.07-5.51c-4.5-4.13-10.49-6.31-17.35-6.31a35.86,35.86,0,0,0-22.3,8c-10.83,8.86-17.74,23.84-18.94,41.1-1.09,15.58,2.08,31.09,5.15,46.08l23.09,112.71,23.08,112.7c3.16,15.43,6.74,32.91,15.73,47.2,9.4,14.93,24.22,24.2,38.7,24.2.8,0,1.6,0,2.39-.08,11.73-.82,22.08-7.38,32.08-13.72,39.91-25.29,60.28-28.7,74.94-28.7a67.64,67.64,0,0,1,17.2,2.19c15,4,28.06,13.38,40.72,22.47,15,10.75,30.44,21.86,48.79,23.61,1.62.15,3.25.23,4.87.23,13.69,0,27.36-5.48,39.51-15.85A91.89,91.89,0,0,0,1590.37,732c9-23.42,10.15-49.1,11.3-74,.3-6.65.59-12.64,1-18.65A468.14,468.14,0,0,1,1622,533.75c1.91-6.23,4-12.51,6-18.59,5.28-16.1,10.72-32.71,13.65-49.63A178.12,178.12,0,0,0,1626,357.45a12.65,12.65,0,0,1-6.24,1.63,12.48,12.48,0,0,1-6.43-1.75c-2.35,7.49-10.61,12.92-19.63,12.92a21.11,21.11,0,0,1-4.07-.39c-8.7-1.7-16.77-8.2-22.14-17.81-1.37-2.47-4.27-3.94-7.74-3.94a12.32,12.32,0,0,0-4.87,1c-3.5,1.51-6.3,4.22-9,6.85l-.23.22c-.6.58-1.19,1.15-1.8,1.71-7.35,6.84-15.55,10.6-23.08,10.6a22.56,22.56,0,0,1-3.11-.21,19.46,19.46,0,0,1-13.38-8.8,13.94,13.94,0,0,1-1.87-11.74c1.28-4,4.35-7.19,7.31-10.24,3.17-3.27,6.43-6.63,7.48-11,1.43-6-1.42-11.35-4.44-17.08a55.75,55.75,0,0,1-4.07-8.92c-3.4-10.8,2-23.84,12-29.07a314.62,314.62,0,0,0-64.85-6.72Zm-47.62,164.1c-1.36,0-2.73,0-4.08,0-7.31-.11-16.4-.25-23.55-4.67a18.56,18.56,0,0,1-8.12-11.38,11.89,11.89,0,0,1,1.5-9.35c2.85-4.32,8-6,13-7.71l.18-.06c1.13-.38,2.3-.78,3.4-1.19,6.55-2.45,12.28-8,10.58-13.94A14.07,14.07,0,0,1,1403,369.1a22,22,0,0,1,14-9.78,29.67,29.67,0,0,1,5.9-.57c8.06,0,16.32,3,23,5.44,2.18.8,4.21,1.66,5.16,3.5a8.79,8.79,0,0,1,.52,4.64c-.73,10.29-1.48,20.93-5.08,30.83-4,11-11.3,19.34-20,22.91-5.85,2.39-12.17,2.72-18.14,2.72Zm13,270.29h-.42c-7.89-.2-14.3-5.94-19.52-11.54-12.31-13.2-20.44-26.12-24.85-39.5-5.24-15.92-4.7-32.65,1.49-45.89,2-4.2,6.56-6.33,13.65-6.33a48.22,48.22,0,0,1,7,.56l23.27,3.45,23,3.4c10.9,1.61,22.57,4.55,26.5,14.07,2.78,6.77.36,14.56-2.37,21.3a206.18,206.18,0,0,1-25.43,45.22c-4.86,6.55-12.46,15.27-22.26,15.27Z" transform="translate(-364.54 -254.44)"/><path class="cls-2" d="M1639.25,300.49a23.68,23.68,0,0,0-17.51,8.16,14.68,14.68,0,0,0-3.53,12.16c.91,5,4.34,9,7.65,12.86.82,1,1.63,1.91,2.4,2.87,10.31,12.81,14.37,29.24,18.29,45.13,3.29,13.29,6.68,27,13.69,38.76,9.43,15.81,9.52,35,9.61,53.6.1,18.3.19,37.17,9.12,52.88,1.57,2.77,4.11,6.65,8.1,8.34a11.73,11.73,0,0,0,4.6.92c5.92,0,11.86-4.09,16.37-7.65a787.35,787.35,0,0,0,87.72-81c7.57-8.14,14.59-16.29,17.31-26.4,3.52-13-2.53-24-10-27.69a994.34,994.34,0,0,1-132.34-78.86c-9.46-6.68-19.24-13.6-30.66-14.06l-.8,0Z" transform="translate(-364.54 -254.44)"/><path class="cls-2" d="M1238.54,304.25a5.8,5.8,0,0,0-4.3,1.86,358.36,358.36,0,0,1-114,80.27l-1.3.57c-20.91,9.23-44.61,19.69-49.46,41.59-3.4,15.43,4.31,30.79,12.31,43.77a345.12,345.12,0,0,0,74.67,85.63c2.76,2.27,5.74,4.48,9.16,4.48h.31c7.76-.31,10.12-11.13,10.66-14.44,2.84-17.55,2.06-35.64,1.31-53.14-.55-12.6-1.11-25.6-.32-38.43a183.75,183.75,0,0,1,58.57-122.86l.5-.46c5.27-4.84,11.24-10.32,11.87-17.54a10.43,10.43,0,0,0-3-7.78,10,10,0,0,0-7-3.52Z" transform="translate(-364.54 -254.44)"/><path class="cls-3" d="M1539.16,279.71c-4.79,0-9.79,1.82-14.1,3.52a15.85,15.85,0,0,0-5.75,3.28c-3.22,3.35-2.76,8.92-.88,12.95a43.48,43.48,0,0,0,4.07,6.55,57.4,57.4,0,0,1,3.32,5.07c6.11,11,3.43,26.13-6.11,34.37a4.73,4.73,0,0,0-1.35,4.76,6.91,6.91,0,0,0,4.56,5.16,8.24,8.24,0,0,0,2.27.32c3,0,6.34-1.62,9.11-4.43a47,47,0,0,0,4-4.92,47.44,47.44,0,0,1,4-4.88,24.17,24.17,0,0,1,17.2-7.11,22.86,22.86,0,0,1,5.23.6,24.25,24.25,0,0,1,17.2,15.81c1.16,3.57,4.71,5.71,9.5,5.71a16.79,16.79,0,0,0,8.88-2.55,51.16,51.16,0,0,0,7.24-6.05c2.93-2.76,5.92-5.59,9.55-7.35C1602.05,312,1572.5,295,1546,281.27a14.43,14.43,0,0,0-6.82-1.56Z" transform="translate(-364.54 -254.44)"/><path class="cls-3" d="M1320.16,292.92a14,14,0,0,0-5,1.24c-45.67,17.88-80,46.92-96.71,81.76-.88,1.83-1.77,4-1.17,6a3.59,3.59,0,0,0,3.25,2.45,2.07,2.07,0,0,0,1.57-.67,27.7,27.7,0,0,1,20.32-8.38,27.19,27.19,0,0,1,18.27,6.66,18.52,18.52,0,0,0,12.63,4.52,29.31,29.31,0,0,0,18.11-6.75c7.31-6.07,12-14.65,16.54-22.95l.17-.31c.77-1.4,1.53-2.79,2.31-4.17,5-8.81,12-19.45,22.9-23.59a62.15,62.15,0,0,1,11.48-2.71c7.49-1.28,14.58-2.49,19-8.15a23.17,23.17,0,0,0-19-10.84h-.39c-1.58,0-3.16.15-4.69.29s-3.08.3-4.67.3a17.6,17.6,0,0,1-3.56-.33,10.07,10.07,0,0,1-6.51-4.71,5.5,5.5,0,0,1-.4-4.72,3,3,0,0,0-.21-2.5,4.66,4.66,0,0,0-3-2.26,6.55,6.55,0,0,0-1.34-.14Z" transform="translate(-364.54 -254.44)"/><path class="cls-3" d="M1418.48,371a5.51,5.51,0,0,0-3.19.81c-1.94,1.32-2.32,4-2.53,6.35-1.18,14.21-5.3,22.38-12.6,25a26.53,26.53,0,0,1-5.14,1.07,25.87,25.87,0,0,0-5.25,1.12,8.66,8.66,0,0,0-4.87,4.4,4.57,4.57,0,0,0-.05,3.71c.84,1.92,3,3.07,5.77,3.07a9.16,9.16,0,0,0,1.83-.18,25.31,25.31,0,0,0,4.19-1.36,28.48,28.48,0,0,1,4.13-1.36,15.78,15.78,0,0,1,3.22-.31,40.67,40.67,0,0,1,7.56,1,40.06,40.06,0,0,0,7.57,1,13.65,13.65,0,0,0,4.86-.82c7.86-2.95,9.88-12.85,10.76-21.14l1.71-16.08c.15-1.44.18-3.19-1-4a4.17,4.17,0,0,0-2-.58l-6.46-.74-6.31-.73a18.29,18.29,0,0,0-2.23-.16Z" transform="translate(-364.54 -254.44)"/><path class="cls-3" d="M1462,801.64a17.42,17.42,0,0,0-13.5,6.19,17.61,17.61,0,0,0-.1,21.38c4.8,6,12.4,17.95,9.36,30.14a45.59,45.59,0,0,1-3.25,8.23,42,42,0,0,0-3.52,9.35,14.11,14.11,0,0,0,2.62,11.12,7.32,7.32,0,0,0,5.73,2.91h.23c12.73-.41,21.9-9.3,31.61-18.71,7.94-7.69,16.13-15.64,26.45-18.53,1.49-.41,3-.73,4.72-1.07,3.66-.73,7.43-1.49,10.48-3.65a10.22,10.22,0,0,0,4-8.58,5.5,5.5,0,0,0-3-4.73l-32.29-16.2-32.19-16.15a16.58,16.58,0,0,0-7.39-1.7Z" transform="translate(-364.54 -254.44)"/><path class="cls-3" d="M1271.43,914.22c-4.44,0-8.93.36-13.15.72l-9.77.84-10.12.86c-6.52.56-13.21,1.51-17,6.31-4.22,5.32-2.77,13.07-1.52,17.22.49,1.66,1.09,3.32,1.66,4.94l.07.17c1.4,3.9,2.84,7.93,3,12.12.29,5.75-1.75,11.34-3.72,16.74l-.34.94c-2.08,5.71-4,11.79-3,17.82,1,5.66,5.67,11.51,11.78,11.51h.4l1.31,0a64.84,64.84,0,0,1,11.05,1.28,85.25,85.25,0,0,0,8.77,1.24c.68.05,1.37.07,2.06.07,3.69,0,12.71-.76,16.58-7.81,3.3-6,1-12.55-1.37-19.51-2.11-6.07-4.27-12.34-2.41-18.18,1.55-4.82,5.74-8.92,12.83-12.52,1.2-.61,2.43-1.19,3.66-1.78,4.29-2,8.72-4.13,12.16-7.49,4.26-4.17,6.84-11.42,3.22-16.66a14.11,14.11,0,0,0-5-4.17c-5.61-3.15-12.36-4.62-21.24-4.62Z" transform="translate(-364.54 -254.44)"/><path class="cls-3" d="M1683.62,869.75c-1,0-2.14.07-3.33.19-9,1-16.81,4.88-21.38,10.69-5.35,6.81-5.89,16.61-1.25,22.79,5.34,7.11,3.62,17.35-.45,24.34-3.5,6-8.69,10.86-13.71,15.57q-1.85,1.71-3.64,3.43c-2.27,2.2-5.18,5.54-4.25,9.06.9,3.35,4.79,4.87,8.15,5.17q1,.09,1.89.09c10.55,0,20.73-7.93,23.17-18.06.2-.83.37-1.69.54-2.56.68-3.48,1.38-7.08,4.22-9a8.35,8.35,0,0,1,4.79-1.26,26.6,26.6,0,0,1,4.49.49l12,2,12,2a468.32,468.32,0,0,0-7.33-48.48c-1.07-5.24-2.59-11.09-7-14.19a15,15,0,0,0-8.88-2.38Z" transform="translate(-364.54 -254.44)"/><path class="cls-3" d="M1435.7,953.29c-7,0-14.21.37-20.58.68-3.63.18-6.84.49-9.31,2.41s-3.78,5.22-3.82,9.21a20.66,20.66,0,0,0,9.2,17.12,40.08,40.08,0,0,0,7.41,3.49,46.32,46.32,0,0,1,6.77,3.1c8.73,5.25,12.93,17.27,9.35,26.81a52.19,52.19,0,0,1-4.27,8.17c-3.26,5.42-6.34,10.53-4.86,16.28,1.6,6.22,8.19,9,13.64,9a15.52,15.52,0,0,0,5.81-1.09c6.32-2.55,11.4-8.45,15.11-17.53,2.95-7.22,10.9-12.37,19.77-12.82.47,0,.94,0,1.42,0,7,0,14.52,2.63,21.83,7.6-1.42-12.11-2.9-24.62-7.27-36.45-4.8-13-12.78-23.21-22.47-28.75-6.93-3.95-15.46-6.15-26.86-6.9-3.41-.23-7-.34-10.87-.34Z" transform="translate(-364.54 -254.44)"/><path class="cls-3" d="M1564.43,1031.55c-5.79,0-10.33,1.59-13.49,4.73a8.56,8.56,0,0,0-2,8.11A3.57,3.57,0,0,0,1552,1047c3.34.36,6,2.84,7.22,6.64,1.1,3.54.71,8.39-2.64,11.27a11.13,11.13,0,0,1-7.38,2.6,14.68,14.68,0,0,1-12.57-7.17,6.48,6.48,0,0,0-5.88-3,8.78,8.78,0,0,0-3.71.81c-3.34,1.55-5.65,4.67-7.68,7.42-3.36,4.55-7.15,9.7-8,15.73-.78,5.78,2.34,12.75,8.22,13.92,2.81.56,4.11,3.86,4.15,6.88,0,.73,0,1.47,0,2.2v.24a14,14,0,0,0,.62,6.21,5.31,5.31,0,0,0,4.55,3,2.77,2.77,0,0,0,2.4-1.21c2.33-3.4,6.66-5.12,12.86-5.12,1,0,2,0,3.13.14l2.06.18.14,0c2.13.2,4.3.41,6.42.41a17.27,17.27,0,0,0,8.66-1.91c4.15-2.32,9-2.89,13.7-3.44,1.5-.18,2.84-.34,4.18-.54,5.45-.82,12.55-3,15.37-8.83,3.81-7.81-1.91-16.43-8-23.84-5.62-6.82-11.27-16.51-6.24-23.94,1.91-2.81.69-6.79-1.59-9s-5.86-3.35-8.92-4a40.29,40.29,0,0,0-8.65-1Z" transform="translate(-364.54 -254.44)"/><path class="cls-3" d="M1191.42,1176a9.74,9.74,0,0,0-1.35.1c-5,.76-9.48,5-11.51,10.79-1.87,5.37-1.68,11.23-1.52,16.39,1.32,40.32,4.56,81,9.62,121,5.49-1.72,5.24-9.07,5-15l0-.79c-.48-15.18,10.45-29.34,24.37-31.58a54.27,54.27,0,0,1,8.54-.45h.72a48.38,48.38,0,0,0,8-.48c5.49-.92,11.65-4.59,12.21-10.48.64-6.77-6.32-11.71-11.6-14.83l-15.58-9.22c-3.09-1.82-6.59-3.89-8.9-7s-3.37-7.1-4.3-11.52c-2.55-12.12-4.78-25.09-3.85-37.81a7.79,7.79,0,0,0-2.22-5.86,10.78,10.78,0,0,0-7.63-3.36Z" transform="translate(-364.54 -254.44)"/><path class="cls-3" d="M1611.41,1238.35a3,3,0,0,0-1.68.52,80.7,80.7,0,0,1-44.45,13.5c-.74,0-1.47,0-2.2,0h-.5c-5.2,0-10.15,2.31-14.52,4.36l-3.25,1.52L1526,1267c-7.22,3.37-15.55,8.26-15.93,16.25-.27,6,4.2,11,8.15,15.48l.37.41a138.4,138.4,0,0,1,13.45,17.93c2.19,3.46,8.78,15.29,2,22a10.26,10.26,0,0,0-2.61,9,13.36,13.36,0,0,0,6.83,9.81,15.27,15.27,0,0,0,7,1.62,22.16,22.16,0,0,0,13.89-5.32c5.94-5,9.49-12.2,12.34-18.57,3.81-8.45,13.74-11.48,19.32-12.54,3.08-.58,6.24-.91,9.29-1.23a73.15,73.15,0,0,0,14.38-2.5c3.9-1.23,6.57-2.94,8.16-5.23,3-4.35,1.93-10.3.66-15.53l-.25-1-7.83-32.37c-.9-3.72-1.93-8-1.14-12a30.17,30.17,0,0,1,1-3.54,17,17,0,0,0,1.22-6c-.13-2.7-2.54-5.35-4.87-5.35Z" transform="translate(-364.54 -254.44)"/><path class="cls-3" d="M1717,1395.93a14,14,0,0,0-1.73.1c-10,1.3-22,4-25.36,13.65-1.65,4.74-.56,9.81.49,14.71.9,4.21,1.82,8.53,1.11,12.7a16.65,16.65,0,0,1-9,12,33.13,33.13,0,0,1-8.58,2.37l-.27,0c-.94.17-1.88.34-2.81.54-5,1.08-8.42,2.93-10.34,5.67a8.31,8.31,0,0,0-1.18,6.68,5.67,5.67,0,0,0,3,3.8,6.17,6.17,0,0,0,2.75.6,18.09,18.09,0,0,0,5-1l.1,0h0a25.28,25.28,0,0,1,3.84-.94,11.63,11.63,0,0,1,1.55-.1c7.53,0,13.22,7.21,15.32,10.31,1,1.54,2,3.16,3,4.73,2.63,4.35,5.34,8.81,9.41,11.84a41.08,41.08,0,0,0,7.74.85c5.77,0,9.63-1.79,11.46-5.33,1.34-2.56,1.24-5.63,1.15-8.34-1-27-1.09-54.2-.38-81a2.85,2.85,0,0,0-.83-2.14c-1-1-3-1.65-5.42-1.65Z" transform="translate(-364.54 -254.44)"/><path class="cls-3" d="M1605.8,1530a7.08,7.08,0,0,0-5.88,2.54c-3,3.77-.71,9.41,2.42,13.43l.31.38.54.69c2.89,3.66,5.88,7.43,5.27,11.83-.74,5.32-6.23,8.24-11.07,10.81l-.24.13c-9.3,4.94-15,10.57-17.55,17.23a18.86,18.86,0,0,0,.55,14.08,13,13,0,0,0,7.39,7.07,13.7,13.7,0,0,0,4.53.78c5.09,0,10-2.68,15.12-5.52a56.73,56.73,0,0,1,10.42-4.87c4.49-1.37,9.26-1.41,13.87-1.46h.48c1.13,0,2.26,0,3.38-.06,4.88-.16,11.92-.86,16.81-5a13.27,13.27,0,0,0,4.48-9,8.94,8.94,0,0,0-2.26-6.81,42.91,42.91,0,0,1-11-34.47l.05-.45c.25-1.77.5-3.6-.23-5.21A3.68,3.68,0,0,0,1640,1534a2.16,2.16,0,0,0-1.56.62,10.44,10.44,0,0,1-7.75,3c-5.07,0-10.77-2.49-16.17-5.19a21,21,0,0,0-8.75-2.42Z" transform="translate(-364.54 -254.44)"/><path class="cls-3" d="M1315.3,1359.25h0c-4.22,0-8.48,3.71-9.7,8.43-1.31,5,.14,10.28,1.91,15.2.21.6.43,1.2.65,1.8,1.56,4.25,3.17,8.63,3.13,13.17,0,5.18-2.13,10.51-6.57,16.76a73,73,0,0,1-17,17c-.69.49-1.39,1-2.1,1.46a38.21,38.21,0,0,0-7.56,6.22c-2.42,2.8-4.46,7.29-2.94,11.46,1.68,4.67,6.9,6.87,12.3,8.55l9.28,2.9,9.28,2.9c7.08,2.21,15.12,4.72,23.09,4.72,1.16,0,2.28,0,3.42-.16,8.38-.79,18-5.7,20.74-14.86a36,36,0,0,0,1-8.81c.16-4.25.32-8.64,2.68-12.18,1.6-2.4,4.1-4.2,6.51-5.94,3.41-2.45,6.62-4.76,7.52-8.62,1-4.23-1.59-8.53-4.6-10.9-3.34-2.63-7.6-3.89-11.35-5-12.66-3.75-24.85-8.74-28.27-19.83a36.43,36.43,0,0,1-1.21-8,54.72,54.72,0,0,0-.63-5.66c-.79-4.32-3.3-9.32-8-10.4a7.4,7.4,0,0,0-1.68-.19Z" transform="translate(-364.54 -254.44)"/><path class="cls-2" d="M431.53,1177.5q-6.69,7.13-13.58,14c-2.24,2.25-4.55,4.44-6.83,6.65-2.13,2-4.32,4-6.49,6-.64.6-1.31,1.18-2,1.76l-4.79,4.27-5.25,4.69q-7.38,6.52-14.75,13.06l-13,11.5a1.27,1.27,0,0,0,0,1.79,1.29,1.29,0,0,0,1.79,0q7.67-6.66,15.29-13.38,6.79-5.94,13.58-11.91c2.21-1.94,4.41-3.9,6.62-5.85,2-1.78,4.05-3.56,6-5.38l4-3.7c1-.9,2-1.85,2.92-2.78s2.13-2,3.15-3c1.27-1.26,2.53-2.54,3.8-3.81,1.89-1.89,3.74-3.82,5.6-5.75s3.92-4.09,5.86-6.16a1.47,1.47,0,0,0-1.06-2.51,1.38,1.38,0,0,0-1,.43Z" transform="translate(-364.54 -254.44)"/><path class="cls-4" d="M1402.57,610.05c-7.65,0-15.18,6.66-17.14,15.17-1.73,7.47-.08,16.07,5,26.3A101.2,101.2,0,0,0,1412.76,681c2.7,2.46,6,5,9.67,5h.13c4.42-.07,7.92-3.63,10.75-7.11a156.83,156.83,0,0,0,23.6-39.67c1.43-3.48,2.79-7.2,2.45-11.07-.32-3.6-2.68-7.65-6.57-8.41l-7.83-1.54-39.83-7.83a12.85,12.85,0,0,0-2.56-.25Z" transform="translate(-364.54 -254.44)"/><path class="cls-4" d="M2140.94,995a8.89,8.89,0,0,0-6.87,2.91,222,222,0,0,1-52,44.17c-5.92,3.62-12.11,7-18.09,10.3-6.77,3.73-13.77,7.57-20.45,11.79-40.81,25.74-70.37,65.21-96.24,104-4.79,7.19-9.6,14.56-14.26,21.7-21,32.25-42.7,65.53-70.17,93.14-37.55,37.77-81.3,58.57-123.18,58.57-.92,0-1.83,0-2.75,0h-.14a6.4,6.4,0,0,0-5.76,4,10.76,10.76,0,0,0,.92,10.88c4,5,10.88,6.38,17.63,7.37,12,1.75,24.38,3.56,36.66,3.56,1.51,0,3,0,4.33-.08,56.71-2,99.68-45.63,120.25-71.43,16.57-20.8,30.66-43.89,44.29-66.23l.06-.11h0c11-18.06,22.42-36.74,35.06-54.1a398.29,398.29,0,0,1,110.22-102.58l2.81-1.75c22.23-13.82,47.43-29.49,50.72-55.2.52-4.09.69-11.73-4-17a12.41,12.41,0,0,0-9-3.94Z" transform="translate(-364.54 -254.44)"/></svg>