<?xml version="1.0" encoding="utf-8"?>
<!-- Generator: Adobe Illustrator 22.0.1, SVG Export Plug-In . SVG Version: 6.00 Build 0)  -->
<svg version="1.1" id="Draw_Layer" xmlns="http://www.w3.org/2000/svg" xmlns:xlink="http://www.w3.org/1999/xlink" x="0px" y="0px"
	 viewBox="0 0 1804.5 1482.6" style="enable-background:new 0 0 1804.5 1482.6;" xml:space="preserve">
<style type="text/css">
	.st0{fill:#2C2C2C;}
	.st1{fill:#BEBEBE;}
	.st2{fill:#6EDAF4;}
	.st3{fill:#725AF7;}
</style>
<title>Dalmatian</title>
<path class="st0" d="M792.4,266.2c-41,3.8-79.8,19.6-117.5,36.2c2.3-3.6-1.5-8.5-5.7-8.9s-8.1,1.9-11.7,4.2
	c-32,20.5-64.1,41.1-96.1,61.7c-9.1,5.9-18.9,12.6-22.1,23c-3.2,10.6,1.5,21.8,6.9,31.4c13.5,24.1,31.7,45.3,53.6,62.2
	c5.1,3.9,11.7,7.7,17.5,5c5.6-2.7,7-9.8,7.5-16c2.1-23.4,2.3-46.9,0.7-70.3c11.6,58.1,23.2,116.3,34.8,174.4
	c1.5,7.5,2.7,16.1-2.1,22.1c-33.5,41.3-39.1,97.9-41.7,151.1c-5.3,108.6-3.4,217.5,5.5,325.9c4.2,51.4,10.5,104.1,34.8,149.6
	c6.5,12.2,14.8,24.3,27.1,30.8c30.4,16.2,68.3-10.2,81.3-42.1c13-31.9,10.5-67.8,17.5-101.5c12.7-0.2,25.7-0.4,37.5,4.3
	c11.8,4.7,22,15.6,21.9,28.2c-0.1,26.5-0.1,53.8,9.4,78.6c9.5,24.8,30.9,46.8,57.3,49.1c23.5,2,46.2-12,59.9-31.2
	c13.7-19.2,19.6-42.8,22.9-66.1c6.9-48.1,4.3-97.1,1.6-145.6c37.5,17.1,82.7-2.4,111.4-32c28.7-29.5,46.5-67.8,71.3-100.7
	c20.9-27.9,46.7-51.8,76.1-70.6c9.7-6.2,20-12,27.4-20.9c7.4-8.9,11.3-21.8,6.1-32.2c-5.2-10.3-21.6-14.1-28.6-5
	c-19.7,25.5-51.4,38.4-76.2,59c-31.4,26-50.8,63.3-74.1,96.8c-23.3,33.5-54.2,65.8-94.4,72.4c-5.3,0.9-11.5,1.1-15.4-2.6
	c-3-2.8-4-7.1-4.8-11.1c-13.7-69.7-16.6-141.1-8.9-211.7c7.1-64.2-16.1-131.1-61.4-177.2c-17.7-18-13.6-47.2-8.4-71.9
	c9.4-44.5,18.9-89,28.4-133.4c1.1,19,2.2,38,3.3,57c0.5,8.5,1.6,18.1,8.4,23.1c10.3,7.6,24.5-0.6,34.2-8.9
	c19.3-16.4,37.7-33.9,55-52.4c9.2-9.8,18.6-23.4,12.7-35.4c-2.8-5.7-8.4-9.3-13.8-12.6l-78.1-48.5c-17.8-11.1-44.9-20.4-56.3-2.8
	c-25.6-24.6-61.8-35.2-97.6-35.2C803.7,265.5,798,265.7,792.4,266.2L792.4,266.2z M730.3,293.3c-0.9-1.4-1-3.1-0.3-4.6
	c1.3-2.6,4.4-3.8,7.1-4.8c34.3-11.7,70.9-14.6,106.6-8.4c2.3,0.4,4.6,0.9,6.9,1.3l0,0c-6.7,3.5-10.4,12.3-8.1,19.6
	c0.7,2.1,1.7,4.1,2.7,6c2,3.9,4,7.5,3,11.5c-0.7,3-2.9,5.2-5,7.4c-2,2-4,4.2-4.9,6.9c-0.8,2.7-0.3,5.6,1.3,7.9c2,3.2,5.3,5.3,9,5.9
	c0.7,0.1,1.4,0.1,2.1,0.1c5.1,0,10.6-2.5,15.6-7.1c0.4-0.4,0.8-0.8,1.2-1.2l0.2-0.1c1.8-1.8,3.7-3.6,6.1-4.6c1-0.4,2.2-0.7,3.3-0.7
	c2.3,0,4.3,1,5.2,2.7c3.6,6.5,9.1,10.9,14.9,12c0.9,0.2,1.8,0.3,2.7,0.3c5.9,0,11.4-3.5,13.1-8.3c0-0.1,0.1-0.2,0.1-0.4l0,0l0,0
	c1.3,0.8,2.8,1.2,4.3,1.2c1.5,0,2.9-0.4,4.1-1.1h0l0,0c11,22.6,14.7,48.1,10.5,72.9c-2,11.4-5.6,22.6-9.2,33.5
	c-1.3,4.1-2.7,8.3-4,12.5c-7.1,23.2-11.4,47.1-13,71.3c-0.3,4-0.5,8.1-0.7,12.6c-0.8,16.8-1.6,34.1-7.6,49.9
	c-3.6,9.5-9.6,18-17.3,24.7c-8.2,7-17.4,10.7-26.6,10.7c-1.1,0-2.2-0.1-3.3-0.2c-12.4-1.2-22.8-8.7-32.9-15.9
	c-8.5-6.1-17.4-12.5-27.5-15.2c-3.8-1-7.7-1.5-11.6-1.5c-1,0-2,0-3.1,0.1c-4.8,0.3-9.5,1.2-14.1,2.7c-8.3,2.6-18.9,7.5-33.3,16.6
	c-6.7,4.3-13.7,8.7-21.6,9.3c-0.5,0-1.1,0.1-1.6,0.1c-9.8,0-19.8-6.3-26.1-16.3c-6.1-9.6-8.5-21.4-10.6-31.8l-15.6-76l-15.6-76
	c-2.1-10.1-4.2-20.6-3.5-31.1c0.3-5,1.4-9.9,3.3-14.6c0,0,0,0,0-0.1l0,0c1.2-3,2.8-5.8,4.8-8.4c1.4-1.7,2.9-3.3,4.6-4.7
	c4.3-3.4,9.6-5.4,15-5.4c4.6,0,8.7,1.5,11.7,4.3c2.8,2.5,6.4,3.8,10.2,3.7c5.6,0,11.9-2.6,16.4-6.7c4.5-4.2,8-9.6,11.3-14.8
	c1.9-3,3.8-6.1,6-8.9c2.7-3.6,6.1-6.8,9.9-9.2c2.2-1.4,4.6-2.5,7.1-3.1l0,0h0c1.5-0.4,3-0.6,4.5-0.6c1.2,0,2.3,0.1,3.5,0.4
	c0.5,0.1,1.1,0.2,1.6,0.2c3,0,5.9-1.8,7.9-4.7c2.3-3.3,2.9-7.5,1.6-10.8c-2.6-6.6-9.9-9.5-16-9.5c-1.1,0-2.2,0.1-3.3,0.3
	c-0.2,0-0.3,0-0.5,0C731.8,294.9,730.8,294.3,730.3,293.3L730.3,293.3z M852,333.5c-1.6-0.5-2.7-1.9-3.1-3.5c-0.3-1.2,0-2.4,0.9-3.2
	c6.4-5.6,8.2-15.7,4.1-23.2c-0.7-1.2-1.4-2.3-2.2-3.4c-1-1.4-2-2.9-2.7-4.4c-1.3-2.7-1.6-6.5,0.6-8.7c1.1-1,2.4-1.8,3.9-2.2
	c2.9-1.2,6.3-2.4,9.5-2.4c1.6,0,3.2,0.3,4.6,1.1c17.7,9.2,37.5,20.5,47.8,39.5l0.2,0.4l0,0c-2.4,1.2-4.5,3.1-6.4,5
	c-1.5,1.5-3.1,2.8-4.9,4c-1.8,1.1-3.9,1.7-6,1.7c-3.2,0-5.6-1.4-6.4-3.9c-1.8-5.3-6.2-9.3-11.6-10.7c-1.2-0.3-2.3-0.4-3.5-0.4
	c-4.4,0-8.5,1.7-11.6,4.8c-1,1-1.9,2.1-2.7,3.3c-0.8,1.2-1.7,2.3-2.7,3.3c-1.9,1.9-4.1,3-6.1,3C853.1,333.7,852.6,333.6,852,333.5
	L852,333.5z M645.9,351.4c-0.4-1.3,0.2-2.8,0.8-4c1.5-3.2,3.2-6.2,5.1-9.2c7.8-12.3,18.6-22.5,30.9-30.8
	c9.2-6.1,18.9-11.2,29.2-15.2c1.1-0.5,2.2-0.8,3.4-0.8c0.3,0,0.6,0,0.9,0.1c0.9,0.2,1.6,0.8,2,1.5c0.3,0.5,0.3,1.1,0.1,1.7
	c-0.4,1-0.3,2.2,0.3,3.2c1,1.6,2.5,2.8,4.4,3.2c0.8,0.2,1.6,0.2,2.4,0.2c1.1,0,2.2-0.1,3.1-0.2c1-0.1,2.1-0.2,3.2-0.2h0.3
	c5.2,0.1,10,2.9,12.8,7.3c-3,3.8-7.8,4.6-12.8,5.5c-2.6,0.4-5.2,1-7.7,1.8c-7.3,2.8-12.1,10-15.5,15.9c-0.5,0.9-1,1.9-1.6,2.8
	l-0.1,0.2c-3.1,5.6-6.2,11.4-11.2,15.5c-3.4,2.9-7.7,4.5-12.2,4.6c-3.1,0.1-6.2-1-8.5-3c-3.4-3-7.8-4.6-12.3-4.5
	c-5.2-0.1-10.1,2-13.7,5.7c-0.3,0.3-0.7,0.5-1.1,0.5C647.2,353,646.3,352.3,645.9,351.4L645.9,351.4z M962.8,454.8
	c-2.7-1.1-4.4-3.8-5.5-5.6c-6-10.6-6.1-23.3-6.2-35.7c-0.1-12.5-0.1-25.5-6.5-36.2c-4.7-7.9-7-17.2-9.2-26.1
	c-2.7-10.7-5.4-21.8-12.3-30.4c-0.5-0.7-1.1-1.3-1.6-1.9c-2.2-2.6-4.5-5.3-5.2-8.7c-0.5-3,0.4-6,2.4-8.2c3-3.4,7.3-5.4,11.8-5.5h0.5
	c7.7,0.3,14.3,5,20.7,9.5c28.3,20,58.2,37.8,89.3,53.2c0.5,0.2,1,0.5,1.4,0.8c1.7,1.2,3.1,2.8,4,4.6c2.2,4.1,2.6,8.8,1.3,13.3
	c-1.8,6.8-6.6,12.3-11.7,17.8c-18.3,19.7-38.1,37.9-59.2,54.6c-3,2.4-7,5.2-11,5.2C964.8,455.4,963.8,455.2,962.8,454.8L962.8,454.8
	z M604.9,470.1c-19.9-16.3-36.9-35.9-50.4-57.8c-5.4-8.8-10.6-19.1-8.3-29.5c3.3-14.8,19.3-21.8,33.4-28.1l0.9-0.4
	c28.9-12.8,55.1-31.2,76.9-54.1c0.7-0.8,1.8-1.3,2.9-1.3c1.8,0.1,3.5,1,4.7,2.4c1.4,1.4,2.1,3.3,2,5.3c-0.4,4.9-4.5,8.6-8,11.8
	l-0.3,0.3c-5.9,5.4-11.2,11.4-15.9,17.8c-8.8,12.1-15.4,25.7-19.4,40.2c-2.3,8.1-3.7,16.5-4.2,24.9c-0.5,8.7-0.2,17.4,0.2,25.9
	c0.5,11.8,1,24-0.9,35.8c-0.4,2.2-2,9.5-7.2,9.7H611C608.7,473.2,606.7,471.7,604.9,470.1L604.9,470.1z M878.5,623.1
	c13.3-7.9,23.8-21.8,28.9-38.3l0,0c25.3,21.8,44.2,50.1,54.8,81.7c0.6,1.7,0.7,4.2-0.3,5.5c-0.4,0.6-1,0.9-1.7,0.8h-0.9
	c-9.1,0-17.5,3.5-22.5,9.4c-5.9,7-6.6,17.5-1.5,24.1c0.3,0.3,0.5,0.7,0.7,1.1c0.7,1.4,0.9,3,0.7,4.6c-0.3,3-2,6.4-5.6,9.6
	c-1,0.8-2,1.7-3,2.5c-3.5,2.9-7.2,5.9-8.4,10.2c-0.9,3.3-0.2,6.7,1.9,9.4c3,4,8.6,6.7,13.9,6.7c1.4,0,2.7-0.2,4-0.5
	c8.3-2.4,14.2-9.4,18.8-16.9c0.9-1.4,1.7-2.8,2.5-4.3l0,0l0,0c0.4,5.7,6.1,10.7,12,10.7c0.9,0,1.7-0.1,2.6-0.3l0.2-0.1l0,0
	c1.1,35.1,1.3,72.2-9.6,106.8c-5.6,17.8-14.3,34.2-25.3,47.6c-12.1,14.8-26.3,25.5-42.3,31.6c-7.8,3.1-16.1,4.8-24.6,4.9
	c-5.4,0-10.7-0.8-15.8-2.6c-14-4.9-23.8-17.5-23.9-30.6c-0.2-16.9,2-33.7,6.5-50c0.9-3.2,1.8-6.3,2.9-9.4v0c0,0,0,0,0,0
	c0.2,4.4,0.4,9.8,3.1,14c1.9,2.8,5,4.5,8.3,4.6c1.5,0,3-0.4,4.1-1.3c6.3-5,14.6-6.1,22.7-7.1c2.5-0.3,5.2-0.7,7.7-1.1
	c2.3-0.4,4.6-1,6.7-1.9c5.7-2.2,10.9-5.8,13.4-10.6l0,0v0c1.1-2.1,1.7-4.5,1.6-6.9c-0.2-4.6-2.7-8.9-5.1-13.1
	c-3.1-5.3-6-10.3-4.4-15.8c0.9-3.3,0.3-6.8-1.6-9.6c-2.5-3.9-6.6-6.7-11.2-7.5c-1.1-0.2-2.2-0.3-3.3-0.3c-5.9,0-12.3,2.4-19.2,7.3
	c-2.4,1.7-4.7,3.5-6.8,5.2c-3.4,2.9-7.1,5.5-10.9,7.8c-0.6,0.4-1.3,0.7-1.9,1.1l0,0l-0.7-8.8l-0.7-8.8c-0.7-9.7-1.7-19.2-4.4-27.5
	c-1.1-3.5-2.7-6.9-4.6-10.1c-1.5-2.5-3.3-4.7-5.4-6.7c-7.6-7.4-18.7-11.2-33-11.2c-5.8,0-11.5,0.6-17.2,1.5
	c-11.9,2-40.2,9.1-45.5,31.3c-2,8.3-0.1,17,1.5,24.8l3.6,17.3l3.6,17.4c3.8,18.4,8.1,39.2,3.8,59c-2.2,9.9-6.8,19-13.6,26.5
	c-7.2,7.9-16,12.5-25.3,13.4c-1.2,0.1-2.4,0.2-3.6,0.2c-4,0-8-0.7-11.9-1.9c-10.1-3.2-19.2-10.2-27-18.4c-3.4-3.6-6.6-7.3-9.5-11.3
	c-8.3-11.1-14-20.7-18.1-30.4c-4.9-11.7-7.5-24.3-9.6-36.2c-7.1-40.1-9-78.1-5.6-112.9c3.9-40,14.7-75.7,32.3-106.2
	c1.7-2.9,3.6-5.9,6.6-7.1c0.7-0.3,1.5-0.5,2.3-0.5c2.4,0,5.2,1.4,5.4,4c1.5,15.4,15.9,28.4,31.4,28.4h0.3c12-0.1,22.5-6.9,32.6-13.5
	c2.8-1.8,6.1-3.9,9.2-5.7c7.9-4.6,20.2-10.1,33.9-10.1c5.5,0,10.9,1,16,2.9c7.4,2.9,13.7,7.9,19.9,12.8c5.5,4.3,11.1,8.8,17.5,11.8
	c6.2,2.8,12.9,4.3,19.7,4.2c9.6,0,19-2.6,27.3-7.5L878.5,623.1z M933.5,742c-2.3-0.2-4.9-1.2-5.5-3.5c-0.6-2.4,1.3-4.6,2.9-6.1
	c0.8-0.8,1.6-1.6,2.4-2.3c3.4-3.2,6.9-6.5,9.3-10.5c2.7-4.7,3.9-11.6,0.3-16.4c-3.1-4.2-2.8-10.8,0.8-15.4c3.1-3.9,8.3-6.5,14.4-7.2
	c0.7-0.1,1.5-0.1,2.2-0.1c2.1-0.1,4.2,0.5,6,1.6c3,2.1,4,6,4.7,9.6c2.1,10.3,3.7,20.9,4.8,31.3l0.1,1.3l0,0l0,0L968,723l-8.1-1.3
	c-1-0.2-2-0.3-3-0.3c-1.1,0-2.3,0.2-3.2,0.8c-1.9,1.3-2.4,3.7-2.8,6.1c-0.1,0.6-0.2,1.2-0.4,1.7c-0.4,1.8-1.2,3.5-2.2,5
	c-1.5,2.2-3.6,4-5.9,5.3c-2.3,1.3-4.8,1.9-7.4,1.9C934.4,742.1,933.9,742.1,933.5,742L933.5,742z M786.4,795.7
	c-1-3.9,1.1-7.3,3.3-11c1.1-1.7,2.1-3.6,2.9-5.5c2.4-6.4-0.4-14.5-6.3-18.1c-1.5-0.8-3-1.5-4.6-2.1c-1.7-0.6-3.4-1.4-5-2.4
	c-3.9-2.6-6.2-6.9-6.2-11.5c0-2.7,1-5,2.6-6.2c1.6-1.3,3.8-1.5,6.3-1.6c4.3-0.2,9.2-0.5,13.9-0.5c2.6,0,5,0.1,7.3,0.2
	c7.7,0.5,13.4,2,18.1,4.7c1.9,1.1,3.7,2.4,5.3,3.9l0,0l0.1,0c1.7,1.6,3.1,3.3,4.5,5.2c2.2,3.2,4,6.6,5.3,10.2
	c2.7,7.2,3.7,14.8,4.6,22.2c0.1,0.8,0.2,1.6,0.3,2.4l0,0l0,0c-4.9-3.4-10-5.1-14.7-5.1c-0.3,0-0.6,0-1,0c-6,0.3-11.3,3.8-13.3,8.6
	c-2.5,6.1-5.9,10.1-10.2,11.8c-1.2,0.5-2.6,0.8-3.9,0.7C791.9,801.7,787.4,799.8,786.4,795.7L786.4,795.7z M715.9,927.3
	c3.9-1.1,7.7-2.7,11.2-4.8l0,0l0.1-0.1c2.9-1.7,5.6-3.6,8.1-5.8c8.8-7.6,15.3-17.5,18.8-28.6c7.7-24.3,2.2-50.8-3.4-71.2
	c-0.4-1.6-0.9-3.2-1.3-4.7c-3.3-11.8-6.7-24-6.1-36.3c0.4-7.1,2.5-14,6.2-20.1c3.9-6.4,9.3-10.8,15.6-12.8l0,0l0,0
	c-1.4,1.8-2,4.1-1.6,6.4c0.3,1.7,0.8,3.3,1.7,4.8c0.8,1.4,1.8,2.7,2.9,3.8c1.8,1.7,3.8,3.2,5.9,4.6c2.5,1.7,5.1,3.6,7.1,5.9
	c2.3,2.7,3.5,6.2,3.2,9.7c-0.2,2.1-1.2,3.9-2.9,5.1c-1.7,1.2-2.9,2.7-3.7,4.6c-0.5,1.2-0.8,2.5-0.9,3.7c-0.1,1.5,0,3.1,0.3,4.6
	c1.4,6.8,6.6,12.4,12.6,13.7c1.3,0.3,2.6,0.4,3.9,0.4c10.7,0,20-8.6,24.5-17.1c1.4-2.7,4.2-4.2,7.8-4.2c4.6,0,9.2,2.6,11.4,6.2
	c3.9,6.5,2.9,14.5,1.4,22.9l-7.3,42l-1.1,6.2c-2.3,13-4.8,27.8-1.3,41.6c0.2,0.9,0.5,1.8,0.7,2.6c2.2,6.9,6.3,13,11.7,17.8
	c4,3.4,8.9,5.7,14.1,6.5c0.6,0.1,1.2,0.1,1.8,0.2l0,0l0,0c-6,3.3-12.7,7.1-17.4,12.7c-2.7,3.2-4.5,7.1-5.2,11.2
	c-0.3,1.7-0.3,3.3,0,5c0.2,1.4,0.6,2.7,1.1,3.9c1.6,3.5,4.6,6.7,7.4,9.8c4.9,5.2,9.5,10.2,6.7,16.1c-3.3,7.2-1.3,16.7,4.7,21.9
	c3.4,2.9,7.8,4.5,12.3,4.4c3.5,0,7-1,10-2.8c3.9-2.5,6.7-6.3,9.4-10c1-1.3,2.1-2.9,3.3-4.3c2-2.5,7.4-8.2,14-8.2
	c0.8,0,1.7,0.1,2.5,0.3c1,0.2,2,0.3,3,0.3c9.5,0,17.2-10,18.5-19.4c1-7.7-0.7-15.5-2.4-23c-0.7-2.9-1.3-6-1.8-9c-0.3-2-0.6-4-0.7-6
	c-0.3-4.2,0.1-8.3,1.1-12.4c1.2-4.3,3.3-8.5,7.2-11.5c11.8-9.4,21.9-20.9,29.7-33.9c2.8-4.6,5.2-9.4,7.4-14.3l0,0l0,0
	c9.1,48.6,15.1,97.7,18.1,147c0.3,4.4-0.5,10.6-3.6,13.8c-1.1,1.3-2.8,2-4.5,2h-0.5c-0.4,0-0.8,0-1.2,0c-6.4,0-12.7,3.6-16.9,9.5
	c-4,5.8-5.2,12.8-3.1,18.7c1.2,3.3-1.7,6.9-5.1,8.3c-1.6,0.6-3.2,1-4.8,1.3c-1.9,0.4-3.7,0.9-5.4,1.7c-4,2-6.5,6.7-6.3,12
	s3.2,9.8,7.4,11.3c1.9,0.6,3.9,1,5.8,1.2c2.9,0.4,5.9,0.7,8.2,2.5c2.7,2,4.1,5.5,5.4,8.9c1.7,4.4,3.4,8.5,7.7,9.1
	c0.3,0,0.6,0.1,1,0.1c2.5,0,5-1.2,7.7-2.7l0.4-0.2c2.4-1.3,4.7-2.5,6.7-2.5c1.2,0,2.4,0.5,3.2,1.5c-0.4,5.9-0.7,12-0.9,17.8v0.2
	c-0.8,18.6-1.7,37.8-5.8,56.2c-1.8,8.2-4.4,16.1-7.7,23.8c-5.5,12.7-13.3,24.4-23.7,33.2c-2.1,1.8-4.3,3.5-6.7,5.1
	c-10.2,6.7-22.1,10.3-34.3,10.3c-13.7,0-26-4.7-34.6-13.2c-9.8-9.7-14.5-23.1-18.2-36.1c-7.2-26.1-11.1-53-11.4-80.1
	c-0.1-5.4-0.3-10.7-1.7-15.1c-0.6-1.8-1.4-3.6-2.5-5.1c-0.9-1.3-2-2.4-3.3-3.4c-2.9-2.1-6.4-3.1-11.5-3.1c-2.2,0-4.6,0.2-6.8,0.4
	h-0.1c-2.2,0.2-4.6,0.4-6.8,0.4c-1.8,0-3.7-0.1-5.5-0.5c-3.5-0.7-6.8-2.2-10-3.7c-3-1.4-6.1-2.8-9.3-3.6c-1-0.2-2.1-0.3-3.2-0.3
	c-3.9,0-7.8,1.5-10.1,3.8c-1.5,1.5-2.3,3.5-2.2,5.5c0.7,24.2-1.4,48.4-6.2,72.1c-3.5,17-9.4,38.6-24.1,54.3c-3,3.2-6.4,6-10,8.4
	c-5.9,3.9-12.4,6.6-19.3,8l0,0h-0.1c-2.8,0.5-5.6,0.8-8.4,0.8c-5.7,0-11.4-1.2-16.6-3.7c-3.1-1.5-5.9-3.4-8.5-5.6l-0.1-0.1l-0.1-0.1
	c-1.6-1.4-3.2-2.9-4.7-4.5c-5.2-5.7-9.2-12.4-12.5-18.3c-12.9-23.5-21.6-49-25.6-75.5c-2.3-15.1-3.1-30.7-3.9-45.8l-2.4-46.5
	l-2.3-45.3c-0.2-3.5,0.3-7.9,3.6-8.9c4.1-1.2,4.1-5.7,4-10.6c-0.1-2.3,0-4.7,0.5-7c1.9-7.6,10-9.2,18.6-10.8
	c8-1.5,16.2-3.1,19.3-9.9c0.8-1.8,1.1-3.7,0.9-5.6c-0.4-4-2.7-8-5.8-11.3c-1.3-1.4-2.7-2.6-4.3-3.8c-1.7-1.2-3.5-2.4-5.3-3.5
	c-5.1-3.3-10.4-6.7-13.4-12c-2.5-4.5-3-9.7-3.5-14.8c-0.1-1-0.2-2-0.3-3c-0.6-5.1-1.9-12.3-7.2-16.3c-1.8-1.3-4.1-2.1-6.4-2
	c-2.7,0-5.6,1-7.3,3c-0.7,0.8-1.1,1.7-1.3,2.7v0v0c-3-21.8-2.7-44,0.9-65.8c0.6-3.7,1.3-7.4,2.1-11v0.1v-0.1
	c0.8,35.6,14.5,69.8,38.6,96c13,14.1,26.4,21.8,39.6,23.1c1.2,0.1,2.5,0.2,3.7,0.2c3.8,0,7.5-0.5,11.1-1.5L715.9,927.3z
	 M1081.3,959.2c18.5-18.6,33.2-41.1,47.3-62.8c3.1-4.8,6.4-9.8,9.6-14.6c17.4-26.2,37.4-52.8,64.9-70.1c4.5-2.8,9.2-5.4,13.8-8
	c4-2.2,8.2-4.5,12.2-6.9c13.2-8.1,25-18.1,35.1-29.8c1.2-1.3,2.9-2,4.6-2c2.3,0,4.5,1,6.1,2.7c3.2,3.5,3,8.7,2.7,11.5
	c-2.2,17.3-19.2,27.9-34.2,37.2l-1.9,1.2c-29,18.1-54.2,41.6-74.3,69.2c-8.5,11.7-16.2,24.3-23.6,36.5l0,0l0,0.1
	c-9.2,15.1-18.7,30.6-29.9,44.7c-2.8,3.5-6.3,7.6-10.3,11.8c-5.2,5.4-10.7,10.5-16.7,15c-14.5,11.2-32.9,20.6-54.1,21.4
	c-0.9,0-1.9,0-2.9,0c-8.3,0-16.6-1.2-24.7-2.4c-4.6-0.7-9.2-1.6-11.9-5c-1.5-2.2-1.8-5-0.6-7.3c0.6-1.6,2.2-2.6,3.9-2.7h0.1
	c0.6,0,1.2,0,1.9,0c12-0.1,23.8-2.4,34.9-6.9c13.5-5.3,26.2-13.3,37.5-22.8C1074.2,966.1,1077.7,962.8,1081.3,959.2L1081.3,959.2z
	 M874.7,812c2.3-1.9,2.5-5.2,1.8-7.6c-0.8-2.6-2.6-4.2-4.9-4.5c-1-0.1-1.8-0.8-2.1-1.7c-0.5-1.9,0-4,1.3-5.5
	c2.1-2.1,5.2-3.2,9.1-3.2c2,0,3.9,0.2,5.8,0.7c2.1,0.5,4.4,1.1,6,2.7c1.6,1.6,2.4,4.2,1.1,6.1c-0.9,1.4-1.4,3-1.3,4.7l0,0v0.1
	c0.1,1.5,0.5,3.1,1.1,4.5c1.1,2.5,2.6,4.8,4.4,6.9c4.1,5,8,10.8,5.4,16.1c-1.9,3.9-6.7,5.4-10.4,6c-0.9,0.1-1.8,0.2-2.8,0.4
	c-3.2,0.4-6.4,0.7-9.2,2.3c-1.8,0.9-3.8,1.4-5.8,1.3c-1.4,0-2.9-0.1-4.3-0.3h-0.1l-1.4-0.1c-0.7-0.1-1.4-0.1-2.1-0.1
	c-4.2,0-7.1,1.2-8.7,3.5c-0.4,0.5-1,0.8-1.6,0.8c-1.3-0.1-2.5-0.8-3.1-2c-0.5-1.3-0.6-2.8-0.4-4.2v-0.2c0-0.5,0-1,0-1.5
	c0-2-0.9-4.3-2.8-4.6c-4-0.8-6.1-5.5-5.5-9.4c0.5-4,3.1-7.5,5.4-10.6c1.3-1.9,2.9-4,5.2-5c0.8-0.4,1.6-0.5,2.5-0.5
	c1.6-0.1,3.1,0.7,4,2c1.8,3,5,4.8,8.5,4.8C871.6,813.8,873.3,813.2,874.7,812L874.7,812z M618.7,905.4c-0.1-3.5-0.2-7.4,1-11.1
	c1.3-3.9,4.4-6.7,7.8-7.3c0.3,0,0.6-0.1,0.9-0.1c1.9,0,3.8,0.9,5.1,2.3c1,1,1.6,2.5,1.5,4c-0.6,8.6,0.9,17.3,2.6,25.5
	c0.6,3,1.3,5.6,2.9,7.8s3.9,3.5,6,4.7l10.5,6.2c3.6,2.1,8.3,5.4,7.8,10c-0.4,4-4.5,6.5-8.2,7.1c-1.8,0.3-3.6,0.4-5.4,0.3h-0.5
	c-1.9,0-3.9,0-5.8,0.3c-3.2,0.6-6.2,2-8.7,4.1c-3.9,3.3-6.5,7.8-7.4,12.8c-0.3,1.4-0.4,2.9-0.3,4.4v0.5c0.1,3.5,0.3,7.7-2.2,9.5
	c-0.4,0.3-0.8,0.5-1.2,0.6l0,0C621.7,960.1,619.6,932.6,618.7,905.4L618.7,905.4z M910.5,929.4c0.3-0.2,0.7-0.3,1.1-0.4
	c1.6,0,3.2,1.8,3.3,3.6c0,1.4-0.3,2.8-0.8,4c-0.3,0.8-0.5,1.6-0.7,2.4c-0.5,2.7,0.1,5.6,0.8,8.1l5.3,21.8l0.2,0.7
	c0.9,3.5,1.6,7.5-0.4,10.5c-1.1,1.6-2.9,2.7-5.5,3.5c-3.2,0.9-6.4,1.4-9.7,1.7c-2,0.2-4.2,0.4-6.3,0.8c-3.8,0.7-10.5,2.8-13,8.5
	c-1.9,4.3-4.3,9.2-8.3,12.5c-2.6,2.2-5.9,3.5-9.4,3.6c-1.6,0-3.3-0.4-4.7-1.1c-2.5-1.4-4.2-3.8-4.6-6.6c-0.4-2.2,0.2-4.4,1.8-6.1
	c4.6-4.6,0.1-12.5-1.3-14.8c-2.7-4.3-5.7-8.3-9.1-12.1l-0.2-0.3c-2.7-3-5.7-6.4-5.5-10.4c0.3-5.4,5.9-8.7,10.7-11l12.7-5.9l2.2-1
	c2.9-1.3,6.3-2.9,9.8-2.9h0.3c0.5,0,1,0,1.5,0C891.2,938.5,901.7,935.3,910.5,929.4L910.5,929.4z M946,1084.1c-1-0.5-1.8-1.4-2-2.6
	c-0.4-1.5-0.1-3.2,0.8-4.5c1.3-1.8,3.6-3.1,7-3.8c0.6-0.1,1.3-0.3,1.9-0.4h0.2c2-0.3,3.9-0.8,5.8-1.6c3.2-1.6,5.4-4.6,6.1-8.1
	c0.5-2.8-0.1-5.7-0.7-8.6c-0.7-3.3-1.4-6.7-0.3-9.9c2.3-6.5,10.3-8.3,17.1-9.2c0.4,0,0.8-0.1,1.2-0.1c1.6,0,3,0.4,3.7,1.1
	c0.4,0.4,0.6,0.9,0.6,1.4c-0.5,18.1-0.4,36.5,0.2,54.6c0.1,1.8,0.1,3.9-0.8,5.6c-1.2,2.4-3.8,3.6-7.7,3.6c-1.8,0-3.5-0.2-5.2-0.6
	c-2.7-2-4.6-5.1-6.3-8c-0.7-1.1-1.3-2.2-2-3.2c-1.4-2.1-5.3-6.9-10.3-6.9c-0.3,0-0.7,0-1,0.1c-0.9,0.1-1.7,0.4-2.6,0.6l0,0h-0.1
	c-1.1,0.4-2.2,0.6-3.4,0.7C947.2,1084.5,946.6,1084.3,946,1084.1L946,1084.1z"/>
<path class="st0" d="M780.6,336.2c-3.9,0.8-7.3,3.2-9.4,6.6c-1.5,2.3-1.9,5-1.2,7.7c1.2,4-2.7,7.7-7.1,9.4c-0.7,0.3-1.5,0.5-2.3,0.8
	l-0.1,0c-3.4,1.1-6.9,2.3-8.8,5.2c-1.2,1.9-1.6,4.2-1,6.3c0.8,3.2,2.7,5.9,5.5,7.7c4.8,3,11,3.1,15.9,3.1c0.9,0,1.8,0,2.8,0
	c4,0,8.3-0.2,12.2-1.8c5.9-2.4,10.8-8,13.5-15.5c2.4-6.7,2.9-13.9,3.4-20.8c0.2-1.1,0-2.1-0.4-3.1c-0.7-1.2-2-1.8-3.5-2.4
	c-4.5-1.6-10-3.7-15.5-3.7C783.2,335.8,781.8,335.9,780.6,336.2L780.6,336.2z M758.9,372.7c-0.4-0.8-0.3-1.7,0-2.5
	c0.7-1.4,1.8-2.5,3.3-3c1.2-0.4,2.3-0.6,3.5-0.8c1.2-0.1,2.3-0.4,3.5-0.7c4.9-1.7,7.7-7.3,8.5-16.9c0.1-1.6,0.4-3.4,1.7-4.3
	c0.6-0.4,1.4-0.6,2.2-0.6c0.5,0,1,0,1.5,0.1l4.3,0.5l4.4,0.5c0.5,0,0.9,0.1,1.3,0.4c0.8,0.6,0.8,1.7,0.7,2.7l-1.2,10.8
	c-0.6,5.6-2,12.3-7.3,14.3c-1.1,0.4-2.2,0.6-3.3,0.6c-1.7-0.1-3.4-0.3-5.1-0.7c-1.7-0.4-3.4-0.6-5.1-0.7c-0.7,0-1.5,0.1-2.2,0.2
	c-1,0.2-1.9,0.5-2.8,0.9c-0.9,0.4-1.9,0.7-2.8,0.9c-0.4,0.1-0.8,0.1-1.2,0.1C760.9,374.7,759.5,373.9,758.9,372.7L758.9,372.7z"/>
<path class="st0" d="M754.2,499.9c-4.2,8.9-4.5,20.2-1,31c3,9,8.5,17.7,16.8,26.6c3.5,3.8,7.8,7.6,13.2,7.8h0.3
	c6.6,0,11.7-5.9,15-10.3c7-9.4,12.7-19.7,17.2-30.5c1.8-4.5,3.5-9.8,1.6-14.4c-2.6-6.4-10.5-8.4-17.9-9.5l-15.5-2.3l-15.7-2.3
	c-1.6-0.2-3.1-0.4-4.7-0.4C758.6,495.7,755.5,497.1,754.2,499.9L754.2,499.9z M777.7,553.1c-6.2-5.6-11.3-12.4-15-19.9
	c-3.5-6.9-4.6-12.7-3.4-17.7c1.3-5.7,6.4-10.2,11.6-10.2c0.6,0,1.2,0.1,1.7,0.2l26.9,5.3l5.3,1c2.6,0.5,4.2,3.2,4.4,5.7
	c0.2,2.6-0.7,5.1-1.7,7.5c-4,9.7-9.3,18.7-15.9,26.8c-1.9,2.3-4.3,4.7-7.3,4.8h-0.1C781.8,556.5,779.5,554.8,777.7,553.1
	L777.7,553.1z"/>
<path class="st0" d="M801.9,628.9c-7.5,3.7-12,12.6-10.1,20.2c0.7,2.8,2.2,5.4,3.6,8c1.2,1.9,2.2,4,3,6.1c2.4,6.6,1.4,13.9-2.6,19.6
	c-1.7,2.6-2.3,5.8-1.4,8.8c1,3.9,3.6,7.3,7.1,9.2c2.5,1.2,5.2,1.9,8,1.8c4.4-0.1,8.7-1.3,12.5-3.4c5.1-2.8,9.4-6.8,13.7-10.8
	c1-0.9,2-1.8,2.9-2.7c5-4.5,11-9.3,18.2-10.9c1-0.2,2.1-0.4,3.2-0.6c3.5-0.6,7.2-1.2,9.5-3.8c3-3.4,2.3-8.6,0.1-12.1
	c-2.3-3.7-6.2-6.3-9.7-8.6c-8.6-5.7-17.5-11.6-27.7-14.5c-2-0.6-3.8-1.8-5.5-3l-0.1-0.1c-0.5-0.4-1.1-0.7-1.6-1.1
	c-4.1-2.7-8.9-4.1-13.8-4.1C808.1,626.7,804.9,627.5,801.9,628.9L801.9,628.9z M805.3,692.8c-1.6-2.1-2.3-4.9-1.8-7.5
	c0.5-2.2,1.3-4.3,2.4-6.3c0.9-1.8,1.6-3.6,2.2-5.6c2-8.2-3.1-16.3-6.3-20.3c-3.2-4.3-3.2-10.2,0.1-14.4c2.3-2.7,5.6-4.2,9.1-4.2
	c1.7,0,3.4,0.4,5,1.1l21.7,10.9l21.8,10.9c1.2,0.6,2,1.8,2,3.2c0.1,2.3-0.9,4.4-2.7,5.8c-2,1.5-4.6,2-7.1,2.5
	c-1.1,0.2-2.2,0.4-3.2,0.7c-7,1.9-12.5,7.3-17.8,12.5c-6.5,6.3-12.7,12.3-21.3,12.6h-0.2C807.7,694.7,806.3,694,805.3,692.8
	L805.3,692.8z"/>
<path class="st0" d="M672.7,703.8l-7.3,0.6l-7.3,0.6c-5.3,0.5-10.1,1.1-13.6,4c-5.2,4.4-5.4,11.9-5,16.1c0.2,2.3,0.6,4.5,1,6.8
	c0.6,3.4,1.2,7,1.1,10.5c-0.1,3.5-0.9,7-1.7,10.4l0,0v0.1c-0.7,2.9-1.3,5.8-1.6,8.7c-0.6,6.4,1.5,14,7.6,16.5c2.1,0.8,4.3,1,6.5,1.1
	l6.1,0.3l6.1,0.3c1.9,0.1,3.5,0.2,5.2,0.2c3.1,0.1,6.2-0.4,9.1-1.4c8.2-3.1,13.1-13.2,10.5-21.5c-0.3-1.1-0.8-2.2-1.2-3.2
	c-1-2.3-2-4.7-1.8-7.2c0.4-4.9,5-8.1,8.8-10c0.8-0.4,1.7-0.8,2.5-1.2c3.4-1.5,6.9-3.1,9.3-6.1c3.6-4.5,3.4-11.8-0.3-17
	c-3.2-4.5-8.7-7.6-15.5-8.8c-2.5-0.4-5.1-0.6-7.6-0.6C679.8,703.2,676.2,703.5,672.7,703.8L672.7,703.8z M646.1,763.5
	c-0.7-4,0.6-8.2,2-12l0.2-0.6c1.3-3.6,2.7-7.4,2.5-11.3c-0.1-2.8-1.1-5.5-2-8.2l0-0.1c-0.4-1.1-0.8-2.2-1.1-3.3
	c-0.8-2.8-1.8-8,1-11.6c2.6-3.2,7.1-3.9,11.5-4.3l6.8-0.6l6.6-0.6c2.8-0.2,5.9-0.5,8.9-0.5c6,0,10.5,1,14.3,3.1
	c1.3,0.7,2.5,1.6,3.4,2.8c2.4,3.5,0.7,8.4-2.2,11.2c-2.3,2.3-5.3,3.7-8.2,5.1c-0.8,0.4-1.7,0.8-2.5,1.2c-4.8,2.4-7.6,5.2-8.6,8.4
	c-1.3,3.9,0.2,8.2,1.6,12.3c1.6,4.7,3.1,9.1,0.9,13.2c-2.6,4.8-8.7,5.3-11.2,5.3c-0.5,0-0.9,0-1.3,0c-2-0.2-4-0.5-5.9-0.8
	c-2.5-0.5-4.9-0.8-7.5-0.9h-0.9h-0.3C650,771.2,646.8,767.3,646.1,763.5L646.1,763.5z"/>
<path class="st0" d="M703.8,1005.7c-5.5,4.1-8,12.3-6.1,19.9c0.3,1.3,0.8,2.6,1.2,3.9c0.8,2.5,1.7,5,1.8,7.7
	c0.1,6.1-4.4,11.3-8.1,14.6c-1.3,1.2-2.8,2.3-4.2,3.4l-0.2,0.1c-3,2.4-6.1,4.8-8.5,7.9c-1.9,2.4-3.1,5.1-3.7,8.1
	c-0.2,1.1-0.2,2.3-0.1,3.4l0,0v0.1c0.2,1.5,0.7,3,1.5,4.4c2.4,3.7,6.8,5.4,11.5,6.9l17.3,5.4c3,0.9,6.1,1.9,9.2,2.1
	c0.5,0,1,0.1,1.6,0.1c4.5,0,9-1.3,13-2.5c3.6-1.1,8.2-2.4,11-5.7c2.6-3,3.4-7.1,4.2-11.1c1-5,2-9.8,6.2-12.3c3-1.9,5.2-5,5.9-8.5
	c1-4.4,0.3-9.1-2.1-12.9c-2.3-3.5-5.6-6.3-9.5-8c-1.4-0.6-2.8-1.1-4.3-1.5h-0.1l0,0c-2.3-0.6-4.6-0.9-6.9-1c-4.3-0.2-7.2-4.6-8.1-9
	c-0.3-1.3-0.5-2.7-0.7-3.9c-0.5-3-0.9-6.1-2.5-8.6c-2.1-3.5-6.2-5.6-10.8-5.6C709.3,1002.9,706.3,1003.9,703.8,1005.7L703.8,1005.7z
	 M705.7,1082l-6.3-1.9l-6.3-2c-3.6-1.1-7.2-2.6-8.3-5.8c-1-2.8,0.4-5.8,2-7.7c1.5-1.6,3.2-3,5.1-4.2l1.4-1c4.4-3.2,8.3-7,11.5-11.5
	c3-4.2,4.4-7.8,4.4-11.3c0-3.1-1.1-6-2.1-8.9c-0.1-0.4-0.3-0.8-0.4-1.2c-1.2-3.3-2.2-6.9-1.3-10.3c0.8-3.2,3.7-5.7,6.5-5.7
	c0.4,0,0.8,0,1.1,0.1c3.1,0.7,4.8,4.1,5.4,7c0.2,1.3,0.3,2.5,0.4,3.8c0.1,1.8,0.4,3.6,0.8,5.4c2.3,7.5,10.5,10.8,19.1,13.4
	c2.5,0.7,5.4,1.6,7.7,3.4c2,1.6,3.8,4.5,3.1,7.4c-0.6,2.6-2.8,4.2-5.1,5.8c-1.6,1.2-3.3,2.4-4.4,4c-1.6,2.4-1.7,5.3-1.8,8.2
	c0,2-0.2,4-0.7,5.9c-1.8,6.2-8.3,9.5-14,10c-0.8,0.1-1.5,0.1-2.3,0.1C715.9,1085.2,710.5,1083.5,705.7,1082L705.7,1082z"/>
<path class="st0" d="M898.5,1120.4c-4,3.1-5.4,8.6-3.3,13.2c0.5,1,1,1.9,1.7,2.8v0.1c0.8,1.1,1.4,2.2,2,3.4c0.9,2.3,0.4,5.4-1.8,6.3
	c-10.8,4.4-17.8,16.9-15.8,28.5c0.8,4.6,2.9,8.5,5.8,10.8c2.5,2,5.8,3,9.7,3c2.7,0,5.3-0.4,7.9-1.2c2.4-0.7,4.7-1.6,7-2.5
	c3.4-1.4,6.9-2.5,10.4-3.3c2.3-0.4,4.6-0.6,7-0.7c4.9-0.3,9.9-0.7,13.9-3.4c4.7-3.2,7.3-9.4,6.7-16c-0.5-5.2-2.8-10.7-7-16.6
	c-2-2.8-1.7-6.3-1.3-9.8c0.1-1.1,0.2-2.1,0.2-3.1c0.1-2.8-0.9-5.4-2.7-7.5c-0.8-1-2.1-1.5-3.3-1.6c-0.4,0-0.7,0-1.1,0.1
	c-1.3,0.3-2.5,0.5-3.8,0.5c-4.1,0-8.2-1.4-12.2-2.8l-0.4-0.1l-1.6-0.6c-3.1-1.1-6.4-1.7-9.8-1.8
	C903.7,1117.9,900.9,1118.7,898.5,1120.4L898.5,1120.4z M895.6,1178.5c-2.2-0.8-4-2.6-5-4.8c-1.3-3-1.5-6.4-0.4-9.5
	c1.7-4.5,5.6-8.3,11.8-11.6l0.2-0.1c3.3-1.7,7-3.7,7.5-7.3c0.4-3-1.6-5.5-3.5-8l-0.4-0.5l-0.2-0.3c-2.1-2.7-3.6-6.5-1.6-9.1
	c1-1.2,2.4-1.8,4-1.7c2.1,0.1,4.1,0.7,5.9,1.6c3.6,1.8,7.5,3.5,10.9,3.5c1.9,0.1,3.8-0.7,5.2-2c0.3-0.3,0.7-0.4,1.1-0.4
	c0.9,0,1.7,0.6,2.1,1.4c0.5,1.1,0.3,2.3,0.2,3.5l0,0.3c-1.1,8.5,1.6,17,7.4,23.2c1.1,1.3,1.7,2.9,1.5,4.6c-0.2,2.3-1.3,4.5-3,6.1
	c-3.3,2.8-8,3.3-11.3,3.4c-0.8,0-1.5,0-2.3,0h-0.3c-3.1,0-6.3,0.1-9.4,1c-2.4,0.9-4.8,2-7,3.3c-3.5,1.9-6.7,3.7-10.2,3.7
	C897.6,1179,896.6,1178.8,895.6,1178.5L895.6,1178.5z"/>
<path class="st1" d="M907.4,584.8L907.4,584.8c-5,16.4-15.6,30.4-28.9,38.2c-8.3,4.9-17.7,7.5-27.3,7.5c-6.8,0.1-13.6-1.4-19.7-4.2
	c-6.4-3-12.1-7.5-17.5-11.8c-6.1-4.9-12.5-9.9-19.9-12.8c-5.1-2-10.5-3-16-2.9c-13.7,0-26,5.5-33.9,10.1c-3.1,1.8-6.3,3.9-9.2,5.7
	c-10.1,6.6-20.6,13.3-32.6,13.5h-0.3c-15.5,0-29.9-13-31.4-28.4c-0.3-2.6-3-4-5.4-4c-0.8,0-1.6,0.1-2.3,0.4c-3,1.3-4.9,4.2-6.6,7.1
	c-17.5,30.5-28.4,66.3-32.3,106.2c-3.4,34.8-1.5,72.8,5.6,112.9c2.1,11.9,4.7,24.5,9.6,36.2c4,9.7,9.8,19.4,18.1,30.4
	c10.8,14.4,28,31.6,48.4,31.6c1.2,0,2.4-0.1,3.6-0.2c9.3-0.9,18-5.6,25.3-13.4c6.8-7.5,11.5-16.6,13.6-26.5c4.3-19.7,0-40.6-3.8-59
	l-3.6-17.4l-3.6-17.3c-1.6-7.7-3.4-16.5-1.5-24.8c5.3-22.3,33.5-29.3,45.5-31.3c5.7-1,11.4-1.5,17.2-1.6c14.3,0,25.4,3.8,33,11.2
	c11.1,10.8,13.1,27.1,14.4,44.3l0.7,8.8l0.7,8.8c4.6-2.4,8.8-5.7,12.8-8.9c2.1-1.7,4.5-3.6,6.8-5.2c6.8-4.8,13.3-7.3,19.2-7.3
	c1.1,0,2.2,0.1,3.3,0.3c4.6,0.8,8.7,3.6,11.2,7.5c1.9,2.8,2.5,6.3,1.6,9.6c-1.6,5.5,1.3,10.5,4.4,15.8c2.4,4.2,5,8.5,5.1,13.1
	c0.4,10.5-11,17.4-21.8,19.4c-2.5,0.5-5.2,0.8-7.7,1.1c-8.1,1-16.4,2.1-22.7,7.1c-1.2,0.9-2.6,1.4-4.1,1.3c-3.4-0.1-6.5-1.8-8.3-4.6
	c-2.7-4.1-2.9-9.6-3.1-14c-6.4,19.2-9.6,39.3-9.4,59.5c0.1,13.1,9.9,25.6,23.9,30.6c5.1,1.8,10.4,2.6,15.8,2.6
	c8.4-0.1,16.8-1.8,24.6-4.9c16-6.2,30.2-16.8,42.3-31.6c10.9-13.4,19.7-29.9,25.3-47.6c10.9-34.6,10.7-71.8,9.6-106.8
	c-0.9,0.2-1.8,0.4-2.8,0.4c-6,0-11.6-5-12-10.7c-5,8.9-11.5,18.3-21.3,21.1c-1.3,0.4-2.7,0.5-4,0.5c-5.3,0-10.9-2.7-13.9-6.7
	c-2.1-2.6-2.9-6.1-1.9-9.4c1.2-4.3,4.9-7.3,8.4-10.2c1-0.9,2-1.7,3-2.5c6.2-5.6,6.7-11.9,4.2-15.2c-5-6.6-4.4-17.2,1.5-24.1
	c5-5.9,13.4-9.4,22.5-9.4h0.9c0.7,0,1.3-0.3,1.7-0.8c0.9-1.3,0.8-3.8,0.3-5.5C951.7,634.9,932.7,606.7,907.4,584.8L907.4,584.8z
	 M809.6,702.5c-2.8,0-5.5-0.6-8-1.8c-3.6-1.9-6.1-5.3-7.1-9.2c-0.8-3-0.3-6.2,1.4-8.8c4-5.7,5-13,2.6-19.6c-0.8-2.1-1.8-4.1-3-6.1
	c-1.4-2.5-2.9-5.1-3.6-8c-1.9-7.6,2.6-16.5,10.1-20.2c2.9-1.4,6.2-2.2,9.4-2.1c4.9,0,9.7,1.5,13.8,4.1c0.5,0.4,1.1,0.7,1.6,1.1
	l0.1,0.1c1.7,1.2,3.5,2.4,5.5,3c10.1,2.9,19,8.8,27.7,14.5c3.5,2.3,7.3,4.8,9.7,8.6c2.2,3.5,2.8,8.8-0.1,12.1
	c-2.3,2.6-6,3.2-9.5,3.8c-1.1,0.2-2.2,0.4-3.2,0.6c-7.2,1.6-13.2,6.5-18.2,11c-1,0.9-2,1.8-2.9,2.7c-4.2,3.9-8.6,8-13.7,10.8
	C818.3,701.2,814,702.4,809.6,702.5L809.6,702.5z M639.8,752.9c0.8-3.4,1.6-6.9,1.7-10.4c0.1-3.5-0.5-7.1-1.1-10.5
	c-0.4-2.3-0.8-4.6-0.9-6.8c-0.4-4.1-0.2-11.7,5-16.1c3.5-3,8.2-3.6,13.6-4l7.3-0.7l7.3-0.6c3.4-0.3,7-0.6,10.6-0.6
	c2.6,0,5.1,0.2,7.6,0.6c6.7,1.2,12.3,4.3,15.5,8.8c3.7,5.2,3.9,12.5,0.3,17c-2.3,2.9-5.9,4.5-9.3,6.1c-0.8,0.4-1.7,0.8-2.5,1.2
	c-3.8,1.9-8.5,5.1-8.8,10c-0.2,2.5,0.8,4.9,1.8,7.2c0.4,1,0.9,2.1,1.2,3.2c2.6,8.4-2.3,18.4-10.5,21.5c-2.9,1-6,1.5-9.1,1.4
	c-1.6,0-3.3-0.1-5.2-0.2l-6.1-0.3l-6.1-0.3c-2.2-0.1-4.4-0.2-6.5-1.1c-6.1-2.5-8.2-10-7.6-16.5C638.5,758.7,639,755.8,639.8,752.9
	L639.8,752.9L639.8,752.9z"/>
<path class="st1" d="M765.2,742.9L765.2,742.9c-6.2,2-11.6,6.5-15.6,12.8c-3.7,6.1-5.8,13-6.2,20.1c-0.7,12.3,2.7,24.5,6,36.3
	c0.4,1.6,0.9,3.2,1.3,4.7c5.6,20.3,11,46.8,3.4,71.2c-3.5,11.1-10.1,21-18.8,28.6c-9.3,8-19.8,12.2-30.5,12.2
	c-1.2,0-2.5-0.1-3.7-0.2c-13.3-1.2-26.6-9-39.7-23.1c-24.1-26.3-37.8-60.4-38.6-96c-5.5,25.2-6.6,51.2-3.1,76.8c0.9-4,5-5.8,8.6-5.8
	c2.3,0,4.5,0.7,6.4,2c5.2,4,6.6,11.2,7.2,16.3c0.1,1,0.2,2,0.3,3c0.5,5.1,1,10.3,3.5,14.8c3,5.3,8.2,8.7,13.4,12
	c1.8,1.1,3.6,2.3,5.3,3.5c6.9,5,12.4,13.4,9.1,20.7c-3,6.7-11.3,8.3-19.3,9.9c-8.6,1.7-16.8,3.2-18.6,10.8c-0.4,2.3-0.6,4.6-0.5,7
	c0,4.9,0.1,9.4-4,10.6c-3.4,1-3.8,5.4-3.6,8.9l2.3,45.3l2.4,46.5c0.8,15.1,1.6,30.6,3.9,45.8c4,26.5,12.7,52,25.6,75.5
	c5.6,10.2,13.6,22.6,25.9,28.6c5.2,2.5,10.8,3.7,16.6,3.7c13.4,0,28-6.6,38-17.3c14.7-15.7,20.6-37.3,24.1-54.3
	c4.8-23.7,6.9-47.9,6.2-72.1c-0.1-2.1,0.7-4.1,2.2-5.5c2.3-2.3,6.1-3.8,10.1-3.8c1.1,0,2.1,0.1,3.2,0.3c3.3,0.7,6.3,2.2,9.3,3.6
	c3.2,1.5,6.5,3,10,3.7c1.8,0.3,3.6,0.5,5.5,0.5c2.3,0,4.6-0.2,6.8-0.4h0.1c2.3-0.2,4.6-0.4,6.8-0.4c5,0,8.5,1,11.5,3.1
	c6.7,4.9,7.3,13.9,7.5,23.6c0.4,27.1,4.2,54,11.5,80.2c3.6,13,8.3,26.4,18.2,36.1c8.6,8.5,20.9,13.2,34.6,13.2
	c12.2,0,24.1-3.6,34.3-10.3c18.3-12.3,31.8-34.3,38-62.1c4.1-18.4,5-37.6,5.8-56.2v-0.3c0.3-5.9,0.5-11.9,0.9-17.8
	c-0.8-1-2-1.5-3.2-1.5c-2,0-4.3,1.2-6.7,2.5l-0.4,0.2c-2.8,1.5-5.3,2.7-7.7,2.7c-0.3,0-0.6,0-1-0.1c-4.3-0.6-5.9-4.7-7.7-9.1
	c-1.3-3.4-2.7-6.9-5.4-8.9c-2.3-1.8-5.3-2.1-8.3-2.5c-2-0.2-3.9-0.6-5.8-1.2c-4.2-1.5-7.2-6-7.4-11.3c-0.3-5.3,2.2-10.1,6.3-12
	c1.7-0.7,3.5-1.3,5.4-1.7c1.6-0.3,3.2-0.8,4.8-1.3c3.4-1.4,6.3-5,5.1-8.3c-2.1-5.9-1-12.8,3.1-18.7c4.2-6,10.5-9.5,16.9-9.5
	c0.4,0,0.8,0,1.2,0c0.2,0,0.3,0,0.5,0c1.7,0,3.4-0.7,4.5-2c3-3.2,3.8-9.4,3.6-13.8c-3-49.3-9-98.4-18.1-147
	c-8.2,18.9-21,35.4-37.1,48.3c-10.1,8-8.7,23.6-7.6,29.9c0.5,3,1.2,6,1.8,9c1.7,7.5,3.4,15.3,2.4,23c-1.2,9.4-9,19.4-18.5,19.4
	c-1,0-2-0.1-3-0.4c-0.8-0.2-1.6-0.3-2.5-0.3c-6.5,0-12,5.8-14,8.2c-1.2,1.4-2.3,3-3.3,4.3c-2.7,3.7-5.5,7.5-9.4,10
	c-3,1.9-6.5,2.9-10,2.8c-4.5,0.1-8.9-1.5-12.3-4.4c-6-5.2-8.1-14.6-4.7-21.9c2.7-6-1.9-10.9-6.7-16.1c-2.9-3.1-5.8-6.3-7.4-9.8
	c-3.3-7.3,0.1-15.4,4-20.1c4.7-5.6,11.4-9.4,17.4-12.7c-10.5-0.7-23.8-9.4-28.3-27.1c-3.5-13.8-0.9-28.6,1.3-41.6l1.1-6.2l7.3-42
	c1.4-8.3,2.4-16.3-1.4-22.9c-2.2-3.7-6.9-6.2-11.4-6.2c-3.5,0-6.3,1.6-7.8,4.2c-4.5,8.5-13.8,17.1-24.5,17.1c-1.3,0-2.6-0.1-3.9-0.4
	c-6-1.2-11.2-6.8-12.6-13.7c-1.1-5.5,0.4-10.2,4.3-13c1.7-1.2,2.7-3.1,2.9-5.1c0.3-3.5-0.9-7-3.2-9.7c-2-2.3-4.6-4.2-7.1-5.9
	c-2.1-1.4-4.1-2.9-5.9-4.6C764,753.8,761.7,747.1,765.2,742.9L765.2,742.9L765.2,742.9z M717.2,1093.6c-0.6,0-1.1,0-1.6-0.1
	c-3.2-0.2-6.2-1.2-9.2-2.1l-17.3-5.4c-4.7-1.5-9.2-3.1-11.5-6.9c-3.2-5-1.2-11.6,2.2-16c2.4-3,5.5-5.5,8.5-7.8l0.2-0.1
	c1.4-1.1,2.8-2.2,4.2-3.4c3.8-3.3,8.2-8.5,8.1-14.6c0-2.7-0.9-5.2-1.8-7.7c-0.5-1.3-0.9-2.6-1.2-3.9c-1.9-7.6,0.6-15.8,6.1-19.9
	c2.5-1.8,5.5-2.8,8.5-2.7c4.7,0,8.8,2.1,10.8,5.6c1.6,2.6,2,5.7,2.5,8.6c0.2,1.2,0.4,2.6,0.7,3.9c1,4.3,3.9,8.8,8.1,9
	c9.1,0.4,16.9,4.3,20.8,10.6c2.4,3.9,3.1,8.5,2.1,12.9c-0.7,3.5-2.9,6.6-5.9,8.5c-4.1,2.5-5.1,7.3-6.2,12.3c-0.8,4-1.7,8.1-4.2,11.1
	c-2.8,3.3-7.4,4.6-11,5.7C726.1,1092.4,721.6,1093.7,717.2,1093.6L717.2,1093.6z M896.8,1188.4c-3.9,0-7.1-1-9.7-3
	c-3-2.3-5.1-6.1-5.8-10.8c-2-11.5,5-24.1,15.8-28.5c2.2-0.9,2.7-4,1.8-6.3c-0.5-1.2-1.2-2.4-2-3.4l0-0.1c-0.6-0.9-1.2-1.8-1.7-2.8
	c-2.1-4.6-0.7-10.1,3.3-13.2c2.4-1.7,5.2-2.5,8.1-2.4c3.3,0.1,6.6,0.7,9.8,1.8l1.7,0.6l0.4,0.1c4,1.3,8.1,2.8,12.2,2.8
	c1.3,0,2.6-0.1,3.8-0.5c0.3-0.1,0.7-0.1,1.1-0.1c1.3,0,2.5,0.6,3.4,1.6c1.8,2.1,2.8,4.8,2.7,7.5c0,1-0.1,2-0.2,3.1
	c-0.3,3.5-0.6,7.1,1.3,9.8c4.3,5.9,6.6,11.3,7,16.6c0.6,6.5-2,12.8-6.7,16c-4,2.7-9.1,3.1-13.9,3.4c-2.3,0.1-4.7,0.4-7,0.7
	c-3.6,0.8-7.1,1.9-10.4,3.3c-2.3,0.9-4.6,1.8-7,2.5C902.2,1188,899.5,1188.4,896.8,1188.4L896.8,1188.4z"/>
<path class="st1" d="M806.8,272.3c-23.7,0-47.3,3.9-69.7,11.6c-2.7,0.9-5.8,2.2-7.1,4.8c-0.7,1.5-0.6,3.2,0.3,4.6
	c0.5,1,1.5,1.6,2.7,1.7c0.2,0,0.3,0,0.5,0c1.1-0.2,2.2-0.3,3.3-0.3c6.1,0,13.4,2.9,16,9.5c1.3,3.3,0.7,7.4-1.6,10.8
	c-2,2.9-5,4.7-7.9,4.7c-0.6,0-1.1-0.1-1.6-0.2c-1.1-0.2-2.3-0.4-3.5-0.4c-7.2,0-15.3,4.8-21.4,12.9c-2.2,2.8-4.1,5.9-6,8.9
	c-3.3,5.2-6.7,10.6-11.3,14.8c-4.6,4.2-10.8,6.7-16.4,6.7c-3.7,0.1-7.4-1.2-10.2-3.7c-3-2.8-7.1-4.3-11.7-4.3
	c-5.5,0-10.8,1.9-15,5.4c-7.3,6-12,16.1-12.8,27.7c-0.7,10.5,1.4,21,3.5,31.1l15.6,76l15.6,76c2.1,10.4,4.5,22.2,10.6,31.8
	c6.3,10.1,16.3,16.3,26.1,16.3c0.5,0,1.1,0,1.6-0.1c7.9-0.6,14.9-5,21.6-9.3c26.9-17.1,40.7-19.4,50.5-19.4c3.9,0,7.8,0.5,11.6,1.5
	c10.1,2.7,18.9,9,27.5,15.2c10.1,7.3,20.5,14.7,32.9,15.9c1.1,0.1,2.2,0.2,3.3,0.2c9.2,0,18.5-3.7,26.6-10.7
	c7.7-6.7,13.6-15.2,17.3-24.8c6.1-15.8,6.8-33.1,7.6-49.9c0.2-4.5,0.4-8.5,0.7-12.6c1.6-24.2,6-48.1,13-71.2c1.3-4.2,2.7-8.4,4-12.5
	c3.6-10.9,7.2-22.1,9.2-33.5c4.2-24.8,0.5-50.3-10.6-72.9c-1.3,0.7-2.7,1.1-4.2,1.1c-1.5,0-3-0.4-4.3-1.2c-1.6,5.1-7.2,8.7-13.2,8.7
	c-0.9,0-1.8-0.1-2.7-0.3c-5.9-1.1-11.3-5.5-14.9-12c-0.9-1.7-2.9-2.7-5.2-2.7c-1.1,0-2.2,0.2-3.3,0.7c-2.4,1-4.2,2.8-6.1,4.6
	l-0.2,0.1c-0.4,0.4-0.8,0.8-1.2,1.2c-5,4.6-10.5,7.1-15.6,7.1c-0.7,0-1.4,0-2.1-0.1c-3.7-0.6-7-2.8-9-5.9c-1.6-2.3-2-5.2-1.3-7.9
	c0.9-2.7,2.9-4.8,4.9-6.9c2.1-2.2,4.3-4.5,5-7.4c1-4-1-7.7-3-11.5c-1.1-1.9-2-3.9-2.7-6c-2.3-7.3,1.3-16.1,8.1-19.6
	C836.1,273.9,821.5,272.3,806.8,272.3L806.8,272.3z M774.7,383c-0.9,0-1.8,0-2.8,0c-4.9-0.1-11.1-0.2-15.9-3.1
	c-2.8-1.7-4.7-4.5-5.5-7.7c-0.6-2.2-0.2-4.4,1-6.3c1.9-2.9,5.4-4,8.8-5.2l0.1,0c0.8-0.3,1.6-0.5,2.3-0.8c4.4-1.7,8.3-5.4,7.1-9.4
	c-0.7-2.6-0.3-5.4,1.2-7.7c2.1-3.4,5.5-5.8,9.4-6.6c1.3-0.3,2.6-0.4,4-0.4c5.4,0,11,2,15.5,3.7c1.5,0.5,2.8,1.1,3.5,2.4
	c0.4,1,0.5,2.1,0.4,3.1c-0.5,6.9-1,14.1-3.4,20.8c-2.7,7.4-7.6,13-13.5,15.5C783,382.8,778.8,383,774.7,383L774.7,383z M783.4,565.3
	h-0.3c-5.3-0.1-9.6-4-13.2-7.8c-8.3-8.9-13.8-17.6-16.8-26.6c-3.5-10.7-3.2-22,1-31c1.3-2.8,4.4-4.3,9.2-4.3c1.6,0,3.2,0.1,4.7,0.4
	l15.7,2.3l15.5,2.3c7.4,1.1,15.2,3.1,17.9,9.5c1.9,4.6,0.2,9.8-1.6,14.4c-4.4,10.8-10.2,21.1-17.2,30.5
	C795.2,559.5,790.1,565.3,783.4,565.3L783.4,565.3z"/>
<path class="st1" d="M930.5,296.5c-4.5,0.1-8.8,2.1-11.8,5.5c-2,2.2-2.9,5.2-2.4,8.2c0.6,3.4,2.9,6.1,5.2,8.7
	c0.6,0.7,1.1,1.3,1.6,1.9c7,8.6,9.7,19.7,12.3,30.4c2.2,9,4.5,18.2,9.2,26.1c6.4,10.7,6.4,23.6,6.5,36.2c0.1,12.3,0.1,25.1,6.2,35.7
	c1.1,1.9,2.8,4.5,5.5,5.6c1,0.4,2,0.6,3.1,0.6c4,0,8-2.8,11-5.2c21.1-16.7,40.9-35,59.2-54.6c5.1-5.5,9.8-11,11.7-17.8
	c2.4-8.8-1.7-16.2-6.7-18.7c-31.1-15.4-60.9-33.2-89.3-53.2c-6.4-4.5-13-9.2-20.7-9.5L930.5,296.5L930.5,296.5z"/>
<path class="st1" d="M660.2,299c-1.1,0-2.2,0.4-2.9,1.3c-21.8,22.9-48,41.3-76.9,54.1l-0.9,0.4c-14.1,6.2-30.1,13.3-33.4,28.1
	c-2.3,10.4,2.9,20.8,8.3,29.5c13.5,21.9,30.5,41.4,50.4,57.8c1.9,1.5,3.9,3,6.2,3h0.2c5.2-0.2,6.8-7.5,7.2-9.7
	c1.9-11.8,1.4-24,0.9-35.8c-0.4-8.5-0.7-17.3-0.2-25.9c2.1-31.7,16.2-61.3,39.5-82.9l0.3-0.3c3.6-3.3,7.6-7,8-11.8
	c0.1-2-0.6-3.9-2-5.2C663.7,300,662,299.1,660.2,299L660.2,299z"/>
<path class="st2" d="M863,282.5c-3.2,0-6.6,1.2-9.5,2.4c-1.4,0.5-2.8,1.2-3.9,2.2c-2.2,2.3-1.9,6-0.6,8.7c0.8,1.6,1.7,3,2.7,4.4
	c0.8,1.1,1.6,2.2,2.2,3.4c4.1,7.4,2.3,17.6-4.1,23.2c-0.9,0.8-1.2,2.1-0.9,3.2c0.3,1.6,1.5,3,3.1,3.5c0.5,0.1,1,0.2,1.5,0.2
	c2,0,4.3-1.1,6.1-3c1-1,1.9-2.2,2.7-3.3c0.8-1.2,1.7-2.3,2.7-3.3c3.1-3.1,7.2-4.8,11.6-4.8c1.2,0,2.4,0.1,3.5,0.4
	c5.4,1.3,9.8,5.4,11.6,10.7c0.8,2.4,3.2,3.9,6.4,3.9c2.1,0,4.2-0.6,6-1.7c1.7-1.2,3.4-2.6,4.9-4.1c2-1.9,4-3.8,6.4-5
	c-10.2-19.2-30.1-30.7-48-40C866.2,282.8,864.6,282.4,863,282.5L863,282.5z"/>
<path class="st2" d="M715.3,291.4c-1.2,0.1-2.3,0.4-3.4,0.8c-30.8,12.1-54,31.6-65.2,55.1c-0.6,1.2-1.2,2.7-0.8,4
	c0.3,1,1.2,1.6,2.2,1.7c0.4,0,0.8-0.2,1.1-0.5c3.6-3.7,8.6-5.7,13.7-5.7c4.5-0.1,8.9,1.5,12.3,4.5c2.4,2,5.4,3.1,8.5,3
	c4.5-0.1,8.8-1.7,12.2-4.6c4.9-4.1,8.1-9.9,11.2-15.5l0.1-0.2c0.5-0.9,1-1.9,1.6-2.8c3.4-5.9,8.1-13.1,15.4-15.9
	c2.5-0.9,5.1-1.5,7.7-1.8c5.1-0.9,9.8-1.7,12.8-5.5c-2.8-4.4-7.6-7.2-12.8-7.3h-0.3c-1.1,0-2.1,0.1-3.2,0.2c-1,0.1-2.1,0.2-3.1,0.2
	c-0.8,0-1.6-0.1-2.4-0.2c-1.8-0.4-3.4-1.6-4.4-3.2c-0.6-1-0.7-2.1-0.3-3.2c0.2-0.6,0.1-1.2-0.1-1.7c-0.4-0.8-1.2-1.3-2-1.5
	C715.8,291.4,715.5,291.4,715.3,291.4L715.3,291.4z"/>
<path class="st2" d="M781.6,344c-0.8,0-1.5,0.1-2.2,0.5c-1.3,0.9-1.6,2.7-1.7,4.3c-0.8,9.6-3.6,15.1-8.5,16.9
	c-1.1,0.4-2.3,0.6-3.5,0.7c-1.2,0.1-2.4,0.4-3.5,0.8c-1.4,0.5-2.6,1.6-3.3,3c-0.4,0.8-0.4,1.7,0,2.5c0.6,1.3,2,2.1,3.9,2.1
	c0.4,0,0.8,0,1.2-0.1c1-0.2,1.9-0.5,2.8-0.9c0.9-0.4,1.8-0.7,2.8-0.9c0.7-0.1,1.4-0.2,2.2-0.2c1.7,0.1,3.4,0.3,5.1,0.7
	c1.7,0.4,3.4,0.6,5.1,0.7c1.1,0,2.2-0.2,3.3-0.6c5.3-2,6.7-8.7,7.3-14.3l1.2-10.8c0.1-1,0.1-2.2-0.7-2.7c-0.4-0.2-0.9-0.4-1.3-0.4
	l-4.4-0.5l-4.3-0.5C782.6,344.1,782.1,344.1,781.6,344L781.6,344z"/>
<path class="st2" d="M810.9,634.5c-3.5,0-6.8,1.5-9.1,4.2c-3.3,4.2-3.3,10.1-0.1,14.4c3.2,4,8.4,12.1,6.3,20.3
	c-0.5,1.9-1.3,3.8-2.2,5.6c-1,2-1.8,4.1-2.4,6.3c-0.5,2.6,0.1,5.4,1.8,7.5c0.9,1.2,2.3,1.9,3.9,2h0.2c8.6-0.3,14.8-6.3,21.3-12.6
	c5.4-5.2,10.9-10.5,17.8-12.5c1-0.3,2-0.5,3.2-0.7c2.5-0.5,5-1,7.1-2.5c1.8-1.4,2.8-3.5,2.7-5.8c0-1.4-0.8-2.6-2-3.2l-21.8-10.9
	l-21.7-10.9C814.3,634.9,812.6,634.5,810.9,634.5L810.9,634.5z"/>
<path class="st2" d="M682.4,710.4c-3,0-6,0.2-8.9,0.5l-6.6,0.6l-6.8,0.6c-4.4,0.4-8.9,1-11.5,4.3c-2.8,3.6-1.9,8.8-1,11.6
	c0.3,1.1,0.7,2.2,1.1,3.3l0,0.1c0.9,2.6,1.9,5.3,2,8.2c0.2,3.9-1.2,7.6-2.5,11.3l-0.2,0.6c-1.4,3.9-2.7,8-2,12
	c0.7,3.8,3.8,7.8,7.9,7.8h0.3h0.9c2.5,0.1,5,0.4,7.5,0.9c2,0.4,3.9,0.7,5.9,0.8c0.5,0,0.9,0,1.4,0c2.5,0,8.6-0.5,11.2-5.3
	c2.2-4,0.7-8.5-0.9-13.2c-1.4-4.1-2.9-8.3-1.6-12.3c1-3.3,3.9-6,8.7-8.4c0.8-0.4,1.6-0.8,2.5-1.2c2.9-1.3,5.9-2.8,8.2-5.1
	c2.9-2.8,4.6-7.7,2.2-11.2c-0.9-1.2-2-2.2-3.4-2.8C692.9,711.5,688.3,710.5,682.4,710.4L682.4,710.4z"/>
<path class="st2" d="M960.4,680.4c-0.7,0-1.4,0-2.2,0.1c-6.1,0.7-11.3,3.3-14.4,7.2c-3.6,4.6-4,11.2-0.8,15.4
	c3.6,4.8,2.4,11.7-0.3,16.4c-2.4,4-5.9,7.3-9.2,10.5c-0.8,0.8-1.7,1.5-2.5,2.3c-1.5,1.5-3.5,3.7-2.9,6.1c0.6,2.3,3.2,3.3,5.5,3.5
	c0.4,0,0.9,0.1,1.3,0.1c7.1,0,14-5.3,15.6-12.2c0.1-0.6,0.2-1.1,0.4-1.7c0.5-2.3,0.9-4.8,2.8-6.1c1-0.6,2.1-0.9,3.2-0.8
	c1,0,2,0.1,3,0.3l8.1,1.3l8.1,1.3c-1.1-11-2.7-21.9-4.9-32.7c-0.7-3.5-1.7-7.5-4.7-9.6C964.6,680.8,962.5,680.3,960.4,680.4
	L960.4,680.4z"/>
<path class="st2" d="M793.2,736.8c-4.7,0-9.6,0.2-13.9,0.5c-2.4,0.1-4.6,0.3-6.3,1.6c-1.7,1.3-2.5,3.5-2.6,6.2c0,4.6,2.3,9,6.2,11.5
	c1.6,1,3.3,1.7,5,2.4c1.6,0.6,3.1,1.3,4.6,2.1c5.9,3.5,8.7,11.6,6.3,18.1c-0.8,1.9-1.8,3.8-2.9,5.5c-2.2,3.7-4.3,7.1-3.3,11
	c1.1,4.2,5.5,6.1,9.2,6.1c1.3,0,2.7-0.2,3.9-0.7c4.3-1.7,7.7-5.7,10.2-11.8c2-4.9,7.4-8.3,13.3-8.6c0.3,0,0.6,0,1,0
	c4.7,0,9.8,1.8,14.7,5.1c-1-8.2-2-16.6-4.9-24.6c-3.2-8.8-8.6-15.7-15.2-19.4c-4.7-2.7-10.4-4.1-18.1-4.7
	C798.2,736.9,795.8,736.8,793.2,736.8L793.2,736.8z"/>
<path class="st2" d="M880,789.6c-3.9,0-7,1.1-9.1,3.2c-1.4,1.5-1.9,3.5-1.3,5.5c0.3,1,1.1,1.7,2.1,1.8c2.3,0.2,4,1.9,4.9,4.5
	c0.7,2.4,0.5,5.7-1.8,7.6c-1.4,1.2-3.2,1.8-5,1.8c-3.5,0-6.7-1.8-8.5-4.8c-0.9-1.3-2.4-2.1-4-2c-0.9,0-1.7,0.2-2.5,0.5
	c-2.3,1-3.8,3.1-5.2,5c-2.3,3.1-4.8,6.5-5.4,10.6c-0.5,3.9,1.6,8.6,5.5,9.4c1.9,0.4,2.8,2.6,2.8,4.6c0,0.5,0,1,0,1.5v0.2
	c-0.2,1.4,0,2.8,0.4,4.2c0.6,1.2,1.8,2,3.1,2c0.6,0,1.3-0.3,1.6-0.8c1.6-2.3,4.5-3.5,8.7-3.5c0.7,0,1.3,0,2.1,0.1l1.4,0.1h0.1
	c1.4,0.1,2.9,0.3,4.3,0.3c2,0.1,4-0.4,5.8-1.3c2.8-1.6,6.1-1.9,9.2-2.3c1-0.1,1.9-0.2,2.8-0.4c3.7-0.6,8.5-2,10.4-6
	c2.6-5.3-1.3-11.1-5.4-16.1c-3.8-4.6-7.6-11.1-4.2-16.1c1.3-1.9,0.5-4.6-1.1-6.1c-1.5-1.5-4-2.3-6-2.7
	C883.9,789.9,882,789.7,880,789.6L880,789.6z"/>
<path class="st2" d="M628.4,887c-0.3,0-0.6,0-0.9,0.1c-3.4,0.5-6.4,3.4-7.8,7.3c-1.3,3.6-1.1,7.6-1,11.1c0.9,27.2,3.1,54.6,6.5,81.6
	c3.7-1.2,3.5-6.1,3.4-10.1v-0.5c-0.3-10.2,7-19.8,16.4-21.3c1.9-0.3,3.8-0.4,5.8-0.3h0.5c1.8,0,3.6-0.1,5.4-0.3
	c3.7-0.6,7.9-3.1,8.2-7.1c0.4-4.6-4.3-7.9-7.8-10l-10.5-6.2c-2.1-1.2-4.4-2.6-6-4.7s-2.3-4.8-2.9-7.8c-1.7-8.2-3.2-16.9-2.6-25.5
	c0.1-1.5-0.5-2.9-1.5-4C632.2,887.8,630.4,887,628.4,887L628.4,887z"/>
<path class="st2" d="M911.7,929.1c-0.4,0-0.8,0.1-1.1,0.4c-8.9,5.9-19.3,9.1-30,9.1c-0.5,0-1,0-1.5,0h-0.3c-3.5,0-6.8,1.6-9.8,2.9
	l-2.2,1l-12.7,5.9c-4.9,2.3-10.5,5.6-10.7,11c-0.2,4,2.8,7.4,5.5,10.4l0.2,0.3c3.3,3.8,6.4,7.8,9.1,12.1c1.5,2.3,5.9,10.3,1.3,14.8
	c-1.5,1.6-2.2,3.9-1.8,6.1c0.4,2.8,2.1,5.3,4.6,6.6c1.5,0.7,3.1,1.1,4.7,1.1c3.4-0.1,6.8-1.3,9.4-3.6c4-3.4,6.4-8.2,8.3-12.5
	c2.6-5.7,9.3-7.7,13-8.5c2.1-0.4,4.2-0.6,6.3-0.8c3.3-0.2,6.5-0.8,9.7-1.7c2.6-0.8,4.4-2,5.5-3.5c2-2.9,1.3-6.9,0.4-10.5l-0.2-0.7
	l-5.3-21.8c-0.6-2.5-1.3-5.4-0.8-8.1c0.2-0.8,0.4-1.6,0.7-2.4c0.5-1.3,0.8-2.7,0.8-4C914.9,930.8,913.3,929,911.7,929.1L911.7,929.1
	z"/>
<path class="st2" d="M982.9,1035.4c-0.4,0-0.8,0-1.2,0.1c-6.7,0.9-14.8,2.7-17.1,9.2c-1.1,3.2-0.4,6.6,0.3,9.9
	c0.6,2.8,1.2,5.8,0.7,8.6c-0.6,3.5-2.9,6.5-6.1,8.1c-1.8,0.8-3.8,1.3-5.8,1.6h-0.2c-0.6,0.1-1.3,0.2-1.9,0.4c-3.4,0.7-5.7,2-7,3.8
	c-0.9,1.3-1.2,3-0.8,4.5c0.3,1.1,1,2.1,2,2.6c0.6,0.3,1.2,0.4,1.9,0.4c1.2-0.1,2.3-0.3,3.4-0.7h0.1l0,0c0.8-0.3,1.7-0.5,2.6-0.6
	c0.3,0,0.7-0.1,1-0.1c5.1,0,8.9,4.9,10.3,7c0.7,1,1.3,2.1,2,3.2c1.8,2.9,3.6,5.9,6.3,8c1.7,0.4,3.5,0.5,5.2,0.6
	c3.9,0,6.5-1.2,7.7-3.6c0.9-1.7,0.8-3.8,0.8-5.6c-0.7-18.2-0.7-36.6-0.3-54.6c0-0.5-0.2-1.1-0.6-1.4
	C985.9,1035.8,984.6,1035.4,982.9,1035.4L982.9,1035.4z"/>
<path class="st2" d="M907.9,1125.8c-1.5-0.1-3,0.5-4,1.7c-2,2.5-0.5,6.3,1.6,9.1l0.2,0.3l0.4,0.5c1.9,2.5,4,5,3.6,8
	c-0.5,3.6-4.2,5.6-7.5,7.3l-0.2,0.1c-6.3,3.3-10.1,7.1-11.8,11.6c-1.1,3.1-1,6.5,0.4,9.5c0.9,2.2,2.7,3.9,5,4.8c1,0.3,2,0.5,3.1,0.5
	c3.4,0,6.7-1.8,10.2-3.7c2.2-1.3,4.6-2.4,7-3.3c3-0.9,6.2-1,9.4-1h0.3c0.8,0,1.5,0,2.3,0c3.3-0.1,8-0.6,11.3-3.4
	c1.8-1.5,2.8-3.7,3-6.1c0.2-1.7-0.4-3.3-1.5-4.6c-5.8-6.3-8.5-14.8-7.4-23.2l0-0.3c0.2-1.2,0.3-2.4-0.2-3.5
	c-0.4-0.8-1.2-1.4-2.2-1.4c-0.4,0-0.8,0.1-1.1,0.4c-1.4,1.4-3.3,2.1-5.2,2c-3.4,0-7.3-1.7-10.9-3.5
	C912,1126.5,910,1125.9,907.9,1125.8L907.9,1125.8z"/>
<path class="st2" d="M712,1010.6L712,1010.6c-2.8,0-5.7,2.5-6.5,5.7c-0.9,3.4,0.1,6.9,1.3,10.3c0.1,0.4,0.3,0.8,0.4,1.2
	c1.1,2.9,2.1,5.8,2.1,8.9c0,3.5-1.4,7.1-4.4,11.3c-3.2,4.4-7,8.3-11.5,11.5c-0.5,0.3-0.9,0.7-1.4,1c-1.9,1.2-3.6,2.6-5.1,4.2
	c-1.6,1.9-3,4.9-2,7.7c1.1,3.1,4.7,4.6,8.3,5.8l6.3,2l6.3,2c4.8,1.5,10.2,3.2,15.6,3.2c0.8,0,1.5,0,2.3-0.1c5.7-0.5,12.1-3.8,14-10
	c0.5-1.9,0.7-3.9,0.7-5.9c0.1-2.9,0.2-5.8,1.8-8.2c1.1-1.6,2.8-2.8,4.4-4c2.3-1.7,4.5-3.2,5.1-5.8c0.7-2.9-1.1-5.8-3.1-7.4
	c-2.3-1.8-5.1-2.6-7.7-3.4c-8.5-2.5-16.8-5.9-19.1-13.4c-0.5-1.8-0.7-3.6-0.8-5.4c-0.1-1.3-0.2-2.6-0.4-3.8c-0.5-2.9-2.2-6.3-5.4-7
	C712.7,1010.7,712.3,1010.6,712,1010.6L712,1010.6z"/>
<path class="st3" d="M770.8,505.3c-5.2,0-10.2,4.5-11.6,10.2c-1.2,5-0.1,10.8,3.4,17.7c3.8,7.5,8.9,14.2,15.1,19.9
	c1.8,1.7,4,3.4,6.5,3.4h0.1c3,0,5.3-2.4,7.3-4.8c6.6-8.1,12-17.1,15.9-26.8c1-2.3,1.9-4.9,1.7-7.5c-0.2-2.4-1.8-5.2-4.4-5.7l-5.3-1
	l-26.9-5.3C772,505.4,771.4,505.3,770.8,505.3L770.8,505.3z"/>
<path class="st3" d="M1268.9,764.9c-1.8-0.1-3.5,0.7-4.6,2c-10.1,11.7-21.9,21.7-35.1,29.8c-4,2.4-8.2,4.7-12.2,6.9
	c-4.6,2.5-9.3,5.1-13.8,8c-27.5,17.4-47.5,44-64.9,70.1c-3.2,4.8-6.5,9.8-9.6,14.6c-14.2,21.8-28.8,44.2-47.3,62.8
	c-25.3,25.5-54.8,39.5-83.1,39.5c-0.6,0-1.2,0-1.9,0h-0.1c-1.7,0-3.2,1.1-3.9,2.7c-1.1,2.4-0.9,5.2,0.6,7.3c2.7,3.4,7.3,4.3,11.9,5
	c8.1,1.2,16.4,2.4,24.7,2.4c1,0,2,0,2.9-0.1c38.3-1.3,67.2-30.8,81.1-48.2c11.2-14,20.7-29.6,29.9-44.7l0-0.1l0,0
	c7.4-12.2,15.1-24.8,23.6-36.5c20.2-27.6,45.4-51.1,74.3-69.2l1.9-1.2c15-9.3,32-19.9,34.2-37.2c0.4-2.8,0.5-7.9-2.7-11.5
	C1273.4,765.9,1271.2,764.9,1268.9,764.9L1268.9,764.9z"/>
</svg>
