<?xml version="1.0" encoding="utf-8"?>
<!-- Generator: Adobe Illustrator 22.0.1, SVG Export Plug-In . SVG Version: 6.00 Build 0)  -->
<svg version="1.1" id="Draw_Layer" xmlns="http://www.w3.org/2000/svg" xmlns:xlink="http://www.w3.org/1999/xlink" x="0px" y="0px"
	 viewBox="0 0 1804 1482" style="enable-background:new 0 0 1804 1482;" xml:space="preserve">
<style type="text/css">
	.st0{fill:#161616;}
	.st1{fill:#6EDAF4;}
	.st2{fill:#725AF7;}
	.st3{fill:#BEBEBE;}
</style>
<title>Deer</title>
<path class="st0" d="M962.4,265c-0.2,0.4-0.4,1-0.7,1c-5.9,0.5-9.1,8.2-7.7,12.9c0.8,2.1,2.4,3.8,4.4,4.8
	c7.4,3.5,14.1,8.5,19.5,14.7c4,4.2,7.2,9.1,9.6,14.4c2,5,4.4,9.9,6.2,15c0.9,3,1.5,6.1,1.7,9.3c0.4,3.1,0.3,6.3,0.6,9.5
	c0.2,1.5,1.1,3.1,1,4.6c-0.4,5.4-0.8,10.8-1.5,16c-0.7,4.4-1.8,8.7-3.2,12.9c-1.5,4.9-3.7,9.6-5.8,14.3c-2.8,6.6-5.6,13.2-8.8,19.5
	c-2.1,3.7-4.5,7.4-7,10.8c-3.9,6-7.7,12.1-11.8,18c-3,4.4-6.2,8.7-9.3,12.8c-3.5,4.5-6.7,9.4-10.8,13.3c-3.4,3.2-7.2,6.6-12.2,7.6
	c-3.1,0.7-6.2,1.2-9.4,1.3c-8.7,0-17.4,0-26.2,0c-6.7,0-13.3,0-19.9,0c-5.3,0-10.5,0.6-15.8,0.4c-3,0.1-6-0.5-8.7-1.7
	c-2.9-1.7-5.4-4.1-7.3-7c-2-3.4-3.7-7.1-5-10.8c-1.9-4.6-3.6-9.5-5.4-14.2c-0.9-2.3-1.9-4.6-2.7-7c-0.8-2.1-1.5-4.3-2.1-6.4
	c-1.1-3.7-2.2-7.4-3.1-11.1c-0.7-3.1-1.3-6.3-1.8-9.5c-0.6-3.9-0.8-7.9-1.7-11.7c-1.7-7.3-1.5-14.6-1.5-22c0-3.2,0.1-6.3,0.6-9.5
	c0.6-4,1.8-7.9,2.6-11.8c0.2-1-0.1-2.2,0.2-3.2c1.1-4.2,2.2-8.4,3.7-12.5c1-2.8,3-5.3,3.8-8.1c1.1-3.7,3.4-6.7,5.3-10
	c1.8-3.2,3.8-6.2,5.9-9.1c3.2-4,6.6-7.8,10.3-11.4c4.6-4.3,9.8-8.1,15.3-11.2c3.3-1.9,6.2-4.3,5.8-8.9c-0.4-4.9-5.1-10.2-9.7-12.2
	c-5-2.2-9.1-0.1-13.3,1.8c-6.8,3.1-11.2,9.1-16.1,14.4c-0.5,0.5-1,1-1.5,1.5c-4.6,5.2-9.3,10.3-13.9,15.5
	c-3.5,3.9-6.9,7.9-10.3,11.9c-3.4,4-7.2,8.1-10.6,12.4c-1.4,1.7-2.1,1.2-3.5,0c-4-3.9-6.3-8.7-8.7-13.7c-2.4-5.3-4.2-10.8-8.3-15.5
	c-5.3-6-11.5-7.8-18.9-7.1c-2.2,0.2-6,4.9-6,7.2c-0.2,3.7-0.2,7.4,0.1,11.1c0.6,3.6,1.5,7.2,2.6,10.8c2,7.4,5.7,13.9,9.4,20.6
	c4.4,7.7,10.6,13.9,16.9,19.9c4.2,4,7.7,8.7,10.4,13.8c1.5,3,1.6,6.5,0.4,9.6c-0.6,1.8-2.8,2.1-4.4,0.9c-5.9-4.1-11.7-8.2-17.6-12.2
	c-4.2-2.8-8.4-5.6-12.9-8c-3.5-1.9-7.3-1.2-10.9-0.3c-0.5,0.1-1,1.5-0.9,2.4c-0.1,3.8,0.1,7.6,0.6,11.3c0.6,2.8,1.8,5.4,3.5,7.7
	c2.5,3.5,5.3,6.8,8.6,9.6c4.1,3.2,8.4,6.1,12.8,8.8c3.5,2.3,6.9,4.6,10.5,6.5c6.8,3.6,12.1,8.8,17.3,14.2c3.1,3.6,5.6,7.7,7.2,12.1
	c1.5,3.4,0.6,6.6,0.9,9.9c-0.2,1.3-0.6,2.6-1.3,3.7c0,0.1-0.8,0-1.1,0c-3.2-1.2-6.3-2.5-9.5-3.7c-4.5-1.7-9.1-3.3-13.6-4.8
	c-0.6-0.2-1.2-0.3-1.9-0.3c-0.5,0-1,0-1.5-0.1c-8.1-1.6-16.3-2.3-24.5-1.9c-0.1,0-0.4,0.6-0.4,0.7c0.9,1.2,1.9,2.3,2.8,3.4
	c2.3,2.6,4.4,5.5,6.9,7.9c4.7,4.7,9.7,9.1,15,13.3c5.1,3.9,10.7,7,16.2,10.4c3.7,2.3,7.5,4.5,11.4,6.5c3.6,1.8,7.5,3.2,11.2,4.9
	c0.2,0.5,0.2,1,0,1.4c-4,3.4-8,6.7-12,10c-2.8,2.3-5.7,4.5-8.5,6.9c-2.7,2.4-3.2,2.3-6.1,0c-4.2-3.4-8.6-6.5-12.9-9.8
	c-2.7-2-5.3-4.1-8.1-5.9c-2.8-1.8-5.8-3.7-8.9-5.3c-3.9-2.1-7.7-4.2-11.8-6.2c-3.2-1.5-6.6-2.8-9.9-4.1c-2.8-1.1-5.6-2.2-8.4-3.2
	c-2.8-1-5.8-2.1-8.8-2.9c-3.7-1.1-7.4-2.2-11.1-3.1c-3.7-0.9-7.4-1.1-11-2.2c-4.1-1.2-8.4-0.9-12.5-1.7c-8.4-1.7-16.8-1.4-25.2-1.5
	c-1.9,0-3.8,0-5.8,0.1c-0.1,1-0.1,2.1,0,3.1c0.3,0,0.6,0,0.7,0c1.3,3.8,2.6,7.7,4,11.5c1.2,3.1,2.4,6.2,3.8,9.3
	c1.7,3.5,3.6,7,5.5,10.4c2.7,4.8,5.4,9.7,8.4,14.3c2.6,4.1,5.5,8,8.6,11.8c3.2,4.1,6.7,8.1,10.3,11.9c3.9,4,8.2,7.7,12.5,11.5
	c4.9,4.1,9.9,8.1,15.1,11.8s10.4,7.2,15.9,10.5c3.9,2.3,8.2,4,12.3,6.2c0.3,0.1,0.4,0.9,0.3,1.4c-0.6,2.8-1.5,5.5-2,8.3
	c-0.8,3.9-1.3,7.9-1.9,11.9c-0.7,3.1-1.1,6.3-1.2,9.4c0.2,11.6-1.1,23.3,1,34.9c0.8,4.5,1.4,9,2,13.5c0.1,1.2,0.2,2.4,0.4,3.6
	c0.7,2.9,1.6,5.8,2.4,8.7c0.8,2.9,1.5,6.2,2.5,9.2c1.3,3.8,2.9,7.6,4.5,11.3c1.8,4.3,3.5,8.6,5.6,12.8c2.1,4.2,4.4,8.3,6.9,12.3
	c3.3,5.2,6.8,10.3,10.5,15.3c1.8,2.5,1.9,3.3-0.2,5.7c-1.2,1.2-2.3,2.6-3.3,4c-2.6,4.3-5,8.7-7.4,13.1c-2.1,3.9-4.2,7.7-6.1,11.8
	c-1.4,3.1-2.3,6.4-3.5,9.6c-1.4,3.7-3.1,7.4-4.1,11.3c-1.4,5.1-2.4,10.2-3.2,15.4c-0.9,5.4-1.4,10.8-1.5,16.3
	c-0.3,5.5,0,11.1,0.7,16.6c0.9,5.4-0.4,11.2-0.8,16.8c-0.2,3.4-0.1,6.9-0.6,10.3c-0.6,3.6-1.9,7.1-2.6,10.8c-0.7,3.7-1,7.7-1.7,11.4
	c-0.9,4.5-2.2,9-3.1,13.5c-0.7,3.2-1.3,6.5-1.5,9.8c-0.2,4.6-0.7,9.1-1.5,13.6c-0.6,3.8-0.8,7.7-0.7,11.6c-0.1,4.3,0,8.6,0,13
	c0.1,8.9-0.3,17.7,1.5,26.6c1,4.8,1.1,9.8,1.7,14.7c0.5,4.1,1.3,8.3,1.9,12.4c0.2,1.1,0,2.3,0.2,3.4c0.8,3.1,1.9,6.2,2.6,9.4
	s1.2,6.2,1.9,9.2c0.9,3.7,2,7.2,2.9,10.8c0.9,3.6,1.3,7,2.2,10.4c1.3,4.6,2.9,9.3,4.2,13.9c0.9,3.1,1.3,6.2,2.2,9.3
	c1.3,4.3,2.9,8.5,4.2,12.8c1.2,3.7,2.2,7.4,3.2,11.1c1.2,4.3,2.2,8.6,3.3,13c1.1,4.3,2.3,8.7,3.5,13.1c1,3.7,2.1,7.4,3.1,11.1
	c0.7,2.8,1.3,5.8,2.1,8.6c1.3,4.3,2.9,8.5,4.2,12.8c1.2,3.7,2.2,7.4,3.2,11.1c1.2,4.3,2.1,8.6,3.3,13s2.4,8.7,3.5,13.1
	c1,3.6,2,7.3,2.9,10.9c0.8,2.9,1.4,5.9,2.3,8.8c1.3,4.2,2.8,8.4,4.2,12.5c1.1,3.8,2.4,7.6,4,11.3c2.4,4.6,5.1,9.1,8,13.4
	c1.5,2.2,3.2,4.3,5.1,6.2c1.6,1.6,3.4,3,5.3,4.2c2.8,1.8,5.6,3.9,8.8,4.7c3.6,0.9,7.5,0.5,11.3,0.7c3.1,0.2,6.2,0.3,9.3,0.6
	c1.5,0.1,3.2,1,4.3,0.4c4.1-2.1,8.1-4.5,11.8-7.2c2.2-1.5,3.7-4.2,5.4-6.3c2.7-3.6,5-7.4,6.9-11.4c2.7-5.4,4-11,5.4-16.6
	c1.1-5,1.7-10.1,1.7-15.2c0.3-5.4,0-10.8,0-16.2c0-3.3,0.3-6.7,0.5-10c0.3-3.3,0.7-6.7,1.1-10.1c0.2-1.4,0.3-2.9,0.6-4.3
	c0.1-0.5,0.4-0.9,0.9-1.1c1.6-0.5,3.3-0.9,4.9-1.1c5.3-1,10.7-1.7,16.1-2.1c9.1-0.3,18.2-0.7,26.8,3.5c4.3,2.2,8.3,4.9,12,8
	c1.4,1.1,2.1,2.9,3.3,4.2c2.7,3.1,4.4,6.9,4.8,10.9c0.8,7,0.4,14,0.8,21c0.2,3.1,0.9,6.3,1.3,9.4c0.1,1.2,0.2,2.4,0.4,3.6
	c0.7,2.6,1.7,5.2,2.5,7.9c0.7,2.7,1.5,5.3,2.5,7.9c1.8,4,4,7.9,6.2,11.7c2.2,3.8,4.6,7.6,7.1,11.3c1.2,2,2.5,3.8,4,5.6
	c1.8,2.2,3.9,4.1,6.2,5.8c2.8,1.7,5.7,3.1,8.7,4.4h16c1.5-0.7,2.9-1.8,4.4-1.9c2.9-0.1,5-1.8,6.9-3.4c5.8-4.3,10.2-10,12.9-16.7
	c1.7-4,3.2-8,4.5-12.1c1.1-3.9,1.3-7.9,2-11.9c2.4-13.4,0.8-26.8,0.9-40.2c0.2-11-0.4-22-1.7-33c-0.9-6.8-0.3-13.4-0.8-20.1
	c-0.2-2.2-0.5-4.3-0.5-6.5c0.1-7,0.2-14.1,0.6-21.1c0.3-4.7,1-9.4,1.5-14.1c0.4-3.1,0.9-6.2,1.5-9.3c0.9-4,2.1-7.9,3.3-11.9
	c0.4-0.5,1-0.7,1.5-0.6c3.1,0.9,6,1.9,9.1,2.8c1.1,0.3,2.2,0.5,3.3,0.6c3.2,0.5,6.4,1.1,9.7,1.4c3.1,0.4,6.3,0.5,9.5,0.5h1.8
	c3.3,0.1,6.6-0.1,9.8-0.6c5.2-1.1,10.4-2.5,15.5-4.3c4.5-1.4,9-3,13.3-4.9c3.7-1.5,7.2-3.6,10.4-6c6.2-4.9,12.1-10.3,17.6-16
	c3.8-4.5,7.1-9.3,9.8-14.5c2.4-4.3,4.5-8.7,6.2-13.3c1.1-2.9,1.3-6.1,2.3-9c1.5-5,1.5-10.1,1.5-15.2c0.1-1.9,0.4-3.9,0.9-5.7
	c0.1-1.9,0.1-3.9,0-5.8c-0.6-2.6-0.8-5.3-1.5-7.7c-2-6.6-4.3-13.1-6.4-19.7c-0.3-1,0-1.1-1-0.4c-4.9,2.9-9.7,5.9-14.8,8.5
	c-6.4,3.2-12.8,6.5-19.4,9.1c-6.7,2.5-13.6,4.7-20.5,6.5c-5,1.4-10.2,2.3-15.4,3.2c-4.1,0.7-8.4,0.6-12.6,1.5
	c-4.2,1-8.6,0.2-12.9,0.2c-1.9,0-1.8-1.3-1.5-2.6c0.5-1.2,0.8-2.4,0.9-3.6c-0.4-6.8,0.9-13.6-0.9-20.4c-0.9-3.5-0.6-7.3-1.7-10.9
	c-1.5-5.2-2.2-10.8-3.4-16.1c-0.7-3.3-1.3-6.6-2.3-9.8c-1.3-4.3-2.9-8.5-4.1-12.8s-2.3-8.4-3.2-12.7c-1.2-4.9-2.4-9.8-3.2-14.8
	c-0.9-5.8-1.2-11.6-1.7-17.4c-0.2-2.7-0.2-5.4,0-8.1c0.2-4.3,0.7-8.7,1.1-13c0.2-1.9-0.2-4.1,0.7-5.6c2.3-4.2,0.8-8.6,1.2-12.9
	c0.6-4.9-0.7-10-1.4-14.9c-0.4-3.8-1-7.6-2-11.3c-1.2-4.3-3.3-8.4-4.4-12.7c-1.5-5.7-4.4-10.6-7.2-15.6c-2.8-5.2-6.2-10-10.1-14.4
	c-5.1-5.6-11-10.5-16.7-15.6c-2.8-2.5-4.9-5.3-4.8-9.1c0.1-1.8,0.5-3.5,1.1-5.2c1.2-3.5,2-7.2,3.9-10.2c3.1-4.8,6.9-9.2,10.4-13.8
	c1.7-2.1,3.4-4.3,4.9-6.6c2.8-4.6,5.5-9.2,8-13.9c2.5-4.5,4.7-9.2,6.6-13.9c1.5-4.1,2.6-8.4,3.9-12.7c0.9-3.3,2-6.6,2.6-9.9
	c0.8-3.8,1.3-7.6,1.6-11.5c0.4-4.5,0.5-9,0.6-13.5c0-3.7-0.3-7.4-0.5-11.1c-0.2-2.6,0.2-5-0.9-7.7c-1.3-3.1-1.2-6.7-1.8-10
	c-0.5-3.2-1.2-6.3-2.1-9.4c-1.2-3.9-3.1-7.5-4.3-11.4c-1.7-5-0.9-10.5,2.2-14.7c5.6-7.7,13.3-13,21.3-18c5.9-3.4,11.6-7.3,17-11.5
	c7.6-6.4,15-13.2,20.7-21.5c2.8-4.2,6-8.1,8.9-12.2c1.4-2.1,2.6-4.3,3.6-6.6c2-4.1,3.9-8.3,5.8-12.4c1.4-3.1,2.8-6.2,3.9-9.4
	c1.3-3.5,2.3-7.2,3.2-10.8c0.4-1.3,0-2.4-1.9-2.4c-8.1,0.4-16.2,0.6-24.4,1.2c-3.6,0.2-7.1,1-10.6,1.5c-1.5,0.2-2.9,0.2-4.3,0.6
	c-3.3,0.8-6.7,1.7-10,2.7c-2.9,0.8-5.8,1.5-8.7,2.5c-3.8,1.4-7.6,2.9-11.3,4.5c-4.3,1.8-8.6,3.5-12.8,5.6c-4.2,2.1-8.3,4.4-12.3,6.9
	c-4.5,2.8-8.8,5.7-13.1,8.8c-3.2,2.3-6.2,5-9.3,7.6c-1,1.1-2.2,2-3.4,2.8c-4.4,1.8-8,5-13,5.8c-2.9,0.7-6,0.7-8.9,0
	c-4.4-0.9-8.1-3.8-10.2-7.7c-0.4-0.9-0.4-0.8,0.3-1.2c5.1-3.1,10.2-6.2,15.3-9.3c2.1-1.1,4.3-2.1,6.6-2.9c2.7-1.1,5.4-2.2,8.1-3.2
	c2.4-0.9,4.7-1.5,7.1-2.3c3.9-1.1,7.7-2.1,11.6-3.1c2-0.5,4.4-0.6,6-1.7c3.3-2.6,5.2-6.5,5.1-10.7c0.1-1.9-0.4-3.7-1.4-5.3
	c-1.6-2.9-3.7-5.5-6.2-7.6c-2.7-1.7-5.7-2.8-8.9-3.1c-4.5-0.6-9.1-0.1-13.4,1.4c-1.2,0.3-2.4,0.4-3.6,0.4c-0.4,0-0.9,0.2-1.3,0.2
	c0.2-0.4,0.3-0.9,0.6-1.1c3.6-2.8,7.2-5.6,10.8-8.2c3.7-2.9,7.5-5.5,11.6-7.7c6.3-3,12.7-5.7,19.3-8c4.4-1.6,9-2.7,13.7-3.4
	c4.2-0.7,9.4-4,9.8-8.1c0.5-5.1,0.7-10.4-2.6-15.1c-3.1-4.9-8.5-7.8-14.3-7.7c-3,0-6,0.3-8.9,0.5c-0.3,0-0.7-0.1-1-0.2
	c0.3-0.1,0.6-0.1,0.9-0.3c4.2-2.2,8.4-4.4,12.6-6.8c3.1-1.7,5.9-3.9,9-5.6c3.8-2.1,7.7-3.8,11.6-5.9c4.2-2.3,8.3-4.6,12.4-7.1
	c4.5-2.6,8.7-5.3,11.9-9.8c3.4-4.8,2.5-9.5,2.2-14.5c0-0.8-0.3-1.7-0.8-2.4c-2.2-2.9-5.7-4.6-9.4-4.6c-3.3-0.1-6.7,0.6-9.7,2.1
	c-3,1.5-6.3,2.6-9.4,4c-4.1,1.9-8.1,3.9-12.2,5.7s-8.1,3.4-12.1,5.2c-3.4,1.5-6.9,3.1-10.2,4.6c-1.1,0.5-1,0.3-1.2-0.7
	c-0.3-2.8-0.9-5.5-1.7-8.2c-1.3-3.8-3.1-7.6-4.7-11.3c-1.7-4-3.6-7.9-5.8-11.6c-2.6-4.1-5.5-8.1-8.5-11.8
	c-5.5-6.8-12-12.9-19.3-17.8c-2.4-1.7-5-3.1-7.5-4.6c-4.3-3-9.2-4.9-14.4-5.7c-0.4,0-0.8-0.7-1.4-1L962.4,265z M943.8,482.1
	c4.7-4.3,8.6-9.3,11.7-14.8c1-1.6,2.1-3.2,3.2-4.6l0.2-0.2l0.1-0.2c0.8-1.1,1.7-2.2,2.5-3.3c1.3-1.9,2.5-4,3.7-6l0.1-0.2l0.3-0.5
	l0.2-0.3c0.8-1.3,1.5-2.7,2.4-4c0.9-1.3,1.7-2.7,2.6-4c1.3-2.1,2.7-4.2,4-6.4c3.4-5.9,6.5-11.7,9.2-16.7c3.3-6.2,6.4-12.2,9.1-17.8
	c1-2,1.8-4.1,2.6-5.9V397l0.1-0.2l0.9-2.2l1.7-4c1.3-3.2,3.2-7.6,4.8-11.7l0.6-1.5c1.6-3.7,2.7-7.6,3.2-11.5
	c0.2-2.9,0.7-5.8,1.7-8.5c1.5-3.9,1.2-7.8,1-11.7c-0.1-1.3-0.2-2.5-0.2-3.8c-0.2-2.8-0.7-5.5-1.7-8.1l-0.1-0.4
	c-0.3-0.8-0.5-1.7-0.7-2.5s-0.3-1.2-0.5-1.8l-0.2-0.7c-0.7-3-1.6-5.9-2.7-8.8c-1.1-2.4-2.3-4.8-3.7-7.1l-0.1-0.2l-0.1-0.2
	c-0.6-1-1.2-2.1-1.7-3.1c-6.1-11.2-15.2-20.1-24-28.8l-1-1c-0.4-0.5-0.8-1-1.1-1.5l-0.2-0.3l-0.2-0.4v-0.1l0,0l0,0l0,0l0,0l0.5,0.1
	h0.2h0.3c0.7,0.1,1.3,0.3,2,0.7c1.4,0.8,2.8,1.7,4.3,2.6l0.3,0.2c1.4,0.9,3.1,1.9,4.6,2.8c5.6,3.1,10.7,7.1,15,11.9
	c5.1,5.6,9.7,11.5,13.9,17.7c2,3.3,3.5,6.7,4.6,10.4l0.3,0.7l0.8,2.2c1.7,4.5,3.2,9.3,4.3,13c0.2,0.8,0.3,1.6,0.4,2.5
	c0,0.7,0.1,1.4,0.2,2.1c0.8,3.3,2.7,4.8,6.3,5.1c0.4,0,0.9,0,1.3,0c5.5,0,10.4-2.2,14.9-4.5c2.8-1.5,5.9-2.8,8.1-3.8h0.2
	c1.4-0.6,2.8-1.2,4.1-1.9l3.3-1.5l0.9-0.4l3.5-1.6c5.5-2.6,11-5.1,16.5-7.7c0.2-0.1,0.5-0.1,0.7-0.1h0.3c0.4-0.1,0.8-0.2,1.2-0.4
	h0.4h0.2l0,0l-0.2,0.6c-0.1,0.3-0.3,0.6-0.4,1c-1.6,5-4.6,9.5-8.7,12.8c-4.4,4-9.5,7.2-14.9,9.5l-3.9,1.5c-4.1,1.5-8.2,3.1-12.4,4.6
	c-1.4,0.5-2.8,1-4.2,1.5l-0.5,0.2l-0.9,0.3c-2.6,0.9-5.9,2-9,3.2c-2.8,1.2-5.4,2.6-7.9,4.3l-1.7,1.1c-3.4,2.1-6.6,4.5-9.6,7.2
	c-1.7,1.9-2.9,4-3.8,6.4l-0.1,0.3c-0.2,0.4-0.4,0.9-0.6,1.3c-0.7,1.6-1,3.2-1.1,4.9c0.1,5,3.8,9.1,8.7,9.7h0.3
	c2.2-0.2,4.4-1,6.1-2.5c4.3-3.3,9-5.9,14.1-7.7c4.6-1.7,9.5-2.7,14.4-3h0.8h0.2c0.7,0.1,1.3,0.2,1.9,0.5l0.9,0.4l0,0
	c0,0.3-0.1,0.6-0.2,0.9c-0.1,0.7-0.3,1.3-0.7,1.9c-3.4,4.8-8.1,8.5-13.5,10.8l-3.3,1.4c-2.6,1.1-5.7,2.6-8.9,3.7
	c-2.2,0.8-4.5,1.3-6.3,1.8c-1.7,0.4-4.2,1.1-6.3,1.8c-4.5,1.5-9.3,3.6-14.3,5.9c-5.8,2.7-10.3,7.5-12.6,13.5
	c-1.5,3.7-2.8,7.1-2.5,10.8c0.3,2,0.8,3.9,1.5,5.8l0.4,1.2c0.3,1.1,1.4,1.7,2.5,1.5h0.2c3.3-0.1,6.6-0.2,9.9-0.3h1.1
	c3.6-0.1,7.3-0.2,10.8-0.3c1.3-0.1,2.5-0.3,3.8-0.6c0.8-0.2,1.5-0.3,2.3-0.4h0.2c0.3,0,0.7,0.1,1,0.1h0.2l0.3,0.1h0.1
	c-0.1,0.2-0.3,0.4-0.4,0.7c-0.2,0.4-0.4,0.7-0.7,1c-2.9,2.9-6.5,5-10.4,6.1c-2.9,0.9-6,1.7-8.7,2.3h-0.2l-2,0.5
	c-1.1,0.3-2.3,0.5-3.5,0.8h-0.2h-0.2c-1.8,0.4-3.4,0.7-5,1.2c-4.1,1.3-8.4,2.6-12.5,4.3c-5,2.1-8.3,6.1-10.9,9.8
	c-4.1,6.1-3.4,14.2,1.7,19.5c4.3,4,9.2,7.3,14.6,9.7c3.5,1.9,7.4,2.9,11.4,3c1.8,0,3.5-0.7,4.8-1.9c0.2-0.2,0.4-0.3,0.5-0.5
	c0.2-0.2,0.4-0.4,0.6-0.6c1.7-1.5,3.3-3.1,5-4.5l0.2-0.2l0.2-0.2c3.7-3.4,7.5-7,11.5-10.2c5.2-4.2,10.7-8.1,16.5-11.6
	c5.8-3.7,11.8-7,18-9.9c5-2.2,10.1-4.1,15.4-5.7l4.3-1.5c4.5-1.5,9.3-3.1,14.6-4.5c3.5-0.8,7-1.4,10.5-1.8h0.3
	c2.4-0.4,4.9-0.6,7.4-0.9l5.7-0.7c0.8-0.1,1.5-0.2,2.3-0.4h0.2c0.9-0.2,1.9-0.4,2.9-0.5c0.2,0,0.5,0.3,0.7,0.7c0,0,0.4,0.5,0.3,0.7
	c-1.5,3.7-2.8,6.5-4.2,9.1c-1.5,3.1-3.5,6.7-5.7,10.6c-1,1.9-2.2,3.8-3.5,5.6c-3.8,5-7.8,10.2-12.1,15.5c-3.2,3.9-6.6,7.6-10.1,11.2
	c-3.8,3.7-7.9,7.2-12.1,10.5c-4.7,3.6-9.7,6.9-14.8,9.9c-4.7,2.7-9.5,5.1-14.5,7.3c-7.6,3.4-12.2,12.9-10.1,20.7
	c0.5,1.8,1.2,3.6,2,5.4c0.5,1.2,1.1,2.4,1.5,3.7c0.8,2.4,1.5,4.6,2.2,7.1l0.7,2.2l0.5,1.8l0.1,0.4c0.5,1.8,1.2,4,1.7,6.1
	c0.2,0.9,0.4,1.9,0.5,2.9c0,0.5,0.1,1,0.2,1.5c0.1,0.9,0.3,1.9,0.4,2.8v0.2c0.3,1.9,0.6,4,0.8,6.1c0.3,6,0.5,11.7,0.5,17
	c0.1,4.1-0.1,8.3-0.6,12.4c-0.4,2.6-1,5.2-1.7,7.7l-0.1,0.4l-0.1,0.5l-0.1,0.5c-0.2,0.9-0.4,1.7-0.6,2.6c-0.1,0.6-0.2,1.2-0.3,1.8
	c-0.1,0.7-0.2,1.3-0.3,2c-0.2,1.1-0.5,2.2-0.7,3.3l-0.1,0.6c-0.6,3.2-1.4,6.4-2.5,9.6c-0.4,1.1-0.8,2.2-1.2,3.4
	c-2,6.1-4.7,12.1-7.8,17.7c-1.3,2.2-2.6,4.4-3.9,6.6l-0.2,0.4c-1.7,2.9-3.8,6.5-5.9,9.8c-1.7,2.5-3.5,4.9-5.5,7.2l-2.7,3.1
	c-3.5,4-7.4,8.5-11.5,12.6c-4.2,4.1-8.6,7.8-13.4,11.3c-3.1,2.2-6.3,4.1-9.5,6l-3.4,2c-0.3,0.2-0.7,0.3-1.1,0.2h-0.3
	c-0.1,0-0.1,0-0.2,0l0,0l0.3-0.4c0.2-0.3,0.4-0.5,0.7-0.7c8.1-5.4,14.6-12.3,21-18.9c4.4-4.7,8.6-9.6,12.6-14.7
	c7.7-9.9,14.3-20.6,19.6-31.9c2.4-4.9,4.3-10.1,5.9-14.5c1-2.9,1.8-5.9,2.4-9c0.3-1.3,0.5-2.8,0.7-4.2v-0.2v-0.2
	c0.2-1.9,0.6-3.7,1-5.5c1.9-6.9,1.7-13.8,1.4-20.3c-0.3-4.1-0.9-8.1-1.8-12.1l-0.3-1.5l-0.4-1.9c-0.6-4-1.6-8-2.9-11.8
	c-1-2.5-2.2-4.8-3.6-7.1l-0.2-0.3c-0.9-1.5-1.7-3.1-2.5-4.6c-2.2-4.6-5.3-8.7-9.1-12.1c-3.7-3.5-7-6.1-11.3-7.1
	c-0.9-0.2-1.9-0.4-3.1-0.5c-1.7-0.2-3.3-0.6-4.9-1.2c-2-0.8-4.2-1.2-6.4-1.2c-1.3,0-2.7,0.1-4,0.2h-0.7h-0.8h-0.7
	c-2,0.2-3.9,0.5-5.8,1.1h-0.2l-0.2,0.1c-1.8,0.5-3.7,0.9-5.6,1.1c-3.4,0.4-6.6,1.5-9.6,3.1l-0.8,0.4l-1.9,0.9c-4.3,1.7-8.3,4-11.8,7
	c-1.3,1.2-2.7,2.4-4.1,3.6L937,564l-0.5,0.4l-0.6,0.5c-2.7,2.3-5.5,4.6-8.1,7.3c-4.7,4.9-8.6,10.4-11.7,16.4
	c-0.4,0.9-0.9,1.7-1.4,2.5l-0.2,0.4l-0.2,0.3v0.2c-0.7,1.2-1.3,2.4-2,3.7c-0.9,1.9-1.8,3.9-2.8,6.4c-0.3,0.9-0.6,1.7-0.9,2.6
	c-0.3,0.9-0.6,1.7-0.9,2.6c0,0-0.2,0.1-0.4,0.1s-0.9,0-1-0.3l-0.7-1.2c-1-1.5-1.8-3.1-2.4-4.8c-0.6-1.8-1.1-3.8-1.5-5.5l0,0v-0.2
	c-0.5-2.3-1.1-4.6-1.9-6.9c-2-5.9-4.5-11.5-7.6-16.9c-4-6.5-8.4-13.4-14.5-19c-3.9-4-8.8-7-14.2-8.5c-3.5-0.9-7.1-1.4-10.7-1.5
	c-1.4-0.1-2.7-0.3-4.1-0.5c-1.6-0.3-3.1-0.5-4.7-0.5c-0.8,0-1.5,0.1-2.3,0.2c-2.8,0.6-5.7,0.8-8.7,0.8c-2.8-0.1-5.5,0.1-8.3,0.6
	c-1.5,0.4-3.2,0.7-5,1c-3.3,0.6-6.6,1.3-9.8,2.3c-5.6,1.9-11,4-15.2,8.2c-1,0.9-2,1.8-3.1,2.7c-1.4,1-2.6,2.1-3.7,3.3
	c-4.4,4.9-8.1,10.5-11,16.4c-2.4,4.9-4.4,9.9-5.9,15.1c-0.4,1.7-0.8,3.5-1,5.3v0.3c-0.2,1.7-0.5,3.4-1,5.1c-1.5,6-1.3,12.2-1,18.2
	v0.3c0.1,2.2,0.2,4.8,0.2,7.2c0.1,2.9,0.7,5.7,1.5,8.4v0.2c0.3,1.2,0.7,2.5,0.9,3.7c0.2,0.9,0.4,1.8,0.5,2.7v0.3v0.2
	c0.3,1.9,0.8,3.8,1.3,5.7c1.4,4.8,3.1,9.5,5,14.1c2.1,4.6,4.4,9.3,6.6,13.9v0.2l0.2,0.4l0.2,0.4c0.7,1.3,1.3,2.7,2,4
	c1.5,3.1,3.2,6.3,5,9.5c1,1.8,2.1,3.6,3.2,5.3l0.2,0.2l0.7,1.2l1.8,2.8l0.1,0.2l0.2,0.2c1.9,2.9,3.8,5.9,5.8,8.9
	c1.3,1.8,2.7,3.4,4.3,4.9l2.6,2.6c3.1,3.1,6.6,6.5,10.2,9.6c2.6,2.1,5.5,3.9,8.6,5.2c3.9,1.5,7.9,2.8,11.9,3.8
	c1.5,0.4,3.1,0.8,4.6,1.1l0.7,0.2h0.2h0.2c2.6,0.5,5.1,1.2,7.6,2c3.9,1.2,7.9,2.1,11.9,2.6h0.2l4,0.7c4.7,0.8,9.5,1.2,14.3,1.2
	c3.6,0,7.3-0.2,11-0.3h1.7h1.7h1.5c5.6-0.2,11.3-0.7,17.1-1.4c3.8-0.3,7.7-0.9,11.4-1.6c2.7-0.5,5.4-1.3,8-2l0.3-0.1h0.2l0.6-0.2
	l3.2-0.9c0.1,0,0.2,0,0.3,0h0.2h0.2c0.9-0.3,1.5-0.6,2.3-0.9l0.4-0.1c0,0,0.1,0.1,0.1,0.2c0,0.4,0,0.4,0,0.4
	c-0.7,0.2-1.3,0.4-2.2,0.6c-2.2,1.5-4.8,2.6-7.5,3h-0.3c-0.9,0.2-1.8,0.4-2.7,0.7c-3.7,1.1-7.4,2.1-11.2,2.8
	c-1.7,0.4-3.6,0.6-5.1,0.9h-0.2h-0.2h-0.2h-0.2c-2.2,0.3-4.4,0.7-6.5,1.2c-5.7,1.3-11.5,1.9-17.3,1.8c-3.1,0-6.4-0.1-8.9-0.2h-0.3
	c-2.3,0-4.6-0.2-6.9-0.2h-0.3h-2.2h-0.5h-1.5c-2.5,0.1-5-0.4-7.3-1.4c-1.1-0.4-2.2-0.6-3.4-0.5c-0.7,0-1.4,0-2-0.1s-1.5-0.2-2.2-0.3
	l-0.7-0.1c-2.5-0.2-5-0.7-7.5-1.3c-6.6-1.9-12.4-3.8-17.8-5.9c-6.2-2.4-12.7-5.3-19.2-8.4c-2.6-1.4-5.2-2.9-7.6-4.6l-0.8-0.5
	l-1.7-1.2c-6.2-3.9-11.9-8.7-16.8-14.2c-3.6-4.5-7-9.2-10-14.1l-0.3-0.5c-2.4-3.7-4.6-7.6-6.5-11.6c-2.1-4.6-3.9-9.4-5.4-13.9
	c-1.4-4-2.7-8.4-3.7-11.6l-0.7-2.2c-0.2-0.8-0.4-1.6-0.5-2.5c0-0.3-0.1-0.6-0.1-0.8c-0.1-0.9-0.2-1.9-0.4-3v-0.5
	c-0.2-2.5-0.6-5-1.2-7.4c-0.6-2.5-1-5-1.1-7.5c-0.1-1.9-0.3-3.7-0.6-5.6c-1.5-7.5-1.2-15.2-0.9-22.7v-0.7c0-2,0.2-4,0.2-5.9
	c0-4.8,0.5-9.5,1.5-14.1c1-4.2,1.5-8.5,1.4-12.8c0-6.7-4.6-10.6-8.5-13.2c-1.1-0.7-2.3-1.3-3.4-1.9l-0.2-0.1
	c-1.1-0.5-2.2-1.2-3.2-1.8l-1.8-1.2c-4-2.6-8.1-5.3-12-8.3c-4.2-3.3-8.3-6.8-12.3-10.3l-0.1-0.1l-0.3-0.2l-1.7-1.5l-1.9-1.7
	c-3-2.6-6.6-5.8-9.8-9c-4.5-4.6-9-9.6-13.7-15.3c-3.5-4.2-6.8-8.6-9.9-13.2c-2.8-4.1-5.4-8.7-7.6-12.4l-0.1-0.2l-1.2-2.1
	c-1-1.6-1.8-3.4-2.7-5.2l-0.4-0.8l-0.9-1.8c-0.3-0.9-0.1-1.8,0.4-2.5c0.9-1.6,2.4-2.7,4.2-3h1.3h1.8c3.1-0.2,6.3,0.4,9.2,1.5
	c0.8,0.3,1.7,0.4,2.6,0.4c0.5,0,1,0.1,1.5,0.2l2.9,0.6h0.2l1.1,0.2h0.3h0.2c3.5,0.6,7.4,1.4,11.2,2.4c5.4,1.3,10.6,2.9,15.8,4.9
	c4.9,2,9.6,4.2,14.1,6.4l5.4,2.5l2.3,1.1l1.2,0.5l0.2,0.1l0.2,0.1l0.3,0.1c3.2,1.5,6.6,3.1,9.8,4.8c3.6,2,7.1,4.2,10.4,6.5l0.5,0.3
	c5.6,3.8,10.2,7,14.4,10.1c1.3,1,2.4,2,3.6,3.1l0.2,0.2c0.7,0.6,1.3,1.2,2,1.8c1.8,1.7,4.1,2.7,6.6,2.8c1.2,0,2.4-0.3,3.5-0.7
	c1.6-0.8,3.1-1.9,4.3-3.3c3.1-3.2,6.7-5.9,10.7-8l2-1.2c1.9-1.1,3.8-2.2,5.8-3.1l0.3-0.2c1.8-0.9,3.9-1.9,5.8-3.1
	c2.9-1.7,4.9-4.7,5.3-8.1c1-8-4.5-11.9-9.8-14.9c-1.1-0.6-2.1-1.2-3.1-1.8l-0.3-0.2c-1.9-1.1-3.8-2.2-5.7-3.2
	c-3.7-2-7.6-3.9-10.7-5.4l-0.2-0.1l-8.5-4.1l-0.9-0.4c-1.7-0.8-3.5-1.7-5.2-2.5c-0.2-0.1-0.4-0.3-0.6-0.5c-0.1-0.1-0.1-0.2-0.2-0.3
	l0,0l0,0l0,0l0,0l0.4-0.1c0.2-0.1,0.4-0.2,0.7-0.2c0.1,0,0.1,0,0.2,0c1.9,0.6,3.7,1.3,5.4,2l5.2,2.2l5.6,2.3
	c0.5,0.2,1.1,0.4,1.8,0.6l0.3,0.1c1.1,0.3,2.1,0.7,3.1,1.2c3,1.8,7,0.8,8.7-2.3c0.6-1.1,0.9-2.4,0.9-3.7c0.1-4.4,0-8.9-0.5-13.3
	c-0.2-3.3-0.7-6.6-1.5-9.8c-0.3-0.9-0.5-1.8-0.8-2.8c-1.7-6.2-3.4-12.6-6.9-18.2c-4.4-7.1-9.6-11.6-15.9-13.7
	c-1.8-0.6-3.7-1.2-5.6-1.8l-0.3-0.1h-0.2c-2.6-0.8-5.8-1.8-8.8-2.9c-5.7-2.1-12-5.1-16-11.3c-0.8-1.4-1.3-3-1.5-4.6
	c-0.1-0.6-0.2-1.2-0.4-1.7s-0.2-0.8,0-1c0.1-0.1,0.1-0.1,0.2-0.1c0.2,0,0.4,0.2,0.9,0.5c2.4,2,5.1,3.9,7.6,5.7l1.1,0.8
	c1.3,1,2.6,2,3.9,3l0.5,0.3c3.7,3,7.7,5.8,11.9,8.2c1.1,0.5,2.3,0.7,3.5,0.7c2.1-0.1,4.2-0.4,6.3-0.9c3.6-1,6.5-3.5,8-6.9
	c1.5-2.9,2.2-6.1,2-9.3c-0.4-3.7-1.4-7.4-3.1-10.7c-1.6-3.4-3.7-6.5-6.2-9.3c-3.3-3.8-7-7.3-10.6-10.8l-0.1-0.1l-1.4-1.3
	c-9.6-9.3-15.9-21.5-17.9-34.8c-0.3-2.1-0.5-4.1-0.6-6.2v-0.2c0-1.3-0.1-2.5-0.2-3.8c0-0.2,0-0.5,0.1-0.7c0-0.1,0.1-0.2,0.1-0.3l0,0
	l0.3,0.2c0.2,0.1,0.4,0.3,0.6,0.6l2.6,3.9c2.8,4.1,5.6,8.2,8.2,12.4c1.2,1.9,2.4,3.9,3.3,5.6c1.7,3.3,3.8,6.4,6,9.3l0.7,0.8
	c3,3.7,6.1,7.6,11.6,7.6h0.6c3.3,0.1,6.2-1.9,7.3-5c0-0.1,0.1-0.3,0.1-0.4c0-0.2,0.1-0.4,0.2-0.6l2.5-3.1l0.4-0.6l0.3-0.4
	c2.1-2.6,4.3-5.3,6.5-7.9c4.2-4.9,8.5-9.7,12.4-13.9l0.2-0.2l1.7-1.9l0.1-0.1l0.9-1l0.1-0.1c2.5-2.9,5.4-6.2,8.4-9.1
	c3.6-3.5,7.5-6.9,11.2-10.1l0.2-0.2l1.2-1l2.4-2.1c0.3-0.2,0.7-0.4,1.1-0.4h0.2h0.2h0.2l-0.1,0.2l-0.1,0.2c-0.2,0.3-0.4,0.6-0.6,0.9
	l-3.5,3.7l-1.1,1.2l-1.2,1.3c-3.7,3.9-7.7,8.4-11.7,13l-0.4,0.5c-4.2,4.6-7.9,9.4-11.3,14.6c-0.6,1-1.2,1.9-1.8,2.9
	c-2.5,3.6-4.5,7.6-5.8,11.8c-1,3.4-2.2,6.6-3.7,9.8l-0.1,0.2l-0.1,0.3c-0.6,1.5-1.3,3-1.9,4.5c-0.3,0.8-0.4,1.7-0.5,2.5v0.7
	c-0.2,1.3-0.3,2.6-0.4,3.9v0.4c-0.2,3-0.6,6-1.3,9c-1.4,6-1.2,12.1-1,18.2c0,2.5,0.2,5.3,0.1,8.1c0,3.7,0.4,7.4,1,11.1
	c0.2,1.1,0.4,2.2,0.5,3.3c0.4,2.7,0.9,5.3,1.5,7.9c0.3,1.3,0.8,2.5,1.1,3.7l0.1,0.3v0.2v0.2c0.4,1.3,0.9,2.8,1.3,4.2
	c0.3,1.4,0.7,3,0.9,4.3v0.2c0.3,1.8,0.7,3.8,1.3,5.7c1.2,3.9,2.5,7.6,3.7,11.3l0.3,0.9c0.6,1.5,1.1,3.3,1.7,4.9
	c0.5,1.6,1,2.9,1.4,4.3l0.2,0.6l0.1,0.3l0.2,0.6c0.7,2.1,1.3,4.2,2.1,6.3c0.9,2.5,1.8,4.8,2.7,7.1c0.4,1.1,0.9,2.2,1.3,3.4
	c0.4,1.1,0.7,2,1.1,3.1c0.7,2,1.5,4.1,2.4,6c1.5,3.8,4.1,7.1,7.4,9.6c1.2,0.8,2.6,1.2,4,1.2c1.2,0,2.5-0.2,3.7-0.5l0.9-0.2l1.4-0.3
	h0.3h0.2c0.7-0.2,1.5-0.4,2.2-0.5c1.1-0.2,2.3-0.4,3.5-0.6h0.2l0.5-0.1h0.2c2.7-0.3,5.3-0.8,7.9-1.5c2.9-0.7,5.9-1,8.9-1.1
	c2.4,0,4.8-0.3,7.1-0.7c4.1-0.8,8.2-1.1,12.4-1.1c3.3,0,6.7,0.2,9.6,0.3h0.7l2.3,0.1c4.9,0.2,10.2,0.7,15.8,1.4
	c1.3,0.2,2.6,0.4,3.9,0.6h0.2h0.2c1.8,0.4,3.6,0.7,5.5,0.8h1.2c4.5,0,8.5-1.9,13.2-6.2L943.8,482.1z M879.4,735.3
	c-2.6-0.4-5.2-1-7.7-1.6h-0.2c-1.3-0.3-2.6-0.6-3.9-0.9c-0.6-0.1-1.2-0.2-1.8-0.2h-0.2c-0.5,0-1-0.1-1.5-0.2l-4.3-0.9
	c-3.7-0.7-7.6-1.5-11.3-2.5c-6.4-1.7-13.2-3.7-19.3-7.5c-6.6-4.1-11.9-9.6-17.9-16.6c-2.8-3.4-5.4-7-7.6-10.8
	c-1.7-2.7-3.2-5.6-4.8-8.5l-2.1-4l-2.2-4l-0.3-0.6c-1.8-3.3-3.7-6.7-5.5-10.2c-1-2.1-1.9-4.2-2.6-6.4c-0.4-1.1-0.8-2.2-1.2-3.3
	s-0.9-2.2-1.4-3.3c-0.9-2.2-1.8-4.4-2.6-6.6c-0.8-2.4-1.5-4.8-1.9-7.3c-0.5-2.5-0.8-5-1.2-7.4l-0.1-0.9c-0.1-0.9-0.3-1.7-0.4-2.6
	c0-0.3-0.1-0.5-0.2-0.7V628c-0.1-0.5-0.2-1-0.2-1.5c0-1.5,0-3.2,0-4.9c0-2.8,0-5.3,0-7.8c-0.3-7.1,1.5-13.9,3.5-20.1
	c1.7-5.2,4-10.2,6.9-14.9c4.1-6.6,9.6-12.3,16-16.7c4.1-3.2,9-5.3,14.1-6.2c1.8-0.3,3.5-0.8,5.2-1.4c1.2-0.4,2.4-0.9,3.7-1.1
	c1.5-0.3,3.1-0.5,4.6-0.5h1.3l4.5-0.3c4.3-0.3,8.7-0.6,13.1-0.7c2.6,0.2,5.1,0.9,7.5,1.9l0.4,0.2c2.9,1,5.6,2.3,8,4.1
	c0.9,0.7,1.9,1.4,2.9,2.1c2.8,1.8,5.6,3.7,7,7.1c0.6,1.1,1.3,2.1,2.3,2.9l0.9,0.9c2.9,3.4,5.3,7.3,7.1,11.5c0.7,1.5,1.5,3.1,2.3,4.6
	c1.2,2.5,2.2,5.1,2.9,7.8c0.3,1.3,0.7,2.5,1.1,3.7c0.6,1.7,1.1,3.4,1.7,5.1l0.3,1c1.4,4.3,2.9,8.8,4.5,13.1c0.8,1.9,1.7,3.8,2.8,5.6
	l0.6,1.1c0.9,1.2,2.4,1.8,3.9,1.7c1.1,0.1,2.2-0.3,3.1-0.9c2.6-2.2,3.7-5.2,4.8-8.2c0.3-0.9,0.7-1.8,1-2.6c0.5-1.2,1-2.4,1.5-3.6
	c1.2-3.1,2.5-6.2,4-9.3c2.7-5.2,5.7-10.2,8.6-15.1c1-1.5,2.2-2.9,3.6-4.2l3.1-3.1l0.2-0.2c3.5-3.4,7.1-7,10.8-10.2
	c2.8-2.2,5.9-4.1,9.1-5.6l0.4-0.2c3.3-1.7,6.8-3.1,10.1-4.5l0.6-0.2c0.3-0.1,0.7-0.2,1-0.2h0.9c0.3,0,0.7,0,1-0.1
	c3.5-1.1,7.1-1.7,10.7-1.5c2.1,0,4.3,0.1,6.2,0.2c2.6,0.3,5,1.2,7.2,2.6c5.3,3,9.8,7.1,13.4,11.9c3.2,4.3,5.8,9,7.7,14.1
	c1.2,3.5,2.2,7.1,2.9,10.7l0.7,3.1c1.3,6.2,1.8,12.5,1.3,18.8c-0.3,5-1,9.9-2.2,14.7c-1.1,5.4-2.8,10.7-4.9,15.8
	c-2.7,5.9-5.6,11.7-8.9,17.3c-2.8,5-6.1,10.3-10.1,16.6c-2,3.1-4.2,6-6.7,8.8c-4.5,5.3-9.2,10.4-13.2,14.8
	c-5.1,5.3-10.9,9.9-17.2,13.7c-4.2,2.8-8.9,5-13.8,6.5c-2.2,0.7-4.5,1.5-6.7,2.4l-0.4,0.1c-1.5,0.6-3.1,1.1-4.6,1.7
	c-0.7,0.2-1.4,0.3-2.2,0.3c-0.5,0-1,0.1-1.5,0.1l-5.8,1l-4.2,0.8l-6.9,1.2l-2.7,0.4c-0.8,0.1-1.5,0.3-2.3,0.5h-0.2
	c-0.9,0.2-1.8,0.4-2.8,0.5c-4.2,0.3-7.5,0.5-11.1,0.5c-4.1,0.1-8.3-0.1-12.4-0.6L879.4,735.3z M910.9,757.8c2-0.6,4.1-0.8,6.2-0.9
	c2.7,0.1,5.4-0.5,7.9-1.6c0.7-0.3,1.5-0.5,2.4-0.5c0.5,0,1-0.1,1.4-0.2l3.8-0.8c3.4-0.6,6.9-1.5,10.2-2.5c3.6-1.2,7.1-2.7,10.6-4.2
	c1.3-0.5,2.5-1.1,3.7-1.5l1.8-0.7l0.4-0.2c2.2-0.9,4.4-1.9,6.5-3c4.1-2.2,8.2-4.6,12.1-7.2c1.9-1.3,3.7-2.5,6-4.2l0.1-0.1l0.4-0.3
	c1.5-1.1,3.3-2.4,5-3.5c0.6-0.3,1.2-0.5,1.8-0.5c0.4,0,0.9,0.1,1.3,0.2l1.8,0.7c2.6,0.8,4.9,2.2,6.8,4.1c2.1,2.3,4.4,4.6,6.7,7
	l0.2,0.2c2.4,2.4,5,5.1,7.5,7.9c2.9,3.3,5.5,6.8,7.7,10.5c4.6,7.3,8.7,13.9,12.4,21c1.2,2.7,2.2,5.5,2.8,8.3c0.3,1.3,0.7,2.7,1.1,4
	c0.4,1.3,0.7,2.2,1.1,3.4c0.5,1.4,1,3.1,1.5,4.7c0.3,1.2,0.5,2.5,0.6,3.8c0.1,1.5,0.2,3.1,0.3,4.6v0.2c0.3,4.4,0.7,9.5,0.7,14.3
	c0,3.3-0.5,6.7-1.7,9.8c-0.5,1.5-0.9,2.9-1.4,4.5l-0.1,0.4c-0.9,3.6-2.2,7-4,10.1c-1.2,1.9-2.2,3.9-3.3,6l-0.3,0.6v0.2
	c-0.9,1.8-2.1,4-3.3,6c-1.6,2.6-3.5,5.1-5.7,7.4c-4.9,5.2-10.3,10.8-17.5,18.1l-0.9,0.9c-2.7,2.8-5.6,5.5-8.6,8
	c-4.4,3.4-9.1,6.6-13.9,9.4c-3.4,1.9-7,3.6-10.6,5l-2.3,1c-0.8,0.3-1.6,0.4-2.4,0.5c-0.5,0-0.9,0.1-1.4,0.2l-2.2,0.4
	c-1.1,0.2-2.2,0.4-3.3,0.6h-0.4c-0.5,0-1-0.1-1.5-0.2h-0.2h-0.2H958c-6.6-1-13.6-3.1-15.8-10.7c-1.1-4.1-0.7-8.5,1-12.4
	c2-4.8,4.4-9.4,7.3-13.7l0.4-0.6c0.7-1.2,1.4-2.3,2.1-3.5c4-6.7,7.6-13.7,11-20.5l0.2-0.4c0.8-1.6,1.4-3.3,1.9-5.1
	c0.2-0.8,0.5-1.5,0.8-2.4c0.2-0.4,0.3-0.9,0.5-1.3l0.3-0.7l0.2-0.4l0.1-0.2c1.7-3.8,2.9-7.8,3.5-12c0.1-0.8,0.2-1.5,0.2-2.5
	c0.2-3,0.7-6,1.5-9c0.9-2.3,1.2-4.9,0.8-7.4c-0.3-1.4-0.5-2.8-0.7-3.8c-0.7-4.1-1.4-8.4-4.4-12.1c-3.2-3.6-7.2-6.4-11.7-8.2
	c-3.4-1.5-7.2-3.1-12-4.8c-0.6-0.1-1.2-0.2-1.8-0.2h-0.3c-0.4,0-0.9,0-1.3-0.2c-6.3-1.4-12.7-2-19.1-1.9c-1.8,0-3.6,0-5.4,0
	c-2,0-4,0.2-6,0.5c-2.9,0.6-5.9,1.3-8.1,1.8H903l-3.1,0.7h-0.3c-0.9,0.2-1.8,0.4-2.7,0.6h-0.2h-0.2c-2.1,0.4-4.2,0.9-6.2,1.5
	c-4.4,1.5-8.5,3.3-13.4,5.4c-3.6,1.5-7.3,3.3-11.3,5.3c-1.7,0.9-3.4,2-4.8,3.2c-0.8,0.7-1.7,1.4-2.7,2.2c-3.1,2.4-6,5-8.7,7.8
	c-1.6,2-2.8,4.3-3.6,6.7c-0.2,0.6-0.4,1.1-0.7,1.7c-2.7,6.4-2.1,13.3-1.7,19.4c0.5,4.8,1.7,9.5,3.5,13.9c1.6,4.2,3.5,8.3,5.7,12.2
	c3,5.6,6,10.7,8.6,15.1c0.8,1.3,1.7,2.6,2.5,3.8l0.3,0.4c1.2,1.7,2.3,3.4,3.2,5.2c1.7,3.1,3.1,6.3,4.5,9.4l0.3,0.6l1,2.1l0.3,0.6
	c0.8,1.6,1.4,3.2,2,4.9c1,2.8,0.9,5.9-0.1,8.6c-2,4.6-5.6,7.7-9.3,10.7c-2,1.4-4.2,2.6-6.4,3.4l-1.5,0.7l-1.4,0.6
	c-2.2,1.1-4.6,2-7,2.5c-2.4,0.4-4.8,0.5-7.3,0.4H841h-2c-0.2,0-0.4-0.1-0.5-0.2c-0.1-0.1-0.3-0.1-0.4-0.1c-1.2-0.2-2.4-0.3-3.7-0.5
	h-0.2c-2.6-0.3-5.3-0.7-7.9-1.3c-2.6-0.7-5.2-1.7-7.6-3l-1.5-0.7H817c-2.9-1.2-5.8-2.7-8.6-4.3c-3.1-1.9-6.1-4-9-6.3
	c-4.1-3.3-7.9-6.8-11.5-10.5c-2.3-2.6-4.3-5.3-6.2-8.1l-0.4-0.6l-0.8-1.1l-0.4-0.6l-1.1-1.5c-2-2.7-3.9-5.5-5.6-8.5
	c-2.2-3.9-4.1-8-5.8-12.2c-1.9-4.4-3.5-9-4.9-13.6c-0.5-1.8-0.9-3.6-1.1-5.4c-0.2-1.6-0.5-3.2-0.9-4.8c-2.1-7.6-1.8-15.5-1.5-23.1
	c0.1-3.1,0.2-6.4,0.1-9.7c0.1-3.3,0.5-6.7,1.2-10l0.1-0.5l0.1-0.6v-0.2c0.1-0.6,0.2-1.2,0.3-1.8c0.5-3.1,1.2-6.2,2-9.2
	c0.9-3.3,2.1-6.8,3-9.4v-0.2l1-3c0.3-0.9,0.6-1.9,0.9-2.8l0.1-0.3c0.7-2.4,1.5-4.8,2.5-7.1c1.6-3.8,3.6-7.7,5.4-11.2l1-2l0.3-0.6
	l0.7-1.4c1.2-2.5,2.5-4.9,4-7.2c2.2-3.1,4.5-6.1,7-9l0.8-1c0.4-0.4,1-0.6,1.5-0.5c0.2,0,0.4,0,0.7,0.1c2.8,1.1,5.6,2.3,8.2,3.5
	c0.7,0.3,1.3,0.6,2,1c0.9,0.5,1.8,0.9,2.7,1.3c4.9,1.9,9.4,3.4,13.6,4.9c4.6,1.5,8.6,2.8,12.2,3.8c1.8,0.5,3.7,1,5.4,1.4l0.3,0.1
	h0.4l0.3,0.1l0.4,0.1c2,0.5,4.1,1,6.2,1.5c5.5,1.7,11.2,2.8,17,3.2c4,0.3,8.1,0.8,12,1.5c6.5,1.2,13.1,1.7,19.7,1.5h12.8
	c2,0.1,3.9-0.2,5.8-0.7L910.9,757.8z M849.6,937.5c3.3-0.3,6.6-0.8,9.8-1.5c8.8-2.3,16.6-7.4,22.2-14.6c0.7-1.1,1.3-2.3,1.5-3.6
	c0.2-1,0.6-1.9,1-2.8c1.5-3.1,1.3-6.4,1-9.6l-0.1-1.5c-0.4-3.8-1.3-7.5-2.6-11c-1.5-4.2-3.3-8.4-5.4-12.4c-1.3-2.6-2.7-5.2-4.1-7.7
	l-1.2-2.2l-0.9-1.7c-1.4-2.6-2.9-5.3-4.5-7.9c-0.7-1.2-1.5-2.3-2.3-3.3c-1-1.3-1.9-2.7-2.7-4.1c-1.1-1.9-2.1-3.9-3.1-5.8l-0.1-0.3
	l-0.1-0.2c-1.1-2.2-2.3-4.5-3.6-6.7c-2.8-4.8-2.9-10.1-2.6-15.1c0.3-4.2,1.9-8.1,4.6-11.3c2.4-2.9,5.1-5.5,8-8
	c2.6-2.1,5.3-4,8.2-5.5c3.7-2,7.6-4,11.3-5.8l0.3-0.2l4.5-2.3c4.8-2.5,9.8-4.2,15.1-5.3c0.8-0.1,1.5-0.3,2.4-0.4h0.4
	c2-0.2,4-0.6,5.9-1.3c2.4-0.9,5-1.3,7.6-1.3c1.9,0,3.8,0.2,5.6,0.3h0.2h1c6.5,0.6,13.4,1.5,19.5,5.4c1.1,0.7,2.2,1.3,3.2,1.9
	l0.3,0.2c2.8,1.5,5.4,3.2,7.9,5.2c2.1,2.1,3.7,4.6,4.8,7.3l0.5,1c0.9,1.7,1.2,3.6,1.1,5.4c-0.4,3.1-1.2,6.3-2,9.5l-0.6,2.4l-0.3,1.1
	c-0.5,2.4-1.2,4.9-2,7.2c-1.4,4.2-3.1,8.4-5,12.4c-2.5,5-5.4,9.8-8,13.9c-1,1.5-2.1,3.2-3.3,4.9s-2.5,3.5-3.7,5.4
	c-1.3,2.2-2.4,4.5-3.4,6.8l-0.2,0.4l-0.7,1.5c-0.3,0.6-0.5,1.1-0.9,1.8c-0.9,1.6-1.5,3.3-1.9,5.1l-0.3,1.8c-0.9,3.8-1.3,7.7-1,11.6
	c0.4,4.6,2,9.1,4.8,12.8c4.7,6,11.9,9.3,19.5,8.9c0.5,0,1,0.1,1.4,0.3c0.3,0.1,0.5,0.2,0.8,0.2c0.2,0,0.5,0.1,0.8,0.2
	c0.4,0.1,0.8,0.2,1.2,0.3c0.1,0,0.3,0,0.4-0.1c2.2-0.9,4.6-1.2,7-1.1c1.8,0.1,3.6-0.1,5.3-0.5c3.3-1,6.5-2.1,9.6-3.4
	c2.7-1.2,5.2-2.6,7.7-4.1c2.3-1.3,4.5-2.7,6.6-4.3c0.8-0.7,1.8-1.1,2.8-1.1c1.5,0.1,2.7,1.1,3,2.6c0.8,2.3,1.3,4.7,1.5,7.2
	c0.4,5.2,0.7,10.7,0.9,15.2l0.3,5.7c0,2,0,4,0.1,5.7c0.3,3.2,0.2,6.4-0.4,9.5c-0.3,1.6-0.5,3.3-0.5,5c0,1.9-0.3,3.9-0.8,5.8
	c-0.8,2.5-1.3,5-1.9,7.5l-0.1,0.6c-0.2,0.8-0.4,1.5-0.6,2.4c-0.1,0.5-0.2,1.1-0.3,1.6v0.3c-0.1,0.5-0.2,1-0.3,1.5
	c-0.2,0.8-0.4,1.5-0.6,2.4l-0.3,1.2c-0.7,2.9-1.4,6.2-2.4,9.3c-1.1,3.6-2.5,7-4,10.5l-0.1,0.2l-0.2,0.5c-1.7,4-3.5,8.1-5.4,12.1
	l-0.2,0.4c-1.4,3.2-3,6.3-4.8,9.3c-2.6,4.1-5.5,8.6-9,13.5c-2.2,3.1-4.6,6.2-7.1,9l-0.1,0.1l-1.9,2.3c-2.4,3-4.9,5.9-7.5,8.6
	c-2.5,2.5-5.3,4.9-7.8,6.9c-1.3,1.1-2.7,2.3-4,3.4c-0.4,0.4-0.9,0.8-1.3,1.3c-0.5,0.6-1,1.1-1.6,1.5l-1.9,1.4
	c-2.8,2.1-5.8,4.1-8.8,5.8c-3.6,1.9-7.3,3.6-11.2,4.9c-3.5,1.2-7,2.1-10.6,2.9h-0.3c-1.2,0.3-2.4,0.5-3.6,0.7H905
	c-2,0.2-3.9,0.7-5.8,1.3c-3.9,1.2-7.9,1.7-11.9,1.5h-2.8h-1.3h-3.1h-0.8c-3.9-0.2-7.8-1.2-11.3-2.9c-1.1-0.5-2.2-0.9-3.4-1.4
	c-1.6-0.6-3.3-1.3-4.8-2.1l-1.7-0.9c-3.4-1.6-6.7-3.6-9.8-5.8c-6.5-5-12.8-10.3-18.7-16c-4.1-4.3-7.9-8.8-11.4-13.6l-1.9-2.5
	c-2.9-3.6-5.5-7.4-7.7-11.4c-1.8-3.2-3.4-6.7-4.9-10l-0.2-0.3c-0.6-1.3-1.2-2.7-1.8-4c-0.4-0.9-0.9-1.9-1.4-2.8c-1-2-2.1-4.2-3-6.4
	c-1.6-3.7-3-7.6-4.2-11.5c-0.7-2.4-1.3-5.1-1.8-7.2v-0.2c-0.5-2-0.9-4-1.5-6c-1.5-5.2-2.6-10.5-3.4-15.9c-0.2-1.2-0.3-2.5-0.5-3.8
	v-0.5c-0.2-2.4-0.6-4.8-1-7.2c-0.7-4.2-1.1-8.4-1.2-12.7c-0.1-2.5-0.2-5.6-0.5-8.5c0-0.7-0.2-1.4-0.3-2.1c-0.4-2.5-0.6-5-0.4-7.5
	c0.3-2.2,1.2-4.4,2.5-6.2c0.7-0.8,1.8-1.3,2.9-1.2c1.2,0,2.4,0.3,3.3,1l2.5,2.2l0.4,0.3c2.4,2.3,4.9,4.3,7.6,6.2
	c4.3,2.6,8.7,4.8,13.3,6.7l0.8,0.3c3.4,1.4,6.8,2.4,10.4,3.1l1.2,0.3c4.3,1,8.7,1.5,13.1,1.5C843.3,938,846.4,937.8,849.6,937.5
	L849.6,937.5z M904.7,1096c3.5-0.9,7-1.9,10.5-3.1l2.4-0.8l0.3-0.1c2.9-1,6.2-2.1,9.3-3.4c2.7-1.2,5.2-2.6,7.7-4.1
	c4-2.4,8.2-5,12.4-7.7c1.4-1,2.8-2.1,4-3.3l2.4-2.2l1.5-1.5c3.5-3.1,7.4-6.7,11.2-10.6c4.3-4.2,8.3-8.7,11.9-13.6
	c0.7-1.1,1.5-2.2,2.3-3.3l0.4-0.6c3.6-4.8,6.7-9.9,9.3-15.4c1-2.1,2.1-4.1,3.3-6.1l0.2-0.3c1-1.7,2-3.4,2.9-5.3
	c1.3-2.7,2.4-5.7,3.3-8.2v-0.2c0.5-1.4,1-2.8,1.5-4.2l1.7-4.3c1-2.5,2-5,3-7.5c0.2-0.6,0.3-1.2,0.3-1.7c0-0.4,0.1-0.9,0.1-1.3
	c0.4-2,0.9-4,1.3-6c0.7-3.1,1.5-6.8,2.2-10.3c0.3-1.5,0.5-3.3,0.7-4.9c0.2-2,0.5-4,1-6c1.8-7.6,1.6-15.4,1.5-23v-0.7
	c0-2.7,0-5.8,0-8.8c0.1-2.8-0.1-5.6-0.5-8.4c-0.4-2.7-1-5.5-1.5-8.2v-0.3l-0.2-0.9l-0.2-0.8c-0.2-1-0.4-2-0.6-3
	c-1.3-6.6-0.3-11.3,3.4-15.2c2.4-2.6,4.9-5.2,7.4-7.9c2.5-2.7,5.2-5.6,7.9-8.4c1-1,2-2,3.1-3.1l0.2-0.3l0.4-0.4
	c1.5-1.5,2.9-2.8,4.3-4.3c0.5-0.6,1-0.8,1.3-0.8c0.6,0,1,0.7,1.2,1.4c1.4,3.5,2.7,7.1,4,10.7l0.6,1.7c0.5,1.3,1,2.6,1.5,4
	c1.1,3,2.4,6.3,3.4,9.6c0.7,2.4,1.3,4.8,1.7,7v0.2c0.5,2.5,1.1,4.8,1.7,7c1.6,5.3,2.7,10.7,3.3,16.2c0.2,3.5,0.7,7,1.5,10.3
	c0.8,3.1,1.2,6.4,1.2,9.6v0.2c0,2.2,0.2,4.4,0.5,6.5c1.5,9.3,1.2,18.6,0.9,27.9c-0.1,2.6-0.2,5.2-0.2,7.9c0,3.4-0.4,6.9-0.8,10.3
	v0.4c-0.2,2.1-0.4,4.1-0.6,6.2c-0.3,3.1-0.8,6.1-1.4,9.1v0.2l-0.2,0.8c-1.1,6-2.2,11.1-3.2,15.9l-0.1,0.6v0.2
	c-0.8,3.8-1.8,8.1-3.1,12.1c-1,3.2-2.3,6.5-3.2,9c-0.9,2.4-1.8,4.6-2.6,7c-0.5,1.4-0.9,3-1.2,4.4v0.2v0.3v0.3
	c-0.3,1.1-0.6,2.2-0.9,3.2c-0.4,1.4-0.9,2.7-1.3,4.1l-0.2,0.5c-0.4,1.3-0.8,2.5-1.2,3.8c-0.2,0.9-0.4,1.7-0.4,2.6
	c0,0.4,0,0.8-0.1,1.2l-0.3,1.9l-0.3,1.9c-0.4,2.6-0.8,5.3-1.1,8c-1.8,14.4-1.5,28.5-0.9,45.4l0.3,7.1c0.2,6.7,0.5,14.2,1.4,21.7
	c0.4,3.7,0.5,7.5,0.5,11.3c0,3,0,5.9,0.3,8.8c0,0.7,0.1,1.3,0.2,2v0.6c0.3,2.2,0.4,4.4,0.2,6.6c-0.4,3.3-0.5,6.7-0.4,10
	c0,2.5,0,5.1-0.1,7.6c-0.3,3.9-0.8,7.9-1.6,11.7l-0.2,0.8c-1.3,5.9-2.6,11.9-5.7,17.2c-2.2,4-5.3,7.5-8.9,10.4
	c-3.3,2.5-7.3,3.9-11.4,4c-1.3,0-2.6-0.2-3.8-0.4c-3.8-0.9-9.4-2.6-13.2-7.1c-0.8-0.9-1.7-1.9-2.6-2.7l-0.2-0.2
	c-1.3-1.2-2.5-2.6-3.6-4c-2.5-3.7-4.7-7.5-6.5-11.6c-2.1-4.6-3.8-9.4-5.2-14.3c-1.3-4.1-2.2-8.6-3.1-12.6l-0.5-2.2
	c-0.2-1.2-0.4-2.4-0.6-3.6v-0.3c-0.2-1.9-0.6-3.8-1.1-5.6c-0.7-2.6-1.1-5.3-1.1-8c0-2-0.3-4.1-0.7-6.1c-0.6-3.3-0.9-6.6-0.7-10
	c0.1-2.4,0-4.8-0.2-7.1c-0.7-5.7-1.7-11.2-6.2-14.8c-2.3-1.8-4.9-3.1-7.7-3.7c-0.3-0.1-0.7-0.1-1-0.1c-1.2,0.1-2.4,0.3-3.5,0.7
	c-0.5,0.2-1.1,0.3-1.7,0.4c-4.6,1.2-9.4,2-14.2,2.1c-2.4,0-4.8,0.2-7.2,0.5c-2.1,0.2-4.3,0.4-6.5,0.4h-0.7c-5-0.1-10-0.6-15-1.7
	c-1.5-0.4-3.1-0.8-4.6-1.2c-3.4-1.1-7-1.8-10.6-1.9h-0.9H888c-2.5,0.1-5,0.2-6,3.1c-0.2,0.7-0.2,1.4-0.1,2.1v0.5
	c0,0.2,0.1,0.4,0.1,0.6c0.1,0.2,0.2,0.4,0.2,0.6l0.1,4.9c0.2,9.1,0.3,18.6,0.4,27.7c0,2.4-0.2,4.9-0.5,7.3l-0.2,1.5v0.3
	c-0.4,3.3-0.8,6.7-1.4,10v0.4c-0.7,4.3-1.8,8.6-3.2,12.8c-0.4,1.1-0.8,2.2-1.1,3.3c-1.3,4.4-3.2,8.6-5.7,12.5c-2.5,3.7-5.5,7.1-9,10
	c-4.1,3.2-9.2,5-14.4,4.9c-1.9,0-3.8-0.2-5.6-0.5c-3.4-0.7-6.7-2.2-9.3-4.5l-1.5-1.2l-0.3-0.2c-1.6-1.1-3.1-2.5-4.5-3.9
	c-4.1-4.6-7.5-9.8-10.1-15.5c-0.9-2.2-1.9-4.3-2.8-6.3l-0.2-0.5c-0.9-2-1.9-4.2-2.8-6.4c-1.5-3.5-2.7-7.1-3.8-10.6l-0.5-1.4
	c-1.2-3.6-2.7-8.1-3.8-12.4c-0.5-2.1-0.9-4.2-1.3-6.3v-0.2v-0.2v-0.2v-0.4c-0.2-1.3-0.5-2.8-0.8-4.2c-0.4-1.9-0.9-3.9-1.4-5.9
	l-0.1-0.4c-0.4-1.4-0.7-2.8-1.1-4.2c-0.1-0.5-0.1-1,0-1.5c0.1-0.4,0.1-0.8,0-1.2c-0.1-0.9-0.2-1.7-0.4-2.6l-0.1-0.8
	c-0.4-3.1-0.9-6.1-1.7-9.1c-1.4-5.5-2.5-11.2-3.2-16.9v-0.2c-0.3-1.9-0.9-3.8-1.5-5.6c-0.4-1.1-0.8-2.2-1-3.2
	c-0.2-0.8-0.3-1.6-0.3-2.3v-1.1c-0.7-2.4-1.2-4.8-1.8-7.1l-0.1-0.5c-0.4-1.7-0.8-3.5-1.3-5.2l-0.1-0.4v-0.2c-1-4-2.1-8.2-3.5-12.2
	c-1-2.9-2.3-6-3.3-8.5v-0.2l-0.1-0.2c-0.7-1.8-1.5-3.6-2.2-5.5s-1.2-3.2-1.8-4.9c-0.6-1.6-1.1-3.1-1.7-4.8c-0.6-1.7-1.4-3.5-2.1-5.2
	c-0.7-1.7-1.7-4.1-2.5-6.2c-0.5-1.5-1-3.1-1.4-4.4v-0.2c-0.2-0.8-0.4-1.5-0.7-2.4c-0.4-1.3-0.8-2.6-1.2-3.8l-0.4-1.4l-0.1-0.3
	c-1.2-3.6-2.2-6.9-3.1-10.2c-0.7-2.5-1.3-5.1-2-8v-0.2l-0.1-0.6c-0.4-2-0.9-4-1.4-5.9c-0.4-1.5-0.9-3.1-1.4-4.4
	c-0.4-1.3-0.9-2.5-1.2-3.7c-0.2-0.6-0.2-1.3-0.2-1.9c0-0.5,0-1-0.1-1.5c-0.7-4-1.4-7.6-2-10.7c-0.4-1.8-0.8-3.7-1.2-5.5
	s-1-4.2-1.4-6.4c-0.2-1-0.3-2.1-0.3-3.1v-0.4c0-0.5-0.1-1.1-0.1-1.6c-0.1-1.1-0.3-2.1-0.4-3.1v-0.5V971c-0.2-1.5-0.5-3.6-0.7-5.6
	c-0.1-1.2-0.1-2.4-0.2-3.7v-0.6c0-2.2-0.1-4.4-0.5-6.5c-1.7-9.5-1.6-19.3-1.5-28.7c0-3.6,0.1-7.7,0-11.6c0-3.1,0.2-6.2,0.5-9.3
	l0.2-1.5c0.3-3.5,0.8-6.9,1.5-10.3c0.5-2,1.1-4,1.7-5.9v-0.2c1-2.8,1.8-5.6,2.2-8.6c0.4-2,1-4,1.9-5.9c0.7-1.6,1.2-3.2,1.5-4.9
	c0.1-0.4,0.4-0.7,0.7-0.9l0.2-0.1c0.1-0.1,0.2-0.2,0.4-0.2l0.2,0.5c0.1,0.3,0.2,0.5,0.3,0.8c0.3,0.9,0.6,1.7,0.9,2.6
	c0.6,1.8,1.2,3.6,1.8,5.4c0.6,1.5,1.2,3.1,2.2,5.3c2.6,5.5,4.8,10.3,6.9,14.7c0.6,1.3,1.3,2.5,2,3.8l0.2,0.3c1.7,2.8,3,5.7,3.9,8.8
	c0.6,2.8,0.8,5.7,0.5,8.6c0,1.2-0.1,2.4-0.1,3.6c0,0.4-0.1,0.9-0.2,1.3c-0.1,0.4-0.2,0.8-0.2,1.2v4.1c0,4.9,0,10,0,15
	c0,5.4,0.2,11.6,0.6,17.6c0.3,4.4,0.8,8.8,1.5,13.1c1,5.5,2,10.5,3.2,15.1c0.7,2.5,1.5,5,2.3,7.2l0.1,0.3l0.1,0.3l0.1,0.4
	c0.6,1.5,1.1,3.1,1.5,4.6c0.4,1.5,0.9,3.1,1.3,4.6c0.6,2.3,1.2,4.5,2,6.7c1.7,4.2,3.7,8.6,6.5,14.2c2.4,5,5.1,9.8,8,14.5
	c3,4.6,6.5,9,9.8,13.3l0.1,0.1l0.1,0.1l0.5,0.7l0.7,0.9c2.6,3.5,5.4,6.8,8.5,9.8c4.9,4.9,10.1,9.4,15.7,13.5
	c4.4,2.9,8.9,5.5,13.6,7.7l0.6,0.3l2.2,1.1c4.2,2.2,8.5,4.1,13,5.8c2.8,1,5.7,1.6,8.7,1.7c6,0.4,12,0.5,19.2,0.6h2.1
	c2.4,0.1,4.7-0.1,7.1-0.6L904.7,1096z M1115.7,996.2c-1.5-3.3-0.3-11,2.2-13.9c2.6-3.2,6.2-5.3,10.2-6c0.7-0.1,1.3-0.4,1.9-0.6
	l0.9-0.4c5.9-1.6,11.7-3.9,17-6.9c1.8-1,3.5-2.2,5.2-3.4l1.4-1c0.5-0.4,1-0.8,1.6-1.3c0.8-0.7,1.8-1.4,2.7-1.9
	c0.2-0.1,0.5-0.2,0.8-0.2c0.8,0,1.5,0.3,2.1,0.7c2.1,1.7,3.5,4.1,3.8,6.8c0.3,1.8,0.7,3.5,1.3,5.2c0.8,2.2,1.2,4.4,1.4,6.7
	c-0.2,3.3-0.9,6.5-2.1,9.6c-0.2,0.7-0.4,1.4-0.7,2.1c-1.8,6.7-4.5,13.1-7.9,19c-2,3.1-4.2,5.9-6.8,8.5c-0.9,0.8-2,1.3-3.1,1.7
	c-0.5,0.2-0.9,0.3-1.4,0.6c-0.2-0.1-0.5-0.2-0.6-0.4c0-0.3,0.2-0.7,0.4-0.9c2.6-2.1,4.4-4.9,5.2-8c0.7-3,1.1-6.1,1.1-9.1
	c0-0.6-1.9-1.7-3.1-1.9c-0.9-0.1-1.8-0.2-2.7-0.2c-3.9,0.2-7.7,1-11.3,2.4l-2,0.6c-1.2,0.4-2.5,0.6-3.7,0.6
	C1123.8,1004.7,1118.4,1001.4,1115.7,996.2L1115.7,996.2z M1087.1,1060.3c-3.5-0.8-7.1-1.6-10.6-2.4c-1.3-0.3-2.5-0.6-3.7-1
	l-0.8-0.2l-0.8-0.2l-1.1-0.3c-4.9-1.2-10.3-8.1-10.2-13.1c0-3.4,0.2-6.4,0.6-9.3c0.3-2.3,0.7-4.5,1.1-6.9v-0.3v-0.2
	c0.2-0.9,0.3-1.7,0.4-2.6c0.5-3.1,1-6.2,1.5-9.3c0.2-0.9,0.3-1.7,0.4-2.7v-0.3c0.2-2.1,0.7-4.1,1.3-6.1c0.5-1.6,0.8-3.2,1-4.9
	c0.5-3.3,1-6.8,3.8-9.3c2.3-2.2,4.9-4.1,7.6-5.8c3.7-2.2,7.6-4.1,11.6-5.7c4.3-1.9,8.9-3,13.6-3.2c0.5,0,1,0,1.5,0
	c0.7,0.1,1.3,0.4,1.9,0.8l0.5,0.3l0.4,0.3l-0.4,0.6c-0.3,0.4-0.5,0.8-0.7,1.2l-0.5,1.5c-1.3,3.7-2.6,7.2-0.6,11.2
	c0.6,1.4,1.1,2.9,1.3,4.5c0.2,1.4,0.6,2.7,1.1,4c1.8,4.6,5,8.6,9.1,11.4c3.3,2.1,7,3.3,10.9,3.5h0.8c1.6-0.1,3.2-0.2,4.7-0.6h0.4
	c0.7-0.1,1.3-0.2,2-0.3c0.2,0,0.5-0.1,0.7-0.2h0.2h0.1l0,0l-0.1,0.4c-0.1,0.3-0.2,0.5-0.4,0.7c-0.4,0.3-0.8,0.6-1.2,0.9l-0.3,0.2
	c-1.2,1.1-2.5,1.9-4,2.6c-3.1,1.3-3.7,3.5-3.7,6.7v1.3c1.9,3.7,4.8,5.8,8.2,5.8c3-0.1,5.8-1.4,7.8-3.5c0.4-0.3,0.7-0.6,1.1-0.8
	c0.2-0.1,0.3-0.2,0.5-0.2h0.1l0,0l0,0c-0.1,0.2-0.1,0.4-0.1,0.6v0.2c0,0.5-0.2,1-0.5,1.4c-2.5,2.2-5,4.4-8,7l-0.4,0.4l-3.1,2.6
	c-0.5,0.5-1.1,1-1.7,1.5c-1,1-2.1,1.9-3.3,2.7c-5.2,3.3-9.8,6.2-14.7,8.7c-3.8,2-7.7,3.5-11.8,4.6c-1.9,0.4-3.8,0.6-5.7,0.6h-0.3
	c-1,0-2,0-3,0.1c-0.9,0.1-1.7,0.3-2.6,0.5l-1.1,0.3l-0.2,0.1c-0.1,0.1-0.2,0.1-0.3,0.1l0,0l-1-0.2L1087.1,1060.3z M1141.8,1025.4
	c0.2-0.5,0.5-0.9,0.8-1.3c0.4,0,0.6,0.2,0.5,0.4c-0.1,0.5-0.3,1-0.5,1.5C1142.3,1025.9,1141.7,1025.6,1141.8,1025.4L1141.8,1025.4z"
	/>
<path class="st0" d="M878.9,499.6c0,0.6,0,1.2,0,1.9c0,3.2,0,6.2,1.5,9c1.5,2.6,4.1,4.2,7,4.5h0.3c3.6-0.1,6.9-2.1,8.7-5.2
	c1.9-3.4,1.9-6.4,0.2-8.5c-2.5-3.4-6.2-5.8-10.3-6.9c-0.8-0.2-1.7-0.3-2.5-0.3C880.6,494,878.9,496,878.9,499.6L878.9,499.6z"/>
<path class="st0" d="M849.3,496c-2,0.3-4.1,0.6-4.1,3.5c0,1.1,0,2.2-0.1,3.1v0.3c-0.1,1.3-0.1,2.7-0.1,4c0.2,1.2,0.7,2.2,1.5,3.1
	c1.3,1.7,3.5,2.7,5.7,2.6c1.5-0.1,3.1-0.3,4.5-0.6c0.5-0.2,1-0.4,1.5-0.6c0.4-0.2,0.7-0.3,1-0.4c3.7-1.9,5.3-6.2,3.8-10l-0.2-0.4
	c-0.4-0.9-1-1.7-1.7-2.3c-2.6-1.6-5.6-2.4-8.6-2.4C851.4,495.8,850.4,495.9,849.3,496L849.3,496z"/>
<path class="st0" d="M951.1,498.1c-0.5,0.1-1,0.3-1.4,0.5c-0.4,0.3-0.9,0.4-1.4,0.5c-3.5,0-6.3,2.8-6.4,6.2c0,0.1,0,0.2,0,0.3v2.3
	c0,0.6,0,1.2,0,1.7c0.2,3.7,0.9,7.3,5.4,9.3c1,0.4,2,0.6,3.1,0.6c3.7,0.1,7.1-2.2,8.4-5.7c2.7-2.5,3.6-6.3,2.3-9.7
	c-1.1-3.9-4.8-6.5-8.8-6.2C951.9,498,951.5,498,951.1,498.1L951.1,498.1z"/>
<path class="st0" d="M921.6,499.1c-1.2,0-2.4,0-3.7,0h-3.3h-0.3h-1.2c-1.5-0.2-2.9,0.9-3.1,2.4c0,0.1,0,0.2,0,0.3l-0.1,1
	c-0.3,2.7-0.5,5.4-0.4,8.2c0.4,4,3.7,7,7.7,7c0.9,0,1.7-0.1,2.6-0.5c1.2-0.5,2.4-0.8,3.6-1.1c0.8-0.2,1.7-0.5,2.5-0.7
	c2.4-2.3,3.6-5.5,3.5-8.8c-0.1-2.3-1.3-4.5-3.2-5.8c-1.2-1.1-2.7-1.7-4.4-1.8L921.6,499.1z"/>
<path class="st0" d="M875.2,525c-1.9-0.1-3.6,1-4.3,2.8c-0.1,1.4-0.2,2.6-0.2,3.6c0,3.3,0.6,7.1,4.9,9.4c1.8,0.9,3.7,1.5,5.6,1.8
	h0.4c0.8-0.1,1.6-0.2,2.4-0.6l0.4-0.1c0.3-0.1,0.6-0.2,0.9-0.3c2.3-0.6,6.1-5.6,6.4-7.9c0.2-2-0.5-3.9-1.9-5.3
	c-1.7-2-4.1-3.2-6.7-3.4h-0.2c-1.2,0-2.4,0-3.6,0s-2.6,0-3.9,0L875.2,525z"/>
<path class="st0" d="M906.8,530.8c-0.7,0.4-1.6,0.7-2.4,0.7c-0.9,0-1.8,0-2.6,0h-2.8h-0.7c-0.4,0-0.7,0-0.8,0.2
	c-0.2,0.2-0.2,0.5-0.2,1c0,1.7,0,3.4,0,5.1v0.5c0,1.5,0,3.2,0,4.8c1.9,2.4,3.7,3.5,5.7,3.5c0.5,0,1-0.1,1.5-0.2
	c1.5-0.5,2.9-1.1,4.3-1.9c4.8-2.5,6.2-4.8,5.9-9.3c-0.2-2.6-3.7-5-6.4-5c-0.6,0-1.2,0.1-1.7,0.4L906.8,530.8z"/>
<path class="st0" d="M930.8,531.6c-1.9,0-3.4,1.5-3.4,3.4c0,0,0,0.1,0,0.1c0,1.3-0.1,2.7-0.1,4.1s0,2.9,0,4.5
	c0.1,3.3,2.2,5.6,5.1,5.6h0.7c3.1-0.4,8.5-2.5,10.2-6.7c0.2-0.6,0.4-1.3,0.5-2v-0.5c0-0.3,0-0.6,0-0.9v-0.4c0-0.9,0-1.6,0-2.4
	c-0.1-1.8-2.3-4.8-3.5-4.8h-2.4h-3.2c-1.7,0-3,0-4.1,0.1L930.8,531.6z"/>
<path class="st0" d="M904.7,561.8c0,0.9,0,1.7,0,2.6v1.5c0,1.4,0,2.8,0,4.2c0,2.1,1.1,2.9,2.7,4c0.6,0.4,1.4,0.6,2.1,0.6
	c0.9-0.1,1.7-0.3,2.6-0.6l0.4-0.2l1.5-0.6c2-0.6,4-1.6,5.6-2.9c3.1-2.8,3.4-7.8,0.6-12.4c-1.2-0.8-2.7-1.7-4.2-2.6
	c-1-0.6-2.1-0.9-3.3-0.8C908.6,554.6,905.1,557.7,904.7,561.8L904.7,561.8z"/>
<path class="st0" d="M887.9,679.2c-0.8,0-1.7,0.1-2.8,0.1h-2.3h-2.5c-3.8,0-6.8,1.8-7.5,4.4c-1.7,6.6-0.1,12.9,5.2,19.7
	c2.4,3,5,5.8,7.7,8.4l0.5,0.5c1.6,1.6,3.7,2.5,5.9,2.5c1.6,0,3.2-0.5,4.5-1.5c8-6.6,13.3-13.3,16.5-20.8c1.4-3.3,0.7-6.8-1.6-8
	l-0.9-0.4c-2.3-1.4-4.8-2.4-7.4-3c-1.3-0.2-2.5-0.4-3.7-0.7c-3.1-0.7-6.3-1.1-9.5-1.2c-0.8,0-1.5,0-2.3,0.1L887.9,679.2z
	 M893.8,701.5c-0.7-0.5-1.4-0.9-2.1-1.3c-2.7-1.7-5.5-3.4-6.8-6.9l-0.1-0.3c-0.2-0.6-0.3-0.9-0.2-1.1c0.1-0.2,0.4-0.3,1-0.4
	c0.3-0.1,0.6-0.2,0.9-0.5l0.4-0.3l0,0c4.2,0.6,8.4,1.4,12.6,2.4c0.1,0,0.2,0.2,0.4,0.5c0.3,0.5,0.4,1.1,0.2,1.6
	c-0.8,1.8-1.8,3.6-3,5.2c-0.4,0.6-1.1,1.5-2,1.5C894.6,702,894.1,701.9,893.8,701.5L893.8,701.5z"/>
<path class="st1" d="M920.4,784.1c-2.6-0.1-5.2,0.4-7.6,1.3c-1.9,0.6-3.9,1-5.9,1.3h-0.4c-0.8,0.1-1.5,0.2-2.4,0.4
	c-5.3,1-10.3,2.8-15.1,5.3l-4.5,2.3l-0.3,0.2c-3.7,1.9-7.6,3.8-11.3,5.8c-2.9,1.6-5.7,3.4-8.2,5.5c-2.9,2.4-5.6,5.1-8,8
	c-2.7,3.2-4.4,7.1-4.6,11.3c-0.3,5-0.2,10.3,2.6,15.1c1.3,2.2,2.4,4.5,3.6,6.7l0.1,0.2l0.1,0.3c1,1.9,2,3.9,3.1,5.8
	c0.8,1.4,1.7,2.8,2.7,4.1c0.7,1,1.5,2.2,2.3,3.3c1.5,2.6,3.1,5.3,4.5,7.9l0.9,1.7l1.2,2.2c1.4,2.5,2.9,5.1,4.1,7.7
	c2,4,3.8,8.2,5.4,12.4c1.3,3.5,2.2,7.2,2.6,11l0.1,1.5c0.3,3.2,0.6,6.5-1,9.6c-0.4,0.9-0.7,1.8-1,2.8c-0.3,1.3-0.8,2.5-1.5,3.6
	c-5.6,7.2-13.4,12.3-22.2,14.6c-3.2,0.7-6.5,1.3-9.8,1.5c-3.2,0.4-6.3,0.6-9.5,0.6c-4.4,0-8.8-0.5-13.1-1.5l-1.2-0.3
	c-3.5-0.7-7-1.7-10.4-3.1l-0.8-0.3c-4.6-1.9-9-4.2-13.3-6.7c-2.7-1.8-5.3-3.9-7.6-6.2l-0.4-0.3l-2.5-2.2c-1-0.7-2.1-1.1-3.3-1
	c-1.1-0.1-2.2,0.3-2.9,1.2c-1.3,1.8-2.2,4-2.5,6.2c-0.1,2.5,0,5,0.4,7.5c0.1,0.7,0.2,1.4,0.3,2.1c0.3,2.9,0.4,6,0.5,8.5
	c0,4.2,0.4,8.5,1.2,12.7c0.5,2.4,0.8,4.9,1.1,7.2v0.5c0.2,1.3,0.3,2.5,0.5,3.8c0.8,5.4,1.9,10.7,3.4,15.9c0.6,2,1,4,1.5,6v0.2
	c0.5,2.1,1.1,4.6,1.8,7.2c1.2,3.9,2.7,7.8,4.2,11.5c0.9,2.2,2,4.5,3,6.4l1.4,2.8c0.6,1.3,1.2,2.7,1.8,4l0.2,0.3
	c1.5,3.4,3.1,6.8,4.9,10c2.3,4,4.9,7.8,7.7,11.4l1.9,2.5c3.5,4.8,7.3,9.3,11.4,13.6c5.9,5.7,12.1,11.1,18.7,16
	c3.1,2.2,6.4,4.2,9.8,5.8l1.7,0.9c1.6,0.8,3.2,1.5,4.8,2.1c1.2,0.5,2.3,0.9,3.4,1.4c3.5,1.8,7.4,2.7,11.3,2.9h0.8h3.1h1.3h2.8
	c4,0.1,8.1-0.4,11.9-1.5c1.9-0.6,3.8-1,5.8-1.3h0.3c1.2-0.2,2.4-0.4,3.6-0.7h0.3c3.6-0.8,7.1-1.8,10.6-2.9c3.9-1.3,7.6-2.9,11.2-4.9
	c3.1-1.8,6-3.7,8.8-5.8l1.9-1.4c0.6-0.5,1.2-1,1.6-1.5c0.4-0.5,0.8-0.9,1.3-1.3c1.3-1.2,2.7-2.3,4-3.4c2.5-2.1,5.3-4.4,7.8-6.9
	c2.6-2.7,5.2-5.6,7.5-8.6l1.9-2.3l0.1-0.1c2.4-2.9,4.9-5.9,7.1-9c3.5-4.9,6.5-9.4,9-13.5c1.8-3,3.4-6.1,4.8-9.3l0.2-0.4
	c1.9-4,3.7-8.1,5.4-12.1l0.2-0.5l0.1-0.2c1.4-3.4,2.9-6.9,4-10.5c1-3.1,1.7-6.4,2.4-9.3l0.3-1.2c0.2-0.8,0.4-1.5,0.6-2.4
	c0.1-0.5,0.2-1,0.3-1.5v-0.3c0.1-0.6,0.2-1.1,0.3-1.6c0.2-0.8,0.4-1.6,0.6-2.4l0.1-0.6c0.6-2.5,1.1-5,1.9-7.5
	c0.5-1.9,0.8-3.8,0.8-5.8c0-1.7,0.2-3.3,0.5-5c0.6-3.1,0.7-6.3,0.4-9.5c0-1.8-0.2-3.8-0.1-5.7l-0.3-5.6c-0.2-4.4-0.5-10-0.9-15.2
	c-0.2-2.4-0.8-4.8-1.5-7.1c-0.3-1.4-1.5-2.5-3-2.6c-1,0.1-2,0.5-2.8,1.1c-2.1,1.6-4.3,3-6.6,4.3c-2.5,1.5-5.1,2.9-7.7,4.1
	c-3.1,1.3-6.3,2.5-9.6,3.4c-1.7,0.4-3.5,0.6-5.3,0.5c-2.4-0.2-4.8,0.2-7,1.1c-0.1,0.1-0.3,0.1-0.4,0.1c-0.4,0-0.8-0.1-1.2-0.3
	c-0.4-0.1-0.6-0.2-0.9-0.2c-0.3-0.1-0.5-0.2-0.8-0.2c-0.4-0.2-0.9-0.3-1.4-0.3c-7.6,0.3-14.8-3-19.5-8.9c-2.8-3.7-4.5-8.2-4.8-12.8
	c-0.3-3.9,0-7.8,1-11.6l0.3-1.7c0.4-1.8,1.1-3.5,1.9-5.1c0.3-0.6,0.6-1.2,0.9-1.8l0.7-1.5l0.2-0.4c1-2.3,2.1-4.6,3.4-6.8
	c1.2-1.9,2.5-3.9,3.7-5.4c1.1-1.6,2.3-3.3,3.3-4.9c2.6-4.1,5.5-9,8-13.9c1.9-4,3.6-8.2,5-12.4c0.8-2.4,1.5-4.8,2-7.2l0.3-1.1
	l0.6-2.4c0.8-3.2,1.5-6.4,2-9.5c0.2-1.9-0.2-3.8-1.1-5.4l-0.5-1c-1.1-2.7-2.8-5.2-4.8-7.3c-2.5-2-5.1-3.8-7.9-5.3l-0.3-0.2
	c-1.1-0.6-2.2-1.3-3.2-1.9c-6.2-3.9-13-4.9-19.6-5.4h-0.9H926c-1.8-0.2-3.7-0.3-5.6-0.3L920.4,784.1z"/>
<path class="st1" d="M849.8,551.5L849.8,551.5c-4.4,0-8.8,0.3-13.1,0.7l-4.5,0.3h-1.3c-1.6,0-3.1,0.2-4.6,0.5
	c-1.2,0.3-2.4,0.7-3.7,1.1c-1.7,0.6-3.4,1.1-5.2,1.4c-5.2,0.9-10,3-14.1,6.2c-6.4,4.4-11.9,10.1-16,16.7c-2.9,4.7-5.2,9.7-6.9,14.9
	c-2.3,6.4-3.5,13.3-3.5,20.1c0.1,2.5,0,5,0,7.8c0,1.5,0,3.2,0,4.9c0,0.5,0.1,1,0.2,1.5v0.2c0,0.2,0.1,0.5,0.1,0.7
	c0.1,0.9,0.3,1.7,0.4,2.6l0.1,0.9c0.4,2.4,0.7,5,1.2,7.4c0.5,2.5,1.1,4.9,1.9,7.3c0.8,2.2,1.7,4.5,2.6,6.6c0.5,1.1,0.9,2.2,1.4,3.3
	c0.4,1.1,0.8,2.2,1.2,3.3c0.8,2.2,1.6,4.3,2.6,6.4c1.7,3.5,3.6,6.9,5.5,10.2l0.3,0.6l2.2,4l2.1,4c1.5,2.9,3.1,5.8,4.8,8.5
	c2.3,3.8,4.8,7.4,7.6,10.8c5.9,7,11.2,12.5,17.8,16.6c6.1,3.8,12.9,5.8,19.3,7.5c3.7,1,7.6,1.7,11.3,2.5l4.3,0.9
	c0.5,0.1,1,0.2,1.5,0.2h0.2c0.6,0.1,1.2,0.2,1.8,0.3c1.3,0.3,2.6,0.6,3.9,0.9h0.2c2.5,0.7,5.1,1.2,7.7,1.6c4.1,0.5,8.2,0.6,12.4,0.6
	c3.6,0,6.9-0.2,11.1-0.5c0.9-0.1,1.9-0.3,2.8-0.5h0.2c0.7-0.2,1.4-0.3,2.3-0.5l2.7-0.4l6.9-1.2l4.2-0.8c1.9-0.4,3.9-0.7,5.8-1
	c0.5-0.1,1-0.1,1.5-0.1c0.7,0,1.5-0.1,2.2-0.3c1.5-0.5,3.1-1.1,4.6-1.7l0.4-0.1c2.3-0.9,4.5-1.7,6.7-2.4c4.9-1.5,9.5-3.7,13.8-6.5
	c6.3-3.8,12.1-8.4,17.2-13.7c4-4.4,8.6-9.5,13.2-14.8c2.4-2.8,4.6-5.7,6.7-8.8c4.1-6.3,7.3-11.5,10.1-16.6
	c3.3-5.6,6.3-11.4,8.9-17.3c2.1-5.1,3.7-10.4,4.9-15.8c1.2-4.8,1.9-9.8,2.1-14.7c0.4-6.3,0-12.6-1.3-18.8l-0.7-3.2
	c-0.8-3.6-1.7-7.2-2.9-10.7c-1.9-5-4.5-9.8-7.7-14.1c-3.6-5-8.2-9.2-13.5-12.3c-2.2-1.4-4.6-2.3-7.2-2.6c-1.9-0.1-4.1-0.2-6.2-0.2
	c-3.6-0.1-7.3,0.4-10.7,1.5c-0.3,0.1-0.6,0.2-1,0.1h-0.9c-0.3,0-0.7,0-1,0.2l-0.6,0.2c-3.4,1.4-6.8,2.8-10.1,4.5l-0.4,0.2
	c-3.2,1.5-6.3,3.4-9.1,5.6c-3.8,3.2-7.4,6.8-10.8,10.2l-0.2,0.2l-3.1,3.1c-1.4,1.2-2.6,2.6-3.6,4.2c-2.9,4.8-5.9,9.8-8.6,15.1
	c-1.5,3-2.8,6.2-4,9.3c-0.5,1.2-1,2.4-1.5,3.6c-0.4,0.9-0.7,1.8-1,2.6c-1.1,3-2.2,6-4.8,8.2c-0.9,0.7-2,1-3.1,0.9
	c-1.5,0.1-3-0.5-3.9-1.7l-0.6-1.1c-1.1-1.8-2-3.7-2.8-5.6c-1.5-4.3-3.1-8.8-4.5-13.1l-0.3-1c-0.6-1.7-1.1-3.4-1.7-5.1
	c-0.4-1.2-0.8-2.5-1.1-3.7c-0.7-2.7-1.6-5.3-2.9-7.8c-0.8-1.5-1.5-3.1-2.3-4.6c-1.8-4.2-4.2-8-7.1-11.5l-0.9-0.9
	c-0.9-0.8-1.7-1.8-2.3-2.9c-1.4-3.4-4.3-5.3-7-7.1c-1-0.6-2-1.3-2.9-2.1c-2.5-1.7-5.2-3.1-8-4.1l-0.4-0.2c-2.4-1.1-4.9-1.8-7.5-1.9
	L849.8,551.5z M885.1,679.3c1.1,0,1.9,0,2.8-0.1c0.8-0.1,1.5-0.1,2.3-0.1c3.2,0.1,6.3,0.5,9.4,1.2c1.3,0.2,2.5,0.5,3.8,0.7
	c2.6,0.6,5.1,1.6,7.4,3l0.9,0.4c2.4,1.2,3.1,4.6,1.6,8c-3.2,7.6-8.5,14.2-16.5,20.8c-1.3,1-2.9,1.6-4.5,1.5c-2.2,0-4.3-0.9-5.9-2.5
	l-0.5-0.5c-2.8-2.6-5.3-5.4-7.7-8.4c-5.3-6.8-6.9-13.1-5.2-19.7c0.7-2.7,3.7-4.4,7.5-4.4c0.9,0,1.7,0,2.5,0h2.3L885.1,679.3z"/>
<path class="st2" d="M886.9,690.8L886.9,690.8c-0.1,0.1-0.3,0.2-0.4,0.3c-0.3,0.2-0.6,0.4-0.9,0.5c-0.6,0.1-0.9,0.2-1,0.4
	c-0.1,0.2,0,0.5,0.2,1.1l0.1,0.3c1.3,3.5,4.1,5.2,6.8,6.9c0.7,0.4,1.4,0.9,2.1,1.3c0.4,0.3,0.8,0.4,1.3,0.5c0.9,0,1.5-0.9,2-1.5
	c1.1-1.6,2.1-3.4,3-5.2c0.1-0.6,0-1.1-0.2-1.6c-0.1-0.3-0.3-0.4-0.4-0.5C895.3,692.1,891.1,691.3,886.9,690.8L886.9,690.8z"/>
<path class="st0" d="M1143.1,1021.1c-1.2,0-2.2,0.8-2.5,2c-0.6,1.9-0.7,4.6,1,6.1c0.4,0.4,1,0.4,1.4,0c0,0,0.1-0.1,0.1-0.1l0,0
	c0.5-0.1,0.9-0.3,1.1-0.8c0.6-1,0.9-2.1,0.8-3.2c0-0.8-0.1-1.6-0.4-2.4C1144.5,1022.1,1144,1021.2,1143.1,1021.1L1143.1,1021.1z"/>
<path class="st3" d="M971.6,277L971.6,277l0.3,0.5l0.2,0.3c0.3,0.6,0.7,1.1,1.1,1.5l1,1c8.8,8.7,17.9,17.6,23.9,28.8
	c0.6,1,1.1,2.1,1.7,3.1l0.1,0.2l0.1,0.2c1.4,2.3,2.6,4.7,3.7,7.1c1.1,2.9,2,5.8,2.7,8.8l0.2,0.7c0.2,0.6,0.3,1.2,0.5,1.8
	c0.2,0.8,0.5,1.7,0.7,2.5l0.1,0.4c0.9,2.6,1.5,5.3,1.7,8.1c0,1.3,0.1,2.5,0.2,3.8c0.2,3.8,0.5,7.7-1,11.7c-0.9,2.7-1.5,5.6-1.7,8.5
	c-0.5,4-1.6,7.9-3.2,11.5l-0.6,1.5c-1.5,4.1-3.4,8.5-4.8,11.7l-1.7,4l-0.9,2.2l-0.1,0.2v0.2c-0.8,1.8-1.5,3.9-2.6,5.9
	c-2.8,5.6-5.9,11.6-9.1,17.8c-2.6,4.9-5.8,10.8-9.2,16.7c-1.3,2.2-2.7,4.4-4,6.4c-0.9,1.3-1.7,2.7-2.6,4s-1.5,2.6-2.4,4l-0.2,0.3
	l-0.3,0.5l-0.1,0.2c-1.2,2-2.4,4-3.7,6c-0.8,1.1-1.6,2.2-2.5,3.3l-0.1,0.2l-0.2,0.2c-1.2,1.5-2.3,3-3.2,4.6
	c-3.1,5.5-7.1,10.5-11.7,14.8c-4.6,4.2-8.7,6.2-13.2,6.2h-1.2c-1.8-0.2-3.7-0.4-5.5-0.8h-0.2h-0.2c-1.4-0.2-2.6-0.5-3.9-0.6
	c-5.6-0.6-10.8-1.1-15.8-1.4l-2.3-0.1H901c-3-0.2-6.3-0.3-9.6-0.3c-4.2,0-8.3,0.3-12.4,1.1c-2.4,0.4-4.8,0.6-7.1,0.7
	c-3,0-6,0.4-8.9,1.1c-2.6,0.6-5.2,1.1-7.9,1.5h-0.2l-0.5,0.1h-0.2c-1.2,0.2-2.4,0.4-3.5,0.6c-0.8,0.1-1.5,0.3-2.2,0.5h-0.2h-0.3
	c-0.5,0.1-1,0.2-1.4,0.3l-0.9,0.2c-1.2,0.3-2.4,0.5-3.7,0.5c-1.4,0-2.8-0.4-4-1.2c-3.3-2.4-5.9-5.7-7.4-9.6c-0.9-2-1.6-4-2.4-6
	c-0.4-1.1-0.7-2-1.1-3.1c-0.4-1.1-0.9-2.2-1.3-3.4c-0.9-2.3-1.8-4.6-2.7-7.1c-0.7-2.1-1.4-4.2-2.1-6.3l-0.2-0.6l-0.1-0.3l-0.2-0.6
	c-0.5-1.5-0.9-2.9-1.4-4.3c-0.5-1.4-1.1-3.2-1.7-4.9l-0.3-0.9c-1.3-3.7-2.6-7.4-3.7-11.3c-0.6-1.9-0.9-3.9-1.3-5.7v-0.2
	c-0.2-1.3-0.5-2.8-0.9-4.3c-0.4-1.5-0.8-2.9-1.3-4.2l-0.1-0.2v-0.2l-0.1-0.3c-0.4-1.2-0.8-2.4-1.1-3.7c-0.7-2.6-1.2-5.3-1.5-7.9
	c-0.2-1.1-0.3-2.2-0.5-3.3c-0.7-3.7-1-7.4-1-11.1c0-2.8,0-5.6-0.1-8.1c-0.2-6-0.4-12.2,1-18.2c0.6-3,1.1-6,1.3-9v-0.4
	c0.1-1.3,0.2-2.6,0.4-3.9v-0.7c0-0.9,0.2-1.7,0.5-2.5c0.6-1.5,1.2-3,1.9-4.5l0.1-0.3l0.1-0.2c1.5-3.2,2.7-6.4,3.7-9.8
	c1.3-4.2,3.2-8.2,5.8-11.8c0.6-1,1.2-1.9,1.8-2.9c3.4-5.2,7.1-10.1,11.3-14.6l0.4-0.5c3.9-4.5,8.1-9,11.7-13l1.2-1.3l1.1-1.2
	l3.5-3.7c0.2-0.3,0.4-0.6,0.6-0.9l0.1-0.2l0.1-0.2h-0.2h-0.2h-0.2c-0.4,0-0.8,0.2-1.1,0.4l-2.4,2.1l-1.2,1l-0.2,0.2
	c-3.7,3.2-7.6,6.6-11.2,10.1c-3,2.9-5.9,6.2-8.4,9.1l-0.1,0.1l-0.9,1l-0.1,0.1l-1.7,1.9l-0.2,0.2c-3.8,4.3-8.2,9.1-12.4,13.9
	c-2.2,2.6-4.4,5.3-6.5,7.9l-0.3,0.4l-0.4,0.6l-2.5,3.1c-0.1,0.2-0.2,0.4-0.2,0.6c0,0.1,0,0.3-0.1,0.4c-1.1,3.1-4,5.1-7.3,5h-0.6
	c-5.5,0-8.6-3.9-11.6-7.6l-0.7-0.8c-2.3-2.9-4.3-6-6-9.3c-0.9-1.7-2.1-3.7-3.3-5.6c-2.6-4.1-5.4-8.2-8.2-12.4l-2.6-3.9
	c-0.2-0.2-0.4-0.4-0.6-0.6l-0.3-0.2c-0.1,0.1-0.2,0.2-0.2,0.3c-0.1,0.2-0.1,0.5-0.1,0.7c0.1,1.3,0.2,2.5,0.2,3.8v0.2
	c0.1,2.1,0.3,4.1,0.6,6.2c2,13.2,8.3,25.4,17.9,34.8l1.4,1.3l0.1,0.1c3.6,3.5,7.3,7,10.6,10.8c2.5,2.8,4.6,5.9,6.2,9.3
	c1.7,3.4,2.7,7,3.1,10.7c0.1,3.2-0.6,6.4-2,9.3c-1.5,3.4-4.4,5.9-8,6.9c-2.1,0.5-4.2,0.8-6.3,0.9c-1.2,0.1-2.4-0.2-3.5-0.7
	c-4.2-2.4-8.1-5.1-11.9-8.2l-0.5-0.3c-1.3-1-2.6-2-4-3l-1-0.8c-2.5-1.8-5.1-3.7-7.6-5.7c-0.4-0.3-0.7-0.5-0.9-0.5
	c-0.1,0-0.1,0-0.2,0.1c-0.1,0.2,0,0.6,0,1s0.3,1.2,0.4,1.7c0.2,1.6,0.8,3.2,1.5,4.6c4,6.2,10.3,9.3,16,11.3c3.1,1.1,6.2,2.1,8.8,2.9
	h0.2l0.3,0.1c1.9,0.6,3.7,1.2,5.6,1.8c6.3,2.1,11.5,6.6,15.9,13.7c3.5,5.6,5.2,12,6.9,18.2l0.8,2.8c0.8,3.2,1.4,6.5,1.5,9.8
	c0.5,4.4,0.6,8.8,0.5,13.3c0.3,3.5-2.4,6.6-5.9,6.8c-1.3,0.1-2.6-0.2-3.8-0.9c-1-0.5-2-0.9-3.1-1.2l-0.3-0.1
	c-0.7-0.2-1.2-0.4-1.8-0.6l-5.6-2.3L787,458c-1.7-0.7-3.5-1.4-5.4-2c-0.1,0-0.1,0-0.2,0c-0.2,0-0.5,0.1-0.7,0.2l-0.4,0.1
	c0,0.1,0.1,0.3,0.2,0.4c0.2,0.2,0.3,0.4,0.6,0.5c1.7,0.9,3.4,1.7,5.2,2.5l0.9,0.4l8.5,4.1l0.2,0.1c3.1,1.5,7,3.5,10.7,5.4
	c1.9,1,3.8,2.2,5.7,3.2l0.3,0.2c1.1,0.6,2.1,1.2,3.1,1.8c5.3,3,10.8,6.9,9.8,14.9c-0.4,3.4-2.3,6.4-5.3,8.1c-1.9,1.2-4,2.2-5.8,3.1
	l-0.3,0.2c-1.9,1-4,2-5.8,3.1l-2,1.2c-4,2.1-7.6,4.8-10.7,8c-1.2,1.4-2.6,2.5-4.3,3.3c-1.1,0.5-2.3,0.7-3.5,0.7
	c-2.5-0.1-4.8-1.1-6.6-2.8c-0.7-0.6-1.3-1.2-2-1.8l-0.2-0.2c-1.1-1.1-2.3-2.1-3.6-3.1c-4.3-3.1-8.8-6.3-14.4-10.1l-0.5-0.3
	c-3.4-2.4-6.8-4.5-10.4-6.5c-3.2-1.7-6.6-3.3-9.8-4.8l-0.3-0.1l-0.2-0.1l-0.2-0.1l-1.2-0.5l-2.3-1.1c-1.8-0.8-3.6-1.7-5.4-2.6
	c-4.5-2.2-9.3-4.4-14.1-6.4c-5.1-2-10.4-3.6-15.8-4.9c-3.8-1-7.7-1.7-11.2-2.4h-0.2h-0.3l-1.1-0.2H688l-2.9-0.6
	c-0.5-0.1-1-0.1-1.5-0.2c-0.9,0-1.8-0.1-2.6-0.4c-2.9-1.2-6-1.7-9.2-1.5h-3.1c-1.8,0.3-3.3,1.4-4.2,3c-0.5,0.7-0.7,1.7-0.4,2.5
	c0.3,0.6,0.6,1.2,0.9,1.8l0.4,0.8c0.9,1.8,1.8,3.5,2.7,5.2l1.3,2.3l0.1,0.2c2.1,3.7,4.8,8.3,7.6,12.4c3.1,4.6,6.4,9,9.9,13.2
	c4.8,5.7,9.3,10.7,13.7,15.3c3.2,3.3,6.9,6.5,9.8,9l1.9,1.7l1.7,1.5l0.3,0.2l0.1,0.1c3.9,3.5,8,7,12.2,10.3c3.9,3.1,8,5.7,12,8.3
	l1.8,1.2c1,0.7,2.2,1.3,3.2,1.8l0.2,0.1c1.1,0.6,2.3,1.2,3.4,1.9c3.9,2.7,8.5,6.5,8.5,13.2c0.1,4.3-0.4,8.6-1.4,12.8
	c-1,4.6-1.6,9.4-1.5,14.1c0,2-0.1,4-0.2,5.9v0.7c-0.3,7.5-0.6,15.1,0.9,22.7c0.3,1.8,0.6,3.7,0.6,5.6c0.1,2.5,0.4,5.1,1.1,7.5
	c0.6,2.4,1,4.9,1.3,7.4v0.5c0.1,1,0.2,2,0.4,3c0,0.3,0,0.6,0.1,0.8c0.1,0.8,0.2,1.7,0.5,2.5l0.7,2.2c0.9,3.2,2.2,7.6,3.7,11.6
	c1.5,4.5,3.3,9.3,5.4,13.9c1.9,4,4,7.9,6.5,11.6l0.3,0.5c3,4.9,6.4,9.6,10,14.1c5,5.5,10.7,10.1,17.1,13.9l1.7,1.2l0.8,0.5
	c2.4,1.7,5,3.3,7.6,4.6c6.5,3.1,13,6,19.2,8.4c5.4,2.1,11.2,4.1,17.8,5.9c2.5,0.6,5,1.1,7.5,1.3h0.7l2.2,0.3c0.6,0,1.3,0.1,2,0.1
	c1.1-0.1,2.3,0.1,3.4,0.5c2.3,1,4.8,1.5,7.3,1.4h2.1h2.2h0.3c2.3,0,4.6,0.1,6.9,0.2h0.3c2.4,0,5.7,0.2,8.9,0.2
	c5.8,0.1,11.6-0.5,17.3-1.7c2.1-0.5,4.3-0.9,6.5-1.2h0.2h0.2h0.2h0.2c1.5-0.2,3.4-0.5,5.1-0.9c4.5-0.9,8.1-1.8,11.2-2.8
	c0.9-0.3,1.8-0.5,2.7-0.7l0.3-0.1c2.7-0.4,5.2-1.4,7.5-3c0.9-0.2,1.5-0.4,2.2-0.6c0,0,0,0,0-0.4c0-0.1-0.1-0.1-0.1-0.2l0,0l-0.3,0.2
	c-0.7,0.3-1.4,0.6-2.3,0.9h-0.2h-0.2c-0.1,0-0.2,0-0.3,0l-3.2,0.9l-0.6,0.2h-0.2l-0.3,0.1c-2.6,0.7-5.3,1.4-8,2
	c-3.8,0.7-7.6,1.3-11.5,1.6c-5.8,0.6-11.5,1.2-17.1,1.4l-1.5,0.1h-1.7h-1.7c-3.8,0.2-7.4,0.3-11,0.3c-4.8,0.1-9.6-0.3-14.3-1.1
	l-4-0.7h-0.2c-4-0.5-8-1.4-11.9-2.6c-2.5-0.8-5.1-1.5-7.6-2h-0.2h-0.2l-0.7-0.2c-1.5-0.4-3.1-0.7-4.6-1.1c-4-1-8-2.3-11.9-3.8
	c-3.1-1.3-6-3-8.6-5.2c-3.6-3.1-7.1-6.5-10.2-9.6l-2.6-2.6c-1.6-1.5-3.1-3.1-4.3-4.9c-2-2.9-3.9-5.9-5.8-8.9l-0.2-0.2l-0.1-0.2
	l-1.8-2.8l-0.7-1.2l-0.2-0.2c-1.1-1.7-2.2-3.5-3.2-5.3c-1.8-3.2-3.5-6.4-5-9.5c-0.7-1.3-1.3-2.7-2-4l-0.2-0.4l-0.2-0.4v-0.2
	c-2.2-4.5-4.5-9.2-6.6-13.9c-1.9-4.6-3.6-9.3-5-14.1c-0.5-1.9-1-3.8-1.3-5.7v-0.2v-0.3c-0.2-0.9-0.3-1.8-0.5-2.7
	c-0.3-1.2-0.6-2.5-0.9-3.7v-0.2c-0.9-2.7-1.4-5.6-1.5-8.4c0-2.4,0-5-0.2-7.2v-0.3c-0.3-6-0.5-12.1,1-18.2c0.4-1.7,0.8-3.4,1-5.1
	v-0.3c0.2-1.8,0.6-3.6,1-5.3c1.6-5.2,3.5-10.2,5.9-15.1c2.9-5.9,6.6-11.5,11-16.4c1.1-1.2,2.4-2.3,3.7-3.3c1.1-0.8,2.1-1.7,3.1-2.7
	c4.2-4.2,9.6-6.3,15.2-8.2c3.2-1,6.5-1.8,9.8-2.3c1.8-0.3,3.4-0.6,5-1c2.7-0.5,5.5-0.7,8.3-0.6c2.9,0.1,5.8-0.2,8.7-0.8
	c0.7-0.2,1.5-0.2,2.3-0.2c1.6,0,3.2,0.2,4.7,0.5c1.4,0.3,2.7,0.4,4.1,0.5c3.6,0.1,7.2,0.6,10.7,1.5c5.4,1.6,10.3,4.5,14.2,8.5
	c6,5.6,10.4,12.5,14.5,19c3.1,5.4,5.6,11,7.6,16.9c0.8,2.2,1.4,4.5,1.9,6.9v0.2l0,0c0.4,1.7,0.9,3.7,1.5,5.5
	c0.6,1.7,1.4,3.3,2.5,4.8l0.7,1.2c0.1,0.2,0.7,0.3,1,0.3c0.3,0,0.4,0,0.4-0.1c0.3-0.9,0.6-1.7,0.9-2.6s0.6-1.7,0.9-2.6
	c1-2.5,1.9-4.5,2.8-6.4c0.6-1.2,1.3-2.4,2-3.7V592l0.2-0.3l0.2-0.4c0.5-0.8,0.9-1.7,1.4-2.5c3.1-6,7-11.5,11.7-16.4
	c2.5-2.6,5.4-5,8.1-7.3l0.6-0.5l0.5-0.4l0.2-0.1c1.4-1.2,2.7-2.4,4.1-3.6c3.5-2.9,7.5-5.3,11.8-7l1.9-0.9l0.8-0.4
	c3-1.6,6.2-2.7,9.6-3.1c1.9-0.2,3.8-0.6,5.6-1.1l0.2-0.1h0.2c1.9-0.6,3.9-0.9,5.8-1.1h0.7h0.8h0.7c1.3-0.1,2.6-0.2,4-0.2
	c2.2-0.1,4.4,0.3,6.4,1.2c1.6,0.6,3.2,1,4.9,1.2c1.2,0.2,2.1,0.3,3.1,0.5c4.3,1,7.6,3.6,11.3,7.1c3.8,3.4,6.8,7.5,9,12.1
	c0.7,1.5,1.5,3.1,2.5,4.6l0.1,0.3c1.4,2.3,2.6,4.6,3.6,7.1c1.3,3.9,2.3,7.8,2.9,11.8l0.4,1.9l0.3,1.5c0.9,4,1.5,8,1.8,12.1
	c0.6,6.8,0.1,13.7-1.4,20.3c-0.4,1.8-0.8,3.6-1,5.5v0.2v0.2c-0.2,1.5-0.4,2.9-0.7,4.3c-0.6,3-1.4,6-2.4,9c-1.5,4.4-3.6,9.6-5.9,14.5
	c-5.3,11.4-11.9,22.1-19.6,32c-3.9,5.1-8.1,10-12.6,14.7c-6.3,6.7-12.9,13.6-21,18.9c-0.3,0.2-0.5,0.5-0.7,0.7l-0.3,0.4
	c0.1,0,0.2,0,0.3,0h0.3c0.4,0,0.8-0.1,1.1-0.2l3.4-2c3.2-1.8,6.4-3.9,9.4-6c4.7-3.4,9.2-7.2,13.4-11.3c4.1-4.1,8-8.6,11.5-12.6
	c0.9-1.1,1.8-2.1,2.7-3.1c2-2.3,3.9-4.7,5.5-7.2c2.1-3.3,4.2-6.9,5.9-9.9l0.2-0.4c1.3-2.2,2.6-4.4,3.9-6.6
	c3.2-5.6,5.8-11.6,7.8-17.7c0.4-1.1,0.8-2.2,1.2-3.4c1.1-3.1,1.9-6.3,2.5-9.6l0.1-0.5c0.2-1.2,0.5-2.3,0.7-3.4
	c0.1-0.6,0.2-1.3,0.3-2c0-0.6,0.1-1.2,0.3-1.8c0.2-0.9,0.4-1.7,0.6-2.6l0.1-0.5l0.1-0.5l0.1-0.4c0.7-2.5,1.2-5.1,1.6-7.7
	c0.5-4.1,0.7-8.2,0.6-12.4c0-5.3-0.2-11-0.5-17c-0.1-2.1-0.5-4.2-0.8-6.1v-0.2c-0.1-0.9-0.3-1.9-0.4-2.8c0-0.5-0.1-1-0.2-1.5
	c-0.1-1-0.2-1.9-0.4-2.9c-0.5-2.1-1.2-4.3-1.7-6.1l-0.4-0.7l-0.6-1.9l-0.7-2.2c-0.7-2.4-1.4-4.7-2.2-7.1c-0.4-1.3-1-2.5-1.5-3.7
	c-0.8-1.7-1.5-3.5-2-5.4c-2.1-7.8,2.6-17.3,10.1-20.7c5-2.1,9.8-4.6,14.5-7.3c5.1-3,10-6.3,14.8-9.9c4.2-3.2,8.3-6.7,12.1-10.5
	c3.6-3.5,7-7.3,10.1-11.2c4.3-5.2,8.4-10.5,12.1-15.5c1.3-1.8,2.5-3.6,3.5-5.6c2.2-3.9,4.1-7.5,5.7-10.6c1.3-2.6,2.6-5.4,4.2-9.1
	c0.1-0.2-0.2-0.7-0.3-0.7c-0.2-0.4-0.5-0.7-0.7-0.7c-1,0.1-2,0.3-2.9,0.5h-0.2c-0.8,0.2-1.5,0.3-2.3,0.4c-1.9,0.3-3.8,0.5-5.7,0.7
	c-2.5,0.3-5,0.6-7.4,0.9h-0.3c-3.5,0.4-6.9,1.1-10.3,1.9c-5.3,1.4-10.1,3-14.6,4.5l-4.3,1.5c-5.2,1.6-10.3,3.5-15.4,5.7
	c-6.2,2.9-12.2,6.2-18,9.9c-5.7,3.5-11.2,7.4-16.5,11.6c-4,3.2-7.8,6.8-11.5,10.2l-0.2,0.2l-0.2,0.2c-1.6,1.5-3.3,3.1-5,4.5
	c-0.2,0.2-0.4,0.4-0.6,0.6c-0.2,0.2-0.4,0.4-0.5,0.5c-1.3,1.3-3,2-4.8,1.9c-4-0.1-7.9-1.1-11.4-3c-5.4-2.4-10.3-5.7-14.6-9.7
	c-5.1-5.3-5.9-13.4-1.7-19.5c2.6-3.7,6-7.7,10.9-9.8c4.1-1.7,8.4-3.1,12.5-4.3c1.5-0.5,3.1-0.8,5-1.2h0.2h0.2
	c1.2-0.2,2.3-0.5,3.5-0.8l2-0.5h0.2c2.7-0.6,5.8-1.4,8.7-2.3c3.9-1.1,7.5-3.2,10.4-6.1c0.3-0.3,0.5-0.7,0.7-1
	c0.2-0.3,0.3-0.5,0.4-0.7l-0.4-0.1h-0.2c-0.3-0.1-0.6-0.1-1-0.1h-0.3c-0.7,0.1-1.5,0.3-2.2,0.4c-1.2,0.3-2.5,0.5-3.8,0.6
	c-3.6,0.2-7.3,0.2-10.8,0.3h-1.1c-3.3,0-6.6,0.2-9.9,0.3h-0.2c-1.1,0.2-2.2-0.5-2.5-1.5l-0.4-1.2c-0.7-1.9-1.3-3.8-1.5-5.8
	c-0.3-3.7,0.9-7,2.5-10.8c2.3-6,6.8-10.8,12.6-13.5c5-2.3,9.8-4.3,14.3-5.9c2.1-0.7,4.3-1.3,6.3-1.8c1.9-0.5,4.1-1,6.3-1.8
	c3.1-1.1,6.3-2.5,8.9-3.6l3.3-1.5c5.4-2.3,10.1-6.1,13.5-10.8c0.4-0.6,0.6-1.2,0.7-1.9c0.1-0.3,0.1-0.6,0.2-0.9l-1-0.4
	c-0.6-0.3-1.3-0.5-1.9-0.5h-0.2h-0.8c-4.9,0.3-9.8,1.2-14.4,3c-5.1,1.8-9.9,4.4-14.1,7.7c-1.7,1.5-3.8,2.3-6.1,2.5h-0.3
	c-4.9-0.6-8.6-4.7-8.7-9.7c0-1.7,0.4-3.4,1.1-4.9l0.6-1.3l0.1-0.3c0.8-2.4,2.1-4.5,3.8-6.4c3-2.7,6.2-5.1,9.6-7.2l1.7-1.1
	c2.5-1.7,5.1-3.1,7.9-4.3c3.1-1.2,6.3-2.4,9-3.2l0.9-0.3l0.5-0.2c1.4-0.5,2.8-1,4.2-1.5c4.1-1.5,8.2-3.1,12.4-4.6l3.9-1.5
	c5.5-2.3,10.5-5.6,14.9-9.5c4.1-3.4,7.1-7.8,8.7-12.8c0.1-0.3,0.2-0.6,0.4-1l0.2-0.6l-0.7,0.1c-0.4,0.1-0.8,0.3-1.3,0.4h-0.3
	c-0.2,0-0.5,0-0.7,0.1c-5.5,2.5-11,5.1-16.5,7.7l-3.5,1.6l-0.9,0.4l-3.3,1.5c-1.4,0.6-2.8,1.3-4.1,1.9h-0.2c-2.3,1-5.4,2.4-8.1,3.8
	c-4.5,2.4-9.4,4.5-14.9,4.5c-0.4,0-0.9,0-1.3,0c-3.6-0.2-5.5-1.7-6.3-5.1c-0.1-0.7-0.2-1.4-0.2-2.1c0-0.8-0.2-1.7-0.4-2.5
	c-1.1-3.7-2.6-8.5-4.3-13l-0.8-2.2l-0.3-0.7c-1.1-3.6-2.7-7.1-4.6-10.4c-4.2-6.2-8.9-12.2-13.9-17.7c-4.3-4.8-9.3-8.8-15-11.9
	c-1.6-0.9-3.3-1.9-4.6-2.8l-0.3-0.2c-1.5-0.9-2.9-1.8-4.3-2.6c-0.6-0.3-1.3-0.5-2-0.7h-0.3h-0.2L971.6,277L971.6,277z M887.5,514.9
	c-2.9-0.2-5.6-1.9-7-4.5c-1.5-2.8-1.5-5.8-1.5-9c0-0.7,0-1.3,0-1.9c0-3.7,1.8-5.6,5-5.6c0.8,0,1.7,0.1,2.5,0.3
	c4.1,1,7.7,3.5,10.3,6.9c1.7,2.1,1.6,5.2-0.2,8.5c-1.8,3.1-5.1,5.1-8.7,5.2L887.5,514.9z M852.1,512.6c-2.2,0.1-4.3-0.9-5.7-2.6
	c-0.8-0.9-1.3-1.9-1.5-3.1c-0.1-1.3,0-2.7,0.1-4v-0.3c0-0.9,0.1-2,0.1-3.1c0-2.9,2.1-3.2,4.1-3.5c1-0.2,2.1-0.2,3.1-0.2
	c3,0,6,0.8,8.6,2.4c0.8,0.6,1.4,1.4,1.7,2.3l0.2,0.4c1.5,3.8-0.1,8.2-3.8,10c-0.3,0.1-0.7,0.3-1,0.4c-0.5,0.2-1,0.5-1.5,0.6
	C855.1,512.3,853.6,512.5,852.1,512.6L852.1,512.6z M950.5,519.7c-1.1,0-2.1-0.2-3.1-0.6c-4.4-2-5.2-5.6-5.4-9.3c0-0.6,0-1.2,0-1.7
	v-2.3c-0.2-3.5,2.6-6.4,6-6.6c0.1,0,0.2,0,0.3,0c0.5-0.1,1-0.2,1.4-0.5c0.4-0.2,0.9-0.4,1.4-0.5c0.5,0,0.9,0,1.4,0
	c4-0.3,7.7,2.3,8.8,6.2c1.3,3.4,0.4,7.3-2.3,9.8C957.7,517.6,954.3,519.9,950.5,519.7L950.5,519.7z M918,499.2c1.2,0,2.4,0,3.7,0
	h0.2c1.6,0.1,3.1,0.8,4.3,1.8c1.9,1.3,3.1,3.5,3.3,5.8c0.2,3.3-1.1,6.5-3.5,8.8c-0.8,0.3-1.7,0.5-2.5,0.7c-1.2,0.3-2.4,0.7-3.6,1.1
	c-0.8,0.3-1.7,0.5-2.6,0.5c-4,0-7.3-3-7.7-7c-0.1-2.7,0.1-5.5,0.4-8.2l0.1-1c0-1.5,1.3-2.7,2.8-2.7c0.1,0,0.2,0,0.3,0h1.5L918,499.2
	L918,499.2z M881.6,542.6h-0.4c-2-0.2-3.9-0.9-5.6-1.8c-4.3-2.3-4.9-6.1-4.9-9.4c0-1,0-2.2,0.2-3.6c0.7-1.8,2.4-2.9,4.3-2.8h0.2
	c1.3,0,2.6,0,3.9,0c1.3,0,2.4,0,3.6,0h0.2c2.6,0.2,5,1.4,6.7,3.4c1.4,1.4,2.1,3.3,1.9,5.3c-0.3,2.3-4.1,7.3-6.4,7.9
	c-0.3,0.1-0.6,0.2-0.9,0.3l-0.4,0.1C883.3,542.4,882.5,542.6,881.6,542.6L881.6,542.6z M901.8,531.5c0.9,0,1.8,0,2.6,0
	c0.8-0.1,1.7-0.3,2.4-0.7c0.5-0.3,1.1-0.4,1.7-0.4c2.7,0,6.2,2.4,6.4,5c0.3,4.4-1.1,6.7-5.9,9.3c-1.4,0.8-2.8,1.4-4.3,1.9
	c-0.5,0.1-1,0.2-1.5,0.2c-2,0-3.8-1.1-5.7-3.5c0-1.5,0-3.2,0-4.8V538c0-1.7,0-3.4,0-5.1c-0.1-0.4,0-0.7,0.2-1
	c0.2-0.2,0.5-0.3,0.8-0.2h0.7h2.8L901.8,531.5z M932.5,549.2c-2.9,0-5-2.3-5.1-5.6c0-1.5,0-3.1,0-4.5c0-1.4,0-2.8,0.1-4.1
	c0-1.9,1.4-3.4,3.3-3.5c0,0,0,0,0.1,0c1.1-0.1,2.4-0.1,4.1-0.1h3.2h2.4c1.2,0,3.4,3,3.5,4.8c0,0.8,0,1.5,0,2.4v0.4
	c0,0.3,0,0.6,0,0.9v0.5c-0.1,0.7-0.3,1.3-0.5,2c-1.7,4.2-7.1,6.3-10.2,6.7h-0.7L932.5,549.2z M909.6,574.7c-0.7,0-1.5-0.2-2.1-0.6
	c-1.7-1.1-2.8-1.9-2.7-4c0-1.4,0-2.8,0-4.2v-1.5c0-0.9,0-1.7,0-2.6c0.3-4.1,3.8-7.2,7.9-7.2c1.1,0,2.3,0.3,3.3,0.8
	c1.5,0.9,3,1.8,4.2,2.6c2.8,4.6,2.5,9.6-0.6,12.4c-1.7,1.3-3.6,2.3-5.6,2.9l-1.5,0.6l-0.4,0.1C911.3,574.5,910.5,574.7,909.6,574.7
	L909.6,574.7z"/>
<path class="st3" d="M991.2,725.9c-0.6,0-1.3,0.2-1.8,0.5c-1.7,1.2-3.5,2.4-5,3.5l-0.4,0.3l-0.1,0.1c-2.3,1.7-4.1,2.9-6,4.2
	c-3.9,2.6-8,5-12.1,7.2c-2.1,1.1-4.3,2.1-6.5,3l-0.4,0.2l-1.8,0.7c-1.3,0.5-2.5,1.1-3.7,1.5c-3.5,1.5-7,3.1-10.6,4.2
	c-3.4,1-6.8,1.8-10.2,2.5l-3.8,0.8c-0.5,0.1-1,0.2-1.4,0.2c-0.8,0-1.6,0.1-2.4,0.5c-2.5,1.1-5.2,1.7-7.9,1.6c-2.1,0-4.2,0.3-6.2,0.9
	c-1.9,0.5-3.8,0.7-5.8,0.7h-8.7h-4.3c-6.6,0.2-13.2-0.4-19.7-1.5c-4-0.8-8-1.4-12-1.6c-5.8-0.5-11.5-1.5-17-3.2
	c-2-0.6-4.1-1.1-6.2-1.5l-0.4-0.1l-0.3-0.1l-0.4-0.1H836c-1.7-0.4-3.6-0.9-5.4-1.4c-3.6-1-7.6-2.2-12.2-3.8
	c-4.2-1.4-8.7-3.1-13.6-4.9c-0.9-0.4-1.8-0.8-2.7-1.3c-0.7-0.4-1.3-0.7-2-1c-2.6-1.2-5.4-2.4-8.2-3.5c-0.2-0.1-0.4-0.1-0.7-0.1
	c-0.6,0-1.1,0.2-1.5,0.5l-0.8,1c-2.5,2.9-4.8,5.9-7,9c-1.5,2.3-2.8,4.7-4,7.2l-0.7,1.4l-0.3,0.6l-1,2c-1.8,3.5-3.8,7.4-5.4,11.2
	c-1,2.3-1.8,4.7-2.5,7.1l-0.1,0.3c-0.3,0.9-0.6,1.9-0.9,2.8l-1,3v0.2c-0.9,2.6-2,6.1-3,9.4c-0.9,3-1.5,6.1-2,9.2
	c-0.1,0.6-0.2,1.2-0.3,1.8v0.2l-0.1,0.6l-0.1,0.5c-0.7,3.3-1.1,6.6-1.2,10c0.1,3.3,0,6.6-0.1,9.7c-0.2,7.7-0.4,15.5,1.5,23.1
	c0.4,1.7,0.7,3.4,0.9,4.8c0.2,1.8,0.6,3.6,1.1,5.4c1.4,4.6,3,9.2,4.9,13.6c1.7,4.2,3.6,8.2,5.7,12.2c1.7,2.9,3.6,5.8,5.6,8.5
	l1.1,1.5l0.4,0.6l0.8,1.1l0.4,0.6c1.9,2.9,3.9,5.6,6.2,8.1c3.6,3.7,7.5,7.3,11.5,10.5c2.8,2.3,5.8,4.5,9,6.3c2.8,1.6,5.6,3,8.6,4.3
	h0.2l1.5,0.7c2.4,1.2,5,2.2,7.6,3c2.6,0.6,5.2,1,7.8,1.3h0.2c1.3,0.2,2.5,0.3,3.7,0.5c0.1,0,0.3,0.1,0.4,0.1
	c0.2,0.1,0.3,0.2,0.5,0.2h2h1.2c2.4,0.1,4.9-0.1,7.3-0.4c2.4-0.6,4.8-1.4,7-2.5l1.4-0.6l1.5-0.7c2.3-0.8,4.4-2,6.4-3.4
	c3.6-2.8,7.2-6,9.3-10.7c1.1-2.8,1.1-5.8,0.1-8.6c-0.5-1.7-1.2-3.3-2-4.9l-0.3-0.6l-1-2.1l-0.3-0.6c-1.4-3.1-2.8-6.2-4.5-9.4
	c-1-1.8-2.1-3.5-3.2-5.2l-0.3-0.4c-0.8-1.2-1.7-2.5-2.5-3.8c-2.6-4.3-5.6-9.5-8.6-15.1c-2.2-3.9-4.1-8-5.7-12.2
	c-1.7-4.5-2.9-9.2-3.5-13.9c-0.5-6.1-1-13,1.7-19.4c0.2-0.5,0.5-1.1,0.7-1.7c0.8-2.4,2-4.7,3.6-6.7c2.7-2.8,5.6-5.4,8.7-7.8
	c1-0.8,1.8-1.5,2.7-2.2c1.5-1.2,3.1-2.3,4.8-3.2c4-2,7.7-3.8,11.3-5.3c4.9-2.1,9-3.9,13.4-5.4c2-0.7,4.1-1.2,6.2-1.5h0.2h0.2
	c0.9-0.2,1.8-0.4,2.7-0.6h0.3l3.1-0.7h0.3c2.2-0.5,5.2-1.2,8.1-1.8c2-0.4,4-0.5,6-0.5c1.8,0,3.6,0,5.4,0c6.4-0.2,12.9,0.5,19.1,1.9
	c0.4,0.1,0.9,0.1,1.3,0.1h0.3c0.6,0,1.2,0,1.8,0.2c4.8,1.8,8.6,3.3,12,4.8c4.5,1.8,8.5,4.6,11.7,8.2c3.1,3.7,3.8,8,4.4,12.1
	c0.2,1.1,0.4,2.4,0.7,3.8c0.4,2.5,0.1,5-0.8,7.4c-0.8,2.9-1.4,5.9-1.5,9c0,0.9-0.2,1.7-0.2,2.5c-0.6,4.1-1.8,8.2-3.5,12l-0.1,0.2
	l-0.2,0.4l-0.3,0.7c-0.2,0.4-0.3,0.9-0.5,1.3c-0.3,0.8-0.5,1.5-0.8,2.4c-0.5,1.7-1.1,3.5-1.9,5.1l-0.2,0.4c-3.5,6.7-7,13.7-11,20.5
	c-0.7,1.2-1.4,2.3-2.1,3.5l-0.4,0.6c-2.9,4.3-5.3,8.9-7.3,13.7c-1.7,3.9-2,8.3-1,12.4c2.2,7.7,9.3,9.7,15.8,10.7h0.4h0.2h0.2
	c0.5,0.1,1,0.2,1.5,0.2h0.4c1.1-0.1,2.2-0.4,3.3-0.6c0.8-0.2,1.5-0.3,2.2-0.4c0.5-0.1,0.9-0.1,1.4-0.2c0.8,0,1.6-0.2,2.4-0.5l2.3-1
	c3.6-1.4,7.2-3.1,10.6-5c4.8-2.8,9.5-6,13.9-9.4c3-2.5,5.9-5.1,8.6-8l0.9-0.9c7.3-7.3,12.7-12.9,17.5-18.1c2.1-2.3,4.1-4.7,5.7-7.4
	c1.2-2,2.4-4.2,3.3-6v-0.2l0.3-0.6c1.1-2.1,2.1-4.1,3.3-6c1.8-3.2,3.2-6.6,4-10.1l0.1-0.4c0.4-1.5,0.9-3.1,1.4-4.5
	c1.1-3.2,1.7-6.5,1.7-9.8c0-4.9-0.4-9.9-0.7-14.3v-0.2c-0.1-1.5-0.2-3.1-0.3-4.6c0-1.3-0.2-2.6-0.6-3.8c-0.5-1.7-1.1-3.3-1.5-4.7
	c-0.4-1.1-0.8-2.2-1.1-3.4c-0.4-1.1-0.8-2.8-1.1-4c-0.6-2.9-1.6-5.7-2.8-8.3c-3.7-7.1-7.7-13.8-12.4-21.1c-2.3-3.7-4.9-7.2-7.7-10.5
	c-2.4-2.7-5.1-5.5-7.5-7.9l-0.2-0.2c-2.3-2.4-4.6-4.6-6.7-7c-1.9-1.9-4.3-3.3-6.8-4.1l-1.8-0.7c-0.4-0.2-0.8-0.3-1.3-0.2
	L991.2,725.9z"/>
<path class="st3" d="M1038.3,865.5c-0.4,0-0.8,0.3-1.3,0.8c-1.4,1.5-2.8,2.9-4.3,4.3l-0.4,0.4l-0.2,0.2c-1,1-2,2-3.1,3.1
	c-2.7,2.8-5.3,5.6-7.9,8.4c-2.5,2.7-4.9,5.3-7.4,7.9c-3.7,3.9-4.6,8.6-3.4,15.2l0.6,3l0.2,0.8l0.2,0.9v0.3c0.6,2.7,1.2,5.5,1.5,8.2
	c0.4,2.8,0.6,5.6,0.6,8.4c0,3,0,6.1,0,8.8v0.7c0.1,7.6,0.2,15.4-1.5,23c-0.4,2-0.8,4-1,6c-0.2,1.7-0.4,3.3-0.7,4.9
	c-0.7,3.5-1.5,7.2-2.2,10.3c-0.4,2-0.9,4-1.3,6c-0.1,0.4-0.1,0.9-0.1,1.3c0,0.6-0.1,1.2-0.3,1.7c-0.9,2.5-1.9,5-2.9,7.5l-1.7,4.3
	c-0.5,1.4-1.1,2.8-1.5,4.2v0.2c-0.9,2.4-2,5.4-3.3,8.2c-0.9,1.8-1.9,3.6-2.9,5.3l-0.2,0.3c-1.2,2-2.3,4-3.3,6.1
	c-2.6,5.4-5.7,10.6-9.3,15.4l-0.4,0.6c-0.8,1.1-1.5,2.2-2.3,3.3c-3.5,4.9-7.5,9.4-11.9,13.6c-3.8,3.8-7.7,7.4-11.2,10.6l-1.5,1.5
	l-2.4,2.2c-1.2,1.2-2.6,2.3-4,3.3c-4.3,2.8-8.4,5.4-12.4,7.7c-2.5,1.5-5.1,2.9-7.7,4.1c-3.1,1.3-6.4,2.4-9.3,3.4l-0.3,0.1l-2.4,0.8
	c-3.4,1.2-6.9,2.2-10.5,3.1c-2.3,0.5-4.7,0.7-7.1,0.6h-2.1c-7.2,0-13.2-0.2-19.2-0.6c-3-0.2-5.9-0.7-8.7-1.7
	c-4.4-1.7-8.8-3.6-13-5.8l-2.2-1.1l-0.6-0.3c-4.7-2.2-9.3-4.8-13.6-7.7c-5.6-4.1-10.8-8.6-15.7-13.5c-3.1-3.1-5.9-6.3-8.5-9.8
	l-0.7-0.9l-0.5-0.7l-0.1-0.1l-0.1-0.1c-3.3-4.3-6.8-8.7-9.8-13.3c-2.9-4.7-5.6-9.5-8-14.5c-2.9-5.6-4.9-10-6.5-14.2
	c-0.8-2.2-1.5-4.4-2-6.7c-0.4-1.5-0.8-3.1-1.3-4.6c-0.5-1.5-1-3.1-1.5-4.6l-0.2-0.4l-0.1-0.3l-0.2-0.2c-0.8-2.2-1.6-4.6-2.3-7.2
	c-1.2-4.6-2.3-9.5-3.2-15.1c-0.8-4.3-1.3-8.7-1.5-13.1c-0.4-6-0.5-12.2-0.6-17.6c0-5,0-10.1,0-15v-4.1c0-0.4,0.1-0.8,0.2-1.2
	c0.1-0.4,0.2-0.9,0.2-1.3c0-1.2,0-2.4,0.1-3.6c0.3-2.9,0.1-5.8-0.4-8.6c-1-3.1-2.3-6-4-8.8l-0.2-0.3c-0.7-1.2-1.4-2.5-2-3.8
	c-2.1-4.4-4.4-9.2-6.9-14.7c-1-2.1-1.7-3.7-2.2-5.3c-0.6-1.8-1.2-3.6-1.8-5.4c-0.3-0.9-0.6-1.7-0.9-2.6c0-0.3-0.2-0.5-0.3-0.8
	l-0.2-0.5c-0.1,0.1-0.3,0.1-0.4,0.2l-0.2,0.1c-0.3,0.2-0.6,0.5-0.7,0.9c-0.3,1.7-0.9,3.3-1.5,4.9c-0.9,1.9-1.5,3.8-1.9,5.8
	c-0.5,2.9-1.2,5.8-2.2,8.6v0.2c-0.7,1.9-1.3,3.9-1.7,5.9c-0.7,3.4-1.2,6.8-1.5,10.3l-0.2,1.5c-0.4,3.1-0.5,6.2-0.5,9.3
	c0.1,3.9,0,8,0,11.6c-0.1,9.5-0.2,19.2,1.5,28.7c0.3,2.2,0.5,4.4,0.5,6.5v0.6c0,1.2,0,2.5,0.2,3.7c0.2,1.9,0.4,4,0.7,5.6v0.2v0.5
	c0.2,1.1,0.3,2.1,0.4,3.1c0,0.5,0.1,1.1,0.1,1.6v0.4c0,1,0.1,2.1,0.3,3.1c0.4,2.2,0.9,4.3,1.4,6.4c0.5,2,0.8,3.6,1.2,5.5
	c0.7,3.1,1.3,6.7,2,10.7c0.1,0.5,0.1,1,0.1,1.5c0,0.6,0,1.3,0.2,1.9c0.3,1.2,0.7,2.5,1.2,3.7s1,2.9,1.4,4.4c0.5,2,1,3.9,1.4,5.9
	l0.1,0.6v0.2c0.7,2.9,1.3,5.5,2,8c0.9,3.3,2,6.6,3.1,10.2l0.1,0.3l0.4,1.4c0.4,1.3,0.8,2.5,1.2,3.8c0.2,0.8,0.5,1.5,0.7,2.4v0.2
	c0.4,1.3,0.8,2.9,1.4,4.4c0.8,2.1,1.6,4.2,2.5,6.2c0.8,2,1.4,3.4,2.1,5.2c0.7,1.7,1.2,3.1,1.7,4.8c0.5,1.7,1.1,3.3,1.8,4.9
	c0.6,1.6,1.4,3.7,2.2,5.5l0.1,0.2v0.2c1,2.5,2.3,5.6,3.3,8.5c1.4,4,2.4,8.2,3.5,12.2v0.2l0.1,0.4c0.4,1.7,0.8,3.5,1.3,5.2l0.1,0.5
	c0.5,2.3,1.1,4.6,1.8,7.1v1.1c0,0.8,0.1,1.6,0.3,2.3c0.3,1.1,0.7,2.1,1,3.2c0.7,1.8,1.2,3.7,1.5,5.6v0.2c0.7,5.7,1.8,11.3,3.2,16.9
	c0.8,3,1.3,6,1.7,9.1l0.1,0.8c0.1,0.9,0.3,1.8,0.4,2.6c0,0.4,0,0.8,0,1.2c-0.1,0.5-0.1,1,0,1.5c0.3,1.4,0.7,2.8,1.1,4.2l0.1,0.4
	c0.5,2,1,4,1.4,5.9c0.3,1.4,0.6,2.9,0.8,4.2v0.4v0.2v0.2v0.2c0.4,2.1,0.7,4.2,1.3,6.3c1.1,4.3,2.6,8.8,3.8,12.4l0.5,1.4
	c1.1,3.4,2.3,7.1,3.8,10.6c0.9,2.2,1.9,4.4,2.8,6.4l0.2,0.5c1,2.1,1.9,4.2,2.8,6.3c2.6,5.6,6,10.8,10.1,15.5
	c1.3,1.5,2.8,2.8,4.5,3.9l0.3,0.2l1.5,1.2c2.6,2.3,5.8,3.9,9.3,4.5c1.9,0.3,3.7,0.5,5.6,0.5c5.2,0.1,10.3-1.6,14.4-4.9
	c3.5-2.9,6.5-6.2,9-10c2.5-3.9,4.4-8.1,5.7-12.5c0.4-1.1,0.7-2.2,1.1-3.3c1.4-4.2,2.5-8.4,3.2-12.8v-0.4c0.7-3.3,1.1-6.7,1.4-10
	v-0.3l0.2-1.5c0.3-2.4,0.5-4.9,0.5-7.3c-0.1-9.3-0.3-18.6-0.4-27.7l-0.1-4.9c0-0.2-0.1-0.4-0.2-0.6c-0.1-0.2-0.1-0.4-0.2-0.6v-0.5
	c-0.1-0.7,0-1.4,0.1-2.1c1-2.9,3.5-3.1,6-3.1h0.4h0.9c3.6,0.2,7.2,0.8,10.6,1.9c1.5,0.4,3.1,0.8,4.6,1.2c4.9,1,9.9,1.6,15,1.6h0.7
	c2.2,0,4.4-0.2,6.5-0.4c2.4-0.3,4.8-0.5,7.2-0.5c4.8-0.2,9.6-0.9,14.2-2.1c0.6-0.1,1.2-0.3,1.7-0.5c1.1-0.4,2.3-0.6,3.5-0.7
	c0.3,0,0.7,0,1,0.1c2.8,0.7,5.5,1.9,7.7,3.7c4.5,3.7,5.5,9.1,6.2,14.8c0.2,2.4,0.3,4.8,0.2,7.1c-0.2,3.3,0,6.7,0.7,10
	c0.4,2,0.6,4,0.7,6.1c0,2.7,0.4,5.4,1.1,8.1c0.5,1.8,0.9,3.7,1.1,5.6v0.3c0.2,1.2,0.3,2.4,0.6,3.6l0.5,2.2c0.8,4,1.7,8.4,3,12.6
	c1.4,4.9,3.2,9.6,5.2,14.3c1.8,4.1,4,7.9,6.5,11.6c1,1.5,2.2,2.8,3.6,4l0.2,0.2c0.9,0.9,1.8,1.8,2.6,2.7c3.8,4.5,9.4,6.2,13.2,7.1
	c1.3,0.3,2.5,0.4,3.8,0.4c4.1-0.1,8.1-1.4,11.4-3.9c3.6-2.8,6.7-6.3,8.9-10.4c3.1-5.3,4.5-11.4,5.7-17.2l0.2-0.8
	c0.8-3.9,1.3-7.8,1.5-11.7c0.2-2.6,0.2-5.1,0.1-7.6c-0.1-3.4,0-6.7,0.4-10c0.2-2.2,0.1-4.4-0.2-6.5v-0.6c0-0.7-0.1-1.3-0.2-2
	c-0.2-2.9-0.2-5.8-0.3-8.8c0-3.8-0.1-7.5-0.5-11.3c-0.9-7.4-1.1-14.9-1.4-21.7l-0.3-7.1c-0.8-16.9-0.9-31,0.8-45.4
	c0.3-2.6,0.7-5.3,1.1-8l0.3-1.9l0.3-1.9l0.1-1.2c0.1-0.9,0.2-1.8,0.4-2.6c0.4-1.3,0.8-2.5,1.2-3.8l0.2-0.5c0.5-1.3,0.9-2.7,1.3-4.1
	c0.3-1.1,0.6-2.2,0.9-3.2v-0.3v-0.3v-0.2c0.4-1.5,0.8-3,1.2-4.4c0.8-2.3,1.7-4.6,2.6-7s2.2-5.8,3.2-9c1.3-4,2.3-8.3,3.1-12.1v-0.2
	l0.1-0.6c1.1-4.8,2.1-9.9,3.2-15.9l0.2-0.8v-0.2c0.6-3,1.1-6,1.4-9.1c0.2-2.1,0.4-4.1,0.6-6.2v-0.4c0.4-3.4,0.7-6.9,0.8-10.3
	c0-2.6,0.1-5.2,0.2-7.9c0.3-9.3,0.6-18.6-0.9-27.9c-0.3-2.2-0.5-4.3-0.5-6.5v-0.2c0-3.2-0.4-6.5-1.2-9.6c-0.9-3.4-1.4-6.8-1.6-10.3
	c-0.2-5.4-0.8-10.8-2-16.1c-0.7-2.2-1.2-4.5-1.7-7v-0.2c-0.5-2.2-1-4.6-1.7-7c-1-3.3-2.3-6.7-3.4-9.6c-0.5-1.3-1-2.7-1.5-4l-0.6-1.7
	c-1.3-3.6-2.6-7.1-4-10.7C1039.3,866.2,1038.9,865.4,1038.3,865.5L1038.3,865.5z"/>
<path class="st3" d="M1103,976.9c-4.7,0.2-9.3,1.3-13.6,3.2c-4,1.6-7.9,3.5-11.6,5.7c-2.7,1.7-5.3,3.6-7.6,5.8
	c-2.8,2.5-3.3,6-3.8,9.3c-0.2,1.7-0.5,3.3-1,4.9c-0.6,2-1,4-1.3,6.1v0.3c-0.2,1-0.3,1.9-0.4,2.7c-0.5,3.1-1.1,6.2-1.5,9.3
	c-0.1,0.9-0.3,1.7-0.4,2.6v0.2v0.3c-0.4,2.4-0.8,4.6-1.1,6.9c-0.3,2.8-0.5,5.8-0.6,9.3c0,5,5.3,11.9,10.2,13.1l1.1,0.3l0.8,0.2
	l0.8,0.2c1.2,0.3,2.5,0.7,3.7,1c3.5,0.8,7,1.6,10.6,2.4l1,0.2l0,0c0.1,0,0.2,0,0.3-0.1l0.2-0.1l1.1-0.3c0.8-0.3,1.7-0.4,2.6-0.5
	c1-0.1,2-0.1,3-0.1h0.3c1.9,0.1,3.8-0.1,5.7-0.6c4.1-1.1,8-2.7,11.8-4.6c4.9-2.5,9.5-5.5,14.7-8.7c1.2-0.8,2.3-1.7,3.3-2.7
	c0.6-0.6,1.1-1.1,1.7-1.5l3.1-2.6l0.4-0.4c3.1-2.6,5.6-4.8,8-7c0.3-0.4,0.5-0.9,0.5-1.4v-0.2c0-0.2,0-0.4,0.1-0.6
	c-0.2,0-0.5,0.1-0.7,0.3c-0.4,0.2-0.8,0.5-1.1,0.8c-2.1,2.1-4.9,3.4-7.8,3.5c-3.4,0-6.3-2-8.2-5.8v-1.3c0-3.2,0.6-5.5,3.7-6.7
	c1.4-0.7,2.8-1.6,4-2.6l0.3-0.2c0.4-0.3,0.8-0.6,1.2-0.9c0.2-0.2,0.3-0.5,0.4-0.7l0.1-0.4h-0.4c-0.2,0.1-0.5,0.1-0.7,0.2
	c-0.7,0.1-1.3,0.2-2,0.3h-0.4c-1.6,0.3-3.1,0.5-4.7,0.6c-0.3,0-0.5,0-0.8,0c-3.9-0.2-7.7-1.4-10.9-3.5c-4.1-2.8-7.3-6.7-9.1-11.4
	c-0.5-1.3-0.8-2.6-1.1-4c-0.2-1.5-0.7-3-1.3-4.5c-2-4.1-0.8-7.6,0.6-11.2c0.2-0.5,0.4-1,0.5-1.5c0.2-0.4,0.4-0.9,0.7-1.2l0.4-0.6
	l-0.4-0.3l-0.5-0.2c-0.6-0.4-1.2-0.7-1.9-0.8c-0.5,0-1,0-1.5,0L1103,976.9z"/>
<path class="st2" d="M1159.6,960.7c-0.3,0-0.5,0-0.8,0.2c-1,0.5-1.9,1.1-2.7,1.9c-0.6,0.5-1.1,0.9-1.6,1.3l-1.4,1
	c-1.7,1.2-3.4,2.3-5.2,3.4c-5.4,3-11.1,5.3-17,6.9l-0.9,0.4c-0.6,0.3-1.2,0.5-1.9,0.6c-4,0.7-7.7,2.8-10.2,6
	c-2.6,3-3.8,10.6-2.2,13.9c2.8,5.2,8.1,8.5,14,8.5c1.3,0,2.5-0.2,3.7-0.6l2-0.6c3.6-1.4,7.4-2.2,11.3-2.4c0.9,0,1.8,0.1,2.7,0.2
	c1.2,0.2,3.1,1.3,3.1,1.9c0,3.1-0.4,6.2-1.1,9.1c-0.8,3.2-2.7,6-5.2,8c-0.2,0.3-0.4,0.6-0.4,0.9c0.1,0.2,0.3,0.4,0.6,0.4
	c0.5-0.2,1-0.4,1.4-0.6c1.1-0.3,2.2-0.9,3.1-1.7c2.5-2.6,4.8-5.4,6.8-8.5c3.5-6,6.1-12.4,7.9-19.1c0.2-0.7,0.4-1.4,0.7-2.1
	c1.2-3.1,1.9-6.3,2.1-9.6c-0.1-2.3-0.6-4.6-1.4-6.7c-0.6-1.7-1-3.5-1.3-5.2c-0.3-2.7-1.6-5.2-3.8-6.8
	C1161.2,961,1160.4,960.7,1159.6,960.7L1159.6,960.7z"/>
</svg>
