<svg id="Draw_Layer" data-name="Draw Layer" xmlns="http://www.w3.org/2000/svg" viewBox="0 0 338.36 646.15"><defs><style>.cls-1{fill:#161616;}.cls-2{fill:#6edaf4;}.cls-3{fill:#725af7;}.cls-4{fill:#bebebe;}</style></defs><title>Deer</title><path class="cls-1" d="M1444.93,497.1c-.15.23-.29.66-.45.67-3.79.3-5.91,5.3-5,8.34a5.73,5.73,0,0,0,2.84,3.12,38.68,38.68,0,0,1,12.6,9.52,32.08,32.08,0,0,1,6.18,9.29c1.31,3.23,2.85,6.38,4,9.67a27.77,27.77,0,0,1,1.09,6c.24,2,.2,4.09.4,6.12.1,1,.69,2,.63,3-.23,3.47-.5,6.95-1,10.37a53.52,53.52,0,0,1-2.09,8.36c-1,3.15-2.4,6.21-3.72,9.26-1.83,4.24-3.63,8.5-5.7,12.62a76.69,76.69,0,0,1-4.51,7c-2.54,3.89-5,7.81-7.65,11.64-1.93,2.83-4,5.59-6,8.3-2.24,2.93-4.32,6.06-7,8.57-2.21,2.08-4.64,4.26-7.86,4.88a35.07,35.07,0,0,1-6.08.87c-5.64,0-11.27,0-16.91,0-4.3,0-8.59,0-12.88,0-3.41,0-6.8.36-10.2.28a12.28,12.28,0,0,1-5.6-1.1,14.39,14.39,0,0,1-4.73-4.52,38.82,38.82,0,0,1-3.2-7c-1.23-3-2.34-6.12-3.51-9.17-.57-1.51-1.22-3-1.77-4.5-.5-1.36-1-2.75-1.35-4.14-.69-2.39-1.39-4.78-2-7.2-.48-2-.84-4.08-1.17-6.14-.39-2.52-.51-5.1-1.09-7.57-1.11-4.7-1-9.46-1-14.22a40.32,40.32,0,0,1,.37-6.12c.41-2.57,1.15-5.09,1.69-7.65.13-.66-.06-1.4.11-2.05.74-2.71,1.44-5.43,2.38-8.07.65-1.82,1.92-3.42,2.47-5.25.73-2.4,2.17-4.35,3.4-6.43a50.45,50.45,0,0,1,3.84-5.89,81.36,81.36,0,0,1,6.65-7.35,49.92,49.92,0,0,1,9.88-7.22c2.11-1.21,4-2.8,3.72-5.73-.28-3.14-3.27-6.59-6.28-7.9-3.22-1.39-5.9-.05-8.58,1.15-4.42,2-7.26,5.85-10.4,9.33-.31.35-.67.65-1,1-3,3.34-6,6.67-9,10-2.25,2.54-4.44,5.13-6.66,7.69s-4.65,5.26-6.88,8c-.89,1.09-1.37.79-2.24,0-2.6-2.5-4.08-5.6-5.6-8.84-1.58-3.4-2.72-7-5.36-10-3.42-3.9-7.42-5.05-12.22-4.58-1.44.14-3.88,3.15-3.9,4.64a55.76,55.76,0,0,0,.06,7.2,51.72,51.72,0,0,0,1.69,6.95c1.27,4.79,3.69,9,6.09,13.34,2.82,5,6.86,9,10.91,12.88a36.87,36.87,0,0,1,6.73,8.91,7.76,7.76,0,0,1,.26,6.18c-.37,1.15-1.79,1.33-2.86.58-3.79-2.64-7.55-5.31-11.38-7.87-2.71-1.81-5.46-3.59-8.32-5.15-2.23-1.21-4.72-.77-7.07-.22-.32.08-.62,1-.61,1.54a43.61,43.61,0,0,0,.4,7.33,12.79,12.79,0,0,0,2.23,5,35,35,0,0,0,5.54,6.22,84.34,84.34,0,0,0,8.26,5.67c2.23,1.46,4.44,3,6.79,4.22,4.37,2.3,7.82,5.67,11.19,9.16a25.27,25.27,0,0,1,4.68,7.81c.95,2.17.41,4.26.55,6.38a6,6,0,0,1-.85,2.41c0,.07-.49,0-.7,0-2.06-.79-4.1-1.62-6.16-2.38-2.93-1.07-5.86-2.13-8.82-3.12A3.72,3.72,0,0,0,1324,611a4.67,4.67,0,0,1-1-.07,64.89,64.89,0,0,0-15.86-1.22c-.09,0-.28.38-.24.44.59.75,1.21,1.48,1.83,2.21,1.48,1.71,2.83,3.55,4.47,5.11a119.28,119.28,0,0,0,9.68,8.59c3.29,2.5,6.92,4.53,10.45,6.7,2.4,1.47,4.83,2.91,7.34,4.17,2.35,1.17,4.83,2.07,7.23,3.14a1.08,1.08,0,0,1,0,.93c-2.57,2.17-5.18,4.3-7.78,6.43-1.82,1.49-3.71,2.9-5.47,4.46s-2.05,1.51-3.92,0c-2.69-2.22-5.55-4.23-8.35-6.31-1.73-1.29-3.43-2.62-5.22-3.81s-3.78-2.36-5.72-3.43c-2.5-1.38-5-2.73-7.6-4-2.08-1-4.24-1.81-6.38-2.68-1.8-.72-3.59-1.43-5.41-2.08s-3.76-1.33-5.66-1.9c-2.39-.71-4.78-1.4-7.2-2s-4.79-.74-7.09-1.43c-2.68-.8-5.46-.56-8.1-1.09-5.43-1.08-10.86-.88-16.31-.95-1.22,0-2.44,0-3.75.08a8.44,8.44,0,0,0,0,2c.2,0,.41,0,.43,0,.87,2.48,1.69,5,2.61,7.45.75,2,1.54,4,2.47,6,1.1,2.28,2.31,4.51,3.56,6.71,1.76,3.11,3.51,6.24,5.44,9.24,1.71,2.64,3.58,5.18,5.54,7.63a99.45,99.45,0,0,0,6.66,7.69c2.55,2.6,5.28,5,8.08,7.4,3.15,2.65,6.39,5.22,9.73,7.63s6.74,4.67,10.26,6.77c2.53,1.5,5.3,2.61,7.94,4,.18.09.27.61.21.89-.41,1.8-1,3.57-1.31,5.37-.49,2.55-.86,5.11-1.26,7.67a37.49,37.49,0,0,0-.8,6.1c.16,7.51-.69,15.05.63,22.53.51,2.89.88,5.8,1.3,8.71a20,20,0,0,0,.27,2.33c.48,1.88,1.06,3.74,1.58,5.61s1,4,1.63,5.95c.86,2.48,1.89,4.9,2.91,7.33,1.16,2.77,2.28,5.57,3.62,8.25a85.18,85.18,0,0,0,4.43,7.92c2.15,3.38,4.42,6.68,6.78,9.91,1.16,1.59,1.26,2.12-.15,3.66a16.93,16.93,0,0,0-2.12,2.61c-1.65,2.79-3.23,5.62-4.78,8.47-1.36,2.51-2.74,5-3.92,7.61-.91,2-1.5,4.14-2.25,6.21-.88,2.42-2,4.79-2.62,7.27a93.67,93.67,0,0,0-2.09,9.93,70.68,70.68,0,0,0-1,10.54,59.46,59.46,0,0,0,.44,10.72c.61,3.47-.29,7.21-.51,10.83-.14,2.22-.06,4.46-.41,6.64-.36,2.35-1.21,4.62-1.66,7s-.63,5-1.11,7.39c-.58,2.93-1.42,5.81-2,8.73a47.57,47.57,0,0,0-1,6.36,59.7,59.7,0,0,1-1,8.82,38.93,38.93,0,0,0-.42,7.5c-.06,2.79,0,5.58,0,8.37.06,5.73-.21,11.47,1,17.17.65,3.1.7,6.33,1.11,9.49.35,2.68.85,5.34,1.24,8,.11.73,0,1.51.16,2.21.52,2,1.2,4,1.71,6.08s.76,4,1.24,5.94c.58,2.36,1.32,4.68,1.89,7s.84,4.51,1.44,6.73c.82,3,1.89,6,2.74,9,.57,2,.86,4,1.45,6,.83,2.78,1.86,5.5,2.74,8.26.75,2.37,1.45,4.76,2.09,7.15.75,2.78,1.39,5.58,2.11,8.37s1.51,5.64,2.27,8.46c.65,2.4,1.33,4.8,2,7.2.48,1.84.82,3.72,1.38,5.53.84,2.78,1.86,5.51,2.73,8.27.75,2.37,1.45,4.76,2.09,7.15.75,2.78,1.38,5.58,2.11,8.37s1.52,5.64,2.28,8.46q1,3.53,1.89,7.06c.5,1.89.88,3.8,1.46,5.67.84,2.72,1.8,5.4,2.73,8.1a59.88,59.88,0,0,0,2.6,7.28,89.48,89.48,0,0,0,5.15,8.67,25.45,25.45,0,0,0,3.32,4,19.27,19.27,0,0,0,3.4,2.71c1.83,1.15,3.65,2.55,5.68,3.06,2.33.59,4.87.34,7.32.46,2,.11,4,.21,6,.36.94.07,2.09.63,2.78.27a57.15,57.15,0,0,0,7.64-4.67c1.4-1,2.36-2.69,3.49-4.09a42.32,42.32,0,0,0,4.47-7.37c1.77-3.46,2.57-7.12,3.51-10.74a48.6,48.6,0,0,0,1.11-9.82c.17-3.48,0-7,0-10.45,0-2.16.17-4.32.35-6.48s.44-4.34.68-6.51c.11-.93.2-1.88.37-2.81a1.07,1.07,0,0,1,.57-.74,24.93,24.93,0,0,1,3.19-.72,96.67,96.67,0,0,1,10.4-1.34c5.86-.17,11.75-.46,17.34,2.24a42.51,42.51,0,0,1,7.77,5.17c.89.69,1.37,1.88,2.14,2.74a12.58,12.58,0,0,1,3.07,7.07c.5,4.5.27,9.07.49,13.6.1,2,.57,4.06.86,6.08a16.13,16.13,0,0,0,.27,2.33c.48,1.71,1.09,3.38,1.62,5.08a45.44,45.44,0,0,0,1.6,5.08c1.19,2.6,2.57,5.11,4,7.58s3,4.91,4.59,7.33a28.45,28.45,0,0,0,2.61,3.62,23,23,0,0,0,4,3.76,43,43,0,0,0,5.59,2.84h10.37c.95-.43,1.88-1.17,2.85-1.21,1.88-.09,3.2-1.19,4.47-2.19a25.18,25.18,0,0,0,8.36-10.76,82.91,82.91,0,0,0,2.92-7.83c.68-2.49.81-5.12,1.27-7.67,1.55-8.64.53-17.34.61-26a150,150,0,0,0-1.13-21.31c-.59-4.38-.18-8.66-.53-13-.12-1.41-.35-2.81-.33-4.21.06-4.54.11-9.09.36-13.62.17-3.06.62-6.1,1-9.14.27-2,.59-4,1-6,.61-2.57,1.35-5.12,2.11-7.66a1.14,1.14,0,0,1,1-.42c2,.56,3.9,1.23,5.86,1.81a16.34,16.34,0,0,0,2.11.38c2.08.31,4.15.68,6.24.89a54.46,54.46,0,0,0,6.12.35h1.16a33.56,33.56,0,0,0,6.35-.39,92.4,92.4,0,0,0,10-2.75,76.38,76.38,0,0,0,8.61-3.16,29.71,29.71,0,0,0,6.72-3.9,111.67,111.67,0,0,0,11.35-10.37,52,52,0,0,0,6.32-9.37,65.38,65.38,0,0,0,4-8.59c.73-1.85.85-3.93,1.47-5.83,1-3.23,1-6.54,1-9.85a20.24,20.24,0,0,1,.59-3.71,29.16,29.16,0,0,0,0-3.74c-.38-1.68-.5-3.41-1-5-1.29-4.27-2.78-8.49-4.11-12.75-.19-.62,0-.69-.66-.29-3.15,1.9-6.3,3.81-9.57,5.49-4.12,2.1-8.25,4.21-12.54,5.89a135.74,135.74,0,0,1-13.24,4.21c-3.26.9-6.6,1.51-9.93,2.1-2.68.48-5.41.37-8.13,1s-5.55.12-8.34.12c-1.25,0-1.15-.81-1-1.65a8.94,8.94,0,0,0,.57-2.35c-.29-4.38.57-8.76-.56-13.16-.58-2.25-.37-4.7-1.07-7.06-1-3.39-1.45-7-2.18-10.43-.44-2.13-.87-4.27-1.48-6.36-.81-2.79-1.86-5.51-2.67-8.3s-1.46-5.44-2.1-8.19c-.75-3.18-1.58-6.36-2.06-9.59-.55-3.72-.79-7.48-1.07-11.23a39.69,39.69,0,0,1,0-5.23c.16-2.81.44-5.61.68-8.42.1-1.23-.13-2.66.42-3.65,1.5-2.7.49-5.58.8-8.34.37-3.14-.47-6.44-.89-9.65a53.09,53.09,0,0,0-1.27-7.32c-.77-2.79-2.12-5.41-2.85-8.21-1-3.67-2.85-6.88-4.68-10.08a51.24,51.24,0,0,0-6.53-9.29c-3.32-3.61-7.12-6.77-10.79-10.05-1.81-1.61-3.15-3.41-3.11-5.91a11.56,11.56,0,0,1,.69-3.36c.75-2.24,1.3-4.64,2.54-6.6,2-3.13,4.44-5.95,6.7-8.91a52.39,52.39,0,0,0,3.17-4.27c1.81-3,3.56-5.94,5.18-9a92.92,92.92,0,0,0,4.29-9c1-2.65,1.7-5.46,2.49-8.21.61-2.13,1.28-4.25,1.71-6.42a65.89,65.89,0,0,0,1.05-7.4c.24-2.91.34-5.83.36-8.75,0-2.39-.17-4.78-.34-7.17-.13-1.65.14-3.26-.57-5-.83-2-.77-4.32-1.17-6.49a53.78,53.78,0,0,0-1.34-6.07c-.8-2.5-2-4.87-2.76-7.38a10.5,10.5,0,0,1,1.43-9.52c3.65-5,8.62-8.39,13.78-11.62a93.12,93.12,0,0,0,11-7.42c4.91-4.14,9.68-8.5,13.36-13.89,1.83-2.7,3.9-5.23,5.75-7.91a31.25,31.25,0,0,0,2.32-4.26q1.92-4,3.73-8c.89-2,1.8-4,2.53-6.09.81-2.29,1.47-4.63,2.09-7,.23-.86,0-1.58-1.21-1.52-5.25.26-10.5.41-15.74.75-2.31.15-4.59.67-6.88,1-.94.13-1.9.16-2.81.37-2.16.53-4.3,1.13-6.43,1.72-1.88.52-3.78,1-5.61,1.62-2.47.88-4.9,1.9-7.32,2.92-2.78,1.16-5.57,2.28-8.26,3.61s-5.35,2.84-7.92,4.43q-4.34,2.68-8.45,5.67c-2.09,1.51-4,3.26-6,4.91a10.69,10.69,0,0,1-2.22,1.8c-2.82,1.19-5.17,3.21-8.4,3.77a12.42,12.42,0,0,1-5.75,0,9.6,9.6,0,0,1-6.59-5c-.29-.56-.27-.5.2-.79,3.31-2,6.56-4,9.9-6a34.66,34.66,0,0,1,4.26-1.89c1.74-.72,3.47-1.44,5.24-2.08,1.52-.55,3.06-1,4.62-1.47,2.5-.7,5-1.36,7.52-2,1.31-.35,2.84-.38,3.87-1.12a8.47,8.47,0,0,0,3.3-6.93,6.41,6.41,0,0,0-.88-3.43,17.26,17.26,0,0,0-4-4.92,13.36,13.36,0,0,0-5.74-2,19.25,19.25,0,0,0-8.66.89,11.87,11.87,0,0,1-2.32.27c-.29,0-.58.11-.87.16.14-.25.21-.57.41-.73,2.33-1.78,4.65-3.59,7-5.29a56,56,0,0,1,7.51-5,119.32,119.32,0,0,1,12.48-5.19,48.74,48.74,0,0,1,8.83-2.2c2.73-.43,6.09-2.57,6.35-5.21.31-3.31.43-6.7-1.68-9.73a10.8,10.8,0,0,0-9.25-5c-1.93,0-3.85.21-5.78.31a1.83,1.83,0,0,1-.63-.16,2.66,2.66,0,0,0,.61-.18c2.71-1.45,5.44-2.87,8.11-4.39,2-1.13,3.83-2.5,5.83-3.6,2.45-1.34,5-2.46,7.48-3.79,2.72-1.47,5.38-3,8-4.6,2.88-1.71,5.61-3.42,7.67-6.35,2.17-3.09,1.62-6.16,1.41-9.37a2.75,2.75,0,0,0-.49-1.52,7.66,7.66,0,0,0-6.07-3,13.14,13.14,0,0,0-6.24,1.37c-1.95,1-4.06,1.69-6.07,2.59-2.64,1.2-5.23,2.5-7.88,3.68s-5.24,2.21-7.85,3.34c-2.22,1-4.43,2-6.61,3-.68.33-.66.2-.76-.47a29.29,29.29,0,0,0-1.07-5.3c-.86-2.48-2-4.88-3.05-7.27a70,70,0,0,0-3.73-7.51,82.29,82.29,0,0,0-5.51-7.65,59,59,0,0,0-12.44-11.53c-1.54-1.1-3.24-2-4.85-3a21.89,21.89,0,0,0-9.29-3.67c-.29,0-.53-.44-.89-.67Zm-12,140.29a38.79,38.79,0,0,0,7.59-9.54,26.87,26.87,0,0,1,2.1-3l.1-.14.09-.11c.54-.7,1.11-1.41,1.59-2.15.82-1.25,1.61-2.57,2.38-3.85l.09-.15.19-.3.12-.21c.51-.86,1-1.73,1.56-2.58s1.11-1.74,1.68-2.61c.87-1.33,1.77-2.71,2.61-4.15,2.19-3.82,4.22-7.59,5.92-10.79,2.12-4,4.11-7.87,5.91-11.49.63-1.28,1.18-2.63,1.67-3.82l0-.1.07-.16.57-1.39,1.08-2.57c.87-2.06,2.06-4.89,3.09-7.55l.37-.94a26.84,26.84,0,0,0,2.08-7.45,19.82,19.82,0,0,1,1.09-5.49c1-2.5.8-5.06.64-7.54-.06-.82-.11-1.64-.13-2.45a19,19,0,0,0-1.08-5.23l-.08-.27c-.17-.53-.33-1.07-.47-1.6s-.21-.79-.31-1.18l-.12-.46a41.9,41.9,0,0,0-1.73-5.66,41.18,41.18,0,0,0-2.37-4.59l-.06-.1-.08-.15c-.39-.67-.77-1.34-1.12-2-3.91-7.26-9.79-13-15.48-18.63l-.66-.65a5.42,5.42,0,0,1-.7-1l-.12-.21-.12-.24,0-.07h0v0h0l0,0,.32.08.12,0,.2,0a4.53,4.53,0,0,1,1.27.43c.93.53,1.83,1.09,2.81,1.69l.17.11c.93.56,2,1.21,3,1.79a36.51,36.51,0,0,1,9.68,7.7,100.72,100.72,0,0,1,9,11.46,30.69,30.69,0,0,1,3,6.69l.17.46.51,1.41c1.11,2.93,2.07,6,2.78,8.43a7.83,7.83,0,0,1,.25,1.61,7.87,7.87,0,0,0,.15,1.37c.52,2.15,1.74,3.13,4.09,3.28.29,0,.58,0,.87,0,3.55,0,6.71-1.41,9.6-2.93,1.79-1,3.79-1.84,5.25-2.48l.11,0c.9-.39,1.79-.79,2.68-1.2l2.11-1,.61-.28,2.23-1.06q5.33-2.49,10.66-5a1.1,1.1,0,0,1,.45-.08l.21,0c.27-.07.54-.15.8-.24l.27,0,.16,0h0l-.16.37c-.09.2-.18.41-.25.62a17.67,17.67,0,0,1-5.6,8.3,34.87,34.87,0,0,1-9.64,6.17l-2.55,1c-2.67,1-5.33,2-8,3-.89.34-1.79.65-2.69,1l-.35.12-.57.2c-1.7.58-3.81,1.31-5.79,2.1a29.5,29.5,0,0,0-5.12,2.78l-1.12.74a43.06,43.06,0,0,0-6.18,4.65,12.57,12.57,0,0,0-2.44,4.14l-.08.2c-.12.28-.25.57-.38.84a8.37,8.37,0,0,0-.68,3.17,6.37,6.37,0,0,0,5.62,6.26h.18a6.71,6.71,0,0,0,3.91-1.62,32.64,32.64,0,0,1,9.12-5,32,32,0,0,1,9.33-1.92l.5,0h.13a3.47,3.47,0,0,1,1.26.35l.61.27h0c0,.17-.09.36-.15.59a3.18,3.18,0,0,1-.45,1.21,20.86,20.86,0,0,1-8.74,7l-2.13.93c-1.65.74-3.71,1.66-5.73,2.36-1.42.5-2.94.87-4.05,1.15s-2.69.69-4.06,1.17c-2.89,1-6,2.32-9.21,3.82a16,16,0,0,0-8.15,8.73c-1,2.4-1.81,4.58-1.6,6.95a15.42,15.42,0,0,0,1,3.73l.27.78a1.48,1.48,0,0,0,1.62,1h.15q3.18-.12,6.38-.19l.71,0c2.35-.05,4.7-.1,7-.2a14.15,14.15,0,0,0,2.44-.38c.49-.1,1-.2,1.46-.27h.16a3.08,3.08,0,0,1,.63.09l.13,0,.2.07h.06a4.56,4.56,0,0,0-.25.43,3.85,3.85,0,0,1-.47.67,15.69,15.69,0,0,1-6.75,3.93c-1.9.61-3.88,1.09-5.62,1.51l-.14,0-1.31.32c-.73.19-1.48.35-2.23.51l-.14,0-.13,0c-1.16.25-2.2.48-3.21.79-2.62.81-5.42,1.71-8.08,2.79-3.2,1.33-5.37,3.93-7.07,6.31a10,10,0,0,0,1.13,12.6,34.21,34.21,0,0,0,9.45,6.27,16.52,16.52,0,0,0,7.38,1.94,4.33,4.33,0,0,0,3.12-1.26,3.68,3.68,0,0,0,.33-.34c.13-.14.27-.27.41-.4,1.07-1,2.14-2,3.2-2.94l.14-.13.14-.13c2.39-2.22,4.87-4.51,7.46-6.61a104.1,104.1,0,0,1,10.65-7.52,93.57,93.57,0,0,1,11.64-6.38,103.35,103.35,0,0,1,9.92-3.68l2.8-.94c2.88-1,6-2,9.41-2.93A56.07,56.07,0,0,1,1530,617l.18,0c1.56-.23,3.14-.42,4.77-.61l3.68-.46c.5-.07,1-.16,1.5-.27l.16,0c.61-.12,1.26-.25,1.9-.33.13,0,.34.22.48.45,0,0,.24.32.17.47-1,2.4-1.84,4.21-2.69,5.86-1,2-2.26,4.31-3.69,6.83a28.42,28.42,0,0,1-2.26,3.61c-2.44,3.2-5.06,6.61-7.85,10a94.82,94.82,0,0,1-6.54,7.21,84.16,84.16,0,0,1-7.83,6.77,101.33,101.33,0,0,1-9.55,6.4,91.92,91.92,0,0,1-9.37,4.69c-4.9,2.19-7.9,8.31-6.55,13.37a26.23,26.23,0,0,0,1.31,3.46c.33.78.68,1.58,1,2.39.54,1.54,1,3,1.44,4.6l.42,1.42L1491,694l.09.29c.35,1.14.77,2.56,1.11,3.93a11.27,11.27,0,0,1,.3,1.87c0,.32.06.63.11.95.08.61.18,1.22.27,1.84l0,.15c.19,1.21.4,2.59.49,3.94.22,3.87.34,7.58.35,11a60.85,60.85,0,0,1-.37,8,47.4,47.4,0,0,1-1.07,5l-.07.28-.07.3-.09.34c-.13.57-.27,1.13-.39,1.7a8.74,8.74,0,0,0-.17,1.19,10.82,10.82,0,0,1-.2,1.27c-.16.71-.31,1.42-.46,2.16l-.07.36a42,42,0,0,1-1.62,6.18c-.27.72-.54,1.45-.8,2.17a64.75,64.75,0,0,1-5.06,11.44c-.85,1.41-1.69,2.82-2.53,4.26l-.15.26c-1.1,1.87-2.47,4.2-3.84,6.36a39.1,39.1,0,0,1-3.56,4.64l-1.73,2c-2.24,2.58-4.77,5.52-7.42,8.14a78.54,78.54,0,0,1-8.64,7.27c-2,1.43-4.06,2.68-6.11,3.89l-2.2,1.31a1.41,1.41,0,0,1-.73.16h-.2a.25.25,0,0,1-.12,0h0l.18-.25a1.46,1.46,0,0,1,.43-.47c5.22-3.48,9.45-7.93,13.54-12.24a123,123,0,0,0,8.13-9.53A109.17,109.17,0,0,0,1481,753.52c1.52-3.19,2.78-6.52,3.83-9.39a40.15,40.15,0,0,0,1.53-5.81c.18-.87.3-1.78.43-2.74v-.1l0-.12a25.62,25.62,0,0,1,.66-3.56c1.2-4.45,1.11-8.93.92-13.15a51.34,51.34,0,0,0-1.14-7.79l-.21-1-.23-1.2a47,47,0,0,0-1.9-7.65,32.86,32.86,0,0,0-2.31-4.59l-.1-.17c-.55-1-1.13-2-1.59-3a25.8,25.8,0,0,0-5.85-7.83c-2.39-2.26-4.55-3.91-7.3-4.58-.6-.13-1.2-.23-2-.35a12.42,12.42,0,0,1-3.14-.76,10.26,10.26,0,0,0-4.15-.75c-.86,0-1.73.06-2.56.13l-.42,0-.49,0-.46,0a18.91,18.91,0,0,0-3.78.7l-.13,0-.16.06a21.9,21.9,0,0,1-3.6.74,18,18,0,0,0-6.21,2l-.53.25-1.22.56a27.92,27.92,0,0,0-7.65,4.51c-.86.78-1.75,1.54-2.63,2.3l-.1.08-.32.28-.36.31c-1.76,1.49-3.58,3-5.22,4.72a45.18,45.18,0,0,0-7.56,10.59c-.28.55-.58,1.09-.88,1.64l-.15.27-.1.18,0,.11c-.44.78-.87,1.56-1.27,2.36-.59,1.21-1.17,2.52-1.81,4.13-.22.55-.41,1.11-.6,1.67s-.38,1.12-.6,1.67c0,0-.1.08-.28.08s-.59,0-.67-.19l-.48-.77a13.32,13.32,0,0,1-1.58-3.07c-.4-1.19-.7-2.45-1-3.57h0l0-.1a36.82,36.82,0,0,0-1.25-4.43,61.3,61.3,0,0,0-4.9-10.91c-2.59-4.23-5.45-8.66-9.34-12.29a20.9,20.9,0,0,0-9.2-5.51,33.38,33.38,0,0,0-6.9-.95,24.51,24.51,0,0,1-2.64-.34,17.79,17.79,0,0,0-3.05-.35,7.19,7.19,0,0,0-1.47.14,24.93,24.93,0,0,1-5.59.49,25.36,25.36,0,0,0-5.34.41c-1,.25-2.08.45-3.23.67a48.1,48.1,0,0,0-6.33,1.5c-3.63,1.23-7.12,2.56-9.82,5.3a24.29,24.29,0,0,1-2,1.73,14.88,14.88,0,0,0-2.41,2.14,47.09,47.09,0,0,0-7.14,10.6,63.18,63.18,0,0,0-3.83,9.74,29.93,29.93,0,0,0-.66,3.43l0,.22a28,28,0,0,1-.63,3.3c-1,3.9-.84,7.89-.67,11.75v.18c.07,1.45.13,3.1.13,4.68a20.46,20.46,0,0,0,1,5.44l0,.14c.2.75.43,1.59.61,2.39.13.58.24,1.16.35,1.76l0,.18,0,.12a34.12,34.12,0,0,0,.85,3.7,92.16,92.16,0,0,0,3.21,9.12c1.33,3,2.82,6,4.27,9l0,.11.14.29.14.27c.43.86.86,1.72,1.28,2.58,1,2,2.1,4.07,3.25,6.14.65,1.16,1.38,2.3,2.09,3.4l.1.16.47.75,1.15,1.79.09.15.1.16c1.2,1.88,2.43,3.83,3.74,5.72a22.49,22.49,0,0,0,2.81,3.17l1.67,1.65c2,2,4.25,4.21,6.6,6.2a21.69,21.69,0,0,0,5.55,3.34,63.38,63.38,0,0,0,7.69,2.47c1,.26,2,.49,3,.73l.47.1.13,0,.13,0a46.68,46.68,0,0,1,4.93,1.28,48,48,0,0,0,7.71,1.68l.14,0,2.59.43a49.69,49.69,0,0,0,9.26.75c2.33,0,4.7-.1,7.13-.21l1.09,0,1.07,0,1,0c3.62-.12,7.3-.48,11.07-.88a70.64,70.64,0,0,0,7.39-1.06c1.75-.35,3.5-.82,5.18-1.28l.19-.05.15,0,.41-.11,2.1-.56a.51.51,0,0,1,.17,0h.14l.12,0c.57-.2,1-.4,1.47-.6l.23-.09a.61.61,0,0,1,.07.1c0,.23,0,.25,0,.27-.42.13-.83.23-1.39.38a11.61,11.61,0,0,1-4.82,1.92l-.18,0c-.6.14-1.19.28-1.76.45a74.73,74.73,0,0,1-7.26,1.82c-1.13.23-2.34.41-3.3.55l-.11,0-.11,0h-.12l-.14,0c-1.39.21-2.82.43-4.2.75a46,46,0,0,1-11.2,1.14c-2,0-4.16-.07-5.72-.12h-.17c-1.48,0-3-.1-4.45-.12h-.21l-1.41,0h-.32l-1,0a10.32,10.32,0,0,1-4.72-.91,5.14,5.14,0,0,0-2.18-.33c-.44,0-.88,0-1.29-.08s-1-.13-1.43-.18l-.43-.06a31.76,31.76,0,0,1-4.85-.85c-4.25-1.21-8-2.47-11.48-3.83-4-1.57-8.18-3.4-12.38-5.44a41.6,41.6,0,0,1-4.9-3l-.49-.32-1.13-.75a48.58,48.58,0,0,1-10.83-9.16,87.07,87.07,0,0,1-6.48-9.13l-.19-.3a57.55,57.55,0,0,1-4.18-7.51c-1.38-3-2.49-6.09-3.5-9-.92-2.61-1.75-5.43-2.36-7.49l-.44-1.45a10.82,10.82,0,0,1-.3-1.6,5,5,0,0,0-.08-.54c-.08-.61-.16-1.25-.24-1.91l0-.33a29.81,29.81,0,0,0-.8-4.78,22.6,22.6,0,0,1-.69-4.87,26.17,26.17,0,0,0-.41-3.59c-1-4.87-.78-9.82-.58-14.64l0-.43c0-1.28.1-2.56.13-3.84a41,41,0,0,1,1-9.14,31.67,31.67,0,0,0,.92-8.29c0-4.31-3-6.82-5.49-8.54-.7-.46-1.49-.87-2.18-1.24l-.11-.06a22.5,22.5,0,0,1-2.08-1.17l-1.19-.78c-2.58-1.69-5.25-3.44-7.77-5.39-2.72-2.11-5.36-4.42-7.92-6.66l-.07-.07-.19-.15-1.12-1-1.23-1.08c-1.91-1.66-4.28-3.73-6.34-5.84-2.89-3-5.8-6.23-8.87-9.91a100.11,100.11,0,0,1-6.4-8.51c-1.81-2.68-3.51-5.64-4.89-8l-.07-.11L1255,636c-.63-1.06-1.19-2.19-1.77-3.35l-.25-.5-.59-1.16a1.76,1.76,0,0,1,.28-1.62,3.84,3.84,0,0,1,2.7-1.93h.85l1.18,0a13.82,13.82,0,0,1,5.93,1,5.16,5.16,0,0,0,1.66.27,8,8,0,0,1,1,.1l1.87.37.14,0,.72.13.18,0,.15,0c2.24.42,4.79.91,7.22,1.54a79.33,79.33,0,0,1,10.18,3.15c3.17,1.27,6.2,2.72,9.13,4.13l3.47,1.64,1.49.69.75.34.1.05.16.08.17.07c2.1,1,4.28,2,6.34,3.09a76.25,76.25,0,0,1,6.73,4.23l.32.21c3.61,2.44,6.57,4.52,9.32,6.54a26.08,26.08,0,0,1,2.31,2l.1.1c.43.4.85.8,1.29,1.18a6.47,6.47,0,0,0,4.28,1.8,5.88,5.88,0,0,0,2.29-.48,7.82,7.82,0,0,0,2.75-2.11,27.84,27.84,0,0,1,6.9-5.19l1.3-.78a40,40,0,0,1,3.77-2l.17-.1c1.19-.59,2.52-1.26,3.75-2a6.94,6.94,0,0,0,3.42-5.22c.63-5.2-2.94-7.71-6.34-9.66-.68-.38-1.35-.77-2-1.17l-.21-.12c-1.2-.7-2.44-1.43-3.68-2.09-2.39-1.28-4.91-2.52-6.94-3.52l-.11-.06-5.5-2.67-.59-.28c-1.12-.54-2.23-1.07-3.34-1.62a1.21,1.21,0,0,1-.36-.32.56.56,0,0,1-.11-.19h0v0h0v0l.24-.07a1.36,1.36,0,0,1,.43-.11.25.25,0,0,1,.13,0c1.2.39,2.37.83,3.48,1.28l3.38,1.39,3.62,1.48c.35.14.72.26,1.14.39l.19.06a9.34,9.34,0,0,1,2,.77,4.13,4.13,0,0,0,6.21-3.84,64.26,64.26,0,0,0-.33-8.57,34,34,0,0,0-1-6.34c-.17-.59-.33-1.18-.5-1.83-1.09-4-2.2-8.17-4.44-11.79-2.85-4.58-6.21-7.47-10.3-8.85-1.19-.4-2.39-.78-3.6-1.16l-.21-.07-.14,0c-1.67-.52-3.75-1.17-5.71-1.9-3.68-1.35-7.78-3.27-10.35-7.31a9.22,9.22,0,0,1-1-3c-.09-.38-.16-.76-.25-1.13s-.13-.51,0-.64a.2.2,0,0,1,.13-.06c.12,0,.28.1.56.32,1.58,1.29,3.28,2.54,4.89,3.71l.68.49c.85.63,1.7,1.28,2.55,1.94l.3.22a59.07,59.07,0,0,0,7.66,5.28,4.76,4.76,0,0,0,2.24.45,19.89,19.89,0,0,0,4.05-.59,7.89,7.89,0,0,0,5.14-4.47,12.21,12.21,0,0,0,1.31-6,20,20,0,0,0-2-6.93,25.47,25.47,0,0,0-4-6c-2.16-2.45-4.54-4.74-6.86-7l-.09-.08-.9-.87a39.71,39.71,0,0,1-11.56-22.47,37.13,37.13,0,0,1-.36-4v-.15c0-.81-.07-1.63-.15-2.44a1.35,1.35,0,0,1,.07-.46.29.29,0,0,1,.08-.18h0l.19.15a1.35,1.35,0,0,1,.39.36l1.71,2.53c1.83,2.68,3.62,5.3,5.33,8,.78,1.2,1.53,2.52,2.13,3.59a42.28,42.28,0,0,0,3.89,6l.43.53c1.92,2.41,3.92,4.9,7.49,4.9h.38a4.84,4.84,0,0,0,4.72-3.22,1.22,1.22,0,0,0,.06-.26.87.87,0,0,1,.13-.37l1.61-2,.29-.37.2-.23c1.36-1.68,2.76-3.42,4.19-5.09,2.7-3.15,5.51-6.27,8-9l.15-.16,1.12-1.26.07-.08.59-.67.07-.08c1.64-1.86,3.51-4,5.44-5.86,2.34-2.27,4.83-4.43,7.23-6.51l.12-.11.77-.67,1.54-1.35a1.67,1.67,0,0,1,.72-.27h.1l.14,0h.15l-.08.14-.09.13a3.21,3.21,0,0,1-.39.6l-2.23,2.42-.72.78-.78.84c-2.36,2.55-5,5.44-7.57,8.37l-.27.3a72.41,72.41,0,0,0-7.3,9.45c-.38.63-.76,1.24-1.16,1.87a26.8,26.8,0,0,0-3.74,7.6,42.84,42.84,0,0,1-2.37,6.34l-.06.15-.09.22c-.41.94-.83,1.92-1.21,2.88a6.58,6.58,0,0,0-.3,1.64l0,.46c-.11.84-.19,1.67-.27,2.51l0,.29a42.14,42.14,0,0,1-.82,5.83c-.91,3.88-.77,7.85-.64,11.73,0,1.62.11,3.45.08,5.23a43,43,0,0,0,.67,7.16c.12.72.23,1.44.32,2.16a44.76,44.76,0,0,0,1,5.13c.22.82.49,1.64.73,2.39l.07.2,0,.13,0,.15c.28.83.59,1.78.81,2.69s.43,1.91.6,2.76l0,.12c.22,1.14.47,2.44.83,3.67.76,2.49,1.6,4.91,2.41,7.27l.21.59c.36,1,.72,2.11,1.07,3.16s.62,1.87.92,2.81l.11.36.07.22.13.38c.43,1.34.87,2.71,1.34,4.05.57,1.59,1.17,3.11,1.75,4.59.29.72.57,1.44.86,2.17s.48,1.28.73,2c.48,1.29,1,2.62,1.54,3.89a14.07,14.07,0,0,0,4.81,6.18,4.47,4.47,0,0,0,2.6.78,12,12,0,0,0,2.36-.32l.59-.12.93-.2.19,0,.15,0a13.68,13.68,0,0,1,1.44-.33c.73-.13,1.47-.24,2.25-.36l.14,0,.32-.05.13,0a47.32,47.32,0,0,0,5.11-.94,27.6,27.6,0,0,1,5.74-.69,30.07,30.07,0,0,0,4.62-.45,40.1,40.1,0,0,1,8-.7c2.15,0,4.31.12,6.22.22h.42l1.48.07c3.18.16,6.61.46,10.2.88.84.11,1.67.26,2.55.42l.11,0,.16,0a31.8,31.8,0,0,0,3.55.53l.76,0c2.88,0,5.51-1.21,8.52-4ZM1391.32,801a49.67,49.67,0,0,1-5-1.05l-.13,0c-.84-.21-1.67-.41-2.51-.6a9.3,9.3,0,0,0-1.18-.16l-.12,0c-.33,0-.67-.08-1-.14l-2.78-.56c-2.41-.47-4.9-1-7.31-1.61-4.15-1.1-8.53-2.38-12.45-4.84-4.29-2.66-7.71-6.22-11.54-10.74a54.74,54.74,0,0,1-4.93-7c-1.09-1.77-2.08-3.64-3.07-5.52l-1.36-2.57-1.44-2.59-.21-.38c-1.19-2.13-2.42-4.33-3.53-6.56a38.75,38.75,0,0,1-1.69-4.15c-.26-.71-.52-1.43-.8-2.13s-.59-1.43-.89-2.15c-.58-1.4-1.17-2.84-1.68-4.28a33.9,33.9,0,0,1-1.25-4.71c-.3-1.59-.54-3.22-.78-4.79l-.08-.56c-.09-.56-.17-1.13-.26-1.69a4.57,4.57,0,0,0-.1-.48l0-.1a5.4,5.4,0,0,1-.16-1c0-1,0-2.09,0-3.14,0-1.79,0-3.41,0-5.05-.18-4.6,1-9,2.28-13a45.54,45.54,0,0,1,4.46-9.65,36.35,36.35,0,0,1,10.32-10.77,20.21,20.21,0,0,1,9.13-4,16.87,16.87,0,0,0,3.37-.91c.8-.28,1.58-.55,2.36-.74a18.86,18.86,0,0,1,3-.33l.83,0,2.92-.2c2.78-.21,5.65-.42,8.47-.43a14.18,14.18,0,0,1,4.86,1.26l.27.11a20.67,20.67,0,0,1,5.2,2.63c.6.47,1.26.91,1.9,1.33,1.78,1.17,3.62,2.39,4.54,4.59a6.1,6.1,0,0,0,1.47,1.85l.58.6a29.29,29.29,0,0,1,4.57,7.41c.48,1,1,2,1.51,3a24.69,24.69,0,0,1,1.85,5.06c.22.81.45,1.62.72,2.4.36,1.09.72,2.17,1.09,3.27l.21.63c.93,2.79,1.9,5.67,2.91,8.47a24.69,24.69,0,0,0,1.78,3.61l.4.71a2.87,2.87,0,0,0,2.52,1.1,3.05,3.05,0,0,0,2-.59c1.68-1.42,2.39-3.37,3.08-5.28.21-.57.42-1.14.66-1.71.32-.77.63-1.54.94-2.31.8-2,1.63-4,2.61-6,1.72-3.39,3.66-6.62,5.54-9.74a14.27,14.27,0,0,1,2.32-2.7l2-2,.1-.1c2.24-2.22,4.57-4.52,7-6.61a30.64,30.64,0,0,1,5.87-3.61l.24-.12c2.12-1.11,4.37-2,6.54-2.91l.38-.16a1.56,1.56,0,0,1,.64-.1h.57a1.76,1.76,0,0,0,.63-.08,19.88,19.88,0,0,1,6.94-1c1.36,0,2.76.08,4,.15a10.74,10.74,0,0,1,4.66,1.71A28.12,28.12,0,0,1,1474,695a36.82,36.82,0,0,1,5,9.09,61.39,61.39,0,0,1,1.89,6.91l.48,2a44,44,0,0,1,.87,12.15,51.42,51.42,0,0,1-1.4,9.53,59.15,59.15,0,0,1-3.15,10.18,113.55,113.55,0,0,1-5.77,11.2c-1.84,3.26-3.91,6.66-6.53,10.71a54.68,54.68,0,0,1-4.3,5.71c-2.94,3.44-5.92,6.74-8.5,9.56a56.34,56.34,0,0,1-11.14,8.85,33.7,33.7,0,0,1-8.9,4.19c-1.45.44-2.89,1-4.36,1.54l-.24.09c-1,.37-2,.74-3,1.08a4.82,4.82,0,0,1-1.39.2,7.45,7.45,0,0,0-1,.09l-3.76.66-2.72.5-4.46.75-1.73.29c-.53.09-1,.21-1.46.31l-.11,0a13.27,13.27,0,0,1-1.8.35c-2.72.21-4.87.35-7.19.35a63.64,63.64,0,0,1-8-.38Zm20.38,14.54a15.66,15.66,0,0,1,4-.56,11.45,11.45,0,0,0,5.08-1.05,3.64,3.64,0,0,1,1.52-.3,5.63,5.63,0,0,0,.93-.11l2.45-.52a64.64,64.64,0,0,0,6.6-1.6c2.31-.75,4.6-1.74,6.83-2.7.81-.35,1.61-.7,2.42-1l1.16-.48.23-.1a42.89,42.89,0,0,0,4.2-1.91c2.64-1.44,5.27-3,7.82-4.68,1.23-.81,2.37-1.63,3.85-2.71l.08-.06.25-.18c1-.72,2.12-1.53,3.25-2.28a2.14,2.14,0,0,1,1.19-.31,2,2,0,0,1,.82.16l1.14.47a11.13,11.13,0,0,1,4.41,2.63c1.36,1.5,2.82,3,4.32,4.52l.16.16c1.52,1.56,3.24,3.32,4.82,5.09a49,49,0,0,1,5,6.8c3,4.71,5.6,9,8,13.6a25.35,25.35,0,0,1,1.82,5.39c.21.81.45,1.74.72,2.61s.48,1.45.72,2.17c.32.9.67,2,1,3.05a10.78,10.78,0,0,1,.38,2.47c.06,1,.13,2,.2,3v.16c.2,2.87.42,6.12.44,9.26a18.37,18.37,0,0,1-1.07,6.35c-.33.94-.61,1.89-.9,2.89l-.07.24a24.57,24.57,0,0,1-2.61,6.55c-.76,1.23-1.43,2.5-2.14,3.85l-.22.4,0,.11c-.59,1.15-1.33,2.59-2.11,3.86a28.49,28.49,0,0,1-3.68,4.76c-3.15,3.36-6.65,7-11.33,11.7l-.6.6a58,58,0,0,1-5.56,5.15,82.79,82.79,0,0,1-9,6.08,61.71,61.71,0,0,1-6.86,3.23l-1.47.62a5,5,0,0,1-1.57.3,8.85,8.85,0,0,0-.9.1l-1.39.28c-.73.15-1.43.29-2.16.39h-.25a6.27,6.27,0,0,1-1-.14l-.11,0-.13,0-.29,0c-4.24-.64-8.78-2-10.2-6.91a12.41,12.41,0,0,1,.62-8,51.06,51.06,0,0,1,4.72-8.85l.24-.38c.47-.75.93-1.51,1.38-2.27,2.6-4.36,4.91-8.88,7.14-13.24l.15-.29a21.38,21.38,0,0,0,1.24-3.29c.16-.52.33-1,.51-1.55.1-.28.21-.56.32-.84l.18-.44.11-.28.06-.15a29.68,29.68,0,0,0,2.29-7.74c.06-.52.11-1,.16-1.61a27.09,27.09,0,0,1,1-5.79,9.16,9.16,0,0,0,.52-4.75c-.2-.9-.34-1.8-.45-2.48-.43-2.68-.88-5.45-2.86-7.83a19.89,19.89,0,0,0-7.54-5.31c-2.2-1-4.66-2-7.77-3.13a3.81,3.81,0,0,0-1.16-.11h-.18a2.93,2.93,0,0,1-.84-.1,50.89,50.89,0,0,0-12.37-1.22c-1.16,0-2.31,0-3.49,0a20.7,20.7,0,0,0-3.86.35c-1.88.37-3.83.83-5.26,1.17l-.16,0-2,.47-.2,0c-.59.14-1.18.27-1.77.38l-.11,0-.11,0a31.32,31.32,0,0,0-4,1c-2.83,1-5.48,2.14-8.65,3.52-2.3,1-4.69,2.14-7.28,3.45a17.15,17.15,0,0,0-3.13,2.07c-.54.44-1.08.89-1.72,1.4a51,51,0,0,0-5.64,5.06,14.08,14.08,0,0,0-2.34,4.35c-.14.36-.28.72-.43,1.07-1.73,4.15-1.37,8.61-1.07,12.56a35.87,35.87,0,0,0,2.23,9,61.38,61.38,0,0,0,3.66,7.88c1.92,3.61,3.88,6.94,5.54,9.73.51.85,1.1,1.71,1.61,2.47l.18.26a38.09,38.09,0,0,1,2.1,3.33c1.09,2,2,4.08,2.91,6.07l.2.42.62,1.38.18.39a22.68,22.68,0,0,1,1.28,3.18,8,8,0,0,1-.09,5.57c-1.28,3-3.64,5-6,6.89a18,18,0,0,1-4.16,2.2l-1,.44-.88.4a19.67,19.67,0,0,1-4.55,1.64,26.43,26.43,0,0,1-4.69.28h-.78l-1.29,0a.76.76,0,0,1-.33-.11.66.66,0,0,0-.27-.09c-.78-.11-1.55-.2-2.41-.3h-.1a40.38,40.38,0,0,1-5.08-.82,27.36,27.36,0,0,1-4.92-1.91l-1-.48-.1,0a48.38,48.38,0,0,1-5.53-2.77,47.31,47.31,0,0,1-5.8-4.1,81.08,81.08,0,0,1-7.45-6.8,45.87,45.87,0,0,1-4-5.26l-.28-.41-.49-.69-.28-.41-.68-.94a55.86,55.86,0,0,1-3.6-5.48,70.21,70.21,0,0,1-3.72-7.86,89,89,0,0,1-3.18-8.79,27.13,27.13,0,0,1-.73-3.48,29,29,0,0,0-.59-3.12c-1.34-4.91-1.19-10-1-14.92.07-2,.14-4.14.08-6.28a33.14,33.14,0,0,1,.75-6.43l.06-.34.07-.38,0-.1c.07-.39.14-.77.2-1.16a50.82,50.82,0,0,1,1.31-5.92c.61-2.14,1.37-4.41,1.94-6.07l0-.14.66-1.93c.19-.6.39-1.21.57-1.82l.06-.18a45.63,45.63,0,0,1,1.62-4.56c1.06-2.48,2.35-5,3.49-7.26l.67-1.3.19-.4.45-.9a40.31,40.31,0,0,1,2.59-4.67,71.44,71.44,0,0,1,4.53-5.83l.52-.63a1.49,1.49,0,0,1,1-.35,1.08,1.08,0,0,1,.42.08c1.83.7,3.64,1.5,5.33,2.27.43.2.85.42,1.28.66a15.9,15.9,0,0,0,1.75.84c3.19,1.2,6.07,2.22,8.81,3.15,3,1,5.56,1.78,7.88,2.43,1.16.32,2.38.62,3.51.89l.18.05.24,0,.22.05.24.06c1.3.32,2.65.64,4,1a51.62,51.62,0,0,0,11,2.09,60.63,60.63,0,0,1,7.77,1,61.24,61.24,0,0,0,12.7,1H1408a12.52,12.52,0,0,0,3.75-.44Zm-39.64,116.14a47,47,0,0,0,6.35-1,26.43,26.43,0,0,0,14.34-9.42,6.55,6.55,0,0,0,1-2.35,9.28,9.28,0,0,1,.65-1.81c1-2,.84-4.16.65-6.23l-.08-1a28.54,28.54,0,0,0-1.7-7.1,77,77,0,0,0-3.46-8c-.81-1.69-1.75-3.36-2.66-5l-.79-1.41-.6-1.11c-.93-1.68-1.89-3.43-2.91-5.1-.47-.75-1-1.49-1.48-2.15a27.76,27.76,0,0,1-1.75-2.62c-.7-1.23-1.35-2.51-2-3.76l-.09-.18-.08-.15c-.72-1.43-1.47-2.92-2.3-4.33-1.82-3.12-1.89-6.53-1.69-9.76a12.49,12.49,0,0,1,3-7.29,41.67,41.67,0,0,1,5.15-5.14,32.18,32.18,0,0,1,5.32-3.56c2.41-1.31,4.91-2.56,7.33-3.77l.22-.11,2.94-1.47a36.43,36.43,0,0,1,9.76-3.4c.51-.09,1-.17,1.56-.24l.27,0a18.07,18.07,0,0,0,3.81-.81,13.36,13.36,0,0,1,4.94-.81c1.22,0,2.44.1,3.63.21h.12l.62,0c4.22.36,8.68,1,12.63,3.52.69.43,1.39.84,2.09,1.25l.22.13a31.28,31.28,0,0,1,5.09,3.39,14.78,14.78,0,0,1,3.1,4.72l.31.62a6.43,6.43,0,0,1,.69,3.52c-.29,2-.79,4.08-1.29,6.15l-.37,1.52-.17.71a42.37,42.37,0,0,1-1.29,4.67,72.44,72.44,0,0,1-3.26,8c-1.6,3.22-3.5,6.34-5.15,9-.64,1-1.35,2.06-2.14,3.18s-1.61,2.26-2.36,3.51a40.16,40.16,0,0,0-2.17,4.42l-.13.29-.42,1c-.17.37-.34.73-.55,1.15a13.43,13.43,0,0,0-1.26,3.3l-.21,1.14a23.76,23.76,0,0,0-.62,7.51,15.76,15.76,0,0,0,3.13,8.27,15.12,15.12,0,0,0,12.58,5.78,2.68,2.68,0,0,1,.9.21,4.48,4.48,0,0,0,.52.16c.15,0,.31.09.54.16a2.83,2.83,0,0,0,.76.17.6.6,0,0,0,.27-.06,10.08,10.08,0,0,1,4.5-.69,12.42,12.42,0,0,0,3.44-.34,56,56,0,0,0,6.22-2.22,46.84,46.84,0,0,0,5-2.64,36.08,36.08,0,0,0,4.24-2.78,3,3,0,0,1,1.81-.73,2.06,2.06,0,0,1,1.91,1.65,21.23,21.23,0,0,1,1,4.63c.25,3.37.42,6.94.55,9.8l.18,3.66c0,1.27,0,2.56.07,3.71a23.13,23.13,0,0,1-.25,6.15,16.82,16.82,0,0,0-.33,3.21,13.55,13.55,0,0,1-.5,3.72c-.51,1.59-.87,3.24-1.23,4.86l-.08.37c-.11.52-.23,1-.36,1.58-.08.35-.14.71-.21,1.06l0,.17q-.09.51-.21,1c-.13.52-.25,1-.38,1.56l-.19.79c-.43,1.87-.93,4-1.56,6a71.28,71.28,0,0,1-2.57,6.76l-.07.16-.13.3c-1.08,2.58-2.25,5.21-3.48,7.79l-.14.29a61.29,61.29,0,0,1-3.12,6c-1.65,2.68-3.54,5.55-5.81,8.74-1.42,2-3,4-4.57,5.84l-.07.09-1.22,1.48a72.69,72.69,0,0,1-4.85,5.57c-1.63,1.62-3.45,3.14-5.06,4.49-.87.73-1.74,1.46-2.59,2.21a9.23,9.23,0,0,0-.82.83,6.59,6.59,0,0,1-1.06,1l-1.25.89a59.2,59.2,0,0,1-5.71,3.76,46.52,46.52,0,0,1-7.23,3.15,65.63,65.63,0,0,1-6.84,1.89l-.19,0c-.77.19-1.58.32-2.35.45l-.18,0a21.68,21.68,0,0,0-3.74.81,23.92,23.92,0,0,1-7.71,1l-1.84,0h-.82l-2,0h-.54a18,18,0,0,1-7.31-1.89c-.71-.31-1.44-.6-2.21-.89a33.08,33.08,0,0,1-3.12-1.36l-1.11-.57a41,41,0,0,1-6.32-3.77,133.2,133.2,0,0,1-12.07-10.36,86.49,86.49,0,0,1-7.37-8.76l-1.23-1.59a58.55,58.55,0,0,1-5-7.35c-1.17-2.09-2.19-4.32-3.19-6.49l-.1-.22c-.39-.86-.79-1.72-1.19-2.58-.29-.61-.59-1.22-.89-1.83-.63-1.27-1.33-2.72-1.92-4.15a76.4,76.4,0,0,1-2.72-7.41c-.47-1.58-.85-3.28-1.15-4.64l0-.16c-.3-1.28-.6-2.61-1-3.9a80.77,80.77,0,0,1-2.21-10.28c-.11-.8-.2-1.62-.3-2.43l0-.33a46.31,46.31,0,0,0-.67-4.64,49,49,0,0,1-.76-8.18c-.06-1.61-.12-3.61-.35-5.5,0-.45-.11-.9-.17-1.35a22.31,22.31,0,0,1-.29-4.82,9.22,9.22,0,0,1,1.61-4,2.15,2.15,0,0,1,1.86-.76,3.57,3.57,0,0,1,2.15.67l1.59,1.43.23.2a39.1,39.1,0,0,0,4.92,4,68.46,68.46,0,0,0,8.58,4.36l.49.22a37.59,37.59,0,0,0,6.7,2l.75.19a35.75,35.75,0,0,0,8.45.95,52.2,52.2,0,0,0,6.15-.39Zm35.6,102.41a68.79,68.79,0,0,0,6.76-2l1.57-.53.19-.07c1.86-.62,4-1.33,6-2.2a48.39,48.39,0,0,0,5-2.66c2.58-1.54,5.28-3.23,8-5a19.8,19.8,0,0,0,2.58-2.14l1.57-1.43,1-.94c2.25-2,4.79-4.34,7.25-6.83a64.88,64.88,0,0,0,7.66-8.76c.48-.71,1-1.41,1.46-2.11l.28-.41a57.37,57.37,0,0,0,6-9.92,34.84,34.84,0,0,1,2.12-3.94l.11-.21c.64-1.09,1.31-2.22,1.86-3.4.82-1.76,1.54-3.7,2.12-5.27l0-.11c.33-.9.67-1.81,1-2.71l1.11-2.8c.65-1.61,1.3-3.21,1.91-4.84a4.23,4.23,0,0,0,.17-1.13,5,5,0,0,1,.09-.85c.28-1.29.57-2.59.86-3.88.44-2,1-4.37,1.4-6.66.21-1,.34-2.11.48-3.19a35.34,35.34,0,0,1,.63-3.87c1.14-4.89,1.06-9.94,1-14.84v-.45c0-1.77,0-3.78,0-5.7a27.29,27.29,0,0,0-.35-5.43c-.28-1.77-.66-3.57-1-5.31l0-.21-.12-.57-.11-.5c-.13-.64-.27-1.28-.39-1.93-.85-4.27-.17-7.3,2.2-9.82,1.58-1.67,3.15-3.36,4.77-5.1s3.39-3.63,5.1-5.44c.63-.67,1.29-1.32,2-2l.16-.17.28-.27c1-1,1.88-1.84,2.75-2.8.34-.36.62-.54.86-.54.41,0,.64.47.8.92.89,2.29,1.74,4.59,2.58,6.9l.4,1.1c.32.86.64,1.71,1,2.58.72,1.91,1.55,4.07,2.19,6.21.46,1.52.82,3.13,1.13,4.54l0,.12c.35,1.62.68,3.07,1.1,4.52a55.12,55.12,0,0,1,2.11,10.48,33.25,33.25,0,0,0,1,6.68,24.83,24.83,0,0,1,.76,6.21v.13a33.41,33.41,0,0,0,.34,4.23c1,6,.78,12,.58,18-.06,1.69-.12,3.39-.15,5.08,0,2.2-.27,4.46-.5,6.64l0,.24c-.15,1.34-.28,2.68-.38,4a55.46,55.46,0,0,1-.91,5.89l0,.12-.1.52c-.74,3.9-1.41,7.17-2.1,10.3l-.09.41,0,.13c-.54,2.44-1.16,5.21-2,7.82-.65,2.06-1.47,4.21-2.07,5.79s-1.14,3-1.65,4.52c-.32.93-.56,1.91-.8,2.87l0,.14,0,.17,0,.2c-.18.7-.36,1.41-.56,2.1-.26.88-.55,1.76-.84,2.63l-.1.31c-.27.81-.53,1.63-.77,2.45a10.23,10.23,0,0,0-.27,1.7c0,.25,0,.5-.09.75l-.17,1.22-.17,1.22c-.25,1.71-.49,3.43-.69,5.14-1.15,9.28-1,18.44-.55,29.33l.18,4.6c.15,4.31.32,9.2.89,14a68.34,68.34,0,0,1,.33,7.29c0,1.92,0,3.8.18,5.68,0,.44.07.87.12,1.31l0,.4a18.87,18.87,0,0,1,.13,4.24,45.69,45.69,0,0,0-.23,6.49c0,1.61,0,3.27-.09,4.93a53.19,53.19,0,0,1-1.06,7.59l-.12.53c-.81,3.79-1.65,7.7-3.7,11.13a21.69,21.69,0,0,1-5.75,6.69,12.43,12.43,0,0,1-7.36,2.56,11.25,11.25,0,0,1-2.48-.29c-2.48-.57-6.07-1.67-8.55-4.61a22.47,22.47,0,0,0-1.67-1.75l-.1-.1a16.61,16.61,0,0,1-2.31-2.6,48.1,48.1,0,0,1-4.19-7.49,72.68,72.68,0,0,1-3.37-9.22c-.81-2.68-1.4-5.53-2-8.12l-.3-1.41c-.16-.78-.27-1.57-.38-2.34l0-.19a21.57,21.57,0,0,0-.7-3.64,20.43,20.43,0,0,1-.71-5.2,22.41,22.41,0,0,0-.42-3.94,26.78,26.78,0,0,1-.45-6.46,31.17,31.17,0,0,0-.16-4.62c-.45-3.7-1.1-7.22-4-9.58a12.8,12.8,0,0,0-5-2.4,3,3,0,0,0-.64-.06,8.75,8.75,0,0,0-2.28.44c-.35.1-.71.21-1.11.29a41.27,41.27,0,0,1-9.18,1.38,45.59,45.59,0,0,0-4.67.32c-1.37.13-2.79.27-4.19.27h-.43a51.34,51.34,0,0,1-9.67-1.07c-1-.23-2-.5-3-.77a25.8,25.8,0,0,0-6.87-1.23l-.58,0h-.25c-1.59.07-3.22.14-3.86,2a3.77,3.77,0,0,0-.09,1.35l0,.31a1.06,1.06,0,0,0,.09.36,1,1,0,0,1,.12.41l.06,3.19c.11,5.88.22,12,.28,17.93a36.83,36.83,0,0,1-.34,4.73l-.11,1,0,.21c-.25,2.11-.51,4.31-.93,6.44l0,.27a56.9,56.9,0,0,1-2.07,8.25c-.26.71-.5,1.42-.74,2.13a29.41,29.41,0,0,1-3.69,8.08,30.47,30.47,0,0,1-5.82,6.45,14.53,14.53,0,0,1-9.29,3.15,22.14,22.14,0,0,1-3.63-.32,12.61,12.61,0,0,1-6-2.94l-1-.8-.18-.13a16.46,16.46,0,0,1-2.88-2.55,40.36,40.36,0,0,1-6.5-10c-.57-1.39-1.21-2.77-1.81-4.1l-.15-.31c-.59-1.27-1.25-2.7-1.83-4.13-.94-2.27-1.73-4.62-2.45-6.83l-.31-.92c-.77-2.33-1.73-5.23-2.46-8-.35-1.34-.59-2.73-.82-4.07l0-.14,0-.11,0-.13,0-.27c-.15-.84-.32-1.8-.53-2.71-.26-1.25-.58-2.52-.92-3.82l-.07-.25c-.23-.9-.47-1.81-.68-2.72a3.71,3.71,0,0,1,0-.94,3.06,3.06,0,0,0,0-.8c-.08-.55-.16-1.1-.25-1.7l-.08-.54a49.26,49.26,0,0,0-1.08-5.87,89.4,89.4,0,0,1-2.09-10.89l0-.12a20.87,20.87,0,0,0-1-3.62c-.25-.72-.49-1.4-.67-2.1a6.59,6.59,0,0,1-.17-1.51l0-.68c-.44-1.58-.8-3.12-1.15-4.6l-.08-.34c-.27-1.13-.53-2.25-.81-3.36l-.06-.24,0-.15c-.67-2.59-1.36-5.28-2.25-7.87-.67-1.9-1.48-3.9-2.14-5.5l0-.1-.06-.15c-.48-1.17-1-2.35-1.42-3.53s-.77-2.1-1.14-3.15-.71-2-1.1-3.07-.89-2.23-1.34-3.34-1.09-2.62-1.59-4c-.35-1-.65-2-.89-2.83l0-.1c-.15-.52-.29-1-.45-1.55-.26-.83-.53-1.65-.79-2.47l-.29-.89-.06-.21c-.77-2.35-1.45-4.47-2-6.61-.45-1.63-.84-3.32-1.27-5.2l0-.13-.08-.36c-.29-1.28-.58-2.56-.91-3.83-.26-1-.6-2-.89-2.84s-.55-1.6-.76-2.39a4.18,4.18,0,0,1-.12-1.22,5.6,5.6,0,0,0-.06-1c-.44-2.57-.88-4.9-1.31-6.93-.25-1.19-.52-2.36-.79-3.54s-.64-2.72-.92-4.12a15.35,15.35,0,0,1-.2-2v-.29a9.45,9.45,0,0,0-.08-1.06c-.08-.68-.17-1.36-.26-2l0-.35v-.13c-.14-1-.32-2.35-.43-3.61-.06-.77-.08-1.56-.1-2.36v-.4a25.07,25.07,0,0,0-.3-4.23c-1.11-6.17-1.05-12.46-1-18.57,0-2.33.06-5,0-7.5a49.38,49.38,0,0,1,.34-6l.11-.95a54,54,0,0,1,1-6.64,38.08,38.08,0,0,1,1.13-3.8l0-.15a29.58,29.58,0,0,0,1.43-5.53,14.72,14.72,0,0,1,1.21-3.79,15.5,15.5,0,0,0,1-3.17,1.21,1.21,0,0,1,.45-.58l.1-.07a.67.67,0,0,1,.23-.16l.13.32c.06.18.13.35.18.52.19.57.37,1.13.55,1.7.37,1.17.75,2.35,1.17,3.51.36,1,.8,2,1.43,3.42,1.65,3.55,3.12,6.65,4.47,9.47.4.82.85,1.64,1.28,2.43l.1.19a26.47,26.47,0,0,1,2.55,5.67,18.07,18.07,0,0,1,.3,5.57c0,.78-.07,1.56-.07,2.32a3.69,3.69,0,0,1-.14.84,3.75,3.75,0,0,0-.11.79v2.68c0,3.17,0,6.44,0,9.69,0,3.48.11,7.5.37,11.36a73.89,73.89,0,0,0,1,8.45c.62,3.58,1.3,6.77,2.09,9.74.43,1.61,1,3.22,1.48,4.63l.07.18.06.18.09.26c.36,1,.71,2,1,3s.59,2,.84,3a42.43,42.43,0,0,0,1.32,4.33c1.07,2.71,2.37,5.53,4.22,9.18a103,103,0,0,0,5.2,9.38c1.93,3,4.17,5.83,6.33,8.58l.07.09.07.08.34.44.45.58a57.84,57.84,0,0,0,5.49,6.35,90.56,90.56,0,0,0,10.14,8.71,69,69,0,0,0,8.82,5l.36.18,1.43.73a80.22,80.22,0,0,0,8.38,3.74,19.54,19.54,0,0,0,5.6,1.1c3.87.25,7.76.33,12.4.37h1.37a20.66,20.66,0,0,0,4.56-.38ZM1544,969.62c-1-2.13-.2-7.1,1.45-9a10.94,10.94,0,0,1,6.62-3.88,4.92,4.92,0,0,0,1.22-.42l.57-.24a46.29,46.29,0,0,0,11-4.45,38.5,38.5,0,0,0,3.34-2.19l.89-.63c.32-.23.65-.49,1.05-.81a9.72,9.72,0,0,1,1.77-1.21,1,1,0,0,1,.5-.11,2.52,2.52,0,0,1,1.37.45,6.37,6.37,0,0,1,2.45,4.41,21.44,21.44,0,0,0,.86,3.38,16.09,16.09,0,0,1,.88,4.36,20.76,20.76,0,0,1-1.33,6.22c-.15.46-.29.91-.43,1.37a51.45,51.45,0,0,1-5.13,12.3,34.58,34.58,0,0,1-4.37,5.5,5.2,5.2,0,0,1-2,1.08c-.3.11-.6.22-.93.37a.61.61,0,0,1-.38-.27,1.11,1.11,0,0,1,.27-.59,10,10,0,0,0,3.39-5.2,25.68,25.68,0,0,0,.73-5.9c0-.42-1.25-1.12-2-1.23a10.74,10.74,0,0,0-1.75-.13,24.22,24.22,0,0,0-7.31,1.54l-1.27.4a7.76,7.76,0,0,1-2.42.38,10.3,10.3,0,0,1-9.06-5.49Zm-18.47,41.43q-3.42-.76-6.83-1.57c-.81-.19-1.61-.41-2.41-.63l-.51-.13-.49-.13-.68-.18c-3.19-.8-6.64-5.23-6.59-8.46,0-2.22.16-4.16.36-6,.17-1.47.42-2.91.69-4.44l0-.17,0-.1c.1-.56.2-1.11.29-1.66q.51-3,1-6c.1-.56.19-1.12.28-1.76l0-.17a22.43,22.43,0,0,1,.81-3.91,19.89,19.89,0,0,0,.65-3.15c.32-2.15.66-4.37,2.46-6a28.72,28.72,0,0,1,4.93-3.75,56.88,56.88,0,0,1,7.51-3.7,23.48,23.48,0,0,1,8.78-2.08c.34,0,.67,0,1,0a3.14,3.14,0,0,1,1.23.49l.3.17.27.17-.27.41a4.48,4.48,0,0,0-.44.8l-.34,1c-.86,2.38-1.67,4.63-.37,7.26a11.3,11.3,0,0,1,.85,2.89,12.85,12.85,0,0,0,.69,2.56,16,16,0,0,0,5.9,7.34,14,14,0,0,0,7.06,2.24l.5,0a17.87,17.87,0,0,0,3.06-.37l.25,0c.43-.08.85-.15,1.28-.21a3.93,3.93,0,0,0,.45-.12h.15l.06,0h0l-.08.25a1,1,0,0,1-.24.47c-.27.19-.52.4-.78.6l-.19.15a10.65,10.65,0,0,1-2.57,1.68c-2,.82-2.39,2.28-2.37,4.36v.85c1.21,2.4,3.08,3.72,5.28,3.72a7.5,7.5,0,0,0,5.06-2.28,5.15,5.15,0,0,1,.74-.52,2,2,0,0,1,.33-.16l.06,0v0h0a2.38,2.38,0,0,0-.07.38l0,.12a1.51,1.51,0,0,1-.31.9c-1.6,1.43-3.23,2.84-5.2,4.53l-.27.23-2,1.69c-.35.31-.7.64-1.09,1a14.94,14.94,0,0,1-2.13,1.77c-3.33,2.12-6.35,4-9.51,5.65a37.67,37.67,0,0,1-7.62,3,14.58,14.58,0,0,1-3.68.38h-.17c-.63,0-1.29,0-1.92.08a9.53,9.53,0,0,0-1.66.35l-.7.18-.13.07a.3.3,0,0,1-.19.07h0l-.64-.15Zm35.33-22.55a6.27,6.27,0,0,1,.51-.86c.24,0,.36.14.34.26a8.5,8.5,0,0,1-.35,1c-.17-.13-.52-.32-.5-.36Z" transform="translate(-1243.86 -497.1)"/><path class="cls-1" d="M1391,648.71c0,.38,0,.77,0,1.22,0,2.06,0,4,1,5.8a5.69,5.69,0,0,0,4.55,2.88h.17a6.71,6.71,0,0,0,5.6-3.39c1.21-2.17,1.26-4.13.15-5.51a12,12,0,0,0-6.65-4.44,7.39,7.39,0,0,0-1.61-.19c-2.1,0-3.22,1.26-3.23,3.63Z" transform="translate(-1243.86 -497.1)"/><path class="cls-1" d="M1371.85,646.35c-1.29.2-2.62.4-2.64,2.29,0,.7,0,1.41-.07,2l0,.21a19.75,19.75,0,0,0-.06,2.59,3.75,3.75,0,0,0,.94,2,4.38,4.38,0,0,0,3.66,1.7,14.37,14.37,0,0,0,2.94-.41,10.38,10.38,0,0,0,1-.4c.23-.11.45-.21.67-.29a5.12,5.12,0,0,0,2.43-6.49l-.14-.28a4,4,0,0,0-1.13-1.5,10.46,10.46,0,0,0-5.56-1.54,12.38,12.38,0,0,0-2,.16Z" transform="translate(-1243.86 -497.1)"/><path class="cls-1" d="M1437.65,647.73a2.71,2.71,0,0,0-.89.32,2.69,2.69,0,0,1-.91.33,4.08,4.08,0,0,0-4.12,4.26v1.49c0,.37,0,.75,0,1.12.1,2.36.6,4.73,3.47,6a5,5,0,0,0,2,.41,5.73,5.73,0,0,0,5.46-3.68,5.84,5.84,0,0,0,1.48-6.3,5.5,5.5,0,0,0-5.67-4c-.28,0-.58,0-.88,0Z" transform="translate(-1243.86 -497.1)"/><path class="cls-1" d="M1418.61,648.38c-.79,0-1.58,0-2.37,0l-2.13,0h-.17l-.77,0a1.78,1.78,0,0,0-2,1.72l-.07.67a34.21,34.21,0,0,0-.26,5.27,5,5,0,0,0,5,4.51,4.53,4.53,0,0,0,1.66-.3,19.18,19.18,0,0,1,2.33-.74c.54-.14,1.09-.3,1.63-.48a7.45,7.45,0,0,0,2.23-5.7,4.92,4.92,0,0,0-2.1-3.77,4.75,4.75,0,0,0-2.82-1.19Z" transform="translate(-1243.86 -497.1)"/><path class="cls-1" d="M1388.59,665.12a2.77,2.77,0,0,0-2.77,1.79c-.09.92-.13,1.68-.13,2.33,0,2.16.38,4.57,3.18,6.08a10.48,10.48,0,0,0,3.64,1.16h.23a5,5,0,0,0,1.56-.36l.25-.09a4.56,4.56,0,0,1,.6-.18c1.48-.38,3.92-3.64,4.11-5.12a4.37,4.37,0,0,0-1.23-3.41,6.23,6.23,0,0,0-4.3-2.21h-.12c-.78,0-1.56,0-2.34,0s-1.68,0-2.52,0Z" transform="translate(-1243.86 -497.1)"/><path class="cls-1" d="M1409,668.83a3.76,3.76,0,0,1-1.56.46c-.57,0-1.14,0-1.71,0l-1.8,0h-.45c-.25,0-.42,0-.53.15s-.16.31-.15.65c0,1.09,0,2.19,0,3.3v.33c0,1,0,2.06,0,3.09,1.24,1.58,2.38,2.28,3.7,2.28a4.41,4.41,0,0,0,1-.13,14.15,14.15,0,0,0,2.79-1.2c3.1-1.64,4-3.09,3.83-6-.1-1.7-2.39-3.22-4.12-3.22a2.36,2.36,0,0,0-1.13.25Z" transform="translate(-1243.86 -497.1)"/><path class="cls-1" d="M1424.52,669.35a2.18,2.18,0,0,0-2.18,2.24c0,.85-.06,1.72-.06,2.64s0,1.9,0,2.93c.06,2.12,1.4,3.6,3.27,3.6l.45,0c2-.24,5.49-1.6,6.62-4.32a6.22,6.22,0,0,0,.31-1.27l0-.3c0-.2,0-.4,0-.6V674c0-.55,0-1.05,0-1.55-.06-1.15-1.47-3.08-2.24-3.09l-1.56,0-2.08,0c-1.08,0-1.91,0-2.62.07Z" transform="translate(-1243.86 -497.1)"/><path class="cls-1" d="M1407.69,688.88c0,.57,0,1.12,0,1.69v1c0,.9,0,1.79,0,2.69,0,1.33.68,1.88,1.76,2.57a2.48,2.48,0,0,0,1.36.42,4.73,4.73,0,0,0,1.65-.42l.24-.1.94-.36a11,11,0,0,0,3.64-1.9c2-1.83,2.17-5.06.38-8-.8-.51-1.73-1.11-2.73-1.68a4.14,4.14,0,0,0-2.11-.54,5.06,5.06,0,0,0-5.11,4.63Z" transform="translate(-1243.86 -497.1)"/><path class="cls-1" d="M1396.82,764.76c-.52,0-1.09.07-1.78.07l-1.47,0-1.62,0c-2.46,0-4.42,1.14-4.87,2.86-1.13,4.28-.06,8.33,3.34,12.73a54,54,0,0,0,5,5.44l.35.34a5.45,5.45,0,0,0,3.81,1.64,4.48,4.48,0,0,0,2.91-1c5.2-4.29,8.58-8.57,10.66-13.46.92-2.16.46-4.39-1.06-5.18l-.56-.29a16.11,16.11,0,0,0-4.76-1.91c-.81-.13-1.62-.28-2.42-.44a32.09,32.09,0,0,0-6.11-.78,14.41,14.41,0,0,0-1.46.07Zm3.78,14.43c-.44-.3-.91-.58-1.37-.87-1.75-1.07-3.56-2.19-4.38-4.44l-.07-.17c-.14-.38-.22-.59-.14-.72s.29-.19.67-.26a1.22,1.22,0,0,0,.56-.31l.25-.18h0a82.49,82.49,0,0,1,8.13,1.58c.08,0,.16.12.25.3a1.49,1.49,0,0,1,.16,1.06,21.21,21.21,0,0,1-1.93,3.35c-.28.42-.72,1-1.32,1a1.46,1.46,0,0,1-.83-.3Z" transform="translate(-1243.86 -497.1)"/><path class="cls-2" d="M1417.78,832.54a13.36,13.36,0,0,0-4.94.81,18.2,18.2,0,0,1-3.81.81l-.27,0c-.52.07-1,.15-1.56.24a36.43,36.43,0,0,0-9.76,3.4l-2.94,1.47-.22.11c-2.42,1.21-4.93,2.46-7.33,3.77a32.18,32.18,0,0,0-5.32,3.56,41.67,41.67,0,0,0-5.15,5.14,12.49,12.49,0,0,0-3,7.29c-.2,3.23-.14,6.65,1.69,9.76.83,1.41,1.58,2.89,2.3,4.33l.08.15.09.18c.63,1.25,1.28,2.53,2,3.76a27.76,27.76,0,0,0,1.75,2.62c.47.66,1,1.4,1.48,2.15,1,1.67,2,3.42,2.9,5.1l.61,1.11.79,1.41c.91,1.64,1.85,3.31,2.66,5a80.24,80.24,0,0,1,3.46,8,28.52,28.52,0,0,1,1.7,7.11l.08,1c.19,2.06.38,4.19-.66,6.22a10.77,10.77,0,0,0-.64,1.81,6.55,6.55,0,0,1-1,2.35,26.43,26.43,0,0,1-14.34,9.42,47,47,0,0,1-6.35,1,52.2,52.2,0,0,1-6.15.39,35.81,35.81,0,0,1-8.45-.95l-.75-.19a37.59,37.59,0,0,1-6.7-2l-.49-.22a68.46,68.46,0,0,1-8.58-4.36,38.39,38.39,0,0,1-4.92-4l-.23-.21-1.59-1.42a3.55,3.55,0,0,0-2.15-.67,2.15,2.15,0,0,0-1.86.76,9.22,9.22,0,0,0-1.61,4,22.31,22.31,0,0,0,.29,4.82c.07.45.12.9.17,1.35.22,1.89.29,3.89.35,5.5a49,49,0,0,0,.76,8.18c.33,1.53.51,3.18.68,4.64l0,.33c.1.81.19,1.63.31,2.43a80.6,80.6,0,0,0,2.19,10.28c.36,1.29.66,2.61,1,3.9l0,.16c.31,1.36.69,3,1.16,4.64.75,2.54,1.75,5.06,2.71,7.41.6,1.43,1.3,2.88,1.93,4.15l.89,1.83c.4.86.8,1.72,1.19,2.58l.1.22c1,2.17,2,4.4,3.19,6.49a58.55,58.55,0,0,0,5,7.35l1.23,1.59a86.49,86.49,0,0,0,7.37,8.76,133.2,133.2,0,0,0,12.07,10.36,40.57,40.57,0,0,0,6.32,3.77l1.1.57a31.75,31.75,0,0,0,3.13,1.35c.77.3,1.5.59,2.21.91a18.13,18.13,0,0,0,7.31,1.88h.54l2,0h.82l1.84,0a23.9,23.9,0,0,0,7.71-1,22.66,22.66,0,0,1,3.74-.81l.18,0c.77-.13,1.57-.26,2.35-.45l.19,0a65.63,65.63,0,0,0,6.84-1.89,47.49,47.49,0,0,0,7.23-3.15,58,58,0,0,0,5.71-3.76l1.25-.89a6.59,6.59,0,0,0,1.06-1,9.23,9.23,0,0,1,.82-.83c.85-.75,1.72-1.48,2.59-2.21,1.61-1.35,3.43-2.87,5.06-4.49a72.69,72.69,0,0,0,4.85-5.57l1.22-1.48.06-.09c1.56-1.88,3.16-3.82,4.58-5.84,2.27-3.19,4.17-6.06,5.81-8.74a64.87,64.87,0,0,0,3.13-6l.13-.29c1.23-2.58,2.4-5.21,3.49-7.79l.13-.3.06-.16c.92-2.19,1.87-4.46,2.58-6.76.62-2,1.12-4.13,1.56-6l.18-.78c.13-.53.25-1,.38-1.57q.12-.51.21-1l0-.17c.06-.36.13-.71.21-1.06.13-.53.24-1.05.36-1.58l.08-.38c.36-1.61.72-3.26,1.23-4.85a13.55,13.55,0,0,0,.5-3.72,17.84,17.84,0,0,1,.32-3.22,22.62,22.62,0,0,0,.26-6.14c0-1.15-.11-2.44-.07-3.71l-.18-3.65c-.13-2.87-.3-6.44-.55-9.81a21,21,0,0,0-1-4.62,2.06,2.06,0,0,0-1.91-1.66,3.05,3.05,0,0,0-1.81.73,35.27,35.27,0,0,1-4.24,2.78,46.84,46.84,0,0,1-5,2.64,56.59,56.59,0,0,1-6.21,2.22,12.52,12.52,0,0,1-3.45.34,10.2,10.2,0,0,0-4.5.69.6.6,0,0,1-.27.06,2.83,2.83,0,0,1-.76-.17c-.23-.07-.39-.13-.55-.16a5,5,0,0,1-.51-.16,2.68,2.68,0,0,0-.9-.21,15.12,15.12,0,0,1-12.58-5.78,15.76,15.76,0,0,1-3.13-8.27,23.76,23.76,0,0,1,.62-7.51l.21-1.13a13.35,13.35,0,0,1,1.26-3.31c.21-.42.38-.78.55-1.15l.42-1,.13-.29a40.16,40.16,0,0,1,2.17-4.42c.75-1.25,1.64-2.5,2.36-3.51s1.5-2.13,2.14-3.17c1.65-2.68,3.55-5.8,5.15-9a72.44,72.44,0,0,0,3.26-8,42.37,42.37,0,0,0,1.29-4.67l.17-.71.37-1.52c.5-2.07,1-4.11,1.29-6.15a6.43,6.43,0,0,0-.69-3.52l-.3-.62a15,15,0,0,0-3.11-4.72,32,32,0,0,0-5.09-3.4l-.22-.13c-.7-.4-1.4-.81-2.08-1.24-4-2.49-8.41-3.16-12.64-3.51l-.61,0-.13,0c-1.19-.1-2.42-.2-3.63-.2Z" transform="translate(-1243.86 -497.1)"/><path class="cls-2" d="M1372.17,682.21h0c-2.82,0-5.69.22-8.47.43l-2.92.21-.83,0a17.68,17.68,0,0,0-3,.33c-.78.19-1.56.46-2.36.74a17.05,17.05,0,0,1-3.37.91,20.31,20.31,0,0,0-9.13,4,36.23,36.23,0,0,0-10.32,10.77,45.38,45.38,0,0,0-4.46,9.66,38.07,38.07,0,0,0-2.28,13c.06,1.64,0,3.26,0,5.05,0,1,0,2.09,0,3.14a5.4,5.4,0,0,0,.16,1l0,.1c0,.16.07.32.09.48.09.57.18,1.13.26,1.69l.08.56c.24,1.57.48,3.2.78,4.79a33.9,33.9,0,0,0,1.25,4.71c.51,1.44,1.11,2.88,1.68,4.28.3.72.6,1.43.89,2.15s.54,1.41.79,2.13a41,41,0,0,0,1.7,4.15c1.11,2.23,2.34,4.43,3.53,6.56l.21.38,1.44,2.59,1.36,2.57c1,1.88,2,3.75,3.07,5.52a55.47,55.47,0,0,0,4.93,7c3.83,4.52,7.26,8.08,11.53,10.74,3.93,2.46,8.31,3.74,12.46,4.85,2.41.64,4.9,1.13,7.31,1.6l2.78.56c.33.06.67.1,1,.14h.12a11.58,11.58,0,0,1,1.18.18c.84.18,1.67.38,2.51.59l.13,0a47.1,47.1,0,0,0,5,1.06,61.75,61.75,0,0,0,8,.37c2.32,0,4.47-.13,7.19-.34a15,15,0,0,0,1.8-.34l.11,0c.45-.11.93-.22,1.46-.31l1.73-.29,4.46-.76,2.72-.49c1.26-.23,2.51-.45,3.77-.66a7.13,7.13,0,0,1,.94-.09,5.19,5.19,0,0,0,1.39-.2c1-.33,2-.71,3-1.08l.24-.09c1.47-.55,2.91-1.1,4.36-1.54a33.91,33.91,0,0,0,8.91-4.19,56.57,56.57,0,0,0,11.13-8.85c2.57-2.82,5.56-6.12,8.5-9.56a54.68,54.68,0,0,0,4.3-5.71c2.62-4.05,4.69-7.45,6.53-10.71a112.45,112.45,0,0,0,5.77-11.2,60,60,0,0,0,3.16-10.18,50.45,50.45,0,0,0,1.38-9.53,43.91,43.91,0,0,0-.86-12.14l-.48-2.06a63.58,63.58,0,0,0-1.89-6.91,36.82,36.82,0,0,0-5-9.09,28.12,28.12,0,0,0-8.71-7.93,10.61,10.61,0,0,0-4.66-1.71c-1.24-.07-2.63-.15-4-.15a19.88,19.88,0,0,0-6.94,1,1.78,1.78,0,0,1-.63.09h-.57a1.75,1.75,0,0,0-.64.1l-.38.15c-2.17.89-4.42,1.81-6.54,2.92l-.24.12a30.64,30.64,0,0,0-5.87,3.61c-2.43,2.09-4.76,4.39-7,6.61l-.1.1-2,2a14.27,14.27,0,0,0-2.32,2.7c-1.88,3.12-3.82,6.35-5.54,9.73-1,1.94-1.81,4-2.61,6-.31.77-.63,1.54-1,2.31-.23.57-.44,1.14-.65,1.71-.69,1.91-1.4,3.86-3.08,5.28a3.08,3.08,0,0,1-2,.6,2.88,2.88,0,0,1-2.52-1.11l-.4-.71a24.69,24.69,0,0,1-1.78-3.61c-1-2.8-2-5.69-2.91-8.48l-.21-.62c-.37-1.1-.73-2.18-1.09-3.27-.26-.78-.49-1.59-.72-2.4a24.69,24.69,0,0,0-1.85-5.06c-.53-1-1-2-1.51-3a29.29,29.29,0,0,0-4.57-7.41l-.58-.6a6.1,6.1,0,0,1-1.47-1.85c-.92-2.2-2.76-3.42-4.54-4.59-.64-.42-1.3-.86-1.9-1.33a20.5,20.5,0,0,0-5.2-2.63l-.27-.11a14.18,14.18,0,0,0-4.86-1.26ZM1395,764.83c.69,0,1.26,0,1.78-.07a14.41,14.41,0,0,1,1.46-.07,31.88,31.88,0,0,1,6.1.78c.81.15,1.62.31,2.43.44a16,16,0,0,1,4.76,1.91l.56.29c1.52.79,2,3,1.06,5.18-2.08,4.89-5.47,9.17-10.66,13.46a4.48,4.48,0,0,1-2.91,1,5.45,5.45,0,0,1-3.81-1.64l-.35-.34a56.2,56.2,0,0,1-5-5.44c-3.4-4.4-4.47-8.45-3.34-12.73.45-1.72,2.41-2.87,4.87-2.87.55,0,1.09,0,1.62,0l1.47,0Z" transform="translate(-1243.86 -497.1)"/><path class="cls-3" d="M1396.14,772.23h0a2.27,2.27,0,0,0-.25.18,1.44,1.44,0,0,1-.57.32c-.38.06-.59.12-.67.25s0,.34.14.72l.07.17c.82,2.25,2.63,3.37,4.38,4.44.46.29.92.57,1.37.87a1.46,1.46,0,0,0,.83.3c.6,0,1-.55,1.32-1a21.75,21.75,0,0,0,1.93-3.36,1.5,1.5,0,0,0-.16-1.06c-.09-.18-.17-.28-.25-.3a79.67,79.67,0,0,0-8.13-1.58Z" transform="translate(-1243.86 -497.1)"/><path class="cls-1" d="M1561.75,985.7a1.67,1.67,0,0,0-1.59,1.28c-.37,1.25-.44,3,.63,3.94a.66.66,0,0,0,1-.09h0a1,1,0,0,0,.73-.49,3.61,3.61,0,0,0,.53-2.07,4.37,4.37,0,0,0-.25-1.52c-.16-.41-.48-1-1-1Zm.46,4.29Z" transform="translate(-1243.86 -497.1)"/><path class="cls-4" d="M1450.91,504.84h0l.17.33.12.21a5.42,5.42,0,0,0,.7,1l.66.65c5.69,5.59,11.57,11.37,15.47,18.63.36.67.74,1.34,1.13,2l.08.15.06.1a41.18,41.18,0,0,1,2.37,4.59,43.38,43.38,0,0,1,1.73,5.66l.12.46c.1.39.2.78.31,1.17.14.54.3,1.08.47,1.61l.08.27a19.44,19.44,0,0,1,1.09,5.23c0,.81.06,1.63.12,2.45.16,2.48.33,5-.65,7.54a20.17,20.17,0,0,0-1.07,5.49,27.56,27.56,0,0,1-2.09,7.45l-.37.94c-1,2.66-2.22,5.49-3.09,7.55l-1.08,2.57-.57,1.39-.07.16,0,.1c-.49,1.19-1,2.54-1.67,3.82-1.8,3.62-3.79,7.49-5.91,11.49-1.7,3.19-3.73,7-5.92,10.79-.84,1.44-1.74,2.82-2.61,4.15-.57.87-1.13,1.73-1.68,2.61s-1,1.71-1.56,2.57l-.12.21-.19.31-.09.15c-.77,1.28-1.56,2.6-2.38,3.85-.49.74-1.05,1.45-1.59,2.15l-.09.11-.1.14a24.77,24.77,0,0,0-2.1,3,39,39,0,0,1-7.58,9.54c-3,2.73-5.65,4-8.53,4l-.76,0a31.8,31.8,0,0,1-3.55-.53l-.16,0-.11,0c-.88-.16-1.71-.31-2.55-.42-3.59-.42-7-.71-10.2-.88l-1.48-.07h-.42c-1.91-.1-4.07-.22-6.22-.22a40.85,40.85,0,0,0-8,.7,30.07,30.07,0,0,1-4.62.45,27.44,27.44,0,0,0-5.74.69,47.6,47.6,0,0,1-5.1.94l-.14,0-.32.05-.14,0c-.78.12-1.52.23-2.25.36-.49.09-1,.2-1.44.32l-.15,0-.19,0c-.31.07-.62.15-.93.2l-.59.12a12,12,0,0,1-2.36.32,4.5,4.5,0,0,1-2.6-.78,14.07,14.07,0,0,1-4.81-6.18c-.56-1.27-1.06-2.6-1.54-3.89-.24-.68-.48-1.32-.73-2s-.57-1.45-.86-2.17c-.58-1.48-1.18-3-1.75-4.59-.47-1.34-.91-2.71-1.34-4.05l-.13-.38-.07-.22-.11-.36c-.3-.94-.6-1.88-.92-2.81s-.71-2.1-1.07-3.16l-.21-.59c-.81-2.36-1.65-4.79-2.41-7.27-.36-1.23-.61-2.53-.83-3.67l0-.12c-.16-.85-.35-1.82-.59-2.76s-.54-1.86-.81-2.69l-.06-.15,0-.13-.07-.2c-.24-.75-.51-1.57-.72-2.39a42.84,42.84,0,0,1-1-5.13c-.1-.72-.21-1.44-.32-2.16a43,43,0,0,1-.67-7.16c0-1.78,0-3.61-.08-5.23-.13-3.88-.27-7.86.64-11.73a42.14,42.14,0,0,0,.82-5.83l0-.29c.08-.83.16-1.67.26-2.51l0-.46a6.17,6.17,0,0,1,.31-1.64c.37-1,.79-1.94,1.2-2.88l.09-.22.06-.15a42.84,42.84,0,0,0,2.37-6.34,26.8,26.8,0,0,1,3.74-7.6c.4-.63.79-1.24,1.16-1.87a72.41,72.41,0,0,1,7.3-9.45l.27-.3c2.53-2.93,5.21-5.82,7.57-8.37l.78-.84.72-.78,2.23-2.42a3.62,3.62,0,0,0,.4-.59l.08-.14.08-.14h-.15l-.14,0-.1,0a1.54,1.54,0,0,0-.72.26l-1.54,1.35-.77.67-.12.11c-2.4,2.08-4.89,4.24-7.23,6.52-1.93,1.89-3.8,4-5.44,5.85l-.07.08-.59.67-.07.08-1.12,1.26-.15.16c-2.47,2.76-5.28,5.87-8,9-1.43,1.67-2.83,3.41-4.19,5.09l-.2.23-.29.37-1.61,2a.87.87,0,0,0-.13.37,1.22,1.22,0,0,1-.06.26,4.84,4.84,0,0,1-4.72,3.22h-.38c-3.57,0-5.57-2.49-7.49-4.9l-.43-.53a43.17,43.17,0,0,1-3.89-6c-.6-1.07-1.35-2.39-2.13-3.6-1.71-2.67-3.5-5.29-5.33-8l-1.71-2.53a1.35,1.35,0,0,0-.39-.36l-.19-.15a.36.36,0,0,0-.11.21,1.45,1.45,0,0,0-.07.47c.08.81.12,1.62.16,2.44v.15a37.13,37.13,0,0,0,.36,4,39.71,39.71,0,0,0,11.56,22.47l.9.86.09.09c2.32,2.23,4.7,4.52,6.87,7a25.72,25.72,0,0,1,4,6,20,20,0,0,1,2,6.93,12.21,12.21,0,0,1-1.31,6,7.89,7.89,0,0,1-5.14,4.47,19.24,19.24,0,0,1-4.05.6,4.64,4.64,0,0,1-2.24-.46,58.39,58.39,0,0,1-7.66-5.28l-.3-.22c-.85-.66-1.7-1.31-2.56-1.94l-.67-.49c-1.6-1.17-3.3-2.42-4.89-3.71-.28-.22-.44-.32-.56-.32a.2.2,0,0,0-.13.06c-.09.13,0,.38,0,.64s.18.75.26,1.13a9.36,9.36,0,0,0,1,3c2.57,4,6.67,6,10.35,7.3,2,.72,4,1.38,5.71,1.9l.14,0,.21.06c1.21.38,2.41.76,3.61,1.16,4.08,1.38,7.45,4.27,10.29,8.85,2.23,3.62,3.35,7.77,4.43,11.79l.5,1.83a33.11,33.11,0,0,1,1,6.34,64.26,64.26,0,0,1,.33,8.57,4.11,4.11,0,0,1-6.21,3.84,9.34,9.34,0,0,0-2-.77l-.19-.06c-.42-.14-.79-.25-1.14-.39l-3.62-1.48-3.38-1.39c-1.11-.45-2.28-.89-3.48-1.29a.25.25,0,0,0-.13,0,1.34,1.34,0,0,0-.43.1l-.25.07a.54.54,0,0,0,.13.24,1.21,1.21,0,0,0,.36.32c1.11.55,2.22,1.08,3.34,1.62l.59.28,5.5,2.67.11.06c2,1,4.55,2.24,6.94,3.52,1.24.67,2.48,1.39,3.68,2.09l.21.12c.68.4,1.35.79,2,1.17,3.4,1.95,7,4.46,6.34,9.66a6.94,6.94,0,0,1-3.42,5.22c-1.23.75-2.56,1.42-3.74,2l-.19.1c-1.26.62-2.57,1.27-3.77,2l-1.29.79a27.66,27.66,0,0,0-6.9,5.19,8,8,0,0,1-2.75,2.11,5.88,5.88,0,0,1-2.29.48,6.47,6.47,0,0,1-4.28-1.8c-.44-.38-.86-.78-1.29-1.18l-.1-.1a26.08,26.08,0,0,0-2.31-2c-2.75-2-5.71-4.1-9.32-6.54l-.31-.21a78,78,0,0,0-6.74-4.23c-2.06-1.12-4.24-2.12-6.34-3.09l-.17-.08-.16-.07-.1-.05-.75-.34-1.49-.69c-1.16-.54-2.31-1.09-3.47-1.65-2.93-1.4-6-2.85-9.13-4.12a79.33,79.33,0,0,0-10.18-3.15c-2.43-.63-5-1.11-7.22-1.54l-.14,0-.19,0-.71-.13-.14,0-1.89-.37a7.46,7.46,0,0,0-1-.1,4.92,4.92,0,0,1-1.67-.28,13.94,13.94,0,0,0-5.93-1h-2a3.84,3.84,0,0,0-2.7,1.93,1.76,1.76,0,0,0-.28,1.62c.2.39.4.77.59,1.16l.25.5c.58,1.16,1.14,2.29,1.77,3.36l.85,1.48.07.11c1.37,2.38,3.08,5.34,4.89,8a100.11,100.11,0,0,0,6.4,8.51c3.07,3.68,6,6.92,8.87,9.91,2.06,2.11,4.43,4.18,6.34,5.84l1.24,1.08,1.11,1,.19.15.08.07c2.55,2.24,5.19,4.55,7.91,6.66,2.53,2,5.19,3.7,7.77,5.39l1.19.78c.66.43,1.39.82,2.08,1.18l.11.05c.69.37,1.48.78,2.17,1.24,2.55,1.72,5.48,4.23,5.5,8.54a31.79,31.79,0,0,1-.92,8.3,41.4,41.4,0,0,0-1,9.13c0,1.28-.07,2.56-.13,3.84l0,.43c-.2,4.82-.4,9.77.58,14.64a26.17,26.17,0,0,1,.41,3.59,23.22,23.22,0,0,0,.68,4.87,30.1,30.1,0,0,1,.82,4.78l0,.33c.08.67.16,1.3.25,1.92,0,.18,0,.36.07.54a10.93,10.93,0,0,0,.3,1.59l.44,1.45c.61,2.06,1.44,4.89,2.36,7.49,1,2.91,2.12,6,3.5,9a58.75,58.75,0,0,0,4.18,7.51l.19.3a87.07,87.07,0,0,0,6.48,9.13A48.58,48.58,0,0,0,1340.8,794l1.13.75.49.32a43.07,43.07,0,0,0,4.9,3c4.2,2,8.37,3.86,12.38,5.43,3.48,1.37,7.23,2.62,11.48,3.83a31.76,31.76,0,0,0,4.85.85l.43,0,1.43.19c.41,0,.85.06,1.29.08a5.14,5.14,0,0,1,2.18.33,10.3,10.3,0,0,0,4.72.9h1.35l1.41,0h.21c1.48,0,3,.07,4.45.11h.17c1.56,0,3.71.12,5.72.12a46.57,46.57,0,0,0,11.2-1.13c1.38-.33,2.81-.55,4.2-.76l.14,0,.13,0h.1l.11,0c1-.14,2.17-.32,3.3-.55,2.94-.61,5.25-1.19,7.26-1.82.57-.17,1.16-.31,1.76-.44l.17-.05a11.46,11.46,0,0,0,4.82-1.92c.57-.15,1-.25,1.4-.38,0,0,0,0,0-.26a.47.47,0,0,0-.07-.12h0l-.22.1c-.46.2-.91.4-1.48.6l-.12,0h-.14a.51.51,0,0,0-.17,0l-2.1.56-.41.11-.15,0-.19.05c-1.68.46-3.43.93-5.17,1.28a70.81,70.81,0,0,1-7.4,1.06c-3.77.4-7.45.76-11.07.88l-1,.05-1.07,0-1.09,0c-2.43.11-4.8.21-7.13.21a50.43,50.43,0,0,1-9.25-.74l-2.6-.44-.14,0a49.08,49.08,0,0,1-7.71-1.68,46.68,46.68,0,0,0-4.93-1.28l-.13,0h-.12l-.48-.11c-1-.24-2-.47-3-.73a62.24,62.24,0,0,1-7.69-2.48,21.56,21.56,0,0,1-5.55-3.33c-2.35-2-4.61-4.23-6.6-6.2l-1.67-1.65a22.49,22.49,0,0,1-2.81-3.17c-1.31-1.89-2.54-3.84-3.74-5.72l-.1-.16-.09-.15-1.15-1.8-.47-.75-.1-.15c-.71-1.1-1.43-2.24-2.09-3.4-1.15-2.07-2.24-4.13-3.25-6.14-.42-.86-.85-1.72-1.28-2.58l-.14-.27-.14-.29,0-.11c-1.45-2.92-2.94-5.93-4.27-9a92.16,92.16,0,0,1-3.21-9.12,34.49,34.49,0,0,1-.85-3.69l0-.14,0-.18c-.11-.59-.22-1.17-.35-1.75-.18-.8-.41-1.64-.61-2.39l0-.14a20.48,20.48,0,0,1-1-5.44c0-1.58,0-3.23-.11-4.68v-.18c-.17-3.86-.34-7.85.67-11.75a30.36,30.36,0,0,0,.64-3.3l0-.22a29.93,29.93,0,0,1,.66-3.43,63.18,63.18,0,0,1,3.83-9.74,47.58,47.58,0,0,1,7.13-10.6,15.77,15.77,0,0,1,2.41-2.14,23,23,0,0,0,2-1.73c2.7-2.74,6.19-4.07,9.82-5.3a48.1,48.1,0,0,1,6.33-1.5c1.15-.22,2.19-.42,3.23-.67a25.36,25.36,0,0,1,5.34-.41,24.93,24.93,0,0,0,5.59-.49,6.61,6.61,0,0,1,1.47-.14,18.85,18.85,0,0,1,3.05.34,24.31,24.31,0,0,0,2.64.35,33.38,33.38,0,0,1,6.9.95,21,21,0,0,1,9.2,5.51c3.89,3.63,6.75,8.06,9.34,12.29a61.54,61.54,0,0,1,4.9,10.9,37.47,37.47,0,0,1,1.25,4.44l0,.11h0c.26,1.11.56,2.38.95,3.56a13.62,13.62,0,0,0,1.59,3.08l.48.77c.08.15.46.18.67.18s.27,0,.29-.07c.21-.55.41-1.11.59-1.67s.38-1.13.6-1.67c.65-1.61,1.22-2.92,1.81-4.13.4-.8.83-1.58,1.27-2.36l0-.11.1-.18.15-.27c.3-.54.6-1.09.88-1.64a45.18,45.18,0,0,1,7.56-10.59c1.64-1.69,3.46-3.23,5.21-4.72l.37-.31.32-.28.1-.08c.88-.76,1.77-1.52,2.63-2.3a27.92,27.92,0,0,1,7.65-4.51l1.22-.56.53-.25a18.2,18.2,0,0,1,6.21-2,20.89,20.89,0,0,0,3.6-.73l.16-.06.13,0a19,19,0,0,1,3.78-.7l.46,0,.49,0,.42,0c.83-.07,1.71-.13,2.56-.13a10.26,10.26,0,0,1,4.15.75,12.42,12.42,0,0,0,3.14.76c.78.12,1.38.22,2,.35,2.75.67,4.91,2.32,7.31,4.58a25.76,25.76,0,0,1,5.84,7.83c.46,1,1,2,1.59,3l.09.17a31.87,31.87,0,0,1,2.32,4.59,47,47,0,0,1,1.9,7.65l.23,1.2.21,1a51.34,51.34,0,0,1,1.14,7.79,41.91,41.91,0,0,1-.93,13.15,29.1,29.1,0,0,0-.65,3.55v.13l0,.1c-.13,1-.25,1.87-.43,2.75a41.73,41.73,0,0,1-1.53,5.8c-1,2.87-2.31,6.2-3.83,9.39a109.66,109.66,0,0,1-12.68,20.69,122.45,122.45,0,0,1-8.13,9.52c-4.09,4.31-8.32,8.76-13.54,12.23a1.6,1.6,0,0,0-.43.48l-.18.25a.24.24,0,0,0,.17,0h.2a1.52,1.52,0,0,0,.73-.16l2.2-1.31a71.36,71.36,0,0,0,6.1-3.89,77.81,77.81,0,0,0,8.65-7.27c2.65-2.62,5.18-5.56,7.42-8.14.58-.68,1.16-1.34,1.73-2a39.15,39.15,0,0,0,3.57-4.64c1.36-2.16,2.73-4.49,3.83-6.37l.15-.25c.84-1.44,1.68-2.85,2.53-4.26a64.75,64.75,0,0,0,5.06-11.44c.26-.73.53-1.45.8-2.17a42.28,42.28,0,0,0,1.62-6.18l.07-.35c.15-.75.3-1.46.46-2.17.09-.42.14-.84.2-1.27a8.74,8.74,0,0,1,.17-1.19c.12-.57.26-1.13.4-1.7l.08-.34.07-.3.07-.28a45.12,45.12,0,0,0,1.06-5,59.26,59.26,0,0,0,.38-8c0-3.42-.13-7.13-.35-11-.09-1.35-.3-2.73-.49-3.94l0-.16c-.09-.61-.19-1.22-.27-1.84,0-.31-.08-.62-.11-.94a12.5,12.5,0,0,0-.29-1.87c-.35-1.37-.78-2.79-1.12-3.93L1491,694l-.38-1.23-.42-1.42c-.45-1.55-.9-3.06-1.44-4.6-.29-.81-.64-1.61-1-2.39a26.23,26.23,0,0,1-1.31-3.46c-1.35-5.06,1.65-11.19,6.55-13.37a91.92,91.92,0,0,0,9.37-4.69,101.33,101.33,0,0,0,9.55-6.4,82.83,82.83,0,0,0,7.82-6.77,92.67,92.67,0,0,0,6.55-7.21c2.79-3.38,5.41-6.79,7.85-10a28.42,28.42,0,0,0,2.26-3.61c1.43-2.52,2.68-4.82,3.69-6.83.85-1.65,1.68-3.46,2.69-5.86.06-.15-.16-.47-.17-.47-.14-.23-.35-.45-.48-.45-.64.08-1.29.21-1.89.33l-.16,0c-.53.11-1,.21-1.51.27-1.23.17-2.45.32-3.69.46-1.62.19-3.2.39-4.76.61l-.18,0a58,58,0,0,0-6.63,1.23c-3.41.91-6.54,1.95-9.42,2.93l-2.8,1a103.35,103.35,0,0,0-9.92,3.68,93.57,93.57,0,0,0-11.64,6.38,104.1,104.1,0,0,0-10.65,7.52c-2.59,2.1-5.07,4.39-7.46,6.61l-.14.13-.14.13c-1.06,1-2.12,2-3.2,2.94a5.29,5.29,0,0,0-.41.41c-.14.15-.23.24-.33.33a4.33,4.33,0,0,1-3.12,1.26,16.52,16.52,0,0,1-7.38-1.94,34.21,34.21,0,0,1-9.45-6.27,10,10,0,0,1-1.13-12.6c1.7-2.37,3.87-5,7.07-6.31,2.67-1.08,5.46-2,8.08-2.79,1-.31,2-.54,3.21-.79l.13,0,.14,0c.75-.16,1.49-.32,2.23-.51l1.31-.32.14,0c1.74-.42,3.72-.9,5.62-1.51a15.53,15.53,0,0,0,6.75-3.93,3.85,3.85,0,0,0,.47-.67c.1-.19.18-.31.25-.43l-.26-.09-.13,0a3.08,3.08,0,0,0-.63-.09h-.17c-.48.07-1,.17-1.45.27a14.15,14.15,0,0,1-2.44.38c-2.35.1-4.7.15-7,.21l-.71,0c-2.13,0-4.26.1-6.38.18h-.15a1.48,1.48,0,0,1-1.62-1l-.27-.78a15.93,15.93,0,0,1-1-3.73c-.21-2.37.61-4.55,1.61-6.95a16,16,0,0,1,8.15-8.73c3.22-1.5,6.32-2.79,9.21-3.82,1.37-.48,2.8-.84,4.06-1.17s2.63-.65,4.05-1.15c2-.7,4.08-1.62,5.73-2.35l2.13-.94a20.86,20.86,0,0,0,8.74-7,3.44,3.44,0,0,0,.46-1.21,4.56,4.56,0,0,1,.15-.59l-.66-.29a3.47,3.47,0,0,0-1.26-.35h-.13l-.5,0a31.7,31.7,0,0,0-9.33,1.91,32.64,32.64,0,0,0-9.12,5,6.75,6.75,0,0,1-3.91,1.62h-.18a6.37,6.37,0,0,1-5.62-6.26,8,8,0,0,1,.69-3.17l.37-.84.09-.2a12.55,12.55,0,0,1,2.43-4.14,42.51,42.51,0,0,1,6.18-4.65l1.12-.74a29.5,29.5,0,0,1,5.12-2.78c2-.79,4.09-1.52,5.79-2.1l.57-.2.35-.12c.9-.31,1.8-.62,2.69-1,2.67-1,5.33-2,8-3l2.55-1a34.87,34.87,0,0,0,9.64-6.17,17.67,17.67,0,0,0,5.6-8.3c.07-.21.16-.42.25-.62l.16-.37-.45.08q-.4.14-.81.24l-.21,0a1.1,1.1,0,0,0-.45.08q-5.33,2.46-10.66,5l-2.23,1.06-.61.28-2.11,1c-.89.41-1.78.81-2.68,1.2l-.11,0c-1.46.64-3.46,1.52-5.25,2.48-2.89,1.52-6.05,2.93-9.6,2.93-.29,0-.58,0-.87,0-2.35-.15-3.57-1.13-4.09-3.28a9,9,0,0,1-.16-1.37,7.81,7.81,0,0,0-.23-1.61c-.72-2.38-1.68-5.5-2.79-8.43l-.51-1.41-.17-.46a30.69,30.69,0,0,0-3-6.69,101.61,101.61,0,0,0-9-11.46,36.67,36.67,0,0,0-9.68-7.7c-1.06-.58-2.11-1.23-3-1.79l-.18-.11c-1-.61-1.88-1.16-2.81-1.69a4.53,4.53,0,0,0-1.27-.43l-.2,0-.12,0-.33-.09Zm-54.38,153.77a5.69,5.69,0,0,1-4.55-2.88c-1-1.79-1-3.74-1-5.8,0-.45,0-.84,0-1.22,0-2.38,1.14-3.63,3.24-3.63a7.45,7.45,0,0,1,1.61.2,12,12,0,0,1,6.65,4.43c1.11,1.38,1.06,3.34-.15,5.51a6.69,6.69,0,0,1-5.6,3.39Zm-22.87-1.51a4.38,4.38,0,0,1-3.66-1.7,3.75,3.75,0,0,1-.94-2,19.71,19.71,0,0,1,.06-2.59v-.21c0-.57.09-1.28.08-2,0-1.89,1.35-2.09,2.64-2.29a12.38,12.38,0,0,1,2-.16,10.48,10.48,0,0,1,5.56,1.54,3.81,3.81,0,0,1,1.12,1.51l.15.27a5.12,5.12,0,0,1-2.43,6.49c-.22.08-.44.18-.67.28a8.14,8.14,0,0,1-1,.41,14.37,14.37,0,0,1-2.94.41Zm63.6,4.58a5,5,0,0,1-2-.41c-2.87-1.29-3.36-3.65-3.47-6,0-.38,0-.75,0-1.12v-1.49a4.09,4.09,0,0,1,4.12-4.27,2.48,2.48,0,0,0,.91-.32,2.71,2.71,0,0,1,.89-.32c.3,0,.6,0,.88,0a5.5,5.5,0,0,1,5.67,4,5.87,5.87,0,0,1-1.48,6.31,5.73,5.73,0,0,1-5.46,3.68Zm-21-13.25c.79,0,1.58,0,2.37,0h.16a4.7,4.7,0,0,1,2.81,1.19,5,5,0,0,1,2.12,3.77,7.49,7.49,0,0,1-2.24,5.7c-.54.18-1.09.33-1.63.48a19.18,19.18,0,0,0-2.33.74,4.53,4.53,0,0,1-1.66.3,5,5,0,0,1-5-4.51,33.06,33.06,0,0,1,.26-5.27l.07-.67a1.77,1.77,0,0,1,2-1.72h.94l2.13,0Zm-23.5,28.06h-.23a10.48,10.48,0,0,1-3.64-1.16c-2.8-1.51-3.18-3.92-3.18-6.08,0-.65,0-1.41.12-2.32a2.78,2.78,0,0,1,2.78-1.8h.16c.84,0,1.68,0,2.52,0s1.56,0,2.34,0h.12a6.27,6.27,0,0,1,4.3,2.21,4.37,4.37,0,0,1,1.23,3.41c-.18,1.48-2.63,4.74-4.11,5.12a4.56,4.56,0,0,0-.6.18l-.25.09a5,5,0,0,1-1.56.36Zm13-7.16c.57,0,1.14,0,1.71,0a3.92,3.92,0,0,0,1.56-.46,2.33,2.33,0,0,1,1.13-.25c1.73,0,4,1.52,4.12,3.23.2,2.87-.73,4.32-3.83,6a13.62,13.62,0,0,1-2.79,1.21,4.41,4.41,0,0,1-1,.13c-1.32,0-2.46-.7-3.7-2.28,0-1,0-2.07,0-3.09v-.33c0-1.11,0-2.21,0-3.3a.87.87,0,0,1,.14-.66.71.71,0,0,1,.54-.14h.45l1.8,0Zm19.89,11.43c-1.87,0-3.21-1.48-3.27-3.6,0-1,0-2,0-2.93s0-1.79.06-2.64a2.19,2.19,0,0,1,2.18-2.24c.71-.05,1.54-.07,2.62-.07l2.08,0,1.56,0c.77,0,2.18,1.94,2.24,3.09,0,.5,0,1,0,1.55v.28c0,.2,0,.4,0,.6l0,.3a6.38,6.38,0,0,1-.31,1.27c-1.13,2.72-4.58,4.08-6.62,4.32l-.45,0Zm-14.81,16.5a2.57,2.57,0,0,1-1.36-.42c-1.08-.69-1.8-1.24-1.76-2.57,0-.9,0-1.79,0-2.69v-1c0-.57,0-1.12,0-1.69a5.05,5.05,0,0,1,5.11-4.63,4.14,4.14,0,0,1,2.11.54c1,.57,1.93,1.17,2.73,1.68,1.79,2.95,1.64,6.18-.38,8a10.88,10.88,0,0,1-3.64,1.9l-.94.36-.24.09a4.54,4.54,0,0,1-1.65.43Z" transform="translate(-1243.86 -497.1)"/><path class="cls-4" d="M1463.57,794.94a2.23,2.23,0,0,0-1.19.31c-1.13.75-2.26,1.56-3.25,2.28l-.25.18-.08.06c-1.48,1.08-2.62,1.9-3.85,2.71-2.55,1.67-5.18,3.24-7.82,4.68a42.89,42.89,0,0,1-4.2,1.91l-.23.1-1.16.48c-.81.33-1.61.68-2.42,1-2.23,1-4.52,2-6.83,2.7a63.4,63.4,0,0,1-6.6,1.6l-2.45.52a5.63,5.63,0,0,1-.93.11,3.64,3.64,0,0,0-1.52.3,11.59,11.59,0,0,1-5.08,1.05,15.66,15.66,0,0,0-4,.56,12.52,12.52,0,0,1-3.75.44h-5.59l-2.77,0a62,62,0,0,1-12.7-1,58.93,58.93,0,0,0-7.76-1.05,51.66,51.66,0,0,1-11-2.09c-1.31-.39-2.66-.72-4-1l-.24-.06-.22-.05-.24-.06-.18,0c-1.13-.27-2.35-.57-3.51-.89-2.32-.65-4.9-1.44-7.88-2.43-2.74-.93-5.62-2-8.81-3.15a15.9,15.9,0,0,1-1.75-.84c-.43-.24-.85-.46-1.28-.66-1.69-.77-3.5-1.58-5.33-2.27a1.08,1.08,0,0,0-.42-.08,1.51,1.51,0,0,0-1,.35l-.52.63a71.44,71.44,0,0,0-4.53,5.83,38.88,38.88,0,0,0-2.59,4.67l-.45.9-.2.4-.66,1.3c-1.14,2.24-2.43,4.78-3.49,7.26a44.76,44.76,0,0,0-1.62,4.56l-.06.18c-.19.61-.38,1.22-.58,1.82l-.65,1.94,0,.13c-.56,1.66-1.32,3.93-1.93,6.07a50.82,50.82,0,0,0-1.31,5.92c-.06.39-.13.77-.2,1.16v.1l-.07.37-.07.35a33.23,33.23,0,0,0-.75,6.43c.06,2.14,0,4.27-.08,6.28-.14,5-.29,10,1,14.92.28,1.08.46,2.21.6,3.12a25.52,25.52,0,0,0,.72,3.48,89,89,0,0,0,3.18,8.79,72.22,72.22,0,0,0,3.71,7.86,57.77,57.77,0,0,0,3.61,5.48l.68.94.28.41.49.69.28.41a45.87,45.87,0,0,0,4,5.26,81.08,81.08,0,0,0,7.45,6.8,47.31,47.31,0,0,0,5.8,4.1,49.21,49.21,0,0,0,5.53,2.77l.1,0,1,.48a27.16,27.16,0,0,0,4.93,1.91,39.94,39.94,0,0,0,5.07.82h.1c.86.1,1.63.19,2.41.3a.85.85,0,0,1,.27.09.81.81,0,0,0,.33.11l1.29,0h.78a26.43,26.43,0,0,0,4.69-.28,19.67,19.67,0,0,0,4.55-1.64l.88-.4,1-.44a17.69,17.69,0,0,0,4.15-2.2c2.32-1.84,4.68-3.89,6-6.89a7.94,7.94,0,0,0,.09-5.57,22.68,22.68,0,0,0-1.28-3.18l-.18-.39-.62-1.38-.19-.42c-.9-2-1.82-4-2.92-6.07a38.09,38.09,0,0,0-2.1-3.33l-.18-.26c-.51-.76-1.1-1.62-1.61-2.47-1.66-2.79-3.62-6.12-5.53-9.73a60.14,60.14,0,0,1-3.67-7.88,36.31,36.31,0,0,1-2.23-9c-.31-3.95-.65-8.41,1.07-12.56.15-.35.3-.71.44-1.07a13.86,13.86,0,0,1,2.33-4.35,50.06,50.06,0,0,1,5.64-5.06c.64-.51,1.18-1,1.72-1.4a17.5,17.5,0,0,1,3.13-2.07c2.59-1.31,5-2.44,7.28-3.45,3.17-1.38,5.82-2.52,8.65-3.52a31.39,31.39,0,0,1,4-1l.11,0,.11,0c.59-.12,1.18-.24,1.77-.38l.2,0,2-.47.17,0c1.43-.33,3.38-.79,5.26-1.16a21.59,21.59,0,0,1,3.86-.35c1.18,0,2.33,0,3.49,0a50.48,50.48,0,0,1,12.37,1.23,3.37,3.37,0,0,0,.84.09h.18a3.81,3.81,0,0,1,1.16.11c3.1,1.16,5.57,2.15,7.77,3.13a19.89,19.89,0,0,1,7.54,5.31c2,2.38,2.43,5.15,2.86,7.83.11.68.25,1.57.45,2.48a9.17,9.17,0,0,1-.52,4.75,27.09,27.09,0,0,0-1,5.79c0,.57-.1,1.09-.16,1.61a29.3,29.3,0,0,1-2.29,7.74l-.06.15-.12.28-.17.44c-.11.28-.22.56-.32.84-.19.52-.35,1-.51,1.55a20.46,20.46,0,0,1-1.25,3.29l-.14.29c-2.24,4.36-4.54,8.88-7.14,13.24-.45.76-.91,1.51-1.38,2.26l-.24.39a51.78,51.78,0,0,0-4.73,8.85,12.61,12.61,0,0,0-.62,8c1.43,5,6,6.27,10.21,6.91l.29,0,.13,0,.11,0a5.44,5.44,0,0,0,1,.15l.25,0c.73-.09,1.43-.23,2.16-.38.52-.12,1-.2,1.39-.28a6.88,6.88,0,0,1,.9-.1,5,5,0,0,0,1.57-.3l1.47-.62a60,60,0,0,0,6.86-3.23,82.79,82.79,0,0,0,9-6.08,58,58,0,0,0,5.56-5.15l.6-.61c4.69-4.73,8.18-8.34,11.33-11.69a28.91,28.91,0,0,0,3.68-4.76c.78-1.28,1.52-2.71,2.11-3.86l0-.11.21-.4c.71-1.35,1.38-2.62,2.14-3.85a24.57,24.57,0,0,0,2.61-6.55l.07-.24c.29-1,.57-2,.9-2.89a18.6,18.6,0,0,0,1.07-6.35c0-3.14-.24-6.39-.44-9.26v-.16c-.07-1-.14-2-.2-3a10.7,10.7,0,0,0-.38-2.47c-.32-1.09-.68-2.15-1-3.05-.24-.72-.49-1.44-.72-2.17s-.51-1.8-.72-2.61a25.35,25.35,0,0,0-1.82-5.39c-2.37-4.62-5-8.89-8-13.61a49.46,49.46,0,0,0-5-6.79c-1.58-1.77-3.3-3.53-4.82-5.09l-.16-.16c-1.5-1.53-3-3-4.32-4.52a11.18,11.18,0,0,0-4.41-2.63l-1.14-.47a2,2,0,0,0-.82-.16Z" transform="translate(-1243.86 -497.1)"/><path class="cls-4" d="M1494,885.13c-.24,0-.52.18-.86.54-.88,1-1.79,1.85-2.75,2.8l-.28.27-.16.16c-.66.66-1.32,1.3-2,2q-2.57,2.71-5.1,5.44c-1.62,1.75-3.19,3.43-4.77,5.11-2.37,2.51-3,5.54-2.2,9.81l.39,1.92.11.51.12.57,0,.21c.37,1.74.75,3.55,1,5.31a28.88,28.88,0,0,1,.36,5.43c0,1.92,0,3.93,0,5.7v.45c.07,4.9.15,9.95-1,14.84a35.34,35.34,0,0,0-.63,3.87c-.14,1.08-.27,2.15-.48,3.19-.44,2.29-1,4.64-1.41,6.66-.28,1.3-.57,2.59-.85,3.89a4.79,4.79,0,0,0-.09.84,3.87,3.87,0,0,1-.18,1.13c-.61,1.63-1.25,3.23-1.9,4.84l-1.11,2.8c-.35.9-.69,1.81-1,2.71l0,.11c-.58,1.57-1.3,3.51-2.12,5.27-.55,1.18-1.22,2.31-1.86,3.4l-.11.21a34.84,34.84,0,0,0-2.12,3.94,57.37,57.37,0,0,1-6,9.92l-.28.4c-.49.71-1,1.41-1.46,2.12a65.59,65.59,0,0,1-7.66,8.77c-2.46,2.48-5,4.79-7.25,6.82l-1,.94-1.56,1.43a21.39,21.39,0,0,1-2.59,2.14c-2.75,1.78-5.45,3.46-8,5a48.39,48.39,0,0,1-5,2.66c-2,.87-4.15,1.58-6,2.2l-.18.07-1.57.53a69.63,69.63,0,0,1-6.76,2,20.66,20.66,0,0,1-4.56.38h-1.37c-4.65,0-8.53-.12-12.4-.36a19.89,19.89,0,0,1-5.6-1.12,78,78,0,0,1-8.38-3.73l-1.43-.73-.36-.18a67.15,67.15,0,0,1-8.82-5,90.56,90.56,0,0,1-10.14-8.71,57.84,57.84,0,0,1-5.49-6.35l-.45-.58-.34-.44-.07-.08-.07-.09c-2.16-2.75-4.4-5.59-6.33-8.58a103,103,0,0,1-5.2-9.38c-1.85-3.65-3.15-6.47-4.22-9.18a42.43,42.43,0,0,1-1.32-4.33c-.25-.94-.52-2-.84-3s-.66-2-1-3l-.1-.26-.06-.18L1329,969c-.5-1.41-1.06-3-1.49-4.63-.79-3-1.47-6.16-2.09-9.74a73.89,73.89,0,0,1-1-8.45c-.26-3.86-.32-7.88-.37-11.36,0-3.25,0-6.52,0-9.69v-2.68a3.75,3.75,0,0,1,.11-.79,3.65,3.65,0,0,0,.13-.84c0-.76,0-1.54.08-2.31a18.44,18.44,0,0,0-.29-5.58,26.73,26.73,0,0,0-2.56-5.67l-.1-.19c-.43-.79-.88-1.61-1.27-2.43-1.36-2.82-2.82-5.92-4.48-9.47-.63-1.37-1.07-2.42-1.43-3.41-.41-1.17-.79-2.34-1.17-3.52-.18-.57-.36-1.13-.55-1.7,0-.17-.12-.34-.18-.52l-.12-.32a.63.63,0,0,0-.24.16l-.1.07a1.21,1.21,0,0,0-.45.58,15.5,15.5,0,0,1-1,3.17,14.38,14.38,0,0,0-1.2,3.78,30.29,30.29,0,0,1-1.44,5.54l0,.15a37.51,37.51,0,0,0-1.13,3.81,53.42,53.42,0,0,0-1,6.64l-.11.94a49.38,49.38,0,0,0-.34,6c.06,2.52,0,5.17,0,7.5-.07,6.11-.13,12.4,1,18.57a25.07,25.07,0,0,1,.3,4.23v.4c0,.8,0,1.59.1,2.36.11,1.26.29,2.56.43,3.61l0,.13,0,.35c.1.68.19,1.36.26,2,0,.35.07.71.09,1.06V957a15.35,15.35,0,0,0,.2,2c.28,1.4.61,2.8.92,4.12s.54,2.35.79,3.54c.43,2,.87,4.36,1.31,6.93a5.6,5.6,0,0,1,.06,1,4.15,4.15,0,0,0,.12,1.22c.21.79.48,1.59.76,2.39s.63,1.87.89,2.84c.32,1.27.62,2.55.91,3.83l.08.36,0,.13c.43,1.88.82,3.57,1.27,5.2.59,2.14,1.27,4.26,2,6.61l.07.21.29.89c.26.82.53,1.64.78,2.47.16.51.31,1,.46,1.55l0,.1c.24.87.53,1.88.89,2.83.51,1.37,1.06,2.73,1.59,4s.91,2.22,1.34,3.34.75,2,1.1,3.07.73,2.11,1.14,3.15.93,2.36,1.42,3.53l.06.15,0,.1c.66,1.61,1.47,3.6,2.14,5.5.89,2.59,1.58,5.28,2.25,7.87l0,.15.06.24c.28,1.11.54,2.23.81,3.36l.08.34c.35,1.49.71,3,1.15,4.6l0,.68a6.59,6.59,0,0,0,.17,1.51c.19.7.42,1.38.67,2.1a20.74,20.74,0,0,1,1,3.63l0,.11a91.32,91.32,0,0,0,2.08,10.89,45.61,45.61,0,0,1,1.09,5.87l.08.54c.09.6.17,1.15.26,1.7a3.57,3.57,0,0,1,0,.8,3.71,3.71,0,0,0,0,.94c.21.91.44,1.82.68,2.72l.07.25c.34,1.3.66,2.57.92,3.82.21.91.38,1.87.52,2.71l0,.27,0,.13,0,.11,0,.14c.24,1.34.48,2.73.83,4.06.73,2.81,1.69,5.71,2.46,8l.31.92c.72,2.21,1.51,4.56,2.45,6.83.59,1.43,1.25,2.87,1.83,4.13l.14.31c.62,1.33,1.25,2.71,1.82,4.1a40.36,40.36,0,0,0,6.5,10,16.16,16.16,0,0,0,2.89,2.55l.17.13,1,.8a12.61,12.61,0,0,0,6,2.94,22.14,22.14,0,0,0,3.63.32,14.48,14.48,0,0,0,9.28-3.15,30.47,30.47,0,0,0,5.83-6.44,29.6,29.6,0,0,0,3.69-8.09c.24-.71.48-1.42.74-2.13a56.9,56.9,0,0,0,2.07-8.25l0-.28c.42-2.12.68-4.31.93-6.43l0-.21.11-1a36.7,36.7,0,0,0,.34-4.73c-.06-6-.17-12-.28-17.93l-.06-3.19a1,1,0,0,0-.12-.41,1.36,1.36,0,0,1-.1-.36v-.31a3.77,3.77,0,0,1,.09-1.35c.64-1.88,2.27-2,3.85-2h.26l.58,0a26.28,26.28,0,0,1,6.87,1.23c1,.26,2,.54,3,.77a50.56,50.56,0,0,0,9.67,1.06h.43c1.4,0,2.82-.14,4.19-.27a45.59,45.59,0,0,1,4.67-.32,41.94,41.94,0,0,0,9.18-1.37c.39-.09.75-.19,1.11-.3a8.75,8.75,0,0,1,2.28-.44,3,3,0,0,1,.64.06,12.8,12.8,0,0,1,5,2.4c2.9,2.36,3.55,5.88,4,9.58a35.86,35.86,0,0,1,.16,4.62,25.79,25.79,0,0,0,.44,6.46,22.4,22.4,0,0,1,.42,3.93,20.45,20.45,0,0,0,.71,5.21,21.57,21.57,0,0,1,.7,3.64l0,.2c.1.76.21,1.55.38,2.32l.3,1.42c.54,2.59,1.13,5.44,1.93,8.12a74.26,74.26,0,0,0,3.38,9.22,46.86,46.86,0,0,0,4.19,7.49,16.61,16.61,0,0,0,2.31,2.6l.1.1c.61.6,1.17,1.15,1.67,1.75,2.48,2.94,6.07,4,8.56,4.61a11.08,11.08,0,0,0,2.47.28,12.44,12.44,0,0,0,7.36-2.55,21.56,21.56,0,0,0,5.75-6.69c2-3.43,2.89-7.34,3.7-11.13l.13-.53a54.68,54.68,0,0,0,1-7.59c.12-1.66.1-3.32.08-4.93a47.3,47.3,0,0,1,.24-6.49,18.76,18.76,0,0,0-.13-4.23l0-.41c0-.44-.09-.87-.13-1.31-.14-1.88-.16-3.76-.17-5.68a68.34,68.34,0,0,0-.33-7.29c-.57-4.75-.74-9.64-.89-14l-.18-4.6c-.5-10.89-.6-20,.54-29.33.21-1.71.45-3.43.7-5.14l.17-1.22.17-1.22.09-.75a9.28,9.28,0,0,1,.27-1.7c.24-.83.51-1.64.77-2.45l.1-.31c.3-.87.58-1.75.84-2.63.21-.69.38-1.4.56-2.1l0-.2,0-.17,0-.15c.24-1,.49-1.93.8-2.87.51-1.47,1.07-3,1.66-4.51s1.41-3.73,2.06-5.79c.84-2.61,1.46-5.38,2-7.83l0-.12.09-.41c.69-3.13,1.36-6.4,2.1-10.3l.1-.52,0-.13a52.46,52.46,0,0,0,.9-5.88c.11-1.34.24-2.68.38-4l0-.24c.23-2.18.46-4.44.5-6.64,0-1.69.09-3.39.15-5.08.2-6,.4-12-.58-18a33.11,33.11,0,0,1-.34-4.22v-.13a24.83,24.83,0,0,0-.76-6.21,34,34,0,0,1-1.06-6.68A55,55,0,0,0,1503.2,912c-.43-1.45-.75-2.9-1.11-4.52l0-.12c-.31-1.42-.67-3-1.13-4.54-.64-2.14-1.46-4.3-2.19-6.21-.34-.87-.66-1.72-1-2.58l-.4-1.1c-.84-2.3-1.69-4.61-2.57-6.9-.17-.45-.4-.92-.81-.92Z" transform="translate(-1243.86 -497.1)"/><path class="cls-4" d="M1535.84,957.1a23.53,23.53,0,0,0-8.78,2.08,56.88,56.88,0,0,0-7.51,3.7,28.72,28.72,0,0,0-4.93,3.75c-1.8,1.64-2.14,3.86-2.47,6a18.73,18.73,0,0,1-.64,3.15,22.63,22.63,0,0,0-.81,3.91l0,.17c-.1.64-.18,1.2-.28,1.75-.35,2-.7,4-1,6-.09.55-.19,1.1-.28,1.65l0,.11,0,.17c-.27,1.53-.52,3-.69,4.44-.2,1.78-.32,3.73-.36,6,0,3.23,3.4,7.66,6.59,8.46l.68.18.49.13.51.13c.8.22,1.6.44,2.41.63q3.4.81,6.83,1.57l.64.14h0a.35.35,0,0,0,.19-.06l.13-.07.7-.18a9.53,9.53,0,0,1,1.66-.35c.63-.06,1.29-.07,1.92-.09h.17a14.59,14.59,0,0,0,3.68-.36,38.62,38.62,0,0,0,7.63-3c3.16-1.64,6.17-3.53,9.5-5.65a14.3,14.3,0,0,0,2.13-1.77c.39-.37.73-.7,1.09-1l2-1.69.27-.23c2-1.69,3.6-3.1,5.2-4.53a1.51,1.51,0,0,0,.31-.9l0-.12c0-.16,0-.28.07-.38a1.16,1.16,0,0,0-.42.18,4.46,4.46,0,0,0-.74.52,7.5,7.5,0,0,1-5.06,2.28c-2.2,0-4.07-1.32-5.28-3.72v-.85c0-2.09.37-3.54,2.37-4.36a11,11,0,0,0,2.57-1.68l.19-.15c.25-.2.51-.41.77-.6a.89.89,0,0,0,.25-.48l.09-.24-.25,0a2.56,2.56,0,0,1-.45.12c-.43.06-.85.13-1.28.21l-.25,0a17.87,17.87,0,0,1-3.06.37,4.18,4.18,0,0,1-.5,0,14,14,0,0,1-7.06-2.24,16,16,0,0,1-5.9-7.34,12.85,12.85,0,0,1-.69-2.56,11.3,11.3,0,0,0-.85-2.89c-1.3-2.63-.49-4.88.37-7.26.12-.34.24-.66.34-1a3.72,3.72,0,0,1,.45-.8l.26-.41-.27-.18-.3-.16a3,3,0,0,0-1.23-.49c-.33,0-.66,0-1,0Z" transform="translate(-1243.86 -497.1)"/><path class="cls-3" d="M1572.41,946.67a1,1,0,0,0-.5.11,9.72,9.72,0,0,0-1.77,1.21c-.4.32-.72.58-1.05.81l-.89.63a38.5,38.5,0,0,1-3.34,2.19,45.52,45.52,0,0,1-11,4.44l-.58.25a4.92,4.92,0,0,1-1.22.42,10.94,10.94,0,0,0-6.62,3.88c-1.65,1.91-2.45,6.88-1.45,9a10.3,10.3,0,0,0,9.06,5.48,8.05,8.05,0,0,0,2.42-.36l1.27-.41a24.22,24.22,0,0,1,7.31-1.54,10.74,10.74,0,0,1,1.75.13c.78.11,2,.81,2,1.23a25.29,25.29,0,0,1-.74,5.91,9.93,9.93,0,0,1-3.38,5.19,1.08,1.08,0,0,0-.27.59.59.59,0,0,0,.38.26c.33-.14.63-.25.93-.36a5.2,5.2,0,0,0,2-1.08,35,35,0,0,0,4.37-5.49,51.58,51.58,0,0,0,5.13-12.32c.14-.45.28-.91.43-1.36a20.76,20.76,0,0,0,1.33-6.22,16.11,16.11,0,0,0-.89-4.36,22.58,22.58,0,0,1-.85-3.38,6.37,6.37,0,0,0-2.45-4.41,2.52,2.52,0,0,0-1.37-.45Z" transform="translate(-1243.86 -497.1)"/></svg>