<svg id="Draw_Layer" data-name="Draw Layer" xmlns="http://www.w3.org/2000/svg" viewBox="0 0 1020.97 983.48"><defs><style>.cls-1{fill:#2c2c2c;}.cls-2{fill:#f1ecd6;}.cls-3{fill:#ae690f;}.cls-4{fill:#fff;}</style></defs><title>Drumstick</title><path class="cls-1" d="M848,525.88C754.84,621.47,738.7,775.3,786.32,900c18.36,48.09,45.26,93.1,80.27,130.85,59.68,64.34,141.08,105.62,225.74,128.72s173,29.11,260.74,31.34c16.08.41,32.62.79,47.44,7.06s27.69,20,27.92,36.06c.19,13,16.83,20.36,29.17,16.38s20.85-15,28.55-25.42c61,21.23,100.19,91.82,85.93,154.83-9.21,40.75,29.11,84.77,70.74,81.25s72-53.35,56.09-92c25.56-4.09,51.56-13.79,68.08-33.72s20.23-51.92,3-71.21c-20.94-23.41-57.83-18-89.2-19.73-52.29-2.81-102.43-32.44-130.12-76.89,7.24-5.73,5.56-17.7-.29-24.83s-14.55-11.21-21.85-16.85c-33.39-25.83-31-75.68-29.83-117.87,4-150-51.2-300.69-151.15-412.55-35.19-39.4-84.7-76.62-136.18-64.77C1131.71,549,1050.2,516.15,975.1,484a77.14,77.14,0,0,0-30.61-6.17c-35.07,0-70.87,21.84-96.45,48.08ZM1253.34,1174a802.53,802.53,0,0,1-174.8-34.22q-29-9.06-57-20.29c-32.72-13.1-58.09-25.9-79.83-40.3a311.69,311.69,0,0,1-29.4-22.13,366.62,366.62,0,0,1-60-65.55,433.79,433.79,0,0,1-29-46c-38.2-69.79-56-144.2-51.5-215.16,5-77.78,38-150.41,90.56-199.27,26.22-24.37,53.23-38.76,80.26-42.8l0,.05A105.76,105.76,0,0,0,960.4,530a129.52,129.52,0,0,0,28.48,29.15,138.5,138.5,0,0,0,18.8,11.78c25.54,13.32,56.45,20.06,91.86,20.06,4.61,0,9.29-.11,13.89-.33,48.38-2.31,87.94-16.5,114.38-41.06,6-5.58,14.56-8.65,24.09-8.65a47.94,47.94,0,0,1,16.09,2.84c13.64,4.9,25.09,15.08,34.76,24.23,119.41,113.19,187.61,278.95,182.42,443.4q-.2,5.7-.44,11.42l0,1.06c-.83,19.53-1.68,39.73,2.19,59.15,5.29,26.55,19.95,47.88,39.22,57,.91.43,1.84.85,2.79,1.27,4,1.77,8,3.59,10.74,7a10.49,10.49,0,0,1,1.78,9.19,6.13,6.13,0,0,1-3.92,4.3,115.7,115.7,0,0,0-26.6,12.81,119.26,119.26,0,0,0-24.54,21.34,114.77,114.77,0,0,0-16.24,24.22l-.47.95-.48,1c-2.71,5.54-5.52,11.27-10.73,14.45a12,12,0,0,1-6.2,1.65c-4.62,0-9.53-2.5-10-7.27-2.18-24.15-24-41.78-44.61-48.55-16.1-5.29-33.35-6-48.11-6-4.94,0-10.21.09-14.06.16h-.19l-2.39,0-1.54,0-3,.05c-3.29,0-6.56,0-9.84,0-21.68,0-43.45-.91-65.19-2.72ZM1083,575.68c-32.22-2.27-56.51-8.57-76.44-19.82-15.59-8.8-28.15-21-36.35-34.74l-.06-.1v0a77.31,77.31,0,0,1-7.4-16.44,70.39,70.39,0,0,1-2.4-10.24h0l85.48,30.57c20.92,7.48,42.56,15.2,64.64,19.8a245.32,245.32,0,0,0,50,5.14,248.56,248.56,0,0,0,45.49-4.21q5-.95,10-2.1l0,0h0c-27.79,21.85-65.35,32.92-111.63,32.92-6.86,0-14-.26-21.34-.77Zm412.55,632.39a143.17,143.17,0,0,1,26.64-26.73c4-3.07,8.45-4.9,11.9-4.9a7.23,7.23,0,0,1,5.73,2.47c41.17,47.52,83.48,73.58,125.77,77.47,7.8.72,15.93.78,23.59.78h6.89c5.41,0,10.68.06,15.78.3a124.29,124.29,0,0,1,19.09,2.16c10.65,2.17,20.16,6.2,28.13,13.67,4,3.72,9,9.8,10.08,17.64,1,7.2-1.4,14.28-3.64,19.64-4.76,11.44-13.83,27-29.94,36a50.14,50.14,0,0,1-24.1,6.34,40.36,40.36,0,0,1-21.36-5.81,4.08,4.08,0,0,0-2.15-.6c-2.66,0-5.44,2.43-6,5.32-.74,3.43.57,6.87,1.83,10.2l.21.55a94.55,94.55,0,0,1,5.08,19.2,74.37,74.37,0,0,1-1.46,31.42l0,.06c0,.06,0,.11,0,.16a58.66,58.66,0,0,1-3,8.4,53.39,53.39,0,0,1-19.62,22.67l0,0,0,0a47.72,47.72,0,0,1-12.24,5.67h0l-.06,0a41.18,41.18,0,0,1-11.66,1.74,37.54,37.54,0,0,1-4.64-.28c-8.78-1.07-17.71-5.08-26.55-11.92-17.34-13.43-28.12-33.28-28.83-53.09-.39-10.88,2.15-21.75,4.61-32.27,2.51-10.73,5.11-21.82,4.57-33a64.8,64.8,0,0,0-2.37-14.49c-3.89-13.62-12-25.81-21.94-36.93-8.79-9.81-19.12-18.93-29.52-27.71l-.62-.53-35.72-30.17-4.19-3.54h0l0,0Z" transform="translate(-760.3 -477.8)"/><path class="cls-1" d="M1196.71,666.43a7.27,7.27,0,0,0-.78.86c-2.76,3.53-1.87,8.93-1.1,11.84a15,15,0,0,0,2.51,5.54,8.75,8.75,0,0,0,7,3.1h0a10.61,10.61,0,0,0,9.3-5.12c3-5.49.56-13.3-5.27-16.7a11.89,11.89,0,0,0-5.9-1.61,8.18,8.18,0,0,0-5.74,2.09Z" transform="translate(-760.3 -477.8)"/><path class="cls-1" d="M1179.1,815.78a25.18,25.18,0,0,1-3.21,10.15,27.11,27.11,0,0,1-20.51,13.73l-.42,0-.36,0-.33,0-.44,0c-3.56.29-7.6.61-9.32,3.65-1,1.72-.85,3.77-.73,5.75v.3c0,.41,0,.82.06,1.23a19.28,19.28,0,0,1-5.72,13.68,19.53,19.53,0,0,1-13.75,6.11l-.73,0h-.18a4,4,0,0,0-3.69,2.79,6.4,6.4,0,0,0,1.1,6.72,9.29,9.29,0,0,0,6.74,2.4,19.57,19.57,0,0,0,5.4-.85,33.46,33.46,0,0,0,22.57-23.89c1.29-5.39,6.92-7.64,12.36-9.8,1.5-.6,2.55-1,3.62-1.5a32,32,0,0,0,17.88-22.17c.56-2.61,1.07-7.44-1.84-10.37a5.4,5.4,0,0,0-3.85-1.48c-2.1,0-4.45,1.08-4.66,3.44Z" transform="translate(-760.3 -477.8)"/><path class="cls-1" d="M950.62,879a11.9,11.9,0,0,0-9.75,5,12.18,12.18,0,0,0,5.32,17.18,11,11,0,0,0,4.2.8,12.18,12.18,0,0,0,10-5.19A12,12,0,0,0,958.74,882a11.24,11.24,0,0,0-7.93-3Z" transform="translate(-760.3 -477.8)"/><path class="cls-2" d="M960.36,494.31h0c3.78,24.35,21.06,47.35,46.22,61.55,19.93,11.25,44.22,17.55,76.43,19.82,7.31.51,14.49.77,21.35.77,46.28,0,83.83-11.07,111.63-32.92a247.9,247.9,0,0,1-55.48,6.29,245.32,245.32,0,0,1-50-5.14c-22.08-4.6-43.72-12.33-64.64-19.8l-85.48-30.57Z" transform="translate(-760.3 -477.8)"/><path class="cls-3" d="M942.63,488.28h0c-27,4-54,18.43-80.26,42.79-52.6,48.86-85.6,121.49-90.56,199.27-4.51,71,13.3,145.37,51.5,215.17,31,56.68,72,102.89,118.4,133.64,21.74,14.4,47.11,27.2,79.83,40.3a806.58,806.58,0,0,0,297,57.23c3.28,0,6.55,0,9.84-.06l3,0,1.54,0,2.39,0h.19c3.85-.06,9.12-.15,14.06-.15,14.76,0,32,.71,48.11,6,20.64,6.77,42.43,24.4,44.61,48.55.44,4.77,5.35,7.27,10,7.27a12,12,0,0,0,6.2-1.65c5.21-3.18,8-8.91,10.73-14.45l.48-1,.47-.95a116.9,116.9,0,0,1,67.38-58.37,6.13,6.13,0,0,0,3.92-4.3,10.49,10.49,0,0,0-1.78-9.19c-2.7-3.38-6.79-5.2-10.74-7-1-.42-1.88-.84-2.79-1.27-19.27-9.17-33.93-30.49-39.22-57-3.87-19.43-3-39.63-2.19-59.16l0-1.06c.16-3.81.31-7.62.43-11.42,5.2-164.45-63-330.2-182.41-443.4-9.67-9.15-21.12-19.33-34.76-24.23a47.94,47.94,0,0,0-16.09-2.84c-9.53,0-18.09,3.07-24.09,8.65-26.45,24.56-66,38.76-114.38,41.06-4.61.22-9.28.33-13.89.33-35.41,0-66.32-6.75-91.86-20.06-34.61-18-58.92-48.91-65-82.56l0,0Zm261.69,199.49a8.75,8.75,0,0,1-7-3.1,15,15,0,0,1-2.51-5.54c-.78-2.91-1.66-8.31,1.1-11.85a8,8,0,0,1,.78-.85,8.18,8.18,0,0,1,5.74-2.09,11.89,11.89,0,0,1,5.9,1.61c5.83,3.4,8.29,11.21,5.27,16.7a10.61,10.61,0,0,1-9.3,5.12Zm-79.94,182.74a19.53,19.53,0,0,0,13.75-6.11,19.23,19.23,0,0,0,5.71-13.68c0-.41,0-.82,0-1.24v-.29c-.12-2-.24-4,.73-5.75,1.72-3,5.76-3.36,9.32-3.65l.44,0,.33,0,.36,0,.42,0a27.12,27.12,0,0,0,20.51-13.72,25.27,25.27,0,0,0,3.21-10.16c.21-2.36,2.56-3.44,4.66-3.44a5.4,5.4,0,0,1,3.85,1.48c2.91,2.93,2.41,7.76,1.85,10.37a32,32,0,0,1-17.89,22.17c-1.07.47-2.12.9-3.61,1.49-5.45,2.17-11.08,4.42-12.37,9.81A33.44,33.44,0,0,1,1133,881.55a19.63,19.63,0,0,1-5.4.85,9.27,9.27,0,0,1-6.74-2.4,6.4,6.4,0,0,1-1.1-6.72,4,4,0,0,1,3.69-2.79h.18l.73,0ZM950.39,902a10.84,10.84,0,0,1-4.2-.81A12.2,12.2,0,0,1,940.87,884a11.86,11.86,0,0,1,9.75-5h.19a11.24,11.24,0,0,1,7.93,3,12,12,0,0,1,1.64,14.76,12.16,12.16,0,0,1-10,5.2Z" transform="translate(-760.3 -477.8)"/><path class="cls-3" d="M862.94,927.16a4,4,0,0,0-2.39,1.84,3.83,3.83,0,0,0-.4,3.08l23.42,58.56.29.72a4.35,4.35,0,0,0,1.84,2.39,4,4,0,0,0,5.47-1.43,3.88,3.88,0,0,0,.41-3.08L868.12,930.6l-.26-.65a4.33,4.33,0,0,0-1.83-2.39,4.06,4.06,0,0,0-2-.54,3.81,3.81,0,0,0-1.06.14Z" transform="translate(-760.3 -477.8)"/><path class="cls-4" d="M1534.1,1176.44c-3.45,0-7.9,1.83-11.89,4.9a142.37,142.37,0,0,0-26.65,26.74l39.93,33.72.62.53c26.39,22.27,52.29,46.73,53.83,79.13.54,11.13-2.06,22.22-4.57,33-2.46,10.53-5,21.39-4.61,32.27.71,19.81,11.49,39.66,28.83,53.09,8.84,6.84,17.77,10.85,26.55,11.92a39.59,39.59,0,0,0,4.64.28c17.69,0,35.66-12.4,43.69-30.16,7.58-16.74,7.39-38.33-.51-59.24l-.21-.55c-1.26-3.33-2.57-6.77-1.83-10.2.61-2.89,3.39-5.33,6-5.33a4,4,0,0,1,2.14.61,40.42,40.42,0,0,0,21.37,5.81,50.14,50.14,0,0,0,24.1-6.34c16.11-9,25.18-24.56,29.94-36,2.24-5.36,4.68-12.44,3.64-19.64-1.14-7.84-6.11-13.92-10.08-17.64-15.93-14.91-38-16.13-63-16.13h-6.89c-7.66,0-15.79-.06-23.59-.78-42.29-3.89-84.6-30-125.77-77.46a7.24,7.24,0,0,0-5.73-2.48Z" transform="translate(-760.3 -477.8)"/></svg>