<svg id="Draw_Layer" data-name="Draw Layer" xmlns="http://www.w3.org/2000/svg" viewBox="0 0 1237.03 2104.27"><defs><style>.cls-1{fill:#2c2c2c;}.cls-2{fill:#bebebe;}.cls-3{fill:#6edaf4;}.cls-4{fill:#725af7;}</style></defs><title>Fox</title><path class="cls-1" d="M2198.66-436.7a2.64,2.64,0,0,0,.06.63,1.26,1.26,0,0,0,.44.6,4.62,4.62,0,0,0,1.48.76,15,15,0,0,0,3.45.66c1.35.13,2.7.13,4,.15,2,0,3.94,0,5.9,0a.72.72,0,0,0,.72-.72.72.72,0,0,0-.72-.71l-5.1.05c-.67,0-1.35,0-2,0a31.7,31.7,0,0,1-3.78-.23h0a11.53,11.53,0,0,1-2.66-.67,5.26,5.26,0,0,1-.47-.27l0,0c0-.05,0-.1,0-.15a.67.67,0,0,0-.66-.67.67.67,0,0,0-.67.67Zm1.4.2.07.06-.07-.06Z" transform="translate(-977.73 437.37)"/><path class="cls-1" d="M1630.79,233.41c-.45.6-.78,1.58-1.34,1.74-8.11,2.29-16.32,4.25-24.34,6.77-4.38,1.37-8.48,3.61-12.67,5.54-3.93,1.81-7.88,3.61-11.7,5.63-5.64,3-11.21,6.1-16.75,9.25-4.31,2.45-8.59,4.93-12.75,7.61a64.29,64.29,0,0,0-5.58,4.63c-5.83,4.75-11.77,9.35-17.48,14.24-6.26,5.37-12.6,10.7-18.35,16.6a223,223,0,0,0-15.89,18.65c-3.14,4-5.53,8.61-8.41,12.85a3.18,3.18,0,0,1-2.52.83c-3.86-.37-7.71-.92-11.56-1.41-7.41-.94-15.29-.63-22.08-3.19-5.57-2.11-11.07-1.8-16.31-2.11-23.25-1.36-46.56-1.84-69.85-2-7.71-.06-15.44,1.72-23.17,2.64a6.26,6.26,0,0,1-1,0,5.29,5.29,0,0,0-.89,0c-9.6.92-19.21,1.73-28.78,2.85-5.41.64-11,1.07-16.09,2.92-9.39,3.44-19,2.17-28.25,1.3-9.4-.89-17.56-5.93-21.83-15.79-2.13-4.91-5.81-9.3-9.42-13.38-8-9.1-15.93-18.44-24.9-26.56-7.16-6.48-15.66-11.55-23.86-16.77a185,185,0,0,0-22-12.38c-6.79-3.11-14.14-5-21.29-7.33-4.82-1.56-9.62-3.37-14.57-4.27-5.19-.95-10.55-1-15.84-1.27-.56,0-1.52,1.07-1.7,1.8-1.35,5.38-2.66,10.78-3.76,16.21s-1.45,10.9-2.93,16.12c-4.25,14.9-2.22,30.1-2.66,45.18-.12,4.07-.09,8.35,1,12.2,2.76,9.69,2.27,20.07,7,29.4,2.24,4.45,2.59,9.81,4.21,14.62a122.11,122.11,0,0,0,5.94,14.84c4,8.15,3.25,16.17.29,24.32-4.14,11.37-11.78,20.62-19,30s-15.32,17.82-23.39,26.35-16.48,17.06-25.16,25.11c-7.3,6.77-15.07,13.06-22.91,19.21-6.15,4.82-12.57,9.36-19.17,13.55-7.85,5-16,9.5-24,14.18-2.26,1.31-4.58,2.51-7.11,4a14.41,14.41,0,0,0,0,4.45c1.19.32,2.36.4,3.05,1q9.79,8.67,19.43,17.5,18.15,16.66,36.23,33.4,17.43,16.07,34.89,32.09c12.08,11.13,24.19,22.22,36.2,33.43,7.68,7.17,15.12,14.61,22.81,21.78,4.21,3.92,8.83,7.41,13.07,11.3,6.47,6,12.81,12.07,19.09,18.23A2.92,2.92,0,0,1,1163,724c-3.4,4.55-7,8.93-10.5,13.45-6.88,9-13.67,18-20.53,27-.82,1.09-1.94,2-2.65,3.12-3.68,6-7.33,11.92-10.89,17.94-3.92,6.63-8,13.2-11.53,20s-6.75,14-10,21.14c-2.43,5.38-5.15,10.71-6.82,16.33-2.37,8-3.94,16.17-5.74,24.3-.54,2.47,0,5.4-1.14,7.47-4,7.33-1.24,15.2-2,22.73-.8,8.22,1.42,16.71,2.14,25.1.49,5.78.54,11.6,1.05,17.38.14,1.66,2.12,4.23,1.64,4.68-2.93,2.8-1.64,6.17-1.64,9.21a102.75,102.75,0,0,1-3.7,26.57c-.5,1.87,0,4-.45,5.91-1.28,4.9-3.06,9.66-4.3,14.57-1.29,5.12-2,10.36-3.27,15.5-1.62,6.79-3.68,13.49-5.13,20.31-1.26,5.94-2.16,12-2.82,18a147.24,147.24,0,0,0-.94,16.92c.16,18.58.44,37.16,1,55.74.16,5.67,1.24,11.31,1.92,17a53.28,53.28,0,0,0,.84,6.21c1.47,6.24,3.09,12.44,4.64,18.65,1.38,5.52,2.48,11.11,4.17,16.53,2.1,6.74,4.67,13.34,7.07,20,1.67,4.61,3.42,9.18,5.09,13.79,2.07,5.69,4,11.44,6.17,17.1,1.54,4,3.47,7.91,5.07,11.93,3,7.63,6,15.29,8.94,23,1.49,3.9,2.83,7.87,4.32,11.78,2.26,5.92,4.7,11.78,6.86,17.74,1.52,4.21,2.61,8.57,4.06,12.82,2.33,6.82,5.17,13.5,7.11,20.43,2.28,8.15,4.14,16.46,5.62,24.8,1.35,7.64,2.18,15.4,2.84,23.15.6,7.17.94,14.39.93,21.59,0,8.45-.57,16.9-.87,25.34-.54,14.87-.59,29.74-1.38,44.63-1.13,21.31-2.22,42.88,1.28,64.24.94,5.7.24,11.65,1.16,17.35,1,6,2.86,11.87,4.59,17.72,2.25,7.63,4,15.53,7.32,22.68,4.71,10.18,9,20.77,17.33,28.86,5.9,5.72,11.47,11.77,17.48,17.36,7.12,6.62,15.91,9.31,25.42,10.93,13.16,2.25,24.34-1.27,34.08-9.75a75.42,75.42,0,0,0,20.47-28.44c3.73-9,8.15-17.53,10.09-27.19,1.37-6.82,3.6-13.47,5.29-20.23,1.41-5.68,2.47-11.44,3.93-17.1,1.33-5.19,3.2-10.24,4.47-15.44,1.46-6,2.6-12,3.71-18.11.32-1.81-.27-3.8.14-5.58,1.4-6.1,3.35-12.08,4.54-18.2,1.31-6.71,2-13.54,3-20.31,1.2-8.23,2.34-16.47,3.7-24.67a85.64,85.64,0,0,1,2.24-8.42c1.95.92,3.88,1.87,5.85,2.74a1.4,1.4,0,0,0,.71,0,1.72,1.72,0,0,1,.68,0c4.27,1.33,8.53,2.74,12.81,4.06,7.74,2.41,15.46,4.87,23.25,7.11a91.38,91.38,0,0,0,12.4,2.79c8.16,1.14,16.36,2.53,24.56,2.73,16,.4,32.12.89,48-2.58.34-.07,1.3,1,1.35,1.56.66,7.7-.42,15.34,1.61,23.16,1.81,7,.81,14.64,1.29,22,.44,6.62,1.19,13.22,1.84,19.81a57.66,57.66,0,0,0,1,7.56c1.42,5.94,3.23,11.78,4.59,17.73s2.1,11.89,3.56,17.73c1.32,5.32,3.37,10.46,4.87,15.74s2.23,10.6,4.08,15.63a231.82,231.82,0,0,0,10.11,23.86,152.85,152.85,0,0,0,12.76,21.35,51,51,0,0,0,16.47,15.09c5.79,3.22,11,7.34,18,7.45.12,0,.23,1.16.59,1.79,9.12,0,18,0,26.9-.24a13.24,13.24,0,0,0-.55-1.55c6.72.17,12.55-2.78,18.17-5.8,5.91-3.17,11.92-6.52,17-10.88a90.68,90.68,0,0,0,18.62-22.54,117.88,117.88,0,0,0,10.17-22c1.57-4.53,2-9.45,3.1-14.16,1.47-6.23,3.69-12.36,4.5-18.66a112.58,112.58,0,0,0,.92-23c-1-12.7.18-25.46-2.32-38.2-1.68-8.58-.82-17.6-2.87-26.42-1.68-7.19-1.16-14.79-2.75-22.23-1.51-7.06-1.09-14.51-3-21.73a97.27,97.27,0,0,1-2.84-20.32c-.42-10.6-2.18-21.13-2.52-31.58-.52-16-2.2-32.25,1.23-48.37,1.38-6.47,1.14-13.23,2.7-19.91,1.73-7.41,2.76-14.91,5.9-22,1.05-2.36,1-5.39,2.43-7.36,2.44-3.29,5,.38,7.56.68,8.34,1,16.7,1,25.08,2.57,8.65,1.68,17.77,1.2,26.68,1.17,11.25,0,22.51-.4,33.75-.92,6.62-.31,13.21-1.19,19.81-1.82a92.4,92.4,0,0,0,9.43-1c6.87-1.39,13.67-3.12,20.52-4.61,5.59-1.22,11.25-2.13,16.8-3.5,5.92-1.45,11.75-3.24,17.59-4.95,7.37-2.15,14.87-4,22-6.67,10.9-4.14,21.69-8.64,32.27-13.54,9.82-4.55,19.55-9.41,28.88-14.91,9.6-5.65,18.71-12.14,27.92-18.43,5.87-4,11.62-8.22,17.24-12.57s10.87-8.62,16-13.23c6.2-5.56,12.38-11.18,18.1-17.22,7.22-7.62,14-15.66,20.89-23.59,5.35-6.17,10.61-12.43,15.87-18.68a49.4,49.4,0,0,0,3.84-5c4.29-6.63,8.41-13.36,12.73-20,2.82-4.32,6.19-8.31,8.75-12.77,3.94-6.89,7.42-14.06,11.06-21.13,2.24-4.36,4.64-8.67,6.57-13.18,3-7.14,5.9-14.39,8.6-21.69s5.18-14.4,7.47-21.69c1.53-4.85,2.45-9.89,3.84-14.78,2.4-8.51,5.16-16.91,7.36-25.47,1.36-5.27,2-10.74,2.88-16.12.37-2.2.5-4.45,1-6.62,1.49-6.86,3.3-13.65,4.59-20.53,1.21-6.42,2-12.92,2.85-19.41,1-7.56.65-15.16,2.55-22.76,1.64-6.55.89-13.7,1.22-20.59.06-1.2.23-2.39.35-3.59a23.72,23.72,0,0,0,2.45,2.46c0-36.88,0-73.53-.23-110.17a11.65,11.65,0,0,0-1.71,1.87c-.29-.59-.82-1.17-.83-1.76a50.27,50.27,0,0,0-2.66-17.15c-2.09-5.72-2.71-12-3.9-18-.27-1.33.05-2.82-.38-4.06-2.3-6.53-4.73-13-7.14-19.5-2.16-5.81-4-11.79-6.64-17.36-4-8.34-8.39-16.53-13.07-24.51-4.29-7.33-9-14.45-13.86-21.39a123,123,0,0,0-11.91-14.7c-10.69-11.09-21.51-22.09-32.72-32.65-4.73-4.45-11.43-5-17.49-3.7-8.1,1.75-14.11,7.75-20.38,12.72-8.35,6.6-16.18,13.89-24.05,21.08-13,11.92-26.29,23.65-38.8,36.12-17.32,17.26-34.14,35-51,52.77-6.7,7-12.9,14.57-19.22,22q-6.45,7.56-12.57,15.38c-6.15,7.87-12.3,15.75-18.16,23.83-3.41,4.73-6.25,9.87-9.31,14.84-3.44,5.59-6.92,11.15-10.24,16.81s-6.38,11.07-9.35,16.71-5.84,11.3-8.4,17.11c-3,6.85-6,13.76-8.39,20.84-2.56,7.54-4.42,15.32-6.64,23-2.46,8.49-5.22,16.91-7.4,25.46a124,124,0,0,0-2.83,16.6c-1,8.5-1.07,17-2.56,25.55-1.63,9.31-.82,19-1.27,28.57-.49,10.35-1.22,20.69-1.84,31,0,.16,0,.32,0,.47-.94,8.66-1.75,17.33-2.84,26-1,7.65-2,15.32-3.48,22.89-1.3,6.71-3.1,13.34-5,19.92-2.14,7.67-3.8,15.61-7.07,22.79-4.54,10-9.62,20-15.9,28.92a185.79,185.79,0,0,1-22.78,26.54c-7.34,7.12-16.11,12.79-24.33,19a29.46,29.46,0,0,1-5,2.47c.41-1.19,1.16-2.36,1.19-3.55a195.39,195.39,0,0,1,2.6-28.82c1.51-8.71,1.17-17.79,1.13-26.71-.07-14.21-.36-28.44-1-42.64-.33-7.86,1.15-15.7-1.53-23.65-1.73-5.16-.79-11.19-1.23-16.83-.51-6.61-1.2-13.2-1.85-19.81a68,68,0,0,0-1-7.55c-1.46-6.86-3.1-13.69-4.64-20.53-1-4.28-2.37-8.54-2.71-12.88-.68-8.59-3.29-16.64-5.65-24.82s-4.15-16.68-6.32-25c-1.87-7.16-5.43-14.24-5.59-21.42-.31-14.1-2-28.38,2.34-42.38,1.83-5.88,2.27-12.25,2.88-18.45a190.41,190.41,0,0,0,.94-19.25c0-7.35-.38-14.73-.92-22.06a129.18,129.18,0,0,0-2.15-16.42c-1.46-7.12-3.41-14.15-5.31-21.18-1.25-4.6-2.33-9.34-4.31-13.64-3.19-7-7-13.65-10.65-20.39-3-5.61-5.86-11.41-9.53-16.61-4.16-5.89-9.12-11.23-13.79-16.76-1.73-2-2.57-3.66.06-5.91,8.34-7.13,16.52-14.45,24.67-21.79,5-4.54,9.82-9.34,14.87-13.85,4.05-3.62,8.26-7.07,12.51-10.44,8.2-6.51,16.47-12.93,24.72-19.36,4-3.11,8-6.17,12.07-9.26l24.47-18.86c5.32-4.09,10.53-8.34,16-12.19,7.33-5.15,14.82-10.06,22.36-14.9,7.12-4.59,14.19-9.3,21.63-13.31s7.85-6.42.89-11.55c-6.59-4.87-13.07-9.89-19.57-14.87-5.22-4-10.41-8-15.61-12-7.09-5.47-14.21-10.89-21.26-16.41-6.26-4.91-12.3-10.09-18.67-14.84-8.54-6.35-17.64-12-25.88-18.68-8.77-7.13-17-15-22.53-25.13-1.38-2.54-3.23-5-3.91-7.72C1604,429.42,1605,420,1613.36,412a67.73,67.73,0,0,0,11.56-15.27,274.62,274.62,0,0,0,12.3-25.3,142.47,142.47,0,0,0,7.47-20.27,216.58,216.58,0,0,0,5.59-27.6c1-8,1-16.25,1-24.39,0-5.63-.57-11.28-.87-16.92a13.91,13.91,0,0,0,0-2.33c-1.52-6.54-3-13.1-4.7-19.58-1.62-6-3.57-11.92-5.41-17.87-1-3-2-6-3.21-9.06Zm-61.53,57.39a78.22,78.22,0,0,1,.32-18c.85-5.88,5.62-8.29,10.24-10.62l.12-.07c.87-.43,1.73-.87,2.55-1.32a146.19,146.19,0,0,1,19.88-9.54c1.94-.72,3.88-1.63,5.78-2.51,4.35-2,8.85-4.13,13.81-4.13a17.79,17.79,0,0,1,4.16.5c5.42,3.26,8,7.43,8.64,13.93a95.45,95.45,0,0,0,2.75,13.88c.64,2.54,1.21,4.82,1.69,7.11a57,57,0,0,1,.79,5.91c.06.55.11,1.1.17,1.65q.39,3.74.77,7.47l.21,2c.64,6.21,1.22,11.8,1.86,17.42.18,1.58.5,3.21.78,4.65a43.21,43.21,0,0,1,.93,6.74,16.84,16.84,0,0,1-1.15,5.56c-.23.7-.45,1.39-.64,2.08,0,.13-.72.19-1,.19s-.25,0-.25-.05c-.15-.48-.33-1-.53-1.49a11.6,11.6,0,0,1-1-3.95v-.37c.07-6.53.15-13.27-5.3-17.45l-.89-.67c-6.67-5.12-13.57-10.41-22.43-12.95a67.9,67.9,0,0,0-18.82-2.42,176.29,176.29,0,0,0-18.3,1.23h-.13c-1.69,0-4.92-3-5.08-4.76Zm-459.4,34.69a3.78,3.78,0,0,1-.26-1.13c0-3.34,0-6.67,0-10v-2.51c0-11.46-.11-24.45.15-37,.11-5.1,1.46-10.23,2.76-15.19,1.19-4.55,7-7.28,12-7.28a11.65,11.65,0,0,1,4.67.92c3.17,1.4,6.56,2.62,9.54,3.7l.5.18q2.05.73,4.08,1.5,3.06,1.15,6.1,2.34c4.19,1.61,8.53,3.28,12.89,4.84,3.47,1.25,7,2.37,10.47,3.46l.46.15,4.31,1.38c.67.56,1.39,1.09,2.08,1.59l.13.09c3,2.17,5.8,4.23,4.73,8.61a14.8,14.8,0,0,1-2.78,5.37,13.47,13.47,0,0,0-2,5.38c-.59,2.65-1.21,5.4-4,7.17l-.33.23a6,6,0,0,1-3.22,1.32,5.49,5.49,0,0,1-2-.46,48.08,48.08,0,0,0-18.36-3.19c-1.17,0-2.42,0-3.73.09-11,.49-20,4.8-27.67,13.15l-.57.61c-3.82,4.18-7.44,8.12-8.35,13.93-.06.35-.44.64-.8.93l-.48.37,0,0h0c0-.18-.12-.36-.19-.55Zm383.36,18.79c1.32-1.77,2.52-3.47,3.82-5.35,2.09-3,4.06-5.8,6.31-8.41,1.42-1.64,2.85-3.3,4.27-5,6.72-7.85,13.68-16,21.3-23.2a165.57,165.57,0,0,1,17.6-13.87c2.36-1.69,5-3.6,7.52-5.48a27.63,27.63,0,0,1,3-1.87c.47-.26.93-.53,1.39-.8h0c-.07.58-.09,1.18-.11,1.77v.18a11.58,11.58,0,0,1-.59,4.06C1555,293,1555,300,1555,306.73v.48c0,6.28,1,8.61,3.68,8.61,1.41,0,3.3-.63,6.16-2a99.11,99.11,0,0,1,15.86-5.89,62.49,62.49,0,0,1,17.77-2.47c1.29,0,2.67,0,4.09.11,11.49.61,20,6,26.62,17,7,11.52,6,23.06,4.2,34.85-.65,4.24-2.81,8.33-4.92,12.34-.42.79-.84,1.58-1.24,2.37a100.42,100.42,0,0,1-15,21.92,89.08,89.08,0,0,0-8.09,11.06c-1.35,2.06-2.74,4.19-4.21,6.22-5.61,7.77-6,16.52-5.58,24.82.29,6-2.86,10.91-8.64,13.46-3.1,1.36-6.22,2.84-9.24,4.27l-.23.11a182.55,182.55,0,0,1-19.82,8.44c-11.93,4-22.47,10.67-32.68,17.13-5.21,3.3-10.41,6.82-15.44,10.21l-.31.21c-3.63,2.47-8.16,5.53-12.51,8.36-14,9.1-25.94,20.31-35.75,30.08-2.08,2.06-4.38,4-6.66,5.82a79.34,79.34,0,0,0-7.32,6.54c-9.77,10.26-18.32,19.72-26.14,28.93-6.82,8-14,16.62-20.11,25.82-6.8,10.24-12.85,21.16-18.7,31.7l-1.19,2.15a39.45,39.45,0,0,0-3.28,9.45l-.14.53c-.09.37-.18.74-.28,1.09-1.27,4.81-2.45,9.74-3.59,14.5l0,.15q-.78,3.3-1.59,6.59a5.25,5.25,0,0,1-.27.79l0,.1a1.47,1.47,0,0,1-.14.28s0,0,0,0h0v0l-.14-.35-.1-.24-.24-.58q-1.5-3.48-3-7l-.21-.48c-2.24-5.24-4.56-10.67-6.94-16-3.23-7.12-6.64-14.06-9.55-19.9a73.76,73.76,0,0,0-5-8.68c-2.29-3.34-4.68-6.7-7-10l-.16-.23c-2.77-3.89-5.62-7.91-8.32-11.94a215.35,215.35,0,0,0-24.8-30.44c-4.66-4.77-9.37-9.85-13.57-14.38-5.49-5.91-11.17-12-17-17.8-8.54-8.48-17.83-16.47-26.59-23.84-8.18-6.91-16.71-13.43-24.95-19.75l-1.48-1.13c-7.23-5.55-14.71-10.94-21.14-15.56-1.74-1.24-3.46-2.5-5.19-3.75l-.86-.63c-6.25-4.55-12.7-9.26-19.36-13.38a282.92,282.92,0,0,0-26-13.89,25.5,25.5,0,0,0-6.13-1.74,28.24,28.24,0,0,1-5.62-1.51,30.32,30.32,0,0,1-7.39-5.18l-.87-.75a.31.31,0,0,1-.07-.2,6.6,6.6,0,0,1,1.38-3.19c5.61-6.27,6.81-16.66,2.8-24.16-5.4-10.09-10.37-20.12-14.53-28.61a6.13,6.13,0,0,1-.34-2.83,8.83,8.83,0,0,0-.11-2.13c-.28-1.32-.61-2.65-.94-4-1.3-5.24-2.65-10.66-1.36-16,1.48-6.17,3.21-12.71,6.7-18.75,4-6.93,10.14-10.27,16.65-13.81l.45-.24c2.26-1.23,5.78-1.91,9.92-1.91,7.37,0,14.9,2.07,18.31,5a46.85,46.85,0,0,0,9.08,6.25,4.08,4.08,0,0,0,1.87.42c4.14,0,9.39-5.17,9.84-9.72s1-10.11,1.89-15.6a7.49,7.49,0,0,1,7.51-6.06,6.78,6.78,0,0,1,4.8,1.89c1.64,1.56,3.29,3.1,4.94,4.65l.08.08c6.19,5.8,12.6,11.8,17.93,18.48,5.14,6.45,9.54,13.66,13.81,20.65l.07.11c1.66,2.72,3.38,5.54,5.11,8.27,2.62,4.09,6.5,8.8,13.32,8.8l.77,0c1.46-.07,2.92-.11,4.46-.16a82.16,82.16,0,0,0,11.51-.9,100.27,100.27,0,0,0,10.64-2.66c2.36-.69,4.48-1.31,6.63-1.83a15.72,15.72,0,0,1,3.37-.31,19.83,19.83,0,0,0,2.55-.15q3-.42,6-.81c5.4-.7,11-1.43,16.43-2.62,6.42-1.4,13-1.62,19.47-1.84a122,122,0,0,0,16.29-1.28A139.59,139.59,0,0,1,1379,337c7.26,0,14.5.43,20,.81,3.25.23,6.57.41,9.8.6l.51,0h.1c7.28.41,14.8.83,22.15,1.7,6.32.75,13.06,1.58,19.88,2.83,3.62.67,7.28,1.49,10.87,2.29,5,1.12,10.24,2.29,15.41,3a37.19,37.19,0,0,0,5.47.5c4.45,0,7.63-1.42,10-4.46ZM1314.46,793.82h0l-.12,0c-2.14-.62-4.35-1.26-6.52-1.74-1.94-.43-3.87-.8-6-1.21a111.3,111.3,0,0,1-11.59-2.65c-4.11-1.25-8.15-2.91-12.06-4.53-1.86-.76-3.78-1.56-5.68-2.3s-3.72-1.41-5.58-2.1c-3.47-1.29-7.07-2.63-10.56-4.11a98.92,98.92,0,0,1-11.65-5.74c-8.16-4.76-15.51-9.1-22.76-13.93-3.79-2.52-7.52-5.28-11.19-8-3.33-2.46-7.11-5.26-10.85-7.76a205.69,205.69,0,0,1-28.14-22.49c-3.85-3.69-8-7.3-11.79-10.53-4.48-3.87-9.11-7.87-13.39-12.09-14.33-14.17-28.74-28.6-42.67-42.55l-.74-.74c-13.86-13.88-28.2-28.23-42.39-42.25-8.87-8.77-18.44-17-26.62-23.82-6.44-5.39-13.32-10.46-20-15.39l-3.41-2.51c-5-3.7-10.23-7.22-15.27-10.63l-.7-.47c-.4-.27-.8-.5-1.18-.71h0l-.09,0c-.84-.47-1.51-.84-1.49-1.32s.9-1.13,2.9-2c6-2.65,11.48-6.62,16.8-10.47l1.73-1.24c7.34-5.28,15.13-11.22,23.81-18.18,5.94-4.75,12.16-10,19-16.19l3.12-2.79c7.09-6.33,14.42-12.88,21.19-19.76,6.32-6.42,12.11-13.29,18.87-21.64a75.11,75.11,0,0,0,4.86-7,72.19,72.19,0,0,1,4.89-7.1c3.91-4.79,8.53-7.31,14.12-7.68.86-.05,1.76-.08,2.66-.08,10.73,0,20,4.35,27.55,8.6,3.25,1.82,6.57,3.62,9.78,5.37,6.94,3.77,14.1,7.66,20.94,11.9s13.26,9.05,19.52,13.75l.64.48,3,2.23c9.66,7.19,17.43,13.19,24.46,18.87,6.2,5,12.75,10.63,20,17.18l3.41,3.08c7.52,6.77,15.31,13.77,22.54,21.13,6.27,6.36,12.19,13.27,18,20,1.31,1.52,2.61,3,3.92,4.55a168.09,168.09,0,0,1,10.89,13.75c4.55,6.54,9.05,13.3,13.39,19.83l.17.25q3.66,5.5,7.35,11c1.37,2,2.79,4,4.4,6.32,2.64,3.74,5.36,7.6,7.75,11.58,3.08,5.12,5.91,10.51,8.66,15.71l.09.19c1.1,2.08,2.19,4.16,3.3,6.23,1.39,2.58,2.75,5.33,3.75,7.33l3,6c1.68,3.42,3.59,7.3,5.48,11.05a14.92,14.92,0,0,0,1.6,2.33c.23.31.46.61.66.91l.33-.94c.21-.62.42-1.25.66-1.86q1-2.5,2-5l.13-.35c1.57-4,3.19-8.24,4.93-12.29,1.82-4.23,4-8.7,6.57-13.65,3-5.82,6.4-11.93,10.25-18.68l.23-.43.18-.31c3.69-6.48,7.5-13.17,11.52-19.58,4.17-6.67,8.8-13.67,14.56-22a50.21,50.21,0,0,1,4.65-5.53l.26-.28c.45-.48.89-1,1.33-1.45,2.51-2.78,5-5.59,7.5-8.39,6.14-6.89,12.48-14,19-20.82A353.78,353.78,0,0,1,1480.36,523c9.17-7.69,19.15-14.72,28.82-21.53l1.91-1.34c7.88-5.55,16.42-11.4,25.45-16.5,5.29-3,10.93-5.52,16.39-8l.32-.15c2.59-1.16,5.28-2.37,7.89-3.6,2-.94,4-2,5.8-2.94a88.26,88.26,0,0,1,11.38-5.26c1.94-.69,3.89-1.53,5.77-2.34l.16-.06c4.75-2.05,9.66-4.17,15-4.17.36,0,.73,0,1.09,0a14.41,14.41,0,0,1,7.92,3.26c2.78,2.35,5.37,5,7.88,7.6l.07.08c1.39,1.44,2.88,3,4.39,4.44l3.33,3.22.09.09c5.53,5.36,11.26,10.91,17.06,16.17,5.21,4.72,10.88,9.48,17.36,14.56s14.43,11.25,22.48,16.86c8.67,6,17.72,12,25.79,17.38q4.13,2.73,8.24,5.48a12.47,12.47,0,0,0,1.75.89,9.67,9.67,0,0,1,2.07,1.14c2,1.6,3,3.56,2.76,5.53s-1.86,4-4.43,5.26a11.26,11.26,0,0,0-2.85,2.28,16.27,16.27,0,0,1-2,1.78l-.83.57-1.06.73C1701.42,570.63,1692.2,577,1683,583c-3.53,2.34-7.16,4.6-10.66,6.78l-.32.2c-4,2.46-8,5-12,7.65-9.71,6.56-19.29,13.4-28.26,19.83-4.17,3-8.45,6.33-12.73,9.93s-8.72,7.44-12.93,11.1c-2.59,2.25-5.17,4.49-7.77,6.72-2.17,1.87-4.38,3.71-6.59,5.56-4.13,3.44-8.39,7-12.38,10.7-8.73,8.1-17.72,16.69-25.66,24.27l-12,11.41-3.71,3.53-.1.1c-3.9,3.72-7.94,7.58-12,11.23-7.49,6.66-13.35,11.66-19,16.2-9.22,7.37-16.79,13.15-23.82,18.18-8,5.74-16.62,11.8-25.64,17.15-9.6,5.69-19.67,11-29.92,15.85a114.28,114.28,0,0,1-15.07,5.43c-1.65.51-3.3,1-5,1.55-3.5,1.14-7.11,2.18-10.6,3.19l-.39.11-4.81,1.41c-3.09.67-6.14,1.15-9.09,1.61l-.1,0a105.48,105.48,0,0,0-11.4,2.22,69,69,0,0,1-18.54,2.15c-3.77,0-7.6-.18-11.3-.34-3.32-.16-7.45-.34-11.35-.34H1328c-4.51,0-9.11-1.33-13.56-2.62Zm455.6,21.49c-.54-.72.36-2.92,2.67-6.57,6.69-10.56,12.26-19.11,17.51-26.89,3.68-5.47,8.59-12.63,13.9-19.5,3.86-5,7.92-10,11.83-14.84l.23-.29.07-.07c3.51-4.34,7.14-8.82,10.63-13.29,11.85-15.18,25.78-28.82,39.28-42l.18-.18c6.11-6,12.43-12.17,18.47-18.43,4.4-4.54,9.17-8.86,13.8-13.05l1.67-1.52c9.43-8.55,18.14-16.34,26.62-23.81,5.57-4.9,11.51-9.89,16.74-14.3l2.27-1.91,3.88-3.3.13-.11c4.11-3.51,8.35-7.13,12.74-10.41a9.24,9.24,0,0,1,5.58-1.95c3.07,0,6.42,1.59,10,4.73l5.1,4.5c9,7.88,18.24,16,26.71,24.7,9.25,9.5,15.94,18.79,20.46,28.4,2.39,5.08,5.27,10,8.1,14.88,2.45,4.2,5,8.54,7.17,13a98.1,98.1,0,0,1,4.93,12.92c.62,1.91,1.34,4.07,2.09,6.14.5,1.38,1,2.74,1.55,4.17.94,2.48,1.91,5,2.74,7.62a7.38,7.38,0,0,1,.25,2.36,9,9,0,0,0,.17,2.15c.87,3.35,1.78,6.69,2.72,10.1l.13.5c.9,3.28,1.83,6.67,2.69,10a23.64,23.64,0,0,1,.52,3.72v.19c0,.63.11,1.27.19,1.89l1.38,10.2.17,1.22q.75,5.58,1.51,11.17c.17,1.29.35,2.58.54,3.88.47,3.38,1,6.86,1.3,10.32.36,3.67.56,7.38.75,11v.11c.06,1.17.13,2.33.2,3.5,0,.76,0,1.52,0,2.26,0,.33,0,.67,0,1,0,5.08,0,10.15,0,15.24,0,12.14,0,24.69-.06,37.15l0,3c0,7.37-.08,15-1.16,22.34-.44,3-2.76,5.74-5,8.43-.53.63-1,1.24-1.53,1.86a.91.91,0,0,1-.74.31c-1.67,0-4.86-2.75-5.58-4.82l-1.29-3.65c-2.48-7.09-5.06-14.41-7.8-21.58a10.32,10.32,0,0,0-9.06-6.24,6.11,6.11,0,0,0-3.39,1,16,16,0,0,0-4,4.44,26.77,26.77,0,0,1-2.56,3.31c-1.8,1.84-3.59,3.76-5.33,5.62l-.07.07c-5.07,5.41-10.31,11-16.21,15.52-5.31,4.08-12.59,6.56-21.66,7.37-.33,0-.63,0-.89,0-.85,0-1.36-.16-1.58-.52s-.14-1.27.51-2.62c2.78-5.81,5.35-11.86,7.84-17.7l.1-.24.78-1.83c.68-1.6,1.38-3.21,2.08-4.82l0-.09c2.19-5,4.45-10.22,6.21-15.48a176.07,176.07,0,0,0,4.42-17.1l.24-1.07c.16-.72.32-1.44.49-2.15,2.89-12.75,3.58-23,2.17-32.16-1.61-10.5-4.15-22.73-10.77-33.83-2.08-3.46-4.56-5.21-7.39-5.21-2.09,0-4.31,1-6.58,2.91-5.3,4.5-10.66,8.54-18,8.54l-1,0h-.44a23.47,23.47,0,0,0-5.42.89,22.61,22.61,0,0,1-5.08.84,6.78,6.78,0,0,1-2.2-.33,36.15,36.15,0,0,0-12-1.72c-2,0-4.13.1-6.2.2-1.5.06-3,.13-4.48.16-9.61.21-19.31,1.24-28.69,2.24l-4.3.45a119.85,119.85,0,0,0-16.59,2.82c-5.07,1.26-10.11,2.72-15,4.13-3.52,1-7.51,2.18-11.42,3.22a28.2,28.2,0,0,1-4.69.68c-1.19.09-2.26.19-3.32.37a5.57,5.57,0,0,0-1.87.86l-.13.08c-.23.14-.46.28-.7.4-3,1-5.81,1.74-8.66,2.51-2.41.65-4.68,1.26-7,2-4.24,1.34-8.57,3-12.4,4.5l-2.21.85c-4.36,1.68-8.77,3.44-13,5.14l-.19.08-4.06,1.62-6.56,2.62-9.09,3.62a.87.87,0,0,1-.31.05h-.43l-.18,0a5,5,0,0,0-2.16,1.46c-.77.7-1.48,1.37-2.29,1.37a2.35,2.35,0,0,1-1.76-1.12Zm-415.3-10,.12,0,.92-.08,1.74-.16c1.86-.17,3.73-.32,5.6-.48h.18c7.25-.61,14.75-1.24,22-2.42a180.92,180.92,0,0,0,22.45-5.54l2.62-.78c7.48-2.21,15.2-4.49,22.38-7.73,7.67-3.48,15.22-7.57,22.56-11.55,3-1.62,6-3.25,9-4.84a204.15,204.15,0,0,0,19.17-12l1.06-.73,3.86-2.61c16.35-10.94,30.28-24.94,43.75-38.47l1.74-1.75a12.56,12.56,0,0,0,1.45-1.88,15,15,0,0,1,1.23-1.67c3.18-3.54,5.4-5,7.66-5,1.93,0,4,1.06,6.75,3.45A91.68,91.68,0,0,1,1571.9,737c1.29,2.4,2.78,4.75,4.24,7.07a79.45,79.45,0,0,1,5.62,9.9,163.87,163.87,0,0,1,6.08,16.64l.25.76c.5,1.54,1,3.08,1.52,4.6,1.56,4.63,3.19,9.56,4.46,14.52a45.64,45.64,0,0,1,1.15,8.89c.18,3.21.39,6.42.6,9.63.59,9,1.19,18.31,1.13,27.48a191.92,191.92,0,0,1-2,22.69c-.25,1.87-.48,3.74-.71,5.61a110.76,110.76,0,0,1-2.83,15.21c-2.28,8.66-4.83,17.95-7.94,27.11s-6.65,18.48-10.9,28.68a254.86,254.86,0,0,1-11.14,23.91,182.46,182.46,0,0,1-12.33,19.21c-2.81,3.94-5.78,7.77-8.65,11.47l-.09.1c-3,3.89-6.13,7.91-9,12-7.44,10.52-16.72,20.36-30.1,31.89-1.87,1.61-3.72,3.25-5.62,4.93-4.53,4-9.22,8.17-14.13,11.83a161.21,161.21,0,0,1-14,8.94l-.1.06c-1.86,1.1-3.73,2.21-5.58,3.34-1.49.91-3,1.87-4.45,2.82l-.13.09a90.55,90.55,0,0,1-12,6.88c-1.35.6-2.7,1.24-4.06,1.88-6.38,3-13,6.11-20.39,6.11l-1.25,0c-1.73-.09-3.46-.09-5.45-.1-4.13,0-8.4,0-12.37-1-11.37-2.82-19.39-9.62-23.18-19.66-1.5-3.94-3.07-9.64-2.09-14.44,1.84-8.9,3.91-19,9-28a69.4,69.4,0,0,0,3.2-6.8,61.69,61.69,0,0,1,3.48-7.24c5.52-9.33,10.27-16.71,15-23.26A189.05,189.05,0,0,1,1423.09,961c4.33-4.59,8.91-9.09,13.39-13.47,5.3-5.2,10.78-10.57,15.85-16.15a228.86,228.86,0,0,0,20.46-26.11c6-8.94,8.13-18.66,6.16-28.12a25.37,25.37,0,0,0-10.81-15.87c-9.07-6.13-19.17-9.79-31.77-11.51a288,288,0,0,0-39.59-2.52l-3.72,0c-10.55.11-19,.41-26.74,1a166.79,166.79,0,0,0-23.13,2.87c-4.14.9-8.23,2.2-12.27,3.5a122.71,122.71,0,0,1-13.24,3.68c-9.56,1.88-18.25,6.11-26.71,10.23l-2.67,1.29a58.21,58.21,0,0,0-9.6,6.38l-.11.08c-1.34,1-2.73,2.09-4.13,3.06-.67.47-1.39.92-2,1.31a18.14,18.14,0,0,0-4.06,3.05c-6.65,7.36-13.12,15.5-12.79,26.94,0,2,0,4.09-.14,6.12a43.52,43.52,0,0,0,.38,10.83,138,138,0,0,0,7.39,23.56,246.74,246.74,0,0,0,11.17,23c2.06,3.88,4.51,7.64,6.93,11.36.69,1,1.37,2.1,2,3.16,5,7.79,9.69,15,14.35,22.12,7.09,10.77,9.86,23.13,8.24,36.74-.61,5.11-2.49,9.87-5,12.74a78,78,0,0,1-17.53,15.07c-7.95,4.81-16.94,7.35-23.88,9-5.14,1.24-10.25,1.26-15.27,1.27-2.74,0-5.58,0-8.38.24-1.19.09-2.41.13-3.61.13-9.38,0-18.36-2.82-25.14-5.27a226.23,226.23,0,0,1-22.22-9.93l-1.82-.89c-3.25-1.59-6.38-3.52-9.41-5.38-1.39-.85-2.76-1.69-4.17-2.51-2.27-1.71-4.47-3.29-6.42-4.68-2.55-1.85-5-3.59-7.36-5.41-3.3-2.53-7.17-5.57-10.79-8.93-9-8.41-16.4-19-22.49-32.3a234.79,234.79,0,0,1-11.1-27.7c-1.56-5-3.62-10-5.64-14.78l-.08-.19c-1.47-3.52-3-7.16-4.29-10.8a78.38,78.38,0,0,1-2.48-9.3c-.47-2.13-.9-4-1.42-5.94a191.33,191.33,0,0,1-6.07-34.13c-.14-1.56-.33-3.15-.52-4.79a73.75,73.75,0,0,1-.73-11.78,157.89,157.89,0,0,1,2.78-22.67,131.21,131.21,0,0,1,5.59-19.66c3-8.23,6.54-16.32,10-24.14l.27-.62c2.57-5.9,5.55-12.24,9.36-20A71.26,71.26,0,0,1,1123,796l1.42-2.13c4-6.05,8.2-12.3,12.48-18.31,2.47-3.47,5.08-6.93,7.61-10.27h0l.1-.14a227.6,227.6,0,0,0,14.46-20.69c3.74-6.33,9.13-8.56,15.28-10.63a2.15,2.15,0,0,1,.73-.12c1.63,0,4.13,1.39,7.45,4.12,3,2.5,5.92,5.3,8.76,8.05l.28.28c1.3,1.26,2.61,2.53,3.93,3.77.5.46,1,.88,1.58,1.29l.14.11a22,22,0,0,1,1.77,1.45,127.78,127.78,0,0,0,29.9,21.53c3.54,1.83,7.11,3.84,10.27,5.62,4.73,2.65,9.61,5.4,14.59,7.78a143.13,143.13,0,0,0,17.72,6.52l.12,0,1.67.53a177.36,177.36,0,0,0,18.89,5.16c7.44,1.51,14.87,2.41,22,3.27l1.73.22c8.24,1,16.76,2,25.17,2.51.91.05,1.88.08,2.88.08,3.59,0,7.25-.34,10.79-.67Zm576.56-17.48a81,81,0,0,1,15.44-1h2.3c5.71,0,11.28-.11,16.7-1.41,3.89-.93,7.76-2.15,11.49-3.32,1.72-.54,3.45-1.08,5.17-1.59a8.23,8.23,0,0,1,2.37-.38c2.7,0,4.83,1.6,6.16,4.61a28.25,28.25,0,0,1,1.5,5,28.14,28.14,0,0,0,1.48,5c2.43,5.5,2.58,11.34,2.72,17,0,.67,0,1.33,0,2a116.16,116.16,0,0,1-6.11,41c-.7,2.06-1.48,4.14-2.26,6.2-.35.91-.69,1.81-1,2.72a164.57,164.57,0,0,1-15.93,27.62c-2,2.87-1.92,8.46-.54,11.53a12.22,12.22,0,0,0,10.3,7.18c1,.07,2,.1,3,.1,10.23,0,19.72-3.52,29-10.76,4.58-3.56,8.87-7.58,13.1-11.54,2.06-1.93,4.19-3.92,6.32-5.82a4,4,0,0,1,2.74-.92c3.14,0,7.26,2.45,8.07,5.72a36.74,36.74,0,0,1,.94,8c.11,10,7,16.93,16.82,16.93,1.16,0,1.74.14,2,.46s.22,1,.06,2l-.05.26c-.66,4.06-1.19,8.26-1.66,12-.35,2.73-.78,6.12-1.25,9.31s-1.05,6.22-1.61,9.25l0,.3c-.39,2-.77,4.09-1.11,6.13s-.67,4-1,6l-.13.83,0,.28c-.52,3.26-1.06,6.63-1.67,9.92-.41,2.17-.79,4.34-1.17,6.51l-.16.91c-1.25,7.11-2.54,14.46-4.4,21.57-2.58,9.87-5.84,19.62-9,29l-1.22,3.65c-2.92,8.81-5.84,17.42-9.43,26a100.67,100.67,0,0,1-7.82,14.24l-.6,1c-7.17,11.58-13.1,20.87-18.65,29.22-1.93,2.91-4.1,5.68-6.2,8.35l-.09.12c-1.48,1.89-3,3.84-4.44,5.83-17,23.52-37.88,43.95-58.11,63.7-6.38,6.24-13,12.68-19.41,19.18-8,8.13-17.06,15.5-25.79,22.63l-2.71,2.21a161.72,161.72,0,0,1-19.52,13.86c-8.1,4.84-16.67,9.21-25,13.44l-.25.13-2.72,1.39a162.93,162.93,0,0,1-32.34,12.29q-2.82.77-5.63,1.56l-.67.19c-5.09,1.43-10.36,2.9-15.67,4-8.17,1.68-16.42,3-24.43,4.29-2.78.45-5.56.89-8.34,1.36-13.76,2.28-27.18,2.59-38.48,2.59-4.86,0-9.81-.07-14.58-.13h-.66c-4.28-.06-9.62-.13-14.67-.13-3.45,0-6.57,0-9.55.11-2,0-4.08.07-6.23.07-8.42,0-17-.38-25.27-.74h-.23l-5.29-.23a102,102,0,0,1-11.46-1.4l-1-.16-1.76-.27a4.78,4.78,0,0,1-3.32-2.65,6.72,6.72,0,0,1-.4-5.77,14.47,14.47,0,0,0,1.41-5c.16-2.12.18-4.29.2-6.5a53,53,0,0,1,1-11.77,77.13,77.13,0,0,0,1.63-13.38,77.78,77.78,0,0,1,1.41-12.07,35.72,35.72,0,0,0,.58-4.82c.33-4.39.67-8.94,5-12,6.11-4.25,12.34-8.78,17.84-12.77l2-1.45a13.31,13.31,0,0,0,2-1.92l.34-.38c2.81-3.08,5.65-6.07,8.81-9.39,6.75-7.11,13.73-14.46,19.73-22.37,6.22-8.22,11.84-17.84,18.22-31.19,3.81-8,6.65-16.58,9.42-25l.4-1.23q.76-2.33,1.55-4.63a102.6,102.6,0,0,0,3.08-12.64l.36-1.84c.41-2,.71-4.13,1-6.08a58.78,58.78,0,0,1,2-10c1.38-4.22,1.69-8.61,2-12.84v-.11a78.2,78.2,0,0,1,.89-8.33,145.61,145.61,0,0,0,1.77-20.49v-.21a172.77,172.77,0,0,1,1.28-17.4,118.81,118.81,0,0,0,1-14.2v-.26c.08-3,.16-6.11.4-9.16.18-2.34.21-4.75.23-7.11a59.1,59.1,0,0,1,1-12.11,112.67,112.67,0,0,0,2-18.46l0-.37c.16-3,.33-6,.62-9a141.29,141.29,0,0,1,2.8-16.61c1.37-6.2,3-12.65,5.17-20.3.33-1.2.66-2.39,1-3.59l.36-1.29c2-7.18,4-14.6,6.65-21.74,3.88-10.64,7.49-20.16,12.39-29,3.92-7.09,9.44-11.44,16.41-12.92a60.81,60.81,0,0,0,11.65-4.21c2.37-1,4.81-2.13,7.29-3,5.75-2,11.64-3.88,17.34-5.7l.27-.09c3.75-1.2,7.5-2.4,11.24-3.63,2.85-.95,5.74-1.95,8.53-2.91l.22-.08c4.5-1.57,9.6-3.34,14.65-4.85,3.16-.95,6.46-1.59,9.7-2.22l.37-.07c1.77-.34,3.6-.69,5.38-1.1,2.68-.62,5.36-1.27,8.07-1.94,4.19-1,8.52-2.09,12.8-3a117.25,117.25,0,0,1,16.74-2.48c2.35-.12,4.84-.18,8.09-.18l4.4,0h.19l4.5,0a95.12,95.12,0,0,0,17.9-1.3ZM1278.08,1091.8a66.06,66.06,0,0,0,28.36-19.64c8.76-10.15,12.14-22.71,10.66-39.5-.44-5.08-2.55-10.09-4.59-14.93l-.48-1.14a203,203,0,0,0-9.58-19.88c-2.07-3.7-4.49-7.38-6.63-10.63-1.53-2.33-3.27-5-4.84-7.56-4.82-7.95-9.5-15.75-13.83-23.75-2.36-4.35-4.31-9-6.19-13.45l-1.13-2.69a9.7,9.7,0,0,1-.56-3v-.16c0-.42-.08-.84-.14-1.26-.17-9.5,0-17.4.58-24.87a18.15,18.15,0,0,1,2.75-7.24,68.88,68.88,0,0,1,20-21.67c6.51-4.65,13.78-7.32,20.83-9.92l.23-.08c2-.75,4.15-1.53,6.2-2.34,4.86-1.93,10.31-2.64,15.62-3.33,1.69-.21,3.44-.44,5.16-.71,2.62-.4,5.31-.67,8-.93a80,80,0,0,0,13.73-2.14c6.61-1.85,13.25-2.31,19.49-2.62,3.17-.16,6.41-.5,9.54-.84h.12a124.84,124.84,0,0,1,13-.91,51.59,51.59,0,0,1,5.58.29c2.35.28,4.78.49,7,.68,6.66.57,13.55,1.17,20.23,3.32l1.84.59,1.22.39c6.84,2.17,13.91,4.42,20.5,7.73,5.1,2.56,7.76,6,8.39,10.79a10,10,0,0,0,.88,2.56,5.66,5.66,0,0,1,.77,3.19,42,42,0,0,1-4,11.4c-4.16,7.6-10.39,13.62-16.41,19.45-1.72,1.65-3.38,3.26-5,4.91-2.5,2.52-5.07,5-7.56,7.5l-.22.21c-4.73,4.63-9.6,9.42-14.19,14.41-6.21,6.75-14.3,15.76-21.81,25.59a207.62,207.62,0,0,0-31.1,59.1c-3.28,10-4.35,18.74-3.28,26.66,1.85,13.61,8.52,23.22,19.84,28.53,1.65.78,3.36,1.67,4.75,2.39,3.65,1.91,7.44,3.89,11.39,4.84a33.83,33.83,0,0,0,7.92.82c3,0,6.12-.26,8.62-.48,5.43-.45,11.71-1.1,17.41-3.07a105.1,105.1,0,0,0,19.1-9.15c6.82-4,13.5-8.57,20-13l.38-.26c1.44-1,2.88-2,4.32-2.92a12.28,12.28,0,0,0,2.15-2.06,14.05,14.05,0,0,1,1.86-1.84c2.91-2.19,5.89-4.38,8.78-6.51l.47-.34c3.8-2.8,8.11-6,12.2-9.1a97.58,97.58,0,0,0,8.87-7.93,6.7,6.7,0,0,1,4.5-2.28,4.83,4.83,0,0,1,3.49,1.7l2.36,2.46c4.32,4.5,8.8,9.14,12.39,14.3,6,8.56,9.53,18.49,12.66,27.94,4.48,13.48,4.73,27,4.6,39.75-.08,7.44-2.94,12.68-8.74,16a18.22,18.22,0,0,1-9.33,2.27,43.81,43.81,0,0,1-6.09-.51,64,64,0,0,0-8.76-.74,24.84,24.84,0,0,0-12.66,3c-1.66.94-3.11,3.25-3.89,6.19-.91,3.43-.73,6.81.47,8.83a116.54,116.54,0,0,1,13.1,30.11,101.92,101.92,0,0,1,2.33,14.4l0,.33c.22,2,.45,4,.74,6,.19,1.4.46,2.86.7,4.16a42.85,42.85,0,0,1,1,9.56,178,178,0,0,1-2.77,23.15,77.48,77.48,0,0,1-3.07,10.78l0,.13c-.5,1.5-1,3-1.46,4.49-.75,2.44-1.8,3.62-3.22,3.62-1,0-2.23-.61-3.68-1.87-1.1-1-2.2-2-3.3-3-3.68-3.36-7.48-6.82-11.81-9.09a30.09,30.09,0,0,0-14-3.63,27.61,27.61,0,0,0-11,2.33c-8.52,3.69-12.34,10-12,20a238.08,238.08,0,0,1-1,30.46c-.61,6.18-2.78,12.37-4.82,17.61-1.57,4.05-3.51,8.14-5.23,11.76s-3.35,7.09-4.82,10.74c-2,4.93-5.36,8.86-10.63,12.36a6,6,0,0,1-3.37,1,7.52,7.52,0,0,1-6.58-4.17c-1.21-2.45-2.39-4.92-3.7-7.69-3.8-8-7.74-16.31-13-23.76a158.09,158.09,0,0,0-27.87-29.94,83.64,83.64,0,0,0-11.06-7.36l-2.16-1.28a7.88,7.88,0,0,0-4.1-1.07c-4.63,0-9.67,3.25-12,7.72-1.57,3-3.45,5.95-5.26,8.78l-.06.09-.16.26c-1,1.53-2,3.12-3,4.7-1.46,2.43-2.9,4.88-4.34,7.32l-.43.74c-1.77,3-3.6,6.13-5.46,9.21-1.18,1.94-2.5,3.93-3.57,5.54-.81,1.22-1.62,2.45-2.41,3.69q-4.83,7.57-9.6,15.2c-.81,1.3-1.73,2-2.72,2-1.26,0-2.6-1.12-3.87-3.23q-1.68-2.78-3.41-5.52c-2.67-4.27-5.42-8.68-7.75-13.26-4.54-8.94-8.33-17.31-11.57-25.6a233.64,233.64,0,0,1-8.88-26.72,109.78,109.78,0,0,1-2.41-14.51c-.26-2.18-.55-4.66-.92-7.06l-.23-1.5v-.11a75.27,75.27,0,0,0-1.79-9.26c-.16-.52-1.86-1-3.11-1a3,3,0,0,0-1,.13c-4.79,1.77-9.74,3.85-15.14,6.35a110.93,110.93,0,0,0-34.1,25c-.89.94-1.76,1.89-2.64,2.85l-.28.3-1,1.09c-.12.14-.25.27-.37.4h0c-.25-.51-.52-1-.78-1.54l-.08-.16a33,33,0,0,1-1.76-3.76c-.63-1.68-1.27-3.35-1.94-5.12-2-5.35-4.16-10.89-5.8-16.46a47.81,47.81,0,0,1-1.34-7.43,40.19,40.19,0,0,0-1.74-8.62c-2.57-7-2.15-14.18-1.75-21.11v-.13c.14-2.47.29-5,.29-7.52,0-4.27,1.27-8.6,2.48-12.79l.05-.19c.55-1.9,1.12-3.87,1.56-5.81.33-1.46.68-2.92,1-4.38l.16-.66a121.83,121.83,0,0,0,2.73-13.4,8.82,8.82,0,0,0-2-6.75,9.79,9.79,0,0,0-6.89-3.54c-3-.21-6.43-.43-9.79-.43a54.68,54.68,0,0,0-8,.52,91,91,0,0,0-14.8,3.89l-.64.21-2.58.83c-3.71,1.17-7.4,2.61-11,4l-2.42.94a1.93,1.93,0,0,1-.73.13c-2.3,0-5.55-3.13-5.59-6.22,0-3.53-.13-7.16-.24-10.92-.29-10.42-.59-21.19.65-31.59.36-3,.52-6.1.67-8.86a80.31,80.31,0,0,1,1.73-14.82l.33-1.41.17-.75,0-.09c1.09-4.59,2.22-9.33,4.28-13.52a8.25,8.25,0,0,1,7.44-4.67,9.66,9.66,0,0,1,5.77,2c5.25,3.95,10,7.74,14.38,11.58a55.64,55.64,0,0,0,17.79,10.16c6.63,2.4,13.59,3.45,20.33,4.47,3,.46,6.07.93,9.09,1.5a85.08,85.08,0,0,0,16.28,1.2h5.66c2.14,0,4.67,0,7.32.15q1.07.06,2.13.06c8.52,0,16.73-2.69,23.75-5.2Zm313.76-170.56h0l.22.31a3.33,3.33,0,0,1,.35.64l.43,1.21.31.88c.64,1.78,1.43,4,2.06,6.11q.87,2.94,1.75,5.86l.08.27c1.93,6.46,3.93,13.14,5.59,19.79,1,4,1.72,8.15,2.37,11.9.46,2.65.93,5.38,1.49,8,.67,3.25,1.44,6.53,2.17,9.71l0,.21c.88,3.77,1.67,7.17,2.38,10.62a27.6,27.6,0,0,1,.4,4.41c0,1.09.08,2.21.23,3.3.6,4.54,1.28,9.33,1.84,13.22.44,3.11.89,6.22,1.32,9.33.71,5.18,1.39,10.36,2.07,15.55l.7,5.29a5.07,5.07,0,0,1,0,.55c0,.13,0,.25,0,.37.19,3,.41,6,.63,9,.47,6.45,1,13.12,1.19,19.71.62,18.21.9,32.23.92,45.45,0,2.36,0,4.72,0,7.12.08,11.08.15,22.52-1.22,33.63-.62,5-.92,10-1.2,14.79-.34,5.83-.7,11.87-1.6,17.72-1.26,8.06-2.11,16.11-2.6,24.61a155.49,155.49,0,0,1-2.76,19.41c-.81,4.25-1.81,8.51-2.77,12.62l-.09.37c-.59,2.48-1.19,5-1.74,7.56-.31,1.45-.5,3-.66,4.36l0,.41c-.08.61-.16,1.23-.25,1.84-.25,1.67-.47,3.35-.7,5l-.08.61c-.56,4.15-1.18,8.87-2.11,13.31-.65,3.06-1.61,6.2-2.45,9-.7,2.26-1.48,4.82-2.1,7.37-.7,2.94-1.28,6-1.85,8.91l0,.23c-.59,3.09-1.2,6.28-2,9.4-.69,2.87-1.57,5.76-2.44,8.61-.69,2.24-1.47,4.78-2.12,7.25a11.33,11.33,0,0,0-.22,2.94,11.1,11.1,0,0,1-.23,3c-3.07,11.53-4.12,24.23-3.21,38.83a234.94,234.94,0,0,0,3.71,27,95.78,95.78,0,0,0,2.51,9.91l0,.1c.69,2.38,1.4,4.83,2,7.26a20,20,0,0,1,.35,4.31,23.46,23.46,0,0,0,.18,3.46c.47,3.27,1,6.6,1.55,9.81l0,.22c.57,3.47,1.17,7,1.68,10.59.35,2.53.59,5.14.83,7.73a78.27,78.27,0,0,0,2.22,14.42c1.78,6.19,2,12.5,2.28,18.61.07,1.85.15,3.71.26,5.57.13,2.15.28,4.31.42,6.46l.1,1.45c.66,9.72,1.34,19.79,1.23,29.67a247,247,0,0,1-2.86,36.23,196.62,196.62,0,0,1-8.36,32.52c-5.71,16.63-16.27,30.78-31.41,42-2.64,2-6,3-9.54,4l-2.45.71-.36.11c-4,1.17-8.06,2.39-12.09,2.39h-.52a57.52,57.52,0,0,1-18.52-3.66c-11.53-4.33-20.82-10.71-27.61-19a120.22,120.22,0,0,1-14.82-22.37c-4.12-8.27-7.16-17.24-10.1-25.91l-.92-2.71a65.21,65.21,0,0,1-2.13-8.9c-.38-2-.82-4.33-1.4-6.5-.7-2.61-1.62-5.31-2.36-7.48l0-.13c-.71-2.1-1.44-4.27-2.05-6.44a17.39,17.39,0,0,1-.5-3.74c-.06-.83-.11-1.69-.25-2.52-.42-2.62-.87-5.24-1.33-7.85-.59-3.39-1.26-7.23-1.82-11-.35-2.39-.57-4.85-.79-7.23-.41-4.67-.84-9.51-2.31-14s-1.73-9.08-1.95-13.5v-.16c-.11-2.08-.21-4.23-.46-6.34-1.2-10.32-1.92-20.87-2.61-31.07l-.27-3.78a98.59,98.59,0,0,1,0-12.63,3.6,3.6,0,0,0-.48-2.56,1.32,1.32,0,0,0-1-.37,8.33,8.33,0,0,0-2.32.53l-.25.09c-6.26,2.06-12.75,4.2-19.23,6a50.7,50.7,0,0,1-6,1.13,37,37,0,0,0-8.24,1.89,31.23,31.23,0,0,1-12.06,2.06c-2.36,0-4.76-.16-7.08-.31h-.15c-1.45-.09-2.89-.19-4.32-.24-7.79-.33-16.94-1.09-25.72-4.36a56.37,56.37,0,0,0-7.46-2,54.84,54.84,0,0,1-7.29-2,83.66,83.66,0,0,1-8.24-3.69c-2.43-1.19-5-2.43-7.52-3.42a32.91,32.91,0,0,1-5.4-2.92c-3-1.87-6.14-3.8-10-3.8a12.86,12.86,0,0,0-3.93.64c-5.94,1.92-10.18,8-11.16,12.73a47.6,47.6,0,0,0-.71,6.79v.12c-.09,1.44-.17,2.92-.34,4.37-.88,7.46-1.82,14.78-2.8,21.76l-.35,2.51c-.71,5.11-1.44,10.38-2.51,15.5-.73,3.45-1.69,6.89-2.62,10.23l0,.15c-.63,2.26-1.28,4.6-1.85,6.92a28.52,28.52,0,0,0-.6,3.86c-.12,1.06-.24,2.14-.45,3.2-.47,2.3-.92,4.61-1.37,6.92-1.28,6.62-2.61,13.47-4.32,20.2-2.3,9.06-5.16,18.15-7.92,26.93l-.05.14-.4,1.27c-.46,1.46-.9,2.92-1.35,4.39l-.33,1.09a157.32,157.32,0,0,1-6.88,19.5c-1.17,2.56-2.32,5.3-3.29,7.58-2.52,6-5.14,12.18-8.82,17.89-4.16,6.47-10.06,14.32-18.84,17.76-.86.34-1.73.71-2.68,1.12-3.48,1.48-7.07,3-10.89,3a13,13,0,0,1-7.23-2.19,2.49,2.49,0,0,0-1.36-.31,12.81,12.81,0,0,0-1.39.11h-.13a10.54,10.54,0,0,1-1.28.1,3.24,3.24,0,0,1-1.29-.23,95.45,95.45,0,0,1-13.85-7.17,58.53,58.53,0,0,1-11.44-9.58c-7.45-8.32-12.14-16.18-14.74-24.74-1.31-4.26-2.87-8.63-4.24-12.48-1.48-4.12-3.15-8.8-4.5-13.35a87.52,87.52,0,0,1-2.18-10.31c-.32-1.92-.73-4.31-1.21-6.55-.64-2.92-1.36-5.87-2.06-8.72l-.07-.28,0-.14c-.84-3.42-1.71-7-2.44-10.46a52.27,52.27,0,0,1-.81-7l0-.49c0-.64-.09-1.29-.15-1.93-.12-1.44-.25-2.87-.37-4.31l-.12-1.29c-.49-5.55-1-11.29-1.35-17l0-.31c-.45-7.25-.92-14.76-.89-22.23.06-12.61.37-23,1-32.82.42-6.75,1.35-13.5,2.26-20l.5-3.6c.16-1.2.3-2.39.43-3.6l.05-.39c.48-4.25,1-8.64,2.48-12.57,3.46-9,3-18.31,2.48-27.3l-.12-2.46c-.22-4.45-1.62-8.87-3-13.14l0-.13c-.63-2-1.29-4.1-1.81-6.16a22.56,22.56,0,0,1-.42-2.46,15.7,15.7,0,0,0-.63-3.18c-2.84-8-5.9-16.37-8.35-23.09l-2.86-7.83-4-11q-3.62-9.91-7.22-19.85-1.37-3.77-2.71-7.55l0-.12c-1.68-4.7-3.41-9.56-5.22-14.3-1.54-4-3.12-8-4.88-12.38l-.11-.28c-2.18-5.47-4.44-11.11-6.5-16.73-1.43-3.9-2.63-7.91-3.77-11.79l-.09-.29c-.77-2.56-1.56-5.21-2.4-7.78-.94-2.86-1.94-5.67-3-8.8-1.42-4-3-8.49-4.35-12.92-2-6.72-3.76-13.63-5.45-20.31-.38-1.53-.76-3.05-1.15-4.57l-.41-1.62c-1.78-7-3.61-14.15-5.17-21.32-1.06-4.88-1.82-9.86-2.55-14.67l-.29-1.94c-.36-2.35-.65-4.76-.94-7.08l0-.18c-.51-4.16-1-8.47-1.94-12.61-2.92-13.25-2.8-26.83-2.69-40v-.34c0-4.05.07-8.25,0-12.37a82.44,82.44,0,0,1,1-14.57c.81-4.85,1.91-9.82,2.9-14.21.56-2.53,1.14-5.15,1.67-7.74.21-1,.33-2.07.45-3.12a32,32,0,0,1,.54-3.49c.48-2.1.93-4.21,1.37-6.32a144.44,144.44,0,0,1,4.38-17,160,160,0,0,1,7.34-16.92c1-2,1.91-4,2.84-6a3.26,3.26,0,0,1,1.27-1.16c.23-.14.46-.28.69-.44l0,0h0l.28.83c.18.49.34,1,.5,1.46.59,1.76,1.16,3.52,1.73,5.29,1.24,3.8,2.51,7.74,3.9,11.57,2.17,5.94,4.17,11.28,6.61,16.44s5.51,10.59,8.16,15.27l1.1,1.95c3.83,6.8,7.13,12.42,10.37,17.68a24.55,24.55,0,0,0,2.86,3.55c.59.66,1.21,1.33,1.76,2,.75,1,1.47,2,2.19,3.06a26.86,26.86,0,0,0,4.73,5.68c4.28,3.54,4.82,6.86,1.92,11.85a65.85,65.85,0,0,0-5.67,14,199.66,199.66,0,0,0-5.82,23.29,172.91,172.91,0,0,0-1.79,19.88l-.17,3.18a111.87,111.87,0,0,0,0,15.43l.05.58c.57,6.85,1.17,14,3,20.63.7,2.6,4.66,5.83,7.55,6.17l.8.1a55.31,55.31,0,0,0,6.33.5,15.78,15.78,0,0,0,10.63-3.55c3.27-2.71,7.28-4.63,11.22-6.52,1.06-.51,2.12-1,3.16-1.54a12.4,12.4,0,0,1,5.51-1.16c4.66,0,9.32,1.9,11.6,4.73.7.87,1.86,2.32,1.74,3.43-.41,3.56-1,7.16-1.55,10.64l0,.26c-.27,1.64-.53,3.29-.78,4.93a22.86,22.86,0,0,0-.32,3.61c0,2.93-.06,5.91-.11,8.81v.5c-.12,7.39-.25,15,.3,22.48a99.51,99.51,0,0,0,2.69,15.07c.65,2.79,1.23,5.3,1.71,7.83a9.48,9.48,0,0,1,0,2.38,7.41,7.41,0,0,0,.13,2.71l.47,1.51c2.51,8,5.1,16.35,8.11,24.41,1.53,4.08,4.53,6.23,8.68,6.23a14,14,0,0,0,3.07-.35,13.22,13.22,0,0,0,5-2.5c3.15-2.43,6.33-5,9.13-7.22,3.11-2.49,6.15-4.92,9.21-7.27,2.55-2,5.2-3.9,7.54-5.61l.35-.26c3.41-2.5,7-5.09,10.28-7.79a4.18,4.18,0,0,1,2.55-1.11c1.5,0,2.4,1.36,2.75,2.63.88,3.24,1.51,6.55,2.12,9.76.54,2.88,1.11,5.85,1.84,8.75a149.21,149.21,0,0,0,5,15.24c2.8,7.44,5.44,14,8.09,20,3.36,7.67,7.1,15.76,11.43,24.73a40.24,40.24,0,0,0,3,4.93c.6.88,1.28,1.88,1.89,2.88,1.34,2.18,2.66,4.38,4,6.58l.59,1c2.55,4.26,5.45,9.08,8.39,13.73,1,1.66,2,2.47,3,2.47s1.73-.69,2.55-2.07l1.57-2.66c2-3.37,4.23-7.19,6.58-10.79,1.52-2.33,3.14-4.6,4.71-6.79s3.13-4.37,4.63-6.67c2.57-3.93,5.2-8.11,7.32-11.48,1.86-3,3.73-5.94,5.62-8.88l1.76-2.73c3.28-5.11,7-10.91,10.87-16.35a6.54,6.54,0,0,1,5.46-2.35,9,9,0,0,1,6,2.11c1.81,1.63,3.64,3.25,5.52,4.91,5.31,4.68,10.8,9.52,15.75,14.71,4.34,4.56,7.69,10.21,10.64,15.2,3.87,6.53,7.18,13.26,10.25,19.6a10.91,10.91,0,0,1,.8,3.41,12.85,12.85,0,0,0,.61,3c.3.77.59,1.56.87,2.35,1.1,3,2.24,6.19,4.23,8.56a12.51,12.51,0,0,0,9.84,4.21,18.66,18.66,0,0,0,9.91-2.93c8.37-5.35,12.36-13.69,16.22-21.74.75-1.57,1.51-3.13,2.28-4.71,2.18-4.45,4.43-9.05,6.34-13.71a69.15,69.15,0,0,0,2.93-10.08c.2-.84.4-1.66.6-2.49,1.4-5.71,2.84-11.89,4.66-20.05a8.11,8.11,0,0,0,.08-2.22c0-.35,0-.7,0-1v-25.74c0-2.82,0-4.61.48-5.7s1.29-1.46,3-1.46c1,0,2.4.15,4.06.33,9.42,1,17.32,4,23.5,8.62s12,9.5,14.41,16.72c.52,1.54,1.18,2.35,1.91,2.35s1.33-.64,2-1.84c2.38-4.33,4.63-8.9,6.72-13.59,1.89-4.25,3.63-8.71,5.18-13.28a18.6,18.6,0,0,0,.71-4c.09-.84.18-1.72.35-2.56,2.48-12.17,4.68-26.61,2.24-41.35-.41-2.47-.73-5.07-1-7.38a112.2,112.2,0,0,0-1.93-12,144.4,144.4,0,0,0-5.06-15.66c-.4-1.09-.79-2.17-1.18-3.25a45.24,45.24,0,0,0-2-4.55l0-.11c-.67-1.36-1.31-2.69-1.83-4-1.12-2.84-1.88-5.65,1-8.69a13,13,0,0,1,9.4-4.44,10.47,10.47,0,0,1,3.91.76,35.92,35.92,0,0,0,14,2.46c2.84,0,5.73-.2,8.2-.39,6.46-3.09,7.33-8.94,8.1-14.11l.11-.78.25-1.57c1.28-8.37,2.6-17,1.37-25.16-.34-2.33-.5-4.8-.63-7-.34-5.37-.69-10.92-3.44-16a20.39,20.39,0,0,1-1.73-6.07,24.63,24.63,0,0,0-1.33-5.28,192.1,192.1,0,0,0-10.09-21.06c-2.6-4.5-5.57-8.88-8.44-13.12l-.07-.1c-1.86-2.74-4-5.84-5.9-8.91-2.71-4.3-2-10.07,1.77-14.35,1.74-2,3.52-3.95,5.3-5.91,5.48-6,11.14-12.29,15.71-19.1,1-1.51,2-3,3-4.52,6.85-10.12,13.94-20.59,18.55-32.33,2.54-6.48,5.6-12.85,8.55-19,1.38-2.86,2.93-6.11,4.4-9.31a2.18,2.18,0,0,0,.06-1.09,6.37,6.37,0,0,1,0-.76,3.94,3.94,0,0,1,.23-.88l.07-.22.06-.17h0Z" transform="translate(-977.73 437.37)"/><path class="cls-1" d="M1351.79,684.25c-5.32,2.27-10.88,7.18-9,13.56a50.12,50.12,0,0,0,7.1,13.83c2,2.93,4.35,5.72,6.61,8.42l.1.11.07.1c1.86,2.22,3.79,4.51,5.52,6.87,3,4.13,6.67,7.94,12.79,7.94a15.37,15.37,0,0,0,2.22-.16c.33,0,.62,0,.88.05l.5,0a.87.87,0,0,0,.47-.09c9.61-5.41,15.5-14.57,18.53-28.81,1-4.6.58-9.55.18-14.34l-.08-1.06-.08-.9c-.11-1.59-2-4-3.34-4.24l-1.69-.35c-5.82-1.19-11.84-2.43-17.77-2.43h-.73c-1.86,0-3.77-.11-5.47-.21h-.27c-1.76-.11-3.77-.23-5.75-.23a26.54,26.54,0,0,0-10.8,1.92Zm19.11,35.25c-5.09-6.65-9.77-13.75-14.3-20.61l-.24-.38c-.2-.29.09-1.21.48-1.92.27-.52.54-.84.71-.84l5.24-.07c2.83,0,5.66-.08,8.49-.08,5.19,0,9.39.15,13.19.46,2.31.19,3.56.66,4.06,1.52.64,1.09.06,2.84-1,5.15l-1.17,2.54-1.16,2.54c-.35,6.55-4.35,10.48-8.2,13.45a1.89,1.89,0,0,1-1.11.27c-1.55,0-4.12-.9-5-2Z" transform="translate(-977.73 437.37)"/><path class="cls-2" d="M1544.3,707.61c-2.26,0-4.48,1.44-7.66,5a15,15,0,0,0-1.23,1.67,12.56,12.56,0,0,1-1.45,1.88l-1.74,1.75c-13.47,13.53-27.4,27.52-43.75,38.47l-3.86,2.61-1.06.73a202.11,202.11,0,0,1-19.17,12c-3,1.59-6,3.22-9,4.84-7.34,4-14.89,8.07-22.56,11.54-7.18,3.25-14.9,5.53-22.38,7.74l-2.62.78a180.2,180.2,0,0,1-22.46,5.54c-7.28,1.18-14.78,1.81-22,2.42l-.18,0c-1.88.15-3.74.3-5.61.47l-1.73.16-.92.08-.12,0c-3.54.33-7.2.67-10.79.67-1,0-2,0-2.88-.08-8.41-.48-16.93-1.51-25.17-2.51l-1.73-.22c-7.18-.86-14.59-1.76-22-3.27a179.1,179.1,0,0,1-18.89-5.16l-1.67-.54-.12,0a141.59,141.59,0,0,1-17.72-6.53c-5-2.37-9.86-5.12-14.59-7.77-3.16-1.78-6.73-3.79-10.27-5.63A127.71,127.71,0,0,1,1199,752.74a18.93,18.93,0,0,0-1.76-1.46l-.14-.1c-.53-.41-1.09-.83-1.58-1.29-1.32-1.24-2.63-2.51-3.93-3.77l-.29-.28c-2.83-2.75-5.72-5.55-8.75-8.05-3.32-2.73-5.82-4.12-7.45-4.12a2.15,2.15,0,0,0-.73.12c-6.15,2.07-11.54,4.3-15.28,10.63a225.72,225.72,0,0,1-14.47,20.69l-.09.14h0c-2.53,3.34-5.14,6.8-7.61,10.27-4.29,6-8.45,12.26-12.48,18.3L1123,796a71.26,71.26,0,0,0-4.94,8.24c-3.81,7.73-6.79,14.07-9.36,20l-.28.62c-3.42,7.82-7,15.9-10,24.14a130.26,130.26,0,0,0-5.59,19.65,156.79,156.79,0,0,0-2.78,22.68,73.75,73.75,0,0,0,.73,11.78c.2,1.64.38,3.23.52,4.79A191.33,191.33,0,0,0,1097.4,942c.52,1.9.95,3.81,1.42,5.94a77.73,77.73,0,0,0,2.48,9.29c1.3,3.65,2.82,7.29,4.29,10.81l.08.19c2,4.82,4.08,9.77,5.64,14.77a233.25,233.25,0,0,0,11.1,27.71c6.09,13.33,13.45,23.89,22.49,32.29,3.62,3.37,7.49,6.41,10.79,8.94,2.39,1.82,4.81,3.56,7.36,5.4,2,1.4,4.15,3,6.42,4.68,1.41.83,2.79,1.67,4.17,2.52,3,1.86,6.16,3.78,9.41,5.38l1.82.89a226.23,226.23,0,0,0,22.22,9.93c6.78,2.45,15.76,5.27,25.14,5.27,1.2,0,2.42,0,3.61-.14,2.8-.21,5.64-.22,8.38-.23,5,0,10.13,0,15.26-1.27,7-1.67,15.94-4.2,23.89-9a77.8,77.8,0,0,0,17.52-15.08c2.55-2.86,4.44-7.62,5-12.73,1.62-13.61-1.15-26-8.24-36.74-4.66-7.09-9.36-14.33-14.35-22.12l-2-3.17c-2.42-3.71-4.87-7.47-6.93-11.36a244.31,244.31,0,0,1-11.17-23,136.79,136.79,0,0,1-7.39-23.55,43.52,43.52,0,0,1-.38-10.83c.09-2,.19-4.1.13-6.12-.32-11.44,6.15-19.58,12.8-26.94a17.85,17.85,0,0,1,4.06-3.05c.65-.39,1.37-.84,2-1.31,1.4-1,2.79-2,4.13-3.06l.1-.08a57.41,57.41,0,0,1,9.61-6.37l2.67-1.3c8.46-4.12,17.15-8.35,26.72-10.24a120.87,120.87,0,0,0,13.23-3.67c4-1.3,8.13-2.61,12.27-3.5a166.83,166.83,0,0,1,23.13-2.88c7.7-.56,16.19-.87,26.73-1l3.73,0a289.7,289.7,0,0,1,39.59,2.51c12.6,1.73,22.7,5.39,31.77,11.52A25.35,25.35,0,0,1,1479,877.16c2,9.47-.16,19.19-6.16,28.12a227.07,227.07,0,0,1-20.47,26.12c-5.06,5.58-10.54,11-15.84,16.15-4.48,4.38-9.07,8.88-13.39,13.47a190.36,190.36,0,0,0-15.88,19.61c-4.69,6.54-9.44,13.93-15,23.26a61.69,61.69,0,0,0-3.48,7.24,70.5,70.5,0,0,1-3.2,6.8c-5.12,9-7.19,19.11-9,28-1,4.8.59,10.5,2.08,14.43,3.8,10.05,11.82,16.85,23.19,19.67,4,1,8.24,1,12.37,1,2,0,3.72,0,5.44.1.43,0,.85,0,1.26,0,7.41,0,14-3.1,20.38-6.1,1.37-.64,2.72-1.28,4.07-1.88a89.51,89.51,0,0,0,12-6.89l.13-.08c1.48-1,3-1.91,4.45-2.83,1.85-1.12,3.72-2.23,5.58-3.33l.1-.06a161.05,161.05,0,0,0,14-8.94c4.92-3.66,9.61-7.81,14.14-11.83,1.9-1.68,3.75-3.32,5.62-4.93,13.37-11.53,22.66-21.37,30.1-31.88,2.89-4.08,6-8.1,9-12l.09-.1c2.87-3.7,5.84-7.53,8.65-11.47a182.46,182.46,0,0,0,12.33-19.21,254.86,254.86,0,0,0,11.14-23.91c4.25-10.2,7.81-19.59,10.9-28.69s5.66-18.44,8-27.11a111.89,111.89,0,0,0,2.82-15.2c.22-1.87.46-3.74.7-5.61a189.84,189.84,0,0,0,2-22.69c.06-9.17-.55-18.48-1.13-27.48-.21-3.21-.42-6.43-.6-9.63a47.23,47.23,0,0,0-1.15-8.89c-1.27-5-2.9-9.89-4.46-14.52-.51-1.52-1-3.06-1.52-4.6l-.25-.76a163,163,0,0,0-6.08-16.64,78.74,78.74,0,0,0-5.62-9.9c-1.47-2.32-3-4.67-4.24-7.08a91.78,91.78,0,0,0-20.85-25.9c-2.74-2.39-4.82-3.45-6.75-3.45Z" transform="translate(-977.73 437.37)"/><path class="cls-2" d="M1591.84,921.24h0l-.06.17-.07.22a2.84,2.84,0,0,0-.2,1.64,2.17,2.17,0,0,1-.07,1.09c-1.47,3.2-3,6.45-4.4,9.3-3,6.17-6,12.54-8.56,19-4.6,11.74-11.69,22.21-18.54,32.33q-1.53,2.25-3,4.52c-4.56,6.81-10.22,13.06-15.7,19.1-1.78,2-3.56,3.93-5.3,5.91-3.77,4.28-4.48,10-1.77,14.35,1.93,3.07,4,6.17,5.9,8.91l.07.1c2.87,4.24,5.84,8.62,8.44,13.12a192.1,192.1,0,0,1,10.09,21.06,24.48,24.48,0,0,1,1.33,5.28,20.39,20.39,0,0,0,1.73,6.07c2.75,5.08,3.1,10.63,3.44,16,.14,2.19.29,4.66.64,7,1.22,8.15-.1,16.79-1.38,25.15l-.24,1.58-.12.78c-.77,5.17-1.64,11-8.1,14.11-2.47.19-5.36.39-8.2.39a36,36,0,0,1-14-2.46,10.38,10.38,0,0,0-3.9-.76,13,13,0,0,0-9.4,4.44c-2.85,3-2.09,5.85-1,8.69.52,1.33,1.16,2.66,1.82,4l0,.11a45.24,45.24,0,0,1,2,4.55c.39,1.08.78,2.16,1.18,3.25a144.4,144.4,0,0,1,5.06,15.66,109.35,109.35,0,0,1,1.93,12c.29,2.31.61,4.91,1,7.38,2.44,14.74.24,29.17-2.24,41.35-.17.84-.26,1.71-.35,2.56a19.23,19.23,0,0,1-.71,4c-1.55,4.56-3.3,9-5.18,13.28-2.09,4.69-4.35,9.26-6.72,13.59-.67,1.2-1.36,1.84-2,1.84s-1.39-.81-1.91-2.35c-2.44-7.22-8.21-12-14.41-16.72s-14.08-7.57-23.49-8.62c-1.67-.18-3-.32-4.07-.32-1.74,0-2.59.4-3,1.45s-.47,2.88-.47,5.7v25.73c0,.35,0,.7,0,1a8.13,8.13,0,0,1-.08,2.22c-1.82,8.16-3.26,14.34-4.66,20.05q-.32,1.24-.6,2.49a69.15,69.15,0,0,1-2.93,10.08c-1.91,4.66-4.16,9.26-6.34,13.71-.77,1.58-1.53,3.14-2.28,4.71-3.86,8-7.85,16.39-16.22,21.74a18.69,18.69,0,0,1-9.91,2.93,12.5,12.5,0,0,1-9.84-4.21c-2-2.37-3.13-5.52-4.23-8.56-.28-.79-.57-1.58-.87-2.35a13.52,13.52,0,0,1-.62-3,10.63,10.63,0,0,0-.79-3.41c-3.07-6.34-6.38-13.07-10.25-19.61-3-5-6.3-10.63-10.64-15.19-5-5.19-10.44-10-15.75-14.72-1.88-1.65-3.71-3.27-5.53-4.91a9.08,9.08,0,0,0-5.94-2.1,6.59,6.59,0,0,0-5.47,2.34c-3.85,5.45-7.58,11.25-10.86,16.36l-1.76,2.73c-1.89,2.94-3.76,5.91-5.62,8.88-2.12,3.36-4.75,7.55-7.32,11.48-1.5,2.3-3.17,4.62-4.63,6.66-1.57,2.2-3.19,4.47-4.71,6.79-2.35,3.61-4.6,7.43-6.58,10.8l-1.57,2.66c-.82,1.38-1.68,2.07-2.55,2.07s-2-.81-3-2.47c-2.94-4.65-5.84-9.47-8.39-13.73l-.59-1q-2-3.3-4-6.59c-.61-1-1.29-2-1.89-2.87a40.24,40.24,0,0,1-3-4.93c-4.33-9-8.07-17.06-11.43-24.73-2.64-6-5.29-12.59-8.09-20a149.21,149.21,0,0,1-5-15.24c-.73-2.9-1.3-5.87-1.84-8.75-.61-3.21-1.24-6.52-2.12-9.76-.34-1.27-1.25-2.63-2.75-2.63a4.18,4.18,0,0,0-2.55,1.11c-3.34,2.7-6.87,5.29-10.28,7.79l-.35.26c-2.34,1.71-5,3.64-7.54,5.6-3.06,2.36-6.1,4.79-9.21,7.28-2.8,2.25-6,4.79-9.13,7.22a13.37,13.37,0,0,1-5,2.5,14,14,0,0,1-3.07.35c-4.15,0-7.15-2.15-8.68-6.23-3-8.06-5.6-16.37-8.11-24.41l-.47-1.51a7.64,7.64,0,0,1-.13-2.71,9.48,9.48,0,0,0,0-2.38c-.48-2.53-1.06-5-1.71-7.83a98.72,98.72,0,0,1-2.69-15.07c-.55-7.46-.42-15.1-.3-22.48v-.5c0-2.9.1-5.88.11-8.81a22.86,22.86,0,0,1,.32-3.61c.24-1.64.51-3.29.78-4.93l0-.26c.56-3.48,1.14-7.08,1.54-10.64.13-1.11-1-2.56-1.73-3.43-2.28-2.83-6.94-4.73-11.6-4.73a12.43,12.43,0,0,0-5.51,1.16c-1,.52-2.1,1-3.17,1.54-3.93,1.89-7.94,3.81-11.21,6.52a15.78,15.78,0,0,1-10.63,3.55,55.31,55.31,0,0,1-6.33-.5l-.8-.1c-2.89-.34-6.84-3.57-7.55-6.17-1.81-6.68-2.41-13.77-3-20.63l-.05-.58a113.48,113.48,0,0,1,0-15.43l.16-3.18a175.2,175.2,0,0,1,1.8-19.88,199.16,199.16,0,0,1,5.82-23.29,65.85,65.85,0,0,1,5.67-14c2.9-5,2.36-8.32-1.93-11.85a26.88,26.88,0,0,1-4.72-5.69c-.72-1.06-1.44-2.09-2.19-3-.55-.7-1.17-1.38-1.76-2a24.55,24.55,0,0,1-2.86-3.55c-3.24-5.26-6.54-10.88-10.37-17.69l-1.1-1.94c-2.65-4.68-5.65-10-8.16-15.27s-4.44-10.5-6.61-16.44c-1.39-3.83-2.67-7.77-3.9-11.58q-.86-2.64-1.72-5.28c-.17-.48-.34-1-.5-1.46l-.29-.83-.73.48a3.27,3.27,0,0,0-1.28,1.15c-.92,2-1.88,4-2.84,6a162.09,162.09,0,0,0-7.34,16.92,144.34,144.34,0,0,0-4.36,17c-.45,2.11-.9,4.22-1.38,6.32a31.63,31.63,0,0,0-.54,3.49c-.12,1-.24,2.11-.45,3.12-.53,2.59-1.11,5.21-1.68,7.74-1,4.39-2.09,9.36-2.89,14.21a82.44,82.44,0,0,0-1,14.57c.06,4.12,0,8.31,0,12.37v.34c-.11,13.12-.23,26.7,2.69,40,.91,4.14,1.43,8.45,1.94,12.61l0,.18c.29,2.32.58,4.73.94,7.08l.29,1.94c.73,4.82,1.49,9.8,2.55,14.67,1.56,7.17,3.39,14.36,5.17,21.32l.41,1.62c.39,1.52.77,3,1.15,4.57,1.69,6.68,3.43,13.59,5.45,20.3,1.32,4.44,2.93,9,4.35,12.93,1.11,3.13,2.1,5.94,3,8.8.84,2.57,1.63,5.22,2.4,7.78l.08.29c1.16,3.88,2.35,7.89,3.78,11.79,2.06,5.62,4.32,11.26,6.5,16.73l.11.28c1.76,4.38,3.33,8.34,4.88,12.38,1.81,4.74,3.54,9.6,5.22,14.3l0,.12c.9,2.52,1.79,5,2.71,7.55q3.6,9.91,7.22,19.85l4,11,2.86,7.83c2.45,6.72,5.51,15.08,8.35,23.08a15.26,15.26,0,0,1,.63,3.19,22.56,22.56,0,0,0,.42,2.46c.52,2.06,1.17,4.14,1.81,6.16l0,.13c1.34,4.27,2.74,8.69,3,13.14l.13,2.46c.47,9,1,18.29-2.49,27.3-1.51,3.93-2,8.32-2.48,12.57l-.05.39c-.13,1.21-.27,2.41-.43,3.59l-.5,3.61c-.91,6.53-1.84,13.28-2.26,20-.59,9.78-.9,20.21-1,32.82,0,7.47.43,15,.88,22.23l0,.31c.36,5.73.86,11.47,1.35,17l.12,1.29c.12,1.44.25,2.87.37,4.31.06.64.1,1.29.15,1.93l0,.49a50.84,50.84,0,0,0,.8,7c.73,3.5,1.6,7,2.44,10.46l0,.13.07.29c.69,2.85,1.41,5.8,2,8.72.49,2.24.9,4.63,1.22,6.55a88.94,88.94,0,0,0,2.17,10.3c1.36,4.56,3,9.24,4.5,13.36,1.38,3.85,2.94,8.21,4.24,12.48,2.61,8.56,7.3,16.42,14.75,24.74a58.53,58.53,0,0,0,11.44,9.58,94.93,94.93,0,0,0,13.85,7.17,3.24,3.24,0,0,0,1.29.23,10.54,10.54,0,0,0,1.28-.1h.13a13,13,0,0,1,1.39-.11,2.4,2.4,0,0,1,1.36.32,13.08,13.08,0,0,0,7.23,2.18c3.82,0,7.41-1.54,10.89-3,1-.41,1.82-.78,2.68-1.12,8.78-3.44,14.68-11.29,18.84-17.76,3.68-5.71,6.3-11.9,8.82-17.89,1-2.28,2.12-5,3.29-7.58a157.32,157.32,0,0,0,6.88-19.5l.33-1.09,1.35-4.39.41-1.27,0-.14c2.76-8.78,5.62-17.87,7.92-26.93,1.71-6.73,3-13.58,4.32-20.2q.67-3.46,1.36-6.93a31.59,31.59,0,0,0,.45-3.18,32.28,32.28,0,0,1,.61-3.87c.57-2.32,1.22-4.66,1.85-6.92l0-.15c.93-3.33,1.89-6.78,2.62-10.23,1.07-5.12,1.8-10.39,2.51-15.49l.35-2.52c1-7,1.92-14.3,2.8-21.76.17-1.45.25-2.93.33-4.37v-.12a47.6,47.6,0,0,1,.71-6.79c1-4.74,5.22-10.81,11.16-12.73a12.81,12.81,0,0,1,3.93-.64c3.82,0,6.94,1.93,10,3.8a32.91,32.91,0,0,0,5.4,2.92c2.58,1,5.09,2.23,7.52,3.42a86.14,86.14,0,0,0,8.24,3.7,56.37,56.37,0,0,0,7.29,1.94,56.37,56.37,0,0,1,7.46,2c8.78,3.27,17.93,4,25.72,4.36,1.43.06,2.87.15,4.32.24h.15c2.32.15,4.72.31,7.08.31a31.42,31.42,0,0,0,12.06-2.06,37,37,0,0,1,8.24-1.89,52.84,52.84,0,0,0,6-1.13c6.48-1.75,13-3.89,19.23-6l.25-.09a8.25,8.25,0,0,1,2.32-.53,1.32,1.32,0,0,1,1,.37,3.6,3.6,0,0,1,.48,2.56,96.7,96.7,0,0,0,0,12.63l.26,3.78c.69,10.2,1.41,20.75,2.61,31.07.24,2.11.35,4.26.46,6.34v.16c.22,4.42.45,9,1.94,13.5s1.91,9.29,2.32,14c.22,2.38.44,4.84.79,7.23.56,3.72,1.23,7.56,1.82,11,.46,2.61.91,5.23,1.33,7.85.14.83.19,1.69.25,2.52a18,18,0,0,0,.49,3.74c.62,2.17,1.35,4.34,2.06,6.45l0,.11c.74,2.18,1.66,4.88,2.36,7.49.58,2.17,1,4.47,1.4,6.5a63.77,63.77,0,0,0,2.13,8.9l.91,2.7c3,8.68,6,17.65,10.11,25.92a119.72,119.72,0,0,0,14.82,22.37c6.79,8.25,16.08,14.63,27.61,19a57.58,57.58,0,0,0,18.52,3.66h.52c4,0,8.13-1.21,12.09-2.38l.36-.11,2.45-.71c3.52-1,6.9-2,9.54-4,15.14-11.27,25.7-25.42,31.41-42a195.8,195.8,0,0,0,8.35-32.52,245.68,245.68,0,0,0,2.86-36.23c.12-9.88-.56-19.94-1.22-29.67l-.1-1.45c-.14-2.15-.29-4.31-.42-6.46-.12-1.86-.19-3.72-.26-5.57-.25-6.11-.5-12.42-2.28-18.61a78.42,78.42,0,0,1-2.22-14.41c-.24-2.6-.48-5.21-.84-7.74-.5-3.54-1.1-7.12-1.67-10.59l0-.22c-.53-3.22-1.08-6.54-1.55-9.81a24.91,24.91,0,0,1-.19-3.46,20,20,0,0,0-.34-4.31c-.56-2.43-1.27-4.88-2-7.26l0-.1a98.43,98.43,0,0,1-2.52-9.91,237.17,237.17,0,0,1-3.7-27c-.91-14.6.14-27.3,3.21-38.83a11.1,11.1,0,0,0,.23-3,11.78,11.78,0,0,1,.22-2.94c.65-2.47,1.43-5,2.12-7.25.87-2.85,1.75-5.74,2.45-8.62.75-3.11,1.36-6.3,2-9.39l0-.24c.56-2.93,1.14-6,1.84-8.91.62-2.55,1.4-5.1,2.1-7.36.85-2.77,1.81-5.91,2.45-9,.93-4.44,1.55-9.15,2.11-13.3l.08-.61c.23-1.68.45-3.36.7-5,.09-.61.17-1.23.24-1.84l0-.41c.17-1.36.36-2.91.67-4.36.55-2.53,1.15-5.08,1.74-7.56l.08-.37c1-4.11,2-8.37,2.78-12.61a154,154,0,0,0,2.75-19.42c.5-8.5,1.35-16.55,2.61-24.61.9-5.85,1.26-11.88,1.6-17.72.29-4.84.58-9.85,1.2-14.79,1.37-11.11,1.29-22.56,1.22-33.63,0-2.4,0-4.76,0-7.12,0-13.22-.3-27.24-.92-45.45-.23-6.59-.72-13.26-1.19-19.71-.22-3-.44-6-.63-9,0-.12,0-.25,0-.37a5.33,5.33,0,0,0,0-.56l-.7-5.28q-1-7.78-2.08-15.56c-.42-3.1-.87-6.21-1.31-9.32-.56-3.89-1.24-8.68-1.84-13.22-.15-1.09-.19-2.21-.23-3.3a26.48,26.48,0,0,0-.41-4.41c-.71-3.45-1.49-6.85-2.37-10.62l0-.21c-.73-3.18-1.5-6.46-2.17-9.71-.56-2.66-1-5.39-1.49-8-.65-3.75-1.37-7.94-2.36-11.9-1.67-6.65-3.67-13.33-5.6-19.79l-.08-.27q-.88-2.93-1.75-5.86c-.63-2.12-1.42-4.33-2.06-6.11l-.31-.88-.43-1.21a2.91,2.91,0,0,0-.36-.64l-.21-.31Z" transform="translate(-977.73 437.37)"/><path class="cls-2" d="M1558.42,280.33h0c-.46.27-.92.54-1.39.8a28.64,28.64,0,0,0-3,1.87c-2.5,1.88-5.16,3.79-7.52,5.48a165.57,165.57,0,0,0-17.6,13.87c-7.62,7.23-14.57,15.35-21.3,23.2l-4.27,5a103.35,103.35,0,0,0-6.31,8.4c-1.3,1.88-2.5,3.58-3.82,5.35-2.38,3-5.56,4.46-10,4.46a37.31,37.31,0,0,1-5.47-.5c-5.17-.74-10.38-1.91-15.41-3-3.59-.8-7.25-1.62-10.87-2.29-6.82-1.25-13.56-2.09-19.88-2.83-7.35-.87-14.87-1.29-22.15-1.7h-.1l-.51,0c-3.23-.19-6.54-.37-9.8-.6-5.5-.38-12.74-.81-20-.81a138.6,138.6,0,0,0-23.24,1.78A123.43,123.43,0,0,1,1339.5,340c-6.44.22-13,.44-19.47,1.84-5.45,1.19-11,1.92-16.43,2.62-2,.27-4,.53-6,.81a19.78,19.78,0,0,1-2.54.15,15.14,15.14,0,0,0-3.38.31c-2.15.52-4.27,1.14-6.63,1.82a100.34,100.34,0,0,1-10.64,2.68,83.8,83.8,0,0,1-11.51.89c-1.54.05-3,.09-4.46.16-.26,0-.52,0-.77,0-6.82,0-10.7-4.71-13.31-8.8-1.74-2.73-3.46-5.55-5.12-8.27l-.07-.11c-4.27-7-8.67-14.2-13.81-20.65-5.33-6.68-11.74-12.68-17.93-18.49l-.08-.07q-2.47-2.31-4.94-4.65a6.78,6.78,0,0,0-4.8-1.89,7.48,7.48,0,0,0-7.51,6.06c-.85,5.49-1.42,10.93-1.89,15.6s-5.69,9.72-9.84,9.72a4,4,0,0,1-1.87-.43,46.21,46.21,0,0,1-9.08-6.24c-3.41-3-10.94-5-18.31-5-4.14,0-7.66.68-9.92,1.91l-.45.24c-6.51,3.54-12.66,6.88-16.65,13.81-3.48,6-5.22,12.57-6.7,18.75-1.29,5.36.06,10.78,1.36,16,.33,1.33.66,2.66.94,4a8.83,8.83,0,0,1,.11,2.13,6.13,6.13,0,0,0,.34,2.83c4.16,8.49,9.13,18.52,14.53,28.61,4,7.5,2.81,17.89-2.8,24.16a6.6,6.6,0,0,0-1.38,3.19.31.31,0,0,0,.07.2l.87.75a30.32,30.32,0,0,0,7.39,5.18,28.15,28.15,0,0,0,5.61,1.51,25.37,25.37,0,0,1,6.13,1.74,281.74,281.74,0,0,1,26,13.89c6.66,4.12,13.11,8.83,19.36,13.38l.86.63c1.73,1.25,3.45,2.51,5.19,3.75,6.43,4.62,13.91,10,21.15,15.56l1.47,1.13c8.24,6.31,16.76,12.84,24.95,19.75,8.76,7.37,18.05,15.36,26.59,23.84,5.83,5.77,11.51,11.89,17,17.8,4.2,4.53,8.91,9.61,13.57,14.37a216,216,0,0,1,24.8,30.45c2.7,4,5.55,8,8.32,11.94l.16.23c2.33,3.27,4.71,6.63,7,10a73.76,73.76,0,0,1,5,8.68c2.91,5.84,6.32,12.78,9.54,19.9,2.39,5.28,4.71,10.7,7,16l.21.48c1,2.33,2,4.66,3,7l.24.58.1.24.14.35a1.73,1.73,0,0,0,.17-.33l0-.1a5.25,5.25,0,0,0,.27-.79q.81-3.28,1.59-6.59l0-.15c1.14-4.76,2.32-9.69,3.59-14.5.1-.36.19-.72.28-1.08l.14-.55a39.53,39.53,0,0,1,3.28-9.44l1.19-2.15c5.85-10.55,11.91-21.45,18.7-31.7,6.11-9.2,13.29-17.8,20.11-25.82,7.82-9.21,16.37-18.67,26.14-28.93a78.06,78.06,0,0,1,7.32-6.54c2.28-1.87,4.58-3.76,6.66-5.83,9.8-9.76,21.72-21,35.75-30.07,4.35-2.83,8.88-5.89,12.52-8.36l.3-.2c5-3.41,10.23-6.92,15.44-10.22,10.21-6.46,20.75-13.13,32.68-17.13a182.55,182.55,0,0,0,19.82-8.44l.23-.11c3-1.43,6.14-2.9,9.24-4.27,5.78-2.55,8.93-7.45,8.63-13.46-.41-8.3,0-17.05,5.59-24.82,1.47-2,2.86-4.16,4.21-6.21a88.45,88.45,0,0,1,8.09-11.07,100.42,100.42,0,0,0,15-21.92c.4-.79.82-1.58,1.24-2.37,2.11-4,4.27-8.1,4.91-12.34,1.78-11.79,2.79-23.33-4.19-34.85-6.67-11-15.13-16.4-26.62-17-1.42-.07-2.8-.11-4.09-.11a62.54,62.54,0,0,0-17.77,2.47,99.11,99.11,0,0,0-15.86,5.89c-2.85,1.4-4.75,2-6.16,2-2.69,0-3.69-2.33-3.69-8.61v-.48c0-6.77,0-13.77,2.73-20.37a11.58,11.58,0,0,0,.59-4.06v-.18c0-.59,0-1.19.1-1.77h0Z" transform="translate(-977.73 437.37)"/><path class="cls-2" d="M1984.79,780.12a8.21,8.21,0,0,0-2.37.37c-1.72.51-3.45,1-5.16,1.59-3.74,1.17-7.61,2.39-11.5,3.32-5.42,1.3-11,1.41-16.7,1.41h-2.3a81,81,0,0,0-15.44,1,95.12,95.12,0,0,1-17.9,1.3l-4.5,0h-.19l-4.4,0c-3.25,0-5.74.06-8.09.18a116.9,116.9,0,0,0-16.73,2.48c-4.29.87-8.62,1.93-12.81,3-2.71.67-5.38,1.32-8.07,1.94-1.78.41-3.61.76-5.38,1.1l-.37.08a96.41,96.41,0,0,0-9.69,2.21c-5.06,1.51-10.16,3.28-14.66,4.85l-.22.08c-2.79,1-5.68,2-8.53,2.91-3.74,1.23-7.49,2.43-11.24,3.63l-.27.09c-5.7,1.82-11.59,3.7-17.33,5.7-2.49.86-4.93,1.94-7.3,3a60.84,60.84,0,0,1-11.65,4.22c-7,1.48-12.49,5.83-16.42,12.92-4.89,8.82-8.5,18.34-12.38,29-2.61,7.14-4.66,14.56-6.65,21.74l-.36,1.29c-.33,1.2-.67,2.39-1,3.59-2.16,7.65-3.81,14.1-5.17,20.3a141.29,141.29,0,0,0-2.8,16.61c-.29,3-.46,6.07-.62,9l0,.37a113.8,113.8,0,0,1-2,18.46,59.1,59.1,0,0,0-1,12.11c0,2.36,0,4.76-.23,7.11-.24,3.05-.32,6.16-.4,9.16v.26a121,121,0,0,1-.94,14.2,166.9,166.9,0,0,0-1.28,17.4v.21a145.61,145.61,0,0,1-1.77,20.49,78.2,78.2,0,0,0-.89,8.33v.11a52.77,52.77,0,0,1-2,12.84,59.76,59.76,0,0,0-2,10c-.27,2-.57,4.08-1,6.09l-.36,1.83a100.4,100.4,0,0,1-3.08,12.64c-.52,1.54-1,3.08-1.55,4.63l-.4,1.23c-2.77,8.38-5.61,17-9.42,25-6.38,13.35-12,23-18.22,31.19-6,7.91-13,15.26-19.74,22.37-3.15,3.32-6,6.31-8.8,9.39l-.34.38a12.91,12.91,0,0,1-2,1.92l-2,1.45c-5.5,4-11.73,8.52-17.84,12.77-4.36,3-4.7,7.58-5,12a35.69,35.69,0,0,1-.59,4.82,77.63,77.63,0,0,0-1.41,12.07,77.13,77.13,0,0,1-1.63,13.38,53,53,0,0,0-1,11.77c0,2.21,0,4.38-.2,6.5a14.69,14.69,0,0,1-1.41,5,6.75,6.75,0,0,0,.39,5.77,4.77,4.77,0,0,0,3.32,2.64l1.77.28,1,.16a99.45,99.45,0,0,0,11.46,1.4l5.29.22h.23c8.28.36,16.85.74,25.27.74,2.15,0,4.25,0,6.24-.07,3-.08,6.09-.11,9.54-.11,5,0,10.39.07,14.67.13h.66c4.78.06,9.72.13,14.58.13,11.3,0,24.72-.31,38.48-2.59,2.78-.47,5.56-.91,8.34-1.36,8-1.29,16.26-2.61,24.43-4.3,5.31-1.1,10.58-2.57,15.67-4l.67-.19q2.81-.79,5.63-1.56a163.55,163.55,0,0,0,32.34-12.29l2.72-1.39.25-.12c8.29-4.24,16.86-8.61,25-13.45a162.44,162.44,0,0,0,19.51-13.86l2.71-2.22c8.73-7.12,17.75-14.49,25.79-22.62,6.43-6.49,13-12.94,19.41-19.18,20.23-19.75,41.14-40.19,58.11-63.7,1.43-2,3-3.94,4.44-5.83l.09-.12c2.1-2.68,4.27-5.44,6.2-8.34,5.55-8.36,11.48-17.64,18.65-29.23l.6-1a101.74,101.74,0,0,0,7.83-14.24c3.58-8.61,6.5-17.22,9.43-26l1.21-3.65c3.16-9.43,6.41-19.18,9-29.06,1.86-7.09,3.15-14.45,4.4-21.55l.16-.92c.38-2.17.76-4.34,1.17-6.51.61-3.29,1.15-6.66,1.67-9.92l0-.28.13-.83c.33-2,.65-4,1-6s.72-4.09,1.1-6.13l.06-.31c.56-3,1.14-6.15,1.6-9.25s.91-6.58,1.25-9.31c.48-3.7,1-7.9,1.67-12l.05-.26c.16-1,.26-1.65-.06-2s-.85-.45-2-.45c-9.79,0-16.71-7-16.82-16.94a36,36,0,0,0-.95-8c-.8-3.27-4.92-5.71-8.06-5.71a4,4,0,0,0-2.74.91c-2.13,1.9-4.26,3.89-6.32,5.82-4.23,4-8.52,8-13.1,11.54-9.32,7.24-18.82,10.77-29,10.77-1,0-2,0-3-.11a12.22,12.22,0,0,1-10.3-7.18c-1.38-3.07-1.45-8.66.54-11.53a164.57,164.57,0,0,0,15.93-27.62c.34-.91.68-1.81,1-2.72.78-2.06,1.56-4.13,2.26-6.2a116.39,116.39,0,0,0,6.11-41c0-.68,0-1.34-.06-2-.13-5.65-.27-11.49-2.7-17a27.53,27.53,0,0,1-1.5-5,27.82,27.82,0,0,0-1.49-5c-1.33-3-3.46-4.6-6.16-4.6Z" transform="translate(-977.73 437.37)"/><path class="cls-3" d="M1404.25,856.64a124.84,124.84,0,0,0-13,.91l-.12,0c-3.13.33-6.37.67-9.54.83-6.24.31-12.88.77-19.49,2.62a80,80,0,0,1-13.73,2.14c-2.64.26-5.34.53-8,.93-1.72.27-3.47.5-5.16.71-5.31.69-10.76,1.4-15.62,3.33-2,.81-4.16,1.59-6.2,2.34l-.23.08c-7,2.59-14.32,5.27-20.83,9.92a68.88,68.88,0,0,0-20,21.67,18.15,18.15,0,0,0-2.75,7.24c-.57,7.47-.75,15.37-.58,24.87.06.41.1.84.14,1.26v.16a9.7,9.7,0,0,0,.56,3l1.13,2.69c1.88,4.48,3.83,9.1,6.19,13.46,4.33,8,9,15.79,13.83,23.74,1.57,2.6,3.31,5.23,4.84,7.56,2.14,3.25,4.56,6.93,6.63,10.63a203,203,0,0,1,9.58,19.88l.48,1.14c2,4.84,4.15,9.85,4.59,14.93,1.48,16.8-1.9,29.35-10.66,39.5a66,66,0,0,1-28.36,19.64c-7,2.51-15.23,5.2-23.75,5.2q-1.07,0-2.13-.06c-2.65-.13-5.18-.15-7.32-.15h-5.66a85.79,85.79,0,0,1-16.28-1.19c-3-.58-6.1-1-9.09-1.5-6.73-1-13.7-2.08-20.33-4.48a55.64,55.64,0,0,1-17.79-10.16c-4.42-3.84-9.13-7.63-14.38-11.58a9.59,9.59,0,0,0-5.77-2,8.23,8.23,0,0,0-7.44,4.67c-2.06,4.19-3.19,8.93-4.28,13.52l0,.09-.17.75-.34,1.41a82,82,0,0,0-1.72,14.82c-.15,2.76-.32,5.88-.67,8.85-1.24,10.41-.94,21.18-.65,31.6.11,3.76.21,7.39.25,10.92,0,3.09,3.27,6.22,5.58,6.22a1.93,1.93,0,0,0,.73-.13l2.42-.94c3.57-1.38,7.26-2.82,11-4l2.58-.83.64-.21a91,91,0,0,1,14.8-3.89,54.68,54.68,0,0,1,8-.52c3.36,0,6.81.22,9.79.43a9.79,9.79,0,0,1,6.89,3.54,8.82,8.82,0,0,1,2,6.75,122.31,122.31,0,0,1-2.73,13.4l-.16.66c-.36,1.46-.71,2.92-1,4.38-.44,1.94-1,3.91-1.56,5.81l-.05.19c-1.21,4.19-2.47,8.52-2.48,12.79,0,2.49-.15,5-.29,7.51v.14c-.4,6.93-.82,14.1,1.75,21.11a40.19,40.19,0,0,1,1.74,8.62,47.81,47.81,0,0,0,1.34,7.43c1.64,5.57,3.75,11.11,5.8,16.46.67,1.77,1.31,3.44,1.94,5.12a33,33,0,0,0,1.76,3.76l.08.16c.26.51.53,1,.78,1.54l1.41-1.5.28-.3c.88-1,1.75-1.91,2.64-2.85a111.09,111.09,0,0,1,34.1-25c5.4-2.5,10.35-4.58,15.14-6.35a3,3,0,0,1,1-.13c1.24,0,3,.46,3.1,1a73.48,73.48,0,0,1,1.8,9.26l0,.11.22,1.5c.37,2.4.66,4.88.92,7.06a111.45,111.45,0,0,0,2.41,14.51,235.62,235.62,0,0,0,8.88,26.72c3.24,8.29,7,16.67,11.57,25.6,2.33,4.58,5.08,9,7.75,13.26,1.15,1.84,2.29,3.67,3.41,5.52,1.27,2.11,2.61,3.22,3.87,3.22,1,0,1.91-.66,2.72-2q4.79-7.62,9.6-15.2c.79-1.24,1.6-2.47,2.41-3.69,1.07-1.6,2.39-3.6,3.57-5.54,1.86-3.08,3.69-6.19,5.46-9.21l.44-.74c1.43-2.44,2.87-4.89,4.33-7.32,1-1.58,2-3.17,3-4.7l.16-.26.06-.09c1.81-2.83,3.69-5.76,5.26-8.78,2.32-4.47,7.36-7.72,12-7.72a7.88,7.88,0,0,1,4.1,1.07l2.15,1.28a84.08,84.08,0,0,1,11.07,7.36,157.47,157.47,0,0,1,27.87,29.94c5.29,7.45,9.23,15.74,13,23.76,1.31,2.76,2.48,5.24,3.7,7.69a7.53,7.53,0,0,0,6.58,4.17,6,6,0,0,0,3.37-1c5.27-3.5,8.65-7.43,10.63-12.36,1.47-3.65,3.17-7.25,4.82-10.74s3.66-7.71,5.23-11.76c2-5.24,4.21-11.43,4.82-17.61a238,238,0,0,0,1-30.46c-.3-9.92,3.52-16.26,12-20a27.61,27.61,0,0,1,11-2.33,30.09,30.09,0,0,1,14,3.63c4.33,2.27,8.13,5.73,11.81,9.09,1.1,1,2.2,2,3.31,3,1.44,1.26,2.65,1.87,3.67,1.87,1.42,0,2.47-1.18,3.22-3.62.46-1.5,1-3,1.46-4.48l.05-.14a77.66,77.66,0,0,0,3-10.77,175.12,175.12,0,0,0,2.77-23.16,41.86,41.86,0,0,0-1-9.57c-.23-1.29-.5-2.75-.7-4.15-.28-2-.51-4-.73-6l0-.33a100.5,100.5,0,0,0-2.33-14.4,116.54,116.54,0,0,0-13.1-30.11c-1.2-2-1.38-5.4-.47-8.83.78-2.94,2.23-5.25,3.89-6.19a24.84,24.84,0,0,1,12.66-3,64,64,0,0,1,8.76.74,44,44,0,0,0,6.09.51,18.22,18.22,0,0,0,9.33-2.27c5.8-3.32,8.65-8.56,8.74-16,.12-12.72-.12-26.27-4.6-39.75-3.13-9.44-6.68-19.38-12.66-27.94-3.59-5.16-8.07-9.8-12.39-14.3l-2.36-2.46a4.85,4.85,0,0,0-3.49-1.7,6.7,6.7,0,0,0-4.5,2.28,97.58,97.58,0,0,1-8.87,7.93c-4.09,3.13-8.4,6.3-12.2,9.1l-.47.34c-2.89,2.13-5.87,4.32-8.77,6.51a13.54,13.54,0,0,0-1.87,1.84,11.86,11.86,0,0,1-2.15,2.05l-4.32,2.93-.38.26c-6.46,4.38-13.14,8.92-20,13a105.1,105.1,0,0,1-19.1,9.15c-5.7,2-12,2.62-17.41,3.07-2.5.22-5.62.48-8.62.48a33.3,33.3,0,0,1-7.92-.82c-4-1-7.74-2.93-11.39-4.84-1.39-.72-3.1-1.61-4.75-2.39-11.32-5.31-18-14.92-19.84-28.53-1.07-7.92,0-16.64,3.28-26.66a207.79,207.79,0,0,1,31.1-59.11c7.51-9.82,15.6-18.83,21.81-25.58,4.59-5,9.47-9.78,14.19-14.41l.21-.21c2.5-2.45,5.07-5,7.57-7.5,1.63-1.65,3.3-3.26,5-4.91,6-5.83,12.25-11.85,16.41-19.45a42,42,0,0,0,4-11.4,5.62,5.62,0,0,0-.77-3.2,9.44,9.44,0,0,1-.88-2.55c-.63-4.8-3.29-8.23-8.39-10.79-6.59-3.31-13.66-5.56-20.5-7.73l-1.22-.39-1.84-.59c-6.68-2.15-13.57-2.75-20.23-3.33-2.2-.18-4.63-.39-7-.66a49.08,49.08,0,0,0-5.58-.3Z" transform="translate(-977.73 437.37)"/><path class="cls-3" d="M1126,440c-.9,0-1.8,0-2.66.08-5.59.38-10.21,2.89-14.12,7.68a72.73,72.73,0,0,0-4.89,7.1,75.11,75.11,0,0,1-4.86,7c-6.76,8.35-12.55,15.22-18.87,21.64-6.77,6.87-14.1,13.43-21.19,19.76l-3.12,2.79c-6.86,6.15-13.08,11.44-19,16.19-8.69,7-16.47,12.9-23.81,18.18l-1.73,1.24c-5.32,3.85-10.82,7.83-16.8,10.46-2,.89-2.87,1.49-2.89,2s.64.85,1.48,1.33l.09,0h0c.37.21.78.44,1.18.71l.69.47c5,3.41,10.27,6.93,15.29,10.63l3.4,2.51c6.71,4.93,13.59,10,20,15.39,8.19,6.86,17.75,15.05,26.62,23.82,14.19,14,28.53,28.37,42.39,42.25l.74.74c13.93,13.95,28.34,28.38,42.67,42.55,4.28,4.22,8.91,8.22,13.39,12.09,3.75,3.23,7.94,6.84,11.79,10.53a206.3,206.3,0,0,0,28.14,22.49c3.74,2.5,7.52,5.29,10.85,7.76,3.67,2.7,7.4,5.46,11.19,8,7.25,4.83,14.6,9.17,22.76,13.93a98.92,98.92,0,0,0,11.65,5.74c3.49,1.48,7.09,2.82,10.56,4.11,1.86.7,3.72,1.39,5.58,2.11s3.82,1.53,5.68,2.29c3.91,1.62,7.95,3.28,12.06,4.53a111.3,111.3,0,0,0,11.59,2.65c2.14.41,4.07.78,6,1.21,2.17.48,4.38,1.12,6.52,1.74l.12,0h0c4.45,1.29,9,2.62,13.56,2.62h1.92c3.9,0,8,.19,11.35.34,3.7.17,7.53.34,11.3.34a68.91,68.91,0,0,0,18.53-2.15,108.65,108.65,0,0,1,11.41-2.22l.11,0c2.94-.46,6-.94,9.08-1.61,1.6-.48,3.21-.94,4.81-1.4l.39-.12c3.49-1,7.09-2.05,10.6-3.19,1.64-.53,3.3-1,5-1.55a112.87,112.87,0,0,0,15.07-5.43c10.25-4.82,20.31-10.16,29.92-15.85,9-5.35,17.61-11.41,25.64-17.15,7-5,14.6-10.81,23.82-18.18,5.67-4.54,11.53-9.53,19-16.2,4.1-3.65,8.14-7.51,12-11.23l.1-.1,3.71-3.53,12-11.41c7.94-7.58,16.94-16.17,25.66-24.27,4-3.71,8.26-7.26,12.38-10.7,2.22-1.86,4.42-3.69,6.59-5.56q3.9-3.35,7.76-6.72c4.21-3.66,8.57-7.44,12.94-11.11s8.56-6.93,12.72-9.92c9-6.44,18.56-13.27,28.28-19.83,3.92-2.64,8-5.18,11.94-7.65l.33-.2c3.49-2.18,7.11-4.44,10.65-6.78,9.18-6.06,18.4-12.41,27.32-18.54l1.06-.73.83-.57a15.5,15.5,0,0,0,2-1.78,11.26,11.26,0,0,1,2.85-2.28c2.57-1.24,4.19-3.15,4.42-5.26s-.75-3.93-2.75-5.53a10.13,10.13,0,0,0-2.07-1.14,12.47,12.47,0,0,1-1.75-.89q-4.12-2.76-8.24-5.48c-8.07-5.35-17.12-11.34-25.79-17.38-8-5.61-15.88-11.67-22.49-16.86s-12.14-9.84-17.35-14.56c-5.8-5.26-11.53-10.81-17.06-16.17l-.09-.09-3.33-3.22c-1.51-1.47-3-3-4.39-4.44l-.07-.08c-2.51-2.58-5.1-5.25-7.88-7.6a14.51,14.51,0,0,0-7.92-3.26l-1.09,0c-5.35,0-10.26,2.12-15,4.17l-.16.06c-1.88.81-3.83,1.65-5.77,2.34a88.26,88.26,0,0,0-11.38,5.26c-1.83.95-3.84,2-5.8,2.93-2.61,1.24-5.3,2.45-7.89,3.61l-.32.14c-5.46,2.45-11.1,5-16.39,8a303.24,303.24,0,0,0-25.45,16.5l-1.91,1.34c-9.67,6.81-19.65,13.84-28.81,21.53a352,352,0,0,0-26.13,25.07c-6.54,6.8-12.88,13.93-19,20.82-2.49,2.8-5,5.61-7.5,8.39-.44.49-.88,1-1.33,1.45l-.26.28a50.21,50.21,0,0,0-4.65,5.53c-5.76,8.35-10.39,15.35-14.57,22-4,6.41-7.82,13.1-11.51,19.58l-.18.31-.24.43c-3.84,6.75-7.19,12.86-10.24,18.68-2.6,4.95-4.75,9.42-6.57,13.65-1.74,4-3.36,8.24-4.93,12.29l-.14.35q-1,2.52-1.95,5c-.24.62-.46,1.24-.67,1.87l-.32.93c-.2-.3-.43-.6-.66-.91a15.14,15.14,0,0,1-1.6-2.33c-1.89-3.75-3.8-7.63-5.48-11.05l-3-6c-1-2-2.36-4.75-3.75-7.33-1.11-2.07-2.2-4.15-3.3-6.23l-.09-.19c-2.75-5.2-5.58-10.59-8.66-15.71-2.39-4-5.11-7.84-7.75-11.58-1.61-2.27-3-4.29-4.4-6.32q-3.7-5.49-7.35-11l-.17-.24c-4.34-6.53-8.84-13.28-13.39-19.83a166.17,166.17,0,0,0-10.89-13.74l-3.92-4.56c-5.78-6.75-11.7-13.66-18-20-7.23-7.36-15-14.36-22.54-21.13l-3.41-3.08c-7.27-6.55-13.82-12.17-20-17.18-7-5.68-14.8-11.67-24.46-18.87l-3-2.23-.64-.48c-6.26-4.7-12.72-9.55-19.52-13.75s-14-8.13-20.94-11.9c-3.21-1.75-6.53-3.56-9.77-5.37-7.61-4.25-16.83-8.6-27.56-8.6Zm249,295.08c-6.12,0-9.76-3.81-12.79-7.94-1.73-2.36-3.66-4.66-5.52-6.87l-.07-.1-.1-.11c-2.26-2.7-4.6-5.49-6.61-8.42a50,50,0,0,1-7.1-13.83c-1.89-6.37,3.66-11.29,9-13.56a26.54,26.54,0,0,1,10.8-1.92c2,0,4,.12,5.75.22l.27,0c1.69.1,3.61.21,5.47.21h.73c5.93,0,12,1.24,17.77,2.43l1.7.35c1.35.27,3.22,2.65,3.34,4.24l.07.9.08,1.06c.4,4.79.8,9.74-.18,14.34-3,14.24-8.92,23.4-18.53,28.81a.87.87,0,0,1-.47.09l-.5,0c-.27,0-.55-.05-.88-.05a15.37,15.37,0,0,1-2.22.16Z" transform="translate(-977.73 437.37)"/><path class="cls-3" d="M1968.26,602.86a9.18,9.18,0,0,0-5.58,1.95c-4.39,3.28-8.63,6.9-12.74,10.4l-.13.12-3.88,3.3-2.27,1.91c-5.23,4.41-11.17,9.4-16.74,14.3-8.48,7.47-17.19,15.26-26.62,23.81l-1.67,1.52c-4.63,4.2-9.4,8.51-13.8,13.05-6,6.26-12.36,12.45-18.47,18.43l-.18.18c-13.5,13.21-27.43,26.85-39.28,42-3.49,4.47-7.12,8.95-10.63,13.29l-.07.08-.23.28c-3.92,4.84-8,9.84-11.83,14.84-5.31,6.87-10.22,14-13.9,19.5-5.25,7.78-10.82,16.33-17.51,26.89-2.31,3.65-3.21,5.86-2.67,6.56a2.34,2.34,0,0,0,1.76,1.13,3.94,3.94,0,0,0,2.29-1.37,5,5,0,0,1,2.16-1.46l.18,0h.43a.87.87,0,0,0,.31-.05l9.09-3.62,6.56-2.62,4.06-1.62.19-.08c4.27-1.7,8.68-3.46,13-5.13l2.21-.86c3.83-1.48,8.16-3.16,12.4-4.5,2.31-.72,4.58-1.33,7-2,2.85-.77,5.7-1.54,8.66-2.5.24-.13.47-.27.7-.41l.13-.08a5.66,5.66,0,0,1,1.87-.86c1.06-.18,2.13-.28,3.32-.38a27.18,27.18,0,0,0,4.69-.67c3.91-1,7.9-2.19,11.42-3.21,4.87-1.42,9.91-2.88,15-4.14a119.75,119.75,0,0,1,16.6-2.82l4.29-.45c9.38-1,19.08-2,28.69-2.24,1.49,0,3-.1,4.48-.17,2.07-.09,4.15-.19,6.2-.19a36.19,36.19,0,0,1,12,1.72,6.78,6.78,0,0,0,2.2.33,22.61,22.61,0,0,0,5.08-.84,23.47,23.47,0,0,1,5.42-.89h.44c.33,0,.66,0,1,0,7.35,0,12.71-4,18-8.53,2.27-1.93,4.49-2.91,6.58-2.91,2.83,0,5.31,1.76,7.39,5.21,6.63,11.1,9.17,23.33,10.78,33.83,1.4,9.19.71,19.41-2.18,32.16-.17.71-.33,1.43-.49,2.15l-.24,1.07a173.31,173.31,0,0,1-4.43,17.1c-1.75,5.26-4,10.46-6.2,15.48l0,.09c-.7,1.61-1.4,3.22-2.08,4.82l-.78,1.83-.1.24c-2.49,5.84-5.06,11.89-7.84,17.7-.65,1.35-.81,2.15-.51,2.62s.73.52,1.58.52c.26,0,.56,0,.89,0,9.07-.82,16.36-3.29,21.66-7.37,5.9-4.52,11.14-10.11,16.21-15.52l.07-.07c1.73-1.86,3.53-3.78,5.33-5.62a26.77,26.77,0,0,0,2.56-3.31,16,16,0,0,1,4-4.44,6.09,6.09,0,0,1,3.39-1,10.3,10.3,0,0,1,9,6.24c2.75,7.17,5.33,14.49,7.81,21.58l1.29,3.65c.72,2.07,3.91,4.82,5.58,4.82a.93.93,0,0,0,.74-.31c.48-.62,1-1.23,1.53-1.86,2.26-2.69,4.57-5.45,5-8.43,1.08-7.36,1.12-15,1.16-22.34l0-3c.1-12.46.08-25,.06-37.15,0-5.09,0-10.16,0-15.24,0-.34,0-.67,0-1,0-.74,0-1.5,0-2.26-.07-1.17-.14-2.34-.2-3.5v-.11c-.19-3.59-.39-7.29-.75-11-.34-3.46-.83-7-1.3-10.32-.19-1.31-.37-2.59-.54-3.88q-.75-5.6-1.52-11.17l-.16-1.21-1.38-10.21c-.08-.63-.14-1.26-.19-1.89l0-.19a21.26,21.26,0,0,0-.51-3.71c-.86-3.35-1.79-6.74-2.69-10l-.13-.5c-.94-3.41-1.85-6.75-2.72-10.1a9,9,0,0,1-.17-2.15,7.38,7.38,0,0,0-.25-2.36c-.83-2.57-1.8-5.14-2.74-7.62-.54-1.43-1.05-2.79-1.55-4.16-.75-2.08-1.46-4.24-2.09-6.15a98.1,98.1,0,0,0-4.93-12.92c-2.19-4.42-4.72-8.76-7.17-13-2.82-4.85-5.71-9.8-8.1-14.88-4.51-9.61-11.21-18.9-20.47-28.4-8.46-8.68-17.73-16.82-26.7-24.7l-5.1-4.49c-3.57-3.15-6.93-4.74-10-4.74Z" transform="translate(-977.73 437.37)"/><path class="cls-4" d="M1622,244.59c-5,0-9.46,2.1-13.81,4.13-1.9.88-3.84,1.79-5.78,2.51a146.81,146.81,0,0,0-19.88,9.54c-.82.45-1.68.89-2.55,1.33l-.12.06c-4.62,2.33-9.39,4.74-10.24,10.62a78.22,78.22,0,0,0-.32,18c.16,1.73,3.39,4.76,5.08,4.76h.13a179,179,0,0,1,18.3-1.22,68,68,0,0,1,18.82,2.42c8.86,2.53,15.76,7.83,22.44,12.95l.88.67c5.45,4.18,5.37,10.92,5.3,17.45v.37a11.6,11.6,0,0,0,1,3.95c.19.52.37,1,.53,1.49,0,0,.08.05.25.05s.94-.06,1-.2c.19-.68.41-1.37.64-2.07a16.84,16.84,0,0,0,1.15-5.56,43.5,43.5,0,0,0-.93-6.75c-.28-1.43-.59-3.06-.78-4.64-.64-5.61-1.22-11.21-1.86-17.42l-.21-2q-.37-3.74-.77-7.47c-.06-.55-.11-1.1-.17-1.65a57,57,0,0,0-.79-5.91c-.48-2.29-1-4.57-1.69-7.11a96.8,96.8,0,0,1-2.75-13.88c-.63-6.5-3.22-10.67-8.64-13.93a17.79,17.79,0,0,0-4.16-.5Z" transform="translate(-977.73 437.37)"/><path class="cls-4" d="M1124.44,252.37c-5,0-10.78,2.72-12,7.27-1.3,5-2.65,10.09-2.76,15.18-.26,12.57-.2,25.56-.15,37v2.51c0,3.34,0,6.67,0,10a3.65,3.65,0,0,0,.26,1.12c.07.2.14.38.19.56l.5-.39c.37-.28.75-.58.81-.92.91-5.82,4.53-9.76,8.35-13.94l.57-.61c7.63-8.36,16.68-12.66,27.67-13.15,1.31-.06,2.56-.09,3.73-.09a48.08,48.08,0,0,1,18.36,3.19,5.3,5.3,0,0,0,2,.46,6,6,0,0,0,3.22-1.32l.34-.23c2.75-1.77,3.36-4.52,4-7.17a13.47,13.47,0,0,1,2-5.38,14.8,14.8,0,0,0,2.78-5.37c1.07-4.38-1.75-6.44-4.74-8.61l-.12-.09c-.69-.51-1.4-1-2.08-1.59l-4.31-1.38-.46-.15c-3.44-1.09-7-2.21-10.47-3.46-4.36-1.56-8.7-3.23-12.89-4.84q-3-1.19-6.1-2.34c-1.35-.51-2.71-1-4.07-1.5l-.51-.18c-3-1.08-6.37-2.29-9.54-3.7a11.65,11.65,0,0,0-4.67-.91Z" transform="translate(-977.73 437.37)"/><path class="cls-4" d="M1371.28,695.6c-2.83,0-5.66,0-8.49.08l-5.24.07c-.17,0-.44.32-.71.84-.38.71-.68,1.63-.48,1.92l.24.38c4.53,6.86,9.21,14,14.3,20.61.86,1.13,3.43,2,5,2a1.82,1.82,0,0,0,1.1-.27c3.86-3,7.86-6.9,8.21-13.45l1.16-2.54,1.17-2.54c1.07-2.31,1.64-4.07,1-5.16-.5-.85-1.75-1.32-4.06-1.51-3.8-.31-8-.46-13.19-.46Z" transform="translate(-977.73 437.37)"/></svg>