<?xml version="1.0" encoding="utf-8"?>
<!-- Generator: Adobe Illustrator 22.0.1, SVG Export Plug-In . SVG Version: 6.00 Build 0)  -->
<svg version="1.1" id="Draw_Layer" xmlns="http://www.w3.org/2000/svg" xmlns:xlink="http://www.w3.org/1999/xlink" x="0px" y="0px"
	 viewBox="0 0 1804 1482" style="enable-background:new 0 0 1804 1482;" xml:space="preserve">
<style type="text/css">
	.st0{fill:#2C2C2C;}
	.st1{fill:#BEBEBE;}
	.st2{fill:#6EDAF4;}
	.st3{fill:#725AF7;}
</style>
<title>Fox</title>
<path class="st0" d="M1504.4-310.5c0,0.2,0,0.4,0.1,0.6c0.1,0.2,0.2,0.4,0.4,0.6c0.4,0.3,0.9,0.6,1.5,0.8c1.1,0.4,2.3,0.6,3.4,0.7
	c1.4,0.1,2.7,0.1,4,0.1c2,0,3.9,0,5.9,0c0.4,0,0.7-0.3,0.7-0.7c0-0.4-0.3-0.7-0.7-0.7l-5.1,0c-0.7,0-1.4,0-2,0
	c-1.3,0-2.5-0.1-3.8-0.2l0,0c-0.9-0.1-1.8-0.3-2.7-0.7c-0.2-0.1-0.3-0.2-0.5-0.3l0,0c0,0,0-0.1,0-0.1c0-0.4-0.3-0.7-0.7-0.7
	c-0.4,0-0.7,0.3-0.7,0.7L1504.4-310.5z M1505.8-310.3L1505.8-310.3L1505.8-310.3z"/>
<path class="st0" d="M984.7,265c-0.3,0.4-0.5,1.1-0.9,1.2c-5.7,1.6-11.4,3-17,4.7c-3.1,1-5.9,2.5-8.8,3.9c-2.7,1.3-5.5,2.5-8.2,3.9
	c-3.9,2.1-7.8,4.3-11.7,6.5c-3,1.7-6,3.4-8.9,5.3c-1.4,1-2.7,2.1-3.9,3.2c-4.1,3.3-8.2,6.5-12.2,9.9c-4.4,3.7-8.8,7.5-12.8,11.6
	c-3.9,4.1-7.6,8.5-11.1,13c-2.2,2.8-3.9,6-5.9,9c-0.5,0.4-1.1,0.7-1.8,0.6c-2.7-0.3-5.4-0.6-8.1-1c-5.2-0.7-10.7-0.4-15.4-2.2
	c-3.9-1.5-7.7-1.3-11.4-1.5c-16.2-0.9-32.5-1.3-48.7-1.4c-5.4,0-10.8,1.2-16.2,1.8c-0.2,0-0.5,0-0.7,0c-0.2,0-0.4,0-0.6,0
	c-6.7,0.6-13.4,1.2-20.1,2c-3.8,0.4-7.7,0.7-11.2,2c-6.6,2.4-13.3,1.5-19.7,0.9c-6.6-0.6-12.3-4.1-15.2-11c-1.5-3.4-4.1-6.5-6.6-9.3
	c-5.6-6.3-11.1-12.9-17.4-18.5c-5-4.5-10.9-8.1-16.6-11.7c-4.9-3.2-10-6.1-15.3-8.6c-4.7-2.2-9.9-3.5-14.9-5.1
	c-3.4-1.1-6.7-2.4-10.2-3c-3.6-0.7-7.4-0.7-11.1-0.9c-0.4,0-1.1,0.7-1.2,1.3c-0.9,3.8-1.9,7.5-2.6,11.3c-0.8,3.8-1,7.6-2,11.2
	c-3,10.4-1.5,21-1.9,31.5c-0.1,2.8-0.1,5.8,0.7,8.5c1.9,6.8,1.6,14,4.9,20.5c1.6,3.1,1.8,6.8,2.9,10.2c1.2,3.5,2.5,7,4.1,10.4
	c2.8,5.7,2.3,11.3,0.2,17c-2.9,7.9-8.2,14.4-13.3,20.9c-5,6.5-10.7,12.4-16.3,18.4c-5.6,6-11.5,11.9-17.6,17.5
	c-5.1,4.7-10.5,9.1-16,13.4c-4.3,3.4-8.8,6.5-13.4,9.5c-5.5,3.5-11.2,6.6-16.7,9.9c-1.6,0.9-3.2,1.8-5,2.8c-0.2,1-0.2,2.1,0,3.1
	c0.8,0.2,1.6,0.3,2.1,0.7c4.6,4,9.1,8.1,13.6,12.2c8.4,7.7,16.9,15.5,25.3,23.3c8.1,7.5,16.2,14.9,24.3,22.4
	c8.4,7.8,16.9,15.5,25.3,23.3c5.4,5,10.5,10.2,15.9,15.2c2.9,2.7,6.2,5.2,9.1,7.9c4.5,4.2,8.9,8.4,13.3,12.7
	c0.4,0.6,0.4,1.3,0.2,1.9c-2.4,3.2-4.9,6.2-7.3,9.4c-4.8,6.3-9.5,12.6-14.3,18.8c-0.6,0.8-1.4,1.4-1.8,2.2
	c-2.6,4.2-5.1,8.3-7.6,12.5c-2.7,4.6-5.6,9.2-8,14s-4.7,9.8-7,14.7c-1.7,3.8-3.6,7.5-4.8,11.4c-1.7,5.6-2.7,11.3-4,17
	c-0.4,1.7,0,3.8-0.8,5.2c-2.8,5.1-0.9,10.6-1.4,15.9c-0.6,5.7,1,11.7,1.5,17.5c0.3,4,0.4,8.1,0.7,12.1c0.1,1.2,1.5,3,1.1,3.3
	c-2,2-1.1,4.3-1.1,6.4c0,6.3-0.9,12.5-2.6,18.5c-0.3,1.3,0,2.8-0.3,4.1c-0.9,3.4-2.1,6.7-3,10.2c-0.9,3.6-1.4,7.2-2.3,10.8
	c-1.1,4.7-2.6,9.4-3.6,14.2c-0.9,4.1-1.5,8.4-2,12.6c-0.4,3.9-0.7,7.9-0.7,11.8c0.1,13,0.3,25.9,0.7,38.9c0.1,4,0.9,7.9,1.3,11.9
	c0.1,1.5,0.3,2.9,0.6,4.3c1,4.4,2.2,8.7,3.2,13c1,3.9,1.7,7.8,2.9,11.5c1.5,4.7,3.3,9.3,4.9,14c1.2,3.2,2.4,6.4,3.6,9.6
	c1.4,4,2.8,8,4.3,11.9c1.1,2.8,2.4,5.5,3.5,8.3c2.1,5.3,4.2,10.7,6.2,16c1,2.7,2,5.5,3,8.2c1.6,4.1,3.3,8.2,4.8,12.4
	c1.1,2.9,1.8,6,2.8,8.9c1.6,4.8,3.6,9.4,5,14.3c1.6,5.7,2.9,11.5,3.9,17.3c0.9,5.3,1.5,10.7,2,16.1c0.4,5,0.7,10,0.6,15.1
	c0,5.9-0.4,11.8-0.6,17.7c-0.4,10.4-0.4,20.7-1,31.1c-0.8,14.9-1.5,29.9,0.9,44.8c0.7,4,0.2,8.1,0.8,12.1c0.7,4.2,2,8.3,3.2,12.4
	c1.6,5.3,2.8,10.8,5.1,15.8c3.3,7.1,6.3,14.5,12.1,20.1c4.1,4,8,8.2,12.2,12.1c5,4.6,11.1,6.5,17.7,7.6c9.2,1.6,17-0.9,23.8-6.8
	c6.3-5.4,11.1-12.2,14.3-19.8c2.6-6.3,5.7-12.2,7-19c1-4.8,2.5-9.4,3.7-14.1c1-4,1.7-8,2.7-11.9c0.9-3.6,2.2-7.1,3.1-10.8
	c1-4.2,1.8-8.4,2.6-12.6c0.2-1.3-0.2-2.7,0.1-3.9c1-4.3,2.3-8.4,3.2-12.7c0.9-4.7,1.4-9.4,2.1-14.2c0.8-5.7,1.6-11.5,2.6-17.2
	c0.4-2,0.9-3.9,1.6-5.9c1.4,0.6,2.7,1.3,4.1,1.9c0.2,0,0.3,0,0.5,0c0.2,0,0.3,0,0.5,0c3,0.9,6,1.9,8.9,2.8c5.4,1.7,10.8,3.4,16.2,5
	c2.8,0.8,5.7,1.5,8.7,1.9c5.7,0.8,11.4,1.8,17.1,1.9c11.2,0.3,22.4,0.6,33.5-1.8c0.2,0,0.9,0.7,0.9,1.1c0.5,5.4-0.3,10.7,1.1,16.2
	c1.3,4.9,0.6,10.2,0.9,15.3c0.3,4.6,0.8,9.2,1.3,13.8c0.1,1.8,0.3,3.5,0.7,5.3c1,4.1,2.3,8.2,3.2,12.4s1.5,8.3,2.5,12.4
	c0.9,3.7,2.4,7.3,3.4,11c1,3.7,1.6,7.4,2.8,10.9c2,5.7,4.4,11.2,7.1,16.6c2.6,5.2,5.5,10.2,8.9,14.9c3,4.3,6.9,7.9,11.5,10.5
	c4,2.2,7.7,5.1,12.6,5.2c0.1,0,0.2,0.8,0.4,1.2c6.4,0,12.6,0,18.8-0.2c-0.1-0.4-0.2-0.7-0.4-1.1c4.7,0.1,8.8-1.9,12.7-4
	c4.1-2.2,8.3-4.5,11.9-7.6c5.2-4.5,9.5-9.8,13-15.7c2.9-4.9,5.3-10,7.1-15.3c1.1-3.2,1.4-6.6,2.2-9.9c1-4.3,2.6-8.6,3.1-13
	c0.8-5.3,1-10.7,0.6-16c-0.7-8.9,0.1-17.8-1.6-26.6c-1.2-6-0.6-12.3-2-18.4c-1.2-5-0.8-10.3-1.9-15.5c-1.1-4.9-0.8-10.1-2.1-15.2
	c-1.2-4.6-1.8-9.4-2-14.2c-0.3-7.4-1.5-14.7-1.8-22c-0.4-11.2-1.5-22.5,0.9-33.7c1-4.5,0.8-9.2,1.9-13.9c1.2-5.2,1.9-10.4,4.1-15.3
	c0.7-1.6,0.7-3.8,1.7-5.1c1.7-2.3,3.5,0.3,5.3,0.5c5.8,0.7,11.7,0.7,17.5,1.8c6,1.2,12.4,0.8,18.6,0.8c7.8,0,15.7-0.3,23.5-0.6
	c4.6-0.2,9.2-0.8,13.8-1.3c2.2-0.1,4.4-0.4,6.6-0.7c4.8-1,9.5-2.2,14.3-3.2c3.9-0.9,7.8-1.5,11.7-2.4c4.1-1,8.2-2.3,12.3-3.5
	c5.1-1.5,10.4-2.8,15.3-4.7c7.6-2.9,15.1-6,22.5-9.4c6.9-3.2,13.6-6.6,20.1-10.4c6.7-3.9,13.1-8.5,19.5-12.9c4.1-2.8,8.1-5.7,12-8.8
	s7.6-6,11.2-9.2c4.3-3.9,8.6-7.8,12.6-12c5-5.3,9.8-10.9,14.6-16.5c3.7-4.3,7.4-8.7,11.1-13c1-1.1,1.9-2.3,2.7-3.5
	c3-4.6,5.9-9.3,8.9-14c2-3,4.3-5.8,6.1-8.9c2.7-4.8,5.2-9.8,7.7-14.7c1.6-3,3.2-6,4.6-9.2c2.1-5,4.1-10,6-15.1s3.6-10,5.2-15.1
	c1.1-3.4,1.7-6.9,2.7-10.3c1.7-5.9,3.6-11.8,5.1-17.8c0.9-3.7,1.4-7.5,2-11.2c0.3-1.5,0.3-3.1,0.7-4.6c1-4.8,2.3-9.5,3.2-14.3
	c0.8-4.5,1.4-9,2-13.5c0.7-5.3,0.5-10.6,1.8-15.9c1.1-4.6,0.6-9.6,0.9-14.4c0-0.8,0.2-1.7,0.2-2.5c0.5,0.6,1.1,1.2,1.7,1.7
	c0-25.7,0-51.3-0.2-76.9c-0.4,0.4-0.8,0.8-1.2,1.3c-0.2-0.4-0.6-0.8-0.6-1.2c0.1-4.1-0.5-8.1-1.9-12c-1.5-4-1.9-8.4-2.7-12.6
	c-0.2-0.9,0-2-0.3-2.8c-1.6-4.6-3.3-9.1-5-13.6c-1.5-4.1-2.8-8.2-4.6-12.1c-2.8-5.8-5.9-11.5-9.1-17.1c-3-5.1-6.3-10.1-9.7-14.9
	c-2.5-3.6-5.3-7.1-8.3-10.3c-7.5-7.7-15-15.4-22.8-22.8c-3.3-3.1-8-3.5-12.2-2.6c-5.7,1.2-9.8,5.4-14.2,8.9
	c-5.8,4.6-11.3,9.7-16.8,14.7c-9.1,8.3-18.3,16.5-27.1,25.2c-12.1,12-23.8,24.4-35.6,36.8c-4.7,4.9-9,10.2-13.4,15.3
	c-3,3.5-5.9,7.1-8.8,10.7c-4.3,5.5-8.6,11-12.7,16.6c-2.4,3.3-4.4,6.9-6.5,10.4c-2.4,3.9-4.8,7.8-7.1,11.7s-4.5,7.7-6.5,11.7
	c-2.1,3.9-4.1,7.9-5.9,11.9c-2.1,4.8-4.2,9.6-5.9,14.5c-1.8,5.3-3.1,10.7-4.6,16c-1.7,5.9-3.6,11.8-5.2,17.8
	c-0.9,3.8-1.6,7.7-2,11.6c-0.7,5.9-0.7,11.9-1.8,17.8c-1.1,6.5-0.6,13.3-0.9,19.9c-0.3,7.2-0.9,14.4-1.3,21.6c0,0.1,0,0.2,0,0.3
	c-0.7,6-1.2,12.1-2,18.1c-0.7,5.3-1.4,10.7-2.4,16c-0.9,4.7-2.2,9.3-3.5,13.9c-1.5,5.4-2.7,10.9-4.9,15.9c-3.2,7-6.7,14-11.1,20.2
	c-4.7,6.7-10,12.9-15.9,18.5c-5.1,5-11.2,8.9-17,13.3c-1.1,0.7-2.3,1.3-3.5,1.7c0.3-0.8,0.8-1.6,0.8-2.5c0.1-6.7,0.7-13.5,1.8-20.1
	c1.1-6.1,0.8-12.4,0.8-18.6c0-9.9-0.3-19.8-0.7-29.7c-0.2-5.5,0.8-11-1.1-16.5c-1.2-3.6-0.6-7.8-0.9-11.7c-0.4-4.6-0.8-9.2-1.3-13.8
	c-0.1-1.8-0.4-3.5-0.7-5.3c-1-4.8-2.2-9.6-3.2-14.3c-0.7-3-1.7-6-1.9-9c-0.5-6-2.3-11.6-3.9-17.3c-1.6-5.7-2.9-11.6-4.4-17.4
	c-1.3-5-3.8-9.9-3.9-14.9c-0.2-9.8-1.4-19.8,1.6-29.6c1.3-4.1,1.6-8.5,2-12.9c0.4-4.5,0.7-8.9,0.7-13.4c0-5.1-0.3-10.3-0.6-15.4
	c-0.3-3.8-0.8-7.7-1.5-11.5c-1-5-2.4-9.9-3.7-14.8c-0.9-3.2-1.6-6.5-3-9.5c-2.2-4.9-4.9-9.5-7.4-14.2c-2.1-3.9-4.1-8-6.6-11.6
	c-2.9-4.1-6.4-7.8-9.6-11.7c-1.2-1.4-1.8-2.6,0-4.1c5.8-5,11.5-10.1,17.2-15.2c3.5-3.2,6.9-6.5,10.4-9.7c2.8-2.5,5.8-4.9,8.7-7.3
	c5.7-4.5,11.5-9,17.2-13.5c2.8-2.2,5.6-4.3,8.4-6.5l17.1-13.2c3.7-2.9,7.3-5.8,11.2-8.5c5.1-3.6,10.3-7,15.6-10.4
	c5-3.2,9.9-6.5,15.1-9.3s5.5-4.5,0.6-8.1c-4.6-3.4-9.1-6.9-13.7-10.4c-3.6-2.8-7.3-5.6-10.9-8.4c-4.9-3.8-9.9-7.6-14.8-11.4
	c-4.4-3.4-8.6-7-13-10.4c-6-4.4-12.3-8.4-18.1-13c-6.1-5-11.9-10.5-15.7-17.5c-1-1.8-2.3-3.5-2.7-5.4c-1.7-7.2-1-13.8,4.8-19.3
	c3.2-3.2,5.9-6.7,8.1-10.7c3.2-5.7,6-11.6,8.6-17.6c2.1-4.6,3.8-9.3,5.2-14.1c1.7-6.3,3-12.8,3.9-19.3c0.7-5.6,0.7-11.3,0.7-17
	c0-3.9-0.4-7.9-0.6-11.8c0-0.5,0-1.1,0-1.6c-1.1-4.6-2.1-9.1-3.3-13.7c-1.1-4.2-2.5-8.3-3.8-12.5c-0.7-2.1-1.4-4.2-2.2-6.3
	L984.7,265z M941.8,305c-0.4-4.2-0.3-8.4,0.2-12.6c0.6-4.1,3.9-5.8,7.1-7.4l0.1,0c0.6-0.3,1.2-0.6,1.8-0.9c4.4-2.6,9.1-4.8,13.9-6.7
	c1.4-0.5,2.7-1.1,4-1.8c3-1.4,6.2-2.9,9.6-2.9c1,0,2,0.1,2.9,0.3c3.8,2.3,5.6,5.2,6,9.7c0.4,3.3,1,6.5,1.9,9.7
	c0.4,1.8,0.8,3.4,1.2,5c0.3,1.4,0.4,2.7,0.6,4.1c0,0.4,0.1,0.8,0.1,1.2c0.2,1.7,0.4,3.5,0.5,5.2l0.1,1.4c0.4,4.3,0.9,8.2,1.3,12.2
	c0.1,1.1,0.3,2.2,0.5,3.2c0.3,1.5,0.6,3.1,0.6,4.7c0,1.3-0.3,2.6-0.8,3.9c-0.2,0.5-0.3,1-0.4,1.5c0,0.1-0.5,0.1-0.7,0.1
	c-0.2,0-0.2,0-0.2,0c-0.1-0.3-0.2-0.7-0.4-1c-0.4-0.9-0.6-1.8-0.7-2.8v-0.3c0-4.6,0.1-9.3-3.7-12.2l-0.6-0.5
	c-4.7-3.6-9.5-7.3-15.6-9c-4.3-1.2-8.7-1.7-13.1-1.7c-4.3,0.1-8.5,0.4-12.8,0.9h-0.1C944.1,308.4,941.9,306.3,941.8,305L941.8,305z
	 M621.3,329.2c-0.1-0.3-0.2-0.5-0.2-0.8c0-2.3,0-4.7,0-7v-1.8c0-8-0.1-17.1,0.1-25.8c0.1-3.6,1-7.1,1.9-10.6
	c0.8-3.2,4.9-5.1,8.4-5.1c1.1,0,2.2,0.2,3.3,0.6c2.2,1,4.6,1.8,6.7,2.6l0.3,0.1c1,0.3,1.9,0.7,2.8,1c1.4,0.5,2.8,1.1,4.3,1.6
	c2.9,1.1,6,2.3,9,3.4c2.4,0.9,4.9,1.7,7.3,2.4l0.3,0.1l3,1c0.5,0.4,1,0.8,1.5,1.1l0.1,0.1c2.1,1.5,4,3,3.3,6c-0.4,1.4-1,2.6-1.9,3.7
	c-0.7,1.1-1.2,2.4-1.4,3.8c-0.4,1.8-0.8,3.8-2.8,5L667,311c-0.6,0.5-1.4,0.8-2.2,0.9c-0.5,0-1-0.1-1.4-0.3
	c-4.1-1.6-8.4-2.3-12.8-2.2c-0.8,0-1.7,0-2.6,0.1c-7.7,0.3-14,3.3-19.3,9.2l-0.4,0.4c-2.7,2.9-5.2,5.7-5.8,9.7
	c0,0.2-0.3,0.4-0.6,0.6l-0.3,0.3l0,0l0,0C621.6,329.5,621.5,329.4,621.3,329.2L621.3,329.2z M888.8,342.3c0.9-1.2,1.8-2.4,2.7-3.7
	c1.5-2.1,2.8-4,4.4-5.9c1-1.1,2-2.3,3-3.5c4.7-5.5,9.5-11.2,14.9-16.2c3.9-3.5,8-6.7,12.3-9.7c1.6-1.2,3.5-2.5,5.2-3.8
	c0.7-0.5,1.4-0.9,2.1-1.3c0.3-0.2,0.6-0.4,1-0.6l0,0c0,0.4-0.1,0.8-0.1,1.2v0.1c0,1-0.1,1.9-0.4,2.8c-1.9,4.7-1.9,9.6-1.9,14.2v0.3
	c0,4.4,0.7,6,2.6,6c1,0,2.3-0.4,4.3-1.4c3.6-1.7,7.3-3.1,11.1-4.1c4-1.2,8.2-1.7,12.4-1.7c0.9,0,1.9,0,2.9,0.1
	c8,0.4,14,4.2,18.6,11.9c4.9,8,4.2,16.1,2.9,24.3c-0.5,3-2,5.8-3.4,8.6c-0.3,0.6-0.6,1.1-0.9,1.7c-2.8,5.5-6.3,10.7-10.5,15.3
	c-2.1,2.4-4,5-5.6,7.7c-0.9,1.4-1.9,2.9-2.9,4.3c-3.9,5.4-4.2,11.5-3.9,17.3c0.2,4.2-2,7.6-6,9.4c-2.2,0.9-4.3,2-6.4,3l-0.2,0.1
	c-4.5,2.2-9.1,4.2-13.8,5.9c-8.3,2.8-15.7,7.4-22.8,12c-3.6,2.3-7.3,4.8-10.8,7.1l-0.2,0.1c-2.5,1.7-5.7,3.9-8.7,5.8
	c-9.8,6.3-18.1,14.2-24.9,21c-1.5,1.4-3.1,2.8-4.6,4.1c-1.8,1.4-3.5,2.9-5.1,4.6c-6.8,7.2-12.8,13.8-18.2,20.2
	c-4.8,5.6-9.8,11.6-14,18c-4.7,7.1-9,14.8-13,22.1l-0.8,1.5c-1,2.1-1.8,4.3-2.3,6.6l-0.1,0.4c-0.1,0.3-0.1,0.5-0.2,0.8
	c-0.9,3.4-1.7,6.8-2.5,10.1v0.1c-0.4,1.5-0.7,3.1-1.1,4.6c0,0.2-0.1,0.4-0.2,0.6v0.1c0,0.1-0.1,0.1-0.1,0.2l0,0l0,0l0,0l-0.1-0.2
	l-0.1-0.2l-0.2-0.4c-0.7-1.6-1.4-3.2-2.1-4.9l-0.1-0.3c-1.6-3.7-3.2-7.4-4.8-11.2c-2.3-5-4.6-9.8-6.7-13.9c-1-2.1-2.2-4.1-3.5-6.1
	c-1.6-2.3-3.3-4.7-4.9-7l-0.1-0.2c-1.9-2.7-3.9-5.5-5.8-8.3c-5.1-7.6-10.9-14.7-17.3-21.2c-3.3-3.3-6.5-6.9-9.5-10
	c-3.8-4.1-7.8-8.4-11.9-12.4c-6-5.9-12.4-11.5-18.5-16.6c-5.7-4.8-11.7-9.4-17.4-13.8l-1-0.8c-5-3.9-10.3-7.6-14.7-10.9
	c-1.2-0.9-2.4-1.7-3.6-2.6l-0.6-0.4c-4.4-3.2-8.9-6.5-13.5-9.3c-5.9-3.5-11.9-6.8-18.1-9.7c-1.4-0.6-2.8-1-4.3-1.2
	c-1.3-0.2-2.7-0.6-3.9-1.1c-1.9-0.9-3.6-2.2-5.2-3.6l-0.6-0.5c0,0,0-0.1,0-0.1c0.1-0.8,0.4-1.6,1-2.2c3.9-4.4,4.8-11.6,2-16.9
	c-3.8-7-7.2-14-10.1-20c-0.2-0.6-0.3-1.3-0.2-2c0-0.5,0-1-0.1-1.5c-0.2-0.9-0.4-1.8-0.7-2.8c-0.9-3.7-1.8-7.4-0.9-11.2
	c1-4.3,2.2-8.9,4.7-13.1c2.8-4.8,7.1-7.2,11.6-9.6l0.3-0.2c1.6-0.9,4-1.3,6.9-1.3c5.1,0,10.4,1.4,12.8,3.5c1.9,1.7,4.1,3.2,6.3,4.4
	c0.4,0.2,0.9,0.3,1.3,0.3c2.9,0,6.6-3.6,6.9-6.8c0.3-3.2,0.7-7.1,1.3-10.9c0.5-2.5,2.7-4.3,5.2-4.2c1.2,0,2.4,0.5,3.3,1.3
	c1.1,1.1,2.3,2.2,3.4,3.2l0.1,0.1c4.3,4,8.8,8.2,12.5,12.9c3.6,4.5,6.7,9.5,9.6,14.4l0,0.1c1.2,1.9,2.4,3.9,3.6,5.8
	c1.8,2.9,4.5,6.1,9.3,6.1h0.5c1,0,2-0.1,3.1-0.1c2.7,0,5.4-0.2,8-0.6c2.5-0.5,5-1.1,7.4-1.9c1.6-0.5,3.1-0.9,4.6-1.3
	c0.8-0.2,1.6-0.2,2.4-0.2c0.6,0,1.2,0,1.8-0.1c1.4-0.2,2.8-0.4,4.2-0.6c3.8-0.5,7.7-1,11.5-1.8c4.5-1,9.1-1.1,13.6-1.3
	c3.8,0,7.6-0.3,11.4-0.9c5.3-0.8,10.7-1.2,16.1-1.1c5.1,0,10.1,0.3,14,0.6c2.3,0.2,4.6,0.3,6.8,0.4h0.4h0.1
	c5.1,0.3,10.3,0.6,15.5,1.2c4.4,0.5,9.1,1.1,13.9,2c2.5,0.5,5.1,1,7.6,1.6c3.5,0.8,7.1,1.6,10.8,2.1c1.3,0.2,2.5,0.3,3.8,0.3
	C884.9,345.4,887.1,344.5,888.8,342.3L888.8,342.3z M764.1,655.9L764.1,655.9L764.1,655.9c-1.6-0.4-3.1-0.9-4.6-1.2
	c-1.4-0.3-2.7-0.6-4.2-0.8c-2.7-0.5-5.4-1.1-8.1-1.8c-2.9-0.9-5.7-2-8.4-3.2c-1.3-0.5-2.6-1.1-4-1.6c-1.3-0.5-2.6-1-3.9-1.5
	c-2.4-0.9-4.9-1.8-7.4-2.9c-2.8-1.2-5.5-2.5-8.1-4c-5.7-3.3-10.8-6.3-15.9-9.7c-2.6-1.8-5.2-3.7-7.8-5.6c-2.3-1.7-5-3.7-7.6-5.4
	c-7-4.6-13.6-9.9-19.6-15.7c-2.7-2.6-5.6-5.1-8.2-7.3c-3.1-2.7-6.4-5.5-9.3-8.4c-10-9.9-20-20-29.8-29.7l-0.5-0.5
	c-9.7-9.7-19.7-19.7-29.6-29.5c-6.2-6.1-12.9-11.9-18.6-16.6c-4.5-3.8-9.3-7.3-14-10.7l-2.4-1.8c-3.5-2.6-7.1-5-10.7-7.4l-0.5-0.3
	c-0.3-0.2-0.6-0.3-0.8-0.5l0,0h-0.1c-0.6-0.3-1.1-0.6-1-0.9c0-0.3,0.6-0.8,2-1.4c4.2-1.8,8-4.6,11.7-7.3l1.2-0.9
	c5.1-3.7,10.6-7.8,16.6-12.7c4.1-3.3,8.5-7,13.3-11.3l2.2-1.9c4.9-4.4,10.1-9,14.8-13.8c4.4-4.5,8.4-9.3,13.2-15.1
	c1.2-1.6,2.4-3.2,3.4-4.9c1-1.7,2.2-3.4,3.4-5c2.7-3.3,6-5.1,9.9-5.4c0.6,0,1.2-0.1,1.9-0.1c7.5,0,14,3,19.2,6
	c2.3,1.3,4.6,2.5,6.8,3.7c4.8,2.6,9.8,5.3,14.6,8.3c4.8,3,9.3,6.3,13.6,9.6l0.4,0.3l2.1,1.6c6.7,5,12.2,9.2,17.1,13.2
	c4.3,3.5,8.9,7.4,14,12l2.4,2.1c5.2,4.7,10.7,9.6,15.7,14.7c4.4,4.4,8.5,9.3,12.6,14c0.9,1.1,1.8,2.1,2.7,3.2
	c2.7,3.1,5.2,6.3,7.6,9.6c3.2,4.6,6.3,9.3,9.3,13.8l0.1,0.2c1.7,2.6,3.4,5.1,5.1,7.7c1,1.4,1.9,2.8,3.1,4.4c1.8,2.6,3.7,5.3,5.4,8.1
	c2.1,3.6,4.1,7.3,6,11l0.1,0.1c0.8,1.5,1.5,2.9,2.3,4.3c1,1.8,1.9,3.7,2.6,5.1l2.1,4.2c1.2,2.4,2.5,5.1,3.8,7.7
	c0.3,0.6,0.7,1.1,1.1,1.6c0.2,0.2,0.3,0.4,0.5,0.6l0.2-0.7c0.1-0.4,0.3-0.9,0.5-1.3c0.5-1.2,0.9-2.3,1.4-3.5l0.1-0.2
	c1.1-2.8,2.2-5.7,3.4-8.6c1.3-3,2.8-6.1,4.6-9.5c2.1-4.1,4.5-8.3,7.2-13l0.2-0.3l0.1-0.2c2.6-4.5,5.2-9.2,8-13.7
	c2.9-4.7,6.1-9.5,10.2-15.3c1-1.4,2.1-2.7,3.2-3.9l0.2-0.2c0.3-0.3,0.6-0.7,0.9-1c1.8-1.9,3.5-3.9,5.2-5.9
	c4.3-4.8,8.7-9.8,13.3-14.5c5.8-6.2,11.8-12,18.2-17.6c6.4-5.4,13.4-10.3,20.1-15l1.3-0.9c5.5-3.9,11.5-8,17.8-11.5
	c3.7-2.1,7.6-3.9,11.4-5.6l0.2-0.1c1.8-0.8,3.7-1.7,5.5-2.5c1.4-0.7,2.8-1.4,4-2.1c2.6-1.4,5.2-2.6,7.9-3.7c1.4-0.5,2.7-1.1,4-1.6
	l0.1,0c3.3-1.4,6.7-2.9,10.5-2.9c0.3,0,0.5,0,0.8,0c2,0.2,4,1,5.5,2.3c1.9,1.6,3.7,3.5,5.5,5.3l0,0.1c1,1,2,2.1,3.1,3.1l2.3,2.2
	l0.1,0.1c3.9,3.7,7.9,7.6,11.9,11.3c3.6,3.3,7.6,6.6,12.1,10.2c4.5,3.5,10.1,7.8,15.7,11.8c6,4.2,12.4,8.4,18,12.1
	c1.9,1.3,3.8,2.5,5.7,3.8c0.4,0.2,0.8,0.4,1.2,0.6c0.5,0.2,1,0.5,1.4,0.8c1.4,1.1,2.1,2.5,1.9,3.9c-0.2,1.4-1.3,2.8-3.1,3.7
	c-0.7,0.4-1.4,1-2,1.6c-0.4,0.5-0.9,0.9-1.4,1.2l-0.6,0.4l-0.7,0.5c-6.2,4.3-12.7,8.8-19.1,13c-2.5,1.6-5,3.2-7.4,4.7l-0.2,0.1
	c-2.8,1.7-5.6,3.5-8.4,5.3c-6.8,4.6-13.5,9.3-19.7,13.8c-2.9,2.1-5.9,4.4-8.9,6.9c-3,2.5-6.1,5.2-9,7.7c-1.8,1.6-3.6,3.1-5.4,4.7
	c-1.5,1.3-3.1,2.6-4.6,3.9c-2.9,2.4-5.9,4.9-8.6,7.5c-6.1,5.7-12.4,11.6-17.9,16.9l-8.4,8L920,591l-0.1,0.1
	c-2.7,2.6-5.5,5.3-8.4,7.8c-5.2,4.6-9.3,8.1-13.3,11.3c-6.4,5.1-11.7,9.2-16.6,12.7c-5.6,4-11.6,8.2-17.9,12
	c-6.7,4-13.7,7.7-20.9,11.1c-3.4,1.5-6.9,2.8-10.5,3.8c-1.2,0.4-2.3,0.7-3.5,1.1c-2.4,0.8-5,1.5-7.4,2.2l-0.3,0.1l-3.4,1
	c-2.2,0.5-4.3,0.8-6.3,1.1h-0.1c-2.7,0.4-5.3,0.9-8,1.5c-4.2,1.1-8.6,1.6-12.9,1.5c-2.6,0-5.3-0.1-7.9-0.2c-2.3-0.1-5.2-0.2-7.9-0.2
	h-1.3C770.4,657.7,767.2,656.8,764.1,655.9L764.1,655.9z M1081.9,670.9c-0.4-0.5,0.3-2,1.9-4.6c4.7-7.4,8.6-13.3,12.2-18.8
	c2.6-3.8,6-8.8,9.7-13.6c2.7-3.5,5.5-7,8.3-10.4l0.2-0.2l0,0c2.4-3,5-6.2,7.4-9.3c8.3-10.6,18-20.1,27.4-29.3l0.1-0.1
	c4.3-4.2,8.7-8.5,12.9-12.9c3.1-3.2,6.4-6.2,9.6-9.1l1.2-1.1c6.6-6,12.7-11.4,18.6-16.6c3.9-3.4,8-6.9,11.7-10l1.6-1.3l2.7-2.3
	l0.1-0.1c2.9-2.4,5.8-5,8.9-7.3c1.1-0.9,2.5-1.3,3.9-1.4c2.1,0,4.5,1.1,7,3.3l3.6,3.1c6.3,5.5,12.7,11.2,18.6,17.2
	c6.5,6.6,11.1,13.1,14.3,19.8c1.7,3.5,3.7,7,5.7,10.4c1.7,2.9,3.5,6,5,9.1c1.4,2.9,2.5,5.9,3.4,9c0.4,1.3,0.9,2.8,1.5,4.3
	c0.3,1,0.7,1.9,1.1,2.9c0.7,1.7,1.3,3.5,1.9,5.3c0.1,0.5,0.2,1.1,0.2,1.6c0,0.5,0,1,0.1,1.5c0.6,2.3,1.2,4.7,1.9,7l0.1,0.3
	c0.6,2.3,1.3,4.7,1.9,7c0.2,0.9,0.3,1.7,0.4,2.6v0.1c0,0.4,0.1,0.9,0.1,1.3l1,7.1l0.1,0.9c0.3,2.6,0.7,5.2,1.1,7.8
	c0.1,0.9,0.2,1.8,0.4,2.7c0.3,2.4,0.7,4.8,0.9,7.2c0.3,2.6,0.4,5.1,0.5,7.7v0.1c0,0.8,0.1,1.6,0.1,2.4c0,0.5,0,1.1,0,1.6
	c0,0.2,0,0.5,0,0.7c0,3.5,0,7.1,0,10.6c0,8.5,0,17.2,0,25.9v2.1c0,5.1-0.1,10.5-0.8,15.6c-0.3,2.1-1.9,4-3.5,5.9
	c-0.4,0.4-0.7,0.9-1.1,1.3c-0.1,0.1-0.3,0.2-0.5,0.2c-1.2,0-3.4-1.9-3.9-3.4l-0.9-2.5c-1.7-4.9-3.5-10.1-5.4-15.1
	c-1.1-2.5-3.6-4.2-6.3-4.4c-0.8,0-1.7,0.2-2.4,0.7c-1.1,0.8-2.1,1.9-2.8,3.1c-0.5,0.8-1.1,1.6-1.8,2.3c-1.3,1.3-2.5,2.6-3.7,3.9l0,0
	c-3.5,3.8-7.2,7.7-11.3,10.8c-3.7,2.8-8.8,4.6-15.1,5.1c-0.2,0-0.4,0-0.6,0c-0.6,0-0.9-0.1-1.1-0.4c-0.2-0.3-0.1-0.9,0.4-1.8
	c1.9-4.1,3.7-8.3,5.5-12.3l0.1-0.2l0.5-1.3c0.5-1.1,1-2.2,1.5-3.4v-0.1c1.5-3.5,3.1-7.1,4.3-10.8c1.2-3.9,2.3-7.9,3.1-11.9l0.2-0.7
	c0.1-0.5,0.2-1,0.3-1.5c2-8.9,2.5-16,1.5-22.4c-1.1-7.3-2.9-15.9-7.5-23.6c-1.5-2.4-3.2-3.6-5.2-3.6c-1.5,0-3,0.7-4.6,2
	c-3.7,3.1-7.4,6-12.6,6h-0.7h-0.3c-1.3,0.1-2.5,0.3-3.8,0.6c-1.2,0.3-2.3,0.5-3.5,0.6c-0.5,0-1-0.1-1.5-0.2
	c-2.7-0.9-5.5-1.3-8.4-1.2c-1.4,0-2.9,0.1-4.3,0.1c-1,0-2.1,0.1-3.1,0.1c-6.7,0.1-13.5,0.9-20,1.6l-3,0.3c-3.9,0.4-7.8,1-11.6,2
	c-3.5,0.9-7.1,1.9-10.5,2.9c-2.5,0.7-5.2,1.5-8,2.2c-1.1,0.2-2.2,0.4-3.3,0.5c-0.8,0.1-1.6,0.1-2.3,0.3c-0.5,0.1-0.9,0.3-1.3,0.6
	l-0.1,0.1c-0.2,0.1-0.3,0.2-0.5,0.3c-2.1,0.7-4.1,1.2-6,1.8c-1.7,0.5-3.3,0.9-4.9,1.4c-3,0.9-6,2.1-8.7,3.1l-1.5,0.6
	c-3,1.2-6.1,2.4-9.1,3.6l-0.1,0.1l-2.8,1.1l-4.6,1.8l-6.3,2.5c-0.1,0-0.1,0-0.2,0h-0.3h-0.1c-0.6,0.2-1.1,0.6-1.5,1
	c-0.5,0.5-1,1-1.6,1c-0.5-0.1-1-0.3-1.2-0.8L1081.9,670.9z M792.2,664L792.2,664l0.7-0.1l1.2-0.1c1.3-0.1,2.6-0.2,3.9-0.3h0.1
	c5.1-0.4,10.3-0.9,15.3-1.7c5.3-1,10.5-2.2,15.7-3.9l1.8-0.5c5.2-1.5,10.6-3.1,15.6-5.4c5.4-2.4,10.6-5.3,15.7-8.1
	c2.1-1.1,4.2-2.3,6.3-3.4c4.6-2.5,9.1-5.3,13.4-8.4l0.7-0.5l2.7-1.8c11.4-7.6,21.1-17.4,30.5-26.8l1.2-1.2c0.4-0.4,0.7-0.8,1-1.3
	c0.3-0.4,0.5-0.8,0.9-1.2c2.2-2.5,3.8-3.5,5.3-3.5c1.3,0,2.8,0.7,4.7,2.4c5.9,5.1,10.9,11.2,14.6,18.1c0.9,1.7,1.9,3.3,3,4.9
	c1.5,2.2,2.8,4.5,3.9,6.9c1.6,3.8,3,7.7,4.2,11.6l0.2,0.5c0.3,1.1,0.7,2.1,1.1,3.2c1.1,3.2,2.2,6.7,3.1,10.1c0.5,2,0.7,4.1,0.8,6.2
	c0.1,2.2,0.3,4.5,0.4,6.7c0.4,6.3,0.8,12.8,0.8,19.2c-0.2,5.3-0.6,10.6-1.4,15.8c-0.2,1.3-0.3,2.6-0.5,3.9c-0.4,3.6-1.1,7.1-2,10.6
	c-1.6,6-3.4,12.5-5.5,18.9c-2.2,6.4-4.6,12.9-7.6,20c-2.3,5.7-4.9,11.3-7.8,16.7c-2.6,4.6-5.5,9.1-8.6,13.4c-2,2.7-4,5.4-6,8
	l-0.1,0.1c-2.1,2.7-4.3,5.5-6.3,8.4c-5.2,7.3-11.7,14.2-21,22.2c-1.3,1.1-2.6,2.3-3.9,3.4c-3.2,2.8-6.4,5.7-9.9,8.3
	c-3.1,2.2-6.4,4.3-9.8,6.2l-0.1,0c-1.3,0.8-2.6,1.5-3.9,2.3c-1,0.6-2.1,1.3-3.1,2l-0.1,0.1c-2.7,1.8-5.5,3.4-8.4,4.8
	c-0.9,0.4-1.9,0.9-2.8,1.3c-4.5,2.1-9.1,4.3-14.2,4.3h-0.9c-1.2-0.1-2.4-0.1-3.8-0.1c-2.9,0-5.9,0-8.6-0.7
	c-7.9-2-13.5-6.7-16.2-13.7c-1-2.7-2.1-6.7-1.5-10.1c1.3-6.2,2.7-13.3,6.3-19.5c0.8-1.5,1.6-3.1,2.2-4.7c0.7-1.7,1.5-3.4,2.4-5.1
	c3.9-6.5,7.2-11.7,10.5-16.2c3.4-4.8,7.1-9.4,11.1-13.8c3-3.2,6.2-6.3,9.3-9.4c3.7-3.6,7.5-7.4,11.1-11.3c5.2-5.7,10-11.8,14.3-18.2
	c4.2-6.2,5.7-13,4.3-19.6c-1-4.5-3.7-8.5-7.5-11.1c-6.3-4.3-13.4-6.8-22.2-8c-9.2-1.2-18.4-1.8-27.6-1.8h-2.6
	c-7.4,0.1-13.3,0.3-18.7,0.7c-5.4,0.3-10.8,1-16.1,2c-2.9,0.6-5.7,1.5-8.6,2.4c-3,1-6.1,1.9-9.2,2.6c-6.7,1.3-12.7,4.3-18.6,7.1
	l-1.9,0.9c-2.4,1.3-4.6,2.7-6.7,4.5l-0.1,0.1c-0.9,0.7-1.9,1.5-2.9,2.1c-0.5,0.3-1,0.6-1.4,0.9c-1,0.6-2,1.3-2.8,2.1
	c-4.6,5.1-9.2,10.8-8.9,18.8c0,1.4,0,2.9-0.1,4.3c-0.2,2.5-0.1,5.1,0.3,7.6c1.2,5.6,2.9,11.1,5.2,16.4c2.3,5.5,4.9,10.8,7.8,16
	c1.4,2.7,3.1,5.3,4.8,7.9c0.5,0.7,1,1.5,1.4,2.2c3.5,5.4,6.8,10.5,10,15.4c4.9,7.5,6.9,16.1,5.7,25.6c-0.4,3.6-1.7,6.9-3.5,8.9
	c-3.5,4.1-7.7,7.6-12.2,10.5c-5.5,3.4-11.8,5.1-16.7,6.3c-3.6,0.9-7.2,0.9-10.7,0.9c-1.9,0-3.9,0-5.8,0.2c-0.8,0.1-1.7,0.1-2.5,0.1
	c-6.5,0-12.8-2-17.5-3.7c-5.3-2-10.5-4.3-15.5-6.9l-1.3-0.6c-2.3-1.1-4.5-2.5-6.6-3.8c-1-0.6-1.9-1.2-2.9-1.8
	c-1.6-1.2-3.1-2.3-4.5-3.3c-1.8-1.3-3.5-2.5-5.1-3.8c-2.3-1.8-5-3.9-7.5-6.2c-6.3-5.9-11.4-13.3-15.7-22.5c-3-6.3-5.6-12.7-7.7-19.3
	c-1.1-3.5-2.5-7-3.9-10.3l-0.1-0.1c-1-2.5-2.1-5-3-7.5c-0.7-2.1-1.3-4.3-1.7-6.5c-0.3-1.5-0.6-2.8-1-4.1c-2.1-7.8-3.5-15.8-4.2-23.8
	c-0.1-1.1-0.2-2.2-0.4-3.3c-0.4-2.7-0.6-5.5-0.5-8.2c0.3-5.3,0.9-10.6,1.9-15.8c0.9-4.7,2.2-9.3,3.9-13.7c2.1-5.7,4.6-11.4,7-16.8
	l0.2-0.4c1.8-4.1,3.9-8.5,6.5-14c1-2,2.1-3.9,3.4-5.7l1-1.5c2.8-4.2,5.7-8.6,8.7-12.8c1.7-2.4,3.5-4.8,5.3-7.2l0,0l0.1-0.1
	c3.6-4.6,7-9.4,10.1-14.4c2.6-4.4,6.4-6,10.7-7.4c0.2-0.1,0.3-0.1,0.5-0.1c1.1,0,2.9,1,5.2,2.9c2.1,1.7,4.1,3.7,6.1,5.6l0.2,0.2
	c0.9,0.9,1.8,1.8,2.7,2.6c0.3,0.3,0.7,0.6,1.1,0.9l0.1,0.1c0.4,0.3,0.8,0.7,1.2,1c6.2,6,13.2,11,20.9,15c2.5,1.3,5,2.7,7.2,3.9
	c3.3,1.8,6.7,3.8,10.2,5.4c4,1.8,8.1,3.3,12.4,4.5h0.1l1.2,0.4c4.3,1.4,8.7,2.6,13.2,3.6c5.2,1.1,10.4,1.7,15.3,2.3l1.2,0.2
	c5.7,0.7,11.7,1.4,17.6,1.8c0.6,0,1.3,0.1,2,0.1C787.1,664.4,789.7,664.2,792.2,664L792.2,664z M1194.4,651.8
	c3.6-0.6,7.2-0.8,10.8-0.7h1.6c4,0,7.9-0.1,11.7-1c2.7-0.6,5.4-1.5,8-2.3c1.2-0.4,2.4-0.8,3.6-1.1c0.5-0.2,1.1-0.3,1.7-0.3
	c1.9,0,3.4,1.1,4.3,3.2c0.5,1.1,0.8,2.3,1,3.5c0.2,1.2,0.6,2.4,1,3.5c1.7,3.8,1.8,7.9,1.9,11.9c0,0.5,0,0.9,0,1.4
	c0.3,9.7-1.1,19.4-4.3,28.6c-0.5,1.4-1,2.9-1.6,4.3c-0.2,0.6-0.5,1.3-0.7,1.9c-3.1,6.8-6.8,13.2-11.1,19.3c-1.4,2-1.3,5.9-0.4,8
	c1.3,2.9,4.1,4.8,7.2,5c0.7,0,1.4,0.1,2.1,0.1c7.1,0,13.8-2.5,20.2-7.5c3.2-2.5,6.2-5.3,9.1-8.1c1.4-1.3,2.9-2.7,4.4-4.1
	c0.5-0.4,1.2-0.7,1.9-0.6c2.2,0,5.1,1.7,5.6,4c0.4,1.8,0.6,3.7,0.7,5.6c0.1,7,4.9,11.8,11.7,11.8c0.8,0,1.2,0.1,1.4,0.3
	c0.2,0.2,0.2,0.7,0,1.4l0,0.2c-0.5,2.8-0.8,5.8-1.2,8.4c-0.2,1.9-0.5,4.3-0.9,6.5c-0.3,2.2-0.7,4.3-1.1,6.5v0.2
	c-0.3,1.4-0.5,2.9-0.8,4.3c-0.2,1.4-0.5,2.8-0.7,4.2l-0.1,0.6v0.2c-0.4,2.3-0.7,4.6-1.2,6.9c-0.3,1.5-0.6,3-0.8,4.5l-0.1,0.6
	c-0.9,5-1.8,10.1-3.1,15c-1.8,6.9-4.1,13.7-6.3,20.2l-0.9,2.5c-2,6.1-4.1,12.2-6.6,18.1c-1.5,3.5-3.4,6.8-5.5,9.9l-0.4,0.7
	c-5,8.1-9.1,14.6-13,20.4c-1.3,2-2.9,4-4.3,5.8l-0.1,0.1c-1,1.3-2.1,2.7-3.1,4.1c-11.9,16.4-26.4,30.7-40.5,44.4
	c-4.5,4.4-9.1,8.8-13.5,13.4c-5.6,5.7-11.9,10.8-18,15.8l-1.9,1.5c-4.3,3.6-8.8,6.8-13.6,9.7c-5.7,3.4-11.6,6.4-17.4,9.4l-0.2,0.1
	l-1.9,1c-7.2,3.7-14.8,6.5-22.6,8.6c-1.3,0.4-2.6,0.7-3.9,1.1l-0.5,0.1c-3.6,1-7.2,2-10.9,2.8c-5.7,1.2-11.5,2.1-17,3
	c-1.9,0.3-3.9,0.6-5.8,0.9c-9.6,1.6-19,1.8-26.8,1.8c-3.4,0-6.8,0-10.2-0.1h-0.5c-3,0-6.7-0.1-10.2-0.1c-2.4,0-4.6,0-6.7,0.1
	c-1.4,0-2.8,0-4.3,0c-5.9,0-11.9-0.3-17.6-0.5H992l-3.7-0.2c-2.7-0.2-5.4-0.5-8-1l-0.7-0.1l-1.2-0.2c-1-0.2-1.9-0.9-2.3-1.8
	c-0.7-1.2-0.8-2.7-0.3-4c0.5-1.1,0.9-2.3,1-3.5c0.1-1.5,0.1-3,0.1-4.5c-0.1-2.8,0.2-5.5,0.7-8.2c0.7-3.1,1-6.2,1.1-9.3
	c0.1-2.8,0.4-5.6,1-8.4c0.2-1.1,0.3-2.2,0.4-3.4c0.2-3.1,0.5-6.2,3.5-8.4c4.3-3,8.6-6.1,12.4-8.9l1.4-1c0.5-0.4,1-0.8,1.4-1.3
	l0.2-0.3c2-2.1,3.9-4.2,6.1-6.6c4.7-5,9.6-10.1,13.8-15.6c4.3-5.7,8.3-12.4,12.7-21.8c2.7-5.6,4.6-11.6,6.6-17.4l0.3-0.9
	c0.4-1.1,0.7-2.2,1.1-3.2c0.9-2.9,1.6-5.8,2.1-8.8l0.3-1.3c0.3-1.4,0.5-2.9,0.7-4.2c0.3-2.4,0.7-4.7,1.4-7c1-2.9,1.2-6,1.4-9v-0.1
	c0.1-1.9,0.3-3.9,0.6-5.8c0.7-4.7,1.2-9.5,1.2-14.3v-0.1c0.1-4.1,0.4-8.1,0.9-12.1c0.4-3.3,0.7-6.6,0.7-9.9v-0.2
	c0.1-2.1,0.1-4.3,0.3-6.4c0.1-1.6,0.1-3.3,0.2-5c-0.1-2.8,0.2-5.7,0.7-8.4c0.8-4.2,1.3-8.6,1.4-12.9v-0.3c0.1-2.1,0.2-4.2,0.4-6.3
	c0.4-3.9,1.1-7.8,2-11.6c1-4.3,2.1-8.8,3.6-14.2c0.2-0.8,0.5-1.7,0.7-2.5l0.3-0.9c1.4-5,2.8-10.2,4.6-15.2
	c2.7-7.4,5.2-14.1,8.6-20.2c2.7-4.9,6.6-8,11.4-9c2.8-0.7,5.5-1.7,8.1-2.9c1.7-0.7,3.4-1.5,5.1-2.1c4-1.4,8.1-2.7,12.1-4l0.2-0.1
	c2.6-0.8,5.2-1.7,7.8-2.5c2-0.7,4-1.4,6-2l0.2-0.1c3.1-1.1,6.7-2.3,10.2-3.4c2.2-0.7,4.5-1.1,6.8-1.5l0.3,0c1.2-0.2,2.5-0.5,3.8-0.8
	c1.9-0.4,3.7-0.9,5.6-1.4c2.9-0.7,5.9-1.5,8.9-2.1c3.8-0.9,7.7-1.4,11.7-1.7c1.6-0.1,3.4-0.1,5.6-0.1h3.1h0.1h3.1
	c4.2,0.1,8.4-0.2,12.5-0.9L1194.4,651.8z M738.7,863.8c7.7-2.7,14.5-7.5,19.8-13.7c6.1-7.1,8.5-15.8,7.4-27.6
	c-0.3-3.5-1.8-7-3.2-10.4l-0.3-0.8c-2-4.7-4.2-9.4-6.7-13.9c-1.4-2.6-3.1-5.1-4.6-7.4c-1.1-1.6-2.3-3.5-3.4-5.3
	c-3.4-5.5-6.6-11-9.6-16.6c-1.6-3-3-6.3-4.3-9.4l-0.8-1.9c-0.2-0.7-0.4-1.4-0.4-2.1v-0.1c0-0.3-0.1-0.6-0.1-0.9
	c-0.1-6.6,0-12.1,0.4-17.3c0.3-1.8,0.9-3.5,1.9-5.1c3.5-6,8.3-11.1,14-15.1c4.5-3.2,9.6-5.1,14.5-6.9l0.2-0.1
	c1.4-0.5,2.9-1.1,4.3-1.6c3.4-1.3,7.2-1.8,10.9-2.3c1.2-0.1,2.4-0.3,3.6-0.5c1.8-0.3,3.7-0.5,5.6-0.6c3.2-0.2,6.4-0.7,9.6-1.5
	c4.6-1.3,9.2-1.6,13.6-1.8c2.2-0.1,4.5-0.3,6.7-0.6h0.1c3-0.4,6-0.6,9.1-0.6c1.3,0,2.6,0.1,3.9,0.2c1.6,0.2,3.3,0.3,4.9,0.5
	c4.6,0.4,9.5,0.8,14.1,2.3l1.3,0.4l0.9,0.3c4.8,1.5,9.7,3.1,14.3,5.4c3.6,1.8,5.4,4.2,5.9,7.5c0.1,0.6,0.3,1.2,0.6,1.8
	c0.4,0.7,0.6,1.4,0.5,2.2c-0.5,2.8-1.5,5.5-2.8,8c-2.9,5.3-7.2,9.5-11.4,13.6c-1.2,1.2-2.4,2.3-3.5,3.4c-1.7,1.8-3.5,3.5-5.3,5.2
	l-0.2,0.1c-3.3,3.2-6.7,6.6-9.9,10.1c-4.3,4.7-10,11-15.2,17.9c-9.4,12.5-16.7,26.4-21.7,41.2c-2.3,7-3,13.1-2.3,18.6
	c1.3,9.5,5.9,16.2,13.8,19.9c1.2,0.5,2.3,1.2,3.3,1.7c2.5,1.3,5.2,2.7,7.9,3.4c1.8,0.4,3.7,0.6,5.5,0.6c2.1,0,4.3-0.2,6-0.3
	c3.8-0.3,8.2-0.8,12.1-2.1c4.6-1.7,9.1-3.8,13.3-6.4c4.8-2.8,9.4-6,14-9.1l0.3-0.2c1-0.7,2-1.4,3-2c0.6-0.4,1.1-0.9,1.5-1.4
	c0.4-0.5,0.8-0.9,1.3-1.3c2-1.5,4.1-3.1,6.1-4.5l0.3-0.2c2.7-2,5.7-4.2,8.5-6.3c2.2-1.7,4.2-3.6,6.2-5.5c0.8-0.9,1.9-1.5,3.1-1.6
	c0.9,0,1.8,0.5,2.4,1.2l1.6,1.7c3,3.1,6.1,6.4,8.6,10c4.2,6,6.6,12.9,8.8,19.5c3.1,9.4,3.3,18.8,3.2,27.7c-0.1,5.2-2.1,8.8-6.1,11.2
	c-2,1.1-4.2,1.6-6.5,1.6c-1.4,0-2.8-0.1-4.2-0.4c-2-0.3-4.1-0.5-6.1-0.5c-3.1-0.1-6.1,0.6-8.8,2.1c-1.2,0.7-2.2,2.3-2.7,4.3
	c-0.6,2.4-0.5,4.8,0.3,6.2c4,6.5,7.1,13.6,9.1,21c0.8,3.3,1.3,6.7,1.6,10v0.2c0.2,1.4,0.3,2.8,0.5,4.2c0.1,1,0.3,2,0.5,2.9
	c0.5,2.2,0.7,4.4,0.7,6.7c-0.3,5.4-0.9,10.8-1.9,16.1c-0.5,2.6-1.2,5.1-2.1,7.5v0.1c-0.3,1-0.7,2.1-1,3.1c-0.5,1.7-1.3,2.5-2.2,2.5
	c-0.7,0-1.6-0.4-2.6-1.3c-0.8-0.7-1.5-1.4-2.3-2.1c-2.6-2.3-5.2-4.8-8.2-6.3c-3-1.6-6.4-2.5-9.8-2.5c-2.6,0-5.3,0.6-7.7,1.6
	c-5.9,2.6-8.6,7-8.4,14c0.2,7.1,0,14.2-0.7,21.2c-0.4,4.3-1.9,8.6-3.4,12.3c-1.1,2.8-2.4,5.7-3.6,8.2c-1.2,2.5-2.3,4.9-3.4,7.5
	c-1.4,3.4-3.7,6.2-7.4,8.6c-0.7,0.5-1.5,0.7-2.4,0.7c-2,0-3.7-1.2-4.6-2.9c-0.8-1.7-1.7-3.4-2.6-5.4c-2.7-5.6-5.4-11.4-9.1-16.6
	c-5.5-7.8-12.1-14.8-19.4-20.9c-2.4-1.9-5-3.6-7.7-5.1l-1.5-0.9c-0.9-0.5-1.9-0.8-2.9-0.7c-3.2,0-6.7,2.3-8.4,5.4
	c-1.1,2.1-2.4,4.2-3.7,6.1l0,0.1l-0.1,0.2c-0.7,1.1-1.4,2.2-2.1,3.3c-1,1.7-2,3.4-3,5.1l-0.3,0.5c-1.2,2.1-2.5,4.3-3.8,6.4
	c-0.8,1.4-1.7,2.7-2.5,3.9c-0.6,0.9-1.1,1.7-1.7,2.6c-2.2,3.5-4.5,7.1-6.7,10.6c-0.6,0.9-1.2,1.4-1.9,1.4c-0.9,0-1.8-0.8-2.7-2.3
	c-0.8-1.3-1.6-2.6-2.4-3.9c-1.9-3-3.8-6.1-5.4-9.3c-3.2-6.2-5.8-12.1-8.1-17.9c-2.4-6.1-4.5-12.3-6.2-18.6
	c-0.8-3.3-1.3-6.7-1.7-10.1c-0.2-1.5-0.4-3.3-0.6-4.9l-0.2-1v-0.1c-0.3-2.2-0.7-4.3-1.2-6.5c-0.1-0.4-1.3-0.7-2.2-0.7
	c-0.2,0-0.5,0-0.7,0.1c-3.3,1.2-6.8,2.7-10.6,4.4c-9,4.2-17.1,10.2-23.8,17.4c-0.6,0.7-1.2,1.3-1.8,2l-0.2,0.2l-0.7,0.8
	c-0.1,0.1-0.2,0.2-0.3,0.3l0,0c-0.2-0.4-0.4-0.7-0.5-1.1l-0.1-0.1c-0.5-0.8-0.9-1.7-1.2-2.6c-0.4-1.2-0.9-2.3-1.4-3.6
	c-1.4-3.7-2.9-7.6-4-11.5c-0.4-1.7-0.8-3.4-0.9-5.2c-0.2-2-0.6-4.1-1.2-6c-1.8-4.9-1.5-9.9-1.2-14.7v-0.1c0.1-1.7,0.2-3.5,0.2-5.2
	c0-3,0.9-6,1.7-8.9l0-0.1c0.4-1.3,0.8-2.7,1.1-4.1c0.2-1,0.5-2,0.7-3.1l0.1-0.5c0.8-3.1,1.4-6.2,1.9-9.3c0.2-1.7-0.3-3.4-1.4-4.7
	c-1.2-1.4-2.9-2.3-4.8-2.5c-2.1-0.1-4.5-0.3-6.8-0.3c-1.9,0-3.7,0.1-5.6,0.4c-3.5,0.6-7,1.5-10.3,2.7l-0.4,0.1l-1.8,0.6
	c-2.6,0.8-5.2,1.8-7.7,2.8l-1.7,0.7c-0.2,0.1-0.3,0.1-0.5,0.1c-1.6,0-3.9-2.2-3.9-4.3c0-2.5-0.1-5-0.2-7.6c-0.2-7.3-0.4-14.8,0.5-22
	c0.3-2.1,0.4-4.3,0.5-6.2c0.1-3.5,0.5-6.9,1.2-10.3l0.2-1l0.1-0.5v-0.1c0.8-3.2,1.5-6.5,3-9.4c1-2,3-3.3,5.2-3.3
	c1.5,0,2.9,0.5,4,1.4c3.7,2.8,7,5.4,10,8.1c3.7,3.1,7.9,5.5,12.4,7.1c4.6,1.7,9.5,2.4,14.2,3.1c2.1,0.3,4.2,0.6,6.3,1
	c3.8,0.6,7.6,0.9,11.4,0.8h3.9c1.5,0,3.3,0,5.1,0.1c0.5,0,1,0,1.5,0C728.1,867.4,733.9,865.5,738.7,863.8L738.7,863.8z M957.6,744.8
	L957.6,744.8l0.2,0.2c0.1,0.1,0.2,0.3,0.2,0.4l0.3,0.8l0.2,0.6c0.4,1.2,1,2.8,1.4,4.3c0.4,1.4,0.8,2.7,1.2,4.1l0.1,0.2
	c1.3,4.5,2.7,9.2,3.9,13.8c0.7,2.8,1.2,5.7,1.7,8.3c0.3,1.8,0.6,3.8,1,5.6c0.5,2.3,1,4.6,1.5,6.8v0.1c0.6,2.6,1.2,5,1.7,7.4
	c0.2,1,0.3,2,0.3,3.1c0,0.8,0.1,1.5,0.2,2.3c0.4,3.2,0.9,6.5,1.3,9.2c0.3,2.2,0.6,4.3,0.9,6.5c0.5,3.6,1,7.2,1.4,10.8l0.5,3.7
	c0,0.1,0,0.3,0,0.4c0,0.1,0,0.2,0,0.3c0.1,2.1,0.3,4.2,0.4,6.3c0.3,4.5,0.7,9.2,0.8,13.7c0.4,12.7,0.6,22.5,0.6,31.7
	c0,1.6,0,3.3,0,5c0.1,7.7,0.1,15.7-0.9,23.5c-0.4,3.5-0.6,7-0.8,10.3c-0.2,4.1-0.5,8.3-1.1,12.4c-0.9,5.6-1.5,11.2-1.8,17.2
	c-0.4,4.5-1,9.1-1.9,13.5c-0.6,3-1.3,5.9-1.9,8.8l-0.1,0.3c-0.4,1.7-0.8,3.5-1.2,5.3c-0.2,1-0.3,2.1-0.5,3v0.3
	c-0.1,0.4-0.1,0.9-0.2,1.3c-0.2,1.2-0.3,2.3-0.5,3.5l-0.1,0.4c-0.4,2.9-0.8,6.2-1.5,9.3c-0.5,2.1-1.1,4.3-1.7,6.3
	c-0.5,1.6-1,3.4-1.5,5.1c-0.5,2.1-0.9,4.2-1.3,6.2v0.2c-0.4,2.2-0.8,4.4-1.4,6.6c-0.5,2-1.1,4-1.7,6c-0.5,1.6-1,3.3-1.5,5.1
	c-0.1,0.7-0.2,1.4-0.2,2.1c0,0.7,0,1.4-0.2,2.1c-2.1,8-2.9,16.9-2.2,27.1c0.5,6.3,1.4,12.6,2.6,18.8c0.5,2.3,1,4.6,1.8,6.9v0.1
	c0.5,1.7,1,3.4,1.4,5.1c0.2,1,0.3,2,0.2,3c0,0.8,0,1.6,0.1,2.4c0.3,2.3,0.7,4.6,1.1,6.8v0.2c0.4,2.4,0.8,4.9,1.2,7.4
	c0.2,1.8,0.4,3.6,0.6,5.4c0.2,3.4,0.7,6.8,1.5,10.1c1.2,4.3,1.4,8.7,1.6,13c0,1.3,0.1,2.6,0.2,3.9c0.1,1.5,0.2,3,0.3,4.5l0.1,1
	c0.5,6.8,0.9,13.8,0.9,20.7c0,8.5-0.7,16.9-2,25.3c-1.3,7.7-3.2,15.3-5.8,22.7c-4,11.6-11.4,21.5-21.9,29.3
	c-1.8,1.4-4.2,2.1-6.7,2.8l-1.7,0.5l-0.3,0.1c-2.8,0.8-5.6,1.7-8.4,1.7h-0.4c-4.4-0.1-8.8-1-12.9-2.6c-8-3-14.5-7.5-19.3-13.3
	c-4-4.8-7.5-10-10.3-15.6c-2.9-5.8-5-12-7-18.1l-0.6-1.9c-0.6-2-1.1-4.1-1.5-6.2c-0.3-1.4-0.6-3-1-4.5c-0.5-1.8-1.1-3.7-1.6-5.2
	v-0.1c-0.5-1.5-1-3-1.4-4.5c-0.2-0.9-0.3-1.7-0.3-2.6c0-0.6-0.1-1.2-0.2-1.8c-0.3-1.8-0.6-3.7-0.9-5.5c-0.4-2.4-0.9-5-1.3-7.7
	c-0.2-1.7-0.4-3.4-0.6-5c-0.3-3.3-0.6-6.6-1.6-9.8c-1-3.1-1.2-6.3-1.4-9.4v-0.1c-0.1-1.5-0.1-3-0.3-4.4c-0.8-7.2-1.3-14.6-1.8-21.7
	l-0.2-2.6c-0.2-2.9-0.2-5.9,0-8.8c0.1-0.6,0-1.3-0.3-1.8c-0.2-0.2-0.4-0.3-0.7-0.3c-0.6,0-1.1,0.2-1.6,0.4l-0.2,0.1
	c-4.4,1.4-8.9,2.9-13.4,4.2c-1.4,0.3-2.8,0.6-4.2,0.8c-2,0.2-3.9,0.7-5.7,1.3c-2.7,1-5.5,1.5-8.4,1.4c-1.6,0-3.3-0.1-4.9-0.2h-0.1
	c-1-0.1-2-0.1-3-0.2c-5.4-0.2-11.8-0.8-17.9-3c-1.7-0.6-3.4-1-5.2-1.4c-1.7-0.3-3.4-0.8-5.1-1.4c-2-0.8-3.9-1.6-5.7-2.6
	c-1.7-0.8-3.5-1.7-5.2-2.4c-1.3-0.6-2.6-1.2-3.8-2c-2.1-1.3-4.3-2.7-7-2.7c-0.9,0-1.9,0.2-2.7,0.4c-4.1,1.3-7.1,5.6-7.8,8.9
	c-0.3,1.6-0.4,3.1-0.5,4.7v0.1c-0.1,1-0.1,2-0.2,3c-0.6,5.2-1.3,10.3-2,15.2l-0.2,1.8c-0.5,3.6-1,7.2-1.8,10.8
	c-0.5,2.4-1.2,4.8-1.8,7.1v0.1c-0.4,1.6-0.9,3.2-1.3,4.8c-0.2,0.9-0.3,1.8-0.4,2.7c-0.1,0.7-0.2,1.5-0.3,2.2c-0.3,1.6-0.6,3.2-1,4.8
	c-0.9,4.6-1.8,9.4-3,14.1c-1.6,6.3-3.6,12.7-5.5,18.8l0,0.1l-0.3,0.9c-0.3,1-0.6,2-0.9,3.1l-0.2,0.8c-1.3,4.6-2.9,9.2-4.8,13.6
	c-0.8,1.8-1.6,3.7-2.3,5.3c-1.8,4.2-3.6,8.5-6.2,12.5c-2.9,4.5-7,10-13.1,12.4c-0.6,0.2-1.2,0.5-1.9,0.8c-2.4,1-4.9,2.1-7.6,2.1
	c-1.8,0-3.6-0.5-5-1.5c-0.3-0.2-0.6-0.2-0.9-0.2c-0.3,0-0.6,0-1,0.1h-0.1c-0.3,0-0.6,0.1-0.9,0.1c-0.3,0-0.6,0-0.9-0.2
	c-3.4-1.4-6.6-3.1-9.7-5c-2.9-1.9-5.6-4.1-8-6.7c-5.2-5.8-8.5-11.3-10.3-17.3c-0.9-3-2-6-3-8.7c-1-2.9-2.2-6.1-3.1-9.3
	c-0.7-2.4-1.2-4.8-1.5-7.2c-0.2-1.3-0.5-3-0.8-4.6c-0.4-2-0.9-4.1-1.4-6.1l0-0.2v-0.1c-0.6-2.4-1.2-4.9-1.7-7.3
	c-0.3-1.6-0.5-3.2-0.6-4.9v-0.3c0-0.4-0.1-0.9-0.1-1.3c-0.1-1-0.2-2-0.3-3l-0.1-0.9c-0.3-3.9-0.7-7.9-0.9-11.9v-0.2
	c-0.3-5.1-0.6-10.3-0.6-15.5c0-8.8,0.3-16,0.7-22.9c0.3-4.7,0.9-9.4,1.6-14l0.3-2.5c0.1-0.8,0.2-1.7,0.3-2.5l0-0.3
	c0.3-3,0.7-6,1.7-8.8c2.4-6.3,2.1-12.8,1.7-19l-0.1-1.7c-0.2-3.1-1.1-6.2-2.1-9.2v-0.1c-0.4-1.4-0.9-2.9-1.3-4.3
	c-0.1-0.6-0.2-1.1-0.3-1.7c-0.1-0.8-0.2-1.5-0.4-2.2c-2-5.6-4.1-11.4-5.8-16.1l-2-5.5l-2.8-7.7c-1.7-4.6-3.4-9.2-5-13.8
	c-0.6-1.8-1.3-3.5-1.9-5.3v-0.1c-1.2-3.3-2.4-6.7-3.6-10c-1.1-2.8-2.2-5.6-3.4-8.6l-0.1-0.2c-1.5-3.8-3.1-7.8-4.5-11.7
	c-1-2.7-1.8-5.5-2.6-8.2l-0.1-0.2c-0.5-1.8-1.1-3.6-1.7-5.4c-0.7-2-1.4-4-2.1-6.1c-1-2.8-2.1-5.9-3-9c-1.4-4.7-2.6-9.5-3.8-14.2
	c-0.3-1.1-0.5-2.1-0.8-3.2l-0.3-1.1c-1.2-4.9-2.5-9.9-3.6-14.9c-0.7-3.4-1.3-6.9-1.8-10.2l-0.2-1.4c-0.3-1.6-0.5-3.3-0.7-4.9v-0.1
	c-0.4-2.9-0.7-5.9-1.4-8.8c-2-9.2-2-18.7-1.9-27.9v-0.2c0-2.8,0-5.8,0-8.6c-0.1-3.4,0.2-6.8,0.7-10.2c0.6-3.4,1.3-6.9,2-9.9
	c0.4-1.8,0.8-3.6,1.2-5.4c0.1-0.7,0.2-1.4,0.3-2.2c0.1-0.8,0.2-1.6,0.4-2.4c0.3-1.5,0.6-2.9,1-4.4c0.8-4,1.8-8,3.1-11.9
	c1.5-4,3.2-8,5.1-11.8c0.7-1.4,1.3-2.8,2-4.2c0.2-0.3,0.5-0.6,0.9-0.8c0.2-0.1,0.3-0.2,0.5-0.3l0,0l0,0l0.2,0.6
	c0.1,0.3,0.2,0.7,0.3,1c0.4,1.2,0.8,2.5,1.2,3.7c0.9,2.7,1.8,5.4,2.7,8.1c1.5,4.1,2.9,7.9,4.6,11.5c1.7,3.6,3.8,7.4,5.7,10.7
	l0.8,1.4c2.7,4.7,5,8.7,7.2,12.3c0.6,0.9,1.3,1.7,2,2.5c0.4,0.5,0.8,0.9,1.2,1.4c0.5,0.7,1,1.4,1.5,2.1c0.9,1.5,2,2.8,3.3,4
	c3,2.5,3.4,4.8,1.3,8.3c-1.7,3.1-3,6.4-4,9.8c-1.7,5.3-3,10.8-4.1,16.2c-0.7,4.6-1.1,9.2-1.2,13.9l-0.1,2.2c-0.2,3.6-0.2,7.2,0,10.8
	l0,0.4c0.4,4.8,0.8,9.8,2.1,14.4c0.5,1.8,3.3,4.1,5.3,4.3l0.6,0.1c1.5,0.2,2.9,0.3,4.4,0.3c2.7,0.1,5.3-0.8,7.4-2.5
	c2.3-1.9,5.1-3.2,7.8-4.5c0.7-0.4,1.5-0.7,2.2-1.1c1.2-0.6,2.5-0.8,3.8-0.8c3.3,0,6.5,1.3,8.1,3.3c0.5,0.6,1.3,1.6,1.2,2.4
	c-0.3,2.5-0.7,5-1.1,7.4v0.2c-0.2,1.1-0.4,2.3-0.5,3.4c-0.1,0.8-0.2,1.7-0.2,2.5c0,2,0,4.1-0.1,6.1v0.3c-0.1,5.2-0.2,10.5,0.2,15.7
	c0.4,3.5,1,7.1,1.9,10.5c0.5,1.9,0.9,3.7,1.2,5.5c0.1,0.6,0.1,1.1,0,1.7c-0.1,0.6-0.1,1.3,0.1,1.9l0.3,1.1c1.8,5.6,3.6,11.4,5.7,17
	c1.1,2.8,3.2,4.3,6.1,4.3c0.7,0,1.4-0.1,2.1-0.2c1.3-0.3,2.5-0.9,3.5-1.7c2.2-1.7,4.4-3.5,6.4-5c2.2-1.7,4.3-3.4,6.4-5.1
	c1.8-1.4,3.6-2.7,5.3-3.9l0.2-0.2c2.4-1.7,4.9-3.6,7.2-5.4c0.5-0.5,1.1-0.7,1.8-0.8c1,0,1.7,0.9,1.9,1.8c0.6,2.3,1.1,4.6,1.5,6.8
	c0.4,2,0.8,4.1,1.3,6.1c1,3.6,2.1,7.2,3.5,10.6c2,5.2,3.8,9.8,5.6,14c2.3,5.4,5,11,8,17.3c0.6,1.2,1.3,2.3,2.1,3.4
	c0.4,0.6,0.9,1.3,1.3,2c0.9,1.5,1.9,3.1,2.8,4.6l0.4,0.7c1.8,3,3.8,6.3,5.9,9.6c0.7,1.2,1.4,1.7,2.1,1.7c0.7,0,1.2-0.5,1.8-1.4
	l1.1-1.9c1.4-2.4,3-5,4.6-7.5c1.1-1.6,2.2-3.2,3.3-4.7s2.2-3,3.2-4.7c1.8-2.7,3.6-5.7,5.1-8c1.3-2.1,2.6-4.1,3.9-6.2l1.2-1.9
	c2.3-3.6,4.9-7.6,7.6-11.4c0.9-1.1,2.3-1.7,3.8-1.6c1.5,0,3,0.5,4.2,1.5c1.3,1.1,2.5,2.3,3.9,3.4c3.7,3.3,7.5,6.6,11,10.3
	c3,3.2,5.4,7.1,7.4,10.6c2.7,4.6,5,9.3,7.2,13.7c0.3,0.8,0.5,1.6,0.6,2.4c0.1,0.7,0.2,1.4,0.4,2.1c0.2,0.5,0.4,1.1,0.6,1.6
	c0.8,2.1,1.6,4.3,3,6c1.7,2,4.3,3,6.9,2.9c2.5,0,4.8-0.7,6.9-2c5.8-3.7,8.6-9.6,11.3-15.2c0.5-1.1,1.1-2.2,1.6-3.3
	c1.5-3.1,3.1-6.3,4.4-9.6c0.9-2.3,1.5-4.6,2-7c0.1-0.6,0.3-1.2,0.4-1.7c1-4,2-8.3,3.3-14c0.1-0.5,0.1-1,0.1-1.5c0-0.2,0-0.5,0-0.7
	v-18c0-2,0-3.2,0.3-4s0.9-1,2.1-1c0.7,0,1.7,0.1,2.8,0.2c6.6,0.7,12.1,2.8,16.4,6s8.4,6.6,10.1,11.7c0.4,1.1,0.8,1.6,1.3,1.6
	c0.5,0,0.9-0.4,1.4-1.3c1.7-3,3.2-6.2,4.7-9.5c1.3-3,2.5-6.1,3.6-9.3c0.3-0.9,0.4-1.8,0.5-2.8c0.1-0.6,0.1-1.2,0.2-1.8
	c1.7-8.5,3.3-18.6,1.6-28.8c-0.3-1.7-0.5-3.5-0.7-5.1c-0.3-2.8-0.7-5.6-1.3-8.4c-1-3.7-2.1-7.4-3.5-10.9c-0.3-0.8-0.6-1.5-0.8-2.3
	c-0.4-1.1-0.9-2.1-1.4-3.2V913c-0.5-0.9-0.9-1.9-1.3-2.8c-0.8-2-1.3-3.9,0.7-6.1c1.7-1.9,4-3,6.6-3.1c0.9,0,1.9,0.2,2.7,0.5
	c3.1,1.2,6.4,1.8,9.8,1.7c2,0,4-0.1,5.7-0.3c4.5-2.2,5.1-6.2,5.7-9.8l0.1-0.5l0.2-1.1c0.9-5.8,1.8-11.9,1-17.6
	c-0.2-1.6-0.3-3.3-0.4-4.9c-0.2-3.7-0.5-7.6-2.4-11.2c-0.6-1.3-1-2.8-1.2-4.2c-0.2-1.3-0.5-2.5-0.9-3.7c-2-5-4.4-9.9-7-14.7
	c-1.8-3.1-3.9-6.2-5.9-9.2l0-0.1c-1.3-1.9-2.8-4.1-4.1-6.2c-1.9-3-1.4-7,1.2-10c1.2-1.4,2.5-2.8,3.7-4.1c3.8-4.2,7.8-8.6,11-13.3
	c0.7-1.1,1.4-2.1,2.1-3.2c4.8-7.1,9.7-14.4,12.9-22.6c1.8-4.5,3.9-9,6-13.3c1-2,2-4.3,3.1-6.5c0.1-0.2,0.1-0.5,0-0.8
	c0-0.2,0-0.4,0-0.5c0-0.2,0.1-0.4,0.2-0.6l0-0.2l0-0.1l0,0L957.6,744.8z"/>
<path class="st0" d="M790.1,579.5c-3.7,1.6-7.6,5-6.3,9.5c1.1,3.5,2.8,6.7,5,9.6c1.4,2,3,4,4.6,5.9l0.1,0.1l0,0.1
	c1.3,1.5,2.6,3.1,3.9,4.8c2.1,2.9,4.7,5.5,8.9,5.5c0.5,0,1,0,1.5-0.1c0.2,0,0.4,0,0.6,0h0.3c0.1,0,0.2,0,0.3-0.1
	c6.7-3.8,10.8-10.2,12.9-20.1c0.7-3.2,0.4-6.7,0.1-10l-0.1-0.7l-0.1-0.6c-0.1-1.1-1.4-2.8-2.3-3l-1.2-0.2c-4.1-0.8-8.3-1.7-12.4-1.7
	h-0.5c-1.3,0-2.6-0.1-3.8-0.1h-0.2c-1.2-0.1-2.6-0.2-4-0.2C795.1,578.1,792.5,578.5,790.1,579.5L790.1,579.5z M803.4,604.1
	c-3.6-4.6-6.8-9.6-10-14.4l-0.2-0.3c-0.1-0.2,0.1-0.8,0.3-1.3c0.2-0.4,0.4-0.6,0.5-0.6l3.7,0c2,0,3.9-0.1,5.9-0.1
	c3.6,0,6.6,0.1,9.2,0.3c1.6,0.1,2.5,0.5,2.8,1.1c0.4,0.8,0,2-0.7,3.6l-0.8,1.8l-0.8,1.8c-0.2,4.6-3,7.3-5.7,9.4
	c-0.2,0.1-0.5,0.2-0.8,0.2C805.8,605.5,804.1,604.9,803.4,604.1L803.4,604.1z"/>
<path class="st1" d="M924.4,595.8c-1.6,0-3.1,1-5.3,3.5c-0.3,0.4-0.6,0.8-0.9,1.2c-0.3,0.5-0.6,0.9-1,1.3L916,603
	c-9.4,9.4-19.1,19.2-30.5,26.8l-2.7,1.8l-0.7,0.5c-4.3,3-8.8,5.8-13.4,8.4c-2.1,1.1-4.2,2.2-6.3,3.4c-5.1,2.8-10.4,5.6-15.7,8.1
	c-5,2.3-10.4,3.9-15.6,5.4l-1.8,0.5c-5.1,1.6-10.4,2.9-15.7,3.9c-5.1,0.8-10.3,1.3-15.3,1.7h-0.1c-1.3,0.1-2.6,0.2-3.9,0.3l-1.2,0.1
	l-0.6,0.1h-0.1c-2.5,0.2-5,0.5-7.5,0.5c-0.7,0-1.4,0-2-0.1c-5.9-0.3-11.8-1.1-17.6-1.8l-1.2-0.2c-5-0.6-10.2-1.2-15.3-2.3
	c-4.5-1-8.9-2.2-13.2-3.6l-1.2-0.4h-0.1c-4.2-1.2-8.3-2.8-12.4-4.6c-3.5-1.7-6.9-3.6-10.2-5.4c-2.2-1.2-4.7-2.6-7.2-3.9
	c-7.7-4-14.7-9-20.9-15c-0.4-0.4-0.8-0.7-1.2-1l-0.1-0.1c-0.4-0.3-0.8-0.6-1.1-0.9c-0.9-0.9-1.8-1.8-2.7-2.6l-0.2-0.2
	c-2-1.9-4-3.9-6.1-5.6c-2.3-1.9-4.1-2.9-5.2-2.9c-0.2,0-0.3,0-0.5,0.1c-4.3,1.4-8.1,3-10.7,7.4c-3.1,5-6.5,9.8-10.1,14.4l-0.1,0.1
	l0,0c-1.8,2.3-3.6,4.7-5.3,7.2c-3,4.2-5.9,8.6-8.7,12.8l-1,1.5c-1.3,1.8-2.4,3.8-3.4,5.7c-2.7,5.4-4.7,9.8-6.5,14l-0.2,0.4
	c-2.4,5.5-4.9,11.1-7,16.8c-1.7,4.5-3,9-3.9,13.7c-1,5.2-1.7,10.5-1.9,15.8c-0.1,2.7,0.1,5.5,0.5,8.2c0.1,1.1,0.3,2.3,0.4,3.3
	c0.7,8,2.1,16,4.3,23.8c0.4,1.3,0.7,2.7,1,4.1c0.4,2.2,1,4.4,1.7,6.5c0.9,2.5,2,5.1,3,7.5l0.1,0.1c1.4,3.4,2.8,6.8,3.9,10.3
	c2.2,6.6,4.8,13.1,7.7,19.3c4.2,9.3,9.4,16.7,15.7,22.5c2.5,2.4,5.2,4.5,7.5,6.2c1.7,1.3,3.4,2.5,5.1,3.8c1.4,1,2.9,2.1,4.5,3.3
	c1,0.6,1.9,1.2,2.9,1.8c2.1,1.3,4.3,2.6,6.6,3.8l1.3,0.6c5,2.6,10.2,4.9,15.5,6.9c4.7,1.7,11,3.7,17.5,3.7c0.8,0,1.7,0,2.5-0.1
	c2-0.1,3.9-0.2,5.8-0.2c3.5,0,7.1,0,10.6-0.9c4.9-1.2,11.1-2.9,16.7-6.3c4.6-2.9,8.7-6.4,12.2-10.5c1.8-2,3.1-5.3,3.5-8.9
	c1.1-9.5-0.8-18.1-5.7-25.6c-3.3-4.9-6.5-10-10-15.4l-1.4-2.2c-1.7-2.6-3.4-5.2-4.8-7.9c-2.9-5.2-5.5-10.6-7.8-16
	c-2.2-5.3-3.9-10.8-5.2-16.4c-0.4-2.5-0.5-5-0.3-7.6c0.1-1.4,0.1-2.9,0.1-4.3c-0.2-8,4.3-13.7,8.9-18.8c0.8-0.8,1.8-1.6,2.8-2.1
	c0.5-0.3,1-0.6,1.4-0.9c1-0.7,1.9-1.4,2.9-2.1l0.1-0.1c2.1-1.7,4.3-3.2,6.7-4.4l1.9-0.9c5.9-2.9,12-5.8,18.6-7.1
	c3.1-0.7,6.2-1.5,9.2-2.6c2.8-0.9,5.7-1.8,8.6-2.4c5.3-1,10.7-1.7,16.1-2c5.4-0.4,11.3-0.6,18.6-0.7h2.6c9.2,0,18.5,0.5,27.6,1.8
	c8.8,1.2,15.8,3.8,22.2,8c3.9,2.5,6.6,6.5,7.6,11.1c1.4,6.6-0.1,13.4-4.3,19.6c-4.3,6.4-9.1,12.5-14.3,18.2
	c-3.5,3.9-7.4,7.7-11.1,11.3c-3.1,3.1-6.3,6.2-9.3,9.4c-4,4.3-7.7,8.9-11.1,13.7c-3.3,4.6-6.6,9.7-10.5,16.2
	c-0.9,1.6-1.7,3.3-2.4,5.1c-0.7,1.6-1.4,3.2-2.2,4.7c-3.6,6.3-5,13.3-6.3,19.5c-0.7,3.3,0.4,7.3,1.5,10.1c2.7,7,8.2,11.8,16.2,13.7
	c2.8,0.7,5.7,0.7,8.6,0.7c1.4,0,2.6,0,3.8,0.1c0.3,0,0.6,0,0.9,0c5.2,0,9.8-2.2,14.2-4.3c1-0.4,1.9-0.9,2.8-1.3
	c2.9-1.4,5.7-3,8.4-4.8l0.1-0.1c1-0.7,2.1-1.3,3.1-2c1.3-0.8,2.6-1.6,3.9-2.3l0.1,0c3.4-1.9,6.6-4,9.8-6.2c3.4-2.6,6.7-5.4,9.9-8.3
	c1.3-1.2,2.6-2.3,3.9-3.4c9.3-8,15.8-14.9,21-22.2c2-2.8,4.2-5.7,6.3-8.4l0.1-0.1c2-2.6,4.1-5.3,6-8c3.1-4.3,6-8.8,8.6-13.4
	c2.9-5.4,5.5-11,7.8-16.7c3-7.1,5.4-13.7,7.6-20c2.2-6.3,3.9-12.9,5.6-18.9c0.9-3.5,1.6-7,2-10.6c0.2-1.3,0.3-2.6,0.5-3.9
	c0.8-5.2,1.2-10.5,1.4-15.8c0-6.4-0.4-12.9-0.8-19.2c-0.1-2.2-0.3-4.5-0.4-6.7c-0.1-2.1-0.3-4.2-0.8-6.2c-0.9-3.5-2-6.9-3.1-10.1
	c-0.4-1.1-0.7-2.1-1.1-3.2l-0.2-0.5c-1.2-3.9-2.6-7.8-4.2-11.6c-1.1-2.4-2.4-4.7-3.9-6.9c-1-1.6-2.1-3.3-3-4.9
	c-3.7-6.9-8.6-13-14.5-18.1c-1.9-1.7-3.4-2.4-4.7-2.4L924.4,595.8z"/>
<path class="st1" d="M957.6,744.8L957.6,744.8l0,0.1l0,0.2c-0.2,0.4-0.2,0.8-0.1,1.1c0,0.3,0,0.5,0,0.8c-1,2.2-2.1,4.5-3.1,6.5
	c-2.1,4.3-4.2,8.7-6,13.3c-3.2,8.2-8.2,15.5-12.9,22.6c-0.7,1-1.4,2.1-2.1,3.2c-3.2,4.8-7.1,9.1-11,13.3c-1.2,1.4-2.5,2.7-3.7,4.1
	c-2.6,3-3.1,7-1.2,10c1.3,2.1,2.8,4.3,4.1,6.2l0,0.1c2,3,4.1,6,5.9,9.2c2.6,4.8,5,9.7,7,14.7c0.4,1.2,0.8,2.4,0.9,3.7
	c0.2,1.5,0.6,2.9,1.2,4.2c1.9,3.5,2.2,7.4,2.4,11.2c0.1,1.5,0.2,3.3,0.4,4.9c0.9,5.7-0.1,11.7-1,17.5l-0.2,1.1l-0.1,0.5
	c-0.5,3.6-1.1,7.7-5.7,9.8c-1.7,0.1-3.7,0.3-5.7,0.3c-3.3,0.1-6.7-0.5-9.8-1.7c-0.9-0.4-1.8-0.5-2.7-0.5c-2.5,0.1-4.9,1.2-6.6,3.1
	c-2,2.1-1.5,4.1-0.7,6.1c0.4,0.9,0.8,1.9,1.3,2.8v0.1c0.5,1,1,2.1,1.4,3.2c0.3,0.8,0.5,1.5,0.8,2.3c1.4,3.6,2.6,7.2,3.5,10.9
	c0.6,2.8,1.1,5.6,1.3,8.4c0.2,1.6,0.4,3.4,0.7,5.1c1.7,10.3,0.2,20.3-1.6,28.8c-0.1,0.6-0.2,1.2-0.2,1.8c-0.1,0.9-0.2,1.9-0.5,2.8
	c-1.1,3.2-2.3,6.3-3.6,9.3c-1.5,3.3-3,6.5-4.7,9.5c-0.5,0.8-0.9,1.3-1.4,1.3c-0.4,0-1-0.6-1.3-1.6c-1.7-5-5.7-8.4-10.1-11.7
	s-9.8-5.3-16.4-6c-1.2-0.1-2.1-0.2-2.8-0.2c-1.2,0-1.8,0.3-2.1,1c-0.3,0.7-0.3,2-0.3,4v17.9c0,0.2,0,0.5,0,0.7c0.1,0.5,0,1-0.1,1.5
	c-1.3,5.7-2.3,10-3.3,14c-0.1,0.6-0.3,1.2-0.4,1.7c-0.5,2.4-1.2,4.7-2,7c-1.3,3.3-2.9,6.5-4.4,9.6c-0.5,1.1-1.1,2.2-1.6,3.3
	c-2.7,5.6-5.5,11.4-11.3,15.2c-2.1,1.3-4.5,2-6.9,2c-2.6,0.1-5.1-1-6.9-2.9c-1.4-1.7-2.2-3.9-3-6c-0.2-0.6-0.4-1.1-0.6-1.6
	c-0.2-0.7-0.4-1.4-0.4-2.1c-0.1-0.8-0.2-1.6-0.6-2.4c-2.1-4.4-4.5-9.1-7.2-13.7c-2.1-3.5-4.4-7.4-7.4-10.6c-3.5-3.6-7.3-7-11-10.3
	c-1.3-1.2-2.6-2.3-3.9-3.4c-1.2-1-2.6-1.5-4.1-1.5c-1.5-0.1-2.9,0.5-3.8,1.6c-2.7,3.8-5.3,7.8-7.6,11.4l-1.2,1.9
	c-1.3,2.1-2.6,4.1-3.9,6.2c-1.5,2.3-3.3,5.3-5.1,8c-1,1.6-2.2,3.2-3.2,4.6c-1.1,1.5-2.2,3.1-3.3,4.7c-1.6,2.5-3.2,5.2-4.6,7.5
	l-1.1,1.9c-0.6,1-1.2,1.4-1.8,1.4s-1.4-0.6-2.1-1.7c-2.1-3.2-4.1-6.6-5.9-9.6l-0.4-0.7c-0.9-1.5-1.9-3.1-2.8-4.6
	c-0.4-0.7-0.9-1.4-1.3-2c-0.8-1.1-1.5-2.2-2.1-3.4c-3-6.3-5.6-11.9-8-17.3c-1.8-4.2-3.7-8.8-5.6-14c-1.4-3.5-2.5-7-3.5-10.6
	c-0.5-2-0.9-4.1-1.3-6.1c-0.4-2.2-0.9-4.5-1.5-6.8c-0.2-0.9-0.9-1.8-1.9-1.8c-0.7,0-1.3,0.3-1.8,0.8c-2.3,1.9-4.8,3.7-7.2,5.4
	l-0.2,0.2c-1.6,1.2-3.5,2.5-5.3,3.9c-2.1,1.6-4.3,3.3-6.4,5.1c-2,1.6-4.2,3.3-6.4,5c-1,0.8-2.2,1.4-3.5,1.7
	c-0.7,0.2-1.4,0.2-2.1,0.2c-2.9,0-5-1.5-6.1-4.3c-2.1-5.6-3.9-11.4-5.7-17l-0.3-1.1c-0.1-0.6-0.2-1.3-0.1-1.9c0.1-0.6,0.1-1.1,0-1.7
	c-0.3-1.8-0.7-3.5-1.2-5.5c-0.9-3.5-1.5-7-1.9-10.5c-0.4-5.2-0.3-10.5-0.2-15.7v-0.3c0-2,0.1-4.1,0.1-6.1c0-0.8,0.1-1.7,0.2-2.5
	c0.2-1.1,0.4-2.3,0.5-3.4v-0.2c0.4-2.4,0.8-4.9,1.1-7.4c0.1-0.8-0.7-1.8-1.2-2.4c-1.6-2-4.8-3.3-8.1-3.3c-1.3,0-2.6,0.2-3.8,0.8
	c-0.7,0.4-1.5,0.7-2.2,1.1c-2.7,1.3-5.5,2.7-7.8,4.5c-2.1,1.7-4.7,2.6-7.4,2.5c-1.5,0-3-0.1-4.4-0.3l-0.6-0.1
	c-2-0.2-4.8-2.5-5.3-4.3c-1.3-4.7-1.7-9.6-2.1-14.4l0-0.4c-0.2-3.6-0.2-7.2,0-10.8l0.1-2.2c0.2-4.6,0.6-9.3,1.3-13.9
	c1-5.5,2.4-10.9,4.1-16.2c0.9-3.4,2.3-6.7,4-9.8c2-3.5,1.6-5.8-1.3-8.3c-1.3-1.2-2.4-2.5-3.3-4c-0.5-0.7-1-1.5-1.5-2.1
	c-0.4-0.5-0.8-1-1.2-1.4c-0.7-0.8-1.4-1.6-2-2.5c-2.3-3.7-4.6-7.6-7.2-12.3l-0.8-1.4c-1.8-3.3-3.9-7-5.7-10.7
	c-1.8-3.7-3.1-7.3-4.6-11.5c-1-2.7-1.9-5.4-2.7-8.1c-0.4-1.2-0.8-2.5-1.2-3.7c-0.1-0.3-0.2-0.7-0.3-1l-0.2-0.6l-0.5,0.3
	c-0.4,0.2-0.7,0.5-0.9,0.8c-0.6,1.4-1.3,2.8-2,4.2c-1.9,3.8-3.6,7.8-5.1,11.8c-1.3,3.9-2.3,7.8-3,11.9c-0.3,1.5-0.6,2.9-1,4.4
	c-0.2,0.8-0.3,1.6-0.4,2.4c-0.1,0.7-0.2,1.5-0.3,2.2c-0.4,1.8-0.8,3.6-1.2,5.4c-0.7,3.1-1.5,6.5-2,9.9c-0.5,3.4-0.8,6.8-0.7,10.2
	c0,2.9,0,5.8,0,8.6v0.2c-0.1,9.2-0.2,18.6,1.9,27.9c0.6,2.9,1,5.9,1.4,8.8v0.1c0.2,1.6,0.4,3.3,0.7,4.9l0.2,1.4
	c0.5,3.4,1,6.8,1.8,10.2c1.1,5,2.4,10,3.6,14.9l0.3,1.1c0.3,1.1,0.5,2.1,0.8,3.2c1.2,4.7,2.4,9.5,3.8,14.2c0.9,3.1,2,6.3,3,9
	c0.8,2.2,1.5,4.1,2.1,6.1c0.6,1.8,1.1,3.6,1.7,5.4l0.1,0.2c0.8,2.7,1.6,5.5,2.6,8.2c1.4,3.9,3,7.9,4.5,11.7l0.1,0.2
	c1.2,3.1,2.3,5.8,3.4,8.6c1.3,3.3,2.5,6.7,3.6,10v0.1c0.6,1.8,1.2,3.5,1.9,5.3c1.7,4.6,3.4,9.2,5,13.8l2.8,7.7l2,5.5
	c1.7,4.7,3.8,10.5,5.8,16.1c0.2,0.7,0.4,1.5,0.4,2.2c0.1,0.6,0.2,1.1,0.3,1.7c0.4,1.4,0.8,2.9,1.3,4.3v0.1c0.9,3,1.9,6.1,2.1,9.2
	l0.1,1.7c0.3,6.3,0.7,12.8-1.7,19c-1.1,2.7-1.4,5.8-1.7,8.8l0,0.3c-0.1,0.8-0.2,1.7-0.3,2.5l-0.3,2.5c-0.6,4.6-1.3,9.3-1.6,14
	c-0.4,6.8-0.6,14.1-0.7,22.9c0,5.2,0.3,10.5,0.6,15.5v0.2c0.3,4,0.6,8,0.9,11.9l0.1,0.9c0.1,1,0.2,2,0.3,3c0,0.4,0.1,0.9,0.1,1.3
	v0.3c0.1,1.6,0.3,3.3,0.6,4.9c0.5,2.4,1.1,4.9,1.7,7.3v0.1l0,0.2c0.5,2,1,4,1.4,6.1c0.3,1.6,0.6,3.2,0.9,4.6
	c0.4,2.4,0.9,4.8,1.5,7.2c0.9,3.2,2.1,6.4,3.1,9.3c1,2.7,2.1,5.7,3,8.7c1.8,6,5.1,11.5,10.3,17.3c2.4,2.6,5,4.8,8,6.7
	c3.1,1.9,6.3,3.6,9.7,5c0.3,0.1,0.6,0.2,0.9,0.2c0.3,0,0.6,0,0.9-0.1h0.1c0.3,0,0.6-0.1,1-0.1c0.3,0,0.7,0.1,0.9,0.2
	c1.5,1,3.2,1.5,5,1.5c2.7,0,5.2-1.1,7.6-2.1c0.7-0.3,1.3-0.5,1.9-0.8c6.1-2.4,10.2-7.9,13.1-12.4c2.6-4,4.4-8.3,6.2-12.5
	c0.7-1.6,1.5-3.5,2.3-5.3c1.9-4.4,3.5-9,4.8-13.6l0.2-0.8l0.9-3.1l0.3-0.9v-0.1c1.9-6.1,3.9-12.5,5.5-18.8c1.2-4.7,2.1-9.5,3-14.1
	c0.3-1.6,0.6-3.2,0.9-4.8c0.1-0.7,0.2-1.5,0.3-2.2c0.1-0.9,0.2-1.8,0.4-2.7c0.4-1.6,0.9-3.3,1.3-4.8v-0.1c0.6-2.3,1.3-4.7,1.8-7.1
	c0.7-3.6,1.3-7.2,1.8-10.8l0.2-1.8c0.7-4.9,1.3-10,2-15.2c0.1-1,0.2-2,0.2-3v-0.1c0.1-1.6,0.2-3.2,0.5-4.7c0.7-3.3,3.6-7.5,7.8-8.9
	c0.9-0.3,1.8-0.4,2.7-0.4c2.7,0,4.8,1.3,7,2.7c1.2,0.8,2.5,1.5,3.8,2c1.8,0.7,3.6,1.6,5.2,2.4c1.9,1,3.8,1.8,5.7,2.6
	c1.7,0.6,3.4,1,5.1,1.4c1.8,0.3,3.5,0.8,5.2,1.4c6.1,2.3,12.5,2.8,17.9,3c1,0,2,0.1,3,0.2h0.1c1.6,0.1,3.3,0.2,4.9,0.2
	c2.9,0.1,5.7-0.4,8.4-1.4c1.9-0.7,3.8-1.1,5.7-1.3c1.4-0.2,2.8-0.4,4.2-0.8c4.5-1.2,9.1-2.7,13.4-4.2l0.2-0.1
	c0.5-0.2,1.1-0.3,1.6-0.4c0.3,0,0.5,0.1,0.7,0.3c0.3,0.5,0.5,1.2,0.3,1.8c-0.2,2.9-0.2,5.9,0,8.8l0.2,2.6c0.5,7.1,1,14.5,1.8,21.7
	c0.2,1.5,0.2,3,0.3,4.4v0.1c0.2,3.1,0.3,6.3,1.4,9.4c1,3.1,1.3,6.5,1.6,9.8c0.2,1.7,0.3,3.4,0.6,5c0.4,2.6,0.9,5.3,1.3,7.7
	c0.3,1.8,0.6,3.6,0.9,5.5c0.1,0.6,0.1,1.2,0.2,1.8c0,0.9,0.1,1.8,0.3,2.6c0.4,1.5,0.9,3,1.4,4.5v0.1c0.5,1.5,1.2,3.4,1.6,5.2
	c0.4,1.5,0.7,3.1,1,4.5c0.3,2.1,0.8,4.2,1.5,6.2l0.6,1.9c2.1,6.1,4.2,12.3,7.1,18.1c2.9,5.6,6.3,10.8,10.3,15.6
	c4.7,5.8,11.2,10.2,19.3,13.3c4.1,1.6,8.5,2.4,12.9,2.6h0.4c2.8,0,5.7-0.8,8.4-1.7l0.3-0.1l1.7-0.5c2.5-0.7,4.8-1.4,6.7-2.8
	c10.6-7.9,17.9-17.7,21.9-29.3c2.6-7.4,4.5-15,5.8-22.7c1.3-8.4,2-16.8,2-25.3c0.1-6.9-0.4-13.9-0.9-20.7l-0.1-1
	c-0.1-1.5-0.2-3-0.3-4.5c-0.1-1.3-0.1-2.6-0.2-3.9c-0.2-4.3-0.3-8.7-1.6-13c-0.8-3.3-1.3-6.7-1.5-10.1c-0.2-1.8-0.3-3.6-0.6-5.4
	c-0.3-2.5-0.8-5-1.2-7.4v-0.2c-0.4-2.2-0.8-4.6-1.1-6.8c-0.1-0.8-0.1-1.6-0.1-2.4c0-1,0-2-0.2-3c-0.4-1.7-0.9-3.4-1.4-5.1v-0.1
	c-0.7-2.3-1.3-4.6-1.8-6.9c-1.2-6.2-2.1-12.5-2.6-18.8c-0.6-10.2,0.1-19,2.2-27.1c0.1-0.7,0.2-1.4,0.2-2.1c0-0.7,0-1.4,0.2-2.1
	c0.5-1.7,1-3.5,1.5-5.1c0.6-2,1.2-4,1.7-6c0.5-2.2,0.9-4.4,1.4-6.6v-0.2c0.4-2,0.8-4.2,1.3-6.2c0.4-1.8,1-3.6,1.5-5.1
	c0.6-1.9,1.3-4.1,1.7-6.3c0.6-3.1,1.1-6.4,1.5-9.3l0.1-0.4c0.2-1.2,0.3-2.3,0.5-3.5c0.1-0.4,0.1-0.9,0.2-1.3v-0.3
	c0.1-0.9,0.3-2,0.5-3c0.4-1.8,0.8-3.5,1.2-5.3l0.1-0.3c0.7-2.9,1.4-5.8,1.9-8.8c0.9-4.5,1.6-9,1.9-13.5c0.3-5.9,0.9-11.5,1.8-17.2
	c0.6-4.1,0.9-8.3,1.1-12.4c0.2-3.4,0.4-6.9,0.8-10.3c1-7.8,0.9-15.7,0.9-23.5c0-1.7,0-3.3,0-5c0-9.2-0.2-19-0.6-31.7
	c-0.2-4.6-0.5-9.3-0.8-13.7c-0.2-2.1-0.3-4.2-0.4-6.3c0-0.1,0-0.2,0-0.3c0-0.1,0-0.3,0-0.4l-0.5-3.7c-0.5-3.6-0.9-7.2-1.5-10.9
	c-0.3-2.2-0.6-4.3-0.9-6.5c-0.4-2.7-0.9-6.1-1.3-9.2c-0.1-0.8-0.1-1.5-0.2-2.3c0-1-0.1-2.1-0.3-3.1c-0.5-2.4-1-4.8-1.7-7.4V790
	c-0.5-2.2-1-4.5-1.5-6.8c-0.4-1.9-0.7-3.8-1-5.6c-0.5-2.6-1-5.5-1.6-8.3c-1.2-4.6-2.6-9.3-3.9-13.8l-0.1-0.2
	c-0.4-1.4-0.8-2.7-1.2-4.1c-0.4-1.5-1-3-1.4-4.3l-0.2-0.6l-0.3-0.8c-0.1-0.2-0.1-0.3-0.3-0.4l-0.1-0.2L957.6,744.8z"/>
<path class="st1" d="M934.3,297.7L934.3,297.7c-0.3,0.2-0.6,0.4-1,0.6c-0.7,0.4-1.4,0.8-2.1,1.3c-1.7,1.3-3.6,2.6-5.2,3.8
	c-4.3,2.9-8.4,6.2-12.3,9.7c-5.3,5-10.2,10.7-14.9,16.2l-3,3.5c-1.6,1.9-3,3.8-4.4,5.9c-0.9,1.3-1.7,2.5-2.7,3.7
	c-1.7,2.1-3.9,3.1-7,3.1c-1.3,0-2.6-0.1-3.8-0.3c-3.6-0.5-7.2-1.3-10.8-2.1c-2.5-0.6-5.1-1.1-7.6-1.6c-4.8-0.9-9.5-1.5-13.9-2
	c-5.1-0.6-10.4-0.9-15.5-1.2h-0.1h-0.4c-2.3-0.1-4.6-0.3-6.8-0.4c-3.8-0.3-8.9-0.6-14-0.6c-5.4,0-10.9,0.4-16.2,1.2
	c-3.8,0.5-7.6,0.8-11.4,0.8c-4.5,0.2-9.1,0.3-13.6,1.3c-3.8,0.8-7.7,1.3-11.5,1.8c-1.4,0.2-2.8,0.4-4.2,0.6
	c-0.6,0.1-1.2,0.1-1.8,0.1c-0.8,0-1.6,0.1-2.4,0.2c-1.5,0.4-3,0.8-4.6,1.3c-2.4,0.8-4.9,1.4-7.4,1.9c-2.7,0.4-5.3,0.6-8,0.6
	c-1.1,0-2.1,0.1-3.1,0.1c-0.2,0-0.4,0-0.5,0c-4.8,0-7.5-3.3-9.3-6.1c-1.2-1.9-2.4-3.9-3.6-5.8l0-0.1c-3-4.9-6-9.9-9.6-14.4
	c-3.7-4.7-8.2-8.8-12.5-12.9l-0.1,0c-1.1-1.1-2.3-2.2-3.4-3.2c-0.9-0.9-2.1-1.3-3.3-1.3c-2.5-0.1-4.8,1.7-5.2,4.2
	c-0.6,3.8-1,7.6-1.3,10.9c-0.3,3.3-4,6.8-6.9,6.8c-0.5,0-0.9-0.1-1.3-0.3c-2.3-1.2-4.4-2.7-6.3-4.4c-2.4-2.1-7.6-3.5-12.8-3.5
	c-2.9,0-5.3,0.5-6.9,1.3l-0.3,0.2c-4.5,2.5-8.8,4.8-11.6,9.6c-2.4,4.2-3.6,8.8-4.7,13.1c-0.9,3.7,0,7.5,0.9,11.2
	c0.2,0.9,0.5,1.9,0.7,2.8c0.1,0.5,0.1,1,0.1,1.5c-0.1,0.7,0,1.3,0.2,2c2.9,5.9,6.4,12.9,10.1,20c2.8,5.2,2,12.5-2,16.9
	c-0.5,0.6-0.8,1.4-1,2.2c0,0.1,0,0.1,0,0.1l0.6,0.5c1.5,1.5,3.3,2.7,5.2,3.6c1.3,0.5,2.6,0.8,3.9,1.1c1.5,0.2,2.9,0.6,4.3,1.2
	c6.2,2.9,12.3,6.1,18.1,9.7c4.6,2.9,9.1,6.2,13.5,9.3l0.6,0.4c1.2,0.9,2.4,1.8,3.6,2.6c4.5,3.2,9.7,7,14.8,10.9l1,0.8
	c5.7,4.4,11.7,9,17.4,13.8c6.1,5.1,12.6,10.7,18.5,16.6c4.1,4,8,8.3,11.9,12.4c2.9,3.2,6.2,6.7,9.5,10c6.4,6.5,12.2,13.7,17.3,21.2
	c1.9,2.8,3.9,5.6,5.8,8.3l0.1,0.2c1.6,2.3,3.3,4.6,4.9,7c1.3,1.9,2.5,4,3.5,6.1c2,4.1,4.4,8.9,6.7,13.9c1.7,3.7,3.3,7.5,4.9,11.2
	l0.1,0.3c0.7,1.6,1.4,3.3,2.1,4.9l0.2,0.4l0.1,0.2l0.1,0.2c0-0.1,0.1-0.1,0.1-0.2v-0.1c0.1-0.2,0.1-0.4,0.2-0.6
	c0.4-1.5,0.7-3.1,1.1-4.6v-0.1c0.8-3.3,1.6-6.8,2.5-10.1c0.1-0.3,0.1-0.5,0.2-0.8l0.1-0.4c0.5-2.3,1.2-4.5,2.3-6.6l0.8-1.5
	c4.1-7.4,8.3-15,13-22.1c4.3-6.4,9.3-12.4,14-18c5.5-6.4,11.4-13,18.2-20.2c1.6-1.6,3.3-3.2,5.1-4.6c1.6-1.3,3.2-2.6,4.6-4.1
	c6.8-6.8,15.2-14.6,24.9-21c3-2,6.2-4.1,8.7-5.8l0.2-0.1c3.5-2.4,7.1-4.8,10.8-7.1c7.1-4.5,14.5-9.2,22.8-12
	c4.7-1.7,9.3-3.7,13.8-5.9l0.2-0.1c2.1-1,4.3-2,6.4-3c4-1.8,6.2-5.2,6-9.4c-0.3-5.8,0-11.9,3.9-17.3c1-1.4,2-2.9,2.9-4.3
	c1.7-2.7,3.6-5.3,5.6-7.7c4.1-4.6,7.7-9.8,10.5-15.3c0.3-0.6,0.6-1.1,0.9-1.7c1.5-2.8,3-5.7,3.4-8.6c1.2-8.2,1.9-16.3-2.9-24.3
	c-4.7-7.7-10.6-11.4-18.6-11.9c-1,0-2-0.1-2.9-0.1c-4.2,0-8.4,0.6-12.4,1.7c-3.8,1.1-7.5,2.4-11.1,4.1c-2,1-3.3,1.4-4.3,1.4
	c-1.9,0-2.6-1.6-2.6-6v-0.3c0-4.7,0-9.6,1.9-14.2c0.3-0.9,0.4-1.9,0.4-2.8v-0.1C934.1,298.6,934.1,298.2,934.3,297.7L934.3,297.7
	L934.3,297.7z"/>
<path class="st1" d="M1231.7,646.4c-0.6,0-1.1,0.1-1.7,0.3c-1.2,0.4-2.4,0.7-3.6,1.1c-2.6,0.8-5.3,1.7-8,2.3c-3.8,0.9-7.7,1-11.7,1
	h-1.6c-3.6-0.1-7.2,0.1-10.8,0.7c-4.1,0.7-8.3,1-12.5,0.9h-3.1h-0.1h-3.1c-2.3,0-4,0-5.6,0.1c-3.9,0.3-7.8,0.9-11.7,1.7
	c-3,0.6-6,1.3-8.9,2.1c-1.9,0.5-3.8,0.9-5.6,1.4c-1.2,0.3-2.5,0.5-3.8,0.8l-0.3,0.1c-2.3,0.4-4.5,0.9-6.8,1.5
	c-3.5,1.1-7.1,2.3-10.2,3.4l-0.2,0.1c-1.9,0.7-4,1.4-6,2c-2.6,0.9-5.2,1.7-7.8,2.5l-0.2,0.1c-4,1.3-8.1,2.6-12.1,4
	c-1.7,0.6-3.4,1.4-5.1,2.1c-2.6,1.3-5.3,2.2-8.1,2.9c-4.9,1-8.7,4.1-11.5,9c-3.4,6.2-5.9,12.8-8.6,20.2c-1.8,5-3.3,10.2-4.6,15.2
	l-0.3,0.9c-0.2,0.8-0.5,1.7-0.7,2.5c-1.5,5.3-2.7,9.8-3.6,14.2c-0.9,3.8-1.5,7.7-2,11.6c-0.2,2.1-0.3,4.2-0.4,6.3v0.3
	c-0.1,4.3-0.6,8.6-1.4,12.9c-0.5,2.8-0.8,5.6-0.7,8.4c0,1.6,0,3.3-0.2,5c-0.2,2.1-0.2,4.3-0.3,6.4v0.2c0,3.3-0.2,6.6-0.7,9.9
	c-0.5,4-0.8,8.1-0.9,12.1v0.1c-0.1,4.8-0.5,9.6-1.2,14.3c-0.3,1.9-0.5,3.9-0.6,5.8v0.1c-0.1,3-0.6,6-1.4,9c-0.7,2.3-1.1,4.6-1.4,7
	c-0.2,1.4-0.4,2.8-0.7,4.2l-0.3,1.3c-0.5,3-1.2,5.9-2.1,8.8c-0.4,1.1-0.7,2.1-1.1,3.2l-0.3,0.9c-1.9,5.8-3.9,11.9-6.6,17.4
	c-4.5,9.3-8.4,16-12.7,21.8c-4.2,5.5-9.1,10.6-13.8,15.6c-2.2,2.3-4.2,4.4-6.1,6.6l-0.2,0.3c-0.4,0.5-0.9,0.9-1.4,1.3l-1.4,1
	c-3.8,2.8-8.2,5.9-12.4,8.9c-3,2.1-3.3,5.3-3.5,8.4c-0.1,1.1-0.2,2.3-0.4,3.4c-0.5,2.8-0.9,5.6-1,8.4c-0.1,3.1-0.5,6.3-1.1,9.3
	c-0.5,2.7-0.8,5.5-0.7,8.2c0,1.5,0,3.1-0.1,4.5c-0.1,1.2-0.5,2.4-1,3.5c-0.5,1.3-0.4,2.8,0.3,4c0.4,0.9,1.3,1.6,2.3,1.8l1.2,0.2
	l0.7,0.1c2.6,0.5,5.3,0.8,8,1l3.7,0.2h0.2c5.8,0.3,11.8,0.5,17.6,0.5c1.5,0,3,0,4.4,0c2.1-0.1,4.2-0.1,6.7-0.1c3.5,0,7.2,0,10.2,0.1
	h0.5c3.3,0,6.8,0.1,10.2,0.1c7.9,0,17.2-0.2,26.8-1.8c1.9-0.3,3.9-0.6,5.8-0.9c5.6-0.9,11.3-1.8,17-3c3.7-0.8,7.4-1.8,10.9-2.8
	l0.5-0.1c1.3-0.4,2.6-0.7,3.9-1.1c7.8-2.1,15.4-4.9,22.6-8.6l1.9-1l0.2-0.1c5.8-3,11.8-6,17.4-9.4c4.8-2.9,9.3-6.1,13.6-9.7l1.9-1.5
	c6.1-5,12.4-10.1,18-15.8c4.5-4.5,9.1-9,13.5-13.4c14.1-13.8,28.7-28,40.5-44.4c1-1.4,2.1-2.7,3.1-4.1l0.1-0.1
	c1.5-1.9,3-3.8,4.3-5.8c3.9-5.8,8-12.3,13-20.4l0.4-0.7c2.1-3.2,3.9-6.5,5.5-9.9c2.5-6,4.5-12,6.6-18.1l0.8-2.5
	c2.2-6.6,4.5-13.4,6.3-20.3c1.3-4.9,2.2-10.1,3.1-15l0.1-0.6c0.3-1.5,0.5-3,0.8-4.5c0.4-2.3,0.8-4.6,1.2-6.9v-0.2l0.1-0.6
	c0.2-1.4,0.5-2.8,0.7-4.2c0.2-1.4,0.5-2.9,0.8-4.3l0-0.2c0.4-2.1,0.8-4.3,1.1-6.5c0.3-2.2,0.6-4.6,0.9-6.5c0.3-2.6,0.7-5.5,1.2-8.4
	l0-0.2c0.1-0.7,0.2-1.2,0-1.4s-0.6-0.3-1.4-0.3c-6.8,0-11.7-4.9-11.7-11.8c0-1.9-0.2-3.8-0.7-5.6c-0.6-2.3-3.4-4-5.6-4
	c-0.7,0-1.4,0.2-1.9,0.6c-1.5,1.3-3,2.7-4.4,4.1c-3,2.8-5.9,5.6-9.1,8.1c-6.5,5.1-13.1,7.5-20.2,7.5c-0.7,0-1.4,0-2.1-0.1
	c-3.1-0.2-5.9-2.1-7.2-5c-1-2.1-1-6,0.4-8c4.3-6,8-12.5,11.1-19.3c0.2-0.6,0.5-1.3,0.7-1.9c0.5-1.4,1.1-2.9,1.6-4.3
	c3.1-9.2,4.6-18.9,4.3-28.6c0-0.5,0-0.9,0-1.4c-0.1-3.9-0.2-8-1.9-11.9c-0.5-1.1-0.8-2.3-1-3.5c-0.2-1.2-0.6-2.4-1-3.5
	C1235.1,647.6,1233.6,646.5,1231.7,646.4L1231.7,646.4z"/>
<path class="st2" d="M826.7,699.8c-3,0.1-6.1,0.3-9.1,0.6h-0.1c-2.2,0.2-4.4,0.5-6.7,0.6c-4.4,0.2-9,0.5-13.6,1.8
	c-3.1,0.8-6.3,1.3-9.6,1.5c-1.8,0.2-3.7,0.4-5.6,0.6c-1.2,0.2-2.4,0.3-3.6,0.5c-3.7,0.5-7.5,1-10.9,2.3c-1.4,0.6-2.9,1.1-4.3,1.6
	l-0.2,0.1c-4.9,1.8-10,3.7-14.5,6.9c-5.7,4-10.4,9.1-14,15.1c-1,1.5-1.6,3.2-1.9,5.1c-0.4,5.2-0.5,10.7-0.4,17.3
	c0,0.3,0.1,0.6,0.1,0.9v0.1c0,0.7,0.2,1.4,0.4,2.1l0.8,1.9c1.3,3.1,2.7,6.3,4.3,9.4c3,5.6,6.3,11,9.6,16.6c1.1,1.8,2.3,3.6,3.4,5.3
	c1.5,2.3,3.2,4.8,4.6,7.4c2.5,4.5,4.7,9.1,6.7,13.9l0.3,0.8c1.4,3.4,2.9,6.9,3.2,10.4c1,11.7-1.3,20.5-7.4,27.6
	c-5.3,6.2-12.1,11-19.8,13.7c-4.9,1.8-10.6,3.6-16.6,3.6c-0.5,0-1,0-1.5,0c-1.8-0.1-3.6-0.1-5.1-0.1h-3.9c-3.8,0.1-7.6-0.2-11.4-0.8
	c-2.1-0.4-4.3-0.7-6.3-1c-4.7-0.7-9.6-1.5-14.2-3.1c-4.5-1.6-8.7-4-12.4-7.1c-3.1-2.7-6.4-5.3-10-8.1c-1.2-0.9-2.6-1.4-4-1.4
	c-2.2,0-4.2,1.3-5.2,3.3c-1.4,2.9-2.2,6.2-3,9.4v0.1l-0.1,0.5l-0.2,1c-0.7,3.4-1.1,6.9-1.2,10.3c-0.1,1.9-0.2,4.1-0.5,6.2
	c-0.9,7.3-0.7,14.8-0.5,22c0.1,2.6,0.1,5.2,0.2,7.6c0,2.2,2.3,4.3,3.9,4.3c0.2,0,0.3,0,0.5-0.1l1.7-0.7c2.5-1,5.1-2,7.7-2.8l1.8-0.6
	l0.4-0.1c3.4-1.2,6.8-2.1,10.3-2.7c1.8-0.3,3.7-0.4,5.6-0.4c2.3,0,4.8,0.2,6.8,0.3c1.9,0.1,3.6,1,4.8,2.5c1.1,1.3,1.6,3,1.4,4.7
	c-0.5,3.1-1.1,6.3-1.9,9.3l-0.1,0.5c-0.3,1-0.5,2-0.7,3.1c-0.3,1.4-0.7,2.7-1.1,4.1l0,0.1c-0.8,2.9-1.7,5.9-1.7,8.9
	c0,1.7-0.1,3.5-0.2,5.2v0.1c-0.3,4.8-0.6,9.8,1.2,14.7c0.6,2,1,4,1.2,6c0.2,1.7,0.5,3.5,0.9,5.2c1.1,3.9,2.6,7.8,4,11.5
	c0.5,1.2,0.9,2.4,1.4,3.6c0.4,0.9,0.8,1.8,1.2,2.6l0.1,0.1c0.2,0.4,0.4,0.7,0.5,1.1l1-1l0.2-0.2c0.6-0.7,1.2-1.3,1.8-2
	c6.7-7.3,14.8-13.2,23.8-17.4c3.8-1.7,7.2-3.2,10.6-4.4c0.2-0.1,0.5-0.1,0.7-0.1c0.9,0,2.1,0.3,2.2,0.7c0.6,2.1,1,4.3,1.3,6.5v0.1
	l0.2,1c0.3,1.7,0.5,3.4,0.6,4.9c0.3,3.4,0.9,6.8,1.7,10.1c1.7,6.3,3.8,12.6,6.2,18.6c2.3,5.8,4.9,11.6,8.1,17.9
	c1.6,3.2,3.5,6.3,5.4,9.3c0.8,1.3,1.6,2.6,2.4,3.9c0.9,1.5,1.8,2.2,2.7,2.2c0.7,0,1.3-0.5,1.9-1.4c2.2-3.5,4.5-7.1,6.7-10.6
	c0.6-0.9,1.1-1.7,1.7-2.6c0.7-1.1,1.7-2.5,2.5-3.9c1.3-2.1,2.6-4.3,3.8-6.4l0.3-0.5c1-1.7,2-3.4,3-5.1c0.7-1.1,1.4-2.2,2.1-3.3
	l0.1-0.2l0-0.1c1.3-2,2.6-4,3.7-6.1c1.6-3.1,5.1-5.4,8.4-5.4c1,0,2,0.2,2.9,0.7l1.5,0.9c2.7,1.5,5.3,3.2,7.7,5.1
	c7.4,6.1,13.9,13.1,19.4,20.9c3.7,5.2,6.4,11,9.1,16.6c0.9,1.9,1.7,3.7,2.6,5.4c0.9,1.7,2.6,2.9,4.6,2.9c0.8,0,1.7-0.2,2.4-0.7
	c3.7-2.4,6-5.2,7.4-8.6c1-2.5,2.2-5.1,3.4-7.5s2.6-5.4,3.6-8.2c1.4-3.7,2.9-8,3.4-12.3c0.7-7.1,0.9-14.2,0.7-21.2
	c-0.2-6.9,2.5-11.3,8.4-14c2.4-1.1,5-1.6,7.7-1.6c3.4,0,6.8,0.9,9.8,2.5c3,1.6,5.7,4,8.2,6.3c0.8,0.7,1.5,1.4,2.3,2.1
	c1,0.9,1.8,1.3,2.6,1.3c1,0,1.7-0.8,2.2-2.5c0.3-1,0.7-2.1,1-3.1l0-0.1c0.9-2.5,1.6-5,2.1-7.5c1-5.3,1.6-10.7,1.9-16.2
	c0-2.2-0.2-4.5-0.7-6.7c-0.2-0.9-0.3-1.9-0.5-2.9c-0.2-1.4-0.4-2.8-0.5-4.2v-0.2c-0.3-3.4-0.8-6.7-1.6-10c-2-7.4-5.1-14.5-9.1-21
	c-0.8-1.4-1-3.8-0.3-6.2c0.5-2.1,1.6-3.7,2.7-4.3c2.7-1.5,5.8-2.2,8.8-2.1c2,0,4.1,0.2,6.1,0.5c1.4,0.2,2.8,0.3,4.2,0.4
	c2.3,0.1,4.5-0.5,6.5-1.6c4-2.3,6-6,6.1-11.2c0.1-8.9-0.1-18.3-3.2-27.7c-2.2-6.6-4.7-13.5-8.8-19.5c-2.5-3.6-5.6-6.8-8.6-10
	l-1.6-1.7c-0.6-0.7-1.5-1.1-2.4-1.2c-1.2,0.1-2.3,0.7-3.1,1.6c-1.9,2-4,3.8-6.2,5.5c-2.9,2.2-5.9,4.4-8.5,6.3l-0.3,0.2
	c-2,1.5-4.1,3-6.1,4.5c-0.5,0.4-0.9,0.8-1.3,1.3c-0.4,0.5-0.9,1-1.5,1.4l-3,2l-0.3,0.2c-4.5,3.1-9.2,6.2-14,9.1
	c-4.2,2.6-8.7,4.7-13.3,6.4c-4,1.4-8.4,1.8-12.1,2.1c-1.7,0.2-3.9,0.3-6,0.3c-1.9,0-3.7-0.2-5.5-0.6c-2.8-0.7-5.4-2-7.9-3.4
	c-1-0.5-2.2-1.1-3.3-1.7c-7.9-3.7-12.6-10.4-13.8-19.9c-0.7-5.5,0-11.6,2.3-18.6c5-14.8,12.3-28.8,21.7-41.2
	c5.2-6.9,10.9-13.1,15.2-17.8c3.2-3.5,6.6-6.8,9.9-10.1l0.1-0.1c1.7-1.7,3.5-3.5,5.3-5.2c1.1-1.2,2.3-2.3,3.5-3.4
	c4.2-4.1,8.5-8.3,11.4-13.6c1.3-2.5,2.2-5.2,2.8-8c0-0.8-0.1-1.6-0.5-2.2c-0.3-0.6-0.5-1.2-0.6-1.8c-0.4-3.3-2.3-5.7-5.9-7.5
	c-4.6-2.3-9.5-3.9-14.3-5.4l-0.9-0.3l-1.3-0.4c-4.7-1.5-9.5-1.9-14.1-2.3c-1.5-0.1-3.2-0.3-4.9-0.5
	C829.2,699.9,827.9,699.8,826.7,699.8L826.7,699.8z"/>
<path class="st2" d="M632.6,409.1c-0.6,0-1.3,0-1.9,0.1c-3.9,0.3-7.1,2-9.9,5.4c-1.2,1.6-2.4,3.2-3.4,5c-1,1.7-2.2,3.3-3.4,4.9
	c-4.7,5.8-8.8,10.6-13.2,15.1c-4.7,4.8-9.8,9.4-14.8,13.8l-2.2,1.9c-4.8,4.3-9.1,8-13.3,11.3c-6.1,4.9-11.5,9-16.6,12.7l-1.2,0.9
	c-3.7,2.7-7.5,5.5-11.7,7.3c-1.4,0.6-2,1-2,1.4c0,0.4,0.4,0.6,1,0.9h0.1l0,0c0.3,0.1,0.5,0.3,0.8,0.5l0.5,0.3
	c3.5,2.4,7.2,4.8,10.7,7.4l2.4,1.8c4.7,3.4,9.5,7,14,10.7c5.7,4.8,12.4,10.5,18.6,16.6c9.9,9.8,19.9,19.8,29.6,29.5l0.5,0.5
	c9.7,9.7,19.8,19.8,29.8,29.7c3,2.9,6.2,5.7,9.3,8.4c2.6,2.3,5.5,4.8,8.2,7.3c6.1,5.8,12.6,11,19.6,15.7c2.6,1.7,5.2,3.7,7.6,5.4
	c2.6,1.9,5.2,3.8,7.8,5.6c5.1,3.4,10.2,6.4,15.9,9.7c2.6,1.5,5.3,2.8,8.1,4c2.4,1,4.9,2,7.4,2.9c1.3,0.5,2.6,1,3.9,1.5
	s2.7,1.1,4,1.6c2.7,1.1,5.5,2.3,8.4,3.2c2.7,0.8,5.4,1.4,8.1,1.8c1.5,0.3,2.8,0.5,4.2,0.8c1.5,0.3,3.1,0.8,4.5,1.2h0.1l0,0
	c3.1,0.9,6.3,1.8,9.5,1.8h1.3c2.7,0,5.6,0.1,7.9,0.2c2.6,0.1,5.3,0.2,7.9,0.2c4.4,0.1,8.7-0.4,12.9-1.5c2.6-0.7,5.3-1.2,8-1.5h0.1
	c2.1-0.3,4.2-0.7,6.3-1.1c1.1-0.3,2.2-0.7,3.4-1l0.3-0.1c2.4-0.7,4.9-1.4,7.4-2.2c1.1-0.4,2.3-0.7,3.5-1.1c3.6-1,7.1-2.3,10.5-3.8
	c7.2-3.4,14.2-7.1,20.9-11.1c6.3-3.7,12.3-8,17.9-12c4.9-3.5,10.2-7.5,16.6-12.7c4-3.2,8-6.6,13.3-11.3c2.9-2.5,5.7-5.2,8.4-7.8
	l0.1-0.1l2.6-2.5l8.4-8c5.5-5.3,11.8-11.3,17.9-16.9c2.8-2.6,5.8-5.1,8.6-7.5c1.5-1.3,3.1-2.6,4.6-3.9c1.8-1.6,3.6-3.1,5.4-4.7
	c2.9-2.6,6-5.2,9-7.8c3-2.6,6-4.8,8.9-6.9c6.3-4.5,12.9-9.3,19.7-13.8c2.7-1.8,5.6-3.6,8.3-5.3l0.2-0.1c2.4-1.5,5-3.1,7.4-4.7
	c6.4-4.2,12.8-8.7,19.1-12.9l0.7-0.5l0.6-0.4c0.5-0.4,1-0.8,1.4-1.2c0.6-0.6,1.2-1.2,2-1.6c1.8-0.9,2.9-2.2,3.1-3.7
	c0.2-1.5-0.5-2.7-1.9-3.9c-0.4-0.3-0.9-0.6-1.4-0.8c-0.4-0.2-0.8-0.4-1.2-0.6c-1.9-1.3-3.8-2.6-5.7-3.8c-5.6-3.7-11.9-7.9-18-12.1
	c-5.6-3.9-11.1-8.1-15.7-11.8s-8.5-6.9-12.1-10.2c-4-3.7-8-7.5-11.9-11.3L980,434l-2.3-2.2c-1.1-1-2.1-2.1-3.1-3.1l0-0.1
	c-1.8-1.8-3.6-3.7-5.5-5.3c-1.6-1.3-3.5-2.1-5.5-2.3h-0.8c-3.7,0-7.2,1.5-10.5,2.9l-0.1,0c-1.3,0.6-2.7,1.2-4,1.6
	c-2.7,1-5.4,2.3-7.9,3.7c-1.3,0.7-2.7,1.4-4,2c-1.8,0.9-3.7,1.7-5.5,2.5l-0.2,0.1c-3.8,1.7-7.7,3.5-11.4,5.6
	c-6.1,3.5-12,7.4-17.8,11.5l-1.3,0.9c-6.7,4.8-13.7,9.7-20.1,15c-6.4,5.5-12.5,11.4-18.2,17.5c-4.6,4.7-9,9.7-13.3,14.5
	c-1.7,2-3.5,3.9-5.2,5.9c-0.3,0.3-0.6,0.7-0.9,1l-0.2,0.2c-1.2,1.2-2.3,2.5-3.2,3.9c-4,5.8-7.2,10.7-10.2,15.3
	c-2.8,4.5-5.5,9.1-8,13.7l-0.1,0.2l-0.2,0.3c-2.7,4.7-5,9-7.1,13c-1.8,3.5-3.3,6.6-4.6,9.5c-1.2,2.8-2.3,5.7-3.4,8.6l-0.1,0.2
	c-0.5,1.2-0.9,2.3-1.4,3.5c-0.2,0.4-0.3,0.9-0.5,1.3l-0.2,0.6c-0.1-0.2-0.3-0.4-0.5-0.6c-0.4-0.5-0.8-1-1.1-1.6
	c-1.3-2.6-2.7-5.3-3.8-7.7l-2.1-4.2c-0.7-1.4-1.6-3.3-2.6-5.1c-0.8-1.4-1.5-2.9-2.3-4.3l-0.1-0.1c-1.9-3.6-3.9-7.4-6-11
	c-1.7-2.8-3.6-5.5-5.4-8.1c-1.1-1.6-2.1-3-3.1-4.4c-1.7-2.6-3.4-5.1-5.1-7.7l-0.1-0.2c-3-4.6-6.2-9.3-9.3-13.8
	c-2.4-3.3-4.9-6.5-7.6-9.6l-2.7-3.2c-4-4.7-8.2-9.5-12.6-14c-5-5.1-10.5-10-15.7-14.7l-2.4-2.1c-5.1-4.6-9.6-8.5-14-12
	c-4.9-4-10.3-8.1-17.1-13.2l-2.1-1.6l-0.4-0.3c-4.4-3.3-8.9-6.7-13.6-9.6c-4.7-2.9-9.8-5.7-14.6-8.3c-2.2-1.2-4.6-2.5-6.8-3.7
	C646.5,412.1,640,409.1,632.6,409.1L632.6,409.1z M806.3,615c-4.3,0-6.8-2.7-8.9-5.5c-1.2-1.6-2.6-3.3-3.9-4.8l0-0.1l-0.1-0.1
	c-1.6-1.9-3.2-3.8-4.6-5.9c-2.1-2.9-3.8-6.2-5-9.6c-1.3-4.4,2.6-7.9,6.3-9.5c2.4-1,5-1.4,7.5-1.3c1.4,0,2.8,0.1,4,0.2h0.2
	c1.2,0.1,2.5,0.1,3.8,0.1h0.5c4.1,0,8.4,0.9,12.4,1.7l1.2,0.2c0.9,0.2,2.2,1.8,2.3,3l0,0.6l0.1,0.7c0.3,3.3,0.6,6.8-0.1,10
	c-2.1,9.9-6.2,16.3-12.9,20.1c-0.1,0.1-0.2,0.1-0.3,0.1h-0.3c-0.2,0-0.4,0-0.6,0C807.3,614.9,806.8,615,806.3,615L806.3,615z"/>
<path class="st2" d="M1220.2,522.7c-1.4,0-2.8,0.5-3.9,1.4c-3.1,2.3-6,4.8-8.9,7.3l-0.1,0.1l-2.7,2.3l-1.6,1.3
	c-3.6,3.1-7.8,6.6-11.7,10c-5.9,5.2-12,10.6-18.6,16.6l-1.2,1.1c-3.2,2.9-6.6,5.9-9.6,9.1c-4.2,4.4-8.6,8.7-12.9,12.9l-0.1,0.1
	c-9.4,9.2-19.1,18.7-27.4,29.3c-2.4,3.1-5,6.2-7.4,9.3l0,0.1l-0.2,0.2c-2.7,3.4-5.6,6.9-8.3,10.4c-3.7,4.8-7.1,9.8-9.7,13.6
	c-3.7,5.4-7.5,11.4-12.2,18.8c-1.6,2.5-2.2,4.1-1.9,4.6c0.3,0.4,0.7,0.7,1.2,0.8c0.6-0.1,1.2-0.5,1.6-1c0.4-0.5,0.9-0.8,1.5-1h0.1
	h0.3c0.1,0,0.1,0,0.2,0l6.3-2.5l4.6-1.8l2.8-1.1l0.1-0.1c3-1.2,6.1-2.4,9.1-3.6l1.5-0.6c2.7-1,5.7-2.2,8.7-3.1
	c1.6-0.5,3.2-0.9,4.9-1.4c2-0.5,4-1.1,6-1.7c0.2-0.1,0.3-0.2,0.5-0.3l0.1-0.1c0.4-0.3,0.8-0.5,1.3-0.6c0.7-0.1,1.5-0.2,2.3-0.3
	c1.1-0.1,2.2-0.2,3.3-0.5c2.7-0.7,5.5-1.5,8-2.2c3.4-1,6.9-2,10.5-2.9c3.8-0.9,7.7-1.6,11.6-2l3-0.3c6.5-0.7,13.3-1.4,20-1.6
	c1,0,2.1-0.1,3.1-0.1c1.4-0.1,2.9-0.1,4.3-0.1c2.8-0.1,5.7,0.3,8.4,1.2c0.5,0.2,1,0.2,1.5,0.2c1.2-0.1,2.4-0.3,3.5-0.6
	c1.2-0.4,2.5-0.6,3.8-0.6h0.3c0.2,0,0.5,0,0.7,0c5.1,0,8.9-2.8,12.6-6c1.6-1.3,3.1-2,4.6-2c2,0,3.7,1.2,5.2,3.6
	c4.6,7.7,6.4,16.3,7.5,23.6c1,6.4,0.5,13.5-1.5,22.4c-0.1,0.5-0.2,1-0.3,1.5l-0.2,0.7c-0.8,4-1.9,8-3.1,11.9
	c-1.2,3.7-2.8,7.3-4.3,10.8v0.1c-0.5,1.1-1,2.2-1.5,3.4l-0.5,1.3l-0.1,0.2c-1.7,4.1-3.5,8.3-5.5,12.3c-0.5,0.9-0.6,1.5-0.4,1.8
	c0.2,0.3,0.5,0.4,1.1,0.4c0.2,0,0.4,0,0.6,0c6.3-0.6,11.4-2.3,15.1-5.1c4.1-3.2,7.8-7.1,11.3-10.8l0,0c1.2-1.3,2.5-2.6,3.7-3.9
	c0.7-0.7,1.3-1.5,1.8-2.3c0.7-1.2,1.7-2.2,2.8-3.1c0.7-0.5,1.5-0.7,2.4-0.7c2.8,0.1,5.2,1.8,6.3,4.4c1.9,5,3.7,10.1,5.4,15.1
	l0.9,2.5c0.5,1.4,2.7,3.4,3.9,3.4c0.2,0,0.4-0.1,0.5-0.2c0.3-0.4,0.7-0.9,1.1-1.3c1.6-1.9,3.2-3.8,3.5-5.9
	c0.8-5.1,0.8-10.5,0.8-15.6v-2.1c0.1-8.7,0.1-17.4,0-25.9c0-3.6,0-7.1,0-10.6c0-0.2,0-0.5,0-0.7c0-0.5,0-1,0-1.6
	c0-0.8-0.1-1.6-0.1-2.4V662c-0.1-2.5-0.3-5.1-0.5-7.7c-0.2-2.4-0.6-4.9-0.9-7.2c-0.1-0.9-0.3-1.8-0.4-2.7c-0.3-2.6-0.7-5.2-1.1-7.8
	l-0.1-0.8l-1-7.1c-0.1-0.4-0.1-0.9-0.1-1.3v-0.1c0-0.9-0.2-1.7-0.4-2.6c-0.6-2.3-1.2-4.7-1.9-7l-0.1-0.3c-0.7-2.4-1.3-4.7-1.9-7
	c-0.1-0.5-0.1-1-0.1-1.5c0-0.6,0-1.1-0.2-1.6c-0.6-1.8-1.3-3.6-1.9-5.3c-0.4-1-0.7-1.9-1.1-2.9c-0.5-1.5-1-3-1.5-4.3
	c-0.9-3.1-2.1-6.1-3.4-9c-1.5-3.1-3.3-6.1-5-9.1c-2-3.4-4-6.8-5.7-10.4c-3.1-6.7-7.8-13.2-14.3-19.8c-5.9-6.1-12.4-11.7-18.6-17.2
	l-3.6-3.1c-2.5-2.2-4.8-3.3-7-3.3L1220.2,522.7z"/>
<path class="st3" d="M978.6,272.8c-3.5,0-6.6,1.5-9.6,2.9c-1.3,0.6-2.7,1.2-4,1.8c-4.8,1.9-9.4,4.1-13.9,6.7
	c-0.6,0.3-1.2,0.6-1.8,0.9l-0.1,0c-3.2,1.6-6.6,3.3-7.1,7.4c-0.6,4.2-0.6,8.4-0.2,12.6c0.1,1.2,2.4,3.3,3.5,3.3h0.1
	c4.2-0.5,8.5-0.8,12.8-0.9c4.4-0.1,8.9,0.5,13.1,1.7c6.2,1.8,11,5.5,15.7,9l0.6,0.5c3.8,2.9,3.7,7.6,3.7,12.2v0.3
	c0.1,1,0.3,1.9,0.7,2.8c0.1,0.4,0.3,0.7,0.4,1c0,0,0.1,0,0.2,0c0.1,0,0.7,0,0.7-0.1c0.1-0.5,0.3-1,0.4-1.4c0.5-1.2,0.8-2.5,0.8-3.9
	c-0.1-1.6-0.3-3.2-0.6-4.7c-0.2-1-0.4-2.1-0.5-3.2c-0.4-3.9-0.9-7.8-1.3-12.2l-0.1-1.4c-0.2-1.7-0.4-3.5-0.5-5.2
	c0-0.4-0.1-0.8-0.1-1.2c-0.1-1.4-0.3-2.8-0.6-4.1c-0.3-1.6-0.7-3.2-1.2-5c-0.9-3.2-1.5-6.4-1.9-9.7c-0.4-4.5-2.2-7.4-6-9.7
	C980.6,272.9,979.6,272.8,978.6,272.8L978.6,272.8z"/>
<path class="st3" d="M631.5,278.2c-3.5,0-7.5,1.9-8.4,5.1c-0.9,3.5-1.8,7-1.9,10.6c-0.2,8.8-0.1,17.8-0.1,25.8v1.8c0,2.3,0,4.7,0,7
	c0,0.3,0.1,0.5,0.2,0.8c0,0.1,0.1,0.3,0.1,0.4l0.3-0.3c0.3-0.2,0.5-0.4,0.6-0.6c0.6-4.1,3.2-6.8,5.8-9.7l0.4-0.4
	c5.3-5.8,11.6-8.8,19.3-9.2c0.9,0,1.8-0.1,2.6-0.1c4.4-0.1,8.7,0.7,12.8,2.2c0.4,0.2,0.9,0.3,1.4,0.3c0.8-0.1,1.6-0.4,2.2-0.9
	l0.2-0.2c1.9-1.2,2.3-3.2,2.8-5c0.2-1.3,0.7-2.6,1.4-3.8c0.9-1.1,1.6-2.4,1.9-3.7c0.7-3.1-1.2-4.5-3.3-6l-0.1-0.1
	c-0.5-0.4-1-0.7-1.5-1.1l-3-1l-0.3-0.1c-2.4-0.8-4.9-1.5-7.3-2.4c-3-1.1-6.1-2.3-9-3.4c-1.4-0.6-2.8-1.1-4.3-1.6
	c-0.9-0.4-1.9-0.7-2.8-1l-0.4-0.1c-2.1-0.8-4.4-1.6-6.7-2.6C633.7,278.4,632.6,278.2,631.5,278.2L631.5,278.2z"/>
<path class="st3" d="M803.7,587.4c-2,0-3.9,0-5.9,0.1l-3.7,0c-0.1,0-0.3,0.2-0.5,0.6c-0.3,0.5-0.5,1.1-0.3,1.3l0.2,0.3
	c3.2,4.8,6.4,9.8,10,14.4c0.6,0.8,2.4,1.4,3.5,1.4c0.3,0,0.5,0,0.8-0.2c2.7-2.1,5.5-4.8,5.7-9.4l0.8-1.8l0.8-1.8
	c0.7-1.6,1.1-2.8,0.7-3.6c-0.3-0.6-1.2-0.9-2.8-1.1C810.3,587.5,807.3,587.4,803.7,587.4L803.7,587.4z"/>
</svg>
