<?xml version="1.0" encoding="utf-8"?>
<!-- Generator: Adobe Illustrator 22.0.1, SVG Export Plug-In . SVG Version: 6.00 Build 0)  -->
<svg version="1.1" id="Draw_Layer" xmlns="http://www.w3.org/2000/svg" xmlns:xlink="http://www.w3.org/1999/xlink" x="0px" y="0px"
	 viewBox="0 0 1804 1482" style="enable-background:new 0 0 1804 1482;" xml:space="preserve">
<style type="text/css">
	.st0{fill:#2C2C2C;}
	.st1{fill:#BEBEBE;}
	.st2{fill:#725AF7;}
	.st3{fill:#03C3EB;}
</style>
<title>Hedgehog</title>
<path class="st0" d="M807.2,315.9c-64.9-13.6-135.9,6.9-183.6,53l56.8,15.8c-40,33.9-68.8,79.2-82.5,129.9c16.8-6.6,35.1-8.8,53-6.5
	c-35.2,32.1-61.5,72.8-76.4,118.1c-2,6.2-3.1,14.5,2.5,17.8c2.8,1.7,6.3,1.3,9.6,0.9l65.8-8.7c-39.2,48.6-68.4,104.4-85.7,164.4
	c-1.9,6.4-3.6,13.4-1.2,19.7c2.4,6.3,10.7,10.6,16,6.6c19.8-14.6,43.5-23.2,68-24.8c-50.1,64.2-76.3,146.5-72.6,227.8
	c17.3-15.2,36.8-27.7,57.8-37.1c-32.1,56.5-48,120.8-45.9,185.7c30.8-26.7,67.9-45.3,107.7-53.9c11.8-2.5,24.3-4.2,35.9-0.6
	s21.9,13.5,22.4,25.6c1.2,25.8,8.3,51,21,73.5c6,10.6,14,21.2,25.8,24.4c21.4,5.8,40.2-15.3,50-35.1c17.3-35,26-73.7,25.2-112.8
	c-0.3-14.7,12.6-26.9,26.7-30.9s29.1-1.7,43.6,0.7c3.5,45.5,12.3,90.4,26.1,133.9c5.1,16,11.1,32.3,22.4,44.8
	c11.3,12.5,29.1,20.4,45.2,15.6c16.4-4.8,26.9-21,32-37.3c5.1-16.3,6.3-33.6,11.9-49.7c17.3-49.9,81.1-77.5,129.3-56
	c10.3,4.6,16.7-11.6,16-22.9c-2.6-44.6-11-88.6-25.3-130.9c11.2-1,22.3,2.1,31.3,8.7c8.3,6.2,21.1-1.1,24.2-10.9
	c3.2-9.9-0.1-20.5-3.3-30.4c-12.1-36.6-24.2-73.3-36.4-109.9l38.7,6.9c-9.2-54.7-30.5-106.6-62.4-151.9
	c12.4-14.4,31.4-21.4,50.2-18.5c10.4,1.7,12.2-14.5,8.8-24.4c-14.2-40.4-37.4-77.1-67.8-107.3l33-20.9c3.3-2.1,6.8-4.5,7.5-8.3
	c0.6-3.5-1.5-6.9-3.5-9.8c-29.2-41.5-67-76.1-110.9-101.5l59.2-52.1c-64-23.5-133.7-26.8-199.7-9.5c11.2-19.5,22.3-39,33.5-58.4
	c-46.4-0.9-92.9,18.3-125.2,51.6c-20.8-30-53.1-50-89.3-55.2C796,282.4,800.8,299.4,807.2,315.9L807.2,315.9z M805,277.4L805,277.4
	L805,277.4c29.3,8.6,55.9,28,73.2,53.3c1.2,1.7,2.2,3.3,3,4.6l0.1,0.2l0.1,0.1c22.2-25.7,51.6-44.2,84.4-52.9
	c6.5-1.7,13.2-3,19.9-3.9l0.9-0.1c1.1-0.1,2.2-0.3,3.2-0.4l0,0l0,0l0,0l0,0l0,0l0,0l0,0l0,0l0,0l0,0c-9.4,11.3-17.4,23.7-23.8,37
	c-3,6.2-3,15.4-0.1,20.1c1.1,1.9,3.1,3.1,5.3,3.1c0.7,0,1.3-0.1,2-0.3c54.6-14.2,112-14.4,166.7-0.5c4.3,1.1,8.2,2.2,11.7,3.3
	l0.7,0.2l0.8,0.3h0.1l-6.4,5.1l-32.2,25.8c-4.8,3.9-9,7.5-10.3,12.7c-3.2,12.3,10.9,21.2,21.8,26.9c31.5,16.4,58.3,40.7,77.8,70.5
	c3,4.5,5.8,9.2,8.3,13.8c0.8,1.3,1.3,2.5,1.9,3.5l0.4,0.8l0,0l0,0l0,0l0,0l0,0l0,0l0,0l0,0l0,0l0,0l0,0l0,0
	c-10.1,1.8-22.7,3.9-31.3,11.9c-4.9,4.7-7.6,11.3-7.4,18.1c0.2,4.9,2.3,9.1,5.7,11.8c3.7,2.9,7.2,5.9,10.5,9c0.5,0.5,1,0.9,1.4,1.4
	l0.2,0.2v0l-0.1-0.1l0.1,0.1l0,0c0,0,0,0-0.1-0.1l0,0.1l0-0.1l0,0l0,0c21.6,20.5,37.4,46.3,45.8,74.9c1.1,3.6,2.1,7.4,2.9,11.3v0.1
	c0.7,3,1.2,5.8,1.5,8.3v0.2v0.1l0,0l0,0l0,0l0,0l0,0l0,0l0,0l0,0l0,0l0,0h-3.7c-12.7,0-27.2,0.6-38.7,7.8
	c-7.3,4.7-12.4,12.2-13.9,20.8c-1.1,6.3,0.3,12,3.8,16.4c24.8,30.8,42.3,66.8,51,105.3c1.2,5.4,2.2,10.6,3,15.5l0.2,1.2
	c0.1,0.4,0.1,0.8,0.2,1.2l0,0l0,0l0,0l0,0l0,0l0,0l0,0l0,0l0,0l0,0l0,0l0,0c-5.5-2.6-13.8-6.1-21.3-6.1c-4.7,0-8.6,1.3-11.6,4
	c-12.1,10.4-2.2,29.5,6.3,43c17.8,28,27.1,60.6,26.7,93.8c-0.1,4.3-0.3,8.5-0.6,12.3c0,0.1,0,0.2,0,0.3s0,0.5-0.1,0.7l0,0l0,0l0,0
	l0,0l0,0l0,0l0,0l0,0l0,0l0,0l0,0l0,0c-8.8-6.3-16.8-11.7-26.1-13.4c-1.6-0.3-3.1-0.4-4.7-0.4c-9.3,0-17.3,4.4-20.4,11.4
	c-4,8.8,0.2,19.1,4,28.1l0,0.1c13.7,33.1,20.6,68.6,20.5,104.4c0,3.5-0.1,6.8-0.3,9.6c0,0.3,0,0.5-0.1,0.8c0,0.1,0,0.2,0,0.3l0,0
	l0,0l0,0l0,0l0,0l0,0l0,0l0,0l0,0l0,0c-12.2-4.4-25.1-6.6-38-6.5c-26.9,0-54.2,9.5-74.8,26.1c-2.8,2.3-5.7,4.8-8.6,7.6l-0.7,0.7
	c-0.4,0.4-0.8,0.8-1.2,1.3l0,0l0,0l0,0l0,0l0,0l0,0l0,0l0,0l0,0l0,0l0,0l0,0l1.4-179.4l1.4-178.1c0.7-86.5,1.4-184.6-32.5-271
	l-0.6-1.5c-10-25.4-21.3-54.3-5.8-75.9c2.6-3.4,5.5-6.5,8.6-9.4l0.1-0.1c3.6-3.5,7.4-7.2,10.1-11.6c4.3-7.2,5.1-16.1,2.3-25.2
	c-3.3-10.7-11-19.7-20.7-24.2c-6.1-2.8-12.8-4.2-19.6-4.1c-12.4,0-25.4,4.3-36.7,12.1c-16.6,11.5-28.7,29.1-38.8,44.7
	C938.2,396.3,909,389,879.1,389c-24.2,0-48.1,4.8-70.3,14.2l-1.1,0.5l0,0c-8.4-22.9-26.6-50.3-51.4-50.3c-1.6,0-3.2,0.1-4.7,0.3
	c-10.2,1.4-19.1,7.7-25.1,17.7c-8.1,13.7-9.7,32.1-4,46.9c2.1,5,4.4,9.9,7,14.7c3,5.8,6.2,11.8,8.2,18.2c4.9,15.6,2.8,32.6,0.9,47.7
	l-14.8,119.1l-13,105.1c-10,80.8-20.4,164.3-1.9,245.4c4.7,20.5,11.2,40.8,17.6,60.5v0.1l0.1,0.2c8.3,25.6,16.8,52,21.2,79.1
	c0.3,2.1,0.6,3.7,0.8,5.2v0.1l0,0l0,0l0,0l0,0c-8.3-1.1-16.6-1.7-24.9-1.7c-40.5,0.1-79.9,12.9-112.7,36.6c-4.3,3.1-8.6,6.6-13,10.3
	l-0.8,0.8c-0.6,0.5-1.1,1-1.7,1.5l0,0l0,0l0,0l0,0l0,0l0,0l0,0l0,0l0,0l0,0l0,0l0,0c2.5-59.3,20-117,51-167.7c1-1.8,1.1-4.1,0.3-6
	c-1.2-2.9-3.7-5-6.8-5.8c-1-0.2-2-0.3-3-0.3c-4.2,0-8.3,1.8-12.1,3.7c-12.5,6.3-24.2,14.2-34.6,23.5c-1.3,1.1-2.7,2.5-4.8,4.3
	l-0.3,0.2l-0.9,1l0,0l0,0l0,0l0,0l0,0l0,0l0,0l0,0l0,0l0,0l0,0l0,0c-0.5-76.4,28.2-153.2,78.8-210.5c1.4-1.7,1.9-3.9,1.2-6
	c-0.9-3.2-3.2-5.8-6.3-6.9c-1.5-0.5-3.1-0.7-4.7-0.7c-3.7,0-7.6,1.2-11.4,2.5l-66.6,22.5l-0.8,0.2l-0.4,0.1l0,0l-0.1,0l0,0h-0.1
	c15.7-63,44.6-121.8,84.8-172.7c2.9-3.6,5.5-6.8,7.8-9.5l0.3-0.4l0.1-0.1c-11.6-3.5-23.7-5.2-35.8-5.2c-14.2,0-28.3,2.4-41.7,7
	c-1.3,0.5-2.8,1-4.5,1.6l-0.5,0.2h-0.1l-0.8,0.3l0,0l0,0l0,0l0,0l0,0l0,0l0,0l0,0l0,0l0,0c11.9-49.3,39.6-93.4,78.8-125.6
	c2-1.6,3.4-2.7,4.5-3.6l0.1-0.1h0.1c-8.5-7.4-19.9-11.5-31.9-11.5c-7.5-0.1-14.9,1.6-21.7,4.8c-0.8,0.4-1.7,0.9-3,1.6H610l-0.6,0.4
	l0,0l0,0l0,0l0,0l0,0l0,0l0,0l0,0l0,0l0,0l0,0l0,0c12.9-41.3,38.7-77.3,73.6-102.8c4.1-2.9,6-7.7,5.5-13.4
	c-0.7-7.7-5.8-15.3-12.4-18.5c-4.9-2.2-10.2-3.4-15.5-3.2c-6.6,0-13.4,1.3-19.3,2.7l-1.5,0.3l-0.3,0.1l-0.2,0.1
	c-0.4,0.1-0.9,0.2-1.5,0.3h0l-0.3,0.1l0,0l0,0l0,0l0,0l0,0l0,0l0,0l0,0l0,0h0c41-40.8,103-46.3,158.3-46.3c6.5,0,13.8,0.1,22.9,0.3
	l2.4,0.1h0.5h0.3C817.3,306.8,811.8,291.8,805,277.4L805,277.4z M756.5,363.5c16,0,32.6,15,37,33.5c0.2,1,0.4,2,0.7,2.9l0.1,0.3
	c0.8,3.9,1.7,7.9,3.8,11.3c2.1,3.4,6.1,5.8,9.6,5.8c1.2,0,2.3-0.3,3.4-0.8c20.8-10.5,43.8-16,67.1-15.9c27.2,0,53.5,7.1,75.9,20.5
	c1.8,1.1,3.9,1.6,6,1.6c4.8,0,10-2.6,13.7-6.7c3.3-3.8,5.6-8.4,7.7-12.9l0,0V403c0.9-1.9,2-4.2,3.2-6.2c2.6-4.6,5.8-8.8,9.5-12.6
	c7.2-7.2,16-12.6,25.8-15.7c5.7-1.8,11.6-2.7,17.6-2.8c0.8,0,1.6,0,2.4,0c10.6,0.5,21.4,5.5,27.4,12.9c4,4.9,5.6,10.4,4.8,16
	c-1.5,9.8-9.4,15.8-17.8,22.1c-6,4.5-12.2,9.2-15.9,15.5c-7.3,12.4-3.6,28,0.9,41.7c4.3,12.9,9.3,25.8,14.1,38.1l0.1,0.2
	c9.7,25.2,19.8,51.2,24.6,78.1c3.3,18.3,4.1,36.8,4.8,55.8c0.9,26,1.4,52.4,1.6,78.3c0.1,20.6-0.2,39-5.4,56.7
	c-7.5,25.6-24.4,46.8-41.6,66c-12.7,14.1-23.9,25.2-37.5,33.2c-7.2,4.2-18.2,9.2-30.4,9.2c-3.6,0-7.1-0.5-10.6-1.4
	c-9.9-2.7-18.3-9.4-24.4-19.4c-5.7-9.5-8.6-20.3-8.4-31.4c0.1-7.3,1.2-16.2,5.9-28.6c3-7.7,6.5-15.2,10.6-22.4
	c1.7-3,3.5-6.2,5.5-9.5c1.8-3,3.8-6.1,5.5-8.9l0.2-0.2c9.5-15.2,19.3-31,24.4-48.4c3.3-11.5,4.5-25.8,1.1-39c0,0,0-0.1,0-0.1v-0.1
	c-0.7-2.8-1.7-5.6-2.9-8.2c-2.2-5.1-5.4-9.7-9.2-13.6c-10.2-10.4-26.2-16.4-47.5-17.7c-3.1-0.2-6.2-0.3-9.2-0.3
	c-15.9,0-29.8,2.8-41.4,8.4c-4.4,2.1-8.6,4.7-12.4,7.8c-3,2.4-5.8,5.1-8.3,8l-0.1,0.1l0,0c-5.6,6.4-9.4,14.1-11.2,22.4
	c-3.7,18,3.7,36.7,9.7,51.8l10.8,27.2l10.7,27.2c4.7,11.8,9.5,24,10.6,36.9c1.2,14.4-3,27.4-11.6,35.4c-6.4,6.1-15.2,9.3-25.3,9.3
	c-9.1-0.1-18-2.5-25.8-7.2c-16.3-9.7-27-26.1-35.7-40.8c-38.9-65.2-57.1-127.3-54.1-184.9c0.9-17.2,3.7-34.4,6.5-51l9-55l8.8-53.7
	c1.7-10.5,3.9-23.5-0.7-34.6c-2-4.8-5.1-9.1-8.1-13.3l-0.1-0.1c-1-1.4-2-2.8-3-4.2c-5.7-8.3-12.4-21.2-11.5-35.5
	c0.8-13.6,8.9-25.6,20.1-29.8c2.9-1.1,5.9-1.6,8.9-1.6L756.5,363.5L756.5,363.5L756.5,363.5z M881.7,865.9
	c8.4-14.1,10.4-33.1,5.4-53.6c-3.5-14.3-9.7-28-15.8-41.3c-1.5-3.2-3-6.7-4.5-10c-4.8-10.7-9.1-21.7-13-32.7
	c-5.2-14.7-9.3-30.2-3.6-44c6.9-16.8,25.8-24.8,40.5-28.5c8.4-2.3,17.1-3.4,25.9-3.5c5.3,0,10.7,0.6,15.9,1.7
	c14.8,3.4,27.1,12.5,32.9,24.2c8.1,16.1,5,37.4-9.1,63.1c-3.7,6.8-7.7,13.4-11.6,19.9l-0.1,0.1l-0.1,0.1l-0.2,0.3
	c-9.5,15.9-19.4,32.3-25.1,50.2c-7,22.1-7.8,54.8,13.2,74.4c10.1,9.5,24.9,14.9,40.5,14.9c1,0,2.2,0,3.8-0.1h0.1
	c-4.4,25.2-11.2,53.9-29,75.6c-13.8,16.8-34.4,27.2-53.8,27.2c-6.5,0-12.9-1.2-18.9-3.6c-8.4-3.4-16.4-9.3-24.5-18
	c-20.3-21.8-32.3-51.4-34-83.2c-0.2-4.1,0-13.9,7-15.8c0.7-0.2,1.4-0.3,2.2-0.3c2.4,0,4.8,0.9,7.1,1.8l0.1,0l0.3,0.1h0.1l0.2,0.1
	l1.1,0.4c3.5,1.2,7.2,1.9,10.9,1.9C859.6,887.2,874.1,878.6,881.7,865.9L881.7,865.9z M807.1,1234.7c-15.5-1.3-24.6-17.7-29.5-31.2
	c-9.4-25.9-13.9-53.6-18.4-80.5c-2.4-14.9-5-30.3-8.3-45.3c-4.9-22.1-11.8-44-18.4-65.3l0-0.1c-9.2-29.4-18.7-59.8-23.1-90.8
	c-9.5-66.1,3.6-132.5,16.3-196.6l0,0l0,0c1.8,5.9,3.7,11.8,5.6,17.9c9.1,28.3,19.4,56.6,34.2,81.8l0.1,0.1c0,0,0,0.1,0.1,0.1
	c8.1,13.9,17.9,26.6,29.2,38l0.8,0.8c5.5,5.5,11.8,11.7,12.1,19.6c1,27.3,4.4,46.5,8.6,60.7c2.3,7.7,5.2,15.1,8.8,22.3
	c0.8,1.5,1.6,3,2.4,4.4c1.6,2.9,3.4,5.7,5.4,8.5c5.9,8.4,13.1,15.8,21.4,21.9c13.1,9.6,28.1,15.1,42.9,15.1c1.1,0,2.1,0,3.2-0.1
	c22.1-1.2,44.4-14.5,59.6-35.7c2-2.8,3.9-5.7,5.8-8.8c4.3-7.4,8-15.2,10.9-23.3c4-11.2,7.2-22.6,9.5-34.3
	c2.3-10.9,12.4-18.2,21.3-24.7l0.9-0.7c25.7-18.8,47.9-41.8,65.9-68c2.4-3.5,4.6-7,6.8-10.5l0,0l0,0c11.8,124,8.9,251.8-8.5,380
	c-2.2,16.1-4.6,30.4-12.3,42.6c-7.4,11.7-19.8,19.3-31.5,19.3c-2,0-4.1-0.2-6.1-0.7c-7.1-1.6-13.8-6.1-20.6-13.5
	c-17.1-18.9-24.4-44.1-29.7-68.6c-6.8-31.4-11-63.4-12.7-95.5c-0.4-8.5-2-20.1-10.8-23.1c-1.3-0.4-2.6-0.6-4-0.6
	c-4.1,0-8.2,1.8-12.2,3.4l-1.9,0.8c-8.9,3.6-18.4,5.5-28,5.5c-7.1,0-14.1-1-20.9-3c-0.6-0.2-1.3-0.3-2-0.3c-3.5,0-7.2,2.6-8.9,6.4
	c-1.8,4-1.8,8.6-1.7,13v0.4c0.7,44.2-8.5,88.1-27,128.3c-1.8,3.9-3.8,7.7-6.2,11.3c-4,6.2-8.8,11.8-14.5,15.3
	c-3.8,2.5-8.3,3.8-12.8,3.8c-0.6,0-1.3,0-1.9-0.1L807.1,1234.7z"/>
<path class="st0" d="M870.9,581.7c-1.1,2.1-1.9,4.5-2.1,6.9c-0.2,2.3-0.1,4.7,0.1,7c0.3,3.6,0.6,7.6,2.3,11.2
	c0.8,1.8,1.9,3.4,3.2,4.9c1.8,2.2,3.8,4.2,6.1,5.9c4.4,3.1,9.7,4.8,15.2,4.8c3.9,0,7.8-0.9,11.3-2.6c12.7-6.3,17.9-21.7,11.6-34.4
	c-2.3-4.6-5.9-8.4-10.4-11c-4.7-2.5-10-3.9-15.3-3.9C883.1,570.4,874.7,574.7,870.9,581.7L870.9,581.7z M883.7,603.3
	c-1.8-1.9-3.1-4.3-3.8-6.8c-1.4-6.3,2.4-12.5,8.7-13.9c0.9-0.2,1.8-0.3,2.8-0.3c1.6,0,3.3,0.3,4.8,1c3.4,1.5,5.8,4.5,7.9,7.6
	c1.8,2.5,3.6,5.5,3.7,8.8c0,0.7-0.1,1.5-0.3,2.2c-0.2,0.9-0.6,1.7-1,2.5c-1.9,3.2-5.2,5.2-8.9,5.5c-0.3,0-0.7,0-1,0
	C892.1,609.9,887.3,607.4,883.7,603.3L883.7,603.3z"/>
<path class="st0" d="M882.8,674.7c-1.7,1.2-1.9,3.6-1.9,6c0,8.7,0,17.5-0.1,26.3c0,2.1,0,4.4,0.9,6.4l0.1,0.2l0.1,0.2
	c0.9,1.6,2.5,2.7,4.4,2.8c0.5,0,1-0.1,1.4-0.3c2.4-1.1,2.7-4.5,2.8-7c0-8.2,0.1-16.5,0.1-24.7v-0.6c0-2.3,0-5.2-1.3-7.4
	c-1-1.6-2.6-2.5-4.4-2.6C884.1,674.1,883.4,674.3,882.8,674.7L882.8,674.7z"/>
<path class="st0" d="M923.2,690.6c-1.9,2.3-2,5.5-1.9,8.9l0.2,9.9l0.2,9.7c0.1,6.4,0.5,12.4,4.2,16.7l0.2,0.2l0.2,0.2
	c6.1-4,5.5-13,5-16.7c-0.2-1.1-0.3-2.2-0.5-3.2V716v-0.2v-0.1v-0.1c-0.8-4.9-1.7-9.8-0.2-14.5c1.1-3.4,1.3-7,0.4-10.4
	c-0.6-1.3-2-2.1-3.5-2C925.9,688.7,924.4,689.3,923.2,690.6L923.2,690.6z"/>
<path class="st0" d="M904,743.8c-0.4,0.4-0.6,0.9-0.6,1.5l0.1,18.9l0.1,18.9c-0.1,1.5,0.1,3.1,0.5,4.5c0.8,2.6,3.2,4.5,5.9,4.6
	c0.3,0,0.5,0,0.8-0.1c1.6-0.3,2.9-1.3,3.6-2.7c0.6-1.2,0.7-2.6,0.1-3.8c-0.9-1.7-1.1-3.8-1.2-5.6c-0.6-9.7-1.2-19.5-1.8-29.3
	c-0.2-2.6-0.5-5.3-2.3-7c-0.7-0.6-1.6-0.9-2.5-0.9C905.6,742.9,904.7,743.2,904,743.8L904,743.8z"/>
<path class="st0" d="M901.4,880.3c-2.3,0.5-2.6,3.6-2.5,5.5c0,10,0.1,20.4,1.8,30.5c0.2,1.6,0.7,3.2,1.6,4.6
	c0.1,0.1,0.2,0.2,0.3,0.3c0.8,0.9,1.9,1.5,3.1,1.5c0.6,0,1.1-0.2,1.6-0.5c1.3-0.9,1.5-2.8,1.5-4.6c0.2-10.3,0.1-21-0.3-31.8
	c0-0.1,0-0.3,0-0.4c0-1.1-0.1-2.1-0.1-3.2c-0.2,0.1-0.5,0.1-0.7,0.1c-1-0.1-2-0.5-2.8-1.1c-0.8-0.6-1.8-0.9-2.8-1
	C901.7,880.3,901.5,880.3,901.4,880.3L901.4,880.3z"/>
<path class="st0" d="M860.6,919c-0.3,12-0.3,24.1,0.2,36.1c0.1,2.7,0.3,5.3,1.7,7.2l0.1,0.1c0,0.1,0.1,0.1,0.1,0.2
	c1,1.1,2.4,1.8,3.9,1.8c1.1,0.1,2.2-0.5,2.8-1.4c0.5-0.9,0.7-1.9,0.7-2.9c0.7-9.1,0.2-18.3-1.3-27.3c1.2-5.8,2.2-11.8,2.8-18
	c0-0.1,0-0.1,0-0.2l0.1-0.7l-4.1-0.1l-4-0.1C861.5,913.8,860.7,916.6,860.6,919L860.6,919z"/>
<path class="st0" d="M935,926.9c-0.7,10.6,0.2,21.3,2.6,31.6c1.1,4.9,2.8,10.5,6.8,14.2c3.3-1.7,4.4-5.8,4.3-8.8
	c-0.2-2.6-0.8-5.3-1.7-7.8c-0.2-0.8-0.5-1.6-0.7-2.4c-1.5-5.5-2.1-11.2-1.7-16.9l0.1-0.9l0-0.5c0.3-2,0.3-4,0-6.1
	c-0.4-2.2-1.7-4.8-4.2-5.7c-0.4-0.1-0.9-0.2-1.4-0.2C937.3,923.5,935.1,924.8,935,926.9L935,926.9z"/>
<path class="st1" d="M725.6,724.9L725.6,724.9c-12.7,64.1-25.8,130.5-16.3,196.6c4.5,31,13.9,61.4,23.1,90.8v0.1
	c6.6,21.3,13.5,43.2,18.4,65.3c3.3,15,5.9,30.4,8.3,45.3c4.4,26.8,9,54.5,18.3,80.5c4.9,13.5,14,29.9,29.5,31.2
	c0.6,0.1,1.3,0.1,1.9,0.1c17,0,28.3-19.1,33.5-30.4c18.4-40.2,27.6-84.1,27-128.3v-0.4c-0.1-4.4-0.2-9,1.7-13
	c1.7-3.8,5.4-6.4,8.9-6.4c0.7,0,1.3,0.1,2,0.3c6.8,2,13.8,3,20.9,3c9.6,0,19.1-1.9,28-5.5l1.9-0.8c4-1.7,8.1-3.4,12.2-3.4
	c1.4,0,2.7,0.2,4,0.6c8.7,3,10.3,14.6,10.8,23.1c1.6,32.1,5.9,64,12.7,95.5c5.3,24.5,12.5,49.7,29.7,68.6
	c6.8,7.5,13.5,11.9,20.6,13.5c2,0.5,4,0.7,6.1,0.7c11.7,0,24.1-7.6,31.5-19.3c7.7-12.2,10.1-26.5,12.3-42.6
	c17.4-128.2,20.3-256,8.5-380c-19,30.6-43.7,57.3-72.8,78.5l-0.9,0.7c-8.9,6.5-18.9,13.8-21.3,24.7c-6.2,29.3-14.2,49.8-26.2,66.4
	c-15.3,21.2-37.6,34.6-59.6,35.7c-1.1,0.1-2.2,0.1-3.2,0.1c-26.8,0-54.1-17.8-69.7-45.5c-8.2-14.6-17.9-37.7-19.8-87.4
	c-0.3-7.9-6.6-14.1-12.1-19.6l-0.8-0.8C757,825.4,740.3,772,725.6,724.9L725.6,724.9L725.6,724.9z"/>
<path class="st2" d="M891.5,582.3c-6.4-0.1-11.7,5-11.8,11.5c0,0.9,0.1,1.9,0.3,2.8c0.7,2.6,2,4.9,3.8,6.8c3.6,4.1,8.4,6.5,12.9,6.5
	c0.3,0,0.7,0,1,0c6.2-0.5,10.3-5.6,10.3-10.1c-0.1-3.3-1.9-6.3-3.7-8.8c-2.1-3-4.5-6.1-7.9-7.6C894.8,582.6,893.1,582.3,891.5,582.3
	L891.5,582.3z"/>
<path class="st3" d="M916.7,652.2c-8.7,0.1-17.4,1.3-25.9,3.5c-14.7,3.7-33.6,11.6-40.5,28.5c-5.6,13.8-1.6,29.3,3.6,44
	c3.9,11,8.3,22,13,32.7c1.5,3.3,3,6.8,4.5,10c6.1,13.3,12.3,27,15.8,41.3c4.9,20.5,3,39.5-5.4,53.6c-7.7,12.8-22.2,21.4-36.1,21.4
	c-3.7,0-7.4-0.6-10.9-1.9c-0.4-0.1-0.8-0.3-1.1-0.4l-0.2-0.1l-0.1,0l-0.3-0.1h-0.1c-2.3-0.9-4.7-1.8-7.1-1.8c-0.7,0-1.5,0.1-2.2,0.3
	c-6.9,1.9-7.2,11.7-7,15.8c1.7,31.8,13.7,61.4,34,83.2c8.1,8.7,16.1,14.6,24.5,18c6,2.4,12.5,3.7,18.9,3.6c19.4,0,40-10.4,53.8-27.2
	c17.8-21.7,24.6-50.4,29-75.6c-1.6,0-2.9,0.1-3.9,0.1c-15.6,0-30.3-5.4-40.5-14.9c-21-19.6-20.3-52.4-13.2-74.4
	c5.7-17.9,15.6-34.3,25.1-50.2l0.2-0.3l0.1-0.1l0.1-0.1c3.9-6.5,7.9-13.2,11.6-19.9c14.1-25.8,17.2-47,9.1-63.1
	c-5.9-11.7-18.2-20.8-32.9-24.2C927.3,652.8,922,652.2,916.7,652.2L916.7,652.2z M886.3,716.7c-1.9-0.1-3.5-1.2-4.4-2.8l-0.1-0.2
	l-0.1-0.2c-1-2-0.9-4.4-0.9-6.4c0-8.8,0-17.5,0.1-26.3c0-2.4,0.2-4.8,1.9-6c0.6-0.4,1.3-0.6,2-0.6c1.8,0.1,3.5,1.1,4.4,2.6
	c1.4,2.3,1.3,5.1,1.3,7.4v0.6c0,8.2-0.1,16.5-0.1,24.7c0,2.4-0.3,5.8-2.8,7C887.3,716.6,886.8,716.7,886.3,716.7L886.3,716.7z
	 M926.2,736.1l-0.2-0.2l-0.2-0.2c-3.7-4.3-4.1-10.4-4.2-16.7l-0.2-9.7l-0.2-9.9c-0.1-3.3,0-6.5,1.9-8.9c1-1.2,2.6-1.9,4.2-1.9
	c1.5-0.1,2.8,0.7,3.5,2c0.8,3.4,0.7,7-0.4,10.4c-1.6,4.7-0.7,9.7,0.2,14.5v0.1v0.1v0.2v0.2c0.2,1,0.4,2.1,0.5,3.2
	c0.5,3.7,1.1,12.7-5,16.7L926.2,736.1z M909.9,792.2c-2.7-0.2-5.1-2-5.9-4.6c-0.4-1.5-0.5-3-0.5-4.5l-0.1-18.9l-0.1-18.9
	c0-0.6,0.2-1.1,0.6-1.5c0.7-0.6,1.6-1,2.5-0.9c0.9,0,1.8,0.3,2.5,0.9c1.8,1.7,2.1,4.4,2.3,7c0.6,9.8,1.2,19.5,1.8,29.3
	c0.1,1.8,0.2,3.9,1.2,5.6c0.6,1.2,0.5,2.6-0.1,3.8c-0.7,1.4-2,2.4-3.6,2.7C910.4,792.2,910.1,792.2,909.9,792.2L909.9,792.2z
	 M905.5,922.7c-1.2,0-2.3-0.6-3.1-1.5c-0.1-0.1-0.2-0.2-0.3-0.3c-0.9-1.4-1.4-3-1.6-4.6c-1.7-10.1-1.7-20.5-1.8-30.5
	c0-1.9,0.3-5,2.5-5.5c0.2,0,0.3,0,0.5,0c1,0.1,1.9,0.4,2.8,1c0.8,0.6,1.8,0.9,2.8,1.1c0.2,0,0.5,0,0.7-0.1c0.5,12.1,0.7,24,0.5,35.4
	c0,1.8-0.2,3.7-1.5,4.6C906.6,922.5,906.1,922.7,905.5,922.7L905.5,922.7z M866.5,964.4c-1.5,0-2.9-0.7-3.9-1.8
	c-0.1-0.1-0.1-0.1-0.1-0.2l-0.1-0.1c-1.4-2-1.6-4.5-1.7-7.2c-0.4-12-0.5-24.2-0.2-36.1c0.1-2.4,0.9-5.1,3-5.1l4,0.1l4.1,0.1
	c-0.7,6.3-1.6,12.6-2.9,18.8c1.5,9,2,18.2,1.3,27.3c0,1-0.2,2-0.7,2.9C868.7,963.9,867.7,964.5,866.5,964.4L866.5,964.4z
	 M944.4,972.7c-4-3.7-5.6-9.3-6.8-14.2c-2.4-10.4-3.2-21-2.6-31.7c0.1-2.1,2.3-3.3,4.2-3.3c0.5,0,0.9,0.1,1.4,0.2
	c2.5,0.9,3.8,3.5,4.2,5.7c0.3,2,0.3,4,0,6.1l0,0.5l-0.1,0.9c-0.4,5.7,0.1,11.4,1.7,16.9c0.2,0.8,0.5,1.6,0.7,2.4
	c0.9,2.5,1.4,5.1,1.7,7.8C948.8,967,947.7,971,944.4,972.7L944.4,972.7z"/>
<path class="st3" d="M145.8-250.4c0,1.5,1.2,2.7,2.8,2.8c1.5,0,2.7-1.2,2.8-2.8c0-1.5-1.2-2.8-2.8-2.8
	C147-253.2,145.8-251.9,145.8-250.4z"/>
<path class="st3" d="M144.5-261.2c0,1.5,1.2,2.7,2.8,2.8c1.5,0,2.7-1.2,2.8-2.8c0-1.5-1.2-2.7-2.8-2.8
	C145.7-263.9,144.5-262.7,144.5-261.2z"/>
<path class="st1" d="M756.5,363.5L756.5,363.5L756.5,363.5c-3.2,0-6.2,0.5-9,1.6c-11.3,4.2-19.3,16.1-20.2,29.8
	c-0.8,14.3,5.8,27.2,11.5,35.5c1,1.4,2,2.8,3,4.2l0.1,0.1c3,4.2,6.2,8.4,8.2,13.3c4.5,11.2,2.4,24.2,0.7,34.6l-8.8,53.7l-9,55
	c-2.7,16.7-5.6,33.9-6.5,51c-3,57.5,15.2,119.7,54.1,184.9c8.8,14.7,19.5,31.1,35.7,40.8c7.8,4.6,16.7,7.1,25.8,7.2
	c10.1,0,18.8-3.2,25.3-9.3c8.5-8.1,12.7-21,11.6-35.4c-1-12.9-5.9-25.1-10.6-36.9l-10.8-27.2l-10.8-27.2c-6-15-13.4-33.7-9.7-51.8
	c3.3-15.9,15.3-30.2,32.1-38.3c11.6-5.6,25.5-8.4,41.4-8.4c3,0,6.1,0.1,9.2,0.3c21.3,1.3,37.2,7.3,47.5,17.7
	c16.4,16.7,16.4,42.5,11,61c-5.1,17.4-14.9,33.1-24.4,48.4l-0.2,0.2c-1.7,2.8-3.7,5.9-5.5,8.9c-19,31.2-21.8,48-22.1,60.4
	c-0.2,11,2.7,21.9,8.4,31.4c6.1,10,14.5,16.7,24.4,19.4c3.5,0.9,7,1.4,10.6,1.4c12.2,0,23.3-5,30.4-9.2c13.6-8,24.8-19,37.5-33.2
	c17.2-19.2,34.1-40.4,41.6-66c5.2-17.7,5.5-36.1,5.4-56.7c-0.2-25.9-0.7-52.3-1.6-78.3c-0.7-19-1.5-37.5-4.8-55.8
	c-4.8-26.9-14.9-53-24.6-78.1l-0.1-0.2c-4.8-12.4-9.8-25.3-14.1-38.1c-4.5-13.6-8.2-29.3-0.9-41.7c3.7-6.3,9.9-11,15.9-15.5
	c8.3-6.3,16.2-12.3,17.8-22.1c0.9-5.6-0.8-11.1-4.8-16c-6.1-7.4-16.8-12.5-27.4-12.9c-0.8,0-1.6,0-2.4,0c-21.3,0-42.5,12.4-52.8,31
	c-1.2,2.1-2.2,4.3-3.2,6.2v0.1l0,0c-2.2,4.5-4.4,9.1-7.7,12.9c-3.7,4.2-8.9,6.7-13.7,6.7c-2.1,0-4.2-0.5-6-1.6
	c-22.4-13.4-48.7-20.5-75.9-20.5c-23.3-0.1-46.3,5.4-67.1,15.9c-1.1,0.5-2.2,0.8-3.4,0.8c-3.5,0-7.4-2.3-9.6-5.8
	c-2.2-3.5-3-7.4-3.8-11.3l-0.1-0.3c-0.2-1-0.4-2-0.7-2.9C789.1,378.5,772.5,363.5,756.5,363.5L756.5,363.5z M895.6,622.3
	c-5.4,0-10.7-1.6-15.2-4.8c-2.3-1.7-4.4-3.7-6.1-5.9c-1.3-1.5-2.3-3.1-3.2-4.9c-1.6-3.5-1.9-7.6-2.3-11.2c-0.3-2.3-0.3-4.6-0.1-7
	c0.3-2.4,1-4.7,2.1-6.9c3.7-6.9,12.1-11.2,21.8-11.2c5.4,0,10.6,1.3,15.3,3.9c12.4,6.9,16.8,22.6,9.8,35c-2.5,4.5-6.4,8.1-11,10.4
	C903.3,621.4,899.4,622.3,895.6,622.3L895.6,622.3z"/>
<path class="st2" d="M805,277.3L805,277.3c6.7,14.5,12.3,29.5,16.7,44.8h-0.2l-0.6,0l-2.4-0.1c-9.1-0.2-16.3-0.3-22.9-0.3
	c-55.3,0-117.3,5.5-158.3,46.3h0.1l0,0c0.1,0,0.2,0,0.3,0c0.5-0.1,1-0.2,1.5-0.3l0.2-0.1l0.3-0.1l1.5-0.3c5.9-1.3,12.8-2.7,19.3-2.7
	c5.4-0.1,10.7,1,15.5,3.2c6.6,3.2,11.7,10.8,12.4,18.5c0.5,5.7-1.4,10.5-5.5,13.4c-34.9,25.5-60.7,61.5-73.6,102.8l0.3-0.2l0.4-0.2
	c1.4-0.8,2.2-1.2,3-1.6c6.8-3.3,14.2-5,21.7-4.9c12.1,0,23.4,4.1,31.9,11.5l-0.2,0.1c-1.1,0.8-2.6,2-4.5,3.6
	c-39.2,32.2-66.9,76.3-78.8,125.6l0.4-0.1l0.6-0.2l0.5-0.2c1.7-0.6,3.2-1.2,4.5-1.6c13.4-4.6,27.5-7,41.7-7
	c12.1,0,24.2,1.7,35.8,5.2l-0.1,0.1l-0.4,0.4c-2.3,2.7-4.9,5.9-7.8,9.5c-40.2,50.9-69.1,109.8-84.8,172.7h0.2l0.4-0.1l0.8-0.2
	l66.5-22.5c3.9-1.3,7.7-2.5,11.4-2.5c1.6,0,3.2,0.2,4.7,0.7c3.1,1.2,5.4,3.7,6.3,6.9c0.7,2.1,0.2,4.3-1.2,6
	c-50.6,57.3-79.3,134.1-78.8,210.5l0.6-0.5l0.8-0.7c2-1.9,3.5-3.2,4.8-4.4c10.5-9.3,22.1-17.2,34.6-23.5c3.8-1.9,7.9-3.7,12.1-3.7
	c1,0,2,0.1,3,0.3c3,0.8,5.5,2.9,6.8,5.8c0.9,1.9,0.8,4.1-0.3,6c-31,50.7-48.6,108.4-51.1,167.7l0.7-0.6l0.8-0.7l1.2-1
	c4.3-3.7,8.7-7.2,13-10.3c32.8-23.7,72.3-36.5,112.8-36.6c8.3,0,16.7,0.6,24.9,1.7v-0.2c-0.2-1.5-0.4-3-0.8-5.2
	c-4.4-27-12.9-53.5-21.2-79.1l-0.1-0.2v-0.1c-6.3-19.7-12.9-40-17.6-60.5c-18.5-81.1-8.1-164.6,1.9-245.4l13-105.1L738.6,499
	c1.9-15.1,4-32.1-0.9-47.7c-2-6.4-5.1-12.4-8.2-18.2c-2.6-4.8-4.9-9.7-7-14.7c-5.7-14.8-4.1-33.2,4-46.9c5.9-10,14.8-16.3,25.1-17.7
	c1.6-0.2,3.2-0.3,4.7-0.3c24.8,0,43,27.4,51.1,50.8c22.6-9.7,46.9-14.7,71.4-14.7c29.8,0,59,7.2,84.5,20.9
	c10.1-15.6,22.2-33.2,38.8-44.7c11.3-7.8,24.3-12.1,36.7-12.1c6.7-0.1,13.4,1.3,19.6,4.1c9.7,4.5,17.4,13.5,20.7,24.2
	c2.8,9,2,18-2.3,25.2c-2.7,4.4-6.4,8.1-10.1,11.6l-0.1,0.1c-3.1,2.9-6,6-8.6,9.4c-15.6,21.6-4.2,50.4,5.8,75.9l0.6,1.5
	c33.9,86.4,33.1,184.5,32.5,271l-1.3,178.1l-1.4,179.4l0.2-0.2l0.9-0.9l0.9-0.9c2.8-2.8,5.7-5.3,8.6-7.6
	c20.6-16.6,47.9-26.1,74.8-26.1c13-0.1,25.8,2.1,38,6.5v-0.1c0-0.3,0.1-0.7,0.1-1c0.2-2.9,0.3-6.1,0.3-9.6
	c0.2-35.8-6.8-71.3-20.5-104.4V990c-3.7-9-8-19.2-4-28.1c3.1-6.9,11.1-11.4,20.4-11.4c1.6,0,3.2,0.1,4.7,0.4
	c9.3,1.6,17.3,7,26.1,13.4v-0.1l0,0c0.1-0.3,0.1-0.7,0.1-1c0.4-3.8,0.6-7.9,0.6-12.3c0.4-33.2-8.9-65.8-26.7-93.8
	c-8.5-13.5-18.5-32.6-6.3-43c3-2.6,7-4,11.6-4c7.5,0,15.8,3.5,21.3,6.1v-0.3c-0.1-0.8-0.2-1.5-0.3-2.3c-0.8-4.9-1.8-10.1-3-15.5
	c-8.8-38.5-26.2-74.6-51-105.3c-3.6-4.4-4.9-10.1-3.8-16.4c1.6-8.6,6.6-16.1,13.9-20.8c11.5-7.2,26-7.8,38.7-7.8h3.7v-0.4
	c-0.4-2.5-0.9-5.2-1.5-8.3v-0.1c-0.8-3.9-1.8-7.7-2.9-11.3c-8.3-28.6-24.1-54.5-45.8-74.9l0.1,0.1l0.1,0.1l0.1,0.1l-0.2-0.2
	c-0.5-0.5-1-1-1.6-1.5c-3.3-3.1-6.8-6.1-10.5-9c-3.5-2.7-5.5-6.8-5.7-11.8c-0.2-6.8,2.5-13.4,7.4-18.1c8.6-8,21.2-10.2,31.3-11.9
	l-0.1-0.2l-0.1-0.2l-0.1-0.2c-0.6-1.2-1.2-2.4-2-3.9c-2.5-4.5-5.3-9.2-8.3-13.8c-19.5-29.8-46.2-54-77.8-70.5
	c-10.9-5.7-25.1-14.7-21.8-26.9c1.4-5.1,5.5-8.8,10.3-12.7l32.2-25.7l6.4-5.1l-0.2-0.1c-0.5-0.2-0.9-0.3-1.4-0.4
	c-3.5-1.1-7.5-2.2-11.7-3.3c-54.7-13.9-112.1-13.7-166.7,0.5c-0.6,0.2-1.3,0.3-2,0.3c-2.2,0-4.2-1.2-5.3-3.1
	c-2.9-4.7-2.9-13.9,0.1-20.1c6.4-13.2,14.4-25.7,23.8-37l-0.7,0c-1,0.1-2.1,0.2-3.5,0.4c-6.7,0.9-13.3,2.2-19.9,3.9
	c-32.8,8.7-62.2,27.1-84.4,52.9l0-0.1l-0.1-0.3c-0.8-1.4-1.8-2.9-3-4.6C860.9,305.4,834.2,286,805,277.3L805,277.3L805,277.3z"/>
</svg>
