<svg id="Draw_Layer" data-name="Draw Layer" xmlns="http://www.w3.org/2000/svg" viewBox="0 0 1515.02 2009.83"><defs><style>.cls-1{fill:#2c2c2c;}.cls-2{fill:#bebebe;}.cls-3{fill:#725af7;}.cls-4{fill:#03c3eb;}</style></defs><title>Hedgehog</title><path class="cls-1" d="M1024.43,339.23c-85.64-17.91-179.4,9.13-242.34,69.9L857,430A341.54,341.54,0,0,0,748.14,601.44a142.37,142.37,0,0,1,69.94-8.56A364.35,364.35,0,0,0,717.27,748.74c-2.67,8.18-4.07,19.2,3.36,23.55,3.72,2.18,8.36,1.69,12.63,1.13L820.1,762A619.18,619.18,0,0,0,706.93,979c-2.45,8.5-4.7,17.74-1.56,26s14.06,14,21.17,8.75A170.62,170.62,0,0,1,816.33,981c-66.07,84.7-100.71,193.35-95.88,300.66a308.23,308.23,0,0,1,76.26-49,465.46,465.46,0,0,0-60.59,245.15,320.61,320.61,0,0,1,142.19-71.14c15.61-3.36,32.1-5.51,47.37-.82s28.92,17.84,29.61,33.79a218,218,0,0,0,27.71,97c7.87,14,18.54,28,34,32.24,28.19,7.68,53-20.17,66-46.35a321.92,321.92,0,0,0,33.3-148.92c-.39-19.34,16.63-35.52,35.23-40.8s38.43-2.19,57.52.93a786.19,786.19,0,0,0,34.4,176.7c6.71,21.17,14.66,42.64,29.58,59.08s38.4,26.88,59.69,20.61c21.59-6.35,35.45-27.71,42.2-49.18s8.34-44.35,15.72-65.6c22.87-65.85,107.07-102.27,170.72-73.85,13.56,6.06,22-15.33,21.12-30.17a661.68,661.68,0,0,0-33.34-172.8,60.53,60.53,0,0,1,41.35,11.49c11,8.15,27.84-1.39,32-14.41s-.11-27.1-4.41-40.09q-24-72.54-48-145.09l51.12,9.14a490.28,490.28,0,0,0-82.36-200.49,73,73,0,0,1,66.25-24.43c13.68,2.24,16.16-19.13,11.57-32.21a375.93,375.93,0,0,0-89.46-141.62l43.59-27.54c4.3-2.72,9-6,9.89-11,.84-4.66-2-9.14-4.67-13a460.74,460.74,0,0,0-146.39-134l78.16-68.8A439.79,439.79,0,0,0,1244.24,354q22.11-38.57,44.24-77.12C1227.2,275.7,1165.88,301,1123.23,345a174.07,174.07,0,0,0-117.82-72.92,356,356,0,0,0,19,67.17Zm-3-50.83.07-.06,0,0c38.54,11.38,73.72,37,96.49,70.39,1.55,2.25,2.86,4.3,3.91,6.09l.14.27.09.15a222.08,222.08,0,0,1,111.38-69.77,204.31,204.31,0,0,1,26.23-5.14l1.14-.14c1.42-.19,2.84-.36,4.27-.51l0,0h0l0,0h0v0h0a0,0,0,0,0,0,0h0v0h0a239.83,239.83,0,0,0-31.38,48.79c-4,8.2-4,20.35-.18,26.52a8,8,0,0,0,6.94,4.12,10.21,10.21,0,0,0,2.59-.36,441.51,441.51,0,0,1,220.08-.69c5.65,1.44,10.86,2.91,15.49,4.34l.93.29,1.12.33h.09l-8.41,6.74-42.47,34.06c-6.39,5.12-11.82,9.91-13.62,16.7-4.27,16.17,14.39,28,28.8,35.51a274,274,0,0,1,102.64,93c4,6,7.63,12.17,10.89,18.22,1,1.77,1.76,3.26,2.45,4.66l.59,1.12h0l0,0h0l0,0h0v0h0v0h0v0h0v0c-13.38,2.31-30,5.18-41.37,15.76a31.9,31.9,0,0,0-9.75,23.86c.3,6.47,3,12,7.52,15.51,4.88,3.79,9.56,7.78,13.92,11.86.65.6,1.29,1.21,1.91,1.83l.21.2,0-.06-.12-.12.11.1v0a.39.39,0,0,1-.08-.1l.06.07-.05-.08,0,0,0,0a221.49,221.49,0,0,1,60.43,98.92c1.43,4.81,2.71,9.83,3.82,14.93v.11c.86,4,1.53,7.67,2,10.92l0,.24,0,.14h0v0h0v0h0v0h0v0h0v0l-4.87,0c-16.77,0-35.94.79-51.12,10.25a41.45,41.45,0,0,0-18.4,27.48c-1.39,8.34.36,15.82,5.07,21.63a342,342,0,0,1,67.38,139c1.6,7.09,2.92,14,3.91,20.44l.24,1.64c.08.54.17,1.08.25,1.61h0v0h0v0h0v0h0v0h0a0,0,0,0,1,0,0h0v0c-7.31-3.45-18.19-8.05-28.14-8.05-6.15,0-11.32,1.77-15.36,5.25-16,13.71-2.9,38.94,8.35,56.72a226.44,226.44,0,0,1,35.22,123.87c-.07,5.73-.35,11.19-.83,16.22,0,.15,0,.3,0,.46s0,.6-.07.9h0v0h0v0h0v0h0v0h0v0h0v0c-11.57-8.38-22.14-15.5-34.42-17.65a33.54,33.54,0,0,0-6.23-.54c-12.23,0-22.8,5.87-26.93,15-5.27,11.68.3,25.16,5.22,37.07l.06.14a356.34,356.34,0,0,1,27,137.74c0,4.65-.16,8.93-.37,12.73,0,.33,0,.66-.07,1,0,.11,0,.22,0,.34h0v0h0v0h0v0h0v0h0v0a147.62,147.62,0,0,0-50.22-8.59c-35.53,0-71.53,12.54-98.77,34.41-3.75,3-7.56,6.39-11.32,10l-.88.86q-.81.82-1.59,1.65v0l0,0v0l0,0v0l0,0v0l0,0v0l0,0v0l0,0,1.79-236.73,1.79-235.11c.86-114.2,1.84-243.64-42.88-357.73l-.76-1.92c-13.19-33.58-28.14-71.65-7.61-100.15a98.35,98.35,0,0,1,11.35-12.4l.16-.16c4.8-4.67,9.77-9.51,13.28-15.36,5.66-9.51,6.75-21.31,3.06-33.23-4.36-14.1-14.57-26-27.31-31.93a61.25,61.25,0,0,0-25.83-5.44c-16.32,0-33.52,5.65-48.42,15.91-21.94,15.15-37.94,38.37-51.23,59-33.55-18.09-72.1-27.65-111.48-27.65a237.52,237.52,0,0,0-92.8,18.79l-1.46.63h0C1014,425,990,388.83,957.29,388.83a45.59,45.59,0,0,0-6.25.43c-13.48,1.81-25.22,10.1-33.07,23.33-10.7,18.06-12.77,42.36-5.31,61.91a196.52,196.52,0,0,0,9.22,19.41c4,7.63,8.13,15.53,10.77,24,6.45,20.57,3.66,43.09,1.19,63L914.32,738.08,897.1,876.83c-13.24,106.6-26.94,216.83-2.56,323.91,6.17,27,14.83,53.85,23.21,79.79l0,.16.11.29c10.9,33.74,22.16,68.64,28,104.35.45,2.79.75,4.9,1,6.82v.1h0v0h0v0a239.15,239.15,0,0,0-32.89-2.24,255,255,0,0,0-148.79,48.3c-5.65,4.1-11.41,8.68-17.12,13.59l-1.1,1c-.75.67-1.5,1.34-2.24,2v0l0,0v0l0,0v0l0,0v0l0,0v0l0,0v0l0,0A462.16,462.16,0,0,1,812,1233.56a8.65,8.65,0,0,0,.36-7.89,13.52,13.52,0,0,0-8.91-7.67,18.39,18.39,0,0,0-4-.43c-5.48,0-10.89,2.32-15.92,4.83a212,212,0,0,0-45.7,31c-1.68,1.5-3.62,3.27-6.28,5.74l-.33.3L730,1260.7v0l0,0v0l0,0v0l0,0v0l0,0v0l0,0v0l0,0c-.69-100.89,37.21-202.17,104-277.86a8.35,8.35,0,0,0,1.58-7.9,13.62,13.62,0,0,0-8.35-9.15,19.18,19.18,0,0,0-6.19-.95c-4.94,0-10,1.55-15.09,3.27L718,997.76l-1,.32-.52.09h0l-.15.05v0h-.13a602,602,0,0,1,111.91-228c3.8-4.78,7.27-9,10.33-12.57l.46-.49L839,757a165.12,165.12,0,0,0-47.29-6.85,169.89,169.89,0,0,0-55,9.25c-1.75.62-3.67,1.32-6,2.17l-.69.25-.11,0-1.08.44v0h0v0l0,0v0h0v0h0v0h0a308.4,308.4,0,0,1,104-165.73c2.6-2.12,4.5-3.61,6-4.69l.12-.07.07,0c-11.28-9.79-26.25-15.17-42.16-15.17A65,65,0,0,0,768.2,583c-1,.52-2.18,1.13-4,2.09l-.09,0-.78.47v0l0,0v0l0,0v0h0v0h0v0l0,0v0h0a266.34,266.34,0,0,1,97.1-135.67c5.35-3.88,7.92-10.17,7.25-17.7-.9-10.16-7.63-20.21-16.37-24.46a46.34,46.34,0,0,0-20.52-4.26c-8.66,0-17.75,1.77-25.49,3.5l-2,.45-.33.07-.29.08c-.58.13-1.25.28-2,.39h-.05l-.41.1,0,0h0l0,0h0l0,0h0l0,0h0l0,0h-.05c54.15-53.85,136-61.11,209-61.11,8.61,0,18.19.13,30.18.39l3.12.15.71,0h.37a406.08,406.08,0,0,0-22-59.09Zm-64,113.66c21.09,0,43,19.82,48.86,44.2.31,1.28.59,2.59.87,3.89l.08.37c1.09,5.12,2.21,10.41,5,14.89s8,7.63,12.61,7.63a9.79,9.79,0,0,0,4.49-1.05,194.5,194.5,0,0,1,88.51-20.94c35.91,0,70.55,9.37,100.16,27.08a15.13,15.13,0,0,0,7.91,2.11c6.32,0,13.25-3.41,18.1-8.89,4.4-5,7.36-11.12,10.22-17h0l0-.1c1.24-2.57,2.64-5.48,4.16-8.2A75.46,75.46,0,0,1,1271,429.46a82.76,82.76,0,0,1,34-20.66,77,77,0,0,1,23.2-3.65c1.06,0,2.13,0,3.19.06,14,.62,28.21,7.31,36.2,17.06,5.25,6.41,7.43,13.72,6.28,21.12-2,12.9-12.4,20.79-23.43,29.16-7.92,6-16.1,12.19-21,20.49-9.66,16.35-4.81,37,1.21,55,5.69,17,12.25,34,18.6,50.35l.12.3c12.85,33.2,26.14,67.52,32.51,103.09,4.31,24.13,5.45,48.62,6.33,73.67,1.2,34.36,1.91,69.13,2.12,103.36.16,27.15-.26,51.52-7.12,74.86-9.88,33.73-32.23,61.77-54.91,87.06-16.73,18.65-31.55,33.23-49.49,43.77-9.44,5.55-24.08,12.17-40.17,12.17a53,53,0,0,1-14-1.84c-13.06-3.57-24.22-12.42-32.24-25.59a77.57,77.57,0,0,1-11.11-41.4c.18-9.64,1.54-21.33,7.76-37.72a211,211,0,0,1,14-29.51q3.32-6,7.32-12.53c2.42-4,5-8.05,7.27-11.72l.2-.32c12.54-20.09,25.52-40.86,32.21-63.84,4.41-15.2,6-34.07,1.5-51.46a.94.94,0,0,0,0-.16l0-.12a72.94,72.94,0,0,0-3.82-10.84,61.43,61.43,0,0,0-12.2-18c-13.48-13.74-34.55-21.6-62.63-23.35-4.09-.26-8.19-.39-12.19-.39-21,0-39.33,3.72-54.6,11.05a86.87,86.87,0,0,0-16.4,10.25,80.6,80.6,0,0,0-11,10.6l-.12.14,0,0a66.66,66.66,0,0,0-14.78,29.54c-4.89,23.8,4.91,48.49,12.8,68.34l14.26,35.87L1105,969.6c6.19,15.56,12.58,31.65,14,48.7,1.53,19.06-4,36.1-15.29,46.76-8.49,8-20,12.27-33.36,12.27a67.33,67.33,0,0,1-34-9.45c-21.48-12.78-35.61-34.49-47.16-53.84C937.82,928,913.79,846,917.76,770c1.19-22.64,4.92-45.37,8.54-67.38l11.92-72.54,11.65-70.88c2.27-13.8,5.1-31-.92-45.71-2.61-6.35-6.75-12-10.75-17.49l-.08-.1c-1.32-1.82-2.69-3.69-4-5.58-7.55-11-16.32-28-15.23-46.85,1.05-18,11.74-33.81,26.59-39.3a33.81,33.81,0,0,1,11.81-2.13h.12l0,0Zm165.33,663.08c11.15-18.6,13.7-43.71,7.17-70.7-4.57-18.9-12.82-37-20.82-54.49-2-4.28-4-8.84-6-13.23-6.27-14.16-12-28.69-17.15-43.19-6.87-19.42-12.21-39.9-4.79-58.12,9.06-22.24,34.06-32.72,53.43-37.59a138.7,138.7,0,0,1,34.17-4.67,93.33,93.33,0,0,1,20.94,2.29c19.47,4.54,35.71,16.48,43.44,31.94,10.66,21.29,6.62,49.34-12,83.35-4.87,8.92-10.17,17.75-15.3,26.3l-.07.11-.07.12-.2.34c-12.58,21-25.59,42.62-33.12,66.28-9.25,29.13-10.23,72.32,17.48,98.22,13.35,12.48,32.81,19.64,53.39,19.64,1.33,0,2.9,0,5-.07h.19c-5.77,33.3-14.83,71.19-38.29,99.77-18.19,22.14-45.42,35.89-71.05,35.89a65.9,65.9,0,0,1-25-4.8c-11.08-4.49-21.67-12.27-32.36-23.77-26.74-28.81-42.68-67.81-44.86-109.83-.28-5.44,0-18.37,9.19-20.9a10.14,10.14,0,0,1,2.89-.41c3.11,0,6.27,1.23,9.33,2.42l.13.06.4.15.14,0,.28.11,1.48.56a42.43,42.43,0,0,0,14.41,2.45c18.36,0,37.52-11.36,47.66-28.28ZM1024.2,1552c-20.49-1.73-32.47-23.37-38.91-41.23-12.37-34.23-18.39-70.81-24.23-106.24-3.23-19.67-6.58-40-11-59.82-6.5-29.12-15.57-58.13-24.33-86.19l-.05-.14c-12.12-38.8-24.66-78.93-30.54-119.79-12.55-87.3,4.77-174.83,21.52-259.5h0l0,0c2.41,7.75,4.87,15.63,7.43,23.58,12,37.36,25.55,74.74,45.14,108l.12.19a.71.71,0,0,0,.08.15,247.78,247.78,0,0,0,38.51,50.14l1.11,1.09c7.31,7.23,15.61,15.42,16,25.81,1.34,36,5.79,61.38,11.32,80.18a175.8,175.8,0,0,0,11.64,29.4c1,2,2.09,4,3.11,5.78a130.89,130.89,0,0,0,7.09,11.2,127.32,127.32,0,0,0,28.22,28.9c17.27,12.66,37.09,19.89,56.68,19.89,1.39,0,2.83,0,4.26-.11,29.11-1.52,58.54-19.15,78.7-47.16,2.68-3.72,5.2-7.58,7.59-11.62a189.67,189.67,0,0,0,14.4-30.78,324,324,0,0,0,12.56-45.26c3-14.39,16.33-24.06,28.06-32.59l1.19-.87a371.54,371.54,0,0,0,87-89.8q4.68-6.86,9-13.92v0s0,0,0,0c15.56,163.64,11.76,332.4-11.27,501.58-2.89,21.21-6.12,40.07-16.28,56.17-9.76,15.47-26.08,25.47-41.58,25.47a35.78,35.78,0,0,1-8-.9c-9.34-2.13-18.23-8-27.17-17.82-22.61-24.94-32.18-58.27-39.16-90.56a790.43,790.43,0,0,1-16.7-126c-.57-11.22-2.66-26.59-14.19-30.5a16.36,16.36,0,0,0-5.28-.83c-5.4,0-10.86,2.31-16.13,4.55l-2.5,1a97.85,97.85,0,0,1-37,7.28,96.28,96.28,0,0,1-27.58-4,9.27,9.27,0,0,0-2.62-.37c-4.66,0-9.5,3.47-11.78,8.45-2.42,5.29-2.32,11.32-2.22,17.16v.58a392.51,392.51,0,0,1-35.6,169.36,120.36,120.36,0,0,1-8.12,14.92c-5.24,8.17-11.63,15.54-19.15,20.18a31.87,31.87,0,0,1-16.94,5.08c-.85,0-1.72,0-2.56-.1Z" transform="translate(-109.29 417.87)"/><path class="cls-1" d="M1108.45,690.05a24.83,24.83,0,0,0-2.79,9.09,48.7,48.7,0,0,0,.18,9.2c.38,4.72.82,10.08,3,14.72a30.29,30.29,0,0,0,4.18,6.47,42.23,42.23,0,0,0,8.1,7.85,34.37,34.37,0,0,0,20,6.28,33.77,33.77,0,0,0,14.91-3.4,33.91,33.91,0,0,0,1.54-59.93,42.72,42.72,0,0,0-20.23-5.11c-12.84,0-23.88,5.68-28.81,14.83Zm16.94,28.61a20.84,20.84,0,0,1-5-9,15.34,15.34,0,0,1,15.15-18.8,15.3,15.3,0,0,1,6.29,1.34c4.45,2,7.67,6,10.49,10.06,2.32,3.31,4.8,7.21,4.87,11.62a11.13,11.13,0,0,1-.37,2.89,12.51,12.51,0,0,1-1.38,3.24,15,15,0,0,1-11.79,7.25c-.43,0-.86,0-1.29,0-5.94,0-12.29-3.22-17-8.6Z" transform="translate(-109.29 417.87)"/><path class="cls-1" d="M1124.15,812.87c-2.24,1.62-2.56,4.77-2.57,7.93q0,17.31-.1,34.69c0,2.74,0,5.84,1.23,8.51l.12.26.14.27a7.07,7.07,0,0,0,5.8,3.72,4.63,4.63,0,0,0,1.91-.39c3.23-1.5,3.62-6,3.63-9.21q.06-16.29.14-32.57v-.77c0-3,0-6.84-1.76-9.81a7.27,7.27,0,0,0-5.86-3.45,4.59,4.59,0,0,0-2.68.82Z" transform="translate(-109.29 417.87)"/><path class="cls-1" d="M1177.53,833.77c-2.47,3.06-2.6,7.27-2.52,11.69l.23,13.06.23,12.84c.15,8.39.69,16.39,5.56,22.06l.23.26.22.25c8-5.24,7.24-17.17,6.54-22.06-.2-1.41-.46-2.92-.69-4.22l0-.25,0-.24,0-.13,0-.16c-1.12-6.41-2.29-13-.2-19.17a25,25,0,0,0,.58-13.73,4.65,4.65,0,0,0-4.57-2.68,7.1,7.1,0,0,0-5.48,2.48Z" transform="translate(-109.29 417.87)"/><path class="cls-1" d="M1152.14,904.05a2.84,2.84,0,0,0-.85,2l.07,24.9.07,24.9a20.09,20.09,0,0,0,.61,6,8.71,8.71,0,0,0,7.83,6.1,5.7,5.7,0,0,0,1-.08,6.57,6.57,0,0,0,4.72-3.6,5.47,5.47,0,0,0,.12-5c-1.22-2.29-1.39-5-1.54-7.42q-1.18-19.3-2.36-38.62c-.21-3.46-.61-7-3-9.22a4.91,4.91,0,0,0-3.3-1.16,4.78,4.78,0,0,0-3.36,1.23Z" transform="translate(-109.29 417.87)"/><path class="cls-1" d="M1148.64,1084.27c-3,.62-3.37,4.77-3.35,7.22.06,13.2.12,26.87,2.32,40.23a14.18,14.18,0,0,0,2.05,6.08c.1.14.21.29.33.43a5.6,5.6,0,0,0,4.09,2,3.65,3.65,0,0,0,2.12-.63c1.74-1.23,2-3.64,2-6.06.24-13.59.09-27.68-.42-42,0-.18,0-.36,0-.55-.06-1.4-.12-2.81-.19-4.22a2.91,2.91,0,0,1-.92.15,8.28,8.28,0,0,1-3.71-1.39,8,8,0,0,0-3.66-1.33,3.3,3.3,0,0,0-.68.06Z" transform="translate(-109.29 417.87)"/><path class="cls-1" d="M1094.88,1135.25c-.4,15.82-.33,31.87.2,47.71.11,3.55.36,7,2.22,9.54l.09.12a2.35,2.35,0,0,0,.19.25,6.74,6.74,0,0,0,5.11,2.4,4.25,4.25,0,0,0,3.73-1.83,8.17,8.17,0,0,0,.95-3.84,150.42,150.42,0,0,0-1.69-36.08c1.6-7.62,2.86-15.6,3.76-23.71a1.79,1.79,0,0,0,0-.23l.09-.89-5.42-.11-5.31-.1c-2.79,0-3.86,3.64-3.94,6.77Z" transform="translate(-109.29 417.87)"/><path class="cls-1" d="M1193.07,1145.71a145.76,145.76,0,0,0,3.41,41.77c1.49,6.52,3.71,13.84,8.94,18.77,4.39-2.3,5.77-7.72,5.63-11.67a40.66,40.66,0,0,0-2.18-10.24c-.32-1-.64-2.07-.93-3.11a65.27,65.27,0,0,1-2.23-22.33l.1-1.18.06-.64a30.82,30.82,0,0,0,0-8c-.5-2.84-2.2-6.31-5.5-7.5a5.48,5.48,0,0,0-1.8-.29c-2.52,0-5.34,1.68-5.5,4.39Z" transform="translate(-109.29 417.87)"/><path class="cls-2" d="M916.67,879.1h0c-16.75,84.66-34.06,172.2-21.51,259.5,5.88,40.86,18.41,81,30.54,119.79l0,.14c8.77,28.06,17.84,57.07,24.34,86.18,4.42,19.82,7.76,40.16,11,59.83,5.84,35.43,11.86,72,24.22,106.24,6.44,17.85,18.42,39.5,38.91,41.22.85.07,1.71.11,2.56.11,22.4,0,37.32-25.18,44.22-40.18a392.53,392.53,0,0,0,35.59-169.36V1342c-.1-5.84-.2-11.87,2.23-17.16,2.28-5,7.12-8.46,11.77-8.46a9.35,9.35,0,0,1,2.63.38,96.28,96.28,0,0,0,27.58,4,97.88,97.88,0,0,0,37-7.27l2.49-1c5.28-2.23,10.74-4.55,16.14-4.55a16.26,16.26,0,0,1,5.27.84c11.54,3.91,13.63,19.28,14.2,30.5a789.29,789.29,0,0,0,16.7,126c7,32.29,16.55,65.62,39.16,90.56,8.94,9.86,17.82,15.69,27.17,17.82a35.71,35.71,0,0,0,8,.89c15.5,0,31.82-10,41.58-25.46,10.16-16.1,13.38-35,16.27-56.17,23-169.18,26.83-337.94,11.28-501.58A371.17,371.17,0,0,1,1289.91,1095l-1.19.87c-11.74,8.54-25,18.21-28.06,32.6-8.13,38.71-18.78,65.74-34.55,87.65-20.17,28-49.59,45.65-78.7,47.17-1.44.07-2.87.11-4.27.11-35.33,0-71.43-23.55-92-60-10.86-19.27-23.63-49.79-26.08-115.36-.39-10.39-8.68-18.58-16-25.81l-1.1-1.1c-49.87-49.38-71.88-119.86-91.29-182l0,0Z" transform="translate(-109.29 417.87)"/><path class="cls-3" d="M1135.58,690.82a15.34,15.34,0,0,0-15.15,18.8,21,21,0,0,0,5,9c4.72,5.38,11.08,8.6,17,8.6.43,0,.86,0,1.29,0,8.19-.62,13.61-7.42,13.54-13.37-.07-4.41-2.55-8.31-4.87-11.62-2.82-4-6-8-10.48-10.06a15.22,15.22,0,0,0-6.3-1.34Z" transform="translate(-109.29 417.87)"/><path class="cls-4" d="M1168.83,783.15a139.13,139.13,0,0,0-34.17,4.66c-19.37,4.88-44.37,15.36-53.43,37.6-7.42,18.22-2.09,38.7,4.78,58.12,5.12,14.5,10.89,29,17.16,43.18,1.94,4.4,4,9,6,13.24,8,17.51,16.25,35.59,20.82,54.49,6.53,27,4,52.1-7.17,70.7-10.15,16.91-29.3,28.28-47.67,28.28a42.52,42.52,0,0,1-14.41-2.46c-.49-.18-1-.36-1.47-.56l-.28-.1-.14-.06-.4-.15-.13,0c-3.06-1.19-6.22-2.42-9.33-2.42a10.51,10.51,0,0,0-2.89.4c-9.14,2.53-9.47,15.47-9.19,20.91,2.18,42,18.12,81,44.86,109.83,10.69,11.5,21.28,19.28,32.36,23.77a65.9,65.9,0,0,0,25,4.8c25.63,0,52.86-13.75,71.05-35.89,23.46-28.58,32.52-66.47,38.29-99.77-2.14,0-3.77.07-5.14.07-20.58,0-40-7.16-53.39-19.64-27.71-25.9-26.73-69.1-17.48-98.22,7.53-23.66,20.54-45.33,33.12-66.28l.2-.35.07-.11.07-.12c5.12-8.54,10.42-17.37,15.3-26.29,18.62-34,22.66-62.06,12-83.35-7.73-15.46-24-27.4-43.45-31.94a93.18,93.18,0,0,0-20.93-2.29Zm-40.06,85.11a7.08,7.08,0,0,1-5.8-3.73l-.14-.27-.12-.26c-1.26-2.67-1.24-5.77-1.23-8.51q0-17.4.1-34.69c0-3.16.32-6.31,2.57-7.93a4.59,4.59,0,0,1,2.68-.82,7.27,7.27,0,0,1,5.86,3.45c1.79,3,1.78,6.76,1.76,9.81v.77q-.08,16.29-.14,32.57c0,3.23-.4,7.7-3.63,9.2a4.48,4.48,0,0,1-1.91.41Zm52.71,25.67-.22-.25-.23-.26c-4.87-5.67-5.41-13.67-5.56-22.06l-.23-12.84-.23-13.06c-.08-4.42,0-8.63,2.52-11.69a7.1,7.1,0,0,1,5.48-2.48,4.65,4.65,0,0,1,4.57,2.68,24.94,24.94,0,0,1-.59,13.73c-2.08,6.14-.91,12.77.21,19.17l0,.16,0,.13,0,.24,0,.25c.22,1.3.48,2.8.68,4.22.7,4.89,1.47,16.82-6.54,22.06Zm-21.61,74a8.71,8.71,0,0,1-7.83-6.1,19.76,19.76,0,0,1-.61-6l-.07-24.9-.07-24.9a2.84,2.84,0,0,1,.85-2,4.78,4.78,0,0,1,3.36-1.23,4.91,4.91,0,0,1,3.3,1.16c2.4,2.19,2.8,5.76,3,9.22q1.17,19.31,2.36,38.62c.15,2.41.32,5.13,1.54,7.42a5.47,5.47,0,0,1-.12,5,6.59,6.59,0,0,1-4.72,3.6,5.7,5.7,0,0,1-1,.08Zm-5.79,172.24a5.58,5.58,0,0,1-4.09-2c-.12-.14-.23-.29-.33-.43a14.18,14.18,0,0,1-2.05-6.08c-2.2-13.37-2.27-27-2.32-40.23,0-2.45.39-6.6,3.35-7.22a3.3,3.3,0,0,1,.68-.06,8,8,0,0,1,3.66,1.33,8.28,8.28,0,0,0,3.71,1.39,3,3,0,0,0,.94-.15c.66,15.91.87,31.64.61,46.74,0,2.42-.3,4.83-2,6.06a3.65,3.65,0,0,1-2.12.63Zm-51.39,55.06a6.72,6.72,0,0,1-5.11-2.4,2.35,2.35,0,0,1-.19-.25l-.09-.12c-1.86-2.59-2.11-6-2.22-9.54-.53-15.84-.6-31.9-.2-47.71.07-3.13,1.15-6.78,3.94-6.78l5.31.11,5.43.11a247.09,247.09,0,0,1-3.88,24.83,150.42,150.42,0,0,1,1.69,36.08,8.06,8.06,0,0,1-.95,3.84,4.25,4.25,0,0,1-3.73,1.83Zm102.73,11c-5.23-4.93-7.45-12.25-8.94-18.76a146.21,146.21,0,0,1-3.41-41.78c.16-2.71,3-4.39,5.5-4.39a5.48,5.48,0,0,1,1.8.29c3.3,1.19,5,4.66,5.5,7.5a30.38,30.38,0,0,1,0,8l-.06.64-.09,1.18a64.94,64.94,0,0,0,2.22,22.32c.29,1,.61,2.08.92,3.12a40.24,40.24,0,0,1,2.19,10.24c.15,4-1.24,9.37-5.63,11.67Z" transform="translate(-109.29 417.87)"/><path class="cls-4" d="M110.58-404.37a2.79,2.79,0,0,0,2.76,2.76,2.79,2.79,0,0,0,2.76-2.76,2.79,2.79,0,0,0-2.76-2.77,2.79,2.79,0,0,0-2.76,2.77Z" transform="translate(-109.29 417.87)"/><path class="cls-4" d="M109.29-415.11a2.79,2.79,0,0,0,2.76,2.76,2.79,2.79,0,0,0,2.76-2.76,2.79,2.79,0,0,0-2.76-2.76,2.79,2.79,0,0,0-2.76,2.76Z" transform="translate(-109.29 417.87)"/><path class="cls-2" d="M957.46,402.06l0,0h-.13a33.8,33.8,0,0,0-11.8,2.13C930.65,409.7,920,425.5,918.92,443.5c-1.09,18.85,7.67,35.89,15.22,46.87,1.29,1.88,2.66,3.75,4,5.56l.07.11c4,5.48,8.15,11.14,10.76,17.49,6,14.74,3.19,31.91.92,45.71l-11.65,70.88L926.3,702.66c-3.62,22-7.35,44.74-8.54,67.38-4,75.91,20.07,158,71.44,244,11.55,19.35,25.68,41.06,47.15,53.84a67.39,67.39,0,0,0,34,9.44c13.34,0,24.87-4.24,33.36-12.27,11.25-10.65,16.82-27.69,15.28-46.75-1.38-17-7.77-33.14-14-48.7l-14.25-35.86-14.26-35.87c-7.89-19.86-17.7-44.54-12.8-68.34,4.3-21,20.13-39.89,42.36-50.57,15.27-7.34,33.64-11.06,54.6-11.06,4,0,8.1.13,12.19.39,28.07,1.75,49.15,9.6,62.63,23.35,21.61,22,21.71,56.05,14.58,80.56-6.69,23-19.66,43.75-32.2,63.84l-.2.32c-2.3,3.67-4.86,7.76-7.27,11.72-25.1,41.13-28.8,63.4-29.11,79.76a77.66,77.66,0,0,0,11.11,41.4c8,13.17,19.18,22,32.24,25.59a53,53,0,0,0,14,1.84c16.09,0,30.73-6.62,40.17-12.17,17.94-10.54,32.76-25.12,49.49-43.77,22.68-25.29,45-53.33,54.91-87.06,6.86-23.34,7.28-47.71,7.11-74.86-.2-34.23-.91-69-2.11-103.36-.88-25.05-2-49.54-6.33-73.67-6.37-35.57-19.66-69.89-32.51-103.09l-.12-.3c-6.35-16.39-12.91-33.35-18.6-50.35-6-18-10.87-38.65-1.21-55,4.91-8.3,13.09-14.5,21-20.49,11-8.37,21.43-16.26,23.43-29.16,1.14-7.41-1-14.71-6.28-21.12-8-9.75-22.2-16.44-36.2-17.06-1.06,0-2.13-.06-3.19-.06-28.13,0-56.14,16.42-69.7,40.87-1.52,2.72-2.92,5.63-4.16,8.19l0,.11h0c-2.86,5.92-5.81,12-10.22,17-4.85,5.48-11.78,8.89-18.1,8.89a15.23,15.23,0,0,1-7.91-2.11c-29.61-17.72-64.24-27.08-100.16-27.08A194.62,194.62,0,0,0,1029.4,472a9.68,9.68,0,0,1-4.49,1.07c-4.65,0-9.72-3.07-12.61-7.64s-3.94-9.77-5-14.89l-.08-.37c-.28-1.3-.56-2.61-.87-3.89-5.85-24.38-27.77-44.2-48.86-44.2ZM1141,743.66a34.4,34.4,0,0,1-20-6.28,42.18,42.18,0,0,1-8.09-7.85,30.29,30.29,0,0,1-4.18-6.47c-2.13-4.64-2.57-10-3-14.72a48.7,48.7,0,0,1-.18-9.2,24.83,24.83,0,0,1,2.79-9.09c4.93-9.15,16-14.84,28.81-14.84a42.85,42.85,0,0,1,20.23,5.12,33.9,33.9,0,0,1-1.55,59.93,33.83,33.83,0,0,1-14.9,3.4Z" transform="translate(-109.29 417.87)"/><path class="cls-3" d="M1021.5,288.34l-.07.06a406.49,406.49,0,0,1,22.05,59.12l-.28,0-.81-.05-3.12-.14c-12-.27-21.58-.4-30.18-.4-72.93,0-154.8,7.26-209,61.11l.11,0h0a2.3,2.3,0,0,0,.42,0c.7-.11,1.38-.26,1.95-.39l.3-.07.33-.08,2-.45c7.74-1.73,16.83-3.5,25.49-3.5a46.34,46.34,0,0,1,20.52,4.26c8.74,4.25,15.47,14.3,16.37,24.46.68,7.53-1.9,13.82-7.25,17.7a266.34,266.34,0,0,0-97.1,135.67l.44-.21.54-.26c1.79-1,2.94-1.58,4-2.1a65,65,0,0,1,28.59-6.5c15.91,0,30.89,5.39,42.17,15.18l-.2.11c-1.5,1.08-3.4,2.58-6,4.69a308.44,308.44,0,0,0-104,165.73l.57-.17.75-.26.69-.25c2.29-.84,4.21-1.55,6-2.17a169.89,169.89,0,0,1,55-9.25A165,165,0,0,1,839.05,757l-.11.1-.49.53c-3.06,3.56-6.53,7.78-10.33,12.56a602,602,0,0,0-111.91,228h.3l.52-.1,1-.31,87.73-29.65c5.13-1.72,10.15-3.27,15.09-3.27a19.22,19.22,0,0,1,6.19.95,13.63,13.63,0,0,1,8.35,9.14,8.35,8.35,0,0,1-1.58,7.91c-66.77,75.69-104.67,177-104,277.86l.73-.63,1-.89c2.66-2.47,4.6-4.24,6.28-5.75a212,212,0,0,1,45.7-31c5-2.51,10.44-4.83,15.92-4.83a17.79,17.79,0,0,1,4,.43,13.52,13.52,0,0,1,8.91,7.67,8.62,8.62,0,0,1-.36,7.89A462.16,462.16,0,0,0,744.56,1455l.91-.76,1-.86L748,1452c5.71-4.91,11.47-9.49,17.12-13.59A255,255,0,0,1,914,1390.15a239.26,239.26,0,0,1,32.89,2.24v-.24c-.22-1.92-.52-4-1-6.83-5.8-35.7-17.07-70.6-28-104.34l-.11-.29,0-.16c-8.38-25.94-17-52.76-23.2-79.79-24.39-107.08-10.69-217.31,2.55-323.91l17.22-138.75L933.84,580.9c2.47-19.89,5.26-42.41-1.19-63-2.64-8.48-6.77-16.38-10.77-24a194.2,194.2,0,0,1-9.21-19.41c-7.48-19.55-5.4-43.85,5.3-61.91,7.85-13.23,19.59-21.52,33.07-23.34a47.23,47.23,0,0,1,6.25-.43c32.68,0,56.74,36.13,67.42,67.06A237.41,237.41,0,0,1,1119,436.45c39.38,0,77.93,9.56,111.48,27.65,13.29-20.58,29.3-43.8,51.23-59,14.9-10.26,32.1-15.91,48.42-15.91a61.25,61.25,0,0,1,25.83,5.44c12.74,5.89,23,17.83,27.31,31.93,3.69,11.92,2.6,23.72-3.06,33.23-3.51,5.85-8.48,10.69-13.28,15.36l-.16.16a99,99,0,0,0-11.35,12.4c-20.53,28.5-5.58,66.57,7.61,100.15l.75,1.92c44.73,114.09,43.75,243.53,42.89,357.73l-1.78,235.11-1.8,236.73.28-.24,1.17-1.14,1.16-1.13c3.76-3.66,7.57-7,11.32-10,27.24-21.87,63.24-34.41,98.77-34.41A147.62,147.62,0,0,1,1566,1381l0-.12c0-.44.07-.87.1-1.3.21-3.8.34-8.09.37-12.73a356.31,356.31,0,0,0-27-137.74l0-.14c-4.93-11.91-10.5-25.39-5.23-37.07,4.13-9.08,14.7-15,26.93-15a33.54,33.54,0,0,1,6.23.54c12.28,2.15,22.85,9.27,34.41,17.65l0-.12h0c.07-.46.12-.9.16-1.34.48-5,.76-10.49.83-16.22a226.51,226.51,0,0,0-35.21-123.87c-11.26-17.78-24.38-43-8.37-56.72,4-3.48,9.22-5.25,15.37-5.25,9.95,0,20.83,4.6,28.14,8.06l0-.38c-.11-1-.26-2-.41-3-1-6.47-2.31-13.35-3.91-20.43a342.15,342.15,0,0,0-67.38-139c-4.71-5.81-6.46-13.29-5.07-21.62a41.42,41.42,0,0,1,18.41-27.49c15.18-9.46,34.34-10.25,51.11-10.25l4.87,0,0-.51c-.47-3.25-1.13-6.92-2-10.92l0-.12c-1.1-5.09-2.39-10.11-3.8-14.92a221.6,221.6,0,0,0-60.44-98.92l.07.15.07.11.13.16-.22-.25c-.66-.67-1.35-1.32-2.05-2-4.36-4.09-9-8.07-13.92-11.86-4.56-3.53-7.23-9-7.52-15.51a31.9,31.9,0,0,1,9.75-23.86c11.34-10.58,28-13.45,41.36-15.76l-.07-.26-.1-.27-.12-.24c-.75-1.54-1.6-3.18-2.69-5.15-3.26-6-6.93-12.19-10.89-18.23a274,274,0,0,0-102.64-93c-14.41-7.5-33.07-19.34-28.8-35.51,1.8-6.79,7.23-11.58,13.62-16.7L1472.56,380l8.4-6.74-.29-.13c-.62-.21-1.23-.4-1.84-.59-4.63-1.44-9.84-2.9-15.49-4.34a441.36,441.36,0,0,0-220.08.7,10.67,10.67,0,0,1-2.59.36,8,8,0,0,1-6.93-4.13c-3.86-6.17-3.78-18.32.17-26.52a239.83,239.83,0,0,1,31.38-48.79l-.9.05c-1.3.11-2.81.28-4.61.51a204.5,204.5,0,0,0-26.22,5.14,222,222,0,0,0-111.39,69.79l-.05-.11-.17-.33c-1-1.79-2.36-3.84-3.91-6.09-22.78-33.35-58-59-96.49-70.4l0,0Z" transform="translate(-109.29 417.87)"/></svg>