<?xml version="1.0" encoding="utf-8"?>
<!-- Generator: Adobe Illustrator 22.0.1, SVG Export Plug-In . SVG Version: 6.00 Build 0)  -->
<svg version="1.1" id="Draw_Layer" xmlns="http://www.w3.org/2000/svg" xmlns:xlink="http://www.w3.org/1999/xlink" x="0px" y="0px"
	 viewBox="0 0 996.8 1175.2" style="enable-background:new 0 0 996.8 1175.2;" xml:space="preserve">
<style type="text/css">
	.st0{fill:#2C2C2C;}
	.st1{fill:#FFC87B;}
	.st2{fill:#D1A364;}
	.st3{fill:#FF9EE0;}
</style>
<title>Ice_cream</title>
<path class="st0" d="M474.5,471c1.9,10.2,1.3,22.3-6.5,29.1c-6.1,5.4-15.6,6.6-20.2,13.3c-5.2,7.7-1.8,19.8-8.8,25.9
	c-9.5,8.3-14.5,21.4-13,33.9c0.8,6.5-2.7,12.6-5.3,18.6c-6.7,15.2-8.4,33.3-1.2,48.3c7.2,15,24.5,25.5,40.7,21.7
	c1.2,5.9,5.5,10.5,9.7,14.9c25.8,27.6,47.8,58.5,68.8,89.9c1.1,1.7,3.8,1.7,5.4,0.5c1.7-1.1,2.6-3.1,3.5-4.9
	c8.3-17.9,15.5-36.3,21.6-55.1c1.7-5.3,3.3-10.6,6.1-15.4c2.3-3.9,5.3-7.4,7.4-11.4c6-11.5,4.2-26.9,13.2-36.2
	c10.3-10.6,15.7-25.8,14.3-40.4s-9.4-28.6-21.5-37.1c-2.1-1.5-2.6-4.3-3.1-6.8c-3.8-18.6-17.9-34.8-35.8-41.2
	c-5.4-1.9-8-7.8-10.6-12.9c-11.5-21.9-35.3-36.9-60-37.7h-0.2C476.8,468.1,474.1,469,474.5,471L474.5,471z M454.2,511.9
	c2.3-1.9,5.1-3.2,7.8-4.5c3-1.4,6.1-2.9,8.6-5.2c8-7.2,7.8-19.8,6.7-30c0-0.3,0.1-0.6,0.3-0.9c0.5-0.5,1.5-0.7,2.3-0.7
	c0.1,0,0.2,0,0.4,0c25.8,2.1,49.7,19.6,59.4,43.6c0.7,1.8,1.8,4.4,3.9,5c10.1,3,19.3,9,26.6,17.5c7.2,8.4,11.8,18.5,13.2,28.9
	c0.2,1.7,1.9,2.7,3.3,3.6c1.8,1.1,3.6,2.4,5.2,3.8l0,0l0,0c2.7,2.4,5.1,5.2,7.1,8.2l0,0l0,0c3.6,5.4,6,11.5,7,17.9
	c0.4,2.2,0.6,4.4,0.7,6.7c0.2,6.4-0.7,12.8-2.6,18.9c-1.1,3.5-2.5,7-4.1,10.3c-1.2,2.4-2.7,4.9-5.3,5.8c-0.8,0.3-1.6,0.4-2.4,0.4
	c-1.2,0-2.5-0.2-3.7-0.5h-0.1c-15.8-2.9-31.9-3.3-47.8-1.2c-14.5,1.9-28.9,6-42.8,10c-11,3.1-22.3,6.4-33.7,8.5
	c-3.6,0.7-7.6,1.3-11.5,1.3c-1.1,0-2.1,0-3.1-0.1c-7.4-0.7-14.3-4.1-20.1-10c-5.5-5.6-9.4-12.6-11.1-20.2
	c-3.8-17.2,2.4-33.8,8.3-44.7l0.1-0.1c1.4-2.5,2.9-5.3,2.3-8.2c-2.5-12.5,2-26.2,11.5-34.7l0.2-0.1l0.5-0.4c3-2.7,6.5-5.8,5.8-9.6
	c-0.4-2.2-0.4-4.5-0.1-6.7c0.4-2.7,1.4-5.3,2.9-7.7C451,515,452.5,513.3,454.2,511.9L454.2,511.9z M495.7,699.8
	c-3-0.2-5.6-1.6-6.9-3.7c-5.5-9.1-11.7-19.4-21-26.1l-0.5-0.3c-1.6-1.1-3.2-2.2-3.9-4c-0.5-1.2-0.4-2.5,0.3-3.6
	c0.4-0.7,1.1-1.2,2-1.2c6.9-0.3,13.7-2.3,20.3-4.3l0.1,0c18.1-5.5,34.4-10.3,51.3-12.9c8.2-1.3,16.5-2,24.9-2
	c8.5,0,16.9,0.8,25.2,2.6h0l0.1,0l0.1,0h0c0.7,0.2,1.5,0.3,2.2,0.5l0,0l-6.5,22.4l-1.5,5c-1.8,6.4-4.3,13.4-10.4,15.8
	c-2.6,1-5.4,1.1-8.2,1.1h-0.6c-20.2,0.2-40.3,4.8-59.2,9.5c-2.3,0.6-4.7,1.2-7.1,1.2C496.3,699.8,496,699.8,495.7,699.8L495.7,699.8
	z M558.6,722.7l-6.7-5.4l-6.7-5.4c-0.9-0.8-1.8-2-1.1-2.8c3.6-4.7,6.6-10,8.6-15.6c0.2-0.7,1.1-0.8,1.8-0.8l15.4-0.9l0,0
	c0.1,3-0.8,6.1-1.7,8.8v0v0c-2.2,7-4.4,14.2-7,21.2c-0.2,0.6-0.5,1.3-1.2,1.4c0,0-0.1,0-0.1,0C559.4,723.3,558.9,723,558.6,722.7
	L558.6,722.7z M540.8,707.8c-0.3-0.1-0.6-0.2-0.8-0.4l-13-10.1c-0.2-0.1-0.3-0.2-0.4-0.4c0-0.1,0-0.3,0.1-0.4c0.2-0.3,0.6-0.5,1-0.5
	l16.7-2.5c0.9-0.2,1.9-0.3,2.8-0.3c0.9,0,1.8,0.1,2.6,0.5h0l0,0c-2.1,4.7-4.7,9.1-7.8,13.3C541.8,707.3,541.4,707.8,540.8,707.8
	L540.8,707.8z M521.9,730.2c-2-2.2-4.5-3.8-7.3-4.9c-0.7-0.3-1.3-1-1.7-1.6c-1.9-2.5-3.9-5.1-5.8-7.6c0,0,0,0,0,0l0,0
	c1.9-2.8,3.9-5.6,5.1-8.8c0.2-0.6,0.5-1.3,0.7-2v0c0.8-2.6,1.7-5.2,3.9-6.6c1-0.6,2.2-0.9,3.3-0.9c1.1,0,2.2,0.2,3.3,0.7
	c2.2,0.9,4,2.4,5.7,3.8l9.3,7.7l0,0c0.6,0.5,0,1.6-0.2,1.9c-4,6.1-8.5,11.8-13.3,17.3c-0.5,0.6-1.5,1.4-2.3,1.4
	C522.4,730.6,522.1,730.4,521.9,730.2L521.9,730.2z M504.3,712.9c-1.9-3.1-4.2-6-6.8-8.6c-0.7-0.7-1.4-1.3-2.1-2l0,0l0,0
	c4.8,0,9.6-0.8,14.1-2.2c0.3-0.1,0.6-0.2,0.9-0.2c0.4,0,0.8,0.1,1,0.5c-1.4,3.9-3,7.8-4.9,11.5c-0.2,0.5-0.5,0.8-0.9,1.1
	c-0.2,0.1-0.4,0.2-0.6,0.2C504.7,713.3,504.4,713.1,504.3,712.9L504.3,712.9z M547.6,750.2l-10.1-8.2l-10.1-8.1
	c-0.3-0.2-0.6-0.5-0.6-0.9c0-0.4,0.2-0.7,0.4-1l13.5-18.3c0.2-0.3,0.5-0.5,0.8-0.6c0,0,0.1,0,0.1,0c0.4,0,0.7,0.2,1,0.5l14.5,12.1
	c0.7,0.6,1.4,1.2,1.4,2c0.1,0.5-0.2,1.1-0.4,1.6l-4.4,10.4l-4.4,10.4c-0.1,0.3-0.3,0.5-0.5,0.7c-0.1,0-0.2,0.1-0.3,0.1
	C548.1,750.6,547.8,750.5,547.6,750.2L547.6,750.2z M517.7,731.1c-0.1,0-0.1-0.1-0.1-0.2c0.1-0.2,0.3-0.3,0.5-0.3h0.1
	c1.7,0.3,2.9,1.8,2.7,3.6c0,0,0,0,0,0l0,0c0,0.1,0,0.1,0,0.2l0,0l0,0C519.5,733.6,518.4,732.5,517.7,731.1L517.7,731.1z
	 M540.8,763.6c-2.4-2.4-4.3-5.2-6.2-7.9l-3.9-5.6l-6.6-9.5c-0.5-0.8-1.2-1.7-1.2-2.8c0-0.6,0.2-1.1,0.6-1.6c0.3-0.3,0.7-0.5,1.1-0.5
	c0.1,0,0.1,0,0.2,0c0.5,0.1,0.9,0.3,1.2,0.7c6.9,5.6,13.8,11.5,20.5,17.4c0.3,0.2,0.6,0.6,0.8,1c0.2,0.6-0.1,1.2-0.4,1.8l-2.2,4.5
	l-1.1,2.3c-0.2,0.5-0.5,1-1,1.1c-0.1,0-0.2,0-0.3,0C541.7,764.4,541.2,763.9,540.8,763.6L540.8,763.6z"/>
<path class="st0" d="M554.9,596.3c-0.3,0.7-0.4,1.4-0.5,2.1c0,0.7,0.1,1.5,0.3,2.2c0.5,1.4,1.5,2.6,2.8,3.3c0.6,0.3,1.2,0.6,1.8,0.7
	c0.3,0.1,0.7,0.1,1,0.1l0,0c0.7,0,1.4-0.1,2-0.3c1-0.4,1.9-0.9,2.6-1.7c0.5-0.6,1-1.2,1.3-2c0.5-1.4,0.6-2.8,0.1-4.2l0,0
	c0,0,0,0,0-0.1l0,0c0,0,0,0,0-0.1l0,0l0-0.1l0,0c0,0,0,0,0-0.1l0,0c-0.4-1.3-1.2-2.4-2.3-3.2c-0.7-0.6-1.6-0.9-2.5-1.1
	c-0.3,0-0.5-0.1-0.8-0.1C558.4,591.8,555.9,593.7,554.9,596.3L554.9,596.3z"/>
<path class="st0" d="M469.8,603.5c0,1.7,0.7,3.4,1.9,4.6c1.3,1.3,3,2.1,4.9,2.2h0.2c1.4,0,2.7-0.5,3.7-1.5c1.9-1.9,1.7-5,0.9-7.2
	c-0.3-0.9-0.7-1.7-1.3-2.4c-0.7-0.8-1.7-1.3-2.7-1.6c-0.4-0.1-0.8-0.1-1.2-0.1C472.9,597.4,469.9,600.3,469.8,603.5L469.8,603.5z"/>
<path class="st0" d="M516.4,620.6c-0.5,0.4-0.8,1.1-1.1,1.6v0c-0.1,0.2-0.2,0.4-0.3,0.6c-1.1,1.9-2.9,3.1-5,3.5
	c-0.4,0.1-0.8,0.1-1.1,0.1c-1.7,0-3.4-0.6-4.7-1.8c-0.2-0.1-0.4-0.2-0.6-0.2c-0.4,0-0.7,0.2-1,0.5c-0.3,0.3-0.4,0.7-0.4,1
	c0.1,1,1,1.8,1.8,2.2c1.5,0.8,3.3,1.3,5,1.3c3,0,6-1.3,7.9-3.4c0.4-0.5,0.8-0.7,1.1-0.7c0.1,0,0.2,0,0.3,0.1
	c3.6,2.1,8.1,2.3,11.9,0.4c1.3-0.7,2.1-1.5,2.3-2.4c0.1-0.6,0-1.2-0.4-1.7c-0.3-0.4-0.7-0.6-1.1-0.6c-0.1,0-0.2,0-0.3,0
	c-0.4,0.1-0.8,0.4-1.1,0.7l-0.1,0.1c-1.5,1.3-3.3,2-5.3,2.1c-0.1,0-0.3,0-0.4,0c-1.1-0.1-2.2-0.4-3.1-1.1c-0.3-0.2-0.6-0.4-0.8-0.7
	c-0.4-0.4-0.8-0.9-1-1.5c-0.2-0.4-0.7-0.7-1.1-0.6C517.1,620.2,516.7,620.3,516.4,620.6L516.4,620.6z"/>
<path class="st1" d="M562.2,641.6c-8.3,0-16.6,0.7-24.9,2c-16.9,2.6-33.3,7.4-51.3,12.9l-0.1,0c-6.6,2-13.3,4.1-20.3,4.3
	c-0.8,0-1.5,0.5-1.9,1.2c-0.7,1.1-0.8,2.4-0.3,3.6c0.7,1.7,2.3,2.9,3.9,4l0.5,0.3c9.3,6.6,15.5,17,21,26.1c1.3,2.1,3.8,3.5,6.9,3.7
	c0.3,0,0.6,0,1,0c2.4,0,4.8-0.6,7.1-1.2c18.9-4.7,39-9.4,59.2-9.5h0.6c2.8,0,5.6,0,8.2-1.1c6.1-2.5,8.6-9.5,10.4-15.8l1.5-5
	l6.5-22.4C581.4,642.7,572,641.6,562.2,641.6L562.2,641.6z"/>
<path class="st1" d="M553.2,650.4c-0.5,0.5-0.9,1-1.3,1.5c-0.4,0.6-0.7,1.3-0.9,2c-0.3,0.7-0.3,1.6-0.4,2.4c0,0.3-0.1,0.6-0.1,0.8
	c-0.1,0.7-0.1,1.4,0,2.1c0,1.4,0.2,2.9,0.3,4.3c0.2,3.2,0.8,6.4,1.8,9.4c0.3,1,0.6,1.9,1,2.8c0.5,1.3,1,2.6,1.6,3.8
	c0.9,1.9,1.7,3.8,2.7,5.7c0.5,1,1.6,1.8,2.7,2.1c2.4,0.7,4.9-0.8,5.6-3.2l0.2-1.2c0-0.8-0.2-1.6-0.6-2.3c-1-1.9-1.8-3.9-2.7-5.8
	c-0.3-0.7-0.6-1.4-0.9-2.2c-0.4-0.9-0.6-1.8-0.9-2.7c-0.5-1.5-0.9-3.1-1.2-4.7c-0.1-1.4-0.3-2.7-0.4-4.1c-0.2-1.4-0.2-2.9-0.1-4.3
	l0-0.2l0,0c0.9-0.8,1.3-2.1,1.3-3.2c0-2.5-2-4.5-4.5-4.5l0,0C555.2,649.1,554.1,649.6,553.2,650.4L553.2,650.4z"/>
<path class="st2" d="M569.8,691.8L569.8,691.8l-15.4,0.9c-0.6,0-1.5,0.2-1.8,0.8c-2.1,5.6-5,10.8-8.6,15.6c-0.7,0.9,0.2,2.1,1.1,2.8
	l6.7,5.4l6.7,5.4c0.4,0.3,0.8,0.6,1.2,0.6c0.1,0,0.1,0,0.2,0c0.6-0.1,1-0.8,1.2-1.4c2.6-7,4.9-14.2,7-21.2v0v0
	C569,697.9,570,694.9,569.8,691.8L569.8,691.8L569.8,691.8z"/>
<path class="st2" d="M547.3,693.1c-0.9,0-1.9,0.1-2.8,0.3l-16.7,2.5c-0.4,0.1-0.9,0.2-1,0.5c-0.1,0.1-0.1,0.3,0,0.4
	c0.1,0.2,0.2,0.3,0.4,0.4l13,10.1c0.2,0.2,0.5,0.4,0.8,0.4h0.1c0.5,0,0.9-0.5,1.3-0.9c3.1-4.1,5.7-8.6,7.8-13.3
	C549.1,693.3,548.2,693.1,547.3,693.1L547.3,693.1z"/>
<path class="st2" d="M520.1,697.8c-1.2,0-2.4,0.3-3.4,0.9c-2.2,1.4-3.1,4.1-3.9,6.6v0c-0.2,0.7-0.4,1.4-0.7,2
	c-1.2,3.2-3.2,6.1-5.1,8.8c1.9,2.5,3.9,5.1,5.8,7.6c0.4,0.6,1,1.3,1.7,1.6c2.8,1.1,5.2,2.7,7.3,4.9c0.2,0.2,0.5,0.4,0.8,0.4
	c0.8,0,1.7-0.7,2.3-1.4c4.8-5.5,9.2-11.3,13.3-17.3c0.2-0.3,0.8-1.4,0.2-1.9l0,0l-9.3-7.7c-1.8-1.4-3.6-2.9-5.7-3.8
	C522.4,698,521.3,697.8,520.1,697.8z"/>
<path class="st2" d="M510.4,699.9c-0.3,0-0.6,0.1-0.9,0.2c-4.6,1.5-9.3,2.2-14.1,2.2c3.5,3,6.5,6.6,9,10.6c0.2,0.2,0.4,0.4,0.7,0.4
	c0.2,0,0.4-0.1,0.6-0.2c0.4-0.2,0.6-0.7,0.9-1.1c1.9-3.7,3.5-7.5,4.9-11.5C511.2,700,510.7,699.9,510.4,699.9L510.4,699.9z"/>
<path class="st2" d="M541.6,713c0,0-0.1,0-0.1,0c-0.3,0.1-0.6,0.3-0.8,0.6L527.1,732c-0.2,0.3-0.4,0.6-0.4,1c0,0.4,0.3,0.6,0.6,0.9
	l10.1,8.1l10.1,8.2c0.3,0.2,0.6,0.4,0.9,0.4c0.1,0,0.2,0,0.3-0.1c0.3-0.2,0.5-0.4,0.5-0.7l4.4-10.4l4.4-10.4c0.2-0.5,0.4-1,0.4-1.6
	c-0.1-0.8-0.7-1.4-1.4-2l-14.5-12.1C542.3,713.2,542,713.1,541.6,713L541.6,713z"/>
<path class="st2" d="M524.5,735.6c-0.4,0-0.8,0.2-1.1,0.5c-0.4,0.4-0.6,1-0.6,1.6c0,1.1,0.7,2.1,1.2,2.8l6.6,9.5l3.9,5.6
	c1.9,2.7,3.8,5.5,6.2,7.9c0.3,0.3,0.8,0.8,1.4,0.8c0.1,0,0.2,0,0.3,0c0.5-0.1,0.8-0.7,1-1.1l1.1-2.3l2.2-4.5
	c0.3-0.6,0.5-1.2,0.4-1.8c-0.2-0.4-0.4-0.7-0.8-1c-6.7-6-13.5-11.8-20.5-17.4c-0.3-0.3-0.8-0.6-1.2-0.7
	C524.6,735.7,524.5,735.7,524.5,735.6L524.5,735.6z"/>
<path class="st2" d="M518.1,730.6c-0.2,0-0.4,0.1-0.5,0.3c0,0.1,0,0.2,0.1,0.2c0.7,1.4,1.8,2.5,3.2,3.3c0.2-0.9,0-1.7-0.5-2.4
	C519.8,731.3,519,730.8,518.1,730.6L518.1,730.6z"/>
<path class="st3" d="M479.8,470.6c-0.8,0-1.8,0.2-2.3,0.7c-0.2,0.2-0.3,0.6-0.3,0.9c1.1,10.2,1.4,22.8-6.7,30
	c-2.5,2.3-5.6,3.8-8.6,5.2c-2.7,1.3-5.4,2.6-7.8,4.5c-5.7,4.5-8.6,12.3-7.2,19.4c0.7,3.9-2.7,6.9-5.8,9.6l-0.5,0.4l-0.2,0.1
	c-9.5,8.5-14.1,22.2-11.5,34.7c0.6,2.8-1,5.7-2.3,8.2l-0.1,0.1c-5.9,10.9-12.1,27.5-8.3,44.7c1.7,7.6,5.6,14.6,11.1,20.2
	c5.8,5.8,12.8,9.3,20.1,10c1,0.1,2.1,0.1,3.1,0.1c4,0,7.9-0.6,11.5-1.3c11.4-2.2,22.8-5.4,33.7-8.5c13.9-4,28.2-8,42.8-10
	c15.9-2.1,32-1.7,47.8,1.2l0.1,0c1.2,0.3,2.4,0.4,3.7,0.5c0.8,0,1.6-0.1,2.4-0.4c2.5-0.9,4.1-3.4,5.3-5.8c5.8-11.7,8-24.4,6.1-35.9
	c-2.1-12.7-9.4-24-19.5-30.1c-1.5-0.9-3.1-1.9-3.3-3.6c-1.4-10.5-6-20.5-13.2-28.9c-7.2-8.4-16.4-14.5-26.6-17.5
	c-2.2-0.6-3.2-3.2-3.9-5c-9.7-24-33.6-41.5-59.4-43.6C480.1,470.6,479.9,470.6,479.8,470.6L479.8,470.6z M560.5,604.7L560.5,604.7
	c-0.3,0-0.7,0-1-0.1c-2.9-0.5-5.1-3.3-5-6.2c0-0.7,0.2-1.4,0.5-2.1c1-2.6,3.5-4.5,5.9-4.5c0.3,0,0.5,0,0.8,0.1
	c0.9,0.2,1.8,0.5,2.5,1.1c2.4,1.7,3.3,5.1,2.3,7.7C565.4,603.1,563.1,604.6,560.5,604.7L560.5,604.7z M476.6,610.2
	c-1.8,0-3.6-0.8-4.9-2.2c-1.2-1.2-1.9-2.9-1.9-4.6c0.1-3.2,3.1-6,6.3-6c1.5,0,2.9,0.6,3.9,1.7c0.6,0.7,1.1,1.5,1.3,2.4
	c0.8,2.3,1,5.4-0.9,7.2c-1,0.9-2.3,1.5-3.7,1.5C476.7,610.2,476.6,610.2,476.6,610.2L476.6,610.2z M508.7,626.5c0.4,0,0.8,0,1.1-0.1
	c2.1-0.4,3.9-1.6,5-3.5c0.1-0.2,0.2-0.4,0.3-0.6v0c0.3-0.6,0.6-1.2,1.1-1.6c0.3-0.3,0.8-0.4,1.2-0.4c0.5,0,0.9,0.2,1.1,0.6
	c0.8,1.8,2.8,3.1,4.9,3.2c0.1,0,0.3,0,0.4,0c2,0,3.8-0.8,5.3-2.1l0.1-0.1c0.3-0.3,0.7-0.6,1.1-0.7c0.1,0,0.2,0,0.3,0
	c0.4,0,0.9,0.2,1.1,0.6c0.4,0.5,0.5,1.1,0.4,1.7c-0.2,0.9-1,1.7-2.3,2.4c-3.8,1.9-8.2,1.8-11.9-0.4c-0.1-0.1-0.2-0.1-0.3-0.1
	c-0.3,0-0.7,0.2-1.1,0.7c-1.9,2.1-4.9,3.4-7.9,3.4c-1.7,0-3.5-0.4-5-1.3c-0.8-0.4-1.7-1.2-1.8-2.2c0-0.4,0.1-0.8,0.4-1
	c0.2-0.3,0.6-0.5,1-0.5c0.2,0,0.4,0.1,0.6,0.2C505.3,625.9,507,626.5,508.7,626.5L508.7,626.5z"/>
<path class="st3" d="M992.2,0c-2.2,0.3-3.7,2.3-3.4,4.5c0.1,0.7,0.4,1.4,0.8,1.9c0.6,0.8,1.6,1.4,2.6,1.5h1.1
	c0.7-0.1,1.4-0.4,1.9-0.8c0.8-0.7,1.3-1.6,1.5-2.6c0.1-1.1-0.2-2.2-0.8-3c-0.6-0.8-1.6-1.4-2.6-1.5L992.2,0z"/>
</svg>
