<svg id="Draw_Layer" data-name="Draw Layer" xmlns="http://www.w3.org/2000/svg" viewBox="0 0 996.75 1175.22"><defs><style>.cls-1{fill:#2c2c2c;}.cls-2{fill:#ffc87b;}.cls-3{fill:#d1a364;}.cls-4{fill:#ff9ee0;}</style></defs><title>Ice_cream</title><path class="cls-1" d="M1138.22,485c6.94,37.87,4.83,82.25-24.11,107.64-22.59,19.8-57.67,24.23-74.51,49.1-19.26,28.46-6.77,73.15-32.57,95.84-35,30.76-53.56,79.17-48.14,125.43,2.81,24-9.92,46.62-19.64,68.72-24.74,56.25-31,123.21-4.48,178.61s90.7,94.17,150.54,80.23c4.27,21.77,20.48,38.91,35.66,55.1,95.46,101.83,176.72,216,254.24,332.11,4.16,6.23,13.9,6.23,20.08,2s9.61-11.34,12.75-18.14a1828.9,1828.9,0,0,0,79.68-203.73c6.3-19.47,12.36-39.24,22.71-56.88,8.47-14.46,19.68-27.22,27.46-42.06,22.27-42.46,15.43-99.24,48.88-133.59,38-39,57.86-95.15,52.83-149.42s-34.84-105.77-79.41-137.17c-7.78-5.48-9.65-16-11.55-25.3-14-68.86-66-128.72-132.21-152.28-19.88-7.07-29.42-28.91-39.2-47.61-42.43-81.1-130.39-136.35-221.87-139.35l-.84,0c-7.69,0-17.65,3.39-16.3,10.78Zm-74.76,151.25c8.63-6.87,18.79-11.78,28.65-16.53,11.09-5.35,22.55-10.89,31.79-19.24,29.56-26.69,28.67-73.29,24.59-110.91a4,4,0,0,1,1-3.2c1.8-2,5.51-2.72,8.37-2.72.46,0,.91,0,1.35.05,95.44,7.61,183.71,72.35,219.65,161.09,2.75,6.79,6.52,16.09,14.52,18.44,37.48,11,71.42,33.32,98.16,64.53s43.6,68.19,48.73,106.91c.82,6.2,6.93,10,12.33,13.27a140.33,140.33,0,0,1,19.21,14.21l.09.08.17.15a155,155,0,0,1,26.37,30.39l.1.15.09.14a171.31,171.31,0,0,1,26,66.23,184.37,184.37,0,0,1,2.41,24.67,215.28,215.28,0,0,1-9.68,69.87,244.86,244.86,0,0,1-15.23,38c-4.36,8.73-10.08,18.1-19.41,21.42a25.69,25.69,0,0,1-8.74,1.38,75.94,75.94,0,0,1-13.51-1.67l-.3,0a562.7,562.7,0,0,0-176.67-4.48c-53.7,7.16-106.73,22.26-158,36.85-40.58,11.55-82.53,23.5-124.64,31.47-13.45,2.54-27.93,4.9-42.61,4.9-3.94,0-7.84-.18-11.58-.53-27.16-2.57-52.86-15.33-74.32-36.89a155.15,155.15,0,0,1-41-74.7c-14.17-63.37,8.8-124.74,30.56-165.06l.22-.42c5-9.25,10.64-19.72,8.52-30.19-9.36-46.37,7.34-96.74,42.55-128.31l.6-.54,1.69-1.5c11.24-10,24-21.33,21.28-35.62a71.87,71.87,0,0,1-.22-24.91,77.19,77.19,0,0,1,10.56-28.27,71.8,71.8,0,0,1,16.32-18.5Zm153.19,694.12c-11.22-.8-20.72-5.92-25.43-13.74-20.31-33.66-43.33-71.82-77.71-96.37l-1.74-1.22c-5.75-4.06-11.68-8.25-14.42-14.65a14.82,14.82,0,0,1,1.11-13.2,8.9,8.9,0,0,1,7.21-4.47c25.58-1,50.64-8.61,74.87-16l.28-.09c66.77-20.33,127.13-37.95,189.73-47.72a599.81,599.81,0,0,1,91.88-7.52,436.27,436.27,0,0,1,93.08,9.6l.15,0,.5.1.54.13.1,0c2.74.6,5.48,1.25,8.21,1.92h0l-23.92,82.71-5.37,18.56c-6.81,23.53-16,49.39-38.41,58.47-9.48,3.83-20,3.9-30.18,4h-2.06c-74.58.62-149,17.75-218.85,35.23-8.48,2.13-17.26,4.33-26.07,4.33-1.15,0-2.34,0-3.51-.12ZM1449,1415.06l-24.83-20-24.84-20c-3.47-2.81-6.67-7.21-4.23-10.39a221.31,221.31,0,0,0,31.93-57.48c.92-2.45,4.16-2.91,6.52-3.05l57-3.2,0,0c.53,11.23-3,22.57-6.14,32.59l0,.11,0,.11c-8.07,25.85-16.42,52.58-26,78.38-.81,2.18-2,4.73-4.35,5.1a3.51,3.51,0,0,1-.55,0c-1.63,0-3.16-1.13-4.46-2.18Zm-65.72-55.14a6.32,6.32,0,0,1-3-1.56l-47.85-37.26a3.52,3.52,0,0,1-1.34-1.56,1.67,1.67,0,0,1,.19-1.49c.64-1,2.38-1.74,3.82-2l61.81-9.41a70,70,0,0,1,10.41-1,22.64,22.64,0,0,1,9.63,1.87l.07,0h0a262.33,262.33,0,0,1-28.75,49c-1.15,1.54-2.72,3.32-4.65,3.32Zm-69.93,82.8a71.52,71.52,0,0,0-26.82-18.08c-2.76-1.05-4.74-3.65-6.33-5.73q-10.68-14-21.33-28a.18.18,0,0,1,0-.07h0c7.14-10.18,14.53-20.71,18.92-32.6.87-2.38,1.68-4.89,2.46-7.33l0-.09c3-9.48,6.14-19.28,14.38-24.47A23.26,23.26,0,0,1,1307,1323a33,33,0,0,1,12.11,2.41c8,3.16,14.65,8.7,21.11,14.06l34.27,28.41.13.11c2.37,2,0,5.92-.75,7.08a618.07,618.07,0,0,1-49,64c-2,2.29-5.4,5-8.4,5a4.11,4.11,0,0,1-3.11-1.35Zm-65.07-63.9a169.39,169.39,0,0,0-25.19-31.71q-3.82-3.78-7.89-7.31h0l0,0a176.48,176.48,0,0,0,52.16-8.3,11.83,11.83,0,0,1,3.5-.61c1.35,0,3.06.36,3.58,2a345.48,345.48,0,0,1-18.13,42.38,10,10,0,0,1-3.23,4.22,4.17,4.17,0,0,1-2.2.62,2.93,2.93,0,0,1-2.6-1.29Zm160,137.77-37.36-30.23-37.19-30.09c-1.11-.9-2.2-1.89-2.37-3.23s.64-2.52,1.48-3.66l50-67.78a5.23,5.23,0,0,1,2.91-2.39,3,3,0,0,1,.52,0,6.05,6.05,0,0,1,3.57,1.79l53.58,44.72c2.5,2.09,5,4.39,5.26,7.43.19,2-.65,4-1.4,5.74l-16.33,38.3-16.33,38.3a4.44,4.44,0,0,1-2,2.58,2.35,2.35,0,0,1-1,.21,6,6,0,0,1-3.41-1.64Zm-110.44-70.45a.58.58,0,0,1-.27-.69,2.27,2.27,0,0,1,2-1.14l.21,0a12.12,12.12,0,0,1,10,13.16s0,0,0,.06h0q0,.35-.12.69h0v0a29.32,29.32,0,0,1-11.8-12.12Zm85.54,120c-8.77-8.8-16-19.19-23-29.24l-14.48-20.83-24.52-35.27c-2-2.88-4.49-6.46-4.59-10.45a8.2,8.2,0,0,1,2.28-5.75,5.5,5.5,0,0,1,3.92-1.81,5.34,5.34,0,0,1,.69,0,10.16,10.16,0,0,1,4.6,2.52c25.64,20.66,51.11,42.31,75.69,64.36a8.85,8.85,0,0,1,2.78,3.54c.72,2.14-.25,4.42-1.3,6.56l-8,16.47-4.13,8.45c-.85,1.75-1.91,3.66-3.76,4.17a3.41,3.41,0,0,1-1,.15c-2,0-3.91-1.67-5.16-2.92Z" transform="translate(-917.56 -407.48)"/><path class="cls-1" d="M1435.5,947.86a26,26,0,0,0-1.68,7.69,21,21,0,0,0,1.23,8.13A24,24,0,0,0,1445.38,976a21.51,21.51,0,0,0,6.73,2.51,21.26,21.26,0,0,0,3.84.35h0a23.11,23.11,0,0,0,7.57-1.29,25,25,0,0,0,9.78-6.28,22.65,22.65,0,0,0,4.65-7.21,24.1,24.1,0,0,0,.55-15.62h0c0-.07,0-.14-.07-.22v0a1.18,1.18,0,0,0-.07-.2v0l-.06-.2v0a1.72,1.72,0,0,1-.07-.21v0a24.57,24.57,0,0,0-8.65-12,21.41,21.41,0,0,0-9.33-4,17.11,17.11,0,0,0-2.81-.22c-9.08,0-18.3,7-21.92,16.58Z" transform="translate(-917.56 -407.48)"/><path class="cls-1" d="M1121,974.47a23.84,23.84,0,0,0,7.08,17,25.39,25.39,0,0,0,17.94,8l.76,0a20.36,20.36,0,0,0,13.58-5.43c7-6.92,6.26-18.34,3.27-26.72a26.09,26.09,0,0,0-4.94-8.89,19.51,19.51,0,0,0-10.16-5.81,19,19,0,0,0-4.27-.47c-11.86,0-23,10.65-23.26,22.35Z" transform="translate(-917.56 -407.48)"/><path class="cls-1" d="M1293.09,1037.77c-1.92,1.6-3.08,3.88-4.21,6.09l0,.09c-.38.74-.76,1.48-1.17,2.2a26.58,26.58,0,0,1-18.54,12.92,25.72,25.72,0,0,1-4.21.35,26.89,26.89,0,0,1-17.52-6.54,3.09,3.09,0,0,0-2.1-.79,5.08,5.08,0,0,0-3.57,1.75,5.23,5.23,0,0,0-1.48,3.86c.3,3.84,3.83,6.58,6.73,8.21a37.83,37.83,0,0,0,18.48,4.67c11.19,0,22.08-4.63,29.14-12.4,1.62-1.78,3-2.65,4.17-2.65a2.27,2.27,0,0,1,1.18.34,45.76,45.76,0,0,0,43.83,1.37c4.82-2.5,7.67-5.52,8.48-9a7.52,7.52,0,0,0-1.53-6.16,5.35,5.35,0,0,0-4.16-2.23,4,4,0,0,0-1,.11,10,10,0,0,0-4.13,2.55l-.43.37a30.34,30.34,0,0,1-19.5,7.71c-.51,0-1,0-1.55-.05a23,23,0,0,1-11.37-3.93,20.74,20.74,0,0,1-3.06-2.54,18.59,18.59,0,0,1-3.85-5.51,4.35,4.35,0,0,0-4.23-2.36,7.09,7.09,0,0,0-4.38,1.52Z" transform="translate(-917.56 -407.48)"/><path class="cls-2" d="M1462.42,1115.38a599.91,599.91,0,0,0-91.88,7.52c-62.6,9.77-123,27.39-189.72,47.72l-.28.08c-24.24,7.38-49.3,15-74.88,16a8.88,8.88,0,0,0-7.2,4.46,14.81,14.81,0,0,0-1.12,13.21c2.74,6.39,8.68,10.58,14.43,14.64l1.73,1.23c34.38,24.55,57.4,62.7,77.71,96.37,4.72,7.81,14.22,12.94,25.43,13.73,1.18.08,2.36.13,3.52.13,8.8,0,17.58-2.21,26.07-4.33,69.84-17.49,144.27-34.61,218.84-35.23l2.06,0c10.18-.07,20.71-.13,30.18-4,22.46-9.08,31.61-35,38.41-58.48l5.37-18.56,23.93-82.7c-31.78-7.84-66.29-11.81-102.6-11.81Z" transform="translate(-917.56 -407.48)"/><path class="cls-2" d="M1429.22,1148a33.34,33.34,0,0,0-4.8,5.71,35.12,35.12,0,0,0-3.43,7.38c-1.07,2.71-1.27,5.93-1.64,8.74-.13,1-.21,2.05-.3,3.07a66.65,66.65,0,0,0-.16,7.87c.17,5.33.8,10.68,1.23,16a145.11,145.11,0,0,0,6.76,34.72c1.19,3.53,2.31,7.07,3.68,10.53,1.89,4.77,3.77,9.52,5.86,14.21,3.15,7.11,6.38,14.19,9.84,21.15,1.88,3.75,6.07,6.6,10,7.69a16.76,16.76,0,0,0,20.6-11.7l.6-4.45a16.66,16.66,0,0,0-2.29-8.46c-3.52-7.06-6.78-14.25-10-21.46q-1.58-4-3.16-8c-1.31-3.31-2.29-6.79-3.43-10.16a138.16,138.16,0,0,1-4.28-17.35c-.53-5-.93-10-1.36-15a97.76,97.76,0,0,1-.4-16l.18-.77.15-.14c3.22-2.85,4.91-7.64,4.91-11.84a16.75,16.75,0,0,0-16.75-16.75c-4.65,0-8.44,1.89-11.84,4.9Z" transform="translate(-917.56 -407.48)"/><path class="cls-3" d="M1490.55,1300.89h0l-57,3.2c-2.36.13-5.61.59-6.53,3.05a221.73,221.73,0,0,1-31.92,57.48c-2.44,3.17.75,7.58,4.23,10.39l24.83,20,24.84,20c1.3,1,2.82,2.17,4.45,2.17a5.27,5.27,0,0,0,.56,0c2.31-.38,3.54-2.92,4.35-5.1,9.61-25.8,18-52.53,26-78.38l0-.12,0-.11c3.13-10,6.67-21.35,6.15-32.58l0,0Z" transform="translate(-917.56 -407.48)"/><path class="cls-3" d="M1407.25,1305.66a69.84,69.84,0,0,0-10.41,1l-61.82,9.41c-1.43.22-3.17.92-3.82,2a1.71,1.71,0,0,0-.18,1.49,3.42,3.42,0,0,0,1.34,1.57l47.85,37.25a6.24,6.24,0,0,0,3,1.56h.32c1.93,0,3.5-1.77,4.65-3.32a263.12,263.12,0,0,0,28.75-49,22.49,22.49,0,0,0-9.71-1.91Z" transform="translate(-917.56 -407.48)"/><path class="cls-3" d="M1307,1323a23.21,23.21,0,0,0-12.43,3.36c-8.23,5.18-11.36,15-14.38,24.46l0,.1c-.78,2.43-1.58,5-2.45,7.32-4.39,11.89-11.78,22.42-18.93,32.6q10.7,14.06,21.39,28.05c1.6,2.09,3.58,4.68,6.34,5.73a71.52,71.52,0,0,1,26.82,18.08,4.06,4.06,0,0,0,3.11,1.35c3,0,6.4-2.67,8.4-5a620.54,620.54,0,0,0,49-64c.77-1.16,3.12-5.11.75-7.08l-.14-.12-34.26-28.41c-6.47-5.35-13.15-10.89-21.11-14.06A33,33,0,0,0,1307,1323Z" transform="translate(-917.56 -407.48)"/><path class="cls-3" d="M1270.83,1330.87a11.75,11.75,0,0,0-3.5.6,176.6,176.6,0,0,1-52.16,8.31,170,170,0,0,1,33.08,39,2.94,2.94,0,0,0,2.6,1.3,4.21,4.21,0,0,0,2.2-.63c1.46-.92,2.32-2.45,3.23-4.22a344.17,344.17,0,0,0,18.13-42.38c-.53-1.67-2.24-2-3.58-2Z" transform="translate(-917.56 -407.48)"/><path class="cls-3" d="M1386.22,1379.17a2.92,2.92,0,0,0-.51,0,5.31,5.31,0,0,0-2.91,2.39l-50,67.78c-.84,1.14-1.64,2.36-1.48,3.67s1.26,2.32,2.37,3.22l37.19,30.09,37.36,30.23a6,6,0,0,0,3.41,1.64,2.46,2.46,0,0,0,1-.2,4.47,4.47,0,0,0,2-2.59l16.33-38.3,16.33-38.3c.75-1.75,1.59-3.72,1.39-5.74-.29-3-2.75-5.34-5.26-7.43L1389.79,1381a6.07,6.07,0,0,0-3.57-1.78Z" transform="translate(-917.56 -407.48)"/><path class="cls-3" d="M1323,1462.82a5.53,5.53,0,0,0-3.92,1.8,8.15,8.15,0,0,0-2.28,5.75c.1,4,2.59,7.58,4.59,10.45l24.52,35.27,14.48,20.84c7,10,14.2,20.43,23,29.23,1.25,1.25,3.14,2.92,5.16,2.92a3.83,3.83,0,0,0,1-.14c1.85-.52,2.91-2.43,3.76-4.18l4.13-8.45,8-16.46c1-2.15,2-4.43,1.3-6.57a8.82,8.82,0,0,0-2.78-3.53c-24.58-22.06-50-43.71-75.69-64.37a10.14,10.14,0,0,0-4.6-2.51,5.47,5.47,0,0,0-.69,0Z" transform="translate(-917.56 -407.48)"/><path class="cls-3" d="M1299.49,1444.32a2.27,2.27,0,0,0-2,1.13.58.58,0,0,0,.27.69,29.3,29.3,0,0,0,11.79,12.12,11.41,11.41,0,0,0-2-9,11.56,11.56,0,0,0-7.83-4.91Z" transform="translate(-917.56 -407.48)"/><path class="cls-4" d="M1157.89,483.62c-2.86,0-6.57.72-8.37,2.73a4,4,0,0,0-1,3.2c4.08,37.61,5,84.21-24.59,110.9-9.24,8.35-20.7,13.89-31.79,19.24-9.86,4.75-20,9.66-28.65,16.53-20.9,16.62-31.62,45.43-26.66,71.68,2.7,14.29-10,25.62-21.28,35.62l-1.69,1.51-.59.53C978,777.13,961.32,827.5,970.69,873.87c2.11,10.47-3.54,21-8.53,30.18l-.22.43c-21.76,40.32-44.72,101.68-30.56,165.06a155.15,155.15,0,0,0,41,74.7c21.46,21.56,47.16,34.32,74.32,36.89,3.74.35,7.64.53,11.58.53,14.68,0,29.16-2.36,42.61-4.9,42.11-8,84.07-19.92,124.64-31.46,51.29-14.6,104.32-29.7,158-36.86a563,563,0,0,1,176.67,4.47l.3.06a75.94,75.94,0,0,0,13.51,1.67,25.69,25.69,0,0,0,8.74-1.38c9.33-3.32,15-12.69,19.42-21.42,21.57-43.15,29.56-90.24,22.49-132.58-7.83-46.87-34.75-88.5-72-111.35-5.4-3.31-11.51-7.07-12.33-13.27-5.13-38.72-22-75.69-48.73-106.91s-60.69-53.53-98.16-64.53c-8-2.35-11.77-11.65-14.52-18.44-36-88.74-124.22-153.48-219.65-161.09-.43,0-.89-.05-1.35-.05ZM1456,978.9h0a21.07,21.07,0,0,1-3.83-.35c-10.66-2-18.86-12.3-18.3-23a25.93,25.93,0,0,1,1.68-7.69c3.62-9.61,12.84-16.58,21.92-16.58a17.11,17.11,0,0,1,2.81.22,21.41,21.41,0,0,1,9.33,4c8.73,6.39,12.34,18.69,8.4,28.61a24.09,24.09,0,0,1-22,14.78ZM1146,999.46a25.39,25.39,0,0,1-17.94-8,23.9,23.9,0,0,1-7.09-17c.32-11.7,11.41-22.35,23.27-22.35a19.78,19.78,0,0,1,14.44,6.28,26.25,26.25,0,0,1,4.93,8.89c3,8.38,3.7,19.8-3.27,26.72a20.31,20.31,0,0,1-13.58,5.43c-.25,0-.51,0-.76,0Zm118.88,60a25.71,25.71,0,0,0,4.21-.34,26.58,26.58,0,0,0,18.54-12.92c.41-.72.79-1.46,1.17-2.2l0-.09c1.13-2.21,2.29-4.49,4.21-6.09a7.07,7.07,0,0,1,4.38-1.52,4.35,4.35,0,0,1,4.23,2.36c3,6.65,10.33,11.47,18.28,12,.52,0,1,.05,1.55.05a30.32,30.32,0,0,0,19.5-7.71l.43-.37a10,10,0,0,1,4.12-2.55,4.12,4.12,0,0,1,1-.11,5.35,5.35,0,0,1,4.16,2.23,7.52,7.52,0,0,1,1.53,6.16c-.81,3.44-3.66,6.45-8.48,9a45.76,45.76,0,0,1-43.83-1.37,2.27,2.27,0,0,0-1.18-.34c-1.18,0-2.55.87-4.17,2.66-7.06,7.76-17.95,12.39-29.14,12.39a37.76,37.76,0,0,1-18.47-4.67c-2.91-1.63-6.44-4.37-6.74-8.21a5.23,5.23,0,0,1,1.48-3.86,5.08,5.08,0,0,1,3.57-1.75,3.09,3.09,0,0,1,2.1.79,26.88,26.88,0,0,0,17.52,6.53Z" transform="translate(-917.56 -407.48)"/><path class="cls-4" d="M1909.74,407.49a4,4,0,0,0-2.55,6.46,3.85,3.85,0,0,0,2.63,1.47h1.07a4,4,0,0,0,1.92-.83,4,4,0,0,0,1.47-2.63,4,4,0,0,0-.84-3,3.82,3.82,0,0,0-2.63-1.48Z" transform="translate(-917.56 -407.48)"/></svg>