<svg id="Draw_Layer" data-name="Draw Layer" xmlns="http://www.w3.org/2000/svg" viewBox="0 0 928.35 1674.52"><defs><style>.cls-1{fill:#161616;}.cls-2{fill:cyan;}.cls-3{fill:magenta;}.cls-4{fill:green;}</style></defs><title>Bear</title><path class="cls-1" d="M1469.44,212.65c-80.8-31-172.65-32.11-254.2-3.17-22.92-34.3-73.21-46.75-109.48-27.11s-53.33,68.56-37.13,106.5c6.49,15.21,17.35,28.19,24.36,43.17,36.53,78.13-42.21,168.32-23.8,252.58,8.35,38.24,35.72,80,13.66,112.33a604.38,604.38,0,0,0-104.32,326.54c-.37,19-6.68,37.32-12,55.58-50,171.74-15.46,356,29.35,529.15,11.93,46.13,24.91,92.86,50.37,133.14s65.52,73.86,112.72,80.39,97.27-16.89,122.52-57.33,24.31-95.68-2.29-135.25l90.58,14.24c-5.88,58.19-8.9,124.94,32.51,166.25,40,39.86,106.74,38.19,158.61,15.94,111.55-47.85,175.1-170.65,190.39-291.06,20.44,22.11,48.06,46.32,76.74,37.16,28-8.93,37.07-44,37.15-73.37.08-30-5.72-62.34-27.38-83.09s-63-21.91-78.1,4a546.83,546.83,0,0,0-19.6-205.33c-13.57-46.25-33.54-92.93-27.46-140.74,17.52-137.79-29.58-282.44-124.88-383.49,51-36.92,73.19-104.16,70.35-167.09s-27.1-122.75-53.42-180c-8.23-17.89-16.76-38.64-8.43-56.48,4.61-9.85,13.63-16.84,19.79-25.79,22.45-32.65-4.4-82.28-42.93-91.49a77.4,77.4,0,0,0-18.09-2.12c-32.66,0-64.72,19.81-85.59,45.94Zm23.66-.77c15.81-19,39.29-30.86,61.27-30.86a58.62,58.62,0,0,1,18,2.79c14.9,4.77,27.59,17.65,33.13,33.61,4.69,13.49,3.36,27.19-3.64,37.57-2.93,4.38-6.82,8.25-10.63,12.05s-8,8-11.1,12.79c-15.71,24.75.69,56.52,13.86,82.05a433.24,433.24,0,0,1,46.52,162.44c3.74,46.21-2.71,81.35-19.71,107.41-12.41,19-31.24,34-46.37,46-19.59,15.58-39.72,31.24-59.82,46.55-30.56,23.26-58.56,43.33-91.74,53.32-17.32,5.22-36.53,7.75-58.75,7.75-5.05,0-10.6-.14-16.48-.42-75.41-3.77-143.82-30.26-192.63-74.58-54.71-49.69-82.78-122-73.24-188.73,3.07-21.38,9.84-42.2,16.39-62.38l0-.11,0-.1,0-.16,0-.16c3.87-11.94,7.87-24.29,11.1-36.81,10.6-41.28,8.55-75.17-6.09-100.7a174.5,174.5,0,0,0-11.2-16.42l-.15-.2c-5.48-7.39-11.15-15-14.85-23.67a57.42,57.42,0,0,1-4.5-23.56,67.86,67.86,0,0,1,4.63-23.5c6-15.59,17.45-29.38,32.73-37a71,71,0,0,1,32.08-7.35,84.37,84.37,0,0,1,59.28,24.81c4.51,4.63,10.69,11,17.12,11a9.9,9.9,0,0,0,3.67-.71,301.1,301.1,0,0,1,113.57-21.82,305.8,305.8,0,0,1,125.83,26.93,13.65,13.65,0,0,0,5.67,1.24c10,0,19.55-11.48,25.87-19.09ZM1219.37,1287c-22.76-3.85-45.57-15.65-71.79-37.15q-13.23-10.85-25.86-23.26c-32.83-32.23-60.15-70-83-110.19q-9.95-17.43-19.2-36.21c-8.31-16.85-17.49-37-22.52-58.17-14.67-61.88,6-126,30.57-186,16-39.19,33.71-78.24,52.59-116,7.83-15.69,18.06-32,34.6-34.11v0c16.78,27,41,50.22,72,69,27.22,16.49,59,29.26,94.59,38,27.93,6.85,54.28,10.32,78.31,10.32a219.78,219.78,0,0,0,53.64-6.35c33.61-8.49,64-25.75,91.84-45.63,9.07-6.47,17.95-13.27,26.71-20.23,9.45-7.51,18.61-15.1,27.52-22.48a9.8,9.8,0,0,1,6.4-2.25c6.64,0,13.57,5.48,16.24,7.84a254,254,0,0,1,18.88,18.57c18.17,19.76,33.11,42.1,45.46,66.08q6.73,13,12.65,27.15c15.93,38,27.77,81.88,36.2,134.26,4.55,28.28,8.89,61.77,6.6,95.64-2.66,39.09-14.12,78-34.08,115.54q-6.57,12.36-14.33,24.41a365.32,365.32,0,0,1-37,48q-11.19,12.3-23.46,23.61-8.61,7.92-17,14.58c-14.6,11.6-30.45,21.69-47.5,28.33a121.91,121.91,0,0,1-27.86,7.36,95.08,95.08,0,0,1-12.56.84A94,94,0,0,1,1444,1307.7c-11.86-6.27-22-15.21-28.73-26.6a59.8,59.8,0,0,1-3.77-7.45c-9.51-22.48-6.72-50.29,8.3-82.66,4.18-9,9-17.91,13.58-26.51,8.69-16.17,17.67-32.88,22.88-50.76a126.73,126.73,0,0,0,4.09-20l0-.24h0a130.56,130.56,0,0,0-8.14-62.91,117.49,117.49,0,0,0-23.47-37.26c-20.85-22.15-51.75-35.37-82.67-35.37a101.73,101.73,0,0,0-35.78,6.32,95.22,95.22,0,0,0-15.93,7.72,105.14,105.14,0,0,0-41.11,47,93.63,93.63,0,0,0-7.91,46.5c2.53,26.55,16.13,50.46,29.29,73.57l.07.13c4.1,7.22,8.34,14.68,12.17,22.09,1.22,2.35,2.59,5.14,4,8.3,9.7,21.29,15.79,45.61,11.64,67.3a.17.17,0,0,1,0,.07s0,0,0,.06a61,61,0,0,1-10.09,24c-12.08,17-34,27.19-58.66,27.19a86.9,86.9,0,0,1-14.37-1.19Zm115.53,0c4.5-3.9,3.57-11,2.26-16.68a700.13,700.13,0,0,0-50.38-144l-1.32-2.76-1.24-2.56c-13.68-28.46-27.84-57.89-21.3-88a64.33,64.33,0,0,1,3.09-10,74.56,74.56,0,0,1,24.45-31.46A82.7,82.7,0,0,1,1330.63,975a88.39,88.39,0,0,1,10.44-.62h0c26.79,0,54.4,11.9,75.76,32.65A108.64,108.64,0,0,1,1442,1043.7a86.26,86.26,0,0,1,4.2,13.21,75.88,75.88,0,0,1,2,17.93c-.27,21.3-9.83,41.6-18.26,59.52l-10.86,23.06-20.84,44.26c-5.48,11.67-11.7,24.89-21.6,34.59-1.65,1.62-3.49,3.22-5.11,4.65-5.19,4.55-10.56,9.26-12.73,15.78-1.3,3.9-.36,8.89,2.39,12.72,2.14,3,5,4.65,7.76,4.65a7.45,7.45,0,0,0,3.43-.86,14.38,14.38,0,0,1,6.77-1.65c6.42,0,13.12,4,17,10.15,3.33,5.21,4,11,1.69,15.86-1.64,3.55-4.44,6.74-7.14,9.83-4.58,5.24-8.91,10.18-7.79,16.59,1.35,7.69,9.68,10.43,16.4,10.43a25.53,25.53,0,0,0,7.43-1.09,87.65,87.65,0,0,0,9.75-4c5.61-2.55,11.41-5.18,17.62-5.29h.37a22.12,22.12,0,0,1,9,2,24.18,24.18,0,0,1,7.73,5.47,22,22,0,0,1,4.63,7.29,23.44,23.44,0,0,1-6.54,25.43,6.94,6.94,0,0,0-2.14,6.81,11.24,11.24,0,0,0,6.77,8.3,14.75,14.75,0,0,0,5,.84c4.79,0,9.66-2,13.36-3.76a138.44,138.44,0,0,0,19.56-11.3,138.69,138.69,0,0,0,36.13-36.63l24.06-11.47,12.51-6a11.84,11.84,0,0,1,4.92-1.5,4.66,4.66,0,0,1,1.25.16c3.08.76,4.48,4.19,5.45,7.44,4.12,13.88,7.21,26.32,3.07,38.08-3.17,9-12.67,16.09-21.63,16.09a14.71,14.71,0,0,1-9.08-3c-3.06-2.32-5.56-5.84-8-9.24-3.82-5.35-7.43-10.4-12.73-10.4a9.58,9.58,0,0,0-2.22.28c-6.5,1.63-8.81,9.08-7.06,22.77a97.79,97.79,0,0,1-11.88,60.3c-2.85,5-7.47,12-14.68,14.2a12.41,12.41,0,0,1-3.68.54c-5.62,0-11.84-3.64-12.09-9.53-.36-8.24-9-13.16-17.18-13.16a18.85,18.85,0,0,0-8.14,1.77c-9.79,4.73-15.26,15.08-20,25.27-4.51,9.65-9.62,20.58-19.2,26.09a20.29,20.29,0,0,1-10.15,2.59,21.68,21.68,0,0,1-5.07-.61,17.72,17.72,0,0,1-7-3.27,12.3,12.3,0,0,1-4.62-7.45,22.87,22.87,0,0,0-2.71-7.28,25.31,25.31,0,0,0-4.36-5.54c-6.21-6-15.32-9.14-23.5-9.14a32,32,0,0,0-7.25.81c-18.62,4.35-30.22,21.19-35.48,30.84-1.62,3-5,4.77-9.11,4.77a14,14,0,0,1-7.38-2.07c-5.44-3.41-8.62-9.68-11.16-14.72l-15.21-30.11c-3.84-7.6-12.7-12.32-23.12-12.32a33.21,33.21,0,0,0-11.18,1.92c-12.53,4.53-22,14.87-30.38,24l0,0,0,0h0a132.46,132.46,0,0,1-24.48-85.33l.12-1.67c.41-6.08.84-12.37-2.09-17.6a12.25,12.25,0,0,0-10.14-5.86,7.1,7.1,0,0,0-6,2.93c-2.33,3.35-6.19,5.2-10.85,5.2a20.21,20.21,0,0,1-15.47-7.45c-6-7.78-6.84-17.89-7.23-29.37-.3-8.88-.64-18.94,3.47-27.57,3.6-7.58,11.14-12.87,18.35-12.87a14.49,14.49,0,0,1,4.36.67c4.86,1.53,9,5.5,12.69,12.14,3.39,6.1,5.73,12.77,8,19.21l.08.22c1.51,4.31,3.08,8.77,4.94,13,4,9.12,11.37,20.76,23.49,24.41a20.32,20.32,0,0,0,5.82.83,22.81,22.81,0,0,0,15.85-6.37,16.59,16.59,0,0,0,2.14-2.67h0a230186465887.22,230186465887.22,0,0,1,.14-.22h0a14.28,14.28,0,0,0,2.14-6.94,30.69,30.69,0,0,0-.34-5.14c-.32-2.64-.65-5.37.14-7.94,1.34-4.35,5.5-6.95,11.12-6.95a20,20,0,0,1,13.14,5c3.58,3.33,6.26,7.53,8.84,11.59s5.21,8.17,8.73,11.47a20,20,0,0,0,13.27,5.1c5.58,0,9.59-2.47,11-6.79a85.29,85.29,0,0,0,.74-49.9,8.81,8.81,0,0,1,5.7-2c4.31,0,9.16,2.63,13.86,5.16s9.42,5.08,13.62,5.08a8.47,8.47,0,0,0,5.77-2.15ZM1161,1805.31c-25.18-3.19-49.15-14.22-69.42-30.25a163.34,163.34,0,0,1-37.82-42.47c-16.21-26.29-25.27-55.4-34.61-88q-10.25-35.68-18.69-68.45-8.33-32.3-15.59-64.89c0-.15-.07-.31-.1-.45h0c-10.44-47.21-17.93-90.52-22.87-131.82-11.78-98.7-9-186.33,8.39-267.88,4-18.43,10.2-38.42,26.73-47h0l0,0q4.53,9.57,9.19,19.36c22.76,47.32,47.81,94.68,83.46,131.76a242.11,242.11,0,0,0,33,28.79c10.94,7.86,4.25,24-1.13,37l-.57,1.38c-11.93,28.93-4,65.43,18.92,86.77a55.36,55.36,0,0,1,20.49-12h0l0,0,1.48-.45h0l0,.26,3.39,16.52q4.66,22.79,9.35,45.57c1.92,9.4,4,18,7.75,25.24a.08.08,0,0,0,0,0s0,.11.08.16l.06.12.06.1.09.16a.93.93,0,0,0,.05.1l.1.17,0,.08.1.18.06.1a1,1,0,0,0,.08.14l.09.16,0,.07a35.57,35.57,0,0,0,6.82,8.53,25.48,25.48,0,0,0,16.73,6.17c7.86,0,14.09-3.57,16.68-9.53,2.39-5.51,7.85-8.68,15-8.68a29.14,29.14,0,0,1,20.65,9c5,5.51,8.47,12.29,11.81,18.87,3,5.88,6.08,12,10.3,17.12,5.36,6.56,14.4,11,22.49,11,4.17,0,9.9-1.18,13.51-6.8,6.22-9.66,13.95-21.7,25.84-27.15a26.48,26.48,0,0,1,11-2.33,24.78,24.78,0,0,1,12.53,3.12,17.32,17.32,0,0,1,7.49,7.86,14.43,14.43,0,0,1,.77,2c3.11,10.23,13.67,16.83,26.91,16.83a36.18,36.18,0,0,0,21.21-6.55,48.52,48.52,0,0,0,6.86-6,64.43,64.43,0,0,0,9.62-13.61c4.67-8.68,8.12-18.73,11.54-29.5.37,0,.72-.05,1.07-.05,7.29,0,11.27,7,15.47,14.45,4,7.11,8.17,14.46,15.53,15.52a10.91,10.91,0,0,0,1.7.13c5.33,0,10.28-3.6,13.54-6.31a93.22,93.22,0,0,0,10.38-10.07c17.6-20,26.74-47.46,24-74h0v0a49.93,49.93,0,0,1,26.18,18.58c14-5.56,25.58-17.62,31.66-33.08s5.83-32.16-.66-45.79c-7.35-15.38,6.51-31.62,19.4-44.06a406.7,406.7,0,0,0,82.4-113.31q2.61-5.33,5.05-10.75v0c60.83,116,52.34,255.43,39.61,377-4.32,41.22-9.07,78.15-23.54,112.64-9.64,23-23.06,43.78-40.25,67.93-30.34,42.66-65,85.34-112.58,108.67a151.42,151.42,0,0,1-66.25,15.41,125.82,125.82,0,0,1-43.5-7.42l-.16-.05h0a103.83,103.83,0,0,1-20.79-10.39,94.66,94.66,0,0,1-16.35-13.45c-15.5-16-25.47-37.18-29.66-63-3.53-21.74-2.81-46.8,2.1-72.47,1.83-9.54,4.33-22.61-3.16-30.8-4.54-5-11.26-6.6-18.93-8.09l-38.83-7.56-39.7-7.72a25.17,25.17,0,0,0-4.69-.58,7.88,7.88,0,0,0-4.44,1.15c-2.69,1.76-3.53,5.31-4,8.2-2.58,17,1.34,34.19,5.13,50.82,2.94,12.92,6,26.27,6,39.58.07,24.64-10.88,48.7-30.84,67.76-19.2,18.31-44.63,29.63-69.79,31-2.15.12-4.32.18-6.44.18a117.23,117.23,0,0,1-14.94-1Zm224.85-548.58a5.15,5.15,0,0,1-3.24-7.81,4.62,4.62,0,0,1,3.73-1.7,5,5,0,0,1,4.65,2.8,4.72,4.72,0,0,1-.59,4.39,5,5,0,0,1-4,2.35l-.52,0Zm-71.45,6.81a7.45,7.45,0,0,1-.07-6.67,4.54,4.54,0,0,1,3.48-2.65l.56-1.38h0a18.73,18.73,0,0,1,5.5,16.22c-.07.42-.15.84-.25,1.26h0c-3.84-1.7-7.43-3.5-9.24-6.79Zm-108.65,52.09a39.11,39.11,0,0,1-11.21-7.66,39.79,39.79,0,0,1-5-5.81,38.58,38.58,0,0,1-4.78-9.21h0c3.61,4,9.64,4.86,14.48,5.54,5.18.73,11,1.86,14.24,6a8.84,8.84,0,0,1,.7,8.87,5.31,5.31,0,0,1-4.77,3.25,9.69,9.69,0,0,1-3.74-1Zm74.31-.71a57.76,57.76,0,0,1-5.69-6.69c-1.94-2.69-3.88-6.54-2.12-9.64a4.88,4.88,0,0,1,4.49-2.4,8.28,8.28,0,0,1,7.06,4.14c2.12,4.1,1.2,8.93,0,13.92.28.29.38.56.28.8-.16.39-.85.66-1.72.66a3.3,3.3,0,0,1-2.27-.79Zm128,2.44,0-.11h0a2.47,2.47,0,0,1-2.18-2.15,4.4,4.4,0,0,1,1.85-4.57,6.12,6.12,0,0,1,3-.73,17.12,17.12,0,0,1,5.58,1.25,3.91,3.91,0,0,1-.52,3.74,7.36,7.36,0,0,1-5.86,2.92,5.49,5.49,0,0,1-2-.34Zm65.89,27.78c1.6-7.2,10.35-8.28,15.42-8.28a40.3,40.3,0,0,1,5.94.45l.53.07h0a43.72,43.72,0,0,1-18.74,16.62,41.46,41.46,0,0,1-5.62,2.15h0l2.47-11Zm333,209.13c-10.14-2.07-18.37-9.82-25-16l-11-10.41-11-10.38c-2.55-2.4-5.18-4.89-6.66-8.14-1.91-4.2-1.61-9-1.1-13.94,2-19.18,5.63-41.18,17.28-58.89,7.32-11.14,16.82-18.27,26.74-20.08a29.28,29.28,0,0,1,5.22-.46c12.37,0,25.45,8,33.33,20.29,8.29,13,11,28.7,13,43.71,2.24,16.41,3.91,33.73-2.2,49.34a43,43,0,0,1-14.75,19,34.64,34.64,0,0,1-11.28,5.49,28.1,28.1,0,0,1-7.3,1,26.89,26.89,0,0,1-5.26-.53Z" transform="translate(-941.89 -166.71)"/><path class="cls-1" d="M1340.93,567.56a25.77,25.77,0,0,0-6.44.85l-.21.06c-7,2-13.59,9-15.85,18.59v0a32.28,32.28,0,0,0-.52,11.53c1.64,12.68,9.35,23.8,16.16,33.62L1345,648l.36.52c5.24,7.53,11.19,14.52,19.24,14.69h.29c8.21,0,14.55-7.35,18.61-12.89a175.76,175.76,0,0,0,24.37-46.47c4.12-12,3.9-20.57-.71-26.3-5.14-6.45-14.51-7.45-22.88-7.89l-18.74-1-18.36-1H1347c-1.59-.09-3.29-.17-4.94-.17Zm25,74.77c-2.33-.55-4.1-2.4-5.71-4.26a155,155,0,0,1-20.78-30.9c-2.28-4.47-5.4-12.68-.61-17.4,1.93-1.89,4.65-2.63,7.26-3.23a123.73,123.73,0,0,1,27.6-3.12h0c1,0,2.08,0,3.13,0,5.55.14,12.6,1.46,14.61,6.9,1.17,3.16.18,6.64-.93,9.95A316.5,316.5,0,0,1,1377.45,633c-1.64,3.54-5.13,9.46-10.07,9.46a6.37,6.37,0,0,1-1.44-.17Z" transform="translate(-941.89 -166.71)"/><path class="cls-2" d="M1114.72,685.86h0c-16.54,2.1-26.77,18.42-34.6,34.1-18.88,37.81-36.57,76.85-52.59,116-24.55,60-45.24,124.14-30.57,186,5,21.22,14.21,41.32,22.52,58.18,35.46,72,78.56,129,128.12,169.66,26.21,21.49,49,33.29,71.77,37.14a87.21,87.21,0,0,0,14.38,1.2c24.66,0,46.58-10.17,58.66-27.2,24-33.86,4.13-81-5.54-99.77-3.82-7.41-8.07-14.87-12.17-22.08l-.07-.13c-13.16-23.12-26.76-47-29.29-73.58-4-42.34,23.89-85.84,65-101.19a102,102,0,0,1,35.78-6.32c30.92,0,61.82,13.23,82.67,35.38,29,30.84,39.81,78.11,27.49,120.43-5.21,17.87-14.19,34.59-22.88,50.75-4.62,8.61-9.41,17.5-13.58,26.51-15,32.37-17.81,60.18-8.31,82.66,11.32,26.78,42.09,44.77,76.58,44.77a93.41,93.41,0,0,0,12.56-.84c29.83-4.07,60.05-20.51,92.37-50.27,30.45-28,56.31-61.24,74.77-96,20-37.58,31.42-76.46,34.08-115.54,2.29-33.88-2-67.36-6.6-95.65-8.43-52.38-20.27-96.29-36.2-134.26-19.36-46.14-45.26-83.76-77-111.79-2.67-2.36-9.6-7.85-16.24-7.85a9.8,9.8,0,0,0-6.4,2.25c-41.9,34.71-89.36,74-146.07,88.34a219.72,219.72,0,0,1-53.64,6.35c-24,0-50.38-3.47-78.31-10.32-35.54-8.7-67.36-21.47-94.59-38-31-18.79-55.27-42-72-69Z" transform="translate(-941.89 -166.71)"/><path class="cls-2" d="M997,1064.15h0c-16.53,8.57-22.78,28.56-26.73,47-17.43,81.56-20.17,169.18-8.38,267.89,9.24,77.35,27.42,161.75,57.24,265.61,9.34,32.58,18.39,61.68,34.61,88,27.59,44.76,75.55,73.68,122.18,73.68,2.12,0,4.29-.06,6.44-.18,25.16-1.4,50.59-12.71,69.79-31,20-19,30.91-43.12,30.83-67.76,0-13.31-3.08-26.66-6-39.57-3.79-16.63-7.71-33.81-5.13-50.82.44-2.9,1.29-6.45,4-8.2a7.86,7.86,0,0,1,4.44-1.16,25.17,25.17,0,0,1,4.69.58l39.7,7.73,38.83,7.55c7.67,1.5,14.39,3.13,18.93,8.09,7.49,8.19,5,21.26,3.16,30.8-4.91,25.68-5.63,50.74-2.1,72.48,4.18,25.8,14.16,47,29.66,63,19.56,20.19,48.25,31.31,80.8,31.31a151.42,151.42,0,0,0,66.25-15.41c47.6-23.33,82.24-66,112.58-108.66,17.19-24.15,30.61-45,40.25-67.94,14.46-34.48,19.22-71.41,23.54-112.64,12.73-121.61,21.22-261.07-39.61-377a406.67,406.67,0,0,1-87.45,124.07c-12.9,12.43-26.76,28.67-19.41,44.06,6.5,13.63,6.74,30.31.66,45.78s-17.62,27.52-31.66,33.08a50,50,0,0,0-26.18-18.57,97.66,97.66,0,0,1-34.39,84.1c-3.26,2.71-8.21,6.31-13.54,6.31a12.25,12.25,0,0,1-1.7-.12c-7.36-1.07-11.51-8.42-15.53-15.52-4.2-7.44-8.18-14.45-15.47-14.45-.35,0-.7,0-1.07,0-6.51,20.48-13.1,38.31-28,49.16a36.19,36.19,0,0,1-21.21,6.56c-13.24,0-23.8-6.61-26.91-16.84-2-6.46-9.15-13-20.79-13a26.63,26.63,0,0,0-11,2.33c-11.89,5.46-19.63,17.49-25.84,27.16-3.61,5.62-9.34,6.8-13.51,6.8-8.09,0-17.13-4.41-22.49-11-4.22-5.16-7.31-11.24-10.3-17.12-3.34-6.58-6.79-13.37-11.81-18.88a29.13,29.13,0,0,0-20.65-9c-7.14,0-12.6,3.16-15,8.67-2.59,6-8.82,9.53-16.68,9.53a25.48,25.48,0,0,1-16.73-6.17c-9.33-8.45-12.51-21-15.45-35.34q-4.66-22.79-9.34-45.58l-3.38-16.51,0-.27a55.26,55.26,0,0,0-22.07,12.49c-22.89-21.35-30.85-57.84-18.92-86.78l.57-1.37c5.37-13,12.07-29.16,1.13-37-61.56-44.29-95.62-116.34-125.68-179.91l0,0Z" transform="translate(-941.89 -166.71)"/><path class="cls-3" d="M1341.08,974.42h0a88.39,88.39,0,0,0-10.44.61c-32.79,3.89-61.26,28.26-67.71,57.93-6.54,30.09,7.61,59.52,21.3,88l1.23,2.56,1.33,2.76a699.51,699.51,0,0,1,50.37,144c1.32,5.72,2.25,12.78-2.25,16.69a8.47,8.47,0,0,1-5.78,2.14c-4.19,0-9-2.58-13.61-5.08s-9.55-5.15-13.87-5.15a8.77,8.77,0,0,0-5.69,2,85.37,85.37,0,0,1-.74,49.9c-1.4,4.32-5.41,6.79-11,6.79a20.06,20.06,0,0,1-13.28-5.09c-3.51-3.31-6.16-7.46-8.72-11.48s-5.26-8.26-8.84-11.59a20,20,0,0,0-13.14-5c-5.63,0-9.78,2.6-11.12,7-.79,2.56-.46,5.29-.14,7.93a30.76,30.76,0,0,1,.34,5.14c-.44,10-10.87,16.22-20.28,16.22a20.44,20.44,0,0,1-5.83-.83c-12.12-3.65-19.46-15.28-23.48-24.41-1.87-4.23-3.43-8.69-4.94-13l-.08-.22c-2.26-6.45-4.59-13.12-8-19.22-3.68-6.63-7.84-10.6-12.7-12.14a14.38,14.38,0,0,0-4.35-.67c-7.21,0-14.76,5.29-18.35,12.87-4.11,8.63-3.77,18.69-3.47,27.57.39,11.48,1.21,21.59,7.23,29.37a20.19,20.19,0,0,0,15.47,7.45c4.66,0,8.51-1.85,10.85-5.2a7.1,7.1,0,0,1,6-2.93,12.23,12.23,0,0,1,10.13,5.86c2.94,5.24,2.51,11.52,2.1,17.6l-.12,1.67a132.46,132.46,0,0,0,24.48,85.33l.09-.09c8.37-9.12,17.85-19.46,30.38-24a33.17,33.17,0,0,1,11.18-1.92c10.42,0,19.28,4.72,23.12,12.32q7.59,15.06,15.2,30.11c2.55,5,5.72,11.31,11.16,14.72a14.1,14.1,0,0,0,7.38,2.07c4.09,0,7.5-1.78,9.12-4.76,5.26-9.66,16.86-26.5,35.48-30.85a32,32,0,0,1,7.25-.81c12.8,0,27.86,7.7,30.57,22,1.48,7.78,9.66,11.33,16.64,11.33a20.41,20.41,0,0,0,10.15-2.58c9.57-5.51,14.69-16.45,19.2-26.1,4.77-10.19,10.24-20.54,20-25.27a18.82,18.82,0,0,1,8.14-1.77c8.17,0,16.82,4.92,17.18,13.16.25,5.89,6.47,9.53,12.08,9.53a12.41,12.41,0,0,0,3.68-.54c7.21-2.24,11.84-9.18,14.68-14.2a97.79,97.79,0,0,0,11.88-60.3c-1.74-13.69.57-21.14,7.07-22.77a9.51,9.51,0,0,1,2.22-.28c5.3,0,8.91,5.06,12.73,10.41,2.42,3.4,4.93,6.91,8,9.23a14.69,14.69,0,0,0,9.08,3c9,0,18.46-7.07,21.62-16.09,4.14-11.75,1.06-24.2-3.07-38.08-1-3.25-2.36-6.68-5.44-7.45a5.16,5.16,0,0,0-1.25-.15,11.8,11.8,0,0,0-4.92,1.5l-12.51,6-24.07,11.47a138.6,138.6,0,0,1-55.68,47.93c-3.7,1.75-8.57,3.77-13.36,3.77a14.71,14.71,0,0,1-5-.85,11.22,11.22,0,0,1-6.77-8.3,7,7,0,0,1,2.14-6.81,22.8,22.8,0,0,0-14.83-40.16h-.37c-6.21.11-12,2.74-17.62,5.29a85.71,85.71,0,0,1-9.75,3.95,25.2,25.2,0,0,1-7.43,1.1c-6.72,0-15.05-2.73-16.4-10.43-1.13-6.4,3.2-11.35,7.78-16.59,2.71-3.09,5.5-6.28,7.15-9.83,2.25-4.86,1.64-10.65-1.69-15.86-3.94-6.17-10.63-10.15-17-10.15a14.5,14.5,0,0,0-6.77,1.65,7.45,7.45,0,0,1-3.43.86c-2.8,0-5.62-1.69-7.76-4.66-2.75-3.82-3.69-8.81-2.39-12.71,2.17-6.52,7.54-11.23,12.73-15.78,1.62-1.43,3.46-3,5.11-4.65,9.89-9.7,16.11-22.92,21.6-34.58l20.84-44.27,10.85-23.06c8.44-17.92,18-38.22,18.26-59.52.28-23.44-11.15-48.15-31.38-67.79-21.35-20.75-49-32.64-75.76-32.64Z" transform="translate(-941.89 -166.71)"/><path class="cls-4" d="M1801.41,1415.93a29.2,29.2,0,0,0-5.22.46c-9.93,1.81-19.43,8.94-26.75,20.08-11.65,17.71-15.27,39.71-17.27,58.89-.51,5-.82,9.74,1.09,13.94,1.48,3.25,4.12,5.74,6.67,8.14l11,10.38,11.06,10.41c6.61,6.23,14.84,14,25,16a26.89,26.89,0,0,0,5.26.53c13.51,0,27.53-10.74,33.32-25.54,6.12-15.61,4.44-32.93,2.2-49.34-2-15-4.73-30.75-13-43.71-7.88-12.33-21-20.29-33.33-20.29Z" transform="translate(-941.89 -166.71)"/><path class="cls-4" d="M1373.71,583.43h0a123.63,123.63,0,0,0-27.59,3.11c-2.62.6-5.34,1.34-7.27,3.24-4.79,4.71-1.67,12.92.61,17.39a155,155,0,0,0,20.78,30.9c1.61,1.86,3.38,3.71,5.71,4.26a5.85,5.85,0,0,0,1.44.17c4.94,0,8.43-5.92,10.07-9.45a317.57,317.57,0,0,0,13.07-32.74c1.12-3.3,2.11-6.79.93-9.94-2-5.45-9.06-6.76-14.61-6.91-1,0-2.09,0-3.13,0Z" transform="translate(-941.89 -166.71)"/><path class="cls-4" d="M1386.32,1247.23a4.59,4.59,0,0,0-3.72,1.7,5.13,5.13,0,0,0,3.24,7.8,3,3,0,0,0,.51,0,5,5,0,0,0,4-2.35,4.66,4.66,0,0,0,.59-4.39,5,5,0,0,0-4.65-2.8Z" transform="translate(-941.89 -166.71)"/><path class="cls-4" d="M1489.39,1336.87c-5.07,0-13.82,1.08-15.43,8.28l-2.46,11a43.63,43.63,0,0,0,24.37-18.76,40.06,40.06,0,0,0-6.48-.53Z" transform="translate(-941.89 -166.71)"/><path class="cls-4" d="M1410.83,1309.79a6.12,6.12,0,0,0-3,.74,4.38,4.38,0,0,0-1.84,4.57,2.44,2.44,0,0,0,2.17,2.14l0,.13a5.53,5.53,0,0,0,2,.34,7.38,7.38,0,0,0,5.87-2.92,3.9,3.9,0,0,0,.51-3.74,17.13,17.13,0,0,0-5.58-1.26Z" transform="translate(-941.89 -166.71)"/><path class="cls-4" d="M1318.36,1252.84h0l-.56,1.38a4.56,4.56,0,0,0-3.49,2.66,7.43,7.43,0,0,0,.07,6.66c1.82,3.3,5.41,5.1,9.24,6.8a18.68,18.68,0,0,0-5.25-17.49Z" transform="translate(-941.89 -166.71)"/><path class="cls-4" d="M1276.72,1296.19a4.91,4.91,0,0,0-4.49,2.4c-1.76,3.1.18,7,2.12,9.64a55.3,55.3,0,0,0,5.7,6.69,3.27,3.27,0,0,0,2.26.79c.87,0,1.55-.26,1.72-.65.1-.24,0-.52-.28-.8,1.23-5,2.15-9.82,0-13.93a8.3,8.3,0,0,0-7.06-4.14Z" transform="translate(-941.89 -166.71)"/><path class="cls-4" d="M1184.8,1293h0a39.92,39.92,0,0,0,20.94,22.68,9.52,9.52,0,0,0,3.74,1,5.29,5.29,0,0,0,4.77-3.25,8.82,8.82,0,0,0-.7-8.86c-3.26-4.19-9.06-5.32-14.24-6-4.84-.68-10.87-1.53-14.48-5.55Z" transform="translate(-941.89 -166.71)"/><path class="cls-4" d="M1869.46,788.37q-.68,2.36-1.34,4.71c-.32,1.13-.64,2.27-1,3.4-.13.47-.25.93-.37,1.4-.2.73-.39,1.45-.59,2.17-.27,1-.51,2.07-.76,3.11-.29,1.19-.56,2.39-.8,3.59-.15.72-.29,1.44-.43,2.16-.17.87-.31,1.73-.47,2.59a.42.42,0,0,0,0,.31.41.41,0,0,0,.24.19.4.4,0,0,0,.49-.29c.13-.7.25-1.41.38-2.11.1-.52.19-1,.3-1.55l.36-1.79c.12-.59.27-1.18.4-1.76.25-1.11.52-2.22.79-3.32s.54-2.06.82-3.09c.13-.49.25-1,.39-1.47l.6-2.09q.84-3,1.69-5.95a.4.4,0,0,0-.28-.49l-.11,0a.4.4,0,0,0-.38.3Z" transform="translate(-941.89 -166.71)"/><path class="cls-2" d="M1554.37,181c-22,0-45.46,11.82-61.27,30.86-6.32,7.6-15.86,19.09-25.87,19.09a13.66,13.66,0,0,1-5.67-1.25,305.8,305.8,0,0,0-125.83-26.93,301.1,301.1,0,0,0-113.57,21.82,9.9,9.9,0,0,1-3.67.71c-6.43,0-12.61-6.34-17.12-11a84.37,84.37,0,0,0-59.28-24.81,71.09,71.09,0,0,0-32.08,7.34c-30.27,15.12-45.62,54.4-32.86,84.07,3.7,8.64,9.37,16.28,14.85,23.67l.15.19a176,176,0,0,1,11.2,16.43C1118,346.78,1120,380.66,1109.43,422c-3.22,12.51-7.22,24.86-11.09,36.8l0,.16-.06.16,0,.11,0,.1c-6.56,20.19-13.32,41-16.39,62.37-9.53,66.73,18.53,139.05,73.24,188.74,48.81,44.32,117.22,70.81,192.63,74.58,5.88.28,11.42.42,16.48.42,22.22,0,41.44-2.53,58.75-7.75,33.17-10,61.18-30.06,91.74-53.32,20.11-15.31,40.23-31,59.82-46.55,15.13-12,34-27,46.37-46,17-26.06,23.44-61.2,19.71-107.41A433.24,433.24,0,0,0,1594,361.88c-13.17-25.53-29.57-57.3-13.86-82.05,3.06-4.81,7.15-8.87,11.1-12.79s7.69-7.67,10.63-12.05c7-10.38,8.33-24.08,3.64-37.57-5.54-16-18.23-28.85-33.13-33.62a58.91,58.91,0,0,0-18-2.77ZM1364.9,663.24h-.29c-8-.17-14-7.16-19.24-14.69L1345,648l-11-15.78c-6.81-9.82-14.51-20.94-16.17-33.63-2-15.3,6.76-27.35,16.39-30.15l.21-.06a26.31,26.31,0,0,1,6.44-.85h1.1c1.65,0,3.35.08,4.94.16l.21,0,18.37,1,18.74,1c8.37.43,17.74,1.44,22.88,7.88,4.6,5.74,4.83,14.35.71,26.31a175.76,175.76,0,0,1-24.37,46.47c-4.06,5.54-10.4,12.89-18.61,12.89Z" transform="translate(-941.89 -166.71)"/></svg>