<?xml version="1.0" encoding="utf-8"?>
<!-- Generator: Adobe Illustrator 22.0.1, SVG Export Plug-In . SVG Version: 6.00 Build 0)  -->
<svg version="1.1" xmlns="http://www.w3.org/2000/svg" xmlns:xlink="http://www.w3.org/1999/xlink" x="0px" y="0px"
	 viewBox="0 0 2048 2732" style="enable-background:new 0 0 2048 2732;" xml:space="preserve">
<style type="text/css">
	.st0{display:none;}
	.st1{fill:#2C2C2C;}
	.st2{fill:#BEBEBE;}
	.st3{fill:#6EDAF4;}
	.st4{fill:#725AF7;}
	.st5{display:inline;fill:#161616;}
</style>
<g id="Background" class="st0">
	
		<image style="display:inline;overflow:visible;" width="1" height="1" id="Background_1_" xlink:href="FEA3CACA.jpg"  transform="matrix(-1.194195e-04 2732 -2048 -8.952092e-05 2048 0)">
	</image>
</g>
<g id="Draw_Layer">
	<path class="st1" d="M1685.3,1864.2c-2.6-37.3-10.9-77.2-38.4-102.5s-79.5-25.5-96.8,7.6c-1.1-90.7-17.8-181.2-49.2-266.4
		c-13.1-35.6-28.9-70.5-35.4-107.8c-6.2-35.2-4-71.3-5.3-107.1c-5.1-144.5-70.2-285.9-176.5-383.8c56.3-43.2,78.4-120.3,71.4-190.9
		c-7-70.6-38.7-136.2-73.3-198.2c-13.3-23.9-25.6-57.7-4.4-74.9c37.1-30,10-98.1-36.3-109.8c-46.3-11.6-93.9,16.7-125.7,52.4
		c-94.3-28.3-198.1-23.9-289.6,12.3c-34-41.5-103.9-46.4-143.4-10.1c-39.5,36.3-40.4,106.4-1.9,143.8c21,20.4,25.1,53.1,20,82
		s-17.8,55.7-25.7,83.9c-13.6,48.1-12.9,100.1,1.9,147.9c9.9,32,25.6,68.3,7.7,96.6c-88.3,140.3-113.5,310-136.8,474.1
		c-6.2,43.5-12.3,87-15.5,130.8c-12.8,179.7,25.8,359.2,75.4,532.4c28.6,99.8,73.9,212.1,173.1,242.4
		c64.8,19.8,140.9-6.2,180.1-61.5c39.2-55.3,38.4-135.8-1.9-190.3c38.5,4.6,76.9,9.3,115.4,13.9c-5.6,64.3-9.8,134.6,27.3,187.4
		c40.3,57.4,121.4,76,188.8,56.6c67.4-19.4,121.8-70.3,161.9-127.8c57.6-82.5,90.8-181.8,94.3-282.3c27.5,28.6,66.3,59.7,102.5,43.4
		c28.5-12.8,36.8-47.6,36.8-80.1C1685.8,1873.6,1685.6,1868.8,1685.3,1864.2L1685.3,1864.2L1685.3,1864.2z M1545.7,1870.7
		c0.1-7.8,0.3-15.6,0.4-23.4c0.2-12,1.1-25.6,10.4-33.2c4-3.3,3.7-9.4,4.1-14.6c1.1-15.4,12.4-29.5,27.1-34.1
		c19.9-6.2,42,4.9,54.5,21.5c12.6,16.6,17.5,37.7,21.2,58.2c3.9,21.2,6.7,43.7-1.3,63.6c-8,19.9-30.7,35.6-51,28.5
		c-7.7-2.7-14.1-8.2-20.2-13.5c-13.4-11.6-26.8-23.3-40.2-34.9c-4.4-3.8-5.1-10.2-5.1-16.2
		C1545.7,1871.9,1545.7,1871.3,1545.7,1870.7L1545.7,1870.7L1545.7,1870.7z M1168.3,1741.7c4.1,0.2,8-2.1,11.1-3.9
		c12.8-7.5,25.2-15.6,34.8-25.1c7.6-7.6,13.6-16.1,16.4-26c0.8-3,1.4-6.1,1.6-9.3c47.7-14.9,93.3-48,131.8-95.8
		c30.7-38.1,54.3-81.3,77-126.2c2.6-5.1,5.2-10.3,7.7-15.4l0,0c0,0,0,0,0,0c6.7,11.7,13,23.7,18.9,36.1
		c12.8,26.9,23.2,54.8,31.7,83.4c4.7,15.8,8.8,32.1,12.4,48.7c3.9,18,7.1,36.6,9.7,55.7c0,0,0,0.1,0,0.1c0,0.1,0,0.3,0.1,0.4
		c2.4,17.8,4.2,35.7,5.5,53.7c1.7,23,2.5,46.7,2.5,71c0,21.3-0.6,43.3-1.9,65.6c-0.3,4.7-0.6,9.4-0.9,14.1c0,0,0,0,0,0c0,0,0,0,0,0
		c-25.5-27.4-60.5-46.3-101.1-54.6c-38-7.8-79.6-5.7-117.3,5.8c-35.4,10.8-70,29.4-102.7,55.3c-28.9,22.8-56.5,51.4-82.1,85
		c-17.5,23-38.5,53.9-44.6,88.7c-5.1,2-10.4,3.5-15.8,4.5c-11.5,2.2-23.4,2.3-35,0.4c-9.3-1.4-18.5-4.1-27.4-8
		c-8.9-3.9-17.2-8.8-24.6-14.7c-0.1-0.1-0.1-0.1-0.2-0.2c0,0,0,0-0.1-0.1c-9.2-7.3-17.3-16.1-23.4-26c-2.8-4.5-5.2-9.2-7.2-14.1
		c-26.9-66.8-90-118.6-160.8-131.8c-67.9-12.7-141.9,10.1-191.3,58.4c-2.1,2.1-4.2,4.2-6.3,6.4l0,0c0,0,0,0,0,0
		c-28.1-98-42.4-199.8-42.4-302.6c0-62.3,5.3-124.7,15.8-185.6c3.6-21,11.1-49.9,34.4-57.6c38.3,99.4,108.2,186.8,196.8,245.9
		c13,8.7,19.3,23.9,25.4,38.6l0.6,1.4l0.8,2c6.1,14.5,15.2,31.9,31.6,37.4c7.2,2.4,15.9,0.7,22.9-4.3c5.8-4.2,9.1-9.8,9.1-15.4
		c0-2-0.4-4-1.2-5.9c-0.6-1.4-0.9-2.9-0.9-4.4c0-4.2,2.4-8.3,6.7-11.5c5.2-3.8,11.7-5.2,17.1-3.5c11.6,3.6,18.8,15,24.8,26.8
		c2.9,5.8,8.9,8.9,16.4,8.5c2.3-0.1,4.6-0.6,6.8-1.3c2.1-0.7,4.2-1.6,6.2-2.8c5-3,9-7.3,10.9-12.3c1.6-4.2,2.4-8.8,2.4-13.8
		c0-12.1-4.8-24.5-9.8-36.3c4.8-7.5,13.2-3.5,22.2,0.7c7.9,3.7,16.2,7.6,23.2,4.7c5.3-2.2,8.2-7.5,8.2-15.3c0-4.8-1.1-10.5-3-16.1
		c-14.5-42.5-29.5-86.4-49.4-127.4c-4.8-10-10-19.9-15-29.6l-0.1-0.1c-8.6-16.6-17.6-33.9-24.9-51.5c-3.7-9-7.1-18.3-10-27.7
		c-6.8-22-11.4-44.7-13.6-67.7c0,0,0-0.1,0-0.1c0,0,0-0.1,0-0.1c-1-10.5-1.5-21-1.5-31.5c0-25.3,2.9-50.5,8.5-74.7
		c1.8-7.6,4.2-16.3,9.8-22.6c6.5-7.1,16.2-10.2,25.8-12.4c16.3-3.8,32.7-6,49.2-6.9c0,0,0.1,0,0.1,0c0.2,0,0.4,0,0.6,0
		c0.1,0,0.3,0,0.4,0c0.1,0,0.2,0,0.3,0c0.2,0,0.5,0,0.7,0c0,0,0,0,0,0c6.9-0.3,13.8-0.4,20.7-0.3c0,0,0.1,0,0.1,0c0,0,0,0,0,0
		c53.2,0.7,106.1,13.1,153.8,25.6c8.4,2.2,16.3,4.7,20.9,11.1c2.6,3.6,3.9,8.2,3.9,13.9c0,4.4-0.7,8.8-1.5,13
		c-16.7,89.7-46,176.5-87,257.9c-0.8,1.5-1.5,3-2.3,4.5c-10.5,20.8-21.4,42.3-22.6,65.6c-0.2,3.5-1.2,6.7-2.8,9.7
		c0,0-0.1,0.1-0.1,0.1c0,0,0,0,0,0c-1.1,2-2.5,4-4.1,5.8c-3.5,4.1-7.9,7.7-11.9,10.7l-0.8,0.6c-8.9,6.6-18.2,13.5-20.9,24
		c-0.3,1.2-0.4,2.4-0.4,3.7c0,5.9,3.4,12.2,8.2,15.3c3.3,2.1,6.9,2.5,10.2,1c2.2-1,4.6-1.6,7-1.9c7.8-0.8,16.1,2.2,21.5,7.9
		c1.7,1.7,3.1,3.7,4.2,6c1.5,3.1,2.2,6.4,2.2,10c0,9.7-5.4,18.9-13.5,23c-3.7,1.9-5.8,5.4-5.8,9.8c0,7.9,6.8,17.9,15.9,19.5
		c10.3,1.8,20.4-2.5,30.2-6.6l0.2-0.1c2.9-1.2,5.8-2.5,8.7-3.5c8.5-3.1,18.3-3.9,25.9-1.3c2.4,0.8,4.5,2,6.4,3.5c0,0,0,0,0,0
		c0,0,0,0,0,0c1.8,1.5,3.2,3.3,4.3,5.5c1.4,2.5,2.1,5.2,2.1,8.3c0,6-2.5,12.3-5,18.4l-0.1,0.3c-0.6,1.6-1.3,3.3-1.9,4.9
		c-1.1,3-1.7,6.6-1.7,10.1C1157,1732.3,1160,1741.3,1168.3,1741.7L1168.3,1741.7L1168.3,1741.7z M1091.8,2122
		c0.5-29.9,2.5-63.9,21.2-89.6c41.7-57.5,91.6-108.3,148.4-150.9c15.3-11.5,28.6-20.4,43.6-26c11.6-4.4,24.6-7,40.9-8.3
		c28.3-2.2,56.8,0.6,84.7,8.2c27.9,7.6,53.9,19.7,77.1,35.9c7.3,5.1,14.5,10.8,17.9,18.9c1.7,4.1,2.6,8.9,2.6,15.1
		c0,2.4-0.1,5-0.2,7.1c-3,51.7-14.7,102.6-34.9,151.2c-20.2,48.7-47.9,92.9-82.4,131.6c-16.2,18.1-31.9,32.9-48.2,45.2
		c-25.9,19.7-54.8,34.4-86,43.7c-24.6,7.4-45.5,9.5-63,8.7c-17.5-0.8-34.7-4.6-50.2-12.5c-2.1-1.1-4.1-2.2-5.8-3.2
		c-25.8-15.4-45.7-43-56-77.8c-8.7-29.4-9.9-60.5-9.9-84.2C1091.7,2131.2,1091.7,2127.1,1091.8,2122L1091.8,2122L1091.8,2122z
		 M1243.9,934.7c5.4-4.5,10.9-8.6,17.2-8.6c5.9-0.1,11.3,3.5,15.9,6.8c14.8,10.8,28.3,22.9,40.4,36c9.9,10.7,19.1,22,27.5,34
		c44,62.2,67.9,138.1,84.4,203.2c7.4,29.3,14.6,60.8,16.9,92.5c0.5,7.2,0.8,14.5,0.8,21.8v0c0,96.3-45,196.6-123.6,275.1
		c-28.1,28.1-53.3,46-79.3,56.4c-33.2,13.2-67.9,13.1-95.2-0.3c-29.4-14.5-49.8-44.9-51.9-77.6c-0.1-2.1-0.2-4.3-0.2-6.4
		c0-25.1,9.5-49.9,17.9-71.8l28.9-75.1l29.1-75.6c9.9-25.8,20.2-52.5,27-79.8c6.5-26.2,9.8-53.4,9.8-81c0-9.4-0.4-18.8-1.1-28.1
		c-3.8-47.4-17.4-94.1-40.1-136c-2.9-5.3-5.9-10.5-9-15.6C1187.5,981.4,1215.7,958.1,1243.9,934.7L1243.9,934.7L1243.9,934.7z
		 M717.4,534.3l14-16.6l14-16.7c19-22.6,39.7-47.2,64-67.4c0.1,0,0.1-0.1,0.2-0.1c0,0,0.1-0.1,0.1-0.1c4.9-4.1,9.9-8,15.1-11.6
		c8.6-6.1,17.6-11.5,27.1-16.1c34.5-16.7,73-21.1,106.2-23.3c40.5-2.6,71-1.3,99,4.3c49,9.8,93.5,33.9,136.5,57.2
		c42.5,23,67,68.4,86.6,109.1c9.7,20.2,19.6,41.8,28.4,64.5c11.5,29.4,20.8,59.6,26,90.5c1.6,9.6,2.9,19.3,3.6,29.1
		c0.5,6.9,0.8,13.2,0.8,19.3c0,14.4-1.5,27.1-4.5,38.8c-7.3,28.2-23.4,51.7-44.4,74c-10.1,10.8-21.2,21-32.3,30.8
		c-4.7,4.1-9.5,8.3-14.4,12.5c-40.9,34.9-89,76.1-144.5,99.3c-9,3.8-18.2,7.1-27.6,9.8c-11.9,3.5-24.2,6-36.7,7.4
		c-12.9,1.4-27,1.8-44.4,1.1c-59.4-2.4-145.1-17-215.5-72.6c-28.4-22.4-52.3-51-69-82.7c-5.7-10.8-10.5-21.8-14.4-33.1
		c-4.4-12.7-7.7-25.8-9.8-39c-1.6-10.3-2.4-20.7-2.4-30.9c0-5,0.2-10.1,0.6-15c2.2-28.5,10.6-56.9,18.6-84.4
		c9.2-31.4,18.8-64,18.8-95.9c0-11.4-1.2-22.1-3.6-32.5c-0.1-0.5-0.2-0.9-0.2-1.4C713.3,539.6,715.3,536.8,717.4,534.3L717.4,534.3
		L717.4,534.3z M1142.3,381.6c2.9-8.3,10.5-14.2,15.9-17.9c5.4-3.7,11-6.8,16.8-9.4c0,0,0.1,0,0.1-0.1c0,0,0.1,0,0.1,0
		c7.1-3.2,14.5-5.6,22.1-7c5.3-1,10.7-1.6,15.9-1.6c20.5-0.2,40,7.3,53.7,20.5c9,8.7,14.2,19.3,14.2,29.2c0,1.9-0.2,3.8-0.6,5.7
		c-1.7,7.9-6.8,14.7-11.3,20.6l-6.7,8.9l-11.8,15.7c-2.1,2.8-5.5,5.9-8.8,6.3c-1.4,0.1-2.6-0.2-3.7-1.1
		c-25.8-22.3-57.7-35.7-88.5-48.7c-5.2-2.2-8.5-7.9-8.5-14.7C1141.2,385.6,1141.6,383.5,1142.3,381.6L1142.3,381.6L1142.3,381.6z
		 M1187.8,1691.6c5.1-7.4,15.7-10.5,24.1-6.9c-2.8,4-5.6,7.9-8.5,11.9l0.2,0.2c-4.8,3.9-9.7,7.7-14.5,11.6c-2.7-1.8-3.9-4.9-3.9-8.2
		C1185.1,1697.2,1186.1,1694.1,1187.8,1691.6L1187.8,1691.6L1187.8,1691.6z M936.4,1066.3c0.7-1.5,1.9-4,3.6-6.6
		c0.8-1.3,1.7-2.6,2.6-3.8c4.6-6.1,11.3-11.7,19.4-9.4c56.7,16.2,116.2-5.2,177.2-30.5c10.8,15.7,20.3,32.2,28.5,49.5
		c6.6,13.7,12.3,27.9,17.2,42.3c6.3,18.9,11.2,38.3,14.4,57.8l0,0c-9.8-11.8-25.7-16.5-39.7-20c-74.3-18.5-153-22.3-228.8-11.1
		c-6.5,1-13,2.1-19.5,3.2c0,0,0,0,0,0c0,0,0,0,0,0C917.3,1113.3,925.8,1089.2,936.4,1066.3L936.4,1066.3L936.4,1066.3z
		 M1103.1,1656.1c3.2-1.7,7.3,0,9.9,2.5c0.4,4.2-5.3,6.2-9.4,5.2c0,0.2,0,0.4-0.1,0.6c-1.9-0.3-2.8-2-2.8-3.9
		C1100.8,1658.7,1101.5,1656.9,1103.1,1656.1L1103.1,1656.1L1103.1,1656.1z M1070,1578.4c4-1.5,8.9,2,8.9,6.3l-1.2,0.6
		c-0.5,4.2-6.6,6.4-9.8,3.6c-1.2-1.1-1.8-2.7-1.8-4.3C1066.1,1582,1067.5,1579.3,1070,1578.4L1070,1578.4L1070,1578.4z M986.2,1591
		l1.8-1.3c5.9,4.2,9.1,11.9,7.9,19.1c-6.2-0.4-11-6.7-11-12.8C984.9,1594.3,985.3,1592.6,986.2,1591L986.2,1591L986.2,1591z
		 M887.5,1322.5c3.9,33,11.4,65.2,23.7,95.8c4.1,10.2,8.7,20,13.7,29.5c4.4,8.2,9.2,16.3,13.8,24.2c7.8,13.1,15.8,26.7,21.9,40.9
		c6.9,16.2,10.5,31.8,10.5,46.4c0,9.3-1.5,18-4.4,26c-6.3,17.3-19.4,31.4-38,40.8c-17.3,8.8-37.5,12.5-57,10.4
		c-10.6-1.1-24.7-3.8-42.9-12c-17.3-7.7-33.6-18.4-48.8-30.1c-3.6-2.7-7.3-5.6-11-8.7c-75.2-61.8-133.1-142.5-167.5-233.6
		c-7.8-20.7-16.9-48.3-18.1-77.3c-0.1-2.2-0.1-4.4-0.1-6.5c0-25.5,5.7-50.7,11.9-74.2c23.7-89.6,60-175.1,107.8-254.3
		c4-6.6,8.1-13.2,12.3-19.8c0,0,0,0,0,0c0,0,0,0,0,0c44.5,62.2,114.2,105.5,189.5,118.7c7,1.2,14.1,2.2,21.1,2.9c0,0,0,0,0,0
		c0,0,0,0,0,0c-13.3,20.3-21.1,43.4-26.3,66.5c-0.7,3.3-1.4,6.6-2.1,9.9c-2.2,11.2-3.8,22.2-5.3,32.8c-5.6,40.6-8.3,76.6-8.3,110
		C884.1,1282.5,885.2,1303,887.5,1322.5L887.5,1322.5L887.5,1322.5z M605.8,1961.8c24.4-30.4,58.3-53.3,95.7-64.5
		c6-1.8,12.1-3.3,18.2-4.5c3.6-0.7,7.3-1.3,11-1.6c31.5-3.4,63.7,4.5,91.9,19.8c8.7,4.7,17.1,10.1,25.1,16.3
		c6.6,5.1,13.1,10.7,19.3,16.8c19.4,19,35.5,41.3,48.9,65.2c4.6,8.3,9.1,16.9,13.4,26c22.2,47.2,34.1,93.8,35.6,138.3
		c0.1,2.6,0.1,5.1,0.1,7.4c0,29.6-6.1,52.2-18.6,69.2c-15,20.4-39.2,32-60.8,40.7c-16,6.4-35,13.2-55.3,15c-7,0.6-14.2,0.6-21.3,0
		c-11.3-1-22.4-3.4-33.2-7.2c-0.1,0-0.1,0-0.2-0.1c-0.1,0-0.2-0.1-0.2-0.1c-8.4-3-16.8-6.7-25-11.3c-23.9-13.4-45.6-32.9-62.7-56.5
		c-33.4-46-49.5-101.2-65.1-154.6l-18-61.6l-10.6-36.4C597.6,1972.4,601.6,1967,605.8,1961.8L605.8,1961.8L605.8,1961.8z
		 M942.5,1645.3c4.4,0.7,7.4,5.2,7.8,9.7c0.4,4.4-1.3,8.8-2.9,13c-3.9-1.8-7.4-4.7-9.9-8.2l0.2-0.5c-2.1-1.2-3-3.3-3-5.6
		C934.8,1649.3,938,1644.6,942.5,1645.3L942.5,1645.3L942.5,1645.3z M850.1,1652.7c4.2,1.1,8.6,2.3,11.8,5.2
		c3.2,2.9,4.9,8.1,2.5,11.7c-4,6.1-13.5,2.4-19.5-1.8c-7.7-5.4-16.1-11.8-17.4-21.1C835.1,1648.8,842.6,1650.8,850.1,1652.7
		L850.1,1652.7L850.1,1652.7z M668.9,425c11.4-22.5,35.5-36,59.8-42.8c21.5-6,46.2-7.1,64.7,5.3c6.5,4.4,12.4,11.7,10.8,19.4
		c-0.8,3.8-3.3,7-5.6,10c-20.9,26.5-41.9,53-62.8,79.4c-9,11.3-18.1,22.8-30,31.1c1.3-7.4-2.7-15.4-9.4-18.7
		c-21-10.5-33.7-34.1-33.7-57.4C662.8,442.2,664.8,433.2,668.9,425L668.9,425L668.9,425z"/>
	<path class="st1" d="M1209.1,642.4c-14.4-23.2-38.1-39.5-59-54c-12.6-8.7-25.7-17.7-40.8-22.1c-27.9-8.1-60.8,2.9-78.2,26.1
		c-9.2,12.2-14.2,27.7-14.2,43.8c0,14,3.7,27.3,10.8,38.5c11.2,17.7,31,31.5,55.9,38.9c22.4,6.6,46,7.8,68.9,8.9
		c6,0.3,12.2,0.6,18.2-0.8c12.5-2.9,22.3-12.8,30.2-20.7c6-6.1,12.9-13,15.7-21.8c1-3,1.5-6.2,1.5-9.6
		C1218,659.1,1213.2,649,1209.1,642.4L1209.1,642.4L1209.1,642.4z M1035.4,631.2c0.2-16.4,10.6-33,26.9-43.3
		c5.8-3.7,11.1-5.7,16.1-6.2c7.4-0.7,14.7,1.9,20.9,4.4c34.6,13.9,66.1,35.9,91.2,63.5c4.3,4.8,9.1,10.5,10.3,17.3
		c0.2,1.1,0.3,2.3,0.3,3.4c0,9.8-7.6,19.8-18.4,24.2c-11.2,4.6-23.9,3.8-35.2,3.1c-17.9-1.1-35.8-2.2-53.7-3.3
		c-4.9-0.3-9.7-1.3-14.3-2.8c-19.5-6.5-35.7-23.2-41.7-42.9c-1.7-5.4-2.5-11-2.5-16.6C1035.4,631.8,1035.4,631.5,1035.4,631.2
		L1035.4,631.2L1035.4,631.2z"/>
	<path class="st1" d="M1065.9,791.1c-1.2-1.8-2.7-3.4-4.4-4.6c-2.6-1.9-5.6-3.2-8.9-4c-5.3-1.3-11.3-1.6-17.3-1.6
		c-13.3,0.1-26.6,0.2-39.9,0.2l-0.3,0l-0.6,0c-10.8,0.1-23,0.8-29.9,8.9c-3.7,4.3-5.6,10.5-5.6,18c0,0.3,0,0.6,0,1
		c0.5,23.3,15.9,42.9,33,62.6c12.3,14.2,22.9,19.4,32.3,16c5.7-2.1,9.7-7.2,13-11.9c12.4-17.5,22.1-36.7,28.7-57.1
		c2.1-6.3,3-11.3,3-15.8C1069.1,798.2,1068,794.3,1065.9,791.1L1065.9,791.1L1065.9,791.1z M980.3,812.5c0.9-5,5.9-8.4,14.7-10.2
		c10.9-2.1,22-3.5,33.1-4.1c9.1-0.4,14.6,1.5,17,6c0.8,1.4,1.1,3,1.1,4.8c0,3.2-1.2,6.5-2.2,9.4c-4.5,11.9-8.9,23.9-13.4,35.8
		c-2.8,7.6-6.3,11.2-10.7,11.1c-3-0.1-5.6-2.2-7.7-4.1c-12.2-11-22.5-24.7-29.7-39.5c-1.1-2.3-2.3-5-2.3-7.8
		C980.2,813.5,980.2,813,980.3,812.5L980.3,812.5L980.3,812.5z"/>
	<path class="st1" d="M928.4,565.5c-14.6-9.7-34.9-11.9-54.4-5.8c-6.3,1.9-12.1,4.6-17.5,7.6c-6.1,3.4-11.8,7.6-17.1,12.2
		c-8.8,7.7-15.8,16.1-21.1,23.4c-14.1,19.7-23.5,42.4-31.9,64c-3.9,10.1-7.9,20.6-11.8,31.3c-4.5,12.3-6.8,23.1-6.8,32
		c0,10.9,3.4,19.2,10.1,24.9c14.3,12,36.2,5.1,52.1-2.9c24.7-12.4,48-27.6,69.4-45.1c27.4-22.4,43.4-43.4,50.5-65.9
		c2.3-7.4,3.5-15.1,3.5-23.1C953.5,595.5,944.1,575.9,928.4,565.5L928.4,565.5L928.4,565.5z M789.7,726l3.6-12.7l3.7-12.9
		c8-28.1,16.2-57.2,33.2-81.8c18.9-27.4,46.3-43.7,73.4-43.4c5.6,0.1,9.8,0.9,13.4,2.5c5.1,2.4,9.6,7.1,13,13.6
		c3.8,7.3,5.7,15.5,5.7,24.4c0,11.3-3.2,23.5-9,34.3c-9.7,18.1-25.4,32.4-40.9,45.1c-23.3,19.2-51.7,39.2-84.6,42.6
		c-3.5,0.4-9.7,0.3-11.7-4c-0.4-0.8-0.6-1.7-0.6-2.8C788.8,729.3,789.3,727.6,789.7,726L789.7,726L789.7,726z"/>
	<path class="st2" d="M1529.5,1789.2c0-65.1-6-126-17.8-180.9c-13.3-62.1-34.5-118.7-62.9-168.2c-25.1,50.4-50.5,99.2-84.8,141.6
		c-38.6,47.8-84.1,81-131.8,95.8c-1.8,26.9-26.4,44.9-52.8,60.3c-3.1,1.8-7,4.1-11.1,3.9c-8.4-0.4-11.3-9.3-11.3-16.9
		c0-3.5,0.6-7.1,1.7-10.1c0.6-1.6,1.3-3.3,1.9-4.9l0.1-0.3c2.5-6.1,5-12.4,5-18.4c0-3.1-0.7-5.8-2.1-8.3
		c-5.8-11.7-22.8-12.8-36.6-7.7c-2.9,1.1-5.9,2.3-8.7,3.5l-0.2,0.1c-9.8,4.1-19.9,8.4-30.2,6.6c-9.1-1.6-15.9-11.6-15.9-19.5
		c0-4.4,2.1-7.9,5.8-9.8c8.1-4,13.5-13.3,13.5-23c0-3.6-0.7-6.9-2.2-10c-5.5-11.5-21.1-17.2-32.8-12c-3.3,1.5-6.9,1.1-10.2-1
		c-4.8-3.1-8.2-9.4-8.2-15.3c0-1.3,0.2-2.5,0.4-3.7c2.7-10.5,11.9-17.4,20.9-24l0.8-0.6c8.5-6.3,18.4-15,18.9-26.3
		c1.1-23.3,12-44.8,22.6-65.6c0.8-1.5,1.5-3,2.3-4.5c41-81.5,70.3-168.2,87-257.9c0.8-4.1,1.5-8.6,1.5-13c0-5.8-1.3-10.3-3.9-13.9
		c-4.6-6.4-12.5-8.9-20.9-11.1c-69.4-18.2-149.8-36.1-226.2-18.3c-9.5,2.2-19.3,5.3-25.8,12.4c-5.7,6.2-8,14.9-9.8,22.6
		c-5.7,24.3-8.5,49.4-8.5,74.7c0,43.5,8.7,87.5,25.1,127.1c7.3,17.6,16.2,34.8,24.9,51.5l0.1,0.1c5,9.7,10.2,19.7,15,29.6
		c19.8,41.1,34.8,85,49.4,127.4c1.9,5.6,3,11.4,3,16.1c0,7.8-2.8,13.1-8.2,15.3c-7.1,2.9-15.3-0.9-23.2-4.7
		c-9-4.2-17.4-8.2-22.2-0.7c4.9,11.7,9.8,24.1,9.8,36.3c0,4.9-0.8,9.5-2.4,13.8c-3.4,8.9-13.5,15.8-24,16.4
		c-7.4,0.4-13.4-2.7-16.3-8.5c-6-11.8-13.2-23.2-24.8-26.8c-5.4-1.7-12-0.3-17.1,3.5c-4.2,3.1-6.7,7.3-6.7,11.5c0,1.5,0.3,3,0.9,4.4
		c0.8,1.9,1.2,3.9,1.2,5.9c0,5.6-3.3,11.3-9.1,15.4c-7,5-15.8,6.7-22.9,4.3c-16.4-5.4-25.5-22.8-31.6-37.4l-0.8-2l-0.6-1.4
		c-6.1-14.7-12.4-29.9-25.4-38.6c-88.6-59.1-158.5-146.4-196.8-245.9c-23.2,7.7-30.7,36.6-34.4,57.6
		c-10.5,60.9-15.8,123.3-15.8,185.6c0,102.8,14.3,204.6,42.4,302.6c49.2-52.6,126.8-78,197.6-64.8c70.8,13.2,133.9,65,160.8,131.8
		c9.6,23.8,29.8,43.9,55.5,55c25.7,11.2,54.2,12.3,78.1,3.1c6.2-34.8,27.1-65.7,44.6-88.7c25.6-33.6,53.2-62.1,82.1-85
		c32.7-25.9,67.3-44.5,102.7-55.3c37.7-11.5,79.3-13.6,117.3-5.8c40.6,8.3,75.6,27.2,101.1,54.6
		C1528.6,1841.7,1529.5,1814.9,1529.5,1789.2L1529.5,1789.2L1529.5,1789.2z"/>
	<path class="st2" d="M1339.1,756.3c0-6.1-0.3-12.4-0.8-19.3c-5.2-66.6-32.3-130.4-58.1-184.1c-19.6-40.7-44.1-86.1-86.6-109.1
		c-43-23.3-87.5-47.4-136.5-57.2c-28-5.6-58.5-6.9-99-4.3c-33.1,2.1-71.7,6.5-106.2,23.3c-44,21.3-77.2,60.7-106.4,95.4l-14,16.7
		l-14,16.6c-2.1,2.5-4.1,5.3-4.1,8.2c0,0.5,0.1,0.9,0.2,1.4c2.4,10.4,3.6,21,3.6,32.5c0,31.9-9.5,64.5-18.8,95.9
		c-8.1,27.5-16.4,56-18.6,84.4c-0.4,5-0.6,10-0.6,15c0,34.4,9.2,70,26.6,103c16.7,31.7,40.6,60.3,69,82.7
		c70.5,55.6,156.1,70.2,215.5,72.6c17.3,0.7,31.4,0.4,44.4-1.1c83.3-9.3,152.9-68.8,208.8-116.5c42.7-36.5,79.1-70.5,91.1-117.3
		C1337.6,783.4,1339.1,770.7,1339.1,756.3L1339.1,756.3L1339.1,756.3z M1016.9,636.2c0-16.1,5-31.7,14.2-43.8
		c17.5-23.2,50.3-34.1,78.2-26c15.1,4.4,28.2,13.4,40.8,22.1c20.9,14.5,44.6,30.8,59,54c4.1,6.6,9,16.7,9,27.3
		c0,3.4-0.5,6.6-1.5,9.6c-2.9,8.8-9.7,15.7-15.7,21.8c-7.9,7.9-17.7,17.8-30.2,20.7c-6,1.4-12.2,1.1-18.2,0.8
		c-22.9-1.1-46.5-2.3-68.9-8.9c-24.9-7.4-44.7-21.2-55.9-38.9C1020.6,663.5,1016.9,650.2,1016.9,636.2L1016.9,636.2L1016.9,636.2z
		 M958.9,808.1c0-7.5,1.9-13.7,5.6-18c6.9-8.1,19.1-8.8,29.9-8.9l0.6,0l0.3,0c13.3-0.1,26.6-0.2,39.9-0.2
		c12.3-0.1,24.6,1.1,30.6,10.2c2.1,3.2,3.2,7.1,3.2,11.7c0,4.4-1,9.4-3,15.8c-6.6,20.4-16.3,39.6-28.7,57.1
		c-3.3,4.6-7.3,9.8-13,11.9c-9.4,3.4-20-1.8-32.3-16c-17.1-19.7-32.5-39.3-33-62.6C958.9,808.7,958.9,808.4,958.9,808.1L958.9,808.1
		L958.9,808.1z M767.8,730c0-8.9,2.3-19.6,6.8-32c3.9-10.6,7.9-21.2,11.8-31.3c8.4-21.5,17.8-44.2,31.9-64
		c10.8-15.2,29.2-35,55.6-43.2c19.5-6.1,39.8-3.9,54.4,5.8c15.7,10.5,25.1,30,25.1,52.4c0,7.9-1.2,15.7-3.5,23.1
		c-7.1,22.5-23.1,43.5-50.5,65.9C878,724.4,854.7,739.6,830,752c-15.9,8-37.8,15-52.1,2.9C771.2,749.3,767.8,740.9,767.8,730
		L767.8,730L767.8,730z"/>
	<path class="st3" d="M971.1,1559.3c0-14.5-3.5-30.1-10.5-46.4c-6.1-14.3-14.1-27.8-21.9-40.9c-4.7-7.9-9.5-16-13.8-24.2
		c-27.5-51.8-40.8-112.9-40.8-187c0-33.4,2.7-69.4,8.3-110c4.9-35.5,11.9-76.1,33.6-109.2c-83.2-8.2-162-53.6-210.6-121.6
		c-54,84.7-94.4,176.9-120.1,274.1c-6.2,23.4-11.9,48.6-11.9,74.2c0,2.2,0,4.3,0.1,6.5c1.2,29.1,10.3,56.6,18.1,77.3
		c34.4,91.1,92.3,171.8,167.5,233.6c50,41,82.6,48.6,102.7,50.8c19.4,2.1,39.7-1.6,57-10.4c18.6-9.4,31.7-23.5,38-40.8
		C969.6,1577.3,971.1,1568.6,971.1,1559.3L971.1,1559.3L971.1,1559.3z"/>
	<path class="st3" d="M1447,1320.4L1447,1320.4c0-7.3-0.3-14.7-0.8-21.9c-2.3-31.7-9.4-63.2-16.9-92.5
		c-23.5-92.7-62.1-207.6-152.4-273.1c-4.6-3.3-10-6.9-15.9-6.8c-6.3,0.1-11.7,4.1-17.2,8.6c-28.2,23.3-56.4,46.6-84.6,70
		c32.8,53.5,50.2,115.6,50.2,179.7c0,27.5-3.3,54.8-9.8,81c-6.8,27.3-17,54-27,79.8l-29.1,75.6l-28.9,75.1
		c-8.4,21.9-17.9,46.6-17.9,71.8c0,2.1,0.1,4.3,0.2,6.4c2.2,32.7,22.5,63.1,51.9,77.6c27.3,13.4,61.9,13.5,95.2,0.3
		c26-10.3,51.2-28.3,79.3-56.4C1402,1517,1447,1416.8,1447,1320.4L1447,1320.4L1447,1320.4z"/>
	<path class="st3" d="M1199.2,1165.6L1199.2,1165.6c-8.7-53.3-29.5-105.1-60.1-149.6c-61,25.3-120.5,46.8-177.2,30.5
		c-13.5-3.8-23,14.2-25.6,19.8c-10.6,22.9-19.1,46.9-25.3,71.4c81.8-15,167.7-12.3,248.3,7.8
		C1173.5,1149.1,1189.3,1153.8,1199.2,1165.6C1199.2,1165.6,1199.2,1165.6,1199.2,1165.6L1199.2,1165.6L1199.2,1165.6z"/>
	<path class="st3" d="M1281.1,395.1c0-9.8-5.2-20.5-14.2-29.2c-13.6-13.2-33.2-20.6-53.7-20.5c-18.6,0.1-38.1,6.6-55.1,18.2
		c-5.5,3.7-13,9.6-15.9,17.9c-0.7,1.9-1,4-1,6.2c0,6.8,3.3,12.5,8.5,14.7c30.8,13,62.7,26.4,88.5,48.7c1,0.9,2.3,1.3,3.7,1.1
		c3.3-0.3,6.7-3.5,8.8-6.3l11.8-15.7l6.7-8.9c4.5-6,9.6-12.7,11.3-20.6C1280.9,399,1281.1,397,1281.1,395.1L1281.1,395.1
		L1281.1,395.1z"/>
	<path class="st3" d="M1201.1,670.4c0-1.1-0.1-2.3-0.3-3.4c-1.2-6.9-6-12.5-10.3-17.3c-25.1-27.6-56.6-49.6-91.2-63.5
		c-6.2-2.5-13.5-5.1-20.9-4.4c-5,0.5-10.2,2.5-16.1,6.2c-16.4,10.3-26.7,26.9-26.9,43.3c0,0.3,0,0.5,0,0.8
		c0,31.3,27.3,60.4,58.5,62.4c17.9,1.1,35.8,2.2,53.7,3.3c11.2,0.7,24,1.5,35.2-3.1C1193.5,690.2,1201.1,680.2,1201.1,670.4
		L1201.1,670.4L1201.1,670.4z"/>
	<path class="st3" d="M935.6,615.8c0-8.9-1.9-17.2-5.7-24.4c-3.4-6.5-7.9-11.2-13-13.6c-3.6-1.7-7.8-2.5-13.4-2.5
		c-27.1-0.3-54.5,15.9-73.4,43.4c-16.9,24.6-25.2,53.7-33.2,81.8l-3.7,12.9l-3.6,12.7c-0.5,1.6-0.9,3.3-0.9,4.9c0,1.1,0.2,2,0.6,2.8
		c2,4.4,8.2,4.4,11.7,4c33-3.4,61.3-23.4,84.6-42.6c15.5-12.7,31.2-27,40.9-45.1C932.4,639.3,935.6,627.1,935.6,615.8L935.6,615.8
		L935.6,615.8z"/>
	<path class="st3" d="M965,2180.9c0-2.3,0-4.8-0.1-7.4c-1.4-44.5-13.4-91.1-35.6-138.3c-22.1-47.1-49.5-83.5-81.6-108.1
		c-38.6-29.6-86.5-42.5-128.1-34.4c-50.8,9.9-97.7,41.7-125.6,85.3l10.6,36.4l18,61.6c15.6,53.4,31.7,108.6,65.1,154.6
		c17.1,23.6,38.8,43.2,62.7,56.5c26,14.5,53.6,21,79.9,18.6c20.2-1.8,39.3-8.6,55.2-15c21.7-8.7,45.8-20.3,60.8-40.7
		C958.9,2233.1,965,2210.5,965,2180.9L965,2180.9L965,2180.9z"/>
	<path class="st3" d="M1528.3,1925.2c0-6.2-0.8-11-2.6-15.1c-3.4-8-10.6-13.8-17.9-18.9c-23.3-16.2-49.2-28.3-77.1-35.9
		c-27.9-7.6-56.4-10.4-84.7-8.2c-16.3,1.2-29.3,3.9-40.9,8.3c-15,5.7-28.3,14.5-43.6,26c-56.8,42.7-106.8,93.4-148.5,150.9
		c-18.7,25.7-20.7,59.8-21.2,89.6c-0.1,5.1-0.1,9.3-0.1,13c0,23.8,1.1,54.8,9.9,84.2c10.3,34.8,30.2,62.5,56,77.8
		c17.8,10.6,57,25.7,119,7c31.1-9.4,60.1-24.1,86-43.7c16.2-12.3,32-27.1,48.2-45.2c34.5-38.6,62.2-82.9,82.4-131.5
		c20.2-48.7,31.9-99.6,34.9-151.2C1528.1,1930.2,1528.3,1927.7,1528.3,1925.2L1528.3,1925.2L1528.3,1925.2z"/>
	<path class="st4" d="M1046.2,809.1c0-1.8-0.4-3.4-1.1-4.8c-2.4-4.5-7.9-6.4-17-6c-11.1,0.6-22.2,1.9-33.1,4.1
		c-8.9,1.8-13.8,5.2-14.7,10.2c-0.1,0.5-0.1,1-0.1,1.6c0,2.8,1.2,5.5,2.3,7.8c7.2,14.8,17.5,28.4,29.7,39.5c2.2,1.9,4.7,4,7.7,4.1
		c4.4,0.1,7.9-3.5,10.7-11.1c4.5-11.9,8.9-23.9,13.4-35.8C1045.1,815.6,1046.2,812.3,1046.2,809.1L1046.2,809.1L1046.2,809.1z"/>
	<path class="st3" d="M739.3,417.3c-1.1-0.9-2.3-1.8-3.2-2.9c-0.4-0.5-1.5-0.5-2.1-0.5c-0.6-0.1-1.2-0.1-1.7-0.1
		c-2.6-0.2-5.3-0.2-7.9,0c-1.6,0.1-3,0.7-4.4,1.6c0,0-0.1,0-0.1,0.1c0.5-0.8,1-1.6,1.5-2.4c0.9-1.4,1.9-2.7,2.9-4
		c0.8-0.4,1.7-0.9,2.4-1.4c1.9-1.4,3.6-3,5.1-4.9c0.4-0.4,0.7-0.9,1-1.4c0.1-0.2,0.6-1.1,0.3-1.5c-0.2-0.3-0.6-0.3-1-0.3
		c-0.2,0-0.4,0.1-0.6,0.2c-0.6,0.2-1.1,0.5-1.6,0.8c-1.3,0.9-2.6,1.9-3.7,2.9c-0.8,0.3-1.6,0.7-2.5,1c-1.9,0.8-3.8,1.7-5.6,2.6
		c-1.7,0.9-3.3,1.9-4.9,2.9c-1.7,1.1-3.3,2.2-4.8,3.4c-1.8,1.4-3.6,2.9-5.4,4.4c-2.1,1.8-4,3.9-5.8,5.9c-1.7,1.8-3.1,4-4.4,6.1
		c-0.7,1.1-1.2,2.4-1.7,3.6c-0.3,0.7-0.5,1.5-0.7,2.2c-0.2,0.6-0.3,1.1-0.2,1.7c0,1.3,1.2,1.4,2.2,1.6c0.4,0.1,0.7,0,1.1-0.3
		c1.1-0.6,2.1-1.6,3-2.4c0.2-0.2,3.5-3.7,2.7-4c-0.5-0.2-0.9-0.4-1.3-0.7c-0.2-0.2-0.3-0.4-0.3-0.7c0.1-1.5,0.7-3,1.3-4.4
		c0.4-0.9,0.9-1.8,1.4-2.7c0.2-0.3,0.5-0.6,0.7-1c0.2-0.2,0.4-0.4,0.6-0.7c0.3-0.3,0.6-0.6,0.9-0.8c0.5-0.4,1-0.9,1.5-1.3
		c1.5-1.1,2.9-2.2,4.4-3.3c1.3-0.9,2.7-1.7,4-2.5c1.4-0.8,2.9-1.5,4.4-2.2c0.8-0.3,1.5-0.6,2.3-0.9c-1.1,1.4-2.2,2.7-3.2,4.2
		c-1.4,2-2.7,3.9-3.9,6c-1,1.6-1.8,3.4-2.6,5.1c-0.8,1.6-1.4,3.2-1.9,4.9c-0.4,1.2-0.6,2.3-0.7,3.5c-0.1,0.9-0.1,2.2,0.4,2.9
		c0.2,0,0.3,0,0.5,0.1c0.4,0,0.7-0.2,1-0.4c0.9-0.5,1.7-1.2,2.5-1.9c1.5-1.3,2.8-2.7,4-4.3c0.7-0.9,1.2-1.8,1.6-2.8
		c0.3-0.8,0.5-1.6,0.7-2.5c0.3-1.5,0.6-3,1-4.4c1.6-0.3,3.2-0.6,4.8-0.8c1.4-0.2,2.8-0.5,4.1-0.8c1.4-0.3,2.9-0.9,4.3-0.9
		c0.6,0.2,1.1,0.7,1.6,1.1c0.6,0.5,1.2,1,1.8,1.5c0.2,0.1,0.5,0,0.7-0.2c0.7-0.4,1.4-1,2-1.6c0.4-0.4,0.8-0.9,1.2-1.4
		c0-0.1,0.6-0.8,0.6-1.1C739.3,417.4,739.3,417.4,739.3,417.3L739.3,417.3L739.3,417.3z M697.4,430.8c0-0.1,0-0.2,0-0.2
		C697.4,430.7,697.4,430.7,697.4,430.8L697.4,430.8L697.4,430.8z"/>
	<path class="st3" d="M739,418.7c-1.5-0.3-2.9-0.6-4.3-1c-0.1-0.1-0.3-0.1-0.4-0.2c-1.4-0.7-3.1-0.9-4.5,0c-1.4,0.9-2.6,2-3.8,3.1
		c-0.7,0.6-1.3,1.3-2,1.9c0.1-0.2,0.2-0.5,0.4-0.7c0.6-1.3,1.3-2.5,2.1-3.7c0.7-1.2,1.5-2.5,2.2-3.7c0.3-0.5,0.6-1,0.9-1.5
		c0.3-0.4,0.5-0.9,0.7-1.3c0.3-0.6,0.6-1.3,0.8-2c0.1-0.7,0.2-1.3,0.3-2c0.2-1.5-0.7-3.2-1.8-4.2c-0.4-0.3-0.8-0.6-1.2-0.9
		c-0.9-0.5-1.9-0.8-3-0.8c-1.8-0.2-3.5,0.5-5,1.4c-1.5,0.9-2.8,2-4.1,3.1c-1.1,0.9-2.2,2-3.3,3.1c-0.8,0.8-1.6,1.7-2.3,2.6
		c-0.7,0.8-1.3,1.6-1.9,2.4c-0.1-0.6-0.3-1.1-0.6-1.7c-0.7-1.2-1.9-2.1-3.2-2.5c-0.9-0.2-1.9-0.3-2.8,0c0.1-0.8,0-1.5-0.2-2.2
		c0.2-0.2,0.4-0.5,0.6-0.7c0.4-0.5,0.9-1,1.4-1.5c0.9-1,2-2.2,2.2-3.6c0.2-0.7,0.2-1.4,0-2.1c-0.3-1.1-1-1.7-1.8-2.4
		c-1.5-1.1-3.5-0.5-5.2-0.1c-1.4,0.4-2.7,1-3.9,1.5c-2,0.9-3.8,2-5.8,2.8c-1.2,0.5-2.4,0.9-3.6,1.4c-0.5,0.2-1,0.4-1.5,0.7
		c-0.8,0.4-1.6,1.1-2.3,1.6c-1.1,0.9-2.1,1.9-3,2.9c-1.3,1.5-2.6,2.9-3.8,4.5c-2.3,3.2-4.3,6.7-5.8,10.4c-1,2.3-1.8,4.6-2.5,6.9
		c-0.9,2-1.7,4.1-2.4,6.2c-1,3.2-1.7,6.4-1.7,9.8c0,1.7,0.1,3.8,1.4,5c0,0.2,0,0.4,0,0.6c0,0.8,0,1.6,0.1,2.3c0,0.5,0.1,1,0.2,1.4
		c0.1,0.7,0.6,1.4,1.2,1.8c0.3,2.2,1,4.2,1.9,6.2c1.1,2.4,4.2,3.7,6.6,2.3c0.9-0.5,1.6-1.3,2-2.2c0.1,0.2,0.2,0.3,0.2,0.5
		c0.4,0.7,0.8,1.3,1.4,1.8c1.6,1.8,4.6,1.9,6.6,0.8c0.9-0.5,1.5-1.2,2-2.1c0.6-1,0.8-2.2,0.9-3.4c0.2-2.2,0-4.4,0-6.6
		c0-2.2,0.1-4.3,0.3-6.5c0.1-0.6,0.2-1.2,0.3-1.8c0.2-0.8,0.4-1.6,0.6-2.4c0,1.1,0.1,2.2,0.2,3.3c0.1,1.7,0.4,3.3,0.6,5
		c0.1,1,0.4,2,0.7,3.1c0.2,0.9,0.7,1.9,1,2.7c0.2,0.4,0.4,0.8,0.6,1.1c0.5,0.9,1.2,1.6,2.1,2.1c2,1.3,4.6,1.3,6.6,0.1
		c1.7-1,2.6-2.7,3.1-4.5c0.3-1.1,0.5-2.2,0.8-3.4c0.5-2.4,1.1-4.8,1.7-7.2c0.7-2.5,1.6-4.9,2.5-7.3c0.1-0.3,0.2-0.5,0.4-0.8
		c0,0.2,0.1,0.4,0.1,0.7c0.2,0.6,0.5,1.3,0.8,1.8c0.6,1.2,1.9,2.1,3.1,2.4c1.8,0.5,3.8,0,5.1-1.4c1.1-1.1,1.7-2.6,2.4-3.9
		c0.5-1.1,1.2-2.1,1.8-3.1c0.8-0.9,1.8-1.7,2.7-2.5c0.9-0.9,1.9-1.8,2.8-2.7c1.7-1.7,3.4-3.4,5.3-5c0.3,0.1,0.6,0.2,0.9,0.3
		c1.1,0.3,2.3,0.5,3.4,0.8c2,0.4,4-0.5,4.5-2.6c0.1-0.3,0.1-0.6,0.1-0.9C741.7,420.7,740.6,419,739,418.7L739,418.7L739,418.7z
		 M674.8,460c0,0-0.1-0.1-0.1-0.1C674.8,459.9,674.8,460,674.8,460C674.8,460,674.8,460,674.8,460L674.8,460L674.8,460z"/>
	<path class="st3" d="M702.6,502.7c-0.3-0.2-0.6-0.3-0.9-0.4c-0.6-0.6-1.2-1.2-1.7-1.8c-1.5-1.5-3.3-2.8-5-4.1
		c-1.5-1.2-3-2.5-4.4-3.9c0.2-0.9,0.2-1.9,0-2.9c-0.2-1.1-0.9-2.1-1.7-2.8c-0.3-0.2-0.5-0.4-0.8-0.7c-0.8-0.9-1.5-1.9-2.3-2.8
		c-0.9-1.1-1.8-2.1-2.8-3.2c0-0.1-0.1-0.1-0.1-0.2c-0.3-0.7-0.7-1.3-1-1.9c-0.7-1.2-1.3-2.5-1.8-3.8c-1.2-2.9-2-6-2.8-9
		c-0.9-3.5-1.6-7-2.1-10.5c-0.3-2.5-0.4-5-0.4-7.5c0-1.4,0-2.9,0-4.3c0-0.3,0-0.6,0-0.8c0.9,0.2,1.8-0.1,2.3-1
		c0.6-0.9,0.3-2.6-0.8-3c-0.5-0.2-1-0.4-1.6-0.7c-0.3-0.1-0.6-0.2-0.9-0.3c-0.2-0.4-0.5-0.7-0.9-1c-1.2-1-2.4-1.7-4-1.7
		c-1.3,0-3.2,0.6-4,1.7c-0.9,1.2-1,1.2-1.5,2.6c-0.1,0.2-0.1,0.4-0.2,0.6c-0.1,0.5-0.2,1-0.3,1.5c-0.3,1.6-0.5,3.3-0.7,4.9
		c-0.3,2.5-0.2,5.1-0.1,7.7c0,2.4,0.1,4.9,0.2,7.3c0.1,1.1,0.1,2.3,0.3,3.4c0.1,1,0.2,2,0.4,3c0.1,0.4,0.2,0.8,0.3,1.2
		c0,0.2,0.1,0.5,0.1,0.7c0.2,1.1,0.5,2.3,0.8,3.4c0.5,1.6,1.1,3.2,1.8,4.8c0.1,1,0.3,2.1,0.5,3c0.4,1.4,0.8,2.8,1.4,4.2
		c0.3,0.9,0.7,1.7,1.1,2.6c0.5,1.3,1.1,2.7,1.7,3.9c0.8,1.4,1.7,2.7,2.5,4.1c2,3.2,4.7,5.8,7.4,8.3c1.1,1.1,2.3,2.1,3.4,3.1
		c1.2,1,2.5,2,3.8,3c1.1,0.9,2,2,3,3c0.5,0.5,0.9,1,1.4,1.6c2.4,2.7,6.4,3.6,9.6,1.7c1.1-0.6,1.9-1.5,2.6-2.6c0.5-0.9,0.9-1.9,0.9-3
		c0-0.1,0-0.1,0.1-0.2c0.1-0.5,0.2-1.1,0.2-1.7C705.7,506,704.6,503.9,702.6,502.7L702.6,502.7L702.6,502.7z"/>
	<path class="st3" d="M804.1,396.7c-0.8-1.8-2-3.3-3.2-4.8c-0.6-0.8-1.2-1.6-1.9-2.2c-1.2-1.1-2.5-2.1-3.9-3
		c-1.7-1.1-3.6-1.9-5.4-2.7c-0.9-0.4-1.8-0.9-2.7-1.4c-1.6-0.8-3.2-1.5-4.8-2.1c-2.3-0.9-4.8-1.1-7.2-1.6c-1.7-0.4-3.3-1-4.9-1.5
		c-1.9-0.6-3.8-1.3-5.8-1.8c-2.6-0.7-5.2-0.9-7.8-1.3c-0.9-0.1-1.9-0.2-2.8-0.3c-1.4-0.1-2.8,0.1-4.2,0.3c-1.4,0.2-2.8,0.7-4.2,1
		c-1.3,0.3-2.6,0.5-3.9,0.7c-3.5,0.4-7,0.8-10.3,1.9c-1.9,0.6-3.8,1.4-5.7,2.1c-1.8,0.7-3.7,1.2-5.6,1.6c-4.8,1.1-9,3.3-13.2,5.7
		c-1.9,1.1-3.9,2.1-5.7,3.3c-1.7,1.1-3.3,2.4-4.9,3.6c-1.4,1-3,1.8-4.5,2.8c-1.5,1-3,1.9-4.4,3c-2.9,2.1-5.8,4.3-7.4,7.5
		c-0.4,0.8-0.7,1.6-1.1,2.4c-0.4,0.8-0.9,1.4-1.3,2.2c-0.9,1.8-1.3,3.8-0.6,5.6c-0.5,1.1-0.9,2.2-0.9,3.4c0,2.6,1.7,4.7,4.2,5.5
		c4.3,1.4,7.4-3,10-5.7c0.7-0.7,1.4-1.4,2.2-2.1c0.6,0,1.3-0.2,1.9-0.3c-0.3,2.1-0.2,4.1,0.2,6.2c0.1,0.6,0.4,1.4,0.7,2.1
		c-0.9,0.8-1.8,1.6-2.7,2.4c-3.6,3.4-6.9,7.2-9.4,11.5c-0.9,1.5-1.6,3-2.3,4.6c-0.8,1.8-1.6,3.7-2.2,5.6c-0.4,1.3-0.8,2.5-1.2,3.8
		c-0.7,2.7-1.3,5.4-1.7,8.1c-0.3,2.1-0.6,4.1-0.8,6.2c-0.1,1.1-0.2,2.2-0.2,3.4c0,1.2,0.2,3,0.5,4.1c0.1,0.3,0.1,0.5,0.2,0.8
		c0,0,0,0.1,0,0.1c0.1,1.3,0.3,2.7,0.5,4c0.2,1.2,0.8,2.5,1.3,3.6c0.5,1.1,1.2,2.2,2,3.1c0.2,3.9,0.7,7.7,1.2,11.5
		c0.4,2.5,0.8,5.1,1.6,7.6c1.3,3.9,3.4,7.4,6.4,10.2c1.2,1.1,2.5,2.2,3.9,3.1c0.2,0.1,0.4,0.2,0.6,0.3c1.2,0.5,1.9,0.9,2.7,1.1
		c0.1,0.1,0.2,0.2,0.3,0.3c0.2,0.2,0.4,0.4,0.6,0.7c0.2,0.3,0.4,0.6,0.6,1c1.6,3,5,5.1,8.4,5.1c1.6,0,3.4-0.4,4.8-1.3
		c1.4-0.9,2-1.5,2.7-2.5c0.5-0.6,0.9-1.1,1.3-1.8c0.3-0.6,0.5-1.1,0.8-1.7c0.1-0.2,0.2-0.3,0.3-0.5c2.1-2.5,4.5-4.9,6.8-7.1
		c1.5-1.4,3.2-2.7,4.6-4.1c1.4-1.4,2.5-3,3.6-4.6c1-1.1,2-2.2,3-3.3c1.4-1.6,2.8-3.1,4.1-4.7c2.6-3.2,5.2-6.4,7.7-9.7
		c2.7-3.5,5.5-6.9,8.3-10.3c1.9-2.3,3.7-4.8,5.6-7.2c1.3-1.7,2.4-3.4,3.7-5.1c1.1-1.3,2.3-2.5,3.5-3.8c1.4-1.5,2.6-3.1,4-4.6
		c1.3-1.5,2.7-3,3.9-4.6c1.4-1.8,2.8-3.7,4.2-5.5c1.4-1.7,2.9-3.3,4.4-5c2-2.3,3.7-4.8,5.5-7.3c1.6-2.1,3.3-4.1,4.8-6.3
		c1.1-1.6,2.1-3.1,3.3-4.7c0.8-1,1.7-1.9,2.6-2.9c1.5-1.7,2.9-3.6,4.2-5.5c2.1-3.1,3.2-7.2,3.3-11c0-0.1,0-0.2,0-0.3
		C806,401,805.1,399,804.1,396.7L804.1,396.7L804.1,396.7z M789.8,384C789.8,384,789.7,384,789.8,384C789.7,384,789.7,384,789.8,384
		C789.8,384,789.8,384,789.8,384L789.8,384L789.8,384z"/>
	<path class="st3" d="M679.3,482.7c-0.1-0.1-0.2-0.2-0.3-0.2c-0.5-0.7-0.9-1.5-1.3-2.3c-0.4-0.8-0.7-1.5-1-2.3
		c-0.7-1.5-1.4-3.1-2-4.6c-0.4-1-0.8-2-1.2-3c-0.2-0.6-0.4-1.2-0.6-1.8c-0.1-0.5-0.2-1-0.3-1.5c0-0.2,0-0.4,0-0.6c0-0.5,0-0.9,0-1.4
		c0.1-0.3,0.1-0.7,0.2-1c0.1-0.3,0.1-0.6-0.1-0.9c-0.2-0.3-0.4-0.5-0.7-0.5c-0.3-0.1-0.6,0-0.9,0.1c-0.2,0.1-0.5,0.4-0.5,0.7
		c-0.2,1-0.3,1.9-0.3,2.9c0,0.5,0.1,1,0.1,1.5c0.1,1.1,0.5,2.2,0.9,3.2c0.7,2,1.5,4,2.3,5.9c0-0.1-0.1-0.1-0.1-0.2
		c0.5,1.2,1,2.4,1.5,3.6c0.3,0.7,0.6,1.4,0.9,2.1c0.4,0.9,1,1.9,1.9,2.4c0.2,0.1,0.4,0.2,0.7,0.2c0.3,0,0.7-0.1,0.9-0.4
		c0.2-0.2,0.4-0.6,0.4-0.9C679.7,483.3,679.6,482.9,679.3,482.7L679.3,482.7L679.3,482.7z M672.7,464.8
		C672.7,464.8,672.7,464.8,672.7,464.8C672.7,464.8,672.7,464.8,672.7,464.8L672.7,464.8L672.7,464.8z M673.4,476.6
		C673.4,476.6,673.5,476.7,673.4,476.6C673.5,476.7,673.4,476.6,673.4,476.6L673.4,476.6L673.4,476.6z"/>
	<path class="st3" d="M701,518c-0.9-0.5-1.8-0.9-2.7-1.5c-0.4-0.3-0.7-0.6-1.1-1c-0.4-0.4-0.7-0.8-1-1.2c-0.8-1.1-1.6-2.2-2.4-3.3
		c-0.9-1.3-1.8-2.5-2.7-3.8c-0.9-1.3-1.8-2.5-2.7-3.8c-0.8-1.3-1.6-2.6-2.4-3.9c-0.8-1.3-1.6-2.7-2.4-4c-0.8-1.3-1.6-2.6-2.4-3.9
		c-0.9-1.4-1.7-2.8-2.5-4.2c-0.8-1.4-1.5-2.8-2.1-4.3c-0.2-0.4-0.4-0.8-0.6-1.3c-0.4-1-0.8-2-1.1-3.1c-0.4-1.3-0.7-2.6-1-3.9
		c-0.2-0.7-0.9-1.1-1.6-0.9c-0.3,0.1-0.6,0.3-0.8,0.6c-0.2,0.3-0.2,0.6-0.1,1c0.3,1.8,0.6,3.5,1,5.3c0.3,1.5,0.9,3,1.5,4.4
		c0.7,1.6,1.4,3.2,2.2,4.7c0.8,1.4,1.7,2.8,2.5,4.2c0.8,1.3,1.6,2.6,2.3,3.9c0.8,1.3,1.6,2.7,2.4,4c0.8,1.3,1.6,2.7,2.5,3.9
		c0.9,1.2,1.8,2.4,2.8,3.6c1.6,2.1,3.1,4.2,4.7,6.3c0.3,0.4,0.7,0.8,1.1,1.2c0.4,0.4,0.9,0.8,1.4,1.2c0.6,0.4,1.1,0.8,1.7,1.2
		c0.6,0.3,1.3,0.7,1.9,1c0.7,0.3,1.5,0.2,2-0.5c0.1-0.2,0.2-0.5,0.2-0.7C701.7,518.7,701.5,518.2,701,518L701,518L701,518z"/>
	<path class="st3" d="M689.7,507.6c-0.2-0.4-0.4-0.7-0.6-1s-0.4-0.6-0.6-1c-0.4-0.6-0.9-1.3-1.4-1.9c0-0.1-0.1-0.1-0.1-0.2
		c-0.1-0.1-0.2-0.2-0.3-0.4c-0.2-0.3-0.4-0.5-0.6-0.8c-0.6-0.9-1.2-1.8-1.8-2.7c-0.9-1.4-1.7-2.8-2.6-4.2c-0.9-1.4-1.9-2.7-2.8-4.1
		c-0.2-0.2-0.3-0.5-0.5-0.7c0,0,0,0,0,0c-0.3-0.6-0.6-1.3-0.9-1.9c-0.6-1.5-1.2-3-1.7-4.5c-0.6-1.6-1-3.2-1.5-4.8
		c-0.9-2.7-2-5.4-2.9-8.1c0.1-0.4-0.1-0.9-0.4-1.2c-0.1-0.2-0.1-0.4-0.2-0.6c-0.2-0.6-0.3-1.2-0.5-1.9c-0.2-0.7-0.8-1.1-1.5-1.1
		c-0.4,0-0.8,0.2-1.1,0.5c-0.3,0.3-0.5,0.7-0.5,1.1c0.3,2,0.5,3.9,1,5.9c0.1,0.3,0.2,0.6,0.3,1c0,0.4,0.1,0.8,0.1,1.2
		c0.3,1.8,0.8,3.4,1.5,5.1c0.6,1.5,1.2,2.9,1.9,4.3c0.3,1,0.7,2,1.1,3.1c1.3,3.2,2.7,6.3,4.8,9.1c1,1.4,2,2.8,2.9,4.2
		c1,1.4,1.9,2.8,2.9,4.2c0.4,0.6,0.8,1.1,1.1,1.7c0.2,0.3,0.3,0.5,0.5,0.8c0.1,0.1,0.2,0.3,0.3,0.4c0.2,0.3,0.4,0.7,0.7,0.9
		c0.7,0.6,1.6,0.8,2.5,0.3c0.5-0.3,0.8-0.7,0.9-1.2c0-0.2,0.1-0.3,0.1-0.5C690,508.3,689.9,508,689.7,507.6L689.7,507.6L689.7,507.6
		z"/>
	<path class="st3" d="M703.6,520.2c-0.3-0.4-0.6-0.8-0.8-1.3c-0.7-1-1.4-1.9-2.1-2.8c-1.7-2.2-3.4-4.3-5.1-6.5
		c-1.7-2.2-3.3-4.5-4.7-7c-1.5-2.5-2.8-5.1-4-7.8c-0.4-0.9-0.8-1.9-1.1-2.8c-0.4-1.3-0.9-2.6-1.2-3.9c-0.9-3-1.7-6.1-2.6-9.1
		c-0.5-1.8-2.4-2.9-4.2-2.4c-0.9,0.2-1.6,0.8-2,1.6c-0.5,0.8-0.5,1.7-0.3,2.6c0.2,0.9,0.4,1.8,0.6,2.6c0,0-0.1-0.1-0.1-0.1
		c-0.7-0.7-1.4-1-2.4-1c-1.3-0.1-2.8,1-3,2.3c-0.1,0.4-0.2,0.8-0.1,1.2c0.1,0.5,0.1,0.9,0.2,1.4c0.1,0.3,0.2,0.7,0.3,1
		c0.2,0.7,0.5,1.4,0.8,2.1c0.6,1.5,1.3,3.1,2,4.6c0.5,1.2,1.1,2.4,1.7,3.5c0.6,1.3,1.2,2.7,1.9,3.9c1.4,2.6,3,5.1,4.7,7.5
		c0.9,1.3,1.9,2.5,2.9,3.7c0.5,0.6,1,1.1,1.6,1.6c2.1,1.8,4.3,3.4,6.2,5.4c0.9,0.9,1.8,1.9,2.7,2.8c1.2,1.1,2.3,2.5,3.9,3
		c1.4,0.4,2.8-0.1,3.8-1c0.8-0.7,1.1-1.7,1.1-2.7C704.3,521.8,704,520.9,703.6,520.2L703.6,520.2L703.6,520.2z"/>
	<path class="st3" d="M1655.6,1893.2c-0.6-6.1-1.9-12.2-3.2-18.2c-1.1-5.1-2.4-10.2-3.8-15.2c-2.8-10.4-6.4-20.6-9.9-30.8
		c-1.7-4.9-3.5-9.7-5.7-14.3c-0.8-1.7-1.6-3.4-2.6-5.1c-1.2-2.1-2.7-4.1-4.4-5.9c-0.2-0.2-0.5-0.4-0.7-0.6c-0.9-0.6-1.7-1.3-2.6-1.9
		c-0.3-0.1-0.5-0.2-0.8-0.3c-1.1-0.6-2.3-0.9-3.6-1c-0.1-0.7-0.2-1.4-0.3-2.1c-0.6-3.5-1.3-7.1-2.5-10.5c-1.3-3.4-2.8-6.8-4.7-10
		c-1.8-3.1-4-6-6.5-8.5c-0.9-0.9-1.8-1.6-2.8-2.3c-1.1-0.8-2.2-1.5-3.3-2.2c-1.1-0.6-2.4-1-3.6-1.5c0.5,0.2,1.1,0.4,1.6,0.6
		c-1.6-0.6-3.1-1.1-4.8-1.4c-1.9-0.2-3.6-0.3-5.5,0c-1.7,0.2-3.4,0.5-5,1.1c-1.6,0.6-3.2,1.4-4.8,2.3c-1.9,1.1-3.7,2.3-5.5,3.7
		c-2.5,1.9-4.9,3.8-7.1,6c-1.9,1.9-3.5,4.2-4.9,6.5c-1.1,1.8-2.2,3.7-3.1,5.7c-2.1,4.8-3.6,9.9-5,14.9c-2.3,8.2-4.7,16.4-5.9,24.9
		c-0.7,5.3-1,10.7-1,16.1c0,0.3,0,0.6,0,0.9c-0.5,4-0.9,8-1,12c-0.1,2-0.1,3.9,0.1,5.9c-0.6,4.1-0.7,8.2-0.2,12.3
		c0.3,2.2,0.8,4.4,1.4,6.5c0.5,1.5,0.9,2.9,1.3,4.4c0.3,1.1,0.6,2.3,0.9,3.5c0.6,1.9,1.6,3.8,2.9,5.4c1.7,2.2,3.9,4.3,6.7,5
		c0,0,0.1,0,0.1,0c0.1,0.1,0.3,0.2,0.4,0.2c1,0.8,1.9,1.6,2.9,2.4c1.4,1.2,2.9,2.4,4.4,3.6c2,1.5,4.1,3,6.2,4.3
		c1.3,0.8,2.6,1.6,3.9,2.4c0.9,0.7,1.8,1.5,2.6,2.2c1.8,1.6,3.5,3.2,5.4,4.7c3.5,2.8,7.1,5.5,10.8,8.1c4.1,2.9,8.1,5.8,12.6,8.1
		c2.6,1.4,5.5,2.3,8.3,3.2c2.7,0.8,5.3,1.1,8.1,1.3c1.7,0.1,3.5,0.1,5.3,0c0.9-0.1,1.8-0.2,2.7-0.3c1.8-0.3,3.5-0.5,5.3-1
		c1.7-0.5,3.2-1.3,4.7-2c1.7-0.8,2.9-1.9,4.4-3.1c0.8-0.7,1.4-1.4,2-2.2c1.1-1.5,2.1-3,2.9-4.6c1.4-2.9,2.4-6,3.5-9
		c0.8-2.3,1.6-4.6,2.1-7c0.6-3.1,0.8-6.4,1-9.6c0.1-1.2,0.1-2.3,0.1-3.5C1655.7,1895.8,1655.7,1894.5,1655.6,1893.2L1655.6,1893.2
		L1655.6,1893.2z M1637.1,1904.3c0,0.2,0,0.4,0,0.5c0-0.1,0-0.2,0-0.2c0-0.1,0-0.1,0-0.2C1637,1904.4,1637,1904.4,1637.1,1904.3
		L1637.1,1904.3L1637.1,1904.3z M1634.7,1914c-0.3,0.8-0.6,1.6-1,2.4c0-0.5,0-1-0.1-1.6C1634,1914.5,1634.4,1914.3,1634.7,1914
		L1634.7,1914L1634.7,1914z M1579.5,1781.8c-0.2,0.4-0.4,0.7-0.6,1.1c-0.3,0.3-0.5,0.6-0.8,0.9c-0.1-0.1-0.3-0.2-0.4-0.2
		C1578.3,1782.9,1578.9,1782.3,1579.5,1781.8L1579.5,1781.8L1579.5,1781.8z M1594.5,1762.7c0,0,0.1,0,0.1,0
		C1594.6,1762.7,1594.5,1762.7,1594.5,1762.7L1594.5,1762.7L1594.5,1762.7z"/>
	<path class="st3" d="M1647.3,1897.1c-0.5-2.1-1.7-4.2-3.4-5.5c-0.7-0.5-1.3-1-2-1.4c-0.8-0.5-2.1-0.9-2.8-1.1
		c-0.9-0.3-1.7-0.5-2.6-0.7c-1-0.2-2.1-0.3-3.1-0.5c-0.1-0.1-0.2-0.3-0.2-0.4c-0.9-2.3-1.4-4.6-1.9-7c-1.2-6.8-2.1-13.7-3.5-20.5
		c-0.3-0.9-0.8-1.7-1.5-2.3c-1.1-1-2.5-1.5-3.9-1.4c-3,0.1-5.3,2.7-5.2,5.7c0.2,5.3,0.7,10.7,1.2,16c0.5,5.9,0.5,12.1,3.3,17.4
		c0.9,1.7,2.1,3.2,3.6,4.4c0.9,0.7,1.7,1.2,2.7,1.7c0.9,0.4,1.9,0.7,2.9,1c0,0,0,0,0,0c-0.6,0.8-1.2,1.7-1.6,2.6
		c-1.3,2.6-2.3,5.4-3,8.2c-0.3,1-0.5,2.1-0.6,3.2c-0.1,1.4-0.3,2.8-0.1,4.2c0.2,1.3,0.5,2.8,1.3,3.9c0.9,1.3,1.8,2.4,3.3,3
		c0.7,0.4,1.3,0.6,2.1,0.7c0.6,0.1,1.2,0.1,1.8,0.2c0.8-0.1,1.6-0.3,2.4-0.5c0.3-0.1,0.7-0.2,1.1-0.4c0.6-0.2,1.2-0.5,1.6-0.8
		c0.8-0.6,1.5-1.2,2.1-1.9c0.7-0.8,1.3-1.7,1.7-2.7c0.6-1,1.1-2,1.5-3.1c0.6-1.6,1.2-3.2,1.6-4.8c0.6-2.4,1-4.8,1.3-7.3
		c0.3-1.8,0.4-3.5,0.5-5.3c0-0.4,0-0.8,0-1.2C1647.7,1899.3,1647.5,1898.2,1647.3,1897.1L1647.3,1897.1L1647.3,1897.1z M1634,1888.6
		C1634,1888.6,1634,1888.6,1634,1888.6C1634,1888.6,1634,1888.6,1634,1888.6L1634,1888.6L1634,1888.6z M1633.9,1888.3
		c-0.1,0-0.1-0.1-0.2-0.1C1633.8,1888.2,1633.8,1888.3,1633.9,1888.3L1633.9,1888.3L1633.9,1888.3z"/>
	<path class="st3" d="M1667.7,1852.6c-0.5-7.3-2-14.5-3.3-21.7c-0.9-4.8-1.8-9.6-3.4-14.3c-1.6-4.6-3.1-9.3-4.8-13.9
		c-0.7-1.9-1.4-3.8-2.1-5.7c-1.2-3-2.8-5.9-4.3-8.8c-0.8-1.7-2-3.2-3.2-4.6c-1.4-1.7-2.8-3.5-4.4-5c-0.8-0.7-1.6-1.4-2.3-2.1
		c-1.8-1.6-3.5-3.3-5.2-5c-2.6-2.5-5.8-4.5-9-6.2c-3.4-1.8-7.4-3.5-11.1-4.5c-2.2-0.6-4.7-0.8-7.1-1c-1.5-0.2-3-0.3-4.5-0.4
		c0,0-0.1,0-0.1,0c-2.4-0.4-4.8-0.8-7.2-0.5c-4,0.5-8.1,1.2-11.9,2.4c-2.9,0.9-5.7,2.3-8.4,3.8c-2,1.1-3.7,2.9-5.3,4.4
		c-0.8,0.7-1.5,1.5-2.2,2.4c-5.4,6.4-8.6,14-10.6,22c-1,4.2-1.2,8.6-1.4,12.8c-0.2,2.4,0,4.9,0.1,7.3c0.4,6.7,1.6,13.4,3,20
		c1.1,5.1,3.1,9.9,5.1,14.7c2.5,6.1,5.6,12.3,10.9,16.4c4.3,3.3,9,5.9,14.4,6.8c2,0.3,4.1,0.5,6.1,0.5c2.1,0,4.2-0.6,6.2-1.1
		c1.6-0.3,4.8-2.1,5.5-2.5c0.9-0.5,1.7-1,2.5-1.7c2.1-1.8,4.1-3.4,5.8-5.4c0,1.9,0,3.7,0,5.6c-0.5,3.7-1.3,7.3-2.4,10.8
		c-0.6,1.3-1.1,2.5-1.8,3.7c-0.4,0.8-0.9,1.6-1.3,2.4c-1,2-1.7,4.2-2.2,6.4c-1.1,5.3,0.5,10.8,4.5,14.5c2,1.8,4.2,3,6.8,3.6
		c1.1,0.3,2.3,0.4,3.4,0.4c-1.9,0.8-3.5,2.5-4,4.6c-0.6,2.3-0.8,4.7-0.1,7.1c0.3,1.1,0.9,2.2,1.6,3.2c0.8,1.1,1.8,2.1,2.7,3.2
		c0.9,1.1,1.7,2.1,2.7,3.1c1.4,1.3,3.1,2.3,4.9,2.9c1.6,0.6,3.3,1.2,5,1.7c2.5,0.8,5.5,0.5,7.9-0.3c0.8-0.3,1.5-0.6,2.2-0.9
		c2.7-1.2,5.1-2.2,7.1-4.5c1.9-2.2,3.5-4.8,4.9-7.3c1.3-2.2,2.7-4.4,3.7-6.7c0.7-1.6,1.3-3.2,1.9-4.9c1-2.8,2.1-5.5,2.8-8.4
		c1.2-5.2,1.7-10.6,1.6-15.9c0-4.9,0-9.8,0.2-14.8c0.2-3.4,0.3-6.8,0.3-10.2C1667.9,1858.1,1667.9,1855.3,1667.7,1852.6
		L1667.7,1852.6L1667.7,1852.6z M1627.1,1908.3c3.6-0.8,6.9-3.1,9.5-5.7c1.7-1.7,3-3.7,4.3-5.7c-0.2,1.3-0.4,2.6-0.7,3.9
		c-0.5,2.3-1.1,4.5-1.9,6.8c-0.6,1.5-1.2,2.9-2,4.3c-0.4,0.8-0.8,1.6-1.2,2.4c0,0-0.1,0.1-0.1,0.1c-0.3,0.2-0.6,0.4-0.9,0.7
		c-0.9-0.4-1.8-0.7-2.7-1c-0.4-2.6-2.4-4.8-5-5.4c-0.2,0-0.3-0.1-0.5-0.1C1626.3,1908.5,1626.7,1908.4,1627.1,1908.3L1627.1,1908.3
		L1627.1,1908.3z M1600,1794.8C1600,1794.8,1600,1794.8,1600,1794.8c-0.4,0.3-0.7,0.6-1.1,0.9c0,0,0,0,0,0
		C1599.3,1795.4,1599.7,1795.1,1600,1794.8L1600,1794.8L1600,1794.8z M1599.9,1795c-0.3,0.8-0.5,1.6-0.8,2.5c-0.7,2.2-1,4.6-1.3,6.9
		c-0.5,3.7-0.7,7.4-0.9,11.1c-0.1,2.3-0.2,4.5-0.4,6.8c-0.3,2.6-0.7,5.2-1.3,7.8c-0.3-1.2-0.7-2.4-0.9-3.6
		c-0.7-5.4-0.8-10.9-0.5-16.3c0.4-3.1,1.1-6.1,2-9c0.6-1.4,1.3-2.8,2.1-4.1C1598.7,1796.4,1599.3,1795.6,1599.9,1795L1599.9,1795
		L1599.9,1795z M1598.9,1795.7C1598.9,1795.7,1598.9,1795.7,1598.9,1795.7c-0.2,0.2-0.3,0.3-0.5,0.4
		C1598.5,1796,1598.7,1795.9,1598.9,1795.7L1598.9,1795.7L1598.9,1795.7z"/>
</g>
<g id="Draw_Layer_1_" class="st0">
	<path class="st5" d="M918.3,642.6c0.6,7.3-1.4,14-3.6,20.5c-1.3,3.8-4,7.3-6.6,10.5c-3.6,4.4-8.3,7.7-13.3,10.7
		c-4.3,2.6-9,3.7-13.8,4.5c-2.6,0.4-5.4,1-8,0.7c-4.8-0.5-9.7-1.4-14.4-2.6c-3.5-0.9-6.8-2.7-9.5-5.3c-0.8-0.8-2-1.1-2.8-1.8
		c-1.1-0.9-1.9-1.9-2.9-2.9c-1-0.9-2.1-1.7-3-2.7c-1.7-1.7-3.1-3.6-3.8-6c-0.3-1-1.4-1.8-1.8-2.8c-1.5-3.6-2.9-7.2-4.2-10.9
		c-1.7-5.1-1.2-10.5-0.6-15.5c0.7-5.3,2-10.8,5.6-15.2c0.4-0.5,0.6-1.2,0.9-1.9c0.6-1.1,1-2.5,1.8-3.4c2.3-2.6,4.6-5.3,7.2-7.5
		c2.2-1.9,4.8-3.6,7.4-4.8c4.1-1.8,8.3-3.7,12.6-4.5c4.1-0.8,8.4-0.1,12.6-0.2c3-0.1,5.8,0.7,8.6,1.5c3.2,0.9,6.4,1.9,9.2,3.8
		c3.5,2.3,7,4.5,9.9,7.6c3.7,4,7.2,8.2,8.9,13.5C916.5,632.5,918.3,637.3,918.3,642.6L918.3,642.6L918.3,642.6z M882,614
		c-2.1,1.2-3.1,3.2-2.4,5.2c1.3,3.8,5.9,6.6,9.8,6c3.7-0.6,6-4.9,4.3-8c-1.5-2.6-4.4-3.1-6.8-4.4C885.5,612.1,883.6,612.7,882,614
		L882,614L882,614z M864.1,606.7c-2.3,1.9-2.1,3.9-1.2,5.2c2,3,3.3,3.8,5.5,2.7c1-0.5,1.7-1.6,2.5-2.5c1.5-1.9,0.5-4.1-1.7-6.1
		C867.6,604.7,865.9,604.9,864.1,606.7L864.1,606.7L864.1,606.7z M1137.7,608.5c0.2,0.4,0.3,0.7,0.5,0.9c5.4,4.2,8.5,10.1,11.1,16.1
		c1.2,2.7,1.7,5.7,2.3,8.7c0.5,2.6,0.8,5.2,0.7,7.8c-0.1,3-0.6,6-1.3,8.9c-0.6,2.8-1.3,5.7-2.6,8.2c-1.8,3.5-3.8,7-6.3,10
		c-3.6,4.5-8.2,8-13.3,10.5c-2.9,1.5-5.9,3.1-9,3.8c-4.4,1.1-8.8,2.4-13.4,1.9c-4.3-0.5-8.5-1.3-12.5-3.3c-2.6-1.3-5.5-2.2-8.2-3.6
		c-2.1-1.1-3.9-2.7-5.9-4.1c-4.7-3.4-7.3-8.4-10.4-13c-2.4-3.7-3.7-7.9-4.2-12.2c-0.4-3-0.8-6-0.7-8.9c0.1-4.1,0.8-8.2,1.9-12.2
		c1.3-4.9,4.1-8.8,6.8-12.9c2.8-4.2,6.4-7.4,10.4-10c4.1-2.7,8.7-4.9,13.3-6.5c5.4-1.9,11.2-1.6,16.9-1.1c3.3,0.3,6.7,1,9.7,2.8
		c2.4,1.5,5.1,2.6,7.7,3.8c1.9,0.9,4,1.6,5.1,3.6C1136.7,607.9,1137.2,608.1,1137.7,608.5L1137.7,608.5L1137.7,608.5z M1142.5,624.3
		c-0.9-2-2.6-2.8-4.5-3.1c-0.9-0.2-2.3,0.4-2.8,1.1c-0.7,1-0.9,2.4-0.9,3.6c0,1,0.7,2.1,1.1,3.1c0.6,1.4,1.3,2.8,2.9,3
		c1.6,0.2,3.2,0.4,4.3-1.3C1144,628.5,1143.8,626.5,1142.5,624.3L1142.5,624.3L1142.5,624.3z M1120.4,613.5c0.8,2.8,3.3,3.9,6,2.7
		c1.4-0.6,2.2-1.6,2.2-3.2c0-1.6-0.3-3-1.9-3.9C1123.4,607.3,1120.1,609.4,1120.4,613.5L1120.4,613.5L1120.4,613.5z"/>
</g>
<g id="Draw_Layer_2_" class="st0">
	<path class="st5" d="M1063.8,619c10.2-17.2,32.5-26.1,51.7-20.6c5.2,1.5,10,3.8,14.8,6.2c2.6,1.3,5.6,3.2,5.4,6.1
		c10.9,3.1,19.9,12.3,22.8,23.2c2.9,11-0.3,23.4-8.2,31.5c-3.2,3.3-7.1,6-11.1,8.4c-5.9,3.5-12,6.6-18.2,9.5c-3,1.4-5.9,2.7-9.1,3.6
		c-5,1.4-10.4,1.6-15.6,0.6c-5.3-1.1-10.3-3.5-15.2-5.8c-2.3-1.1-4.6-2.2-6.7-3.7c-5.2-3.7-8.6-9.3-11.8-14.8
		c-6.8-12-7.4-27.3-1.6-39.8C1062,622,1062.9,620.5,1063.8,619L1063.8,619L1063.8,619z M1092.6,685.3c13.3,3.2,28.1-0.5,38.4-9.6
		c-13.1,2.2-27.2-4.2-34.1-15.5c-6.9-11.3-6.2-26.8,1.7-37.4c7.9-10.6,22.5-15.8,35.4-12.4c-12.7-11.7-32.5-15.2-48.4-8.4
		c-15.9,6.8-27,23.7-26.7,41.1c0.3,17.3,12.1,33.9,28.4,39.7C1089.1,683.5,1091.1,684,1092.6,685.3L1092.6,685.3L1092.6,685.3z
		 M1151.7,630.1c-0.2-1.7-1-3.4-2.4-4.5c-2.3-1.8-5.8-1.9-8.1-0.1s-3.2,5.2-2.1,7.8c1,2.4,3.6,4,6.2,4c2.6-0.1,5.1-1.9,6-4.3
		C1151.6,632.1,1151.8,631.1,1151.7,630.1L1151.7,630.1L1151.7,630.1z M1134,623.6c1.1-0.1,2.1-0.7,3-1.3c1-0.7,1.9-1.5,2.1-2.7
		c0.1-0.7-0.1-1.4-0.5-2c-1-1.9-3.4-3-5.5-2.6s-3.8,2.6-3.6,4.8S1131.8,623.9,1134,623.6L1134,623.6L1134,623.6z M841.8,679
		c-1.5-2.3-2.7-4.9-5-6.4c-9.9-6.1-16.2-17.7-15.9-29.3c0.3-11.6,7.1-22.9,17.4-28.5c1.5-0.8,3.1-1.6,3.9-3.1c1-1.9,2.8-3.3,4.6-4.5
		c16.7-11.1,40-11.5,57.1-0.8c11.7,8.5,19.3,22.6,19.9,37.1c0.7,14.5-5.6,29.2-16.5,38.7c-1.3,1.1-2.6,2.2-4,3.2
		c-5,3.6-10.7,6.2-16.7,7.7c-5.6,0.9-11.3,1.1-17,0.6c-6.5-0.6-13-2.1-18.4-5.5C847.4,685.9,844.1,682.7,841.8,679L841.8,679
		L841.8,679z M844.6,612.5c15.1-4.8,33.1,2.9,40,17.2c6.9,14.3,1.7,33.2-11.4,42c-8.8,5.9-20.6,7.2-30.5,3.5
		c0.9,5.8,6.1,9.9,11.3,12.5c15.1,7.5,34.3,6,48.1-3.7c13.8-9.7,21.6-27.3,19.5-44.1c-2.1-16.7-14.2-31.8-30.1-37.5
		C875.7,596.8,856.7,600.8,844.6,612.5L844.6,612.5L844.6,612.5z M862,629c0.8,4.1,5.4,7,9.5,6s6.6-5.9,5.2-9.9
		c-0.8-2.4-3-4.3-5.5-4.9c-2.5-0.6-5.2,0.2-7,1.9S861.5,626.5,862,629L862,629L862,629z M858.6,621.5c1.8-1.5,1.5-4.9-0.6-6
		c-0.9-0.5-2-0.6-3.1-0.5c-1.6,0.1-3.4,0.7-4.2,2.1c-0.8,1.5-0.2,3.6,1.1,4.6c1.4,1.1,3.3,1.2,4.9,0.7
		C857.4,622.3,858.1,622,858.6,621.5L858.6,621.5L858.6,621.5z"/>
</g>
<g id="Draw_Layer_3_" class="st0">
	<path class="st5" d="M1127,675.5c-3.8,2-8,3.4-12.3,4.2c-8,1.4-16.3,0.5-23.8-2.6c-9.9-4.1-18.2-12.2-22.5-22.1
		c-8.8-20,1-46.3,20.8-55.6c19.8-9.3,46.3-0.1,56,19.6C1155,638.6,1146.4,665.3,1127,675.5L1127,675.5L1127,675.5z M1088.9,646.2
		c1.9,3.9,5,7.1,8.8,9.2c11.2,5.9,27.1-1.9,29.4-14.4c2.2-12.5-10.1-25.3-22.7-23.6C1091.8,619.1,1083.4,634.7,1088.9,646.2
		L1088.9,646.2L1088.9,646.2z M867.7,683.3c-18.5-0.2-36.1-13.7-41-31.5s3.2-38.5,19-48.1c15.1-9.2,35.9-7.8,49.6,3.4
		c13.7,11.2,19.3,31.3,13.3,47.9C902.5,671.5,885.4,683.4,867.7,683.3L867.7,683.3L867.7,683.3z M864.6,662.9c3.3,0,6.6-0.8,9.6-2.4
		c2.9-1.5,5.5-3.8,7.4-6.5c7.2-10.2,2.7-26.5-8.8-31.5c-11.4-5-26.5,2.9-29,15.1S852.2,662.9,864.6,662.9L864.6,662.9L864.6,662.9z"
		/>
</g>
<g id="Draw_Layer_4_" class="st0">
	<path class="st5" d="M1066.8,663.6c-1.4-1-3.1-1.4-4.7-2c-6.3-2.5-10.7-9.1-10.6-15.9c25.6-13.8,50.3-29.2,73.8-46.3
		c3.6-2.6,8.9-2.4,12.3,0.4c3.4,2.8,4.6,8.1,2.6,12.1c-0.7,1.4-1.7,2.7-2.1,4.2c-1,3.4,1,6.8,2.5,9.9c8.9,18.4,1.5,43-16.2,53.4
		c-17.6,10.4-42.8,4.9-54.5-11.9C1069.1,666.1,1068.1,664.6,1066.8,663.6L1066.8,663.6L1066.8,663.6z M917.5,662.2
		c-4-1-6.8,3.5-8.9,7c-10.7,18.3-36.7,25.5-55.3,15.4c-18.6-10.2-26.5-36.1-16.8-54.9c1.1-2.1,2.3-4.1,2.6-6.4
		c0.3-2.3-0.8-5-3.1-5.6c-4.9-1.3-6.3-8.5-3-12.4c3.3-3.8,9.5-4.2,13.9-1.7c29.1,16.6,58.2,33.1,87.3,49.7c-1.2,2.9-2.4,5.9-4.6,8.1
		s-5.6,3.5-8.5,2.4C919.8,663.4,918.7,662.5,917.5,662.2L917.5,662.2L917.5,662.2z"/>
</g>
</svg>
