<?xml version="1.0" encoding="utf-8"?>
<!-- Generator: Adobe Illustrator 22.0.1, SVG Export Plug-In . SVG Version: 6.00 Build 0)  -->
<svg version="1.1" id="Layer_1" xmlns="http://www.w3.org/2000/svg" xmlns:xlink="http://www.w3.org/1999/xlink" x="0px" y="0px"
	 viewBox="0 0 1804 1482" style="enable-background:new 0 0 1804 1482;" xml:space="preserve">
<style type="text/css">
	.st0{display:none;}
	.st1{fill:#2C2C2C;}
	.st2{fill:#BEBEBE;}
	.st3{fill:#6EDAF4;}
	.st4{fill:#725AF7;}
	.st5{display:inline;fill:#161616;}
</style>
<g id="Background" class="st0">
</g>
<g id="Draw_Layer">
	<path class="st1" d="M1201.1,1031.4c-1.3-18.6-5.4-38.5-19.2-51.1c-13.7-12.6-39.7-12.7-48.3,3.8c-0.5-45.2-8.9-90.4-24.5-132.9
		c-6.5-17.8-14.4-35.2-17.7-53.8c-3.1-17.6-2-35.6-2.6-53.4c-2.5-72.1-35-142.6-88-191.5c28.1-21.5,39.1-60,35.6-95.2
		c-3.5-35.2-19.3-67.9-36.6-98.9c-6.6-11.9-12.8-28.8-2.2-37.4c18.5-15,5-48.9-18.1-54.8c-23.1-5.8-46.8,8.3-62.7,26.1
		c-47-14.1-98.8-11.9-144.5,6.1c-17-20.7-51.8-23.1-71.5-5c-19.7,18.1-20.2,53.1-0.9,71.7c10.5,10.2,12.5,26.5,10,40.9
		C707.3,420.6,701,434,697,448c-6.8,24-6.4,49.9,0.9,73.8c4.9,16,12.8,34.1,3.8,48.2c-44,70-56.6,154.6-68.2,236.5
		c-3.1,21.7-6.1,43.4-7.7,65.2c-6.4,89.6,12.9,179.2,37.6,265.6c14.3,49.8,36.9,105.8,86.3,120.9c32.3,9.9,70.3-3.1,89.8-30.7
		s19.2-67.7-0.9-94.9c19.2,2.3,38.4,4.6,57.6,6.9c-2.8,32.1-4.9,67.1,13.6,93.5c20.1,28.6,60.6,37.9,94.2,28.2
		c33.6-9.7,60.8-35.1,80.8-63.8c28.7-41.2,45.3-90.7,47-140.8c13.7,14.3,33.1,29.8,51.1,21.6c14.2-6.4,18.4-23.7,18.4-40
		C1201.4,1036.1,1201.3,1033.7,1201.1,1031.4L1201.1,1031.4L1201.1,1031.4z M1131.5,1034.7c0-3.9,0.1-7.8,0.2-11.7
		c0.1-6,0.5-12.8,5.2-16.6c2-1.6,1.8-4.7,2-7.3c0.5-7.7,6.2-14.7,13.5-17c9.9-3.1,21,2.4,27.2,10.7c6.3,8.3,8.7,18.8,10.6,29
		c1.9,10.6,3.3,21.8-0.6,31.7s-15.3,17.8-25.4,14.2c-3.8-1.3-7-4.1-10.1-6.7c-6.7-5.8-13.4-11.6-20.1-17.4c-2.2-1.9-2.5-5.1-2.5-8.1
		C1131.5,1035.3,1131.5,1035,1131.5,1034.7L1131.5,1034.7L1131.5,1034.7z M943.2,970.3c2,0.1,4-1,5.5-1.9
		c6.4-3.7,12.6-7.8,17.4-12.5c3.8-3.8,6.8-8,8.2-13c0.4-1.5,0.7-3,0.8-4.6c23.8-7.4,46.5-23.9,65.7-47.8c15.3-19,27.1-40.6,38.4-63
		c1.3-2.5,2.6-5.1,3.8-7.7l0,0l0,0c3.3,5.8,6.5,11.8,9.4,18c6.4,13.4,11.6,27.3,15.8,41.6c2.3,7.9,4.4,16,6.2,24.3
		c1.9,9,3.5,18.3,4.8,27.8v0c0,0,0,0.1,0,0.2c1.2,8.9,2.1,17.8,2.7,26.8c0.8,11.5,1.2,23.3,1.2,35.4c0,10.6-0.3,21.6-0.9,32.7
		c-0.1,2.3-0.3,4.7-0.4,7l0,0l0,0c-12.7-13.7-30.2-23.1-50.4-27.2c-19-3.9-39.7-2.8-58.5,2.9c-17.7,5.4-34.9,14.7-51.2,27.6
		c-14.4,11.4-28.2,25.6-41,42.4c-8.7,11.5-19.2,26.9-22.2,44.2c-2.5,1-5.2,1.7-7.9,2.2c-5.7,1.1-11.7,1.1-17.5,0.2
		c-4.6-0.7-9.2-2-13.7-4s-8.6-4.4-12.3-7.3c0,0,0,0-0.1-0.1c0,0,0,0,0,0c-4.6-3.6-8.6-8-11.7-13c-1.4-2.2-2.6-4.6-3.6-7
		c-13.4-33.3-44.9-59.2-80.2-65.7c-33.9-6.3-70.8,5-95.4,29.1c-1,1-2.1,2.1-3.1,3.2l0,0l0,0c-14-48.9-21.2-99.7-21.2-150.9
		c0-31.1,2.6-62.2,7.9-92.6c1.8-10.5,5.5-24.9,17.2-28.7c19.1,49.6,54,93.2,98.2,122.7c6.5,4.3,9.6,11.9,12.7,19.3l0.3,0.7l0.4,1
		c3,7.2,7.6,15.9,15.8,18.7c3.6,1.2,7.9,0.3,11.4-2.1c2.9-2.1,4.5-4.9,4.5-7.7c0-1-0.2-2-0.6-2.9c-0.3-0.7-0.4-1.4-0.4-2.2
		c0-2.1,1.2-4.1,3.3-5.7c2.6-1.9,5.8-2.6,8.5-1.7c5.8,1.8,9.4,7.5,12.4,13.4c1.4,2.9,4.4,4.4,8.2,4.2c1.1,0,2.3-0.3,3.4-0.6
		c1-0.3,2.1-0.8,3.1-1.4c2.5-1.5,4.5-3.6,5.4-6.1c0.8-2.1,1.2-4.4,1.2-6.9c0-6-2.4-12.2-4.9-18.1c2.4-3.7,6.6-1.7,11.1,0.3
		c3.9,1.8,8.1,3.8,11.6,2.3c2.6-1.1,4.1-3.7,4.1-7.6c0-2.4-0.5-5.2-1.5-8c-7.2-21.2-14.7-43.1-24.6-63.6c-2.4-5-5-9.9-7.5-14.8l0,0
		c-4.3-8.3-8.8-16.9-12.4-25.7c-1.8-4.5-3.5-9.1-5-13.8c-3.4-11-5.7-22.3-6.8-33.8v0v0c-0.5-5.2-0.7-10.5-0.7-15.7
		c0-12.6,1.4-25.2,4.2-37.3c0.9-3.8,2.1-8.1,4.9-11.3c3.2-3.5,8.1-5.1,12.9-6.2c8.1-1.9,16.3-3,24.5-3.4h0c0.1,0,0.2,0,0.3,0
		c0,0,0.1,0,0.2,0s0.1,0,0.1,0c0.1,0,0.2,0,0.3,0l0,0c3.4-0.1,6.9-0.2,10.3-0.1h0l0,0c26.5,0.3,52.9,6.5,76.7,12.8
		c4.2,1.1,8.1,2.3,10.4,5.5c1.3,1.8,1.9,4.1,1.9,6.9c0,2.2-0.3,4.4-0.7,6.5c-8.3,44.7-22.9,88-43.4,128.7c-0.4,0.7-0.7,1.5-1.1,2.2
		c-5.2,10.4-10.7,21.1-11.3,32.7c-0.1,1.7-0.6,3.3-1.4,4.8l0,0l0,0c-0.5,1-1.2,2-2,2.9c-1.7,2-3.9,3.8-5.9,5.3l-0.4,0.3
		c-4.4,3.3-9.1,6.7-10.4,12c-0.1,0.6-0.2,1.2-0.2,1.8c0,2.9,1.7,6.1,4.1,7.6c1.6,1,3.4,1.2,5.1,0.5c1.1-0.5,2.3-0.8,3.5-0.9
		c3.9-0.4,8,1.1,10.7,3.9c0.8,0.8,1.5,1.8,2.1,3c0.7,1.5,1.1,3.2,1.1,5c0,4.8-2.7,9.4-6.7,11.5c-1.8,0.9-2.9,2.7-2.9,4.9
		c0,3.9,3.4,8.9,7.9,9.7c5.1,0.9,10.2-1.2,15.1-3.3l0.1,0c1.4-0.6,2.9-1.2,4.3-1.7c4.2-1.5,9.1-1.9,12.9-0.6c1.2,0.4,2.2,1,3.2,1.7
		l0,0l0,0c0.9,0.7,1.6,1.6,2.1,2.7c0.7,1.2,1,2.6,1,4.1c0,3-1.2,6.1-2.5,9.2l0,0.1c-0.3,0.8-0.6,1.6-0.9,2.4c-0.5,1.5-0.8,3.3-0.8,5
		C937.6,965.6,939.1,970.1,943.2,970.3L943.2,970.3L943.2,970.3z M905.1,1160c0.2-14.9,1.2-31.9,10.6-44.7
		c20.8-28.7,45.7-54,74-75.3c7.6-5.7,14.3-10.2,21.7-13c5.8-2.2,12.3-3.5,20.4-4.1c14.1-1.1,28.3,0.3,42.3,4.1
		c13.9,3.8,26.9,9.8,38.5,17.9c3.6,2.5,7.2,5.4,8.9,9.4c0.8,2,1.3,4.4,1.3,7.5c0,1.2,0,2.5-0.1,3.5c-1.5,25.8-7.3,51.2-17.4,75.4
		c-10.1,24.3-23.9,46.3-41.1,65.6c-8.1,9-15.9,16.4-24,22.5c-12.9,9.8-27.3,17.2-42.9,21.8c-12.3,3.7-22.7,4.7-31.4,4.3
		c-8.7-0.4-17.3-2.3-25-6.2c-1-0.5-2-1.1-2.9-1.6c-12.9-7.7-22.8-21.5-27.9-38.8c-4.3-14.7-4.9-30.2-4.9-42
		C905,1164.6,905,1162.6,905.1,1160L905.1,1160L905.1,1160z M980.9,567.8c2.7-2.2,5.4-4.3,8.6-4.3c2.9,0,5.6,1.7,7.9,3.4
		c7.4,5.4,14.1,11.4,20.2,18c4.9,5.3,9.5,11,13.7,17c21.9,31,33.9,68.9,42.1,101.4c3.7,14.6,7.3,30.3,8.4,46.1
		c0.2,3.6,0.4,7.2,0.4,10.9l0,0c0,48-22.4,98.1-61.7,137.2c-14,14-26.6,22.9-39.6,28.1c-16.6,6.6-33.9,6.5-47.5-0.1
		c-14.7-7.2-24.8-22.4-25.9-38.7c0-1-0.1-2.1-0.1-3.2c0-12.5,4.7-24.9,8.9-35.8l14.4-37.5l14.5-37.7c4.9-12.9,10.1-26.2,13.5-39.8
		c3.2-13.1,4.9-26.6,4.9-40.4c0-4.7-0.2-9.4-0.5-14c-1.9-23.6-8.7-46.9-20-67.8c-1.4-2.6-2.9-5.2-4.5-7.8
		C952.8,591.1,966.9,579.4,980.9,567.8L980.9,567.8L980.9,567.8z M718.3,368l7-8.3l7-8.3c9.5-11.3,19.8-23.5,31.9-33.6
		c0,0,0,0,0.1,0l0,0c2.4-2,4.9-4,7.5-5.8c4.3-3,8.8-5.7,13.5-8c17.2-8.3,36.4-10.5,53-11.6c20.2-1.3,35.4-0.6,49.4,2.1
		c24.4,4.9,46.6,16.9,68.1,28.5c21.2,11.5,33.4,34.1,43.2,54.4c4.8,10.1,9.8,20.9,14.2,32.2c5.7,14.7,10.4,29.7,13,45.1
		c0.8,4.8,1.4,9.6,1.8,14.5c0.2,3.4,0.4,6.6,0.4,9.6c0,7.2-0.7,13.5-2.2,19.4c-3.6,14.1-11.7,25.8-22.1,36.9
		c-5,5.4-10.6,10.5-16.1,15.4c-2.3,2-4.7,4.1-7.2,6.2c-20.4,17.4-44.4,38-72.1,49.5c-4.5,1.9-9.1,3.5-13.8,4.9
		c-5.9,1.7-12.1,3-18.3,3.7c-6.4,0.7-13.5,0.9-22.1,0.5c-29.6-1.2-72.4-8.5-107.5-36.2c-14.2-11.2-26.1-25.4-34.4-41.3
		c-2.8-5.4-5.2-10.9-7.2-16.5c-2.2-6.3-3.8-12.9-4.9-19.5c-0.8-5.1-1.2-10.3-1.2-15.4c0-2.5,0.1-5,0.3-7.5
		c1.1-14.2,5.3-28.4,9.3-42.1c4.6-15.7,9.4-31.9,9.4-47.8c0-5.7-0.6-11-1.8-16.2c0-0.2-0.1-0.4-0.1-0.7
		C716.3,370.7,717.2,369.3,718.3,368L718.3,368L718.3,368z M930.3,291.9c1.4-4.1,5.2-7.1,7.9-8.9c2.7-1.8,5.5-3.4,8.4-4.7
		c0,0,0,0,0,0h0c3.5-1.6,7.2-2.8,11-3.5c2.6-0.5,5.3-0.8,7.9-0.8c10.2-0.1,20,3.6,26.8,10.2c4.5,4.3,7.1,9.6,7.1,14.6
		c0,0.9-0.1,1.9-0.3,2.8c-0.8,3.9-3.4,7.3-5.6,10.3l-3.3,4.4l-5.9,7.8c-1,1.4-2.7,2.9-4.4,3.1c-0.7,0-1.3-0.1-1.8-0.5
		c-12.9-11.1-28.8-17.8-44.1-24.3c-2.6-1.1-4.2-3.9-4.2-7.3C929.7,293.9,929.9,292.8,930.3,291.9L930.3,291.9L930.3,291.9z
		 M953,945.3c2.5-3.7,7.8-5.2,12-3.4c-1.4,2-2.8,3.9-4.2,5.9l0.1,0.1c-2.4,1.9-4.8,3.8-7.2,5.8c-1.3-0.9-1.9-2.4-1.9-4.1
		C951.6,948.1,952.1,946.6,953,945.3L953,945.3L953,945.3z M827.5,633.4c0.3-0.7,0.9-2,1.8-3.3c0.4-0.6,0.8-1.3,1.3-1.9
		c2.3-3,5.6-5.8,9.7-4.7c28.3,8.1,58-2.6,88.4-15.2c5.4,7.8,10.1,16.1,14.2,24.7c3.3,6.8,6.1,13.9,8.6,21.1
		c3.1,9.4,5.6,19.1,7.2,28.8l0,0c-4.9-5.9-12.8-8.2-19.8-10c-37.1-9.2-76.3-11.1-114.1-5.5c-3.2,0.5-6.5,1-9.7,1.6l0,0l0,0
		C818,656.9,822.3,644.8,827.5,633.4L827.5,633.4L827.5,633.4z M910.7,927.6c1.6-0.8,3.6,0,4.9,1.2c0.2,2.1-2.6,3.1-4.7,2.6
		c0,0.1,0,0.2,0,0.3c-0.9-0.1-1.4-1-1.4-1.9C909.6,928.9,909.9,928,910.7,927.6L910.7,927.6L910.7,927.6z M894.2,888.9
		c2-0.7,4.4,1,4.4,3.1l-0.6,0.3c-0.2,2.1-3.3,3.2-4.9,1.8c-0.6-0.5-0.9-1.3-0.9-2.1C892.2,890.7,892.9,889.3,894.2,888.9
		L894.2,888.9L894.2,888.9z M852.4,895.2l0.9-0.6c2.9,2.1,4.5,5.9,3.9,9.5c-3.1-0.2-5.5-3.3-5.5-6.4
		C851.7,896.8,851.9,896,852.4,895.2L852.4,895.2L852.4,895.2z M803.1,761.2c1.9,16.5,5.7,32.5,11.8,47.8c2,5.1,4.3,10,6.8,14.7
		c2.2,4.1,4.6,8.1,6.9,12.1c3.9,6.5,7.9,13.3,10.9,20.4c3.4,8.1,5.2,15.9,5.2,23.1c0,4.6-0.7,9-2.2,13c-3.1,8.6-9.7,15.7-19,20.4
		c-8.6,4.4-18.7,6.2-28.4,5.2c-5.3-0.5-12.3-1.9-21.4-6c-8.6-3.8-16.8-9.2-24.3-15c-1.8-1.3-3.6-2.8-5.5-4.3
		c-37.5-30.8-66.4-71.1-83.6-116.5c-3.9-10.3-8.4-24.1-9-38.6c0-1.1,0-2.2,0-3.2c0-12.7,2.8-25.3,5.9-37
		c11.8-44.7,29.9-87.3,53.8-126.9c2-3.3,4-6.6,6.1-9.9l0,0l0,0c22.2,31,57,52.6,94.5,59.2c3.5,0.6,7,1.1,10.5,1.4l0,0l0,0
		c-6.6,10.1-10.5,21.6-13.1,33.2c-0.3,1.6-0.7,3.3-1,4.9c-1.1,5.6-1.9,11.1-2.6,16.4c-2.8,20.3-4.1,38.2-4.1,54.9
		C801.5,741.3,802,751.5,803.1,761.2L803.1,761.2L803.1,761.2z M662.6,1080.1c12.2-15.2,29.1-26.6,47.7-32.2c3-0.9,6-1.6,9.1-2.2
		c1.8-0.3,3.6-0.6,5.5-0.8c15.7-1.7,31.8,2.2,45.8,9.9c4.3,2.3,8.5,5,12.5,8.1c3.3,2.5,6.5,5.3,9.6,8.4c9.7,9.5,17.7,20.6,24.4,32.5
		c2.3,4.1,4.5,8.4,6.7,13c11.1,23.5,17,46.8,17.8,69c0,1.3,0,2.5,0,3.7c0,14.8-3,26-9.3,34.5c-7.5,10.2-19.6,16-30.3,20.3
		c-8,3.2-17.5,6.6-27.6,7.5c-3.5,0.3-7.1,0.3-10.6,0c-5.6-0.5-11.2-1.7-16.6-3.6c0,0,0,0-0.1,0c0,0-0.1,0-0.1,0
		c-4.2-1.5-8.4-3.3-12.5-5.6c-11.9-6.7-22.7-16.4-31.3-28.2c-16.7-22.9-24.7-50.5-32.5-77.1l-9-30.7l-5.3-18.2
		C658.5,1085.4,660.5,1082.7,662.6,1080.1L662.6,1080.1L662.6,1080.1z M830.6,922.2c2.2,0.3,3.7,2.6,3.9,4.8
		c0.2,2.2-0.6,4.4-1.4,6.5c-1.9-0.9-3.7-2.3-4.9-4.1l0.1-0.2c-1-0.6-1.5-1.6-1.5-2.8C826.7,924.2,828.3,921.9,830.6,922.2
		L830.6,922.2L830.6,922.2z M784.5,925.9c2.1,0.5,4.3,1.1,5.9,2.6c1.6,1.4,2.4,4,1.2,5.8c-2,3-6.7,1.2-9.7-0.9
		c-3.8-2.7-8-5.9-8.7-10.5C777,924,780.8,925,784.5,925.9L784.5,925.9L784.5,925.9z M694.1,313.5c5.7-11.2,17.7-18,29.8-21.4
		c10.7-3,23-3.5,32.3,2.6c3.2,2.2,6.2,5.8,5.4,9.7c-0.4,1.9-1.6,3.5-2.8,5c-10.4,13.2-20.9,26.4-31.3,39.6c-4.5,5.6-9,11.4-15,15.5
		c0.6-3.7-1.3-7.7-4.7-9.3c-10.5-5.2-16.8-17-16.8-28.6C691.1,322.1,692.1,317.6,694.1,313.5L694.1,313.5L694.1,313.5z"/>
	<path class="st1" d="M963.6,422c-7.2-11.6-19-19.7-29.4-26.9c-6.3-4.3-12.8-8.8-20.4-11c-13.9-4-30.3,1.4-39,13
		c-4.6,6.1-7.1,13.8-7.1,21.8c0,7,1.8,13.6,5.4,19.2c5.6,8.8,15.5,15.7,27.9,19.4c11.2,3.3,22.9,3.9,34.4,4.4c3,0.1,6.1,0.3,9.1-0.4
		c6.2-1.4,11.1-6.4,15.1-10.3c3-3,6.4-6.5,7.8-10.9c0.5-1.5,0.7-3.1,0.7-4.8C968,430.3,965.6,425.2,963.6,422L963.6,422L963.6,422z
		 M876.9,416.4c0.1-8.2,5.3-16.5,13.4-21.6c2.9-1.8,5.5-2.8,8-3.1c3.7-0.3,7.3,0.9,10.4,2.2c17.3,6.9,33,17.9,45.5,31.7
		c2.1,2.4,4.5,5.2,5.1,8.6c0.1,0.5,0.1,1.1,0.1,1.7c0,4.9-3.8,9.9-9.2,12.1c-5.6,2.3-11.9,1.9-17.6,1.5c-8.9-0.5-17.9-1.1-26.8-1.6
		c-2.4-0.1-4.8-0.6-7.1-1.4c-9.7-3.2-17.8-11.6-20.8-21.4c-0.8-2.7-1.2-5.5-1.2-8.3C876.9,416.7,876.9,416.5,876.9,416.4
		L876.9,416.4L876.9,416.4z"/>
	<path class="st1" d="M892.1,496.1c-0.6-0.9-1.3-1.7-2.2-2.3c-1.3-0.9-2.8-1.6-4.4-2c-2.6-0.6-5.6-0.8-8.6-0.8
		c-6.6,0-13.3,0.1-19.9,0.1h-0.1h-0.3c-5.4,0-11.5,0.4-14.9,4.4c-1.8,2.1-2.8,5.2-2.8,9c0,0.1,0,0.3,0,0.5
		c0.2,11.6,7.9,21.4,16.5,31.2c6.1,7.1,11.4,9.7,16.1,8c2.8-1,4.8-3.6,6.5-5.9c6.2-8.7,11-18.3,14.3-28.5c1-3.1,1.5-5.6,1.5-7.9
		C893.7,499.7,893.2,497.7,892.1,496.1L892.1,496.1L892.1,496.1z M849.4,506.8c0.4-2.5,2.9-4.2,7.3-5.1c5.4-1,11-1.7,16.5-2
		c4.5-0.2,7.3,0.7,8.5,3c0.4,0.7,0.5,1.5,0.5,2.4c0,1.6-0.6,3.2-1.1,4.7c-2.2,5.9-4.4,11.9-6.7,17.9c-1.4,3.8-3.1,5.6-5.3,5.5
		c-1.5,0-2.8-1.1-3.8-2c-6.1-5.5-11.2-12.3-14.8-19.7c-0.5-1.1-1.1-2.5-1.1-3.9C849.4,507.3,849.4,507.1,849.4,506.8L849.4,506.8
		L849.4,506.8z"/>
	<path class="st1" d="M823.6,383.6c-7.3-4.8-17.4-5.9-27.1-2.9c-3.1,0.9-6,2.3-8.7,3.8c-3,1.7-5.9,3.8-8.5,6.1
		c-4.4,3.8-7.9,8-10.5,11.7c-7,9.8-11.7,21.2-15.9,31.9c-1.9,5-3.9,10.3-5.9,15.6c-2.2,6.1-3.4,11.5-3.4,16c0,5.4,1.7,9.6,5,12.4
		c7.1,6,18.1,2.5,26-1.4c12.3-6.2,23.9-13.8,34.6-22.5c13.7-11.2,21.6-21.6,25.2-32.9c1.1-3.7,1.7-7.5,1.7-11.5
		C836.1,398.6,831.4,388.8,823.6,383.6L823.6,383.6L823.6,383.6z M754.4,463.7l1.8-6.3l1.8-6.4c4-14,8.1-28.5,16.6-40.8
		c9.4-13.7,23.1-21.8,36.6-21.6c2.8,0,4.9,0.4,6.7,1.2c2.5,1.2,4.8,3.5,6.5,6.8c1.9,3.6,2.8,7.7,2.8,12.2c0,5.6-1.6,11.7-4.5,17.1
		c-4.8,9-12.7,16.2-20.4,22.5c-11.6,9.6-25.8,19.6-42.2,21.3c-1.7,0.2-4.8,0.1-5.8-2c-0.2-0.4-0.3-0.8-0.3-1.4
		C753.9,465.3,754.2,464.5,754.4,463.7L754.4,463.7L754.4,463.7z"/>
	<path class="st2" d="M1123.4,994c0-32.5-3-62.9-8.9-90.2c-6.6-31-17.2-59.2-31.4-83.9c-12.5,25.1-25.2,49.5-42.3,70.6
		c-19.3,23.8-42,40.4-65.7,47.8c-0.9,13.4-13.2,22.4-26.3,30.1c-1.5,0.9-3.5,2-5.5,1.9c-4.2-0.2-5.6-4.6-5.6-8.4
		c0-1.7,0.3-3.5,0.8-5c0.3-0.8,0.6-1.6,0.9-2.4l0-0.1c1.2-3,2.5-6.2,2.5-9.2c0-1.5-0.3-2.9-1-4.1c-2.9-5.8-11.4-6.4-18.3-3.8
		c-1.4,0.5-2.9,1.1-4.3,1.7l-0.1,0c-4.9,2-9.9,4.2-15.1,3.3c-4.5-0.8-7.9-5.8-7.9-9.7c0-2.2,1-3.9,2.9-4.9c4-2,6.7-6.6,6.7-11.5
		c0-1.8-0.3-3.4-1.1-5c-2.7-5.7-10.5-8.6-16.4-6c-1.6,0.7-3.4,0.5-5.1-0.5c-2.4-1.5-4.1-4.7-4.1-7.6c0-0.6,0.1-1.2,0.2-1.8
		c1.3-5.2,5.9-8.7,10.4-12l0.4-0.3c4.2-3.1,9.2-7.5,9.4-13.1c0.5-11.6,6-22.3,11.3-32.7c0.4-0.7,0.7-1.5,1.1-2.2
		c20.5-40.7,35.1-83.9,43.4-128.7c0.4-2,0.7-4.3,0.7-6.5c0-2.9-0.6-5.1-1.9-6.9c-2.3-3.2-6.2-4.4-10.4-5.5
		c-34.6-9.1-74.7-18-112.8-9.1c-4.7,1.1-9.6,2.6-12.9,6.2c-2.8,3.1-4,7.4-4.9,11.3c-2.8,12.1-4.2,24.6-4.2,37.3
		c0,21.7,4.3,43.6,12.5,63.4c3.6,8.8,8.1,17.4,12.4,25.7l0,0c2.5,4.8,5.1,9.8,7.5,14.8c9.9,20.5,17.4,42.4,24.6,63.6
		c0.9,2.8,1.5,5.7,1.5,8c0,3.9-1.4,6.5-4.1,7.6c-3.5,1.4-7.6-0.4-11.6-2.3c-4.5-2.1-8.7-4.1-11.1-0.3c2.4,5.8,4.9,12,4.9,18.1
		c0,2.4-0.4,4.7-1.2,6.9c-1.7,4.4-6.7,7.9-12,8.2c-3.7,0.2-6.7-1.3-8.1-4.2c-3-5.9-6.6-11.6-12.4-13.4c-2.7-0.8-6-0.1-8.5,1.7
		c-2.1,1.5-3.3,3.6-3.3,5.7c0,0.7,0.1,1.5,0.4,2.2c0.4,0.9,0.6,1.9,0.6,2.9c0,2.8-1.6,5.6-4.5,7.7c-3.5,2.5-7.9,3.3-11.4,2.1
		c-8.2-2.7-12.7-11.4-15.8-18.7l-0.4-1l-0.3-0.7c-3-7.3-6.2-14.9-12.7-19.3c-44.2-29.5-79.1-73-98.2-122.7
		c-11.6,3.8-15.3,18.3-17.2,28.7c-5.2,30.4-7.9,61.5-7.9,92.6c0,51.3,7.1,102.1,21.2,150.9c24.5-26.2,63.3-38.9,98.6-32.3
		c35.3,6.6,66.8,32.4,80.2,65.7c4.8,11.9,14.9,21.9,27.7,27.4c12.8,5.6,27,6.1,39,1.5c3.1-17.4,13.5-32.8,22.2-44.2
		c12.8-16.8,26.5-31,41-42.4c16.3-12.9,33.6-22.2,51.2-27.6c18.8-5.7,39.6-6.8,58.5-2.9c20.3,4.1,37.7,13.6,50.4,27.2
		C1123,1020.2,1123.4,1006.8,1123.4,994L1123.4,994L1123.4,994z"/>
	<path class="st2" d="M1028.4,478.8c0-3-0.1-6.2-0.4-9.6c-2.6-33.2-16.1-65-29-91.8c-9.8-20.3-22-43-43.2-54.4
		c-21.5-11.6-43.6-23.6-68.1-28.5c-14-2.8-29.2-3.4-49.4-2.1c-16.5,1-35.8,3.2-53,11.6c-21.9,10.6-38.5,30.3-53.1,47.6l-7,8.3
		l-7,8.3c-1,1.2-2,2.6-2,4.1c0,0.2,0,0.4,0.1,0.7c1.2,5.2,1.8,10.5,1.8,16.2c0,15.9-4.7,32.2-9.4,47.8c-4,13.7-8.2,27.9-9.3,42.1
		c-0.2,2.5-0.3,5-0.3,7.5c0,17.2,4.6,34.9,13.3,51.4c8.3,15.8,20.3,30.1,34.4,41.3c35.2,27.7,77.9,35,107.5,36.2
		c8.6,0.3,15.7,0.2,22.1-0.5c41.6-4.6,76.3-34.3,104.2-58.1c21.3-18.2,39.5-35.2,45.4-58.5C1027.7,492.3,1028.4,486,1028.4,478.8
		L1028.4,478.8L1028.4,478.8z M867.7,418.9c0-8,2.5-15.8,7.1-21.8c8.7-11.6,25.1-17,39-13c7.5,2.2,14.1,6.7,20.4,11
		c10.4,7.2,22.2,15.4,29.4,26.9c2,3.3,4.5,8.3,4.5,13.6c0,1.7-0.2,3.3-0.7,4.8c-1.4,4.4-4.8,7.8-7.8,10.9
		c-3.9,3.9-8.8,8.9-15.1,10.3c-3,0.7-6.1,0.5-9.1,0.4c-11.4-0.5-23.2-1.1-34.4-4.4c-12.4-3.7-22.3-10.6-27.9-19.4
		C869.5,432.5,867.7,425.8,867.7,418.9L867.7,418.9L867.7,418.9z M838.8,504.6c0-3.7,0.9-6.8,2.8-9c3.4-4,9.5-4.4,14.9-4.4h0.3h0.1
		c6.6,0,13.3-0.1,19.9-0.1c6.1,0,12.3,0.5,15.3,5.1c1,1.6,1.6,3.5,1.6,5.8c0,2.2-0.5,4.7-1.5,7.9c-3.3,10.2-8.1,19.8-14.3,28.5
		c-1.6,2.3-3.6,4.9-6.5,5.9c-4.7,1.7-10-0.9-16.1-8c-8.5-9.8-16.2-19.6-16.5-31.2C838.8,504.9,838.8,504.8,838.8,504.6L838.8,504.6
		L838.8,504.6z M743.4,465.7c0-4.4,1.1-9.8,3.4-16c1.9-5.3,3.9-10.6,5.9-15.6c4.2-10.7,8.9-22,15.9-31.9
		c5.4-7.6,14.6-17.5,27.7-21.5c9.7-3,19.9-1.9,27.1,2.9c7.8,5.2,12.5,15,12.5,26.1c0,3.9-0.6,7.8-1.7,11.5
		c-3.5,11.2-11.5,21.7-25.2,32.9c-10.7,8.8-22.3,16.4-34.6,22.6c-7.9,4-18.9,7.5-26,1.4C745.1,475.3,743.4,471.1,743.4,465.7
		L743.4,465.7L743.4,465.7z"/>
	<path class="st3" d="M844.9,879.3c0-7.2-1.7-15-5.2-23.1c-3-7.1-7-13.9-10.9-20.4c-2.3-3.9-4.7-8-6.9-12.1
		c-13.7-25.8-20.4-56.3-20.4-93.3c0-16.7,1.3-34.6,4.1-54.9c2.4-17.7,5.9-38,16.8-54.5c-41.5-4.1-80.8-26.7-105.1-60.7
		c-26.9,42.3-47.1,88.2-59.9,136.7c-3.1,11.7-5.9,24.2-5.9,37c0,1.1,0,2.1,0,3.2c0.6,14.5,5.1,28.2,9,38.6
		c17.2,45.4,46,85.7,83.6,116.5c24.9,20.5,41.2,24.2,51.2,25.3c9.7,1,19.8-0.8,28.4-5.2c9.3-4.7,15.8-11.7,19-20.4
		C844.1,888.3,844.9,884,844.9,879.3L844.9,879.3L844.9,879.3z"/>
	<path class="st3" d="M1082.2,760.2L1082.2,760.2c0-3.6-0.1-7.3-0.4-10.9c-1.1-15.8-4.7-31.5-8.4-46.1c-11.7-46.2-31-103.6-76-136.2
		c-2.3-1.6-5-3.4-7.9-3.4c-3.1,0-5.8,2-8.6,4.3c-14.1,11.6-28.1,23.2-42.2,34.9c16.4,26.7,25,57.7,25,89.6c0,13.7-1.6,27.3-4.9,40.4
		c-3.4,13.6-8.5,26.9-13.5,39.8l-14.5,37.7l-14.4,37.5c-4.2,10.9-8.9,23.2-8.9,35.8c0,1,0,2.1,0.1,3.2c1.1,16.3,11.2,31.5,25.9,38.7
		c13.6,6.7,30.9,6.7,47.5,0.1c13-5.1,25.5-14.1,39.6-28.1C1059.8,858.2,1082.2,808.3,1082.2,760.2L1082.2,760.2L1082.2,760.2z"/>
	<path class="st3" d="M958.6,682.9L958.6,682.9c-4.3-26.6-14.7-52.4-30-74.6c-30.4,12.6-60.1,23.3-88.4,15.2
		c-6.7-1.9-11.5,7.1-12.8,9.9c-5.3,11.4-9.5,23.4-12.6,35.6c40.8-7.5,83.7-6.1,123.9,3.9C945.8,674.7,953.7,677.1,958.6,682.9
		L958.6,682.9L958.6,682.9L958.6,682.9z"/>
	<path class="st3" d="M999.5,298.6c0-4.9-2.6-10.2-7.1-14.6c-6.8-6.6-16.6-10.3-26.8-10.2c-9.3,0-19,3.3-27.5,9.1
		c-2.7,1.8-6.5,4.8-7.9,8.9c-0.3,0.9-0.5,2-0.5,3.1c0,3.4,1.6,6.2,4.2,7.3c15.4,6.5,31.3,13.2,44.1,24.3c0.5,0.4,1.1,0.6,1.8,0.5
		c1.6-0.1,3.3-1.7,4.4-3.1l5.9-7.8l3.3-4.4c2.2-3,4.8-6.3,5.6-10.3C999.4,300.5,999.5,299.5,999.5,298.6L999.5,298.6L999.5,298.6z"
		/>
	<path class="st3" d="M959.6,435.9c0-0.5,0-1.1-0.1-1.7c-0.6-3.4-3-6.2-5.1-8.6c-12.5-13.8-28.2-24.7-45.5-31.7
		c-3.1-1.2-6.7-2.5-10.4-2.2c-2.5,0.2-5.1,1.2-8,3.1c-8.2,5.1-13.3,13.4-13.4,21.6c0,0.1,0,0.2,0,0.4c0,15.6,13.6,30.1,29.2,31.1
		c8.9,0.5,17.9,1.1,26.8,1.6c5.6,0.3,12,0.7,17.6-1.5C955.8,445.8,959.6,440.8,959.6,435.9L959.6,435.9L959.6,435.9z"/>
	<path class="st3" d="M827.1,408.7c0-4.4-0.9-8.6-2.8-12.2c-1.7-3.2-3.9-5.6-6.5-6.8c-1.8-0.8-3.9-1.2-6.7-1.2
		c-13.5-0.1-27.2,7.9-36.6,21.6c-8.4,12.3-12.6,26.8-16.6,40.8l-1.8,6.4l-1.8,6.3c-0.2,0.8-0.4,1.6-0.4,2.4c0,0.5,0.1,1,0.3,1.4
		c1,2.2,4.1,2.2,5.8,2c16.5-1.7,30.6-11.7,42.2-21.3c7.7-6.3,15.6-13.5,20.4-22.5C825.5,420.4,827.1,414.3,827.1,408.7L827.1,408.7
		L827.1,408.7z"/>
	<path class="st3" d="M841.8,1189.4c0-1.1,0-2.4,0-3.7c-0.7-22.2-6.7-45.4-17.8-69c-11-23.5-24.7-41.7-40.7-53.9
		c-19.3-14.8-43.1-21.2-63.9-17.2c-25.3,4.9-48.7,20.8-62.7,42.6l5.3,18.2l9,30.7c7.8,26.6,15.8,54.2,32.5,77.1
		c8.5,11.8,19.4,21.5,31.3,28.2c13,7.2,26.7,10.5,39.9,9.3c10.1-0.9,19.6-4.3,27.5-7.5c10.8-4.3,22.8-10.1,30.3-20.3
		C838.8,1215.5,841.8,1204.2,841.8,1189.4L841.8,1189.4L841.8,1189.4z"/>
	<path class="st3" d="M1122.8,1061.9c0-3.1-0.4-5.5-1.3-7.5c-1.7-4-5.3-6.9-8.9-9.4c-11.6-8.1-24.5-14.1-38.5-17.9
		c-13.9-3.8-28.1-5.2-42.3-4.1c-8.1,0.6-14.6,1.9-20.4,4.1c-7.5,2.8-14.1,7.2-21.7,13c-28.3,21.3-53.3,46.6-74.1,75.3
		c-9.3,12.8-10.3,29.8-10.6,44.7c0,2.5,0,4.6,0,6.5c0,11.9,0.5,27.3,4.9,42c5.1,17.4,15.1,31.2,27.9,38.8
		c8.9,5.3,28.4,12.8,59.4,3.5c15.5-4.7,30-12,42.9-21.8c8.1-6.1,16-13.5,24-22.5c17.2-19.3,31-41.4,41.1-65.6
		c10.1-24.3,15.9-49.7,17.4-75.4C1122.7,1064.4,1122.8,1063.1,1122.8,1061.9L1122.8,1061.9L1122.8,1061.9z"/>
	<path class="st4" d="M882.3,505.1c0-0.9-0.2-1.7-0.5-2.4c-1.2-2.2-3.9-3.2-8.5-3c-5.5,0.3-11.1,0.9-16.5,2
		c-4.4,0.9-6.9,2.6-7.3,5.1c0,0.2,0,0.5,0,0.8c0,1.4,0.6,2.7,1.1,3.9c3.6,7.4,8.7,14.2,14.8,19.7c1.1,0.9,2.3,2,3.8,2
		c2.2,0,3.9-1.7,5.3-5.5c2.2-5.9,4.4-11.9,6.7-17.9C881.8,508.4,882.3,506.7,882.3,505.1L882.3,505.1L882.3,505.1z"/>
	<path class="st3" d="M729.2,309.7c-0.5-0.4-1.1-0.9-1.6-1.4c-0.2-0.2-0.7-0.2-1-0.2c-0.3,0-0.6,0-0.8,0c-1.3-0.1-2.6-0.1-3.9,0
		c-0.8,0-1.5,0.3-2.2,0.8c0,0,0,0,0,0c0.2-0.4,0.5-0.8,0.7-1.2c0.4-0.7,0.9-1.3,1.4-2c0.4-0.2,0.8-0.4,1.2-0.7
		c0.9-0.7,1.8-1.5,2.5-2.4c0.2-0.2,0.3-0.4,0.5-0.7c0-0.1,0.3-0.5,0.1-0.7c-0.1-0.1-0.3-0.1-0.5-0.1c-0.1,0-0.2,0-0.3,0.1
		c-0.3,0.1-0.5,0.2-0.8,0.4c-0.6,0.4-1.3,0.9-1.8,1.4c-0.4,0.1-0.8,0.3-1.2,0.5c-0.9,0.4-1.9,0.8-2.8,1.3c-0.8,0.4-1.6,0.9-2.4,1.4
		c-0.8,0.5-1.6,1.1-2.4,1.7c-0.9,0.7-1.8,1.4-2.7,2.2c-1,0.9-2,1.9-2.9,2.9c-0.8,0.9-1.5,2-2.2,3c-0.3,0.5-0.6,1.2-0.8,1.8
		c-0.1,0.3-0.2,0.7-0.3,1.1c-0.1,0.3-0.1,0.5-0.1,0.8c0,0.6,0.6,0.7,1.1,0.8c0.2,0,0.3,0,0.5-0.1c0.5-0.3,1-0.8,1.5-1.2
		c0.1-0.1,1.7-1.8,1.3-2c-0.2-0.1-0.4-0.2-0.6-0.3c-0.1-0.1-0.1-0.2-0.1-0.3c0-0.7,0.3-1.5,0.6-2.2c0.2-0.4,0.4-0.9,0.7-1.3
		c0.1-0.1,0.2-0.3,0.3-0.5c0.1-0.1,0.2-0.2,0.3-0.3c0.1-0.1,0.3-0.3,0.4-0.4c0.2-0.2,0.5-0.4,0.7-0.6c0.7-0.5,1.4-1.1,2.2-1.6
		c0.6-0.4,1.3-0.8,2-1.2c0.7-0.4,1.4-0.7,2.2-1.1c0.4-0.1,0.7-0.3,1.1-0.4c-0.5,0.7-1.1,1.3-1.6,2.1c-0.7,1-1.3,1.9-1.9,3
		c-0.5,0.8-0.9,1.7-1.3,2.5c-0.4,0.8-0.7,1.6-0.9,2.4c-0.2,0.6-0.3,1.1-0.3,1.7c0,0.4,0,1.1,0.2,1.4c0.1,0,0.1,0,0.2,0
		c0.2,0,0.3-0.1,0.5-0.2c0.4-0.2,0.8-0.6,1.2-0.9c0.7-0.6,1.4-1.3,2-2.1c0.3-0.4,0.6-0.9,0.8-1.4c0.1-0.4,0.2-0.8,0.3-1.2
		c0.1-0.7,0.3-1.5,0.5-2.2c0.8-0.1,1.6-0.3,2.4-0.4c0.7-0.1,1.4-0.2,2-0.4c0.7-0.1,1.4-0.4,2.1-0.4c0.3,0.1,0.5,0.3,0.8,0.5
		c0.3,0.2,0.6,0.5,0.9,0.7c0.1,0,0.2,0,0.3-0.1c0.3-0.2,0.7-0.5,1-0.8c0.2-0.2,0.4-0.4,0.6-0.7c0,0,0.3-0.4,0.3-0.5
		C729.2,309.7,729.2,309.7,729.2,309.7L729.2,309.7L729.2,309.7z M708.3,316.4C708.3,316.4,708.3,316.3,708.3,316.4
		C708.3,316.4,708.3,316.4,708.3,316.4L708.3,316.4L708.3,316.4z"/>
	<path class="st3" d="M729.1,310.4c-0.7-0.1-1.4-0.3-2.1-0.5c0,0-0.1,0-0.2-0.1c-0.7-0.3-1.5-0.4-2.2,0c-0.7,0.4-1.3,1-1.9,1.5
		c-0.3,0.3-0.6,0.6-1,0.9c0-0.1,0.1-0.2,0.2-0.3c0.3-0.6,0.6-1.2,1-1.8c0.3-0.6,0.7-1.2,1.1-1.8c0.1-0.2,0.3-0.5,0.4-0.7
		c0.1-0.2,0.2-0.4,0.3-0.6c0.1-0.3,0.3-0.6,0.4-1c0-0.3,0.1-0.6,0.1-1c0.1-0.7-0.3-1.6-0.9-2.1c-0.2-0.1-0.4-0.3-0.6-0.4
		c-0.4-0.2-0.9-0.4-1.5-0.4c-0.9-0.1-1.7,0.2-2.5,0.7c-0.7,0.4-1.4,1-2,1.5c-0.5,0.4-1.1,1-1.6,1.5c-0.4,0.4-0.8,0.8-1.1,1.3
		c-0.3,0.4-0.6,0.8-0.9,1.2c0-0.3-0.1-0.5-0.3-0.8c-0.3-0.6-0.9-1-1.6-1.2c-0.4-0.1-0.9-0.1-1.4,0c0-0.4,0-0.7-0.1-1.1
		c0.1-0.1,0.2-0.2,0.3-0.3c0.2-0.2,0.4-0.5,0.7-0.7c0.4-0.5,1-1.1,1.1-1.8c0.1-0.3,0.1-0.7,0-1c-0.1-0.5-0.5-0.8-0.9-1.2
		c-0.7-0.5-1.7-0.2-2.6,0c-0.7,0.2-1.3,0.5-1.9,0.7c-1,0.4-1.9,1-2.9,1.4c-0.6,0.2-1.2,0.4-1.8,0.7c-0.2,0.1-0.5,0.2-0.7,0.3
		c-0.4,0.2-0.8,0.5-1.1,0.8c-0.5,0.4-1,0.9-1.5,1.4c-0.6,0.7-1.3,1.4-1.9,2.2c-1.1,1.6-2.1,3.3-2.9,5.2c-0.5,1.1-0.9,2.3-1.2,3.4
		c-0.4,1-0.8,2-1.2,3.1c-0.5,1.6-0.8,3.2-0.8,4.9c0,0.8,0,1.9,0.7,2.5c0,0.1,0,0.2,0,0.3c0,0.4,0,0.8,0,1.1c0,0.2,0,0.5,0.1,0.7
		c0,0.3,0.3,0.7,0.6,0.9c0.1,1.1,0.5,2.1,0.9,3.1c0.5,1.2,2.1,1.8,3.3,1.1c0.4-0.2,0.8-0.6,1-1.1c0,0.1,0.1,0.1,0.1,0.2
		c0.2,0.3,0.4,0.6,0.7,0.9c0.8,0.9,2.3,0.9,3.3,0.4c0.4-0.2,0.7-0.6,1-1c0.3-0.5,0.4-1.1,0.4-1.7c0.1-1.1,0-2.2,0-3.3
		c0-1.1,0-2.1,0.1-3.2c0-0.3,0.1-0.6,0.1-0.9c0.1-0.4,0.2-0.8,0.3-1.2c0,0.5,0,1.1,0.1,1.6c0,0.8,0.2,1.6,0.3,2.5
		c0,0.5,0.2,1,0.3,1.5c0.1,0.4,0.3,0.9,0.5,1.3c0.1,0.2,0.2,0.4,0.3,0.5c0.2,0.4,0.6,0.8,1,1c1,0.6,2.3,0.6,3.3,0
		c0.8-0.5,1.3-1.3,1.5-2.2c0.1-0.5,0.2-1.1,0.4-1.7c0.2-1.2,0.5-2.4,0.8-3.6c0.3-1.2,0.8-2.4,1.2-3.6c0-0.1,0.1-0.2,0.2-0.4
		c0,0.1,0,0.2,0,0.3c0.1,0.3,0.2,0.6,0.4,0.9c0.3,0.6,0.9,1,1.5,1.2c0.9,0.2,1.9,0,2.5-0.7c0.5-0.5,0.8-1.3,1.2-1.9
		c0.2-0.5,0.6-1,0.9-1.5c0.4-0.4,0.9-0.8,1.3-1.2c0.4-0.4,0.9-0.9,1.4-1.3c0.8-0.8,1.7-1.7,2.6-2.5c0.1,0,0.3,0.1,0.4,0.1
		c0.5,0.1,1.1,0.2,1.7,0.4c1,0.2,2-0.2,2.2-1.3c0-0.1,0-0.3,0-0.4C730.4,311.4,729.9,310.5,729.1,310.4L729.1,310.4L729.1,310.4z
		 M697,331L697,331C697,330.9,697,331,697,331L697,331L697,331L697,331z"/>
	<path class="st3" d="M710.9,352.3c-0.1-0.1-0.3-0.1-0.4-0.2c-0.3-0.3-0.6-0.6-0.8-0.9c-0.7-0.7-1.6-1.4-2.5-2
		c-0.7-0.6-1.5-1.2-2.2-1.9c0.1-0.4,0.1-0.9,0-1.4c-0.1-0.5-0.4-1-0.8-1.4c-0.1-0.1-0.2-0.2-0.4-0.3c-0.4-0.4-0.7-0.9-1.1-1.4
		c-0.4-0.5-0.9-1-1.4-1.6c0,0,0,0,0-0.1c-0.1-0.3-0.3-0.6-0.5-0.9c-0.3-0.6-0.6-1.2-0.9-1.9c-0.6-1.4-1-3-1.4-4.5
		c-0.4-1.7-0.8-3.5-1-5.2c-0.1-1.2-0.2-2.5-0.2-3.7c0-0.7,0-1.4,0-2.1c0-0.1,0-0.3,0-0.4c0.4,0.1,0.9,0,1.1-0.5
		c0.3-0.4,0.1-1.3-0.4-1.5c-0.2-0.1-0.5-0.2-0.8-0.3c-0.1,0-0.3-0.1-0.4-0.1c-0.1-0.2-0.2-0.3-0.4-0.5c-0.6-0.5-1.2-0.8-2-0.8
		c-0.6,0-1.6,0.3-2,0.8c-0.4,0.6-0.5,0.6-0.7,1.3c0,0.1,0,0.2-0.1,0.3c0,0.2-0.1,0.5-0.1,0.7c-0.1,0.8-0.2,1.6-0.3,2.4
		c-0.1,1.2-0.1,2.5,0,3.8c0,1.2,0,2.4,0.1,3.6c0,0.5,0,1.1,0.1,1.7c0,0.5,0.1,1,0.2,1.5c0,0.2,0.1,0.4,0.1,0.6c0,0.1,0,0.2,0,0.3
		c0.1,0.5,0.2,1.1,0.4,1.7c0.2,0.8,0.5,1.6,0.9,2.4c0,0.5,0.1,1,0.2,1.5c0.2,0.7,0.4,1.4,0.7,2.1c0.1,0.4,0.3,0.8,0.5,1.3
		c0.2,0.6,0.5,1.3,0.8,1.9c0.4,0.7,0.8,1.3,1.2,2c1,1.6,2.3,2.9,3.7,4.1c0.5,0.5,1.1,1,1.7,1.5c0.6,0.5,1.2,1,1.9,1.5
		c0.5,0.4,1,1,1.5,1.5c0.2,0.2,0.4,0.5,0.7,0.8c1.2,1.3,3.2,1.8,4.8,0.8c0.5-0.3,0.9-0.7,1.3-1.3c0.2-0.4,0.4-0.9,0.4-1.5
		c0,0,0,0,0-0.1c0-0.2,0.1-0.5,0.1-0.8C712.5,353.9,711.9,352.9,710.9,352.3L710.9,352.3L710.9,352.3z"/>
	<path class="st3" d="M761.5,299.4c-0.4-0.9-1-1.6-1.6-2.4c-0.3-0.4-0.6-0.8-0.9-1.1c-0.6-0.5-1.2-1-1.9-1.5
		c-0.8-0.5-1.8-0.9-2.7-1.3c-0.4-0.2-0.9-0.4-1.3-0.7c-0.8-0.4-1.6-0.7-2.4-1c-1.1-0.4-2.4-0.5-3.6-0.8c-0.8-0.2-1.6-0.5-2.4-0.7
		c-0.9-0.3-1.9-0.6-2.9-0.9c-1.3-0.3-2.6-0.4-3.9-0.6c-0.4,0-0.9-0.1-1.4-0.1c-0.7,0-1.4,0-2.1,0.1c-0.7,0.1-1.4,0.3-2.1,0.5
		c-0.6,0.1-1.3,0.2-1.9,0.3c-1.7,0.2-3.5,0.4-5.1,0.9c-0.9,0.3-1.9,0.7-2.8,1c-0.9,0.3-1.8,0.6-2.8,0.8c-2.4,0.5-4.5,1.6-6.6,2.8
		c-0.9,0.5-1.9,1-2.8,1.6c-0.8,0.5-1.6,1.2-2.4,1.8c-0.7,0.5-1.5,0.9-2.2,1.4s-1.5,0.9-2.2,1.5c-1.4,1-2.9,2.1-3.7,3.7
		c-0.2,0.4-0.3,0.8-0.5,1.2s-0.4,0.7-0.6,1.1c-0.4,0.9-0.6,1.9-0.3,2.8c-0.2,0.5-0.4,1.1-0.4,1.7c0,1.3,0.8,2.3,2.1,2.7
		c2.1,0.7,3.7-1.5,5-2.8c0.3-0.3,0.7-0.7,1.1-1c0.3,0,0.6-0.1,0.9-0.1c-0.1,1-0.1,2,0.1,3.1c0,0.3,0.2,0.7,0.3,1
		c-0.4,0.4-0.9,0.8-1.3,1.2c-1.8,1.7-3.4,3.6-4.7,5.7c-0.4,0.7-0.8,1.5-1.1,2.3c-0.4,0.9-0.8,1.8-1.1,2.8c-0.2,0.6-0.4,1.2-0.6,1.9
		c-0.3,1.3-0.6,2.7-0.8,4c-0.1,1-0.3,2-0.4,3.1c0,0.5-0.1,1.1-0.1,1.7c0,0.6,0.1,1.5,0.2,2c0,0.1,0,0.2,0.1,0.4v0
		c0,0.6,0.1,1.3,0.2,2c0.1,0.6,0.4,1.2,0.6,1.8c0.2,0.5,0.6,1.1,1,1.5c0.1,1.9,0.3,3.8,0.6,5.7c0.2,1.2,0.4,2.5,0.8,3.8
		c0.6,1.9,1.7,3.7,3.2,5.1c0.6,0.5,1.2,1.1,1.9,1.5c0.1,0,0.2,0.1,0.3,0.1c0.6,0.2,0.9,0.4,1.3,0.5c0,0,0.1,0.1,0.1,0.1
		c0.1,0.1,0.2,0.2,0.3,0.3c0.1,0.1,0.2,0.3,0.3,0.5c0.8,1.5,2.5,2.5,4.2,2.5c0.8,0,1.7-0.2,2.4-0.6c0.7-0.4,1-0.7,1.3-1.2
		c0.2-0.3,0.4-0.5,0.6-0.9c0.1-0.3,0.2-0.5,0.4-0.8c0-0.1,0.1-0.1,0.1-0.2c1-1.2,2.2-2.4,3.4-3.5c0.7-0.7,1.6-1.3,2.3-2
		s1.2-1.5,1.8-2.3c0.5-0.5,1-1.1,1.5-1.6c0.7-0.8,1.4-1.5,2-2.3c1.3-1.6,2.6-3.2,3.8-4.8c1.3-1.7,2.7-3.4,4.1-5.1
		c0.9-1.1,1.8-2.4,2.8-3.6c0.6-0.8,1.2-1.7,1.8-2.5c0.5-0.6,1.1-1.2,1.7-1.9c0.7-0.7,1.3-1.5,2-2.3c0.6-0.7,1.3-1.5,1.9-2.3
		c0.7-0.9,1.4-1.8,2.1-2.7c0.7-0.8,1.4-1.6,2.2-2.5c1-1.1,1.8-2.4,2.7-3.6c0.8-1,1.6-2,2.4-3.1c0.5-0.8,1-1.5,1.6-2.3
		c0.4-0.5,0.8-0.9,1.3-1.4c0.7-0.8,1.4-1.8,2.1-2.7c1-1.5,1.6-3.6,1.6-5.5c0,0,0-0.1,0-0.1C762.5,301.5,762,300.5,761.5,299.4
		L761.5,299.4L761.5,299.4z M754.4,293.1C754.4,293.1,754.4,293.1,754.4,293.1C754.4,293.1,754.4,293.1,754.4,293.1L754.4,293.1
		L754.4,293.1L754.4,293.1z"/>
	<path class="st3" d="M699.3,342.3c0,0-0.1-0.1-0.1-0.1c-0.2-0.3-0.4-0.7-0.6-1.1s-0.3-0.7-0.5-1.1c-0.3-0.7-0.7-1.5-1-2.3
		c-0.2-0.5-0.4-1-0.6-1.5c-0.1-0.3-0.2-0.6-0.3-0.9c0-0.2-0.1-0.5-0.1-0.7c0-0.1,0-0.2,0-0.3c0-0.2,0-0.4,0-0.7c0-0.1,0-0.3,0.1-0.5
		c0-0.1,0-0.3,0-0.4c-0.1-0.1-0.2-0.2-0.3-0.2c-0.1,0-0.3,0-0.4,0c-0.1,0-0.2,0.2-0.2,0.3c-0.1,0.5-0.1,0.9-0.1,1.4
		c0,0.2,0,0.5,0,0.7c0,0.5,0.2,1.1,0.4,1.6c0.3,1,0.7,2,1.1,2.9c0,0,0,0,0-0.1c0.2,0.6,0.5,1.2,0.7,1.8c0.1,0.3,0.3,0.7,0.4,1
		c0.2,0.4,0.5,0.9,0.9,1.2c0.1,0,0.2,0.1,0.3,0.1s0.3,0,0.4-0.2c0.1-0.1,0.2-0.3,0.2-0.4C699.5,342.6,699.4,342.4,699.3,342.3
		L699.3,342.3L699.3,342.3z M696,333.4L696,333.4L696,333.4L696,333.4L696,333.4z M696.3,339.2C696.3,339.2,696.4,339.3,696.3,339.2
		C696.4,339.3,696.3,339.2,696.3,339.2L696.3,339.2L696.3,339.2z"/>
	<path class="st3" d="M710.1,359.9c-0.4-0.2-0.9-0.4-1.3-0.7c-0.2-0.1-0.3-0.3-0.5-0.5c-0.2-0.2-0.3-0.4-0.5-0.6
		c-0.4-0.5-0.8-1.1-1.2-1.6c-0.4-0.6-0.9-1.2-1.3-1.9s-0.9-1.2-1.3-1.9c-0.4-0.6-0.8-1.3-1.2-1.9c-0.4-0.6-0.8-1.3-1.2-2
		c-0.4-0.6-0.8-1.3-1.2-1.9c-0.4-0.7-0.8-1.4-1.2-2.1c-0.4-0.7-0.7-1.4-1-2.1c-0.1-0.2-0.2-0.4-0.3-0.6c-0.2-0.5-0.4-1-0.5-1.5
		c-0.2-0.6-0.3-1.3-0.5-1.9c-0.1-0.3-0.4-0.5-0.8-0.4c-0.1,0-0.3,0.1-0.4,0.3c-0.1,0.1-0.1,0.3,0,0.5c0.1,0.9,0.3,1.7,0.5,2.6
		c0.1,0.7,0.4,1.5,0.7,2.2c0.3,0.8,0.7,1.6,1.1,2.3c0.4,0.7,0.8,1.4,1.2,2.1c0.4,0.6,0.8,1.3,1.1,1.9c0.4,0.6,0.8,1.3,1.2,2
		c0.4,0.6,0.8,1.3,1.2,1.9s0.9,1.2,1.4,1.8c0.8,1,1.5,2.1,2.3,3.1c0.1,0.2,0.3,0.4,0.5,0.6c0.2,0.2,0.4,0.4,0.7,0.6
		c0.3,0.2,0.5,0.4,0.8,0.6c0.3,0.1,0.6,0.3,0.9,0.5c0.3,0.1,0.7,0.1,1-0.2c0-0.1,0.1-0.2,0.1-0.3C710.5,360.2,710.4,360,710.1,359.9
		L710.1,359.9L710.1,359.9z"/>
	<path class="st3" d="M704.5,354.7c-0.1-0.2-0.2-0.3-0.3-0.5c-0.1-0.1-0.2-0.3-0.3-0.5c-0.2-0.3-0.4-0.6-0.7-0.9c0,0,0,0,0-0.1
		c0,0-0.1-0.1-0.1-0.2c-0.1-0.1-0.2-0.2-0.3-0.4c-0.3-0.4-0.6-0.9-0.9-1.3c-0.4-0.7-0.8-1.4-1.3-2.1c-0.4-0.7-0.9-1.3-1.4-2
		c-0.1-0.1-0.1-0.2-0.2-0.3l0,0c-0.1-0.3-0.3-0.6-0.4-0.9c-0.3-0.7-0.6-1.5-0.8-2.2c-0.3-0.8-0.5-1.6-0.7-2.4c-0.4-1.3-1-2.7-1.4-4
		c0-0.2,0-0.4-0.2-0.6c0-0.1,0-0.2-0.1-0.3c-0.1-0.3-0.1-0.6-0.2-0.9c-0.1-0.3-0.4-0.5-0.7-0.5c-0.2,0-0.4,0.1-0.5,0.2
		c-0.1,0.1-0.2,0.3-0.2,0.5c0.1,1,0.2,1.9,0.5,2.9c0,0.1,0.1,0.3,0.1,0.5c0,0.2,0,0.4,0,0.6c0.1,0.9,0.4,1.7,0.7,2.5
		c0.3,0.7,0.6,1.4,0.9,2.1c0.1,0.5,0.3,1,0.5,1.5c0.6,1.6,1.3,3.1,2.4,4.5c0.5,0.7,1,1.4,1.4,2.1c0.5,0.7,0.9,1.4,1.4,2.1
		c0.2,0.3,0.4,0.5,0.5,0.8c0.1,0.1,0.1,0.2,0.2,0.4c0,0,0.1,0.1,0.1,0.2c0.1,0.1,0.2,0.3,0.3,0.4c0.3,0.3,0.8,0.4,1.2,0.1
		c0.2-0.1,0.4-0.3,0.4-0.6c0-0.1,0-0.1,0-0.2C704.6,355.1,704.6,354.9,704.5,354.7L704.5,354.7L704.5,354.7z"/>
	<path class="st3" d="M711.4,361c-0.1-0.2-0.3-0.4-0.4-0.6c-0.3-0.5-0.7-0.9-1-1.4c-0.8-1.1-1.7-2.1-2.5-3.2
		c-0.8-1.1-1.6-2.2-2.3-3.5c-0.7-1.2-1.4-2.5-2-3.9c-0.2-0.4-0.4-0.9-0.5-1.4c-0.2-0.6-0.4-1.3-0.6-1.9c-0.4-1.5-0.8-3-1.3-4.5
		c-0.2-0.9-1.2-1.4-2.1-1.2c-0.4,0.1-0.8,0.4-1,0.8c-0.2,0.4-0.2,0.8-0.1,1.3c0.1,0.4,0.2,0.9,0.3,1.3l0,0c-0.3-0.3-0.7-0.5-1.2-0.5
		c-0.6,0-1.4,0.5-1.5,1.1c0,0.2-0.1,0.4,0,0.6c0,0.2,0,0.4,0.1,0.7c0,0.1,0.1,0.3,0.1,0.5c0.1,0.3,0.2,0.7,0.4,1
		c0.3,0.7,0.6,1.5,1,2.3c0.2,0.6,0.5,1.2,0.8,1.7c0.3,0.6,0.6,1.3,0.9,1.9c0.7,1.3,1.5,2.5,2.3,3.7c0.4,0.6,0.9,1.2,1.4,1.8
		c0.2,0.3,0.5,0.5,0.8,0.8c1,0.9,2.1,1.7,3.1,2.7c0.4,0.4,0.9,0.9,1.3,1.4c0.6,0.5,1.1,1.2,1.9,1.5c0.7,0.2,1.4,0,1.9-0.5
		c0.4-0.3,0.5-0.8,0.5-1.3C711.8,361.8,711.6,361.3,711.4,361L711.4,361L711.4,361z"/>
	<path class="st3" d="M1186.3,1045.9c-0.3-3-0.9-6.1-1.6-9.1c-0.5-2.5-1.2-5.1-1.9-7.6c-1.4-5.2-3.2-10.3-4.9-15.4
		c-0.8-2.4-1.7-4.8-2.8-7.1c-0.4-0.8-0.8-1.7-1.3-2.5c-0.6-1-1.3-2-2.2-2.9c-0.1-0.1-0.2-0.2-0.3-0.3c-0.4-0.3-0.8-0.6-1.3-0.9
		c-0.1,0-0.2-0.1-0.4-0.1c-0.5-0.3-1.1-0.4-1.8-0.5c0-0.3-0.1-0.7-0.1-1c-0.3-1.7-0.6-3.5-1.2-5.2c-0.6-1.7-1.4-3.4-2.3-5
		c-0.9-1.5-2-3-3.2-4.2c-0.4-0.4-0.9-0.8-1.4-1.1c-0.5-0.4-1.1-0.7-1.6-1.1c-0.5-0.3-1.2-0.5-1.8-0.7c0.2,0.1,0.5,0.2,0.8,0.3
		c-0.8-0.3-1.5-0.5-2.4-0.7c-0.9-0.1-1.8-0.1-2.7,0c-0.8,0.1-1.7,0.2-2.5,0.5s-1.6,0.7-2.4,1.1c-0.9,0.5-1.8,1.1-2.7,1.8
		c-1.2,0.9-2.4,1.9-3.5,3c-0.9,0.9-1.7,2.1-2.4,3.2c-0.5,0.9-1.1,1.8-1.5,2.8c-1,2.4-1.8,4.9-2.5,7.4c-1.1,4.1-2.3,8.2-2.9,12.4
		c-0.3,2.6-0.5,5.3-0.5,8c0,0.1,0,0.3,0,0.4c-0.2,2-0.4,4-0.5,6c0,1,0,1.9,0,2.9c-0.3,2-0.3,4.1-0.1,6.1c0.1,1.1,0.4,2.2,0.7,3.2
		c0.2,0.7,0.4,1.4,0.6,2.2c0.1,0.5,0.3,1.1,0.4,1.7c0.3,0.9,0.8,1.9,1.4,2.7c0.8,1.1,1.9,2.1,3.3,2.5h0c0,0,0.1,0.1,0.2,0.1
		c0.5,0.4,0.9,0.8,1.4,1.2c0.7,0.6,1.4,1.2,2.2,1.8c1,0.7,2,1.5,3.1,2.1c0.6,0.4,1.3,0.8,1.9,1.2c0.4,0.3,0.9,0.7,1.3,1.1
		c0.9,0.8,1.7,1.6,2.7,2.3c1.7,1.4,3.5,2.7,5.4,4c2,1.4,4,2.9,6.3,4c1.3,0.7,2.7,1.1,4.1,1.6c1.3,0.4,2.6,0.5,4,0.6
		c0.8,0,1.7,0,2.6,0c0.4,0,0.9-0.1,1.3-0.1c0.9-0.1,1.7-0.2,2.6-0.5c0.8-0.2,1.6-0.6,2.3-1c0.8-0.4,1.4-0.9,2.2-1.5
		c0.4-0.3,0.7-0.7,1-1.1c0.5-0.7,1-1.5,1.4-2.3c0.7-1.4,1.2-3,1.7-4.5c0.4-1.1,0.8-2.3,1-3.5c0.3-1.5,0.4-3.2,0.5-4.8
		c0-0.6,0-1.1,0-1.7C1186.4,1047.2,1186.4,1046.6,1186.3,1045.9L1186.3,1045.9L1186.3,1045.9z M1177.1,1051.4c0,0.1,0,0.2,0,0.2
		c0,0,0-0.1,0-0.1C1177.1,1051.5,1177.1,1051.5,1177.1,1051.4C1177,1051.5,1177,1051.5,1177.1,1051.4L1177.1,1051.4L1177.1,1051.4z
		 M1175.9,1056.3c-0.1,0.4-0.3,0.8-0.5,1.2c0-0.2,0-0.5,0-0.8C1175.5,1056.5,1175.7,1056.4,1175.9,1056.3L1175.9,1056.3
		L1175.9,1056.3z M1148.3,990.3c-0.1,0.2-0.2,0.3-0.3,0.5c-0.1,0.1-0.2,0.3-0.4,0.4c0,0-0.1-0.1-0.2-0.1
		C1147.7,990.9,1148,990.6,1148.3,990.3L1148.3,990.3L1148.3,990.3z M1155.8,980.8L1155.8,980.8L1155.8,980.8L1155.8,980.8
		L1155.8,980.8z"/>
	<path class="st3" d="M1182.2,1047.8c-0.2-1-0.8-2.1-1.7-2.7c-0.3-0.2-0.6-0.5-1-0.7c-0.4-0.2-1-0.4-1.4-0.5
		c-0.4-0.1-0.8-0.2-1.3-0.3c-0.5-0.1-1-0.1-1.5-0.2c0,0-0.1-0.1-0.1-0.2c-0.4-1.1-0.7-2.3-0.9-3.5c-0.6-3.4-1-6.8-1.7-10.2
		c-0.1-0.4-0.4-0.8-0.7-1.1c-0.5-0.5-1.2-0.7-1.9-0.7c-1.5,0-2.6,1.3-2.6,2.8c0.1,2.6,0.3,5.3,0.6,8c0.2,2.9,0.2,6,1.6,8.7
		c0.4,0.8,1,1.6,1.8,2.2c0.4,0.3,0.8,0.6,1.3,0.8c0.4,0.2,0.9,0.3,1.4,0.5l0,0c-0.3,0.4-0.6,0.8-0.8,1.3c-0.6,1.3-1.1,2.7-1.5,4.1
		c-0.1,0.5-0.2,1-0.3,1.6c0,0.7-0.1,1.4,0,2.1c0.1,0.6,0.2,1.4,0.6,1.9c0.4,0.6,0.9,1.2,1.6,1.5c0.3,0.2,0.6,0.3,1,0.3
		c0.3,0,0.6,0,0.9,0.1c0.4,0,0.8-0.1,1.2-0.2c0.1,0,0.3-0.1,0.5-0.2c0.3-0.1,0.6-0.2,0.8-0.4c0.4-0.3,0.7-0.6,1-0.9
		c0.3-0.4,0.6-0.8,0.8-1.3c0.3-0.5,0.5-1,0.7-1.5c0.3-0.8,0.6-1.6,0.8-2.4c0.3-1.2,0.5-2.4,0.6-3.6c0.1-0.9,0.2-1.7,0.2-2.6
		c0-0.2,0-0.4,0-0.6C1182.4,1048.9,1182.3,1048.4,1182.2,1047.8L1182.2,1047.8L1182.2,1047.8z M1175.5,1043.6L1175.5,1043.6
		L1175.5,1043.6L1175.5,1043.6L1175.5,1043.6z M1175.5,1043.5C1175.4,1043.5,1175.4,1043.4,1175.5,1043.5
		C1175.4,1043.4,1175.4,1043.5,1175.5,1043.5L1175.5,1043.5L1175.5,1043.5z"/>
	<path class="st3" d="M1192.3,1025.6c-0.2-3.6-1-7.2-1.6-10.8c-0.4-2.4-0.9-4.8-1.7-7.1c-0.8-2.3-1.5-4.6-2.4-6.9
		c-0.3-0.9-0.7-1.9-1-2.8c-0.6-1.5-1.4-2.9-2.1-4.4c-0.4-0.8-1-1.6-1.6-2.3c-0.7-0.8-1.4-1.7-2.2-2.5c-0.4-0.3-0.8-0.7-1.1-1
		c-0.9-0.8-1.7-1.6-2.6-2.5c-1.3-1.2-2.9-2.2-4.5-3.1c-1.7-0.9-3.7-1.7-5.5-2.2c-1.1-0.3-2.3-0.4-3.5-0.5c-0.7-0.1-1.5-0.1-2.2-0.2
		h0c-1.2-0.2-2.4-0.4-3.6-0.2c-2,0.2-4,0.6-5.9,1.2c-1.4,0.4-2.8,1.1-4.2,1.9c-1,0.5-1.8,1.4-2.6,2.2c-0.4,0.3-0.7,0.7-1.1,1.2
		c-2.7,3.2-4.3,7-5.3,11c-0.5,2.1-0.6,4.3-0.7,6.4c-0.1,1.2,0,2.4,0,3.6c0.2,3.3,0.8,6.7,1.5,10c0.5,2.5,1.5,4.9,2.5,7.3
		c1.2,3,2.8,6.1,5.4,8.2c2.1,1.6,4.5,2.9,7.2,3.4c1,0.1,2,0.2,3,0.2c1,0,2.1-0.3,3.1-0.5c0.8-0.1,2.4-1,2.7-1.2
		c0.4-0.2,0.8-0.5,1.2-0.8c1-0.9,2-1.7,2.9-2.7c0,0.9,0,1.8,0,2.8c-0.2,1.8-0.6,3.6-1.2,5.4c-0.3,0.6-0.5,1.2-0.9,1.8
		c-0.2,0.4-0.4,0.8-0.6,1.2c-0.5,1-0.8,2.1-1.1,3.2c-0.5,2.6,0.2,5.4,2.2,7.2c1,0.9,2.1,1.5,3.4,1.8c0.5,0.1,1.1,0.2,1.7,0.2
		c-0.9,0.4-1.7,1.2-2,2.3c-0.3,1.1-0.4,2.3,0,3.5c0.1,0.5,0.4,1.1,0.8,1.6c0.4,0.5,0.9,1,1.3,1.6s0.8,1,1.3,1.5
		c0.7,0.6,1.5,1.1,2.4,1.4c0.8,0.3,1.6,0.6,2.5,0.8c1.2,0.4,2.7,0.2,3.9-0.1c0.4-0.1,0.7-0.3,1.1-0.4c1.3-0.6,2.5-1.1,3.5-2.2
		c0.9-1.1,1.7-2.4,2.4-3.6c0.6-1.1,1.3-2.2,1.8-3.3c0.3-0.8,0.6-1.6,0.9-2.4c0.5-1.4,1-2.7,1.4-4.2c0.6-2.6,0.8-5.3,0.8-7.9
		c0-2.4,0-4.9,0.1-7.4c0.1-1.7,0.1-3.4,0.1-5.1C1192.4,1028.4,1192.4,1027,1192.3,1025.6L1192.3,1025.6L1192.3,1025.6z
		 M1172.1,1053.4c1.8-0.4,3.4-1.5,4.7-2.8c0.8-0.8,1.5-1.8,2.1-2.8c-0.1,0.6-0.2,1.3-0.3,1.9c-0.2,1.1-0.5,2.2-0.9,3.4
		c-0.3,0.7-0.6,1.4-1,2.1c-0.2,0.4-0.4,0.8-0.6,1.2l0,0c-0.1,0.1-0.3,0.2-0.4,0.3c-0.4-0.2-0.9-0.3-1.3-0.5
		c-0.2-1.3-1.2-2.4-2.5-2.7c-0.1,0-0.1,0-0.2,0C1171.7,1053.5,1171.9,1053.5,1172.1,1053.4L1172.1,1053.4L1172.1,1053.4z
		 M1158.6,996.8L1158.6,996.8c-0.2,0.1-0.3,0.3-0.5,0.4l0,0C1158.2,997.1,1158.4,997,1158.6,996.8L1158.6,996.8L1158.6,996.8z
		 M1158.5,996.9c-0.1,0.4-0.2,0.8-0.4,1.2c-0.3,1.1-0.5,2.3-0.6,3.4c-0.2,1.8-0.3,3.7-0.4,5.5c0,1.1-0.1,2.2-0.2,3.4
		c-0.1,1.3-0.3,2.6-0.6,3.9c-0.1-0.6-0.3-1.2-0.4-1.8c-0.3-2.7-0.4-5.4-0.2-8.1c0.2-1.5,0.5-3,1-4.5c0.3-0.7,0.6-1.4,1-2
		C1157.9,997.6,1158.2,997.2,1158.5,996.9L1158.5,996.9L1158.5,996.9z M1158,997.3L1158,997.3c-0.1,0.1-0.1,0.1-0.2,0.2
		C1157.8,997.4,1157.9,997.4,1158,997.3L1158,997.3L1158,997.3z"/>
</g>
<g id="Draw_Layer_1_" class="st0">
	<path class="st5" d="M796.3,17.6c0.6,7.3-1.4,14-3.6,20.5c-1.3,3.8-4,7.3-6.6,10.5c-3.6,4.4-8.3,7.7-13.3,10.7
		c-4.3,2.6-9,3.7-13.8,4.5c-2.6,0.4-5.4,1-8,0.7c-4.8-0.5-9.7-1.4-14.4-2.6c-3.5-0.9-6.8-2.7-9.5-5.3c-0.8-0.8-2-1.1-2.8-1.8
		c-1.1-0.9-1.9-1.9-2.9-2.9c-1-0.9-2.1-1.7-3-2.7c-1.7-1.7-3.1-3.6-3.8-6c-0.3-1-1.4-1.8-1.8-2.8c-1.5-3.6-2.9-7.2-4.2-10.9
		c-1.7-5.1-1.2-10.5-0.6-15.5c0.7-5.3,2-10.8,5.6-15.2c0.4-0.5,0.6-1.2,0.9-1.9c0.6-1.1,1-2.5,1.8-3.4c2.3-2.6,4.6-5.3,7.2-7.5
		c2.2-1.9,4.8-3.6,7.4-4.8c4.1-1.8,8.3-3.7,12.6-4.5c4.1-0.8,8.4-0.1,12.6-0.2c3-0.1,5.8,0.7,8.6,1.5c3.2,0.9,6.4,1.9,9.2,3.8
		c3.5,2.3,7,4.5,9.9,7.6c3.7,4,7.2,8.2,8.9,13.5C794.5,7.5,796.3,12.3,796.3,17.6L796.3,17.6L796.3,17.6z M760-11
		c-2.1,1.2-3.1,3.2-2.4,5.2c1.3,3.8,5.9,6.6,9.8,6c3.7-0.6,6-4.9,4.3-8c-1.5-2.6-4.4-3.1-6.8-4.4C763.5-12.9,761.6-12.3,760-11
		L760-11L760-11z M742.1-18.3c-2.3,1.9-2.1,3.9-1.2,5.2c2,3,3.3,3.8,5.5,2.7c1-0.5,1.7-1.6,2.5-2.5c1.5-1.9,0.5-4.1-1.7-6.1
		C745.6-20.3,743.9-20.1,742.1-18.3L742.1-18.3L742.1-18.3z M1015.7-16.5c0.2,0.4,0.3,0.7,0.5,0.9c5.4,4.2,8.5,10.1,11.1,16.1
		c1.2,2.7,1.7,5.7,2.3,8.7c0.5,2.6,0.8,5.2,0.7,7.8c-0.1,3-0.6,6-1.3,8.9c-0.6,2.8-1.3,5.7-2.6,8.2c-1.8,3.5-3.8,7-6.3,10
		c-3.6,4.5-8.2,8-13.3,10.5c-2.9,1.5-5.9,3.1-9,3.8c-4.4,1.1-8.8,2.4-13.4,1.9c-4.3-0.5-8.5-1.3-12.5-3.3c-2.6-1.3-5.5-2.2-8.2-3.6
		c-2.1-1.1-3.9-2.7-5.9-4.1c-4.7-3.4-7.3-8.4-10.4-13c-2.4-3.7-3.7-7.9-4.2-12.2c-0.4-3-0.8-6-0.7-8.9c0.1-4.1,0.8-8.2,1.9-12.2
		c1.3-4.9,4.1-8.8,6.8-12.9c2.8-4.2,6.4-7.4,10.4-10c4.1-2.7,8.7-4.9,13.3-6.5c5.4-1.9,11.2-1.6,16.9-1.1c3.3,0.3,6.7,1,9.7,2.8
		c2.4,1.5,5.1,2.6,7.7,3.8c1.9,0.9,4,1.6,5.1,3.6C1014.7-17.1,1015.2-16.9,1015.7-16.5L1015.7-16.5L1015.7-16.5z M1020.5-0.7
		c-0.9-2-2.6-2.8-4.5-3.1c-0.9-0.2-2.3,0.4-2.8,1.1c-0.7,1-0.9,2.4-0.9,3.6c0,1,0.7,2.1,1.1,3.1c0.6,1.4,1.3,2.8,2.9,3
		s3.2,0.4,4.3-1.3C1022,3.5,1021.8,1.5,1020.5-0.7L1020.5-0.7L1020.5-0.7z M998.4-11.5c0.8,2.8,3.3,3.9,6,2.7
		c1.4-0.6,2.2-1.6,2.2-3.2c0-1.6-0.3-3-1.9-3.9C1001.4-17.7,998.1-15.6,998.4-11.5L998.4-11.5L998.4-11.5z"/>
</g>
<g id="Draw_Layer_2_" class="st0">
	<path class="st5" d="M941.8-6c10.2-17.2,32.5-26.1,51.7-20.6c5.2,1.5,10,3.8,14.8,6.2c2.6,1.3,5.6,3.2,5.4,6.1
		c10.9,3.1,19.9,12.3,22.8,23.2c2.9,11-0.3,23.4-8.2,31.5c-3.2,3.3-7.1,6-11.1,8.4c-5.9,3.5-12,6.6-18.2,9.5c-3,1.4-5.9,2.7-9.1,3.6
		c-5,1.4-10.4,1.6-15.6,0.6c-5.3-1.1-10.3-3.5-15.2-5.8c-2.3-1.1-4.6-2.2-6.7-3.7c-5.2-3.7-8.6-9.3-11.8-14.8
		c-6.8-12-7.4-27.3-1.6-39.8C940-3,940.9-4.5,941.8-6L941.8-6L941.8-6z M970.6,60.3c13.3,3.2,28.1-0.5,38.4-9.6
		c-13.1,2.2-27.2-4.2-34.1-15.5s-6.2-26.8,1.7-37.4c7.9-10.6,22.5-15.8,35.4-12.4c-12.7-11.7-32.5-15.2-48.4-8.4s-27,23.7-26.7,41.1
		c0.3,17.3,12.1,33.9,28.4,39.7C967.1,58.5,969.1,59,970.6,60.3L970.6,60.3L970.6,60.3z M1029.7,5.1c-0.2-1.7-1-3.4-2.4-4.5
		c-2.3-1.8-5.8-1.9-8.1-0.1s-3.2,5.2-2.1,7.8c1,2.4,3.6,4,6.2,4c2.6-0.1,5.1-1.9,6-4.3C1029.6,7.1,1029.8,6.1,1029.7,5.1L1029.7,5.1
		L1029.7,5.1z M1012-1.4c1.1-0.1,2.1-0.7,3-1.3c1-0.7,1.9-1.5,2.1-2.7c0.1-0.7-0.1-1.4-0.5-2c-1-1.9-3.4-3-5.5-2.6s-3.8,2.6-3.6,4.8
		S1009.8-1.1,1012-1.4L1012-1.4L1012-1.4z M719.8,54c-1.5-2.3-2.7-4.9-5-6.4c-9.9-6.1-16.2-17.7-15.9-29.3s7.1-22.9,17.4-28.5
		c1.5-0.8,3.1-1.6,3.9-3.1c1-1.9,2.8-3.3,4.6-4.5c16.7-11.1,40-11.5,57.1-0.8c11.7,8.5,19.3,22.6,19.9,37.1
		c0.7,14.5-5.6,29.2-16.5,38.7c-1.3,1.1-2.6,2.2-4,3.2c-5,3.6-10.7,6.2-16.7,7.7c-5.6,0.9-11.3,1.1-17,0.6c-6.5-0.6-13-2.1-18.4-5.5
		C725.4,60.9,722.1,57.7,719.8,54L719.8,54L719.8,54z M722.6-12.5c15.1-4.8,33.1,2.9,40,17.2s1.7,33.2-11.4,42
		c-8.8,5.9-20.6,7.2-30.5,3.5c0.9,5.8,6.1,9.9,11.3,12.5c15.1,7.5,34.3,6,48.1-3.7s21.6-27.3,19.5-44.1
		c-2.1-16.7-14.2-31.8-30.1-37.5C753.7-28.2,734.7-24.2,722.6-12.5L722.6-12.5L722.6-12.5z M740,4c0.8,4.1,5.4,7,9.5,6
		s6.6-5.9,5.2-9.9c-0.8-2.4-3-4.3-5.5-4.9c-2.5-0.6-5.2,0.2-7,1.9S739.5,1.5,740,4L740,4L740,4z M736.6-3.5c1.8-1.5,1.5-4.9-0.6-6
		c-0.9-0.5-2-0.6-3.1-0.5c-1.6,0.1-3.4,0.7-4.2,2.1c-0.8,1.5-0.2,3.6,1.1,4.6c1.4,1.1,3.3,1.2,4.9,0.7C735.4-2.7,736.1-3,736.6-3.5
		L736.6-3.5L736.6-3.5z"/>
</g>
<g id="Draw_Layer_3_" class="st0">
	<path class="st5" d="M1005,50.5c-3.8,2-8,3.4-12.3,4.2c-8,1.4-16.3,0.5-23.8-2.6C959,48,950.7,39.9,946.4,30
		c-8.8-20,1-46.3,20.8-55.6s46.3-0.1,56,19.6C1033,13.6,1024.4,40.3,1005,50.5L1005,50.5L1005,50.5z M966.9,21.2
		c1.9,3.9,5,7.1,8.8,9.2c11.2,5.9,27.1-1.9,29.4-14.4c2.2-12.5-10.1-25.3-22.7-23.6C969.8-5.9,961.4,9.7,966.9,21.2L966.9,21.2
		L966.9,21.2z M745.7,58.3c-18.5-0.2-36.1-13.7-41-31.5s3.2-38.5,19-48.1c15.1-9.2,35.9-7.8,49.6,3.4C787-6.7,792.6,13.4,786.6,30
		C780.5,46.5,763.4,58.4,745.7,58.3L745.7,58.3L745.7,58.3z M742.6,37.9c3.3,0,6.6-0.8,9.6-2.4c2.9-1.5,5.5-3.8,7.4-6.5
		c7.2-10.2,2.7-26.5-8.8-31.5c-11.4-5-26.5,2.9-29,15.1S730.2,37.9,742.6,37.9L742.6,37.9L742.6,37.9z"/>
</g>
<g id="Draw_Layer_4_" class="st0">
	<path class="st5" d="M944.8,38.6c-1.4-1-3.1-1.4-4.7-2c-6.3-2.5-10.7-9.1-10.6-15.9c25.6-13.8,50.3-29.2,73.8-46.3
		c3.6-2.6,8.9-2.4,12.3,0.4c3.4,2.8,4.6,8.1,2.6,12.1c-0.7,1.4-1.7,2.7-2.1,4.2c-1,3.4,1,6.8,2.5,9.9c8.9,18.4,1.5,43-16.2,53.4
		c-17.6,10.4-42.8,4.9-54.5-11.9C947.1,41.1,946.1,39.6,944.8,38.6L944.8,38.6L944.8,38.6z M795.5,37.2c-4-1-6.8,3.5-8.9,7
		c-10.7,18.3-36.7,25.5-55.3,15.4c-18.6-10.2-26.5-36.1-16.8-54.9c1.1-2.1,2.3-4.1,2.6-6.4c0.3-2.3-0.8-5-3.1-5.6
		c-4.9-1.3-6.3-8.5-3-12.4c3.3-3.8,9.5-4.2,13.9-1.7c29.1,16.6,58.2,33.1,87.3,49.7c-1.2,2.9-2.4,5.9-4.6,8.1s-5.6,3.5-8.5,2.4
		C797.8,38.4,796.7,37.5,795.5,37.2L795.5,37.2L795.5,37.2z"/>
</g>
</svg>
