<svg id="Draw_Layer" data-name="Draw Layer" xmlns="http://www.w3.org/2000/svg" viewBox="0 0 2732 2048"><defs><style>.cls-1{fill:#2c2c2c;}.cls-2{fill:#bebebe;}.cls-3{fill:#6edaf4;}.cls-4{fill:#725af7;}</style></defs><title>Squirrel</title><path class="cls-1" d="M1288.69,407.47c2.78,23.25,17.47,43.55,21.8,66.57,8.86,47.13-26.58,90.78-33.76,138.2-5.89,39,9,80.45,38.32,106.76-39.82,28.21-57.33,78.79-63.6,127.19s-3.76,98-14.75,145.51c-24.18,104.56,16.22,212,55.92,311.74,5.93,14.91,12.09,30.17,22.92,42s27.54,19.67,43,15.57c20.69-5.48,30.87-28.64,35.46-49.55a251.13,251.13,0,0,0,5.35-69.6c-.54-8.46-1.07-18.16,5-24.08,4.88-4.76,12.37-5.3,19.18-5.57l61.22-2.38A236.77,236.77,0,0,0,1508,1315.43c6.83,14.24,15.51,28.25,28.65,37s31.61,11.1,44.53,2c15-10.54,17.57-31.34,18.8-49.62q3.18-47,6.34-94.06c70.12,36.72,167.72,4.1,201.67-67.4,26.87-56.6,15.4-123.43,27.61-184.88,3.33-16.74,8.91-33.9,21.23-45.72s33-16.33,46.69-6.12c14.87,11.09,14.81,35.42,2.82,49.57s-32.25,19-50.68,16.89c15.73,23.88,49.5,32.31,76.25,22.21s45.76-36,51.7-64,0-57.53-12.21-83.38c-11-23.18-27.09-44.12-47.71-59.35-21-15.48-46.13-24.76-71.86-28.89-96.15-15.42-198.69,49.16-226.33,142.53,1.41-61.66-12.5-125.94-51.64-173.62a148.17,148.17,0,0,0,58.47-98.13c6.78-49.45-11.63-102,6-148.67,7.38-19.54,20.77-36.78,25.3-57.18s-4.93-46.7-25.65-49.37c-16.82-2.17-30.83,11.74-43,23.55s-29.75,23.24-44.91,15.65c-50.43-25.23-112.32-26.23-163.55-2.66-12.48,5.74-26.11-5.79-33.13-17.61s-13-26.18-26-30.81a22.22,22.22,0,0,0-7.51-1.33c-18.73,0-33.66,24.8-31.19,45.37Zm35.78,70.8a495.8,495.8,0,0,1-25.42-82.64,14,14,0,0,1,3.13-11.82A21.86,21.86,0,0,1,1318.6,376a17.94,17.94,0,0,1,4.23.5,24.87,24.87,0,0,1,5.59,2.14,30.12,30.12,0,0,1,7.38,5.51,48.76,48.76,0,0,1,10.87,17.88c.52,1.43,1,2.89,1.48,4.31,1.52,4.59,3.1,9.34,5.93,13.33,3.24,4.57,8.33,7.52,13,7.52a10.62,10.62,0,0,0,3.5-.58c37.84-13,70.4-19.33,99.52-19.33a177.45,177.45,0,0,1,21.92,1.31,146.21,146.21,0,0,1,33,7.88,130.12,130.12,0,0,1,16.12,7.23c1.61.86,3.27,1.79,4.73,2.61,6.05,3.39,12.3,6.9,19.15,8.23a26.31,26.31,0,0,0,4.93.47c6.41,0,14.45-2.49,17.83-9.47a71,71,0,0,1,23.09-27.12c6.74-4.72,15.16-7.55,22.5-7.55,7,0,12.64,2.51,16.29,7.25,2.23,2.89,4.26,6.88,4,13.59-.18,6.06-2.21,12.48-4.62,18.4-.47,1.18-1,2.39-1.53,3.65q-11.79,26.76-23.57,53.53c-2.47,5.62-5.25,8.35-8.5,8.35h-.22c-1.56-.05-3.15-.08-4.73-.08-39.15,0-73.32,17.72-95.09,32.59-26.86,18.34-49.57,41.59-72,66.08q-3,3.25-6,6.53h0l-7.68-19-2.18-5.39c-4-10-8.09-20.06-12.86-29.82l0-.08-.18-.37-.07-.15-.15-.3-.1-.2-.13-.27-.12-.23-.13-.26a2.26,2.26,0,0,0-.11-.22l-.14-.28c0-.06-.06-.13-.1-.2s-.1-.21-.16-.31,0-.1-.07-.16l-.2-.37,0-.09a140.19,140.19,0,0,0-18.1-27.75c-15.16-17.72-35.68-28.3-54.89-28.3a51.26,51.26,0,0,0-5.83.32c-.22,0-.43,0-.65,0-4.36,0-7.28-4.94-9-9.08ZM1399,758.67c-30.09-6.86-58.23-23.68-79.23-47.35a141.19,141.19,0,0,1-16.69-23.06A122.05,122.05,0,0,1,1287.55,644a109.22,109.22,0,0,1-1.08-16.34c.27-26.48,9.36-51.69,18.14-76.06l16.23-45,.44-1.23c1.35-3.75,3.65-8.75,8.08-9,1,0,2-.08,3-.08h0c22.95,0,46.53,13.57,63.06,36.28,15.58,21.41,23.44,47,31,71.76.93,3,2,6.43,1.32,9.76s-3,6.15-5.29,8.79l-.09.1c-.84,1-1.7,2-2.47,3a27.14,27.14,0,0,0,7.22,37.6,24.56,24.56,0,0,0,12.94,3.54c10.09,0,19.72-5.55,24-13.79a27.15,27.15,0,0,0-13.23-35.95,25.6,25.6,0,0,1,1.63-12.9,49.77,49.77,0,0,1,9.28-14.55,124.53,124.53,0,0,1,8.79-9c31.8-29.84,69.62-62.56,116.07-73.07a45.71,45.71,0,0,1,9.84-1.07c4,0,9.85.54,14.74,3.12,4.53,2.4,7.09,5.93,7.61,10.51,3.82,33.93,7.78,69,2.72,103.46-5.66,38.55-22.57,70.28-47.59,89.34-42,32-90.61,49.62-136.86,49.62a171.5,171.5,0,0,1-38.09-4.23Zm29.13-99.14a16.07,16.07,0,0,1-6.13-16.78c1.54-6,6.93-11,13.41-12.53a20.84,20.84,0,0,1,4.7-.53,25,25,0,0,1,13.67,4.29c4.76,3.18,2.16,10.8,1.24,13.07-1.73,4.3-4.33,9.64-9,12.77a15.65,15.65,0,0,1-8.69,2.55,15.88,15.88,0,0,1-9.16-2.84Zm-92.84,367c-17.93-2.47-31.8-16.81-42.17-31.64a208.45,208.45,0,0,1,19-262.24c3-3.2,8.34-6.32,11.21-3,26.89,31.2,69.61,45.79,110.8,45.2s81.1-14.86,117.81-33.56c7.29-3.71,16.55-.93,22.61,4.57s9.6,13.18,12.8,20.71c18.25,42.83,31.35,89.16,27.28,135.54s-27.7,92.86-68.47,115.35c-11.73,6.47-25.28,10.91-38.46,8.53s-25.44-13.17-26.07-26.55c-.53-11.32,6.77-21.29,13.18-30.63a281.51,281.51,0,0,0,17.35-28.82c4.92-9.4,9.35-19.25,10.85-29.75,5-34.77-27-68.09-62-70.44s-68.51,21.41-84.2,52.83-15.76,68.83-7.37,102.94c4,16.35-13.44,31.21-30.32,31.21a26.48,26.48,0,0,1-3.78-.26Zm317.53,185.69-.13,0-.21,0-.26,0-.1,0-.34-.07h0c-1.22-.23-2.43-.49-3.63-.77h0l-.32-.07-.14,0-.23-.05-.25-.06-.11,0a129.27,129.27,0,0,1-20.84-6.82,28.12,28.12,0,0,1-9.38-6.33c-2.09-2.24-3.46-4.8-3.39-7.52a7.84,7.84,0,0,1,.55-2.76c40.24-102.7,48.26-186.62,24.53-256.56a45.86,45.86,0,0,1-2.08-9.07c-1.45-11.12.85-22.63,4.84-33.53q2.13-5.81,5.1-11.94A192,192,0,0,1,1754,780.05a189.3,189.3,0,0,1,63.56-10.82,194.27,194.27,0,0,1,33,2.82l.22,0,.28,0,.47.09h0a193.46,193.46,0,0,1,19.61,4.54l.21.07.33.09a186.1,186.1,0,0,1,26.74,10c12.77,6,22.93,12.51,31.06,20,7.19,6.62,13.8,14.86,20.79,25.93a180.8,180.8,0,0,1,11.17,20.43q2.29,4.92,4.26,10a143.47,143.47,0,0,1,6,19.18c4.38,18.79,4.16,36.49-.66,52.63A72,72,0,0,1,1961,955.74c-11.3,16.22-28.88,28.27-47.49,31.12a54,54,0,0,1-8.4.67,51.22,51.22,0,0,1-16.52-2.71c-1.89-.64-6.29-2.51-6.12-6.07l1.21,0c19.25,0,34.32-16.74,40.17-32.29a60.46,60.46,0,0,0,2.62-8.93l0-.08a.36.36,0,0,1,0-.1,51.3,51.3,0,0,0,1.06-11.69,39.15,39.15,0,0,0-3.27-14.81c-3.56-8-10.27-14.31-18.75-18.17a47.31,47.31,0,0,0-11-3.41,50.89,50.89,0,0,0-9.06-.81,47.44,47.44,0,0,0-18.37,3.63,61.29,61.29,0,0,0-22.68,17.19,86.88,86.88,0,0,0-14.11,24.2q-1.74,4.46-3.11,9.25c-5.17,18.16-5.94,37.45-6.69,56.12-.13,3.34-.26,6.67-.42,10a668.14,668.14,0,0,1-8.25,77.55c-2.42,14.54-5.46,30-11.27,44.79a126.82,126.82,0,0,1-8.42,17.37l0,0-.14.25q-2.88,4.92-6.16,9.58l-.1.14a.61.61,0,0,1-.07.1,133.68,133.68,0,0,1-27.76,28.88l-.1.09-.1.07a132,132,0,0,1-12.49,8.5,126.67,126.67,0,0,1-34.53,14.35l-.31.07h0c-3.42.86-6.88,1.58-10.35,2.16l-.11,0-.18,0a134.34,134.34,0,0,1-46.61-.51h0l-.33-.07Zm-284.39-183.62c12.55-14.79,10.27-37,8.43-54.84-2.95-28.71-3.78-58.66,10-83.2,13-23.21,39.76-38.21,68.08-38.21h0a71,71,0,0,1,28.89,5.94c12.93,5.72,22.46,14.62,26.84,25,9.49,22.63-4.83,47.37-19,68.79-2.15,3.25-4.38,6.76-6.53,10.46-6,10.32-11,21.53-12.66,32.56-1.3,8.9-.4,17.79,4.19,26a33.9,33.9,0,0,0,17,14.54l0,0,.18.07.13.05.1,0,.2.08h0c1,.38,2,.73,3,1l.18,0,.08,0a38.41,38.41,0,0,0,10.52,1.47,33.73,33.73,0,0,0,16.21-4c.7-.38,1.4-.8,2.08-1.25h0a208.1,208.1,0,0,1-9.57,50.86c-2.58,8-6.87,19.81-14.34,29.67-8.83,11.66-22,20.75-38.12,26.27a101.49,101.49,0,0,1-33.05,5.43,105,105,0,0,1-62.87-20.62,105.61,105.61,0,0,1-41.29-82h0v-.22c0-1.9,0-3.8.11-5.69h0a33,33,0,0,0,14.77,3.41,34.76,34.76,0,0,0,26.34-11.75Zm252.66-109.28h0a208.14,208.14,0,0,1,9.31,24.2,238.55,238.55,0,0,1,10,50.75,286.47,286.47,0,0,1-.32,53.07c-3.75,38.65-14.46,78.7-33.71,126-12.51,30.76-13.26,64.87-14,97.87v.2c-.22,9.84-.44,20-1,29.93-.13,2.35-.37,5.3-.81,8.57-1.5,11.19-4.94,22.66-11.65,30.17a24.39,24.39,0,0,1-13.57,8,24,24,0,0,1-4.77.48c-15,0-27.17-13.82-33.11-22.05a156.42,156.42,0,0,1-23.32-48.15,162.23,162.23,0,0,1-5-23.89,156.85,156.85,0,0,1,2.13-53.84,4.33,4.33,0,0,0-.86-3.8c-2.05-2.55-6.75-3.46-10.14-3.46a16.81,16.81,0,0,0-1.93.1l-41.09,4.15-40.3,4.08c-4.52.46-8.8,1.12-11.55,4.12-3.1,3.38-3,8.71-3,12.61a434.58,434.58,0,0,1-7.42,85.8c-2.9,15.43-7.71,32.26-21.4,40.16a29.2,29.2,0,0,1-14.79,3.86,35.65,35.65,0,0,1-8.38-1,46.22,46.22,0,0,1-14.21-6.18,50.27,50.27,0,0,1-13.89-13.27c-9.64-13.75-13.4-30.65-17-47-.59-2.7-1.27-5.75-2-8.66a347.71,347.71,0,0,0-19.85-59.69c-2.41-5.5-5.06-11.16-7.39-16.16-5.53-11.82-11.25-24-15.29-36.7-4.66-14.58-7.54-30.72-9.33-52.33a486.3,486.3,0,0,1,11.73-153.64c.68-2.83,3-6,5.18-6a2.31,2.31,0,0,1,1.65.73q1.85,7.07,4.37,13.9a148.94,148.94,0,0,0,24.93,43.12,147.3,147.3,0,0,0,11,11.88c10.4,10,13.39,24.85,16.29,39.18l0,.14c.77,3.78,1.56,7.69,2.47,11.41,11.69,47.69,54.19,85.62,101.06,90.19,3.07.3,6.21.45,9.33.45a102.09,102.09,0,0,0,14-1,110.71,110.71,0,0,0,53.58-23.44c16-13,28.16-30.39,33.44-50l6.27-23.28,6.28-23.28c1.3-4.84,3.23-10,7.68-11.42a76.15,76.15,0,0,0,18.86-9.23l0,0,.07-.05A96.77,96.77,0,0,0,1594,993.16a115.17,115.17,0,0,0,6.42-10c12.11-21.23,17.38-45.22,20.62-63.75h0Z"/><path class="cls-2" d="M1621.07,919.37h0c-3.24,18.53-8.51,42.52-20.62,63.75-12.23,21.44-29.86,36.78-49.64,43.19-4.45,1.44-6.38,6.58-7.68,11.42l-6.28,23.28-6.27,23.28c-11.43,42.41-54.86,74.39-101,74.39-3.12,0-6.26-.15-9.33-.45-46.87-4.58-89.37-42.5-101.06-90.18-.91-3.73-1.7-7.64-2.47-11.42l0-.13c-2.9-14.34-5.89-29.17-16.29-39.19a147.47,147.47,0,0,1-40.34-68.9,2.29,2.29,0,0,0-1.65-.73c-2.15,0-4.51,3.16-5.18,6a486.3,486.3,0,0,0-11.73,153.64c1.79,21.61,4.67,37.74,9.33,52.32,4,12.66,9.76,24.89,15.29,36.71,2.33,5,5,10.66,7.39,16.16a347.71,347.71,0,0,1,19.85,59.69c.69,2.91,1.37,6,2,8.66,3.64,16.34,7.39,33.24,17,47,8.58,12.25,23.24,20.48,36.48,20.48a29.2,29.2,0,0,0,14.79-3.86c13.69-7.9,18.5-24.73,21.4-40.16a434.58,434.58,0,0,0,7.42-85.8c0-3.9-.12-9.23,3-12.61,2.75-3,7-3.66,11.55-4.12l40.3-4.08,41.09-4.15a16.81,16.81,0,0,1,1.93-.1c3.39,0,8.09.91,10.14,3.46a4.34,4.34,0,0,1,.86,3.81c-9.42,43.07.37,90.12,26.19,125.87,5.94,8.23,18.15,22.05,33.11,22.05a24,24,0,0,0,4.77-.48c21.43-4.37,25.34-34.13,26-46.72.54-9.91.76-20.09,1-29.93v-.2c.73-33,1.48-67.11,14-97.87,19.25-47.35,30-87.4,33.71-126,4.55-46.86-2-91.13-19-128Z"/><path class="cls-2" d="M1817.59,769.23A189.3,189.3,0,0,0,1754,780.05a192,192,0,0,0-107.69,96.46c-10.29,21.23-12.94,39.58-7.86,54.54,23.73,69.94,15.7,153.87-24.53,256.56-2.63,6.71,4.49,13.31,12.22,16.61a132.31,132.31,0,0,0,174.42-73c5.81-14.76,8.85-30.25,11.27-44.79a668.14,668.14,0,0,0,8.25-77.55c.16-3.33.29-6.66.42-10,.75-18.67,1.52-38,6.69-56.12,6.94-24.35,21.48-42.81,39.9-50.64a47.47,47.47,0,0,1,18.37-3.63c17.48,0,32.7,8.79,38.77,22.39,4.53,10.15,4.37,22.8-.45,35.61-5.85,15.55-20.92,32.29-40.17,32.29l-1.21,0c-.17,3.56,4.23,5.43,6.12,6.08a51.49,51.49,0,0,0,16.52,2.7c28.22,0,57.2-23,66-52.45,4.82-16.14,5-33.84.66-52.63-3.8-16.29-11.21-33.44-21.41-49.58-7-11.07-13.6-19.31-20.79-25.93-8.13-7.48-18.29-14-31.06-20a192.35,192.35,0,0,0-80.86-17.72Z"/><path class="cls-3" d="M1454.94,852.4h0c-28.32,0-55,15-68.08,38.21-13.79,24.54-13,54.49-10,83.2,1.84,17.85,4.12,40.05-8.43,54.84-6.24,7.36-16.09,11.75-26.34,11.75a33,33,0,0,1-14.77-3.41,105.38,105.38,0,0,0,41.17,88,105,105,0,0,0,62.87,20.62,101.49,101.49,0,0,0,33.05-5.43c16.1-5.52,29.29-14.61,38.12-26.27,7.47-9.86,11.76-21.66,14.34-29.67a207.63,207.63,0,0,0,9.57-50.86,33.27,33.27,0,0,1-18.3,5.25c-13.2,0-25.55-6.82-31.45-17.38-12.58-22.52,2.53-50.18,15-69,14.17-21.42,28.49-46.16,19-68.79-4.38-10.43-13.91-19.33-26.84-25a71,71,0,0,0-28.89-5.94Z"/><path class="cls-3" d="M1332.39,496.33h0c-1,0-2.05,0-3,.07-4.42.23-6.73,5.23-8.08,9l-.44,1.23-16.23,45c-8.78,24.37-17.87,49.58-18.14,76.06-.28,29.43,11.53,59.13,33.28,83.64,21,23.67,49.14,40.49,79.23,47.35a171.5,171.5,0,0,0,38.09,4.23c46.25,0,94.85-17.63,136.86-49.62,25-19.06,41.92-50.79,47.59-89.34,5-34.45,1.1-69.53-2.72-103.46-.52-4.58-3.08-8.11-7.61-10.51-4.89-2.58-10.71-3.12-14.74-3.12a45.09,45.09,0,0,0-9.84,1.08c-46.45,10.49-84.27,43.22-116.07,73.06-10.85,10.19-21.68,22.48-19.69,36.45a27.15,27.15,0,0,1,13.22,35.95c-4.23,8.24-13.86,13.79-24,13.79a24.56,24.56,0,0,1-12.94-3.54A27.14,27.14,0,0,1,1420,626c.77-1,1.63-2,2.47-3l.09-.1c2.27-2.65,4.61-5.38,5.29-8.78s-.39-6.76-1.32-9.77c-7.6-24.75-15.46-50.35-31-71.76-16.53-22.71-40.11-36.27-63.06-36.27Z"/><path class="cls-4" d="M1440.09,629.69a20.84,20.84,0,0,0-4.7.53c-6.48,1.52-11.87,6.55-13.41,12.53a16.07,16.07,0,0,0,6.13,16.78,15.88,15.88,0,0,0,9.16,2.84,15.71,15.71,0,0,0,8.7-2.55c4.7-3.13,7.3-8.47,9-12.77.91-2.27,3.52-9.89-1.25-13.07a25,25,0,0,0-13.67-4.29Z"/><path class="cls-2" d="M1318.6,376a21.9,21.9,0,0,0-16.42,7.78,14,14,0,0,0-3.13,11.82,495.8,495.8,0,0,0,25.42,82.64c1.68,4.14,4.6,9.08,9,9.08.22,0,.43,0,.65,0a51.26,51.26,0,0,1,5.83-.32c19.21,0,39.73,10.58,54.89,28.3s24.12,39.8,32.7,61.06l2.18,5.39,7.68,19c24.41-26.87,48.73-52.64,78-72.61,21.77-14.87,55.94-32.6,95.09-32.6,1.58,0,3.17,0,4.73.09h.22c3.25,0,6-2.73,8.5-8.35q11.78-26.76,23.57-53.53c9.55-21.69,6.18-30.44,2.18-35.64-3.65-4.74-9.28-7.25-16.29-7.25-7.34,0-15.76,2.83-22.5,7.55a71,71,0,0,0-23.09,27.12c-3.38,7-11.42,9.47-17.83,9.47a26,26,0,0,1-4.92-.47c-6.86-1.34-13.11-4.84-19.15-8.23-1.47-.82-3.13-1.75-4.74-2.61-20.41-10.9-44.31-16.42-71-16.42-29.12,0-61.68,6.32-99.52,19.33a10.58,10.58,0,0,1-3.5.58c-4.64,0-9.73-3-13-7.52-2.83-4-4.41-8.74-5.93-13.33-.48-1.41-1-2.88-1.48-4.31-5-13.72-13.69-23-23.84-25.53a17.94,17.94,0,0,0-4.23-.5Z"/><path class="cls-2" d="M1396.35,788.92c-3.59.07-7.18.06-10.76.12s-7.39.18-11.07.47c-5.74.45-11.45,1.27-17.13,2.18-7.29,1.18-14.74,1.89-21.8,4.15a63.2,63.2,0,0,0-10.39,4.27,36.23,36.23,0,0,0-8.63,6.55,41.71,41.71,0,0,0-5.51,7.16,16,16,0,0,0-1.06,2.11c-2.26,5.11-4.23,10.43-6.14,15.69-.51,1.4-1,2.8-1.39,4.24a21.93,21.93,0,0,0,10.09,24.78,21.76,21.76,0,0,0,11.08,3l5.83-.79a21.91,21.91,0,0,0,9.69-5.64c3-3.47,5.58-7.21,8.23-10.92,1-1.11,2-2.22,3.06-3.28l.47-.26c6-2,12.18-3,18.34-4.34,7.29-1.62,14.61-2.87,22-3.91,5.56-.79,11.1-1.64,16.63-2.67,4.81-.9,9.59-1.92,14.41-2.75,6.39-.65,12.8-.94,19.23-1.06,7.44-.14,14.88-.18,22.31-.68s14.66-1.44,22-2.11,14.71-1,22.05-1.8q6.06-.67,12.13-1.15c2-.16,4.11-.31,6.16-.57,4.36-.54,10.4-1,11.71-6.28a6.5,6.5,0,0,0-.64-4.88,6,6,0,0,0-3.79-2.92c-7-1.86-13.83-4.68-21-5.92s-14.24-2.37-21.38-3.37c-12.55-1.75-25.2-2.68-37.78-4.25-6.22-.87-12.44-1.76-18.64-2.84a148.79,148.79,0,0,0-16.15-2.18c-3.75-.23-7.52-.28-11.29-.32h-1.29c-3.17,0-6.35.11-9.53.18Z"/><path class="cls-2" d="M1313.27,778.35a7.34,7.34,0,0,0-.89.24,15.38,15.38,0,0,0-3.89-.39,21,21,0,0,0-6.07,1,48.7,48.7,0,0,0-7.91,3.45,16.07,16.07,0,0,0-2,1.27,53.44,53.44,0,0,0-4.63,3.72,37.38,37.38,0,0,0-3.57,4.08c-1.74,2.24-3.45,4.46-5,6.86-1,1.63-2,3.29-3,5-1.79,3.11-3.56,6.24-5.27,9.4s-3.35,6.38-4.76,9.69a52.11,52.11,0,0,0-3.09,8.24c-.41,1.7-.76,3.41-1.19,5.1-.84,3.3-1.8,6.57-2.66,9.86a100.26,100.26,0,0,0-2.16,10.13c-.38,2.54-.77,5.09-1,7.65-.46,5.27,1.83,11.3,6.64,13.93l.48.26c-.37,3.68-.65,7.37-.79,11.08-.1,2.51-.1,5,0,7.54.05,1.4.09,2.8.19,4.2,0,.74.1,1.48.16,2.23.14,2.09.5,4.17.83,6.24a18.72,18.72,0,0,0,2,5.28,14.42,14.42,0,0,0,18.64,5.77c.27,1.32.57,2.64.9,3.95.13,1.43.26,2.86.4,4.28.19,1.91.46,3.8.72,5.7.14,1,.23,2.11.42,3.14s.39,2.25.67,3.36a32,32,0,0,0,2.41,6.35c.78,1.06,1.58,2.09,2.41,3.1a14,14,0,0,0,6.24,3.64,26.11,26.11,0,0,0,3.93.52,13.79,13.79,0,0,0,10-4.12,14.36,14.36,0,0,0,4.12-10,22,22,0,0,0-1.39-7.2l-.12-.75c-.46-4.81-.72-9.63-1.06-14.45-.19-2.65-.35-5.31-.67-8-.41-3.31-.87-6.6-1.36-9.9-.22-1.93-.4-3.87-.51-5.81-.15-2.83-.09-5.61,0-8.44.21-4.56.89-9.11,1.49-13.64.26-1.75.55-3.51,1-5.23.64-2.67,1.37-5.3,2.17-7.93,1.26-4.1,2.67-8.19,4.22-12.2,1.17-2.53,2.46-5,3.87-7.41a70.57,70.57,0,0,1,4.17-6.24c2-2.49,4.18-4.89,6.35-7.27a78.33,78.33,0,0,0,5.23-6.42,23.82,23.82,0,0,0,1.84-2.81,28.67,28.67,0,0,0,2.31-5.51c.22-.72.41-1.42.57-2.16.29-1.44.42-2.91.59-4.37a6.08,6.08,0,0,0,0-1.28,28.44,28.44,0,0,0-.63-4.2,20.64,20.64,0,0,0-1.61-3.79c-1.16-2.39-3.55-4.37-5.68-5.85a19,19,0,0,0-3.78-1.76,14.87,14.87,0,0,0-4.09-.77,13.54,13.54,0,0,0-5.89-7.12l-3.2-1.35a13.52,13.52,0,0,0-7.14,0Z"/><path class="cls-2" d="M1304.1,746c-3.18.13-4.54,2.18-6.23,4.38-.71.92-1.37,1.86-2,2.82-1.42,2.1-3.1,4-4.41,6.21-1.17,1.93-2.55,3.72-3.68,5.67-.89,1.55-1.84,3.07-2.8,4.58-1.74,2.77-3.49,5.53-5.3,8.25a61,61,0,0,0-5.91,12.09c-.63,1.66-1.2,3.35-1.84,5-.34.7-.7,1.39-1,2.1s-.72,1.63-1.09,2.44c-.86,1.93-1.74,3.85-2.53,5.81a116,116,0,0,0-4,12.64c-.63,2.32-1.26,4.62-1.77,7-.46,2.18-1.07,4.31-1.47,6.49-.46,2.58-.82,5.2-1.48,7.73-.71,2.72-1.4,5.44-2.13,8.15a59.1,59.1,0,0,0-2,10.72c-.25,3.13-.09,6.27-.09,9.41,0,6.21-.59,12.45.07,18.66a80.64,80.64,0,0,0,1.26,8.46c.55,2.59,1.09,5.16,1.51,7.78.37,2.34.91,4.66,1.41,7,.46,2.13,1,4.21,1.4,6.35s.53,4.19.89,6.27c.28,1.64.64,3.26.91,4.9.37,3,.7,6,1.31,8.9a33.1,33.1,0,0,0,1,4.06c.47,1.42,1.05,2.8,1.64,4.18a29.12,29.12,0,0,1,1.11,3.66c.15.67.3,1.34.48,2a33.86,33.86,0,0,0,1.87,4.82,40.66,40.66,0,0,0,5.37,8.42,33.63,33.63,0,0,1,3.39,5.88c.66,1.72,1.24,3.47,2,5.17a63.59,63.59,0,0,0,3.4,7.29c.84,1.46,1.72,2.88,2.58,4.33a44.61,44.61,0,0,0,3.88,5.29c.77,1.09,1.47,2.21,2.26,3.27a34.18,34.18,0,0,0,4.64,5.38,39.1,39.1,0,0,0,5.6,4.33c1.39.86,2.85,1.55,4.28,2.34a20.07,20.07,0,0,0,6.15,2.5,13.71,13.71,0,0,0,6.37,0,11.65,11.65,0,0,0,5.6-3.35,17.53,17.53,0,0,0,4-8.34,50.48,50.48,0,0,0,.56-12.52c-.26-4.72-.63-9.44-.59-14.17a121.22,121.22,0,0,1,.75-12.78c1-7,2-13.93,3.3-20.83,1.36-7.19,3-14.36,4.88-21.44a228.29,228.29,0,0,1,9.28-28.07,120,120,0,0,1,5.76-11.37c2.2-3.8,4.7-7.41,7.24-11a119.76,119.76,0,0,1,8.41-9.47c1.68-1.7,3.39-3.37,5.1-5,.94-.92,1.89-1.85,2.88-2.73a6.12,6.12,0,0,0,1.77-1.45c.5-.64,1-1.3,1.51-1.94a9.69,9.69,0,0,0,0-9.75,9.92,9.92,0,0,0-8.53-4.8,6.16,6.16,0,0,0-1,0,10.89,10.89,0,0,0-6,.39,32.24,32.24,0,0,0-3.68,1.6,11.3,11.3,0,0,0-.48-3.27c-.36-.86-.72-1.72-1.09-2.58a11,11,0,0,0-3.88-3.89,8.35,8.35,0,0,0-3.1-1.31,10.92,10.92,0,0,0-5.73,0,11.71,11.71,0,0,0-3,1.21,26.71,26.71,0,0,0-6.89,6.39c-2.12,2.69-4.11,5.44-6,8.3-1.08,1.64-2.09,3.31-3.13,5-4.14,6.56-8,13.31-11.59,20.17-1.67,3.16-3.2,6.4-4.72,9.63-.91,1.94-1.83,3.89-2.73,5.84a8.57,8.57,0,0,0-.69.66c-2.55,2.71-4.73,5.78-7,8.73l.48-.61a28.52,28.52,0,0,0-3.69,5.9,48,48,0,0,0-1.81,4.56l0,0A15,15,0,0,0,1292,895c-2.37-.65-4.14-.35-6.52,0a10.88,10.88,0,0,0-3.51,1.65,14.44,14.44,0,0,0-4.17,4.18,19.19,19.19,0,0,0-2.27,4.69c-.39-1.39-.79-2.77-1.15-4.16-.71-2.79-1.16-5.65-1.78-8.46-.53-2.42-1-4.82-1.42-7.26-.59-5.23-.62-10.53-.74-15.79s-.5-10.31,0-15.41c.27-1.56.62-3.1.91-4.66q.67-3.56,1.1-7.15c.36-3.11.68-6.23,1.06-9.33.29-1.91.65-3.81,1-5.72.42-2.4,1.16-4.73,1.78-7.08.23-.89.44-1.79.66-2.68a7.51,7.51,0,0,0,5-2,13.23,13.23,0,0,0,1.87-2.45c.89-1.35,1.79-2.66,2.6-4.05s1.64-3,2.42-4.46c1.46-2.78,2.79-5.63,4.22-8.43,1.34-2.62,2.67-5.25,4-7.85,1.26-2.39,2.63-4.73,3.88-7.12,1.48-2.82,2.6-5.81,3.8-8.75a65.15,65.15,0,0,1,3.85-7.3,14,14,0,0,0,2-4.24c.13-.64.21-1.29.28-1.95a3.74,3.74,0,0,1,.12-.45l.22-.39.11-.11c.36-.22.74-.43,1.12-.63a5.35,5.35,0,0,0,1.91-7.26,5.27,5.27,0,0,0-5.89-2.42,5.79,5.79,0,0,0-4.17-2Zm-5,3v0l0,.06.06-.08Z"/><path class="cls-2" d="M1323.5,751.55a7.69,7.69,0,0,0-3.08,14.29c2.74,1.63,5.59,3.06,8.44,4.48a83.83,83.83,0,0,1,8.36,4.86,81.43,81.43,0,0,0,7.85,4.52c1.35.68,2.71,1.34,4.1,1.95,1.2.52,2.4,1,3.61,1.52.33.13.67.24,1,.36l.69.18a8.29,8.29,0,0,0,4,0,7.21,7.21,0,0,0,3.18-1.85,7.11,7.11,0,0,0,1.86-3.19,7.2,7.2,0,0,0,.09-3.45,6.43,6.43,0,0,0,4-6,6.23,6.23,0,0,0-1.91-4.62,51.15,51.15,0,0,0-5.1-3.56c-1.33-.8-2.68-1.57-4.07-2.27-2.75-1.36-5.59-2.55-8.42-3.73-1.17-.52-2.31-1.07-3.48-1.58-1.88-.8-3.75-1.49-5.68-2.14-1.63-.55-3.2-1.27-4.81-1.85-.8-.29-1.61-.57-2.44-.79a11.45,11.45,0,0,0-2.54-.37h-.18a6.44,6.44,0,0,0-5.41,3.25Z"/><path class="cls-2" d="M1557.13,740a34.8,34.8,0,0,0-4.74,2,71.17,71.17,0,0,0-6.76,3.12c-2.24,1.22-4.53,2.34-6.8,3.51-3.47,1.8-7,3.58-10.54,5.17-4.84,2-9.73,3.78-14.55,5.81l3.33-1.4c-2.14.89-4.29,1.77-6.47,2.54s-4.43,1.36-6.64,2a90.82,90.82,0,0,1-11.81,2.76c-2.68.28-5.34.48-8,.89a22.28,22.28,0,0,0-6,2.14,71.73,71.73,0,0,1-9,2.44c-3.77.83-7.59,1.57-11.41,2.14a147.71,147.71,0,0,1-17.09,1c-3.21,0-6.43,0-9.64-.06-2.87-.1-5.73-.32-8.6-.26-2.45,0-4.9-.15-7.35-.18-1.94,0-3.89,0-5.82-.2a31.62,31.62,0,0,1-5.29-1.7,40,40,0,0,0-7.56-1.89,97.48,97.48,0,0,0-10.76-1.17c-2.53-.18-5-.56-7.55-.55a78.94,78.94,0,0,1-8.56-.49l-2.1-.2c-1.2-.34-2.41-.67-3.62-1-3.23-.83-6.42-1.64-9.59-2.69s-6.35-2.44-9.55-3.59c-3-1.11-6.1-2.25-9.18-3.24-1.92-.61-3.9-1.07-5.85-1.6s-4-1.29-6.11-1.68a57.59,57.59,0,0,0-6.26-.8,28.7,28.7,0,0,0-7.72.52,9.33,9.33,0,0,0-3.8,1.66,13.81,13.81,0,0,0-4.92,4.92,18.71,18.71,0,0,0-1.49,3.47,14.08,14.08,0,0,0,.23,8.45c.47,1.17,1,2.31,1.47,3.44a24.33,24.33,0,0,1,1,3.46,37.64,37.64,0,0,0,.89,5.39,22.4,22.4,0,0,0,3.74,7.68,62.11,62.11,0,0,0,5.79,6.81c1.19,1.17,2.43,2.27,3.66,3.38,3.67,3.28,7.42,6.58,11.75,9a22.23,22.23,0,0,0,2.27,1c2.1.89,4.18,1.84,6.34,2.59,1.74.61,3.48,1.21,5.25,1.74,7.14,2.15,14.51,3.24,21.79,4.8,3.58.77,7.14,1.57,10.75,2.24,5,.91,10,1.56,15.07,2.06a180.23,180.23,0,0,0,19.45.42c-1.13.11-2.26.31-3.38.49a43,43,0,0,0-5.78,1.48,111.12,111.12,0,0,0-22.14,9.66c-3.12,1.77-6.25,3.6-9.26,5.55a93,93,0,0,0-11,8.75,74.21,74.21,0,0,0-7.39,7.34,132.7,132.7,0,0,0-8.54,11.33,86.81,86.81,0,0,0-5.51,9.47c-1.6,3.14-3.29,6.26-4.75,9.47a111.67,111.67,0,0,0-7.71,23.63c-1,4.8-1.7,9.64-2.34,14.51a102.09,102.09,0,0,0-.59,10.35c-.09,3.57-.27,7.16-.22,10.74,0,3.23.34,6.44.48,9.67.2,4.59.2,9.32,1.47,13.76.48,1.65,1,3.29,1.63,4.88a47.53,47.53,0,0,0,3.76,7.93c1.59,2.45,3.63,4.85,5.4,7.12a17.63,17.63,0,0,0,13.54,6.64,16.1,16.1,0,0,0,13.93-8,17,17,0,0,0,1.88-4.45,13.72,13.72,0,0,0,.4-2.2,57.9,57.9,0,0,0,.88-8.52c0-2.08-.34-4.13-.38-6.21-.06-2.64,0-5.31.2-7.94.15-2.21.42-4.38.43-6.59,0-1.33-.09-2.65-.21-4a50.46,50.46,0,0,1-.29-7.27c.25-1.31.53-2.62.77-4,.2-1.12.37-2.25.52-3.39a14.55,14.55,0,0,0,2.79-6.37c.18-1,.33-2,.51-3.08.47-2.73.82-5.48,1.17-8.22q.29-2.06.63-4.11c.08-.35.17-.71.26-1.06a86.2,86.2,0,0,1,2.85-9.31c1.47-3.16,3.19-6.2,4.74-9.33.88-1.77,1.74-3.54,2.79-5.23s2.29-3.33,3.52-4.92c-.35.45-.7.89-1,1.34,3-4,5.91-8,8.92-12,1.09-1.34,2.24-2.61,3.38-3.92,1.51-1.74,2.91-3.57,4.41-5.31a73.34,73.34,0,0,1,9.71-9.35,81.72,81.72,0,0,1,8.28-5.71,90.5,90.5,0,0,1,9.14-4.56q3.29-1.34,6.62-2.55c2.77-1,5.51-2.14,8.34-3a125.26,125.26,0,0,1,17.36-3.81,87.54,87.54,0,0,1,18.66.23c6.57.68,13.13,1.52,19.69,2.31,2.69.32,5.38.62,8.06,1L1504,839q3.81.49,7.62.95l.33.09a13.72,13.72,0,0,0,13.56-3.47,10.15,10.15,0,0,0,1.38-1.56c.15.6.33,1.18.51,1.76a73.29,73.29,0,0,0,3.52,8.18q2.57,6.27,4.84,12.65c1,2.71,1.86,5.44,2.91,8.11,1.28,3.29,2.7,6.52,4.11,9.76.75,1.87,1.44,3.75,2.08,5.67a33.06,33.06,0,0,1,1.09,4.52c.12,1.5.21,3,.26,4.51-.63,2-1.26,4.09-1.91,6.13s-1.35,4-2.11,5.93q-4,8.68-8.68,17.07c-1.74,3.16-3.59,6.25-5.31,9.42l-.32.58-.75.7a43,43,0,0,0-3.68,3.83,94.83,94.83,0,0,0-7.29,9.64,77.3,77.3,0,0,0-5,9.28c-1.71,3.65-3.25,7.36-4.8,11.09-.3.72-.55,1.45-.78,2.18-.86,2.67-1,6.13-1.26,8.44a3.22,3.22,0,0,0,0,.62,28,28,0,0,0,3.86,14.26,20.49,20.49,0,0,0,4.47,5.77,28.14,28.14,0,0,0,34.12,4.4c4-2,8.62-7,10.71-10.87.21-.4.4-.81.59-1.22q1-2.08,1.84-4.2.55-1.05,1.08-2.1c1.84-3.68,3.46-7.48,5-11.33l.16-.29c1.65-3.06,3.55-6,5.44-8.86s3.84-5.82,5.71-8.76c1-1.59,2-3.2,2.9-4.85a85.21,85.21,0,0,0,4.66-10.5c2.07-5.31,2.52-11,3.16-16.64.23-2,.4-4,.46-6.06.42-1.35.81-2.72,1.15-4.09,1.79-7.2,4.14-14.24,6.13-21.38a125.71,125.71,0,0,0,4.3-27.54c.18-3.75.27-7.51.08-11.26-.2-3.93-.65-7.81-1.16-11.69-.67-5.31-1.26-10.62-2-15.92a50.16,50.16,0,0,0-2.32-10.19c-1-2.67-2.24-5.55-3.33-8-.39-.85-.77-1.7-1.23-2.5a49.74,49.74,0,0,0-6.7-8.78c-2.31-2.49-4.77-4.83-7.11-7.28-1.42-1.49-2.75-3.07-4.25-4.47-3.53-3.31-7.4-6.09-12.18-7.29a23.11,23.11,0,0,0-7.95-.74l2.08-1.15a105,105,0,0,0,8.78-6c1.64-1.15,3.3-2.26,5-3.36a12.28,12.28,0,0,0,2.89-2.24c.63-.81,1.25-1.62,1.88-2.42a11.91,11.91,0,0,0,1.63-6,11.95,11.95,0,0,0-10.51-11.89,14.45,14.45,0,0,0-6.49.42Zm-144,85.78-.28.13c-.35,0-.71-.09-1.06-.12Z"/><path class="cls-2" d="M1466.48,813.58a18.94,18.94,0,0,0,0,18.93,25.42,25.42,0,0,0,9,9.22c1,.59,2,1.08,3,1.6a64.57,64.57,0,0,1,5.68,3.35c2,1.26,3.82,2.63,5.7,4,1.11.82,2.25,1.61,3.38,2.41s2.13,1.87,3.2,2.81c1.58,1.38,3.21,2.7,4.82,4.06a63.61,63.61,0,0,1,7.38,7.11c1.87,2.53,3.71,5.09,5.75,7.5,1.39,1.64,2.82,3.24,4.2,4.88a37.53,37.53,0,0,1,2.49,4.3c.11.54.22,1.06.33,1.59.17.8.4,1.6.62,2.39s.47,1.72.72,2.57v.37a21.62,21.62,0,0,0,.53,4.59v.57a38.7,38.7,0,0,0,.39,4.17c.31,2.75.56,5.49,1,8.23a68.58,68.58,0,0,0,2.24,8.9,55.77,55.77,0,0,0,2.23,5.6c.16.39.34.77.54,1.15a11.85,11.85,0,0,0,2.71,3.49,15.83,15.83,0,0,0,15.39,4.06,14.2,14.2,0,0,0,5.21-2.46,9.09,9.09,0,0,0,4.8-1.25,9.21,9.21,0,0,0,4.22-5.48,8.83,8.83,0,0,0-.93-7.06c-.33-.46-.65-.92-1-1.39a1.09,1.09,0,0,0,0-.17,14.52,14.52,0,0,0,.36-1.48c.23-.77.43-1.54.59-2.33a38.28,38.28,0,0,0,.85-6.93,64.25,64.25,0,0,0-.71-8.31c0-.51.08-1,.07-1.52a27.37,27.37,0,0,0-.47-4,15.4,15.4,0,0,0-7.48-12.15,15.86,15.86,0,0,0-3.34-1.45,15,15,0,0,0-2.7-5c-.81-2.37-1.77-4.69-2.77-7l0-.09c-.68-2.68-2.11-6-4.33-7.82l-2.14-1.66c-1-2.18-2-4.36-3.09-6.46-2.22-4.14-5.28-7.83-8.16-11.51-2.14-2.73-4.45-5.3-6.72-7.92s-4.78-5-7.26-7.4c-1.24-1.21-2.46-2.44-3.76-3.59-2.47-2.21-5.09-4.18-7.72-6.21a29.47,29.47,0,0,0-4.38-2.7c-2.12-1.09-4.37-1.91-6.57-2.81-2.39-1-5.23-1-7.82-1h-.3a18.82,18.82,0,0,0-15.9,9.3Z"/><path class="cls-2" d="M1436.15,790.17a99,99,0,0,0-11.1,1.28,11.34,11.34,0,0,0-1.82.48c-2.71.87-5.32,2.16-7.9,3.25a6.77,6.77,0,0,0-1.28.74c-6.14,4.66-5.38,3.69-9.93,9.91a11.55,11.55,0,0,0-.79,1.3,24.53,24.53,0,0,0-3.37,12.48c-.3,2.2-.07,3.18.87,6.59A24.86,24.86,0,0,0,1412.2,841c4.7,2.75,7.69,3,13,3.47,2.68.26,5.5-.48,8-.9a5.06,5.06,0,0,0,.87-.23,57.56,57.56,0,0,0,6.08-2.51c4.37,0,8.76.61,13.09.84,2.9.16,5.78.21,8.67.46,2.1.18,4.2.2,6.31.28,2.59.73,5.08,1.83,7.69,2.49s5.1,1.31,7.59,2.17a42.11,42.11,0,0,1,5.64,3.45c2,1.66,3.89,3.49,5.74,5.32,2.32,2.31,4.67,4.58,7,6.9s4.37,4.47,6.47,6.8c1.58,1.76,3.2,3.46,4.73,5.26a60.15,60.15,0,0,1,4.85,7.68c.31,1,.58,2,.81,3,.21,3.38.17,6.79.47,10.16a68.53,68.53,0,0,1,.12,11.37c-.69,3.39-1.77,6.68-2.4,10.09-.39,2.1-.79,4.2-1.11,6.31a40.49,40.49,0,0,1-.85,4.28,56.33,56.33,0,0,0-2.87,4.86,73.87,73.87,0,0,0-3.17,7.71c-.21.63-.39,1.28-.59,1.92-.63,1-1.37,1.87-2,2.83-1.31,1.88-2.37,3.89-3.64,5.79s-2.51,3.58-3.75,5.38c-.78,1.15-1.55,2.31-2.35,3.44-1.17,1.44-2.34,2.85-3.46,4.34-.76,1-1.47,2-2.19,3.08-.58.82-1.06,1.71-1.65,2.53s-1.2,1.62-1.71,2.5c-1,1.8-2.15,3.57-3.34,5.28a32.11,32.11,0,0,0-3.86,8.44c-.31.92-.68,1.82-1,2.74a26.23,26.23,0,0,0-1.11,6.14c-.28,3.17.73,6.29,1.32,9.37a22.19,22.19,0,0,0,3.19,7.33,29,29,0,0,0,4.28,5.58,27.85,27.85,0,0,0,4.88,3.85,25.84,25.84,0,0,0,4.94,2.08,12.42,12.42,0,0,0,5.3,1.39,10.22,10.22,0,0,0,5.16-1.39c2.08-1.22,4.19-3.56,4.59-6a9.88,9.88,0,0,0,0-5.23c-.31-.81-.65-1.61-1-2.39l0-.07.94-.47a15.32,15.32,0,0,0,4.19-3.07,14.24,14.24,0,0,0,2.69-3.92c1.59-1.18,3.18-2.35,4.73-3.59a18.75,18.75,0,0,0,3.5-3.9,8.33,8.33,0,0,0,4.58-9.73c-1.16-4.21-5.91-7.21-10.22-5.8a50.43,50.43,0,0,0-4.83,1.9c-.42.14-.85.26-1.28.37l.24-.28c1.77-2.07,3.91-3.86,5.79-5.84,1.49-1.57,2.83-3.29,4.35-4.85,1.69-1.73,3.38-3.48,5.1-5.2,1.35-1.35,2.93-2.48,4.22-3.9a31.7,31.7,0,0,0,4.45-6.29c.19-.35.39-.69.59-1,.6-.62,1.23-1.23,1.86-1.83a34.36,34.36,0,0,0,5.63-7c2.42-4,3.52-8.32,4.55-12.75.63-2.7,1.22-5.41,1.63-8.15a121.57,121.57,0,0,0,1.76-13.16c.3-7.23-.65-14.41-1.63-21.56a99.16,99.16,0,0,0-1.66-11.82,62.69,62.69,0,0,0-3.11-9,110.23,110.23,0,0,0-6-13.25c-1.58-2.76-3.1-5.56-4.93-8.17-2.83-4-5.88-7.92-9-11.75-2.22-2.76-4.69-5.35-7.11-8-2.2-2.36-4.44-4.61-6.85-6.75-3.47-3.07-7.25-5.79-11-8.52-2.23-1.62-4.53-3.16-6.76-4.77a72.17,72.17,0,0,0-8.13-5.41,48.82,48.82,0,0,0-9.26-3.79c-1.58-.45-3.18-.75-4.75-1.25s-3.28-1-4.91-1.52-3.09-1.26-4.71-1.68a25,25,0,0,0-2.87-.52l-4.16-.56c-4.44-.61-8.89-1.24-13.34-1.74a62.73,62.73,0,0,0-7-.44q-1.05,0-2.1.06Z"/><path class="cls-2" d="M1509.19,992.58a18.36,18.36,0,0,0-10.55,5.57,15.87,15.87,0,0,0-2.82,4,13.89,13.89,0,0,0-1.28,3.1,12.38,12.38,0,0,0,0,6.31,10.67,10.67,0,0,0,1.55,3.52,18.31,18.31,0,0,0,2.44,3.1,29.6,29.6,0,0,0,3.55,2.73,27.46,27.46,0,0,0,6.12,3,21.61,21.61,0,0,0,3.38,1.21c2.76.64,6.8,1,9.57,0s5.82-2.23,7.74-4.63a34.42,34.42,0,0,0,3.32-4.6,15.21,15.21,0,0,0-2.35-18.21,15,15,0,0,0-6.64-3.87,15.65,15.65,0,0,0-8.18,0,7.65,7.65,0,0,0-.94-.67l-1.54-.65a6.61,6.61,0,0,0-1.7-.22,6.69,6.69,0,0,0-1.71.22Zm-3.45,4.8h0l-.58.06.54-.07Z"/><path class="cls-2" d="M1571.58,854.08a26.69,26.69,0,0,0-13.22,23l1,7.09a26.54,26.54,0,0,0,6.86,11.77l0,0,0,0c.11.34.23.67.35,1,.21.6.46,1.2.71,1.8-.85,3.59-1.79,7.16-2.64,10.73-.79,3.32-1.57,6.63-2.53,9.91a90.88,90.88,0,0,0-2.54,10.16c-.5,2.86-.84,5.73-1.46,8.56s-1.37,5.52-2.05,8.27c-1.14,4.63-2.25,9.24-3.83,13.73-.82,1.6-1.74,3.13-2.7,4.67-1.37,2.16-2.93,4.17-4.37,6.27-1.62,2.36-3.17,4.77-4.91,7-1.25,1.62-2.4,3.3-3.6,5-.85,1.06-1.72,2.1-2.65,3.08s-2.07,2.14-3.09,3.22q-1.21.38-2.43.66c-2.55.09-5.1-.21-7.64-.29a39.72,39.72,0,0,0-12.66,1.41,21.65,21.65,0,0,0-8.41,4.76c-.68.59-1.33,1.25-2,1.91a8.72,8.72,0,0,0-3.33-.51,18.24,18.24,0,0,0-2.85.38,10.4,10.4,0,0,0-4.62,2.69l-1.68,2.18a10.31,10.31,0,0,0-1.43,5.28,6.51,6.51,0,0,0,0,1.71v0c0,2.61.57,3.58,1.61,5.9a3.08,3.08,0,0,0,.34.49c.73,1,1.46,1.94,2.23,2.87a23.35,23.35,0,0,0,1.73,1.85,19.41,19.41,0,0,0,2.35,2,11.12,11.12,0,0,0,6.16,4.1,16.33,16.33,0,0,0,2.79.41c.28.11.57.21.85.3a28.78,28.78,0,0,0,5.67,1c1.7.26,3.39.52,5.1.74a35.46,35.46,0,0,0,5,.13,95.43,95.43,0,0,0,12.74-1.38,53.88,53.88,0,0,0,20.32-8.37c3-1.92,5.92-3.93,8.79-6,1.49-1.07,3-2.13,4.5-3.16,2-1.34,3.91-2.82,5.81-4.3a62.14,62.14,0,0,0,5.63-4.58c1.35-1.29,2.51-2.75,3.85-4a83.76,83.76,0,0,0,6.22-6.28c3.34-4,6.44-7.89,8.45-12.65a110.59,110.59,0,0,0,4.08-10.35c.51-1.64.94-3.3,1.34-5,.87-3.7,1.72-7.4,2.59-11.11a118.68,118.68,0,0,0,2.12-13.12c.42-2.3,1-4.57,1.6-6.83.8-3,1.51-5.95,2.26-8.93s1.65-5.85,2.37-8.8c.35-1.47.61-2.95.83-4.43.11-.66.16-1.35.28-2,.66-1.52,1.27-3.07,1.88-4.58A8.77,8.77,0,0,0,1614,902a72.28,72.28,0,0,0,1-7.48,6.31,6.31,0,0,0,0-1.15,69.19,69.19,0,0,0-1.44-9.46c-.57-2.81-1.22-5.61-1.82-8.42a26.41,26.41,0,0,0-3.6-11.87,26.64,26.64,0,0,0-23.05-13.22h0a26.55,26.55,0,0,0-13.47,3.65Z"/><path class="cls-2" d="M1575.75,777.8a12,12,0,0,0-8.75,11.5,12.28,12.28,0,0,0,.46,3.33,18.74,18.74,0,0,0,.51,1.91c.26.82.51,1.63.77,2.44.48,1.56,1,3.12,1.38,4.69a11.64,11.64,0,0,0-2.3,2.81,11.49,11.49,0,0,0-1.58,5.83,25.26,25.26,0,0,0,.57,4.59c.51,3.89,1,7.79,1.6,11.67.52,3.41,1.14,6.81,1.65,10.22.36,2.88.68,5.77.79,8.66.16,3.74.22,7.48.25,11.23.07,7.42,0,14.83-.64,22.23-.38,4.59-.87,9.16-1.36,13.73-.21,2-.42,3.91-.64,5.87a5.16,5.16,0,0,0-3.08-.17,5,5,0,0,0-3,2.28,5.18,5.18,0,0,0-.5,3.82c.42,2.07.84,4.14,1.17,6.22.14,1.57.24,3.15.29,4.72a7.85,7.85,0,0,0,.78,3.67c.76,1.39,2.6,2.84,4.31,2.63a7.07,7.07,0,0,0,2.85-.69,14.89,14.89,0,0,0,1.71-1.24,10.19,10.19,0,0,0,1.61-1.94,21.55,21.55,0,0,0,1.16-1.82,41.65,41.65,0,0,0,2.94-6.87c.63-1.83,1.17-3.67,1.69-5.53,1-3.5,1.71-7.06,2.54-10.6.51-2.15,1.08-4.29,1.63-6.43a12,12,0,0,0,2.72,2.22l2.74,1.15a11.48,11.48,0,0,0,6.1,0c2.26-.88,3.56-1.31,5.3-3s2.31-3.26,3.25-5.58a21,21,0,0,0,.94-5.18c.14-1.06.25-2.12.35-3.18.15-1.78.22-3.56.27-5.33.12-3.67.1-7.33,0-11a199.25,199.25,0,0,0-2.59-25c-.35-2.31-.77-4.62-1.28-6.9q-1.18-5.87-2.8-11.62c-1.31-4.63-2.93-9.17-4.51-13.71-.31-.89-.64-1.77-1-2.65-.57-2-1.16-4-1.8-5.94-.28-.87-.58-1.73-.89-2.6a39.5,39.5,0,0,0-1.66-4,15.43,15.43,0,0,0-2.44-3.36,11.88,11.88,0,0,0-5.26-3.07,12.14,12.14,0,0,0-6.33,0Z"/><path class="cls-2" d="M1578.48,775.66a9.92,9.92,0,0,0-5.88,4.52,10.73,10.73,0,0,0-1,8.4c.1.42.27.83.41,1.24.29.83.62,1.65.94,2.47,1,2.46,2,4.89,3.07,7.32,1.26,2.85,2.68,5.63,4,8.47,1.11,2.82,2.07,5.71,3,8.61,1,3.4,1.85,6.87,3,10.25.55,1.64,1.15,3.27,1.67,4.93s1,3.45,1.44,5.18c.88,3.35,1.88,6.66,2.59,10l.54,2.55v0c-.31,4.48-.68,9-1.21,13.42-.34,2.14-.73,4.27-1.27,6.37-.24.93-.51,1.84-.8,2.75a7.69,7.69,0,0,0-1.89,9.94,7.56,7.56,0,0,0,3.39,3.05,2.08,2.08,0,0,0,1.83,3.66,5.67,5.67,0,0,0,1.2-.41,4.88,4.88,0,0,0,1.32-1,3.59,3.59,0,0,0,.64-.9l.51,0a9.58,9.58,0,0,0,6.85-2.74,11.79,11.79,0,0,0,2.54-3.66,57,57,0,0,0,2.68-6.53,64.16,64.16,0,0,0,2.26-12.76c.38-3.43.68-6.86.9-10.31a30.13,30.13,0,0,0,0-4.75,23.09,23.09,0,0,0-.9-5.11c-.24-.73-.3-1.51-.48-2.27-.35-1.49-.58-3-.87-4.53-.68-3.49-1.76-6.84-2.69-10.26-.76-2.82-1.47-5.67-2.28-8.48s-1.8-5.48-2.68-8.23c-1.79-5.58-3.93-11-6.19-16.44l.08.2c-.89-2.12-1.74-4.27-2.71-6.35-1.75-3.75-4.36-7.76-8.68-8.73a9.94,9.94,0,0,0-5.23,0Z"/><path class="cls-2" d="M1601.06,832.57H1601a9.21,9.21,0,0,0-8.89,6.77,11,11,0,0,0-.35,3.38,9.05,9.05,0,0,0-1.26,4.53A23,23,0,0,0,1591,851l.06.36.6,4.88c.06.4.11.8.16,1.2-.3-.8-.62-1.59-.95-2.38a13.39,13.39,0,0,0-1.48-2.8,3.77,3.77,0,0,0-1-1,3.16,3.16,0,0,0-1.56-.47,2.08,2.08,0,0,0-1.8,1,5.16,5.16,0,0,0-.64,2.47c-.07.57-.1,1.13-.15,1.7a2.09,2.09,0,0,0,2.08,2.09l.27,0c.26,1.16.48,2.32.71,3.48.43,2.16.88,4.31,1.33,6.47.8,3.82,1.48,7.65,2,11.52.17,1.54.31,3.08.4,4.63s.11,3.39.25,5.09c0,.36.08.73.13,1.09a16,16,0,0,0,.36,2.29,7,7,0,0,0,1.72,2.91,6.27,6.27,0,0,0,2.58,1.54c-.09,1.11-.17,2.22-.25,3.33-.1,1.4-.21,2.8-.36,4.2-.82,5.36-1.91,10.68-3,16-.63,3.15-1.54,6.23-2.23,9.37-.62,2.78-1.29,5.54-2.12,8.27-.49,1.6-1.07,3.17-1.64,4.75-.67,1.84-1.27,3.71-1.91,5.57-1.13,3.28-2.39,6.53-3.71,9.74a70.92,70.92,0,0,1-7.27,13c-.81,1-1.67,1.89-2.54,2.81-1.26,1.32-2.41,2.81-3.75,4.07l-.06,0a9.31,9.31,0,0,0,7.17,17,23,23,0,0,0,5.58-2.18,28.17,28.17,0,0,0,3.78-2.94c1.22-1.05,2.4-2.16,3.52-3.32a55.14,55.14,0,0,0,4.09-5.06c.94-1.23,1.8-2.52,2.62-3.83,3.9-6.16,6.29-13.12,8.66-20,1-3,2-6.07,3-9.08.91-2.65,1.8-5.26,2.47-8s1.11-5.73,1.79-8.58c.39-1.61.85-3.2,1.22-4.82s.65-3.17,1-4.74c.67-3,1.2-6.07,1.8-9.11a74.33,74.33,0,0,0,1.31-10.31,34.93,34.93,0,0,0,0-3.83c-.07-1.32-.21-2.63-.23-4,0-3.31.35-6.6.29-9.91,0-2.23-.1-4.47-.25-6.7-.18-2.65-.52-5.28-.79-7.92,0-2.23,0-4.47,0-6.7a48.55,48.55,0,0,0-.46-5.1c-.31-2.35-.56-4.72-1-7.06-.54-3.25-1.49-6.42-2.16-9.64a16.09,16.09,0,0,0-1.8-5.36,9.39,9.39,0,0,0-7.59-4.58Z"/><path class="cls-2" d="M1561.58,742.57a7,7,0,0,0-2.44,1.88,13.62,13.62,0,0,0-3,5.34,23.4,23.4,0,0,0-.86,5.41,25,25,0,0,1-1.27,4.41l-.17.38a8.74,8.74,0,0,0-2.4,1l-1.65,1.28a8.1,8.1,0,0,0-2.09,3.59,9.47,9.47,0,0,0-.3,2.53,9.18,9.18,0,0,0,1.18,4.34,9.52,9.52,0,0,0,1.51,2.08,10.84,10.84,0,0,0,2,1.62l.94.44c1.81,2.49,3.47,5.1,5.07,7.74,1.89,3.12,3.7,6.34,5.36,9.59,1.49,2.93,5.3,4.24,8.35,3.4a7.34,7.34,0,0,0,2.83-1.52c.48,1.19.93,2.38,1.34,3.6s.85,2.47,1.24,3.73l.24,1.39c.08.44.16.87.25,1.3a13.56,13.56,0,0,0,1.15,3.31,7.33,7.33,0,0,0,2.58,2.58,7.2,7.2,0,0,0,4.42.93c.17.46.34.91.52,1.37a83.43,83.43,0,0,1,3.11,9.65c.64,2.64,1.3,5.27,2,7.91.62,2.47,1,5,1.55,7.49,1,5.13,1.89,10.31,2.63,15.5.21,1.75.37,3.51.57,5.26.3,2.61.73,5.2,1.11,7.81a110.2,110.2,0,0,1,.43,11.35c0,2.2,0,4.4,0,6.59,0,1.76-.22,3.51-.43,5.25-.43,2.88-.94,5.74-1.6,8.59-.71,3.06-1.61,6.08-2.33,9.14-.77,3.31-1.56,6.59-2.52,9.85-.77,2.59-1.73,5.13-2.75,7.63-2.81,6.36-6,12.52-9.26,18.65a102.15,102.15,0,0,1-5.44,9.1c-2,3-4.15,6-6.15,9-1.16,1.77-2.35,3.51-3.61,5.21a33.14,33.14,0,0,1-2.62,2.94c-1.24,1.2-2.49,2.41-3.74,3.6a6.82,6.82,0,0,0,3,11.38,6.61,6.61,0,0,0,5.25-.69,125.41,125.41,0,0,0,10.08-7.85,81.54,81.54,0,0,0,7.36-8c2.85-3.25,5.55-6.61,8.07-10.13,2.11-2.93,3.88-6.1,5.72-9.21s3.57-6.09,5.12-9.27c1.91-3.91,3.62-7.91,5.2-12,2.63-6.8,3.92-14,5.83-21a100.76,100.76,0,0,0,2.27-10.59,105.05,105.05,0,0,0,1.4-12.87c.11-3.36,0-6.73,0-10.08a93.47,93.47,0,0,0-1.27-13c0-.37-.11-.74-.17-1.11-.14-1.24-.25-2.47-.37-3.71-.25-2.46-.59-4.92-1-7.37-.49-3.43-1-6.86-1.55-10.28-.48-3-1.09-5.94-1.67-8.9s-1.41-5.89-2.16-8.84c-.44-1.72-.82-3.43-1.34-5.13s-1.15-3.33-1.76-5c-1.37-3.74-2.91-7.4-4.48-11.06q-1.17-2.85-2.17-5.78c-.91-2.65-1.87-5.28-2.69-8a69.09,69.09,0,0,0-4-9.68c-1.2-2.5-2.5-4.92-3.58-7.47l.42,1A109.73,109.73,0,0,0,1584,760c-.82-1.51-1.6-3-2.49-4.5-.47-.79-.91-1.6-1.32-2.42-.1-.34-.19-.68-.3-1a18.68,18.68,0,0,0-1.76-4c-1.84-3-5-5.81-8.58-6.4a26.86,26.86,0,0,0-2.81-.37h-.44a11,11,0,0,0-4.73,1.36Z"/><path class="cls-2" d="M1341.72,910.21a16.27,16.27,0,0,0-5.77,6.22,20.34,20.34,0,0,0-2,5.81c-.07.44-.14.89-.2,1.33a7.52,7.52,0,0,0-1.75,5q0,.39,0,.78c-.32,1.24-.79,2.44-1.15,3.68q-.72,2.54-1.2,5.13c-.26,1.39-.5,2.79-.76,4.18a18.54,18.54,0,0,0-8.53-2.15,17.85,17.85,0,0,0-9.07,2.46c-3.83,2.24-7.31,6.31-8.26,10.74-.38,1.77-1,3.48-1.28,5.26a46.47,46.47,0,0,0-.88,10.2,98.65,98.65,0,0,0,1.26,10.29,32.88,32.88,0,0,0,1.21,4.76,105.35,105.35,0,0,0,4.72,12,58.91,58.91,0,0,0,4.57,7.74c1.88,2.77,3.66,5.59,5.46,8.41,2.33,3.64,4.49,7.3,7.49,10.47.57.6,1.16,1.2,1.79,1.75a20,20,0,0,0,4.51,3.32,26.28,26.28,0,0,0,4.72,1.85,31.89,31.89,0,0,0,5.24.71,28.94,28.94,0,0,0,7.19-.4c.94-.11,1.89-.23,2.85-.38,1.8-.28,3.41-1.33,5.08-2.07a6.88,6.88,0,0,0,1.38-.82,20.87,20.87,0,0,0,3.85-3.21,37.59,37.59,0,0,0,3-3.91c.38-.58.75-1.16,1.12-1.74a32.66,32.66,0,0,0,3-6.16,17.44,17.44,0,0,0,.71-2.26,16,16,0,0,0,.67-5.63,44.92,44.92,0,0,0-.8-5.39c-.12-.5-.22-1-.31-1.52s-.14-.75-.23-1.13,0-.88-.08-1.32a81.3,81.3,0,0,0-1.2-8.92q-.37-1.92-.78-3.84c-.28-1.34-.7-2.64-1-4-.05-.56-.09-1.13-.12-1.69s-.08-1.17-.11-1.75l.06-1c.09-1.48.06-3,.07-4.45s.09-2.71.1-4.07c0-2.69,0-5.38,0-8.07,0-1.68-.09-3.33-.18-5s0-3,0-4.55c0-2.07-.14-4.13-.09-6.19a1.89,1.89,0,0,0,0-.23,32,32,0,0,0,.86-6.33,43.65,43.65,0,0,0,.29-4.84c0-.5-.09-1-.16-1.5-.19-1.42-.33-3-.64-4.54a20.46,20.46,0,0,0-1.74-4.36,32.26,32.26,0,0,0-2.32-3,19.59,19.59,0,0,0-2.79-2.17,16.08,16.08,0,0,0-3.91-3.5,13,13,0,0,0-6.93-1.93,12.8,12.8,0,0,0-6.9,1.93Z"/><path class="cls-2" d="M1301.37,978.49a16.45,16.45,0,0,0-5.84,5.85h0l0,.07a16.22,16.22,0,0,0-1.59,3.76,14.72,14.72,0,0,0-.63,4.58c0-.12,0,.26.07.86,0,.27,0,.54.07.81a14.7,14.7,0,0,0,.54,3,20,20,0,0,0,2.28,4.91c1.25,1.72,2.58,3.38,3.91,5,1.18,1.57,2.37,3.14,3.68,4.6.5.56,1,1.08,1.53,1.62a33,33,0,0,0,5.37,6.36,69.1,69.1,0,0,0,6.53,4.72l1.18.77a19.14,19.14,0,0,0,3.33,2.19,26.71,26.71,0,0,0,6.39,2.47l2.55.53c.41.09.82.18,1.23.23,1.65.24,3.33.56,5,.65a13.84,13.84,0,0,0,3-.29h.1c1.87-.14,3.71-.37,5.56-.69a302.84,302.84,0,0,0,7.92-3.37,15.74,15.74,0,0,0,7.35-9.43,14.82,14.82,0,0,0,0-7.82,14.74,14.74,0,0,0-10.26-10.26l-3.91-.53a14.93,14.93,0,0,0-3.91.53,6.06,6.06,0,0,0-1.75.54c-.41-.22-.82-.44-1.22-.7l-.38-.23a12.27,12.27,0,0,0-1.15-1.13c-.91-.75-1.83-1.44-2.76-2.12-.6-.77-1.23-1.52-1.88-2.26-1.07-1.22-2.08-2.49-3.16-3.69a22.92,22.92,0,0,0-4.3-3.7c-.88-1-1.73-2-2.66-3-2.67-2.79-5.71-5.68-9.64-6.5l-4.33-.58a16.31,16.31,0,0,0-8.23,2.22Zm41.3,22.53,1.9.25-1.84-.22-.06,0Z"/><path class="cls-2" d="M1317.13,735.1c-.69.1-1.36.25-2,.41a7.73,7.73,0,0,0-1,.38c-.84.35-1.7.7-2.52,1.08a16.48,16.48,0,0,0-2.2,1.16c-1.13.74-2.18,1.59-3.23,2.43a13.93,13.93,0,0,0-1.81,1.71,29.4,29.4,0,0,0-2.15,2.81,15.29,15.29,0,0,0-1.17,2.61l-.32.76a7.66,7.66,0,0,0-.36,2.13,4.64,4.64,0,0,0,.24,1.82,5.9,5.9,0,0,0,1.54,2.64,6.09,6.09,0,0,0,2.68,1.55,6.76,6.76,0,0,0,3.43,0,9.55,9.55,0,0,0,1.73-.7,8.89,8.89,0,0,0,2.54-1.95c.6-.57,1.21-1.13,1.79-1.72.77-.8,1.59-1.55,2.38-2.32s1.61-1.75,2.48-2.56a23.79,23.79,0,0,0,2.21-2.28,22.55,22.55,0,0,0,2.65-3,4.67,4.67,0,0,0,.47-3.58c-.16-.37-.32-.74-.47-1.11a4.69,4.69,0,0,0-1.67-1.67,5.61,5.61,0,0,0-3-.81h-.24a13.06,13.06,0,0,0-1.92.27Z"/><path class="cls-2" d="M1319.8,727.84c-.22,0-1.16.12-1.48.2a5.3,5.3,0,0,0-2.3,1.34,1.7,1.7,0,0,0-.3.3,6.52,6.52,0,0,0-.84.41,11,11,0,0,0-2.4,1.89c-.69.68-1.33,1.36-2.07,2a21.79,21.79,0,0,0-1.74,1.44l-1.93,1.87a23.9,23.9,0,0,0-2.11,2.16c-.71.86-1.45,1.7-2.18,2.53-3.1,3.55-5.53,7.62-8.35,11.37a41.53,41.53,0,0,0-3,4.45c-.53.94-1,1.91-1.49,2.84-.28.5-.54,1-.8,1.52l-.11.15a31.6,31.6,0,0,0-2.59,4q-1.53,2.76-2.8,5.65l-.7,1.07a32.6,32.6,0,0,0-2.26,3.65,7,7,0,0,0-1,3.14,3.8,3.8,0,0,0,2.69,3.54,3.47,3.47,0,0,0,2.86-.36,5.86,5.86,0,0,0,1.48-1.5l.37-.5,1-1.41a32.51,32.51,0,0,0,1.79-3c.64-1.21,1.34-2.36,2-3.54a57.86,57.86,0,0,1,3.3-5.3c.72-.89,1.47-1.74,2.22-2.61,1.21-1.39,2.23-2.92,3.35-4.37,1.78-2.31,3.36-4.77,5.12-7.09l.38-.49a8.86,8.86,0,0,0,.29,2.93,5.6,5.6,0,0,0,1,2.41,8.85,8.85,0,0,0,3.13,3.13,9.39,9.39,0,0,0,4.59,1.26,10.27,10.27,0,0,0,5.59-1.63,19.71,19.71,0,0,0,1.65-1.1c.59-.39,1.2-.76,1.81-1.12,1.22-.71,2.47-1.36,3.64-2.15a19,19,0,0,0,2.46-1.93,7.85,7.85,0,0,0,2.23-7.79,8,8,0,0,0-3.42-4.48,11.76,11.76,0,0,0,.4-2.64,9.17,9.17,0,0,0-1.13-4.53,9.33,9.33,0,0,0-1.58-2.06,6.41,6.41,0,0,0-.55-.49c-.1-.2-.19-.41-.3-.6a9,9,0,0,0-.81-1.13l-.28-.44a6.38,6.38,0,0,0-2.12-2.17,5.23,5.23,0,0,0-2.56-.74Zm-.07,0h0Z"/><path class="cls-2" d="M1317.55,737.4a1.13,1.13,0,0,0-.4,1.53c.24.45.45.92.69,1.38a14.36,14.36,0,0,0,1,1.57c.72,1,1.34,2.08,2,3.13a28.34,28.34,0,0,0,2.45,3.21c.77.88,1.61,1.7,2.35,2.61a8.69,8.69,0,0,0,.68.82,1.94,1.94,0,0,0,3.07-.4,1.84,1.84,0,0,0,.2-1.5,4.07,4.07,0,0,0-.38-.82,3.69,3.69,0,0,0-.61-.7l-.74-.67c-.58-.51-1.17-1-1.73-1.54a32,32,0,0,1-2.94-3.32,30,30,0,0,0-2-2.4c-.36-.38-.73-.76-1.07-1.16s-.56-.6-.83-.91c-.09-.14-.18-.28-.26-.43a1.1,1.1,0,0,0-1-.55,1.08,1.08,0,0,0-.55.15Z"/><path class="cls-2" d="M1318.29,730.1a3.31,3.31,0,0,0-.1,2.72c.1.3.21.6.32.9.26.75.55,1.49.87,2.23s.91,1.59,1.33,2.41a1.89,1.89,0,0,1,.09.34,6.37,6.37,0,0,0,.39,1.78,11.27,11.27,0,0,0,1.11,2c.26.39.53.77.81,1.15a13.11,13.11,0,0,0,2.37,2.67,20,20,0,0,0,1.8,1.25,12.22,12.22,0,0,1,1.28.89h0c.9.69,1.8,1.37,2.75,2s2.16,1.33,3.23,2,1.89,1.29,2.84,1.93l1.45,1a5,5,0,0,0,2.69,1.2,2.43,2.43,0,0,0,2.11-1.2,2.81,2.81,0,0,0,.17-.35c.46.31.93.61,1.37.94.91.7,1.82,1.39,2.75,2.06.73.52,1.47,1,2.2,1.53,1.28.91,2.59,1.79,3.92,2.61,1,.64,2.11,1.24,3.15,1.87.46.28.9.61,1.37.88a13.25,13.25,0,0,0,1.68.75,5.11,5.11,0,0,0,2.77.08,4.11,4.11,0,0,0,1.8-1,4,4,0,0,0,1.19-2.88c0-2.41-2-4.42-4-5.44-.48-.24-1-.43-1.47-.68-.77-.39-1.55-.73-2.35-1.07l.77.32c-1.43-.61-2.71-1.49-4.11-2.15a33,33,0,0,1-4.79-2.76,26.55,26.55,0,0,0-2.9-1.82,16.49,16.49,0,0,1-1.88-1.06c-.75-.52-1.45-1.12-2.2-1.65s-1.38-1-2-1.47c-.87-.68-1.72-1.37-2.61-2-.49-.35-1-.66-1.49-1s-.81-.7-1.22-1-.94-.77-1.42-1.15l0,0a31.54,31.54,0,0,1-2.46-2.15c-.66-.62-1.39-1.15-2.06-1.75s-1.18-1.09-1.76-1.65l-.86-.85a9.83,9.83,0,0,0-1.19-.94c-.52-.43-1-.89-1.57-1.31a6.41,6.41,0,0,0-1.59-.8c-.36-.16-.71-.33-1.07-.48a2.64,2.64,0,0,0-1-.2,2.72,2.72,0,0,0-2.41,1.35Zm15.43,8.33.24.19-.24-.19Z"/><path class="cls-2" d="M1362.89,788.39a7.82,7.82,0,0,0-2.81,10.69l1.23,1.58a7.73,7.73,0,0,0,3.45,2c1.59.24,3.14.57,4.75.73a19,19,0,0,0,3.62-.12l2.08-.28a7.81,7.81,0,0,0,3.45-13.06,7.54,7.54,0,0,0-5.53-2.29,23.72,23.72,0,0,1-3,.15l-1.18-.2-2.08-.28a7.8,7.8,0,0,0-3.94,1.07Z"/><path class="cls-2" d="M1357.16,756c-2.08.35-3.85,2.69-3.13,4.8a7.15,7.15,0,0,0,2.92,3.37,21.22,21.22,0,0,0,3,1.69c1.2.64,2.34,1.39,3.55,2,.59.31,1.2.59,1.82.86,1.14.49,2.47,1.26,3.76.76a3.17,3.17,0,0,0,.9-.4c1.91.83,3.82,1.63,5.73,2.42h0l.28.12-.23-.1,2.47,1c2.35,1,4.71,1.94,7.08,2.9,2,.81,4.05,1.68,6.14,2.34,1.85.58,3.75,1.08,5.57,1.78.68.27,1.38.48,2.09.7.94.28,1.85.65,2.79.91s2,.44,3,.7l2.52.67c1.39.36,2.73.87,4.14,1.15s2.93.49,4.41.73c3.15.51,6.32.94,9.46,1.53,1.71.33,3.37.73,5,1.18s3.44,1,5.19,1.39a5.19,5.19,0,0,0,5.86-2.38,5.23,5.23,0,0,0,.52-4,5,5,0,0,0-2.38-3.1c-2.05-1-4.18-1.79-6.3-2.59a50.13,50.13,0,0,0-5.22-1.78c-1.79-.45-3.59-.83-5.39-1.24s-3.31-.73-5-1a42.19,42.19,0,0,1-4.73-1c-1.21-.36-2.42-.71-3.63-1-1-.27-2-.55-3-.77s-2.09-.59-3.13-.9a34,34,0,0,0-4.7-.95c-2.09-.32-4.11-.86-6.16-1.38s-4.29-1.18-6.45-1.72c-1.1-.28-2.17-.65-3.25-1s-2.33-.71-3.48-1.08c-1.47-.47-3-.89-4.42-1.38-1.2-.4-2.4-.87-3.57-1.35-1.68-.71-3.34-1.45-5-2.15l1,.44a13.61,13.61,0,0,0-2-.78c-.28-.06-.56-.1-.85-.14a18.69,18.69,0,0,1-2.21-.53A18,18,0,0,0,1360,756a8.28,8.28,0,0,0-1.44-.15,7.48,7.48,0,0,0-1.38.14Zm14.38,4,.57.25-.57-.25Z"/><path class="cls-2" d="M1330.78,806.14a7.82,7.82,0,1,0,7.82-7.81,7.9,7.9,0,0,0-7.82,7.81Z"/><path class="cls-2" d="M1458.09,830.89c-1.45,0-2.9,0-4.35.05s-3,.2-4.44.3c-1.25.08-2.49.13-3.73.25-1.57.15-3.13.35-4.69.58q-3.23.49-6.4,1.24c-2.11.49-4.24.9-6.33,1.51s-4.16,1.33-6.23,2-4.27,1.43-6.37,2.23c-2.65,1-5.3,1.94-7.87,3.14a39.82,39.82,0,0,0-3.59,1.92c-1.38.82-2.69,1.75-4.1,2.53s-2.67,1.43-4,2.25-2.44,1.67-3.67,2.49-2.74,1.74-4.09,2.63a56.92,56.92,0,0,0-4.77,3.52,36.31,36.31,0,0,0-3.5,3.29c-1.43,1.55-2.69,3.24-4,4.91-1.1,1.44-2.16,2.91-3.24,4.36a42.49,42.49,0,0,0-2.91,4.16,4.78,4.78,0,0,0,4.13,7.19,5,5,0,0,0,3.38-1.4c1-.9,1.93-2,2.87-2.94s1.61-1.78,2.43-2.66c1-1.1,2-2.18,3.12-3.22.8-.78,1.64-1.51,2.5-2.23,2.19-1.6,4.49-3,6.81-4.43,1.26-.77,2.54-1.53,3.77-2.35s2.33-1.64,3.52-2.44,2.45-1.52,3.71-2.23,2.54-1.62,3.82-2.43a42.77,42.77,0,0,1,5.75-3.06c1.44-.6,2.89-1.19,4.31-1.84,1-.48,2-1,3.07-1.43q2.48-1,5-2c1-.37,1.93-.69,2.89-1s1.84-.63,2.78-.87,2-.43,2.93-.64,2.06-.49,3.1-.71c1.81-.39,3.64-.73,5.47-1,1-.12,2-.23,2.93-.29,1.75-.1,3.5-.26,5.25-.32s3.4,0,5.1,0c1.26,0,2.53,0,3.79.18,1,.15,2,.28,3,.37.81.08,1.61.14,2.42.23a33.33,33.33,0,0,0,5.81.55c1,0,1.9-.17,2.84-.24,1.32-.1,2.61-.26,3.91-.44a29,29,0,0,1,3.73-.07c1.35,0,2.7.09,4,.17s2.75.13,4.11.09c1.17-.05,2.33-.22,3.48-.35a1.65,1.65,0,0,0,1.63-1.62,1.62,1.62,0,0,0-1.63-1.62,14,14,0,0,1-2.59.06,42,42,0,0,1-5.65-1.77c-1.91-.64-3.86-1.18-5.73-1.93-.81-.34-1.62-.7-2.41-1.1a28.07,28.07,0,0,0-3.47-1.52,46,46,0,0,0-4.46-1.23,41.1,41.1,0,0,0-9.58-.88l-3.68,0Z"/><path class="cls-2" d="M1559.28,738.91c-.83,0-1.64.14-2.47.25a5.45,5.45,0,0,0-.8.18,14.25,14.25,0,0,0-1.48.21,9.35,9.35,0,0,0-1.46.42l-.84.31-.28,0a11.42,11.42,0,0,0-3.55,1.26l-.24.08c-.62.21-1.25.39-1.87.61a48.16,48.16,0,0,0-4.81,2.3c-.14.06-.27.13-.4.2-.93.34-1.88.63-2.81.94-1.65.57-3.25,1.31-4.85,2l-2.89,1.18.58-.24c-1.65.69-3.32,1.33-4.95,2.08-1.13.51-2.24,1-3.38,1.55-1.32.54-2.65,1.08-4,1.53-1.63.53-3.23,1.14-4.82,1.76-1.29.49-2.57,1-3.86,1.52-.68.28-1.38.54-2.07.82-.85.35-1.68.74-2.52,1.11-1.65.65-3.31,1.27-5,1.9-1.87.71-3.69,1.5-5.53,2.29s-3.64,1.47-5.47,2.18c-1,.37-2,.74-2.94,1-1.28.37-2.6.61-3.89.92-3,.71-6.12,1.35-9.15,2.17s-6.32,1.72-9.46,2.68a44.35,44.35,0,0,0-6.17,2.37,13,13,0,0,0-2.23,1.43c-1.16.88-2.33,1.74-3.43,2.7A5,5,0,0,0,1451,781a5.1,5.1,0,0,0,3.57,6.28,5.38,5.38,0,0,0,3.93-.51c1.46-.73,2.86-1.55,4.34-2.23s2.84-1,4.28-1.46c1.65-.51,3.28-1,4.93-1.53,3.1-.9,6.19-1.84,9.3-2.72,2.69-.76,5.38-1.53,8-2.41,1.91-.64,3.79-1.44,5.64-2.22,1-.41,2-.78,3-1.18s2.2-1,3.3-1.43c1.53-.62,3.1-1.16,4.63-1.78.87-.35,1.75-.67,2.62-1,1.1-.45,2.16-1,3.24-1.43,1.55-.64,3.09-1.27,4.63-1.92s3-1.33,4.43-2c.87-.34,1.75-.63,2.62-1q2.19-.87,4.34-1.81c1.82-.8,3.57-1.72,5.39-2.49l-.76.32c2.48-1.06,4.91-2.22,7.34-3.4,1.56-.76,3.17-1.44,4.74-2.21,1.21-.59,2.34-1.32,3.49-2l.32-.19a5.52,5.52,0,0,0,1.55-.51l.23-.1c.65-.26,1.3-.5,2-.77.89-.38,1.75-.8,2.63-1.2a25.25,25.25,0,0,0,2.35-1h.37c.51,0,1,.06,1.52.12,1.09.16,2.17.37,3.24.57a29.3,29.3,0,0,1,4.45,1.13c1,.47,2,1.06,3,1.54a8.53,8.53,0,0,0,3.32,1.07,3.44,3.44,0,0,0,2.54-1,3.28,3.28,0,0,0,.84-3.28,14.81,14.81,0,0,0-1.21-2.3c-.17-.26-.35-.5-.51-.77a3.72,3.72,0,0,0-.82-1.29,3.22,3.22,0,0,0-1.22-.84c-.55-.25-1.1-.46-1.65-.69-1.07-.45-2.14-.89-3.22-1.31-.59-.22-1.18-.43-1.78-.62a13.23,13.23,0,0,0-2.73-.48c-.64-.05-1.28-.07-1.93-.07s-1.25,0-1.87,0Z"/></svg>